<?xml version="1.0" encoding="utf-8"?>
<!-- Generator: Adobe Illustrator 16.0.0, SVG Export Plug-In . SVG Version: 6.00 Build 0)  -->
<!DOCTYPE svg PUBLIC "-//W3C//DTD SVG 1.1//EN" "http://www.w3.org/Graphics/SVG/1.1/DTD/svg11.dtd">
<svg version="1.1" id="Layer_1" xmlns="http://www.w3.org/2000/svg" xmlns:xlink="http://www.w3.org/1999/xlink" x="0px" y="0px"
	 width="130.6px" height="78.2px" viewBox="281.1 -219.4 130.6 78.2" style="enable-background:new 281.1 -219.4 130.6 78.2;"
	 xml:space="preserve">
<style type="text/css">
<![CDATA[
	.st0{fill:#FF00FF;}
]]>
</style>
<g>
	<path d="M388.6-146.3c-5.7,0-8.1-4-8.2-4.3c-0.4-0.8-1.3-1.3-2.2-1.3c-0.9,0-1.8,0.5-2.2,1.3c-0.2,0.3-2.6,4.3-7.9,4.3
		c-2.3,0-4.5-0.7-6.4-2.2c-1.4-1.1-2.2-2.2-2.3-2.3c-0.4-0.7-1.2-1.1-2-1.1c-0.8,0-1.6,0.3-2.1,1c0,0-3.8,4.7-8.4,4.7
		c-4.7,0-8.7-4-8.8-4.1c-0.4-0.5-1.1-0.7-1.8-0.7s-1.3,0.2-1.8,0.7c-1.8,1.9-3.7,3.1-5.6,3.7c-1.4,0.4-2.4,0.4-3,0.4
		c-0.1,0-0.2,0-0.3,0c-1.4,0-2.5,1.1-2.5,2.5c0,1.4,1.1,2.5,2.5,2.5h0.1c0.1,0,0.3,0,0.5,0c0.9,0,2.3-0.1,4.1-0.7
		c2-0.7,4-1.8,5.8-3.4c2.2,1.7,6,4,10.6,4c4.5,0,8.1-2.5,10.2-4.4c2.1,2,5.7,4.4,10.9,4.4c4.9,0,8.2-2.2,10.1-4.1
		c2,1.9,5.3,4.1,10.4,4.1c1.4,0,2.5-1.1,2.5-2.5C391-145.1,389.9-146.3,388.6-146.3z"/>
	<path class="st0" d="M388.6-146.3v-0.5c-2.7,0-4.6-1-5.9-1.9c-0.6-0.5-1.1-1-1.4-1.4c-0.2-0.2-0.3-0.4-0.3-0.5l-0.1-0.1l0,0l0,0
		l-0.2,0.1l0.2-0.1l0,0l-0.2,0.1l0.2-0.1l0,0l0,0c-0.5-1-1.6-1.6-2.6-1.6c-1.1,0-2.1,0.6-2.6,1.6l0.4,0.2l-0.4-0.3
		c0,0.1-0.1,0.1-0.2,0.3c-0.3,0.5-1,1.4-2.2,2.3c-1.2,0.8-2.9,1.6-5.1,1.6c-2.2,0-4.3-0.7-6.1-2.1c-0.7-0.5-1.2-1.1-1.6-1.5
		c-0.2-0.2-0.3-0.4-0.4-0.5l-0.1-0.2l-0.1-0.1l-0.4,0.4l0.4-0.2c-0.5-0.9-1.5-1.4-2.4-1.4c-0.9,0-1.9,0.4-2.5,1.2l0.4,0.3l-0.4-0.3
		l0,0c-0.2,0.2-1.2,1.4-2.6,2.4c-1.4,1.1-3.3,2-5.3,2c-2.2,0-4.3-0.9-5.9-1.9c-1.6-1-2.6-2-2.6-2l-0.4,0.4l0.4-0.3
		c-0.6-0.7-1.4-0.9-2.2-0.9c-0.8,0-1.6,0.2-2.2,0.8l0,0l0,0c-1.8,1.8-3.6,3-5.4,3.6l0.2,0.5l-0.1-0.5c-1.3,0.4-2.3,0.4-2.9,0.4
		c-0.1,0-0.2,0-0.3,0c-0.8,0-1.6,0.3-2.1,0.9c-0.5,0.5-0.9,1.3-0.9,2.1c0,0.8,0.3,1.6,0.9,2.1c0.5,0.5,1.3,0.9,2.1,0.9h0.1
		c0.1,0,0.3,0,0.5,0c0.9,0,2.4-0.1,4.3-0.7l0,0l0,0c2.1-0.7,4.1-1.9,6-3.5l-0.3-0.4l-0.3,0.4c2.2,1.7,6.1,4.1,10.9,4.1
		c4.7,0,8.4-2.6,10.5-4.5l-0.3-0.4l-0.3,0.4c2.2,2.1,5.9,4.5,11.2,4.5c5.1,0,8.5-2.3,10.5-4.2l-0.4-0.4l-0.3,0.4
		c2.1,2,5.5,4.2,10.7,4.2c0.8,0,1.6-0.3,2.1-0.9c0.5-0.5,0.9-1.3,0.9-2.1h-0.5l0.5,0.1c0-0.1,0-0.3,0-0.4c0-1.5-1.2-2.7-2.7-2.7
		V-146.3v0.5c0.5,0,0.9,0.2,1.2,0.5c0.3,0.3,0.5,0.7,0.5,1.2l0,0.2l0,0v0c0,1.1-0.9,2-2,2c-5,0-8.1-2.1-10.1-4l-0.4-0.3l-0.3,0.3
		c-1.8,1.8-5,4-9.7,4c-5,0-8.5-2.3-10.6-4.3l-0.3-0.3l-0.3,0.3c-2.1,1.9-5.6,4.3-9.9,4.3c-4.4,0-8.1-2.2-10.3-3.9l-0.3-0.3l-0.3,0.3
		c-1.7,1.6-3.7,2.6-5.6,3.3l0.2,0.5l-0.2-0.5c-1.7,0.6-3.1,0.7-3.9,0.7c-0.2,0-0.4,0-0.5,0h-0.1c-1.1,0-2-0.9-2-2c0-1.1,0.9-2,2-2
		c0.1,0,0.2,0,0.3,0c0.6,0,1.7,0,3.1-0.4l0,0l0,0c2-0.6,4-1.9,5.8-3.8l-0.4-0.3l0.4,0.4c0.4-0.4,0.8-0.5,1.4-0.6
		c0.6,0,1.2,0.2,1.4,0.5l0,0l0,0c0.1,0.1,1.1,1.1,2.8,2.2c1.6,1,3.9,2.1,6.4,2.1c2.5,0,4.7-1.2,6.2-2.5c1.6-1.2,2.5-2.4,2.6-2.4l0,0
		l0,0c0.4-0.5,1-0.8,1.7-0.8c0.6,0,1.3,0.3,1.6,0.8l0,0.1l0,0l0,0l0,0l0,0l0,0l0,0c0.1,0.1,0.3,0.4,0.7,0.8c0.4,0.4,0.9,1,1.6,1.5
		c2,1.6,4.3,2.3,6.7,2.3c2.8,0,4.8-1.1,6.2-2.1c0.7-0.5,1.2-1.1,1.5-1.5c0.2-0.2,0.3-0.4,0.4-0.6c0.1-0.1,0.2-0.3,0.2-0.3l0,0l0,0
		c0.3-0.6,1-1,1.8-1c0.7,0,1.5,0.4,1.8,1l0.4-0.2l-0.5,0.2l0.1,0.2c0.2,0.4,1,1.5,2.4,2.5c1.4,1,3.5,1.9,6.2,1.9V-146.3z"/>
	<path d="M409.2-166.1c-5.7,0-8.1-4-8.2-4.3c-0.4-0.8-1.3-1.3-2.2-1.3c-0.9,0-1.8,0.5-2.2,1.3c-0.2,0.3-2.6,4.3-7.9,4.3
		c-2.3,0-4.5-0.7-6.4-2.2c-1.3-0.9-1.5-2.1-1.5-2.2c-0.3-0.7-0.9-1.3-1.7-1.5c-0.8-0.2-1.6,0-2.2,0.5c0,0-3.5,4-8.1,4.2
		c-5.8,0.2-5.9-5.7-5.5-8.6c0.2-1.1-0.7-1.8-1.3-2c-0.6-0.2-1.3-0.1-1.9,0.2c-2.3,1.2-5.8,6.2-12.3,7.5c-16.1,3.1-32.5-20.1-17.5-36
		c9.2-9.7,22-2.3,23,5.4c0.5,3.5-0.9,6.3-3,8.1c-2.4,2.1-5.7,2.3-9.6,0.6c-1.6-0.8-2.5-1.9-2.6-3.3c-0.1-1.1,0.4-2.2,1.3-2.9
		c0.9-0.6,2.1-0.6,3.4,0c1.1,0.5,2.4,0.1,2.9-1c0.5-1.1,0.1-2.4-1-2.9c-2.7-1.3-5.5-1.2-7.7,0.3s-3.4,4.1-3.2,6.8
		c0.2,2.9,2.1,5.5,5.1,6.9c0,0,0,0,0.1,0c7.5,3.3,12.2,0.6,14.4-1.3c4-3.6,6.1-10,4.3-15.8c-2.1-6.7-8.5-12.9-16.4-13.9
		c-10.5-1.3-19.4,3.2-26.5,9.9c-6,5.6-10.8,14.1-14.7,26.1c-3.8,11.7-10.8,16.2-12.7,16.8c-1.4,0.4-2.4,0.4-3,0.4
		c-0.1,0-0.2,0-0.3,0c-0.4,0-0.9,0.1-1.3,0.4c-0.9,0.2-1.6,0.9-1.7,1.8c-0.2,1.2,0.6,2.3,1.7,2.5c0.4,0.2,0.8,0.3,1.2,0.3h0.1
		c0.1,0,0.3,0,0.5,0c0.9,0,2.3-0.1,4.1-0.7c2-0.7,4-1.8,5.8-3.4c2.2,1.7,6,4,10.6,4c4.5,0,8.1-2.5,10.2-4.4c2.1,2,5.7,4.5,10.8,4.5
		c4.2,0,8.3-1.9,9.9-3.5c2,1.7,5.9,3.3,10.2,3.5c0.1,0,0.2,0,0.3,0h0.1c0.1,0,0.3,0,0.5,0c0.9,0,2.3-0.1,4.1-0.7
		c2-0.7,4-1.8,5.8-3.4c2.2,1.7,6,4,10.6,4c4.5,0,8.1-2.5,10.2-4.4c2.1,2,5.7,4.4,10.9,4.4c4.9,0,8.2-2.2,10.1-4.1
		c2,1.9,5.3,4.1,10.4,4.1c1.4,0,2.5-1.1,2.5-2.5S410.6-166.1,409.2-166.1z"/>
	<path class="st0" d="M409.2-166.1v-0.5c-2.7,0-4.6-1-5.9-1.9c-0.6-0.5-1.1-1-1.4-1.4c-0.2-0.2-0.3-0.4-0.3-0.5l-0.1-0.1l0,0l0,0
		l-0.2,0.1l0.2-0.1l0,0l-0.2,0.1l0.2-0.1l0,0l0,0c-0.5-1-1.6-1.6-2.6-1.6c-1.1,0-2.1,0.6-2.6,1.6l0.4,0.2l-0.4-0.3
		c0,0.1-0.1,0.1-0.2,0.3c-0.3,0.5-1,1.4-2.2,2.3c-1.2,0.8-2.9,1.6-5.1,1.6c-2.2,0-4.3-0.7-6.1-2.1l0,0l0,0c-0.6-0.4-0.9-0.9-1.1-1.2
		c-0.1-0.2-0.1-0.3-0.2-0.5l0-0.1l0,0l-0.2,0h0.2l0,0l-0.2,0h0.2v-0.1l0-0.1c-0.4-0.8-1.1-1.5-2-1.8c-0.2-0.1-0.5-0.1-0.7-0.1
		c-0.7,0-1.4,0.2-1.9,0.7l0,0l0,0l0,0c-0.2,0.2-1.1,1.2-2.5,2.1c-1.4,0.9-3.2,1.8-5.2,1.9h0c-0.1,0-0.2,0-0.3,0
		c-1,0-1.8-0.2-2.5-0.6c-0.9-0.5-1.5-1.3-1.9-2.3c-0.4-1-0.5-2.1-0.5-3.2c0-0.7,0.1-1.4,0.1-1.9l-0.5-0.1l0.5,0.1c0-0.1,0-0.3,0-0.4
		c0-0.6-0.3-1.1-0.6-1.5c-0.3-0.4-0.7-0.6-1.1-0.7c-0.3-0.1-0.5-0.1-0.8-0.1c-0.5,0-1,0.1-1.5,0.4l0,0l0,0c-0.7,0.3-1.3,0.9-2.1,1.6
		c-2.3,2-5.4,4.9-10.1,5.9l0,0c-1,0.2-1.9,0.3-2.9,0.3c-5.1,0-10.1-2.6-13.8-6.6c-3.7-4-6.1-9.4-6.1-15c0-4.7,1.7-9.5,5.8-13.9
		c3.1-3.2,6.5-4.5,9.7-4.5c3.1,0,6.1,1.2,8.4,3c2.3,1.8,3.8,4.2,4.1,6.6l0,0v0c0.1,0.5,0.1,0.9,0.1,1.3c0,2.7-1.2,4.8-2.9,6.3l0,0
		l0,0c-1.2,1.1-2.7,1.6-4.4,1.6c-1.4,0-3-0.4-4.6-1.1l-0.2,0.5l0.2-0.4c-0.8-0.4-1.3-0.8-1.7-1.3c-0.4-0.5-0.6-1-0.6-1.6l0,0v0
		l0-0.2c0-0.8,0.4-1.7,1.1-2.2l-0.3-0.4l0.3,0.4c0.4-0.2,0.8-0.4,1.3-0.4c0.5,0,1,0.1,1.6,0.4l0,0c0.4,0.2,0.8,0.3,1.2,0.3
		c1,0,1.9-0.5,2.4-1.5c0.2-0.4,0.3-0.8,0.3-1.2c0-1-0.5-1.9-1.5-2.4l-0.2,0.5l0.2-0.5c-1.3-0.6-2.7-1-4-1c-1.5,0-3,0.4-4.2,1.3
		c-2.2,1.5-3.4,4-3.4,6.6c0,0.2,0,0.4,0,0.6v0c0.2,3.1,2.2,5.9,5.4,7.3l0.1,0h0.1c0,0,0,0,0.1,0v-0.5l-0.2,0.5
		c2.6,1.1,4.9,1.6,6.9,1.6c3.9,0,6.5-1.7,8-3l0,0l0,0c3.1-2.8,5.1-7.2,5.1-11.8c0-1.5-0.2-3-0.7-4.5l0,0l0,0
		c-2.2-6.9-8.7-13.2-16.8-14.2h0c-1.2-0.2-2.5-0.2-3.7-0.2c-9.1,0-16.9,4.3-23.2,10.3l0,0c-6.1,5.7-10.9,14.3-14.8,26.3
		c-1.9,5.8-4.5,9.8-7,12.4c-1.2,1.3-2.4,2.3-3.3,2.9c-0.9,0.7-1.7,1-2.1,1.2l0.2,0.5l-0.1-0.5c-1.3,0.4-2.3,0.4-2.9,0.4
		c-0.1,0-0.2,0-0.3,0c-0.5,0-1.1,0.1-1.6,0.5l0.3,0.4l-0.1-0.5c-1.1,0.2-2,1.1-2.1,2.2l0.5,0.1l-0.5-0.1c0,0.2,0,0.3,0,0.5
		c0,1.3,0.9,2.4,2.1,2.6l0.1-0.5l-0.2,0.4c0.5,0.2,0.9,0.4,1.4,0.4h0.1c0.1,0,0.3,0,0.5,0c0.9,0,2.4-0.1,4.3-0.7l0,0l0,0
		c2.1-0.7,4.1-1.9,6-3.5l-0.3-0.4l-0.3,0.4c2.2,1.7,6.1,4.1,10.9,4.1c4.7,0,8.4-2.6,10.5-4.5l-0.3-0.4l-0.3,0.4
		c2.2,2.1,5.9,4.6,11.1,4.6c2.2,0,4.3-0.5,6.1-1.2c1.8-0.7,3.3-1.6,4.1-2.5l-0.4-0.4l-0.3,0.4c2.1,1.8,6.1,3.4,10.5,3.6l0,0h0
		c0.1,0,0.2,0,0.3,0h0.1c0.1,0,0.3,0,0.5,0c0.9,0,2.4-0.1,4.3-0.7l0,0l0,0c2.1-0.7,4.1-1.9,6-3.5l-0.3-0.4l-0.3,0.4
		c2.2,1.7,6.1,4.1,10.9,4.1c4.7,0,8.4-2.6,10.5-4.5l-0.3-0.4l-0.3,0.4c2.2,2.1,5.9,4.5,11.2,4.5c5.1,0,8.5-2.3,10.5-4.2l-0.4-0.4
		l-0.3,0.4c2.1,2,5.5,4.2,10.7,4.2c0.8,0,1.6-0.3,2.1-0.9c0.5-0.5,0.9-1.3,0.9-2.1c0-0.8-0.3-1.6-0.9-2.1c-0.5-0.5-1.3-0.9-2.1-0.9
		V-166.1v0.5c1.1,0,2,0.9,2,2c0,1.1-0.9,2-2,2c-5,0-8.1-2.1-10.1-4l-0.4-0.3l-0.3,0.3c-1.8,1.8-5,4-9.7,4c-5,0-8.5-2.3-10.6-4.3
		l-0.3-0.3l-0.3,0.3c-2.1,1.9-5.6,4.3-9.9,4.3c-4.4,0-8.1-2.2-10.3-3.9l-0.3-0.3l-0.3,0.3c-1.7,1.6-3.7,2.6-5.6,3.3l0.2,0.5
		l-0.2-0.5c-1.7,0.6-3.1,0.7-3.9,0.7c-0.2,0-0.4,0-0.5,0h-0.1c-0.1,0-0.2,0-0.3,0v0.5l0-0.5c-4.2-0.2-8-1.8-9.9-3.4l-0.4-0.3
		l-0.3,0.3c-0.7,0.7-2.1,1.6-3.8,2.2c-1.7,0.7-3.7,1.1-5.7,1.1c-4.9,0-8.4-2.4-10.5-4.4l-0.3-0.3l-0.3,0.3c-2.1,1.9-5.6,4.3-9.9,4.3
		c-4.4,0-8.1-2.2-10.3-3.9l-0.3-0.3l-0.3,0.3c-1.7,1.6-3.7,2.6-5.6,3.3l0.2,0.5l-0.2-0.5c-1.7,0.6-3.1,0.7-3.9,0.7
		c-0.2,0-0.4,0-0.5,0H284c-0.3,0-0.6-0.1-1-0.2l-0.1,0l-0.1,0c-0.7-0.1-1.3-0.8-1.3-1.6c0-0.1,0-0.2,0-0.3l0,0l0,0
		c0.1-0.7,0.6-1.2,1.3-1.4l0.1,0l0.1-0.1c0.3-0.2,0.7-0.3,1-0.3c0.1,0,0.2,0,0.3,0c0.6,0,1.7,0,3.1-0.4l0,0l0,0
		c0.6-0.2,1.4-0.6,2.4-1.3c3-2.1,7.8-6.9,10.6-15.8c3.9-12,8.7-20.4,14.6-25.9l0,0c6.2-5.9,13.8-10,22.6-10c1.2,0,2.3,0.1,3.5,0.2h0
		c7.7,1,13.9,7,16,13.6l0,0l0,0c0.4,1.4,0.6,2.8,0.6,4.2c0,4.3-1.9,8.5-4.8,11.1l0.3,0.4l-0.3-0.4c-1.4,1.2-3.8,2.7-7.4,2.7
		c-1.8,0-4-0.4-6.5-1.5l-0.1,0H339c-0.1,0-0.1,0-0.1,0v0.5l0.2-0.5c-2.9-1.3-4.6-3.8-4.8-6.5v0c0-0.2,0-0.4,0-0.5
		c0-2.3,1.1-4.5,3-5.8c1.1-0.7,2.3-1.1,3.7-1.1c1.1,0,2.3,0.3,3.5,0.9l0,0l0,0c0.6,0.3,0.9,0.8,0.9,1.5c0,0.3-0.1,0.5-0.2,0.8
		c-0.3,0.6-0.8,0.9-1.5,0.9c-0.3,0-0.5-0.1-0.8-0.2l0,0c-0.7-0.3-1.4-0.5-2.1-0.5c-0.7,0-1.3,0.2-1.8,0.5l0,0l0,0
		c-0.9,0.7-1.5,1.8-1.5,3c0,0.1,0,0.2,0,0.3l0.5,0l-0.5,0c0.1,0.8,0.3,1.5,0.8,2.2c0.5,0.6,1.2,1.1,2,1.6l0,0l0,0
		c1.8,0.8,3.5,1.2,5,1.2c1.9,0,3.7-0.6,5.1-1.9l-0.3-0.4l0.3,0.4c1.9-1.6,3.3-4.1,3.3-7.1c0-0.5,0-1-0.1-1.5l-0.5,0.1l0.5-0.1
		c-0.4-2.7-2-5.3-4.5-7.2c-2.4-1.9-5.6-3.2-9-3.2c-3.5,0-7.2,1.4-10.4,4.8c-4.3,4.5-6.1,9.6-6,14.6c0,5.9,2.5,11.5,6.4,15.7
		c3.9,4.2,9.1,6.9,14.6,6.9c1,0,2-0.1,3.1-0.3l0,0c3.4-0.7,5.9-2.3,7.9-3.9c1-0.8,1.9-1.6,2.6-2.2c0.7-0.7,1.4-1.2,1.9-1.4l-0.2-0.4
		l0.2,0.4c0.3-0.2,0.7-0.3,1-0.3c0.2,0,0.4,0,0.5,0.1c0.2,0.1,0.5,0.2,0.7,0.4c0.2,0.2,0.3,0.5,0.3,0.8l0,0.2l0,0l0,0
		c-0.1,0.6-0.1,1.3-0.1,2.1c0,1.5,0.2,3.3,1.1,4.7c0.4,0.7,1,1.3,1.8,1.8c0.8,0.4,1.8,0.7,2.9,0.7c0.1,0,0.2,0,0.3,0h0h0
		c2.4-0.1,4.5-1.2,6-2.3c1.5-1.1,2.4-2.1,2.4-2.1l-0.4-0.3l0.3,0.4c0.4-0.3,0.8-0.5,1.3-0.5c0.2,0,0.3,0,0.5,0.1
		c0.6,0.2,1.1,0.6,1.4,1.2l0.5-0.2h-0.5l0,0.2c0.1,0.4,0.4,1.5,1.7,2.4l0.3-0.4l-0.3,0.4c2,1.6,4.3,2.3,6.7,2.3
		c2.8,0,4.8-1.1,6.2-2.1c0.7-0.5,1.2-1.1,1.5-1.5c0.2-0.2,0.3-0.4,0.4-0.6c0.1-0.1,0.2-0.3,0.2-0.3l0,0l0,0c0.3-0.6,1-1,1.8-1
		c0.7,0,1.5,0.4,1.8,1l0.4-0.2l-0.5,0.2l0.1,0.2c0.2,0.4,1,1.5,2.4,2.5c1.4,1,3.5,1.9,6.2,1.9V-166.1z"/>
</g>
</svg>
