<?xml version="1.0" encoding="utf-8"?>
<!-- Generator: Adobe Illustrator 16.0.0, SVG Export Plug-In . SVG Version: 6.00 Build 0)  -->
<!DOCTYPE svg PUBLIC "-//W3C//DTD SVG 1.1//EN" "http://www.w3.org/Graphics/SVG/1.1/DTD/svg11.dtd">
<svg version="1.1" id="Layer_1" xmlns="http://www.w3.org/2000/svg" xmlns:xlink="http://www.w3.org/1999/xlink" x="0px" y="0px"
	 width="116.9px" height="73px" viewBox="108.2 -45 116.9 73" style="enable-background:new 108.2 -45 116.9 73;"
	 xml:space="preserve">
<style type="text/css">
<![CDATA[
	.st0{fill:#FF00FF;}
	.st1{fill:#333333;}
]]>
</style>
<g>
	<path class="st1" d="M225.1-8.5L181.3,28V6.1c-32.9,0-58.4-7.3-73.1-43.8c21.9,18.3,43.8,21.9,73.1,14.6V-45L225.1-8.5z"/>
	<path class="st0" d="M225.1-8.5l-0.3-0.4l-43,35.8V5.6h-0.5c-16.4,0-30.9-1.8-43.1-8.2c-12.2-6.3-22.2-17.2-29.5-35.3l-0.5,0.2
		l-0.3,0.4c15,12.6,30.1,18.3,47.5,18.3c8.1,0,16.7-1.2,26-3.6l0.4-0.1v-21.2l43,35.8L225.1-8.5l-0.3-0.4L225.1-8.5l0.3-0.4
		l-44.6-37.2v23h0.5l-0.1-0.5c-9.3,2.3-17.8,3.5-25.8,3.5c-17.2,0-32-5.6-46.9-18l-1.5-1.3l0.7,1.8c7.4,18.3,17.5,29.4,30,35.8
		c12.4,6.4,27.1,8.3,43.6,8.3V6.1h-0.5v23l45.1-37.6l-0.5-0.4L225.1-8.5z"/>
</g>
</svg>
