<?xml version="1.0" encoding="utf-8"?>
<!-- Generator: Adobe Illustrator 16.0.0, SVG Export Plug-In . SVG Version: 6.00 Build 0)  -->
<!DOCTYPE svg PUBLIC "-//W3C//DTD SVG 1.1//EN" "http://www.w3.org/Graphics/SVG/1.1/DTD/svg11.dtd">
<svg version="1.1" id="Globe" xmlns="http://www.w3.org/2000/svg" xmlns:xlink="http://www.w3.org/1999/xlink" x="0px" y="0px"
	 width="30px" height="30px" viewBox="-71.5 68.5 30 30" style="enable-background:new -71.5 68.5 30 30;" xml:space="preserve">
<g id="XMLID_1_">
	<g>
		<path d="M-56.5,68.5c8.3,0,15,6.7,15,15s-6.7,15-15,15s-15-6.7-15-15S-64.8,68.5-56.5,68.5z M-43.7,83.5c0-5.6-3.6-10.5-8.8-12.2
			c-0.3,0.3-0.5,0.8-0.5,0.9c0.3,3.4,2.7,0.8,3.1,1.4c1.6,1.9-3,2.3-1.4,5.6c0.8,1.6,1.7,2,3,2s1.7,2.2,1.9,3.1s0,3.3-0.5,4.4
			s0,2,0.5,2.3C-44.8,89.1-43.7,86.5-43.7,83.5z M-49.5,94.1c-0.6-1.1-2.7-1.1-3.8-1.1c-1.2,0.2-2.7,0.9-3.4,1.1
			c-0.9,0.2-1.6,0.5-2.3,0.5c-0.6,0-0.8,0.5-1.6,0.9c1.2,0.5,2.7,0.6,4.1,0.6C-53.8,96.3-51.5,95.5-49.5,94.1z M-56.2,83.3
			c1.7-4.5-3.6-4.8-4.4-5.2s-2-0.3-2.5-0.2s-1.4-0.6-1.4-1.2s1.9-2,2.5-3s1.1-0.8,2-1.7c0.5-0.5,1.2-0.6,1.6-1.2
			c-4.7,0.6-8.6,3.8-10.2,8.1c0.9,0.2,3.3,0.2,3.4,0.9c0.3,0.8-0.9,1.6-0.9,3.3c0,1.9,2.3,1.9,2.3,3.3s0.5,3,0.5,3.4s2,3,2.7,3
			c0.8,0,0.2-2.8,0.2-3.6c0-0.5,0.3-2,0.5-2.3C-59.2,84.6-56.7,84.8-56.2,83.3z"/>
	</g>
</g>
</svg>
