<?xml version="1.0" encoding="utf-8"?>
<!-- Generator: Adobe Illustrator 16.0.0, SVG Export Plug-In . SVG Version: 6.00 Build 0)  -->
<!DOCTYPE svg PUBLIC "-//W3C//DTD SVG 1.1//EN" "http://www.w3.org/Graphics/SVG/1.1/DTD/svg11.dtd">
<svg version="1.1" id="Layer_1" xmlns="http://www.w3.org/2000/svg" xmlns:xlink="http://www.w3.org/1999/xlink" x="0px" y="0px"
	 width="124.4px" height="102.4px" viewBox="63.1 -15.5 124.4 102.4" style="enable-background:new 63.1 -15.5 124.4 102.4;"
	 xml:space="preserve">
<style type="text/css">
<![CDATA[
	.st0{fill:#FF00FF;}
	.st1{fill:#FF9999;}
]]>
</style>
<g>
	<path class="st1" d="M171.2-2.5c3.4,1.5,7.4-0.1,8.8-3.6c1.5-3.4-0.1-7.4-3.6-8.8c-3.4-1.5-7.4,0.1-8.8,3.6
		C166.2-7.9,167.8-4,171.2-2.5z"/>
	<path class="st0" d="M171.2-2.5L171-2c0.9,0.4,1.9,0.6,2.9,0.6c2.8,0,5.5-1.7,6.6-4.5L180-6.1l0.5,0.2c0.4-0.9,0.6-1.9,0.6-2.9
		c0-2.8-1.7-5.5-4.5-6.6l-0.2,0.5l0.2-0.5c-0.9-0.4-1.9-0.6-2.9-0.6c-2.8,0-5.5,1.7-6.6,4.5l0.5,0.2l-0.5-0.2
		c-0.4,0.9-0.5,1.8-0.5,2.7c0,2.8,1.7,5.5,4.4,6.7L171.2-2.5l0.2-0.5c-2.4-1.1-3.8-3.4-3.8-5.8c0-0.8,0.2-1.6,0.5-2.4l0,0l0,0
		c1-2.4,3.3-3.8,5.7-3.8c0.8,0,1.7,0.2,2.5,0.5l0,0l0,0c2.4,1,3.8,3.3,3.8,5.7c0,0.8-0.2,1.7-0.5,2.5l0,0l0,0
		c-1,2.4-3.3,3.8-5.7,3.8c-0.8,0-1.7-0.2-2.5-0.5L171.2-2.5z"/>
	<path class="st1" d="M181.7,19.9l-13-21.6c-0.2-0.3-0.4-0.6-0.6-0.8l-1.9-3c-0.5-0.8-1.7-0.9-2.7-0.3L145.6,5.3l-0.8-11.8
		c-0.1-0.8-0.7-1.4-1.5-1.7c-0.6-0.3-1.3-0.4-2.1-0.3l-23.3,0.3c-1.8,0.2-3.1,1.2-3,2.4l0.3,2.4c0.1,1.2,1.6,2,3.4,1.8L135.2-2
		l0.8,12l-7.8-2.4c-0.7-0.2-1.5,0.1-2.2,0.8c-0.5,0.5-0.8,1.1-1.1,1.9L118.4,33c-0.5,1.7,0,3.4,1.1,3.7l2.3,0.6
		c1.1,0.3,2.4-0.8,2.9-2.5l4.7-16.2l12.9,4.6h0.1c0.6,0.2,1.3,0.1,1.9-0.3l21.1-13.5L176,23.7c0.9,1.5,2.5,2.3,3.5,1.7l2.1-1.6
		C182.6,23.2,182.6,21.4,181.7,19.9z"/>
	<path class="st0" d="M181.7,19.9l0.4-0.3L169.1-2l0,0c-0.2-0.3-0.4-0.6-0.7-0.9l-0.4,0.4l0.4-0.3l-1.9-3l0,0
		c-0.4-0.6-1.1-0.9-1.8-0.9c-0.5,0-1.1,0.2-1.6,0.5l0,0L146,4.4l-0.7-11l0,0c-0.1-0.5-0.3-1-0.6-1.3c-0.3-0.4-0.7-0.6-1.2-0.8
		l-0.2,0.5l0.2-0.4C143-8.9,142.4-9,141.8-9c-0.2,0-0.4,0-0.6,0l0.1,0.5l0-0.5l-23.3,0.3l0,0c-0.9,0.1-1.8,0.4-2.4,0.9
		c-0.6,0.5-1.1,1.1-1.1,1.9l0,0.2l0,0l0.3,2.4l0.5-0.1l-0.5,0c0.1,0.7,0.5,1.3,1.1,1.7c0.6,0.4,1.4,0.6,2.2,0.6c0.2,0,0.4,0,0.6,0
		l-0.1-0.5l0,0.5l16.1-0.4l0.7,10.8l-7.1-2.2l0,0C128.1,7.1,128,7,127.8,7c-0.8,0-1.5,0.4-2.1,1c-0.6,0.6-0.9,1.3-1.2,2.1l0,0
		l-6.5,22.7l0,0c-0.1,0.5-0.2,1-0.2,1.5c0,0.7,0.1,1.3,0.4,1.8c0.3,0.5,0.7,0.9,1.3,1.1l0,0l2.3,0.6l0.1-0.5l-0.1,0.5
		c0.2,0,0.3,0.1,0.5,0.1c0.7,0,1.3-0.3,1.8-0.9c0.5-0.5,0.9-1.2,1.2-2.1l4.6-15.7l12.5,4.5h0.2v-0.5l-0.2,0.5
		c0.3,0.1,0.5,0.1,0.8,0.1c0.5,0,1.1-0.2,1.6-0.5l-0.3-0.4l0.3,0.4l20.7-13.2L175.6,24l0.4-0.3l-0.4,0.3c0.4,0.6,0.9,1.2,1.4,1.5
		c0.5,0.4,1.1,0.6,1.7,0.6c0.4,0,0.7-0.1,1-0.3l0,0l2.1-1.6l-0.3-0.4l0.3,0.4c0.4-0.2,0.6-0.5,0.8-0.9c0.2-0.4,0.2-0.8,0.2-1.2
		c0-0.8-0.3-1.7-0.7-2.5v0L181.7,19.9l-0.4,0.3c0.4,0.7,0.6,1.4,0.6,2c0,0.3-0.1,0.6-0.1,0.8c-0.1,0.2-0.2,0.4-0.4,0.4l0,0l-2.1,1.6
		l0.3,0.4l-0.3-0.4c-0.1,0.1-0.3,0.1-0.5,0.1c-0.3,0-0.8-0.1-1.2-0.4c-0.4-0.3-0.8-0.7-1.1-1.2l0,0L165.5,8.7L144,22.5l0,0
		c-0.3,0.2-0.7,0.3-1,0.3c-0.2,0-0.3,0-0.5-0.1l-0.1,0h-0.1L129.1,18l-4.8,16.7l0,0c-0.2,0.7-0.5,1.2-0.9,1.6
		c-0.4,0.4-0.8,0.6-1.1,0.6l-0.2,0l0,0l-2.3-0.6l-0.1,0.5l0.1-0.5c-0.2-0.1-0.5-0.2-0.6-0.6c-0.2-0.3-0.3-0.8-0.3-1.3
		c0-0.4,0.1-0.8,0.2-1.2v0l6.5-22.7l-0.5-0.1l0.5,0.2c0.3-0.8,0.6-1.3,1-1.7c0.5-0.5,1-0.7,1.4-0.7c0.1,0,0.2,0,0.3,0l0.1-0.5
		l-0.1,0.5l8.5,2.6l-0.9-13.2l-17.1,0.4l0,0c-0.2,0-0.3,0-0.5,0c-0.7,0-1.3-0.2-1.7-0.4c-0.4-0.3-0.6-0.6-0.6-0.9l0,0l-0.3-2.4
		l-0.5,0.1l0.5,0l0-0.1c0-0.4,0.2-0.8,0.7-1.1c0.4-0.3,1.1-0.6,1.9-0.7l-0.1-0.5l0,0.5L141.2-8l0,0c0.2,0,0.4,0,0.5,0
		c0.5,0,0.9,0.1,1.3,0.3l0,0l0,0c0.3,0.1,0.6,0.3,0.8,0.5c0.2,0.2,0.3,0.5,0.4,0.8l0.5-0.1l-0.5,0l0.9,12.6l18.6-11.5l-0.3-0.4
		l0.3,0.4c0.4-0.2,0.7-0.3,1.1-0.3c0.4,0,0.8,0.2,1,0.5l1.9,3l0,0c0.1,0.1,0.3,0.4,0.5,0.7l0.4-0.3l-0.4,0.3l13,21.6v0L181.7,19.9z"
		/>
	<path class="st1" d="M110.6,0.1c-0.4,1.5-0.4,3.1-0.2,4.8c0.4,2.5,1.3,5.2,2.8,7.6c1.4,2.4,3.3,4.6,5.5,6.1
		c0.3,0.2,0.8,0.2,1.1-0.2c0.2-0.3,0.2-0.8-0.2-1.1c-1.3-0.9-2.5-2.1-3.6-3.5c-1.6-2.1-2.8-4.5-3.5-6.9c-0.3-1.2-0.6-2.4-0.6-3.5
		c-0.1-1.1,0-2.2,0.2-3.1c0.1-0.4-0.1-0.8-0.6-0.9C111.1-0.6,110.7-0.3,110.6,0.1z"/>
	<path class="st0" d="M110.6,0.1L110.1,0c-0.2,0.9-0.3,1.9-0.3,2.9c0,0.7,0.1,1.4,0.1,2.1l0,0l0,0c0.4,2.6,1.3,5.3,2.9,7.8l0.4-0.3
		l-0.4,0.3c1.4,2.5,3.4,4.7,5.7,6.3l0,0l0,0c0.2,0.1,0.5,0.2,0.7,0.2c0.4,0,0.8-0.2,1.1-0.5l0,0l0,0c0.1-0.2,0.2-0.5,0.2-0.7
		c0-0.4-0.2-0.8-0.5-1.1l0,0l0,0c-1.2-0.9-2.4-2-3.5-3.4l-0.4,0.3l0.4-0.3c-1.6-2-2.7-4.4-3.4-6.7l-0.5,0.1l0.5-0.1
		c-0.3-1.2-0.6-2.4-0.6-3.4v0l0,0c0-0.3,0-0.6,0-0.8c0-0.8,0.1-1.5,0.2-2.1l-0.5-0.1l0.5,0.1c0-0.1,0-0.2,0-0.3
		c0-0.3-0.1-0.5-0.3-0.8c-0.2-0.2-0.5-0.4-0.8-0.4l0,0h0c-0.3,0-0.6,0.1-0.9,0.3c-0.2,0.2-0.4,0.5-0.5,0.8L110.6,0.1L110.1,0
		L110.6,0.1l0.5,0.1l0.2-0.2l0.3-0.1v-0.5l-0.1,0.5c0.1,0,0.2,0.1,0.2,0.1l0,0.1l0,0.1l0,0l0,0c-0.2,0.7-0.3,1.5-0.3,2.3
		c0,0.3,0,0.6,0,0.9l0.5,0h-0.5c0,1.2,0.3,2.4,0.6,3.6l0,0l0,0c0.7,2.5,1.9,4.9,3.6,7.1l0,0l0,0c1.1,1.4,2.4,2.7,3.7,3.6l0.3-0.4
		l-0.3,0.4c0.1,0.1,0.1,0.2,0.1,0.3l0,0.2l0.4,0.3l-0.4-0.3c-0.1,0.1-0.2,0.1-0.3,0.1l-0.2,0l-0.3,0.4l0.3-0.4
		c-2.1-1.4-4-3.6-5.3-5.9l0,0l0,0c-1.5-2.3-2.3-5-2.7-7.4l-0.5,0.1l0.5-0.1c-0.1-0.7-0.1-1.4-0.1-2c0-0.9,0.1-1.8,0.3-2.6l0,0l0,0
		L110.6,0.1z"/>
	<path class="st1" d="M107.4,7.9c0.1,3,1,5.8,2.7,8.3c1.7,2.5,4,4.8,6.8,6.7c0.3,0.2,0.8,0.2,1.1-0.2c0.2-0.3,0.2-0.8-0.2-1.1
		c-2.7-1.9-4.9-4-6.4-6.3c-1.5-2.3-2.4-4.8-2.4-7.5c0-0.4-0.4-0.8-0.8-0.8C107.7,7.1,107.4,7.5,107.4,7.9z"/>
	<path class="st0" d="M107.4,7.9l-0.5,0c0.1,3.1,1,6,2.8,8.6c1.7,2.6,4.1,4.9,6.9,6.8l0,0l0,0c0.2,0.1,0.5,0.2,0.7,0.2
		c0.4,0,0.8-0.2,1.1-0.5l0,0l0,0c0.1-0.2,0.2-0.5,0.2-0.7c0-0.4-0.2-0.8-0.5-1.1l0,0l0,0c-2.7-1.9-4.8-3.9-6.3-6.2
		c-1.5-2.2-2.3-4.6-2.3-7.2c0-0.4-0.2-0.7-0.4-0.9c-0.2-0.2-0.5-0.4-0.9-0.4h0l0,0c-0.7,0.1-1.2,0.7-1.2,1.4v0v0L107.4,7.9h0.5
		c0-0.2,0.1-0.4,0.4-0.4L108.2,7v0.5l0.2,0.1l0.1,0.2c0,2.8,0.9,5.4,2.5,7.8c1.5,2.4,3.8,4.5,6.5,6.4l0.3-0.4l-0.3,0.4
		c0.1,0.1,0.1,0.2,0.1,0.3l0,0.2l0.4,0.3l-0.4-0.3c-0.1,0.1-0.2,0.1-0.3,0.1l-0.2,0l0,0c-2.8-1.9-5-4.1-6.7-6.6
		c-1.6-2.4-2.5-5.1-2.6-8L107.4,7.9h0.5H107.4z"/>
	<path class="st1" d="M112.6,56.6c0,0,6.4,11.3,16.1,13.6l2.2-9.9c0,0,17.4,6.3,23.4,2.6l-21.7-13.2L93.9,27L64.7,9.8
		C64.7,9.8,60.3,30,112.6,56.6z"/>
	<path class="st0" d="M112.6,56.6l-0.4,0.2c0,0,1.6,2.9,4.5,6c2.9,3.2,6.9,6.6,11.9,7.8l0.5,0.1l2.3-10.4l-0.5-0.1l-0.2,0.5
		c0,0,2.6,0.9,6.2,1.9c3.6,0.9,8.1,1.9,11.9,1.9c2.2,0,4.3-0.3,5.8-1.2l0.7-0.4l-22.4-13.6L94.2,26.6l0,0L64.4,9l-0.1,0.7
		c0,0-0.1,0.5-0.1,1.3c0,2.5,0.9,8.3,7.3,16.3c6.5,8,18.5,18.3,40.9,29.7L112.6,56.6l-0.4,0.2L112.6,56.6l0.2-0.4
		C90.5,44.8,78.5,34.6,72.2,26.7c-6.3-7.9-7.1-13.5-7.1-15.7c0-0.4,0-0.7,0-0.9c0-0.1,0-0.2,0-0.2l0,0l0,0l-0.5-0.1l-0.3,0.4
		l29.2,17.2l38.7,22.7L154,63.3l0.3-0.4l-0.3-0.4c-1.2,0.8-3.1,1.1-5.2,1.1c-3.7,0-8.1-0.9-11.6-1.9c-1.8-0.5-3.3-0.9-4.4-1.3
		c-0.5-0.2-1-0.3-1.3-0.4c-0.3-0.1-0.5-0.2-0.5-0.2l-0.5-0.2l-2.3,10.5l0.5,0.1l0.1-0.5c-4.7-1.1-8.7-4.4-11.4-7.5
		c-1.4-1.5-2.5-3-3.2-4.1c-0.4-0.5-0.7-1-0.8-1.3c-0.1-0.2-0.2-0.3-0.2-0.4l-0.1-0.1l-0.1-0.1l-0.1-0.1L112.6,56.6z"/>
	<path class="st1" d="M63.1,71.8c0,2.6,2.1,4.7,4.7,4.7c3.9,0,5.7,1.6,8.3,4c3.2,2.8,7.1,6.4,14.7,6.4c7.6,0,11.5-3.5,14.7-6.4
		c2.6-2.4,4.4-4,8.3-4c3.9,0,5.7,1.6,8.3,4c3.2,2.8,7.1,6.4,14.7,6.4c7.6,0,11.5-3.5,14.7-6.4c2.6-2.4,4.4-4,8.3-4
		c3.9,0,5.7,1.6,8.3,4c3.2,2.8,7.1,6.4,14.7,6.4c2.6,0,4.7-2.1,4.7-4.7s-2.1-4.7-4.7-4.7c-3.9,0-5.7-1.6-8.4-4
		c-3.2-2.8-7.1-6.4-14.7-6.4s-11.5,3.5-14.7,6.4c-2.6,2.4-4.4,4-8.3,4s-5.7-1.6-8.3-4c-3.2-2.8-7.1-6.4-14.7-6.4s-11.5,3.5-14.7,6.4
		c-2.7,2.4-4.4,4-8.3,4s-5.7-1.6-8.3-4c-3.2-2.8-7.1-6.4-14.7-6.4C65.2,67,63.1,69.2,63.1,71.8z"/>
	<path class="st0" d="M63.1,71.8h-0.5c0,1.4,0.6,2.7,1.5,3.7c0.9,0.9,2.2,1.5,3.7,1.5c1.9,0,3.2,0.4,4.4,1c1.2,0.7,2.3,1.6,3.6,2.8
		l0,0l0,0c1.6,1.4,3.4,3,5.8,4.3c2.4,1.3,5.4,2.2,9.2,2.2c3.9,0,6.8-0.9,9.2-2.2c2.4-1.3,4.2-2.9,5.8-4.4l0,0l0,0
		c1.3-1.2,2.4-2.2,3.6-2.8c1.2-0.7,2.5-1,4.4-1c1.9,0,3.2,0.4,4.4,1c1.2,0.7,2.3,1.6,3.6,2.8l0,0l0,0c1.6,1.4,3.4,3,5.8,4.3
		c2.4,1.3,5.4,2.2,9.2,2.2c3.9,0,6.8-0.9,9.2-2.2c2.4-1.3,4.2-2.9,5.8-4.4l0,0l0,0c1.3-1.2,2.4-2.2,3.6-2.8c1.2-0.7,2.5-1,4.4-1
		c1.9,0,3.2,0.4,4.4,1c1.2,0.7,2.3,1.6,3.6,2.8l0,0l0,0c1.6,1.4,3.4,3,5.8,4.3c2.4,1.3,5.4,2.2,9.2,2.2c1.4,0,2.7-0.6,3.7-1.5
		c0.9-0.9,1.5-2.2,1.5-3.7s-0.6-2.7-1.5-3.7c-0.9-0.9-2.2-1.5-3.7-1.5c-1.9,0-3.2-0.4-4.4-1c-1.2-0.7-2.3-1.6-3.7-2.8l0,0l0,0
		c-1.6-1.4-3.4-3-5.8-4.3c-2.4-1.3-5.4-2.2-9.2-2.2c-3.9,0-6.8,0.9-9.2,2.2c-2.4,1.3-4.2,2.9-5.8,4.4l0,0l0,0
		c-1.3,1.2-2.4,2.2-3.6,2.8c-1.2,0.7-2.5,1-4.4,1c-1.9,0-3.2-0.4-4.4-1c-1.2-0.7-2.3-1.6-3.6-2.8l0,0l0,0c-1.6-1.4-3.4-3-5.8-4.3
		c-2.4-1.3-5.4-2.2-9.2-2.2c-3.9,0-6.8,0.9-9.2,2.2c-2.4,1.3-4.2,2.9-5.8,4.4l0,0c-1.4,1.2-2.4,2.2-3.6,2.8c-1.2,0.7-2.5,1-4.4,1
		c-1.9,0-3.2-0.4-4.4-1c-1.2-0.7-2.3-1.6-3.6-2.8l0,0l0,0c-1.6-1.4-3.4-3-5.8-4.3c-2.4-1.3-5.4-2.2-9.2-2.2v0.5l0-0.5l-0.2,0
		c-2.7,0-4.9,2.4-4.9,5.2H63.1h0.5c0-1.1,0.5-2.2,1.2-3c0.7-0.8,1.7-1.2,2.8-1.2l0.1,0h0h0c3.7,0,6.5,0.9,8.8,2.1
		c2.3,1.2,4,2.8,5.6,4.2l0.3-0.4l-0.3,0.4c1.3,1.2,2.4,2.2,3.8,3c1.3,0.7,2.9,1.2,4.9,1.2c2,0,3.5-0.4,4.8-1.2
		c1.3-0.7,2.4-1.8,3.8-3l0,0l0,0c1.6-1.4,3.3-3,5.6-4.2c2.3-1.2,5-2.1,8.8-2.1c3.7,0,6.5,0.9,8.8,2.1c2.3,1.2,4,2.8,5.6,4.2l0.3-0.4
		l-0.3,0.4c1.3,1.2,2.4,2.2,3.8,3c1.3,0.7,2.9,1.2,4.9,1.2c2,0,3.5-0.4,4.9-1.2c1.3-0.7,2.5-1.8,3.8-3l0,0c1.6-1.4,3.3-3,5.6-4.2
		c2.3-1.2,5-2.1,8.8-2.1c3.7,0,6.5,0.9,8.8,2.1c2.3,1.2,4,2.8,5.6,4.2l0,0c1.3,1.2,2.5,2.2,3.8,3c1.3,0.7,2.9,1.2,4.9,1.2
		c2.3,0,4.2,1.9,4.2,4.2s-1.9,4.2-4.2,4.2c-3.7,0-6.5-0.9-8.8-2.1c-2.3-1.2-4-2.8-5.6-4.2l-0.3,0.4l0.3-0.4c-1.3-1.2-2.4-2.2-3.8-3
		c-1.3-0.7-2.9-1.2-4.9-1.2c-2,0-3.5,0.4-4.9,1.2c-1.3,0.7-2.5,1.8-3.8,3l0,0c-1.6,1.5-3.3,3-5.6,4.2c-2.3,1.2-5,2.1-8.8,2.1
		c-3.7,0-6.5-0.9-8.8-2.1c-2.3-1.2-4-2.8-5.6-4.2l-0.3,0.4l0.3-0.4c-1.3-1.2-2.4-2.2-3.8-3c-1.3-0.7-2.9-1.2-4.9-1.2
		c-2,0-3.5,0.4-4.9,1.2c-1.3,0.7-2.5,1.8-3.8,3l0,0c-1.6,1.5-3.3,3-5.6,4.2c-2.3,1.2-5,2.1-8.8,2.1c-3.7,0-6.5-0.9-8.8-2.1
		c-2.3-1.2-4-2.8-5.6-4.2l-0.3,0.4l0.3-0.4c-1.3-1.2-2.4-2.2-3.8-3c-1.3-0.7-2.9-1.2-4.9-1.2c-2.3,0-4.2-1.9-4.2-4.2H63.1z"/>
</g>
</svg>
