<?xml version="1.0" encoding="utf-8"?>
<!-- Generator: Adobe Illustrator 16.0.0, SVG Export Plug-In . SVG Version: 6.00 Build 0)  -->
<!DOCTYPE svg PUBLIC "-//W3C//DTD SVG 1.1//EN" "http://www.w3.org/Graphics/SVG/1.1/DTD/svg11.dtd">
<svg version="1.1" id="Layer_1" xmlns="http://www.w3.org/2000/svg" xmlns:xlink="http://www.w3.org/1999/xlink" x="0px" y="0px"
	 width="120.2px" height="56.2px" viewBox="65.1 7 120.2 56.2" style="enable-background:new 65.1 7 120.2 56.2;"
	 xml:space="preserve">
<style type="text/css">
<![CDATA[
	.st0{fill:#FF00FF;}
	.st1{fill:#FF9999;}
]]>
</style>
<g>
	<path class="st1" d="M184.2,30.9c-1-2.1-2.6-4.2-4.8-6.3c-3.2-3.1-7.6-6.3-12.9-9.2c-5.3-2.9-11.6-5.6-18.6-7.5
		c-1-0.3-2.1-0.1-2.9,0.6c-0.8,0.6-1.3,1.6-1.3,2.7v20.1h-6.8v-21c0-1.8-1.5-3.3-3.3-3.3c-1.8,0-3.3,1.5-3.3,3.3v21h-6.5V11
		c0-1.8-1.5-3.3-3.3-3.3c-1.8,0-3.3,1.5-3.3,3.3v20.1h-6.5V14.2c0-1.8-1.5-3.3-3.3-3.3s-3.3,1.5-3.3,3.3V31h-6.5V20.6
		c0-1.8-1.5-3.3-3.3-3.3c-1.8,0-3.3,1.5-3.3,3.3v10.5h-4.1c-1.7-9.4-10-16.6-19.9-16.6c-1,0-1.8,0.8-1.9,1.8c0,0.1,0,0.2,0,0.4
		c0,7.9,4.5,14.7,11,18.1c-6.5,3.4-11,10.2-11,18.1c0,0.2,0,0.3,0,0.4c0,1,0.9,1.8,1.9,1.8c9.8,0,18-7,19.9-16.3h4.2v10.6
		c0,1.8,1.5,3.3,3.3,3.3s3.3-1.5,3.3-3.3V38.8h6.5v16.9c0,1.8,1.5,3.3,3.3,3.3c1.8,0,3.3-1.5,3.3-3.3V38.8h6.5V59
		c0,1.8,1.5,3.3,3.3,3.3c1.8,0,3.3-1.5,3.3-3.3V38.8h6.5v21.1c0,1.8,1.5,3.3,3.3,3.3c1.8,0,3.3-1.5,3.3-3.3V38.8h6.8v19.7
		c0,1,0.5,2,1.3,2.7c0.6,0.4,1.3,0.7,2,0.7c0.3,0,0.6,0,0.9-0.1c10.6-3,19.7-7.6,26.2-12.3c3.3-2.4,5.9-4.8,7.8-7.1
		c1-1.2,1.7-2.4,2.3-3.6c0.6-1.2,1-2.5,1-3.9C185.2,33.4,184.8,32.1,184.2,30.9z M152.5,26.6c-0.9-0.9-0.9-2.3,0-3.2
		c0.9-0.9,2.3-0.9,3.2,0l4,4l4-4c0.9-0.9,2.3-0.9,3.2,0s0.9,2.3,0,3.2l-4,4l4,4c0.9,0.9,0.9,2.3,0,3.2c-0.4,0.4-1,0.7-1.6,0.7
		c-0.6,0-1.1-0.2-1.6-0.7l-4-4l-4,4c-0.4,0.4-1,0.7-1.6,0.7s-1.1-0.2-1.6-0.7c-0.9-0.9-0.9-2.3,0-3.2l4-4L152.5,26.6z"/>
	<path class="st0" d="M184.2,30.9l0.5-0.2c-1-2.2-2.7-4.3-4.9-6.4l0,0c-3.2-3.1-7.7-6.4-13-9.3c-5.3-2.9-11.7-5.6-18.7-7.5l-0.1,0.5
		l0.1-0.5c-0.3-0.1-0.7-0.2-1.1-0.2c-0.8,0-1.7,0.3-2.3,0.9l0.3,0.4l-0.3-0.4c-0.9,0.7-1.5,1.8-1.5,3.1v19.6h-5.8V10.3
		c0-2.1-1.7-3.8-3.8-3.8c-2.1,0-3.8,1.7-3.8,3.8v20.5h-5.5V11c0-2.1-1.7-3.8-3.8-3.8c-2.1,0-3.8,1.7-3.8,3.8v19.6h-5.5V14.2
		c0-2.1-1.7-3.8-3.8-3.8c-2.1,0-3.8,1.7-3.8,3.8v16.3h-5.5v-9.9c0-2.1-1.7-3.8-3.8-3.8c-2.1,0-3.8,1.7-3.8,3.8v10h-3.6v0.5l0.5-0.1
		C85.6,21.4,77.1,14,67,14c-1.3,0-2.3,1-2.4,2.3l0,0v0c0,0.1,0,0.2,0,0.4c0,8.1,4.6,15.1,11.3,18.5l0.2-0.4l-0.2-0.4
		c-6.7,3.5-11.3,10.5-11.3,18.5c0,0.2,0,0.3,0,0.4c0,0.7,0.3,1.2,0.7,1.6c0.4,0.4,1,0.7,1.7,0.7c10,0,18.4-7.2,20.4-16.7l-0.5-0.1
		v0.5h3.7v10.1c0,2.1,1.7,3.8,3.8,3.8c2.1,0,3.8-1.7,3.8-3.8V39.3h5.5v16.4c0,2.1,1.7,3.8,3.8,3.8c2.1,0,3.8-1.7,3.8-3.8V39.3h5.5
		V59c0,2.1,1.7,3.8,3.8,3.8c2.1,0,3.8-1.7,3.8-3.8V39.3h5.5v20.6c0,2.1,1.7,3.8,3.8,3.8c2.1,0,3.8-1.7,3.8-3.8V39.3h5.8v19.2
		c0,1.2,0.6,2.3,1.5,3.1l0,0l0,0c0.7,0.4,1.4,0.8,2.3,0.8c0.3,0,0.7,0,1.1-0.1l-0.2-0.5l0.1,0.5c10.7-3,19.8-7.6,26.4-12.4l0,0
		c3.3-2.4,6-4.8,7.9-7.2l0,0c1-1.2,1.8-2.5,2.4-3.7l0,0c0.6-1.2,1.1-2.6,1.1-4.1v0l0,0c-0.1-1.6-0.5-2.9-1.2-4.2L184.2,30.9l0.5-0.2
		L184.2,30.9l-0.4,0.2c0.6,1.2,1,2.4,1,3.8l0.5,0h-0.5c0,1.3-0.4,2.5-0.9,3.7l0,0c-0.6,1.2-1.3,2.3-2.2,3.5l0,0
		c-1.9,2.3-4.4,4.6-7.7,7l0,0c-6.4,4.7-15.5,9.2-26,12.2l0,0l0,0c-0.2,0.1-0.4,0.1-0.7,0.1c-0.6,0-1.2-0.2-1.7-0.6l-0.3,0.4l0.3-0.4
		c-0.7-0.6-1.1-1.5-1.1-2.3V38.3h-7.8v21.6c0,0.8-0.3,1.5-0.8,2c-0.5,0.5-1.2,0.8-2,0.8s-1.5-0.3-2-0.8c-0.5-0.5-0.8-1.2-0.8-2V38.3
		h-7.5V59c0,0.8-0.3,1.5-0.8,2c-0.5,0.5-1.2,0.8-2,0.8s-1.5-0.3-2-0.8c-0.5-0.5-0.8-1.2-0.8-2V38.3h-7.5v17.4c0,0.8-0.3,1.5-0.8,2
		c-0.5,0.5-1.2,0.8-2,0.8c-0.8,0-1.5-0.3-2-0.8s-0.8-1.2-0.8-2V38.3h-7.5v11.1c0,0.8-0.3,1.5-0.8,2c-0.5,0.5-1.2,0.8-2,0.8
		s-1.5-0.3-2-0.8c-0.5-0.5-0.8-1.2-0.8-2V38.3h-5.1l-0.1,0.4c-1.9,9.1-9.9,15.9-19.4,15.9c-0.4,0-0.7-0.1-1-0.4
		c-0.3-0.2-0.4-0.6-0.4-0.9c0-0.1,0-0.2,0-0.4c0-7.7,4.4-14.3,10.7-17.7l0.8-0.4l-0.8-0.4C70,31,65.6,24.4,65.6,16.7
		c0-0.2,0-0.3,0-0.4h-0.5l0.5,0c0.1-0.8,0.7-1.4,1.4-1.3c9.7,0,17.8,7,19.4,16.2l0.1,0.4h5v-11c0-0.8,0.3-1.5,0.8-2
		c0.5-0.5,1.2-0.8,2-0.8c0.8,0,1.5,0.3,2,0.8c0.5,0.5,0.8,1.2,0.8,2v10.9h7.5V14.2c0-0.8,0.3-1.5,0.8-2c0.5-0.5,1.2-0.8,2-0.8
		s1.5,0.3,2,0.8c0.5,0.5,0.8,1.2,0.8,2v17.4h7.5V11c0-0.8,0.3-1.5,0.8-2c0.5-0.5,1.2-0.8,2-0.8c0.8,0,1.5,0.3,2,0.8
		c0.5,0.5,0.8,1.2,0.8,2v20.8h7.5V10.3c0-0.8,0.3-1.5,0.8-2c0.5-0.5,1.2-0.8,2-0.8s1.5,0.3,2,0.8c0.5,0.5,0.8,1.2,0.8,2v21.5h7.8
		V11.2c0-0.9,0.4-1.8,1.1-2.3l0,0l0,0c0.5-0.4,1-0.6,1.7-0.6c0.3,0,0.5,0,0.8,0.1l0,0l0,0c7,1.9,13.2,4.6,18.5,7.5
		c5.3,2.9,9.6,6.1,12.8,9.1l0,0h0c2.2,2.1,3.7,4.1,4.7,6.2l0,0l0,0L184.2,30.9z M152.5,26.6l0.4-0.4c-0.4-0.4-0.5-0.8-0.5-1.2
		c0-0.4,0.2-0.9,0.5-1.2c0.4-0.4,0.8-0.5,1.2-0.5c0.4,0,0.9,0.2,1.2,0.5l4.4,4.4l4.4-4.4c0.4-0.4,0.8-0.5,1.2-0.5
		c0.4,0,0.9,0.2,1.2,0.5c0.4,0.4,0.5,0.8,0.5,1.2c0,0.4-0.2,0.9-0.5,1.2l-4.4,4.4l4.4,4.4l0,0c0.4,0.4,0.5,0.8,0.5,1.2
		c0,0.4-0.2,0.9-0.5,1.2l0,0c-0.3,0.3-0.8,0.6-1.2,0.6c-0.5,0-0.8-0.1-1.2-0.6l-4.4-4.4l-4.4,4.4c-0.3,0.3-0.8,0.6-1.2,0.6
		c-0.5,0-0.8-0.1-1.2-0.6l0,0l0,0c-0.4-0.4-0.5-0.8-0.5-1.2c0-0.4,0.2-0.9,0.5-1.2l4.4-4.4l-4.4-4.4L152.5,26.6l-0.4,0.4l3.6,3.6
		l-3.6,3.6c-0.5,0.5-0.8,1.2-0.8,2s0.3,1.4,0.8,2l0,0c0.6,0.6,1.2,0.9,2,0.8c0.8,0,1.5-0.4,2-0.8l3.6-3.6l3.6,3.6
		c0.6,0.6,1.2,0.9,2,0.8c0.8,0,1.5-0.4,2-0.8l0,0c0.5-0.5,0.8-1.2,0.8-2c0-0.7-0.3-1.4-0.8-2l-3.6-3.6l3.6-3.6
		c0.5-0.5,0.8-1.2,0.8-2c0-0.7-0.3-1.4-0.8-2c-0.5-0.5-1.2-0.8-2-0.8c-0.7,0-1.4,0.3-2,0.8l-3.6,3.6l-3.6-3.6
		c-0.5-0.5-1.2-0.8-2-0.8c-0.7,0-1.4,0.3-2,0.8c-0.5,0.5-0.8,1.2-0.8,2s0.3,1.4,0.8,2L152.5,26.6z"/>
</g>
</svg>
