<?xml version="1.0" encoding="utf-8"?>
<!-- Generator: Adobe Illustrator 16.0.0, SVG Export Plug-In . SVG Version: 6.00 Build 0)  -->
<!DOCTYPE svg PUBLIC "-//W3C//DTD SVG 1.1//EN" "http://www.w3.org/Graphics/SVG/1.1/DTD/svg11.dtd">
<svg version="1.1" id="Layer_1" xmlns="http://www.w3.org/2000/svg" xmlns:xlink="http://www.w3.org/1999/xlink" x="0px" y="0px"
	 width="119.6px" height="119.7px" viewBox="65.2 -25 119.6 119.7" style="enable-background:new 65.2 -25 119.6 119.7;"
	 xml:space="preserve">
<style type="text/css">
<![CDATA[
	.st0{fill:#FF00FF;}
	.st1{fill:#FF9999;}
]]>
</style>
<g>
	<circle class="st1" cx="125" cy="35" r="17.8"/>
	<path class="st0" d="M125,17.2v0.5c4.8,0,9.1,1.9,12.2,5.1c3.1,3.1,5.1,7.5,5.1,12.2s-1.9,9.1-5.1,12.2c-3.1,3.1-7.5,5.1-12.2,5.1
		c-4.8,0-9.1-1.9-12.2-5.1c-3.1-3.1-5.1-7.5-5.1-12.2s1.9-9.1,5.1-12.2c3.1-3.1,7.5-5.1,12.2-5.1V17.2v-0.5
		c-10.1,0-18.3,8.2-18.3,18.3s8.2,18.3,18.3,18.3c10.1,0,18.3-8.2,18.3-18.3s-8.2-18.3-18.3-18.3V17.2z"/>
	<polygon class="st1" points="120.9,51.7 102.1,90.1 116,49.7 	"/>
	<polygon class="st0" points="120.9,51.7 120.5,51.5 105.2,82.6 116.3,50.4 120.7,52.2 120.9,51.7 120.5,51.5 120.9,51.7 
		121.1,51.2 115.7,49 101.6,89.9 102.5,90.3 121.6,51.4 121.1,51.2 	"/>
	<polygon class="st1" points="134,20.1 147.9,-20.4 129.1,18 	"/>
	<polygon class="st0" points="134,20.1 134.5,20.3 148.4,-20.2 147.5,-20.6 128.4,18.3 134.3,20.8 134.5,20.3 134,20.1 134.2,19.6 
		129.8,17.7 144.8,-13 133.5,19.9 134,20.1 134.2,19.6 	"/>
	<polygon class="st1" points="114.8,48.9 82.7,77.2 111,45.1 	"/>
	<polygon class="st0" points="114.8,48.9 114.5,48.5 88.3,71.6 111,45.8 114.4,49.3 114.8,48.9 114.5,48.5 114.8,48.9 115.2,48.5 
		111,44.4 82.3,76.9 83,77.6 115.5,48.9 115.2,48.5 	"/>
	<polygon class="st1" points="139,24.7 167.3,-7.4 135.2,20.9 	"/>
	<polygon class="st0" points="139,24.7 139.4,25 167.7,-7.1 167,-7.8 134.5,20.9 139,25.4 139.4,25 139,24.7 139.4,24.3 135.9,20.9 
		161.7,-1.8 138.6,24.4 139,24.7 139.4,24.3 	"/>
	<polygon class="st1" points="110.2,43.9 69.7,57.8 108.2,39 	"/>
	<polygon class="st0" points="110.2,43.9 110,43.4 77.2,54.7 107.9,39.7 109.7,44.1 110.2,43.9 110,43.4 110.2,43.9 110.7,43.7 
		108.5,38.3 69.5,57.4 69.9,58.3 110.9,44.2 110.7,43.7 	"/>
	<polygon class="st1" points="141.8,30.8 180.3,12 139.8,25.8 	"/>
	<polygon class="st0" points="141.8,30.8 142,31.2 180.5,12.4 180.1,11.5 139.1,25.5 141.5,31.5 142,31.2 141.8,30.8 142.3,30.6 
		140.5,26.1 172.9,15 141.6,30.4 141.8,30.8 142.3,30.6 	"/>
	<polygon class="st1" points="107.9,37.6 65.2,34.9 107.9,32.2 	"/>
	<polygon class="st0" points="107.9,37.6 107.9,37.1 73.1,34.9 107.4,32.7 107.4,37.6 107.9,37.6 107.9,37.1 107.9,37.6 108.4,37.6 
		108.4,31.7 65.2,34.4 65.2,35.4 108.4,38.1 108.4,37.6 	"/>
	<polygon class="st1" points="142.1,37.6 184.8,34.9 142.1,32.2 	"/>
	<polygon class="st0" points="142.1,37.6 142.1,38.1 184.8,35.4 184.8,34.4 141.6,31.7 141.6,38.1 142.1,38.1 142.1,37.6 
		142.6,37.6 142.6,32.7 176.9,34.9 142.1,37.1 142.1,37.6 142.6,37.6 	"/>
	<polygon class="st1" points="108.2,30.8 69.7,12 110.2,25.8 	"/>
	<polygon class="st0" points="108.2,30.8 108.4,30.4 77.1,15 109.5,26.1 107.7,30.6 108.2,30.8 108.4,30.4 108.2,30.8 108.7,31 
		110.9,25.5 69.9,11.5 69.5,12.4 108.5,31.5 108.7,31 	"/>
	<polygon class="st1" points="139.8,43.9 180.3,57.8 141.8,39 	"/>
	<polygon class="st0" points="139.8,43.9 139.6,44.4 180.1,58.3 180.5,57.4 141.5,38.3 139.1,44.2 139.6,44.4 139.8,43.9 
		140.3,44.1 142.1,39.7 172.8,54.7 140,43.4 139.8,43.9 140.3,44.1 	"/>
	<polygon class="st1" points="111,24.7 82.7,-7.4 114.8,20.9 	"/>
	<polygon class="st0" points="111,24.7 111.4,24.4 88.3,-1.8 114.1,20.9 110.6,24.3 111,24.7 111.4,24.4 111,24.7 111.4,25.1 
		115.5,20.9 83,-7.8 82.3,-7.1 111,25.4 111.4,25.1 	"/>
	<polygon class="st1" points="135.2,48.9 167.3,77.2 139,45.1 	"/>
	<polygon class="st0" points="135.2,48.9 134.9,49.3 167,77.6 167.7,76.9 139,44.4 134.5,48.9 134.9,49.3 135.2,48.9 135.6,49.3 
		139,45.8 161.7,71.6 135.5,48.5 135.2,48.9 135.6,49.3 	"/>
	<polygon class="st1" points="116,20.1 102.1,-20.4 120.9,18 	"/>
	<polygon class="st0" points="116,20.1 116.5,19.9 105.2,-13 120.2,17.7 115.8,19.6 116,20.1 116.5,19.9 116,20.1 116.2,20.6 
		121.6,18.3 102.5,-20.6 101.6,-20.2 115.7,20.8 116.2,20.6 	"/>
	<polygon class="st1" points="129.1,51.7 147.9,90.1 134,49.7 	"/>
	<polygon class="st0" points="129.1,51.7 128.7,51.9 147.5,90.3 148.4,89.9 134.3,49 128.4,51.4 128.7,51.9 129.1,51.7 129.3,52.2 
		133.7,50.4 144.8,82.6 129.5,51.5 129.1,51.7 129.3,52.2 	"/>
	<polygon class="st1" points="122.3,17.8 125,-25 127.7,17.8 	"/>
	<polygon class="st0" points="122.3,17.8 122.8,17.8 125,-17.1 127.2,17.3 122.3,17.3 122.3,17.8 122.8,17.8 122.3,17.8 122.3,18.3 
		128.2,18.3 125.5,-25 124.5,-25 121.8,18.3 122.3,18.3 	"/>
	<polygon class="st1" points="122.3,52 125,94.7 127.7,52 	"/>
	<polygon class="st0" points="122.3,52 121.8,52 124.5,94.7 125.5,94.7 128.2,51.5 121.8,51.5 121.8,52 122.3,52 122.3,52.5 
		127.2,52.5 125,86.8 122.8,52 122.3,52 122.3,52.5 	"/>
</g>
</svg>
