<?xml version="1.0" encoding="utf-8"?>
<!-- Generator: Adobe Illustrator 16.0.0, SVG Export Plug-In . SVG Version: 6.00 Build 0)  -->
<!DOCTYPE svg PUBLIC "-//W3C//DTD SVG 1.1//EN" "http://www.w3.org/Graphics/SVG/1.1/DTD/svg11.dtd">
<svg version="1.1" id="Layer_1" xmlns="http://www.w3.org/2000/svg" xmlns:xlink="http://www.w3.org/1999/xlink" x="0px" y="0px"
	 width="119.6px" height="122.8px" viewBox="61.3 -29.8 119.6 122.8" style="enable-background:new 61.3 -29.8 119.6 122.8;"
	 xml:space="preserve">
<style type="text/css">
<![CDATA[
	.st0{fill:#FF00FF;}
	.st1{fill:#333333;}
]]>
</style>
<g>
	<path class="st1" d="M146.1,52.4v-8.1l-9.2-9.2c-1.1-1.1-1.1-3,0-4.1c1.2-1.2,3-1.2,4.1,0l5,5v-4.7c0-1.6,1.3-2.9,2.9-2.9
		c1.6,0,2.9,1.3,2.9,2.9V36l5-5c1.1-1.1,3-1.1,4.1,0c1.1,1.1,1.1,3,0,4.1l-9.2,9.2v8.1c1,0.4,2,0.9,2.8,1.6l7-4l3.4-12.5
		c0.4-1.5,2-2.5,3.6-2c1.6,0.4,2.5,2,2.1,3.6l-1.8,6.9l4-2.3c1.4-0.8,3.2-0.3,4,1.1c0.8,1.4,0.3,3.2-1.1,4l-4,2.3l6.9,1.8
		c1.5,0.4,2.5,2,2,3.6c-0.4,1.6-2,2.5-3.6,2.1l-12.3-3.5l-7,4.1c0.1,0.5,0.1,1,0.1,1.6c0,0.6-0.1,1.1-0.2,1.7l7.1,4.1l12.5-3.4
		c1.5-0.4,3.1,0.5,3.6,2.1c0.4,1.6-0.5,3.2-2,3.6l-6.9,1.8l4,2.3c1.4,0.8,1.9,2.6,1.1,4c-0.8,1.4-2.6,1.9-4,1.1l-4-2.3l1.8,6.9
		c0.4,1.5-0.5,3.1-2.1,3.6c-1.6,0.4-3.2-0.5-3.6-2l-3.4-12.5l-7.1-4.1c-0.8,0.7-1.7,1.2-2.7,1.6v8.2l9.2,9.2c1.1,1.1,1.1,3,0,4.1
		c-1.2,1.2-3,1.2-4.1,0l-5-5v4.3c0,1.6-1.3,2.9-2.9,2.9c-1.6,0-2.9-1.3-2.9-2.9v-4.7l-5,5c-1.1,1.1-3,1.1-4.1,0
		c-1.1-1.1-1.1-3,0-4.1l9.2-9.2v-8.2c-1-0.4-1.9-0.9-2.7-1.6l-7.1,4.1l-3.4,12.5c-0.4,1.5-2,2.5-3.6,2c-1.6-0.4-2.5-2-2.1-3.6
		l1.8-6.9l-4,2.3c-1.4,0.8-3.2,0.3-4-1.1c-0.8-1.4-0.3-3.2,1.1-4l4-2.3l-6.9-1.8c-1.5-0.4-2.5-2-2-3.6c0.4-1.6,2-2.5,3.6-2.1
		l12.5,3.4l7.1-4.1c-0.1-0.5-0.2-1.1-0.2-1.7c0-0.5,0-1,0.1-1.6l-7-4.1L121,58.1c-1.5,0.4-3.1-0.5-3.6-2.1c-0.4-1.6,0.5-3.2,2-3.6
		l6.9-1.8l-4-2.3c-1.4-0.8-1.9-2.6-1.1-4c0.8-1.4,2.6-1.9,4-1.1l4,2.3l-1.8-6.9c-0.4-1.5,0.5-3.1,2.1-3.6c1.6-0.4,3.2,0.5,3.6,2
		l3.4,12.5l7,4C144.1,53.3,145.1,52.8,146.1,52.4z"/>
	<path class="st0" d="M146.1,52.4h0.5v-8.3l-9.3-9.3c-0.4-0.4-0.7-1.1-0.7-1.7c0-0.6,0.2-1.3,0.7-1.7c0.5-0.5,1.1-0.8,1.7-0.8
		c0.6,0,1.2,0.2,1.6,0.7l0,0l5.9,5.9v-5.9c0-1.3,1.1-2.4,2.4-2.4c1.3,0,2.4,1.1,2.4,2.4v5.9l5.9-5.9c0.4-0.4,1.1-0.7,1.7-0.7
		s1.2,0.2,1.7,0.7c0.4,0.4,0.7,1.1,0.7,1.7c0,0.6-0.2,1.2-0.7,1.7l-9.3,9.3v8.6l0.3,0.1c1,0.4,1.9,0.9,2.7,1.5l0.3,0.2l7.5-4.3
		l3.5-12.7v0c0.3-1,1.2-1.8,2.3-1.8c0.2,0,0.5,0,0.7,0.1l0,0l0,0c1.1,0.3,1.8,1.2,1.8,2.4c0,0.2,0,0.4-0.1,0.6l0.5,0.1l-0.5-0.1
		L168,47l5-2.9l0,0c0.4-0.2,0.8-0.3,1.2-0.3c0.9,0,1.7,0.4,2.1,1.2c0.2,0.4,0.3,0.8,0.3,1.2c0,0.9-0.4,1.7-1.2,2.1l0,0l-5.1,2.9
		l8.1,2.1l0,0c1,0.3,1.8,1.2,1.8,2.3c0,0.2,0,0.5-0.1,0.7l0,0l0,0c-0.3,1.1-1.2,1.8-2.4,1.8c-0.2,0-0.4,0-0.6-0.1l-0.1,0.5l0.1-0.5
		l-12.5-3.6l-7.5,4.4l0.1,0.3c0.1,0.4,0.1,0.9,0.1,1.5c0,0.5-0.1,1-0.2,1.6l-0.1,0.3l7.6,4.4l12.7-3.5l0,0c0.2-0.1,0.4-0.1,0.6-0.1
		c1,0,2,0.7,2.4,1.8l0.5-0.1l-0.5,0.1c0.1,0.2,0.1,0.4,0.1,0.6c0,1.1-0.7,2.1-1.7,2.3h0l-8.1,2.1l5.1,2.9h0c0.8,0.4,1.2,1.3,1.2,2.1
		c0,0.4-0.1,0.8-0.3,1.2c-0.4,0.8-1.3,1.2-2.1,1.2c-0.4,0-0.8-0.1-1.2-0.3l-5-2.9l2.1,8.1l0,0c0.1,0.2,0.1,0.4,0.1,0.6
		c0,1-0.7,2-1.8,2.4l0.1,0.5l-0.1-0.5c-0.2,0.1-0.4,0.1-0.6,0.1c-1.1,0-2.1-0.7-2.3-1.7l0,0l-3.5-12.7l-7.6-4.4l-0.3,0.2
		c-0.7,0.7-1.6,1.1-2.6,1.5l-0.3,0.1v8.7l9.4,9.4l0,0c0.4,0.4,0.7,1.1,0.7,1.7s-0.2,1.2-0.7,1.7c-0.5,0.5-1.1,0.8-1.7,0.8
		c-0.6,0-1.2-0.2-1.6-0.7l0,0l-5.9-5.9v5.5c0,1.3-1.1,2.4-2.4,2.4c-1.3,0-2.4-1.1-2.4-2.4v-5.9l-5.9,5.9l0,0
		c-0.4,0.4-1.1,0.7-1.7,0.7c-0.6,0-1.2-0.2-1.7-0.7l0,0c-0.4-0.4-0.7-1.1-0.7-1.7s0.2-1.2,0.7-1.7l9.3-9.3v-8.7l-0.3-0.1
		c-1-0.4-1.8-0.9-2.6-1.5l-0.3-0.2l-7.6,4.4l-3.5,12.7l0,0c-0.3,1-1.2,1.8-2.3,1.8c-0.2,0-0.5,0-0.7-0.1l0,0l0,0
		c-1.1-0.3-1.8-1.2-1.8-2.4c0-0.2,0-0.4,0.1-0.6l-0.5-0.1l0.5,0.1l2.1-8.1l-5,2.9l0,0c-0.4,0.2-0.8,0.3-1.2,0.3
		c-0.9,0-1.7-0.4-2.1-1.2h0c-0.2-0.4-0.3-0.8-0.3-1.2c0-0.8,0.4-1.7,1.2-2.1l5.1-2.9l-8.1-2.1h0c-1-0.3-1.8-1.2-1.8-2.3
		c0-0.2,0-0.5,0.1-0.7l0,0l0,0c0.3-1.1,1.2-1.8,2.4-1.8c0.2,0,0.4,0,0.6,0.1l0.1-0.5l-0.1,0.5l12.7,3.5l7.6-4.4l-0.1-0.4
		c-0.1-0.5-0.2-1.1-0.2-1.6c0-0.5,0-1,0.1-1.5l0.1-0.3l-7.5-4.4l-12.7,3.5l0,0c-0.2,0.1-0.4,0.1-0.6,0.1c-1,0-2-0.7-2.4-1.8
		l-0.5,0.1l0.5-0.1c-0.1-0.2-0.1-0.4-0.1-0.6c0-1.1,0.7-2.1,1.7-2.4l0,0l8.1-2.1l-5.1-2.9l0,0c-0.8-0.4-1.2-1.3-1.2-2.1
		c0-0.4,0.1-0.8,0.3-1.2c0.4-0.8,1.3-1.2,2.1-1.2c0.4,0,0.8,0.1,1.2,0.3l0,0l5,2.9l-2.1-8.1v0c-0.1-0.2-0.1-0.4-0.1-0.6
		c0-1,0.7-2,1.8-2.4l-0.1-0.5l0.1,0.5c0.2-0.1,0.4-0.1,0.6-0.1c1.1,0,2.1,0.7,2.3,1.7l3.5,12.7l7.4,4.2l0.2-0.1
		c0.7-0.2,1.6-0.7,2.6-1.1l0.3-0.1v-0.3H146.1l-0.2-0.5c-1,0.4-2,0.9-2.6,1.1l0.2,0.5l0.2-0.4l-6.8-3.9l-3.3-12.3l0,0
		c-0.4-1.5-1.8-2.5-3.3-2.5c-0.3,0-0.6,0-0.9,0.1l0,0l0,0c-1.5,0.5-2.5,1.9-2.5,3.4c0,0.3,0,0.6,0.1,0.8v0l1.5,5.7l-3-1.7l0,0
		c-0.5-0.3-1.1-0.4-1.7-0.4c-1.2,0-2.4,0.6-3,1.7c-0.3,0.5-0.4,1.1-0.4,1.7c0,1.2,0.6,2.4,1.7,3l0,0l2.9,1.7l-5.7,1.5l0,0
		c-1.5,0.4-2.5,1.8-2.5,3.3c0,0.3,0,0.6,0.1,0.9l0,0l0,0c0.5,1.5,1.9,2.5,3.4,2.5c0.3,0,0.6,0,0.9-0.1l0,0l12.3-3.3l6.8,4l0.3-0.4
		l-0.5-0.1c-0.1,0.6-0.1,1.2-0.1,1.7c0,0.7,0.1,1.3,0.2,1.8l0.5-0.1l-0.2-0.4l-6.9,4l-12.3-3.3l0,0c-0.3-0.1-0.6-0.1-0.9-0.1
		c-1.5,0-2.9,1-3.3,2.6l0.5,0.1l-0.5-0.1c-0.1,0.3-0.2,0.7-0.2,1c0,1.5,1,2.8,2.5,3.2h0l5.7,1.5l-2.9,1.7l0,0
		c-1.1,0.6-1.7,1.8-1.7,3c0,0.6,0.1,1.2,0.4,1.7h0c0.6,1.1,1.8,1.7,3,1.7c0.6,0,1.2-0.1,1.7-0.4l0,0l3-1.7l-1.5,5.7l0,0
		c-0.1,0.3-0.1,0.6-0.1,0.9c0,1.5,1,2.9,2.6,3.3l0.1-0.5l-0.1,0.5c0.3,0.1,0.7,0.2,1,0.2c1.5,0,2.8-1,3.2-2.5l0,0l3.3-12.3l6.9-4
		l-0.2-0.4l-0.3,0.4c0.9,0.7,1.8,1.3,2.8,1.7l0.2-0.5h-0.5v8l-9.1,9.1c-0.7,0.7-1,1.5-1,2.4s0.3,1.8,1,2.4l0,0l0,0
		c0.7,0.7,1.5,1,2.4,1c0.9,0,1.8-0.3,2.4-1l4.1-4.1v3.5c0,1.9,1.5,3.4,3.4,3.4c1.9,0,3.4-1.5,3.4-3.4V87l4.1,4.1l0.4-0.4l-0.4,0.3
		c0.6,0.7,1.5,1.1,2.4,1.1c0.9,0,1.8-0.4,2.4-1c0.7-0.7,1-1.5,1-2.4s-0.3-1.8-1-2.4l0,0l-9.1-9.1v-8h-0.5l0.2,0.5
		c1-0.4,2-0.9,2.8-1.7l-0.3-0.4l-0.2,0.4l6.9,4l3.3,12.3l0,0c0.4,1.5,1.8,2.5,3.3,2.5c0.3,0,0.6,0,0.9-0.1l0,0l0,0
		c1.5-0.5,2.5-1.9,2.5-3.4c0-0.3,0-0.6-0.1-0.9v0l-1.5-5.7l3,1.7h0c0.5,0.3,1.1,0.4,1.7,0.4c1.2,0,2.4-0.6,3-1.7
		c0.3-0.5,0.4-1.1,0.4-1.7c0-1.2-0.6-2.4-1.7-3l-2.9-1.7l5.7-1.5h0c1.5-0.4,2.5-1.8,2.5-3.3c0-0.3,0-0.6-0.1-0.9l0,0l0,0
		c-0.5-1.5-1.9-2.5-3.4-2.5c-0.3,0-0.6,0-0.9,0.1l0,0l-12.3,3.3l-6.9-4l-0.2,0.4l0.5,0.1c0.1-0.6,0.2-1.1,0.2-1.8
		c0-0.6,0-1.1-0.1-1.7l-0.5,0.1l0.3,0.4l6.8-4l12.1,3.4l0,0c0.3,0.1,0.6,0.1,0.9,0.1c1.5,0,2.9-1,3.3-2.6l-0.5-0.1l0.5,0.1
		c0.1-0.3,0.2-0.7,0.2-1c0-1.5-1-2.8-2.5-3.2l0,0l-5.7-1.5l2.9-1.7l0,0c1.1-0.6,1.7-1.8,1.7-3c0-0.6-0.1-1.2-0.4-1.7
		c-0.6-1.1-1.8-1.7-3-1.7c-0.6,0-1.2,0.1-1.7,0.4l-3,1.7l1.5-5.7l0,0c0.1-0.3,0.1-0.6,0.1-0.9c0-1.5-1-2.9-2.6-3.3l-0.1,0.5l0.1-0.5
		c-0.3-0.1-0.7-0.2-1-0.2c-1.5,0-2.8,1-3.2,2.5l0,0l-3.3,12.3l-6.8,3.9l0.2,0.4l0.3-0.4c-0.9-0.8-1.9-1.3-2.9-1.7l-0.2,0.5h0.5v-7.9
		l9.1-9.1c0.7-0.7,1-1.5,1-2.4c0-0.9-0.3-1.8-1-2.4c-0.7-0.7-1.5-1-2.4-1s-1.8,0.3-2.4,1l-4.1,4.1v-3.5c0-1.9-1.5-3.4-3.4-3.4
		c-1.9,0-3.4,1.5-3.4,3.4v3.5l-4.1-4.1L141,31l0.4-0.3c-0.6-0.7-1.5-1.1-2.4-1.1c-0.9,0-1.8,0.4-2.4,1c-0.7,0.7-1,1.5-1,2.4
		c0,0.9,0.3,1.7,1,2.4l9.1,9.1v7.9H146.1l-0.2-0.5L146.1,52.4z"/>
	<path class="st1" d="M99.6-20.1v-9.7h-4.8v9.7c0.8-0.1,1.6-0.1,2.4-0.1C98.1-20.2,98.9-20.2,99.6-20.1z M86.2-17.8l-4.9-8.4
		l-4.1,2.4l4.9,8.4C83.4-16.3,84.8-17.1,86.2-17.8z M117.3-23.8l-4.1-2.4l-4.8,8.4c1.5,0.7,2.8,1.5,4.1,2.4L117.3-23.8z M75.8-9.1
		l-8.4-4.8L65-9.8l8.4,4.9C74-6.4,74.8-7.8,75.8-9.1z M97.2-15.5c-11.9,0-21.5,9.7-21.5,21.6s9.6,21.5,21.5,21.5
		c11.9,0,21.5-9.6,21.5-21.5S109.1-15.5,97.2-15.5z M129.5-9.8l-2.4-4.1l-8.4,4.8c0.9,1.3,1.7,2.7,2.4,4.1L129.5-9.8z M108.3,30
		l4.9,8.4l4.1-2.4l-4.8-8.4C111.1,28.5,109.7,29.3,108.3,30z M118.7,21.3l8.4,4.8l2.4-4.1l-8.4-4.9C120.5,18.6,119.7,20,118.7,21.3z
		 M123.5,3.7c0.1,0.8,0.1,1.6,0.1,2.4c0,0.8-0.1,1.6-0.1,2.4h9.7V3.7H123.5z M94.9,32.3V42h4.8v-9.7c-0.8,0.1-1.6,0.1-2.4,0.1
		C96.4,32.4,95.6,32.4,94.9,32.3z M77.2,36l4.1,2.4l4.9-8.4c-1.5-0.7-2.8-1.5-4.1-2.4L77.2,36z M70.9,6.1c0-0.8,0.1-1.6,0.1-2.4
		h-9.7v4.8H71C71,7.7,70.9,6.9,70.9,6.1z M65,22l2.4,4.1l8.4-4.8c-0.9-1.3-1.7-2.7-2.4-4.1L65,22z"/>
	<path class="st0" d="M99.6-20.1h0.5v-10.2h-5.8v10.8l0.6-0.1c0.8-0.1,1.5-0.1,2.3-0.1c0.9,0,1.7,0,2.3,0.1l0.6,0.1v-0.6H99.6
		l0.1-0.5c-0.8-0.1-1.6-0.1-2.5-0.1c-0.8,0-1.6,0-2.5,0.1l0.1,0.5h0.5v-9.2h3.8v9.2H99.6l0.1-0.5L99.6-20.1z M86.2-17.8l0.4-0.3
		l-5.2-8.8l-5,2.9l5.4,9.3l0.4-0.3c1.3-0.9,2.7-1.7,4-2.4l0.5-0.2l-0.3-0.5L86.2-17.8L86-18.2c-1.4,0.7-2.8,1.5-4.2,2.4l0.3,0.4
		l0.4-0.3l-4.6-8l3.2-1.9l4.6,8L86.2-17.8L86-18.2L86.2-17.8z M117.3-23.8l0.3-0.4l-4.5-2.7l-5.3,9.3l0.5,0.2c1.5,0.7,2.7,1.5,4,2.4
		l0.4,0.3L118-24l-0.4-0.2L117.3-23.8l-0.4-0.2l-4.8,8.4l0.4,0.2l0.3-0.4c-1.3-0.9-2.6-1.7-4.2-2.4l-0.2,0.5l0.4,0.2l4.5-8l3.7,2.1
		L117.3-23.8l-0.4-0.2L117.3-23.8z M75.8-9.1L76-9.5l-8.8-5l-2.9,5l9.3,5.4l0.2-0.5c0.6-1.5,1.4-2.8,2.3-4.1l0.3-0.5L76-9.5
		L75.8-9.1l-0.4-0.3c-1,1.3-1.9,2.8-2.5,4.3l0.5,0.2l0.3-0.4l-8-4.6l1.9-3.2l8,4.6L75.8-9.1l-0.4-0.3L75.8-9.1z M97.2-15.5V-16
		c-12.2,0-22,9.9-22,22.1c0,6.1,2.5,11.6,6.4,15.6c4,4,9.5,6.4,15.6,6.4c6.1,0,11.6-2.5,15.6-6.4c4-4,6.4-9.5,6.4-15.6
		c0-12.2-9.8-22.1-22-22.1V-15.5v0.5c5.8,0,11.1,2.4,14.9,6.2c3.8,3.8,6.1,9.1,6.1,14.9c0,11.6-9.4,21-21,21c-11.6,0-21-9.4-21-21
		c0-5.8,2.3-11.1,6.1-14.9c3.8-3.8,9-6.2,14.9-6.2V-15.5z M129.5-9.8l0.4-0.3l-2.7-4.5L118-9.3l0.3,0.4c0.9,1.3,1.7,2.7,2.4,4
		l0.2,0.5l9.3-5.3l-0.3-0.4L129.5-9.8l-0.2-0.4l-8.4,4.8l0.2,0.4l0.4-0.2c-0.7-1.4-1.5-2.8-2.4-4.2l-0.4,0.3l0.2,0.4l8-4.6l2.2,3.7
		L129.5-9.8l-0.2-0.4L129.5-9.8z M108.3,30l-0.4,0.3l5.2,8.8l5-2.9l-5.3-9.3l-0.4,0.3c-1.4,0.9-2.8,1.7-4.2,2.4l-0.5,0.2l0.3,0.5
		L108.3,30l0.2,0.4c1.4-0.7,2.8-1.5,4.2-2.4l-0.3-0.4l-0.4,0.2l4.6,8l-3.2,1.9l-4.6-8L108.3,30l0.2,0.4L108.3,30z M118.7,21.3
		l-0.2,0.4l8.8,5l2.9-5l-9.3-5.4l-0.2,0.5c-0.6,1.5-1.4,2.8-2.3,4.1l-0.3,0.5l0.5,0.3L118.7,21.3l0.4,0.3c1-1.3,1.9-2.8,2.5-4.3
		l-0.5-0.2l-0.3,0.4l8,4.6l-1.9,3.2l-8-4.6L118.7,21.3l0.4,0.3L118.7,21.3z M123.5,3.7L123,3.8c0.1,0.8,0.1,1.5,0.1,2.3
		c0,0.8-0.1,1.6-0.1,2.4V9h10.7V3.2h-10.8l0.1,0.6L123.5,3.7v0.5h9.2V8h-9.2v0.5h0.5c0-0.8,0.1-1.6,0.1-2.4c0-0.8,0-1.6-0.1-2.5
		L123.5,3.7v0.5V3.7z M94.9,32.3h-0.5v10.2h5.8V31.7l-0.6,0.1c-0.8,0.1-1.5,0.1-2.3,0.1c-0.9,0-1.7,0-2.3-0.1l-0.6-0.1v0.6H94.9
		l-0.1,0.5c0.8,0.1,1.6,0.1,2.5,0.1c0.8,0,1.6,0,2.5-0.1l-0.1-0.5h-0.5v9.2h-3.8v-9.2H94.9l-0.1,0.5L94.9,32.3z M77.2,36l-0.3,0.4
		l4.5,2.7l5.4-9.3l-0.5-0.2c-1.5-0.7-2.7-1.5-4-2.4l-0.4-0.3l-5.4,9.3l0.4,0.3L77.2,36l0.4,0.3l4.9-8.4l-0.4-0.3L81.8,28
		c1.3,0.9,2.6,1.7,4.2,2.4l0.2-0.5l-0.4-0.3l-4.6,8l-3.7-2.1L77.2,36l0.4,0.3L77.2,36z M70.9,6.1h0.5c0-0.8,0.1-1.6,0.1-2.4V3.2
		H60.8V9h10.7V8.5c0-0.8-0.1-1.6-0.1-2.4H70.9h-0.5c0,0.8,0.1,1.6,0.1,2.4H71V8h-9.2V4.2H71V3.7h-0.5c0,0.8-0.1,1.6-0.1,2.4H70.9z
		 M65,22l-0.4,0.3l2.6,4.5l9.3-5.3L76.2,21c-0.9-1.3-1.7-2.7-2.4-4l-0.2-0.5l-9.3,5.3l0.3,0.4L65,22l0.2,0.4l8.4-4.8l-0.2-0.4
		L73,17.4c0.7,1.4,1.5,2.8,2.4,4.2l0.4-0.3l-0.2-0.4l-8,4.6l-2.1-3.7L65,22l0.2,0.4L65,22z"/>
</g>
</svg>
