<?xml version="1.0" encoding="utf-8"?>
<!-- Generator: Adobe Illustrator 16.0.0, SVG Export Plug-In . SVG Version: 6.00 Build 0)  -->
<!DOCTYPE svg PUBLIC "-//W3C//DTD SVG 1.1//EN" "http://www.w3.org/Graphics/SVG/1.1/DTD/svg11.dtd">
<svg version="1.1" id="Layer_1" xmlns="http://www.w3.org/2000/svg" xmlns:xlink="http://www.w3.org/1999/xlink" x="0px" y="0px"
	 width="122.5px" height="122.5px" viewBox="61.1 -29 122.5 122.5" style="enable-background:new 61.1 -29 122.5 122.5;"
	 xml:space="preserve">
<style type="text/css">
<![CDATA[
	.st0{fill:#FF00FF;}
	.st1{fill:#333333;}
]]>
</style>
<g>
	<path class="st1" d="M165.6,18.2c-4.4,0-8.6,0.5-12.5,1.3c3.4-2.3,6.8-5,9.7-8.1c17-16.7-2.9-36.5-19.6-19.6
		c-3.1,3.1-5.7,6.5-8.1,9.7c0.8-3.9,1.3-8.1,1.3-12.5c0-24-27.9-24-27.9,0c0,4.4,0.5,8.6,1.3,12.5c-2.3-3.4-5-6.8-8.1-9.7
		c-17-17-36.8,2.9-19.8,19.6c3.1,3.1,6.5,5.7,9.7,8.1c-3.9-0.8-8.1-1.3-12.5-1.3c-24,0-24,27.9,0,27.9c4.4,0,8.6-0.5,12.5-1.3
		c-3.4,2.3-6.8,5-9.7,8.1c-17,17,2.9,36.8,19.6,19.8c3.1-3.1,5.7-6.5,8.1-9.7c-0.8,3.9-1.3,8.1-1.3,12.5c0,24,27.9,24,27.9,0
		c0-4.4-0.5-8.6-1.3-12.5c2.3,3.4,5,6.8,8.1,9.7c17,17,36.8-2.9,19.8-19.6c-3.1-3.1-6.5-5.7-9.7-8.1c3.9,0.8,8.1,1.3,12.5,1.3
		C189.6,46.5,189.6,18.2,165.6,18.2z M111.4,22.1c6.3-6.3,16.7-6.3,23,0c6,6,6.3,15.1,1.3,21.7c-2.9,3.4-7.3,5.5-12,5.5
		c-9.1,0-16.4-7.3-16.4-16.4c0-3.9,1.3-7.3,3.7-10.2C111.1,22.5,111.1,22.1,111.4,22.1z"/>
	<path class="st0" d="M165.6,18.2v-0.5c-4.4,0-8.7,0.5-12.6,1.3l0.1,0.5l0.3,0.4c3.4-2.3,6.9-5,9.8-8.2l-0.4-0.3l0.4,0.4
		c4.7-4.6,6.6-9.4,6.6-13.8c0-3.7-1.4-7-3.8-9.3c-2.4-2.4-5.7-3.8-9.4-3.8c-4.3,0-9.2,2-13.8,6.6l0,0c-3.1,3.1-5.7,6.6-8.1,9.8
		l0.4,0.3l0.5,0.1c0.8-3.9,1.3-8.2,1.3-12.6c0-6.1-1.8-10.7-4.5-13.8c-2.7-3.1-6.3-4.7-10-4.7c-3.6,0-7.3,1.6-10,4.7
		c-2.7,3.1-4.5,7.7-4.5,13.8c0,4.4,0.5,8.7,1.3,12.6l0.5-0.1l0.4-0.3c-2.3-3.4-5-6.9-8.2-9.8l-0.3,0.4l0.4-0.4
		c-4.7-4.7-9.6-6.6-14-6.6c-3.7,0-7,1.4-9.4,3.8c-2.4,2.4-3.8,5.7-3.8,9.3c0,4.3,2,9.2,6.7,13.8l0,0c3.1,3.1,6.6,5.7,9.8,8.1
		l0.3-0.4l0.1-0.5c-3.9-0.8-8.2-1.3-12.6-1.3c-6.1,0-10.7,1.8-13.8,4.5c-3.1,2.7-4.7,6.3-4.7,10c0,3.6,1.6,7.3,4.7,10
		c3.1,2.7,7.7,4.5,13.8,4.5c4.4,0,8.7-0.5,12.6-1.3l-0.1-0.5l-0.3-0.4c-3.4,2.3-6.9,5-9.8,8.2l0.4,0.3l-0.4-0.4
		c-4.7,4.7-6.6,9.6-6.6,14c0,3.7,1.4,7,3.8,9.4s5.7,3.8,9.3,3.8c4.3,0,9.2-2,13.8-6.7l0,0c3.1-3.1,5.7-6.6,8.1-9.8l-0.4-0.3
		l-0.5-0.1c-0.8,3.9-1.3,8.2-1.3,12.6c0,6.1,1.8,10.7,4.5,13.8c2.7,3.1,6.3,4.7,10,4.7c3.6,0,7.3-1.6,10-4.7
		c2.7-3.1,4.5-7.7,4.5-13.8c0-4.4-0.5-8.7-1.3-12.6l-0.5,0.1l-0.4,0.3c2.3,3.4,5,6.9,8.2,9.8l0.3-0.4l-0.4,0.4
		c4.7,4.7,9.6,6.6,14,6.6c3.7,0,7-1.4,9.4-3.8c2.4-2.4,3.8-5.7,3.8-9.3c0-4.3-2-9.2-6.7-13.8l0,0c-3.1-3.1-6.6-5.7-9.8-8.1l-0.3,0.4
		l-0.1,0.5c3.9,0.8,8.2,1.3,12.6,1.3h0l0.3,0c6,0,10.6-1.8,13.6-4.5c3.1-2.7,4.6-6.3,4.6-10c0-3.7-1.6-7.3-4.7-10.1
		c-3.1-2.7-7.7-4.5-13.8-4.5V18.2v0.5c5.9,0,10.3,1.7,13.2,4.3c2.9,2.6,4.3,5.9,4.3,9.3c0,3.4-1.4,6.7-4.3,9.2
		c-2.9,2.5-7.2,4.2-13,4.2l-0.2,0h0h0c-4.4,0-8.5-0.5-12.4-1.3l-2.2-0.4l1.8,1.3c3.2,2.4,6.6,5,9.6,8.1l0,0l0,0
		c4.5,4.4,6.4,9.1,6.4,13.1c0,6.9-5.3,12.1-12.2,12.1c-4.1,0-8.7-1.8-13.2-6.3l0,0l0,0c-3.1-2.9-5.7-6.2-8-9.6l-1.4-2.1l0.5,2.5
		c0.8,3.9,1.3,8,1.3,12.4c0,5.9-1.7,10.3-4.2,13.2c-2.5,2.9-5.9,4.3-9.2,4.3c-3.3,0-6.7-1.4-9.2-4.3c-2.5-2.9-4.2-7.3-4.2-13.2
		c0-4.4,0.5-8.5,1.3-12.4l0.4-2.2l-1.3,1.8c-2.4,3.2-5,6.6-8.1,9.6l0,0l0,0c-4.4,4.5-9.1,6.4-13.1,6.4c-6.9,0-12.1-5.3-12.1-12.2
		c0-4.1,1.8-8.7,6.3-13.2l0,0l0,0c2.9-3.1,6.2-5.7,9.6-8l2.1-1.4l-2.5,0.5c-3.9,0.8-8,1.3-12.4,1.3c-5.9,0-10.3-1.7-13.2-4.2
		c-2.9-2.5-4.3-5.9-4.3-9.2c0-3.3,1.4-6.7,4.3-9.2c2.9-2.5,7.3-4.2,13.2-4.2c4.4,0,8.5,0.5,12.4,1.3l2.2,0.4l-1.8-1.3
		c-3.2-2.4-6.6-5-9.6-8.1l0,0l0,0C77.7,6.6,75.9,2,75.9-2.1c0-6.9,5.3-12.1,12.2-12.1c4.1,0,8.7,1.8,13.2,6.3l0,0l0,0
		c3.1,2.9,5.7,6.2,8,9.6l1.4,2.1l-0.5-2.5c-0.8-3.9-1.3-8-1.3-12.4c0-5.9,1.7-10.3,4.2-13.2c2.5-2.9,5.9-4.3,9.2-4.3
		c3.3,0,6.7,1.4,9.2,4.3c2.5,2.9,4.2,7.3,4.2,13.2c0,4.4-0.5,8.5-1.3,12.4l-0.4,2.2l1.3-1.8c2.4-3.2,5-6.6,8.1-9.6l0,0l0,0
		c4.4-4.5,9-6.3,13.1-6.3c6.9,0,12.2,5.3,12.2,12.1c0,4-1.8,8.6-6.3,13.1l0,0l0,0c-2.9,3.1-6.2,5.7-9.6,8l-2.1,1.4l2.5-0.5
		c3.9-0.8,8-1.3,12.4-1.3V18.2z M111.4,22.1l0.4,0.4c3.1-3.1,7.1-4.6,11.1-4.6c4,0,8.1,1.5,11.1,4.6c3.1,3.1,4.6,7.1,4.7,11.1
		c0,3.5-1.1,7-3.4,9.9l0.4,0.3l-0.4-0.3c-2.8,3.3-7.1,5.3-11.6,5.3c-8.8,0-15.9-7.1-15.9-15.9c0-3.8,1.3-7.1,3.6-9.9l0,0l0-0.1
		c0.1-0.2,0.1-0.4,0.1-0.4l0,0l-0.2-0.1l0.1,0.2l0.1-0.1l-0.2-0.1l0.1,0.2l-0.1-0.2v0.2l0.1,0l-0.1-0.2v0.2h0.2l0.1-0.1L111.4,22.1
		v-0.5c-0.2,0-0.4,0.1-0.5,0.2c-0.2,0.2-0.2,0.4-0.3,0.5l0,0.2l0,0l0,0l0.4,0.2l-0.4-0.3c-2.5,3-3.8,6.5-3.8,10.5
		c0,4.7,1.9,8.9,4.9,12c3.1,3.1,7.3,4.9,12,4.9c4.8,0,9.4-2.2,12.4-5.7l0,0l0,0c2.4-3.1,3.6-6.8,3.6-10.5c0-4.3-1.6-8.5-4.9-11.8
		c-3.2-3.2-7.6-4.9-11.9-4.9c-4.3,0-8.6,1.6-11.9,4.9L111.4,22.1v-0.5V22.1z"/>
</g>
</svg>
