<?xml version="1.0" encoding="utf-8"?>
<!-- Generator: Adobe Illustrator 16.0.0, SVG Export Plug-In . SVG Version: 6.00 Build 0)  -->
<!DOCTYPE svg PUBLIC "-//W3C//DTD SVG 1.1//EN" "http://www.w3.org/Graphics/SVG/1.1/DTD/svg11.dtd">
<svg version="1.1" id="Layer_1" xmlns="http://www.w3.org/2000/svg" xmlns:xlink="http://www.w3.org/1999/xlink" x="0px" y="0px"
	 width="63.1px" height="58.2px" viewBox="6.4 8.8 63.1 58.2" enable-background="new 6.4 8.8 63.1 58.2" xml:space="preserve">
<g>
	<polygon fill="#35ABBB" points="68.4,30.2 53.2,45 56.8,66.1 38,56.2 19.1,66.1 22.8,45 7.6,30.2 28.6,29 38,9.9 47.4,29 	"/>
	<polygon fill="#35ABBB" points="38,9.9 37.6,10.1 47.1,29.5 67.2,30.6 52.7,44.8 56.1,65.2 38,55.6 19.8,65.2 23.3,44.8 8.8,30.6 
		28.9,29.5 38.4,10.1 38,9.9 37.6,10.1 38,9.9 37.6,9.7 28.3,28.5 6.4,29.8 22.3,45.2 18.4,67 38,56.8 57.5,67 53.7,45.2 69.6,29.8 
		47.7,28.5 38,8.8 37.6,9.7 	"/>
</g>
</svg>
