<?xml version="1.0" encoding="utf-8"?>
<!-- Generator: Adobe Illustrator 16.0.0, SVG Export Plug-In . SVG Version: 6.00 Build 0)  -->
<!DOCTYPE svg PUBLIC "-//W3C//DTD SVG 1.1//EN" "http://www.w3.org/Graphics/SVG/1.1/DTD/svg11.dtd">
<svg version="1.1" id="Layer_1" xmlns="http://www.w3.org/2000/svg" xmlns:xlink="http://www.w3.org/1999/xlink" x="0px" y="0px"
	 width="100px" height="100px" viewBox="-12.7 -14.3 100 100" style="enable-background:new -12.7 -14.3 100 100;"
	 xml:space="preserve">
<style type="text/css">
<![CDATA[
	.st0{fill:#333333;}
]]>
</style>
<path class="st0" d="M16.5-6.6v-7.1h-3.6v7.1c0.6,0,1.2-0.2,1.7-0.2S16-6.6,16.5-6.6z M6.6-4.7L3-11.1l-3.1,1.9l3.6,6.4
	C4.4-3.6,5.3-4.2,6.6-4.7z M29.6-9.2l-3.1-1.7l-3.7,6.4c1.1,0.5,2.2,1.1,3.1,1.7L29.6-9.2z M-1.3,1.8l-6.4-3.7l-1.7,3.1L-3,4.8
	C-2.6,3.8-2,2.7-1.3,1.8z M14.6-3C5.8-3-1.5,4.1-1.5,13.1s7.3,16,16.1,16c8.8,0,16.1-7.1,16.1-16C30.7,4.3,23.6-3,14.6-3z M38.8,1.2
	l-1.7-3.1l-6.4,3.7c0.6,0.9,1.2,2,1.7,3.1L38.8,1.2z M22.8,30.9l3.6,6.4l3.1-1.7l-3.6-6.4C25,29.9,23.9,30.3,22.8,30.9z M30.7,24.3
	l6.4,3.6l1.7-3.1l-6.4-3.6C32,22.4,31.5,23.5,30.7,24.3z M34.3,11.3c0,0.6,0.2,1.2,0.2,1.7c0,0.5,0,1.2-0.2,1.7h7.1v-3.4H34.3z
	 M12.9,32.6v7.1h3.6v-7.1c-0.5,0-1.1,0.2-1.7,0.2C14.2,32.8,13.5,32.6,12.9,32.6z M-0.3,35.3L2.8,37l3.6-6.4
	c-1.1-0.5-2.2-1.1-3.1-1.7L-0.3,35.3z M-4.9,13.1c0-0.6,0-1.2,0.2-1.7h-7.1V15h7.1C-4.9,14.4-4.9,13.6-4.9,13.1z M-9.4,24.9l1.7,3.1
	l6.4-3.6c-0.6-0.9-1.2-2-1.7-3.1L-9.4,24.9z"/>
</svg>
