<?xml version="1.0" encoding="utf-8"?>
<!-- Generator: Adobe Illustrator 16.0.0, SVG Export Plug-In . SVG Version: 6.00 Build 0)  -->
<!DOCTYPE svg PUBLIC "-//W3C//DTD SVG 1.1//EN" "http://www.w3.org/Graphics/SVG/1.1/DTD/svg11.dtd">
<svg version="1.1" id="Layer_1" xmlns="http://www.w3.org/2000/svg" xmlns:xlink="http://www.w3.org/1999/xlink" x="0px" y="0px"
	 width="100px" height="100px" viewBox="-12.7 -14.3 100 100" style="enable-background:new -12.7 -14.3 100 100;"
	 xml:space="preserve">
<style type="text/css">
<![CDATA[
	.st0{fill:#333333;}
]]>
</style>
<path class="st0" d="M37.5,6.4L37.5,6.4C37.4,6.4,37.4,6.4,37.5,6.4C37.4,6.4,37.4,6.4,37.5,6.4c-2.7,0-7.1,1.7-9.3,2.7L27.9,7
	c-0.1-0.6-0.4-0.7-0.8-0.8C26.9,6,26.8,6,26.8,6c-0.3,0-0.7,0.1-0.8,0.3L21,11.5l3.3-15.3c0.1-0.6-0.1-1.1-0.5-1.3
	c-0.1-0.1-0.4-0.1-0.5-0.1c-0.3,0-0.5,0.1-0.8,0.3l-2.5,2.2l-3.5-9.8c-0.1-0.6-0.7-0.8-1.1-0.8l0,0c-0.5,0-0.8,0.6-1.1,0.8l-3.7,9.7
	L8.1-5.1C7.8-5.2,7.5-5.4,7.2-5.4C7-5.4,6.8-5.2,6.7-5.2C6.1-4.9,6-4.5,6.1-4l3.3,15.3L4.5,6.1C4.2,5.9,4,5.9,3.7,5.9
	c-0.1,0-0.3,0-0.3,0.1C3,6.1,2.7,6.6,2.6,6.8L2.1,8.9c-2.2-0.8-6.6-2.7-9.3-2.7c0,0,0,0-0.1,0c-0.5,0-0.8,0.3-1.1,0.7
	c-0.1,0.4-0.1,1,0.3,1.3c1.2,1.1,4.2,4.3,5.6,7c-1.1,0.3-2.3,0.8-2.9,1.3C-5.9,16.8-6,17.2-6,17.8c0.1,0.6,0.3,0.8,0.7,1
	c1.5,0.6,7.6,2.7,10.8,3.4c-1,1.5-3.3,4.2-5.3,6.4c-0.3,0.3-0.4,0.7-0.3,1.1c0.1,0.4,0.5,0.7,0.8,0.8c0.1,0,0.7,0.1,1.6,0.1
	c1.5,0,3.8-0.3,6.8-2l4.9-2.5v7c0,2-0.3,5.3,3.8,7.3c0.1,0.1,0.3,0.1,0.5,0.1c0.4,0,0.8-0.3,1.1-0.7c0.3-0.6,0-1.3-0.5-1.5
	C16,37,15.7,35,15.7,33v-6.9l5.2,2.7c2.6,1.7,4.9,2.1,6.3,2.1c1.4,0,2.3-0.3,2.5-0.4c0.3-0.1,0.7-0.6,0.7-0.8
	c0.1-0.4-0.1-0.7-0.3-1.1c-2.2-2.2-4.4-5-5.3-6.4c3-0.7,9.3-2.9,10.8-3.4c0.5-0.1,0.7-0.6,0.7-1c0.1-0.6-0.1-0.8-0.5-1.1
	c-0.5-0.3-1.9-0.8-2.9-1.3c1.4-2.5,4.4-5.7,5.6-6.9c0.3-0.3,0.4-0.6,0.4-0.8C38.6,6.8,38.2,6.4,37.5,6.4z"/>
</svg>
