<?xml version="1.0" encoding="utf-8"?>
<!-- Generator: Adobe Illustrator 19.0.0, SVG Export Plug-In . SVG Version: 6.00 Build 0)  -->
<svg version="1.1" id="Layer_1" xmlns="http://www.w3.org/2000/svg" xmlns:xlink="http://www.w3.org/1999/xlink" x="0px" y="0px" width="160px" height="160px"
	 viewBox="260 -260 160.1 160" style="enable-background:new 260 -260 160.1 160;" xml:space="preserve">
<style type="text/css">
	.st0{fill:#333333;}
</style>
<g>
	<path class="st0" d="M381.9-145.6c-5.7,0-8.1-4-8.2-4.3c-0.4-0.8-1.3-1.3-2.2-1.3c-0.9,0-1.8,0.5-2.2,1.3c-0.2,0.3-2.6,4.3-7.9,4.3
		c-2.3,0-4.5-0.7-6.4-2.2c-1.4-1.1-2.2-2.2-2.3-2.3c-0.4-0.7-1.2-1.1-2-1.1c-0.8,0-1.6,0.3-2.1,1c0,0-3.8,4.7-8.4,4.7
		c-4.7,0-8.7-4-8.8-4.1c-0.4-0.5-1.1-0.7-1.8-0.7c0,0,0,0,0,0c-0.7,0-1.3,0.2-1.8,0.7c-1.8,1.9-3.7,3.1-5.6,3.7
		c-1.4,0.4-2.4,0.4-3,0.4c-0.1,0-0.2,0-0.3,0c-1.4,0-2.5,1.1-2.5,2.5s1.1,2.5,2.5,2.5c0,0,0.1,0,0.1,0c0.1,0,0.3,0,0.5,0
		c0.9,0,2.3-0.1,4.1-0.7c2-0.7,4-1.8,5.8-3.4c2.2,1.7,6,4,10.6,4c4.5,0,8.1-2.5,10.2-4.4c2.1,2,5.7,4.4,10.9,4.4
		c4.9,0,8.2-2.2,10.1-4.1c2,1.9,5.3,4.1,10.4,4.1c1.4,0,2.5-1.1,2.5-2.5C384.3-144.4,383.2-145.6,381.9-145.6z"/>
	<path class="st0" d="M402.5-165.4c-5.7,0-8.1-4-8.2-4.3c-0.4-0.8-1.3-1.3-2.2-1.3c-0.9,0-1.8,0.5-2.2,1.3c-0.2,0.3-2.6,4.3-7.9,4.3
		c-2.3,0-4.5-0.7-6.4-2.2c-1.3-0.9-1.5-2.1-1.5-2.2c-0.3-0.7-0.9-1.3-1.7-1.5c-0.8-0.2-1.6,0-2.2,0.5c0,0-3.5,4-8.1,4.2
		c-5.8,0.2-5.9-5.7-5.5-8.6c0.2-1.1-0.7-1.8-1.3-2c0,0,0,0,0,0c-0.6-0.2-1.3-0.1-1.9,0.2c-2.3,1.2-5.8,6.2-12.3,7.5
		c-16.1,3.1-32.5-20.1-17.5-36c9.2-9.7,22-2.3,23,5.4c0.5,3.5-0.9,6.3-3,8.1c-2.4,2.1-5.7,2.3-9.6,0.6c-1.6-0.8-2.5-1.9-2.6-3.3
		c-0.1-1.1,0.4-2.2,1.3-2.9c0.9-0.6,2.1-0.6,3.4,0c1.1,0.5,2.4,0.1,2.9-1c0.5-1.1,0.1-2.4-1-2.9c-2.7-1.3-5.5-1.2-7.7,0.3
		c-2.2,1.5-3.4,4.1-3.2,6.8c0.2,2.9,2.1,5.5,5.1,6.9c0,0,0,0,0.1,0c7.5,3.3,12.2,0.6,14.4-1.3c4-3.6,6.1-10,4.3-15.8
		c-2.1-6.7-8.5-12.9-16.4-13.9c-10.5-1.3-19.4,3.2-26.5,9.9c-6,5.6-10.8,14.1-14.7,26.1c-3.8,11.7-10.8,16.2-12.7,16.8
		c-1.4,0.4-2.4,0.4-3,0.4c-0.1,0-0.2,0-0.3,0c-0.4,0-0.9,0.1-1.3,0.4c-0.9,0.2-1.6,0.9-1.7,1.8c-0.2,1.2,0.6,2.3,1.7,2.5
		c0.4,0.2,0.8,0.3,1.2,0.3c0,0,0.1,0,0.1,0c0.1,0,0.3,0,0.5,0c0.9,0,2.3-0.1,4.1-0.7c2-0.7,4-1.8,5.8-3.4c2.2,1.7,6,4,10.6,4
		c4.5,0,8.1-2.5,10.2-4.4c2.1,2,5.7,4.5,10.8,4.5c4.2,0,8.3-1.9,9.9-3.5c2,1.7,5.9,3.3,10.2,3.5c0.1,0,0.2,0,0.3,0c0,0,0.1,0,0.1,0
		c0.1,0,0.3,0,0.5,0c0.9,0,2.3-0.1,4.1-0.7c2-0.7,4-1.8,5.8-3.4c2.2,1.7,6,4,10.6,4c4.5,0,8.1-2.5,10.2-4.4c2.1,2,5.7,4.4,10.9,4.4
		c4.9,0,8.2-2.2,10.1-4.1c2,1.9,5.3,4.1,10.4,4.1c1.4,0,2.5-1.1,2.5-2.5C405-164.3,403.9-165.4,402.5-165.4z"/>
</g>
<path class="st0" d="M305-100h30v-15h-30V-100z M305-245h30v-15h-30V-245z M280-260c-11.1,0-20,9-20,20v15.1l15,0V-235
	c0-5.5,4.5-10,10-10h9.9l-0.1-15H280z M275-125v-10.1l-15,0v15.1c0,11.1,9,20,20,20h14.9l0.1-15H285C279.5-115,275-119.5,275-125z
	 M275-215h-15v30h15V-215z M345-100h30v-15h-30V-100z M400-260h-14.9l-0.1,15h9.9c5.5,0,10,4.5,10,10v10.1l15,0V-240
	C420-251,411.1-260,400-260z M405-185h15v-30h-15L405-185L405-185z M405-125c0,5.5-4.5,10-10,10h-9.9l0.1,15H400c11.1,0,20-9,20-20
	v-15.1l-15,0L405-125L405-125z M345-245h30v-15h-30V-245z M405-145h15v-30h-15L405-145L405-145z M275-175h-15v30h15V-175z"/>
</svg>
