<?xml version="1.0" encoding="utf-8"?>
<!-- Generator: Adobe Illustrator 19.0.0, SVG Export Plug-In . SVG Version: 6.00 Build 0)  -->
<svg version="1.1" id="Layer_1" xmlns="http://www.w3.org/2000/svg" xmlns:xlink="http://www.w3.org/1999/xlink" x="0px" y="0px" height="160px" width="160px"
	 viewBox="215 -215 498 498" style="enable-background:new 215 -215 498 498;" xml:space="preserve">
<style type="text/css">
	.st0{fill:#333333;}
</style>
<g>
	<path class="st0" d="M594.3,141.2c-17.7,0-25.1-12.4-25.6-13.3c-1.3-2.6-3.9-4.2-6.8-4.2c-2.9,0-5.5,1.6-6.8,4.1
		c-0.5,0.9-8,13.4-24.7,13.4c-7.2,0-13.9-2.3-19.9-6.8c-4.5-3.4-7-6.9-7.2-7.2c-1.3-2.1-3.6-3.4-6.1-3.5c-2.5-0.1-4.9,1-6.4,3
		c-0.1,0.1-11.7,14.5-26.1,14.5c-14.7,0-27.1-12.3-27.5-12.7c-1.4-1.5-3.4-2.2-5.5-2.2c0,0,0,0-0.1,0c-2.1,0-4.1,0.7-5.5,2.2
		c-5.6,5.8-11.4,9.6-17.3,11.5c-4.4,1.4-7.6,1.3-9.2,1.3c-0.3,0-0.6,0-0.8,0c-4.3,0-7.7,3.4-7.7,7.7c0,4.3,3.5,7.7,7.7,7.7
		c0.1,0,0.2,0,0.4,0c0.4,0,1,0,1.7,0c2.7,0,7.2-0.3,12.7-2.1c6.3-2.1,12.4-5.6,18.2-10.5c6.7,5.2,18.7,12.5,32.9,12.5
		c13.9,0,25.3-7.8,31.9-13.8c6.4,6.1,17.7,13.8,33.8,13.8c15.2,0,25.5-6.9,31.5-12.8c6.1,6,16.6,12.8,32.4,12.8
		c4.3,0,7.7-3.5,7.7-7.7S598.5,141.2,594.3,141.2z"/>
	<path class="st0" d="M658.6,79.5c-17.7,0-25.1-12.4-25.6-13.3c-1.3-2.6-3.9-4.2-6.8-4.2c-2.9,0-5.5,1.6-6.8,4.1
		c-0.5,0.9-8,13.4-24.7,13.4c-7.2,0-13.9-2.3-19.9-6.8c-3.9-2.9-4.6-6.6-4.8-6.9c-0.9-2.3-2.8-4-5.2-4.7c-2.4-0.6-5,0-6.9,1.6
		c-0.1,0.1-11,12.6-25.3,13c-18.2,0.5-18.5-17.6-17-26.9c0.5-3.3-2.2-5.5-4.2-6.2c0,0,0,0-0.1,0c-2-0.7-4.1-0.4-6,0.5
		c-7.2,3.6-18,19.4-38.2,23.3C417,76.1,365.9,3.8,412.7-45.5c28.6-30.1,68.6-7.3,71.5,16.7c1.5,10.9-2.9,19.5-9.3,25.2
		c-7.4,6.6-17.8,7.2-30,1.8c-5-2.4-7.9-6-8.2-10.2c-0.3-3.5,1.3-7,4.1-8.9c2.8-1.9,6.5-1.9,10.5,0c3.4,1.6,7.5,0.2,9.1-3.2
		c1.6-3.4,0.2-7.5-3.2-9.1c-8.4-4.1-17.2-3.7-24.1,1c-6.8,4.7-10.7,12.8-10,21.2c0.7,9.1,6.5,17,16,21.5c0,0,0.1,0,0.2,0.1
		c23.3,10.4,38,2,44.7-4c12.6-11.2,19.1-31,13.4-49.3C490.8-63.7,471-83,446.3-86c-32.7-4-60.5,10.1-82.4,30.7
		c-18.6,17.5-33.7,44-45.8,81.1c-11.9,36.4-33.7,50.5-39.6,52.4c-4.4,1.4-7.6,1.4-9.2,1.3c-0.3,0-0.6,0-0.8,0
		c-1.4,0-2.8,0.4-3.9,1.1c-2.7,0.6-4.9,2.7-5.3,5.6c-0.6,3.6,1.8,7.1,5.4,7.8c1.1,0.6,2.4,1,3.8,1c0.1,0,0.2,0,0.4,0
		c0.4,0,1,0,1.7,0c2.7,0,7.2-0.3,12.7-2.1c6.3-2.1,12.4-5.6,18.2-10.5c6.7,5.2,18.7,12.5,32.9,12.5c13.9,0,25.3-7.8,31.9-13.8
		C372.7,87.2,384,95,400,95c13.1,0,25.9-6,30.8-10.8c6.1,5.2,18.3,10.4,31.6,10.8c0.3,0,0.5,0,0.8,0c0.1,0,0.2,0,0.4,0
		c0.4,0,1,0,1.7,0c2.7,0,7.2-0.3,12.7-2.1c6.3-2.1,12.4-5.6,18.2-10.5c6.7,5.2,18.7,12.5,32.9,12.5c13.9,0,25.3-7.8,31.9-13.8
		c6.4,6.1,17.7,13.8,33.8,13.8c15.2,0,25.5-6.9,31.5-12.8c6.1,6,16.6,12.8,32.4,12.8c4.3,0,7.7-3.5,7.7-7.7
		C666.4,83,662.9,79.5,658.6,79.5z"/>
</g>
<path class="st0" d="M355.1,283h93.4v-46.7h-93.4V283z M355.1-168.3h93.4V-215h-93.4V-168.3z M277.3-215
	c-34.4,0-62.3,27.9-62.3,62.2v47l46.7-0.1v-31.3c0-17.2,13.9-31.1,31.1-31.1h30.9l-0.2-46.7H277.3z M261.7,205.2v-31.3l-46.7-0.1v47
	c0,34.4,27.9,62.3,62.3,62.3h46.3l0.2-46.7h-30.9C275.6,236.4,261.7,222.4,261.7,205.2z M261.7-74.9H215v93.4h46.7V-74.9z
	 M479.6,283H573v-46.7h-93.4V283z M650.8-215h-46.3l-0.2,46.7h30.9c17.2,0,31.1,13.9,31.1,31.1v31.3l46.7,0.1v-47
	C713-187.1,685.2-215,650.8-215z M666.4,18.5H713v-93.4h-46.7V18.5z M666.4,205.2c0,17.2-13.9,31.1-31.1,31.1h-30.9l0.2,46.7h46.3
	c34.4,0,62.3-27.9,62.3-62.3v-47l-46.7,0.1V205.2z M479.6-168.3H573V-215h-93.4V-168.3z M666.4,143H713V49.6h-46.7V143z M261.7,49.6
	H215V143h46.7V49.6z"/>
</svg>
