<?xml version="1.0" encoding="utf-8"?>
<!-- Generator: Adobe Illustrator 19.0.0, SVG Export Plug-In . SVG Version: 6.00 Build 0)  -->
<svg version="1.1" id="Layer_1" xmlns="http://www.w3.org/2000/svg" xmlns:xlink="http://www.w3.org/1999/xlink" x="0px" y="0px"
	 viewBox="43.2 -37.1 156.2 156.2" style="enable-background:new 43.2 -37.1 156.2 156.2;" xml:space="preserve">
<style type="text/css">
	.st0{fill:none;stroke:#FFFFFF;stroke-width:7;stroke-miterlimit:10;}
	.st1{fill:#FFFFFF;stroke:#FFFFFF;}
</style>
<path class="st0" d="M178.8,115.6H63.7c-9.4,0-17-7.6-17-17V-16.6c0-9.4,7.6-17,17-17h115.2c9.4,0,17,7.6,17,17V98.6
	C195.8,108,188.2,115.6,178.8,115.6z"/>
<path class="st1" d="M119.1,86.4c0,0,1.2-24.5-2.2-31.5s-9.3-16-9.5-19c-0.2-3.1-0.7-11.7,0-15.3s2.9-12.2,4.9-7s-1.5,9.8-1.4,10.7
	c0.2,0.8-1.5,7.5,3.2,13.2s3.6-3.9,3.6-3.9s-2.5-11.8,1.6-12.7c4-0.8,3.2,7.3,2.7,9.5s1.1,10.9,0.4,11.5s0.6,8.8,0.1,9.7
	s0.8,13.4,2.5,8.3s2.5-7.3,4.8-9c2.3-1.7,5.7-1.2,2.8,4.8s-6.1,5.7-7.3,14.9s-0.2,18.3-0.2,18.3S119.9,89.9,119.1,86.4L119.1,86.4z"
	/>
<path class="st1" d="M106.9,88.2c0,0,1-3.2-4.8-11.5S90.9,71.1,89.7,65s1-6.8,2.5-4.4c1.5,2.4,2.6,3.9,5.9,4.9s5,4.4,3.1-3.4
	s-2.7-8.6-5.1-11.3S81.8,40.4,72.2,39.6c-9.7-0.8-10.7-3.9-9.8-5.6c0.8-1.7,12.4,0,12.4,0l3.9,0.3c0,0,9.8,5.4,1.9-6.4
	s-10.4-15.4-7.5-15.6s4.6-0.7,8.3,5.3c3.7,6,8.1,17.5,8.1,17.5s1.4,4.2,2.5,3.6c1.2-0.7,0.3-11.5,0.5-12.2s-0.8-11.9,0.5-13
	c1.4-1.1,7.6-12.3,5.6,4s-1.4,21.4-1.4,21.4s4.6,7,6.3,0.3c1.7-6.6,10-10.9,10-10.9s2.9-1,4.1-3.7s6.8,0.5,3.6,4.2
	s-14.4,10.5-14.9,15.8s-2.2,13.2,0.2,13.7s0.7-2,4.9-4.1c4.2-2,7.8-9.8,9.2-5.7c1.4,4-3.1,6.8-3.1,6.8s-4.9,1-6.6,5.9
	S109,67,109.4,70c0.3,3.1,1.9,6.3,4.2,3.7c2.3-2.6,5.6-2.5,3.1,1.7s-4.1,9.5-4.1,11.4C112.7,88.6,107,90.2,106.9,88.2L106.9,88.2z"
	/>
<path class="st1" d="M146.1,87.1c0,0-1.4-3.1,3.3-12s10.5-6.9,10.9-13.1c0.5-6.2-1.8-6.6-3.1-4.1s-2.1,4.2-5.3,5.6
	c-3.1,1.4-4.4,5-3.5-3s1.7-8.9,3.7-11.9s12.9-12,22.4-14s10.2-5.1,9.1-6.7c-1.1-1.6-12.3,1.5-12.3,1.5l-3.8,0.8c0,0-9.1,6.6-2.6-6.2
	c6.5-12.7,8.4-16.6,5.6-16.4s-4.6-0.1-7.6,6.2s-6,18.3-6,18.3s-0.8,4.4-2.1,3.8c-1.3-0.5-1.7-11.4-2-12.1c-0.2-0.7-0.6-11.9-2-12.8
	s-9-11.3-5.1,4.6c4,15.9,3.9,21.1,3.9,21.1s-3.7,7.5-6.2,1.1s-11.2-9.6-11.2-9.6s-3-0.7-4.5-3.2s-6.7,1.3-3,4.6
	c3.6,3.3,15.6,8.7,16.7,13.9s3.8,12.9,1.5,13.7s-0.9-1.9-5.4-3.5s-8.9-8.8-9.8-4.6c-0.9,4.2,3.8,6.4,3.8,6.4s5,0.4,7.3,5.1
	s2.5,5.5,2.6,8.6c0,3.1-1.1,6.5-3.8,4.2c-2.7-2.2-5.9-1.9-2.8,2c3,3.9,5.2,9,5.4,10.8C140.4,88.2,146.3,89.1,146.1,87.1L146.1,87.1z
	"/>
<path class="st1" d="M131.2,87.6c0,0-1-11.8,3.3-13.5c4.3-1.8,11.4-9.4,10.8-13.2c-0.6-3.8-2.4-2.2-3.6-2.2s-4.2,9.4-5.9,9.5
	s-4.3-4.6-1-11.4c3.3-6.7,6.8-8.8,8.3-13.4s-1.7-1.5,2.7-11.8s7.8-23,3.3-19.7S144.8,23,144.8,23l-1.5-0.5c0,0-2.1-5.1-1.2-7.1
	c0.9-2,2.2-9.4,2.2-9.4s-1-6.5-2.8-3c-1.8,3.6-1.4,8.4-1.8,10.2c-0.4,1.8-1.3,8.6-0.6,9.9c0.6,1.3,2.5,3.2,2.8,4.3
	c0.3,1.1-0.2,5.6-1.6,10c-1.4,4.4-5.4-4.2-5.9-4.4s-3.2-6.4-4.2-9.7c-0.9-3.3,1.4-11.9,1.4-13.1s-0.2-12-2.9-5.1
	c-2.8,6.9-1.7,12.5-1.7,13.1s0.4,10.3,0.4,10.3s1.2,5.6,3.7,8.9s6,1.7,2.2,12.7c-3.7,11-9.2,14.6-8,20.1c1.1,5.6-1.6,5.7,0.4,8.9
	c2,3.2,1.5,7.7,2,8.6C127.9,88.7,131.2,87.6,131.2,87.6L131.2,87.6z"/>
</svg>
