<?xml version="1.0" encoding="utf-8"?>
<!-- Generator: Adobe Illustrator 19.0.0, SVG Export Plug-In . SVG Version: 6.00 Build 0)  -->
<svg version="1.1" id="Layer_1" xmlns="http://www.w3.org/2000/svg" xmlns:xlink="http://www.w3.org/1999/xlink" x="0px" y="0px"
	 viewBox="43.2 -37.1 156.2 156.2" style="enable-background:new 43.2 -37.1 156.2 156.2;" xml:space="preserve">
<style type="text/css">
	.st0{fill:none;stroke:#FFFFFF;stroke-width:7;stroke-miterlimit:10;}
	.st1{fill:#FFFFFF;}
</style>
<path class="st0" d="M178.8,115.6H63.7c-9.4,0-17-7.6-17-17V-16.6c0-9.4,7.6-17,17-17h115.2c9.4,0,17,7.6,17,17V98.6
	C195.8,108,188.2,115.6,178.8,115.6z"/>
<path class="st1" d="M159.6,66.6c-7.3,0-16,4-29.7,4s-18.3-4.8-29.7-4.8s-16,2.3-25.2,2.4s-13.7-2.4-13.7-2.4s0.7,2.9,5,4.2
	c5.8,1.8,20.8-2.6,34.1-2.6s15.1,5.6,27.7,5.6s24.9-4.8,31.6-4.8c6.6,0,11.4,2.4,11.4,2.4S167,66.6,159.6,66.6z"/>
<path class="st1" d="M140.9,84.8c-10.4-0.1-25.3-7.4-37.4-7.3s-26.1,4.2-32.6,4.2s-9.6-1-9.6-1s0.8,3,8.4,3c8.2,0,21.3-4.2,33.7-4.1
	c17.4,0.1,22.5,7.3,37.7,7.2c14.9-0.1,27-6.2,27-6.2S151.8,84.9,140.9,84.8z"/>
<path class="st1" d="M160.5-0.2l16.4,42c0,0,0,0,0,0.1c2.4,5.1,12.3,34.6,9.5,39.8c-0.3,0.6-1.4,0.5-1.9-0.2L168.2,59
	C159.7,43.6,91.1,47.8,65,49.6c-1.2,0.1-1.9-1.4-0.9-1.8L131,20.4c0,0,0.1,0,0.1-0.1C149.9,8.7,156.4-4.2,160.5-0.2z"/>
<path class="st1" d="M140.3,60.8c-7.9-0.1-19.3-7-28.5-6.9s-19.9,4-24.9,4c-4.9,0-7.3-1-7.3-1s0.6,2.8,6.4,2.8
	c6.2,0,16.2-4,25.7-3.9c13.3,0.1,17.2,6.9,28.7,6.8c11.4-0.1,20.6-5.8,20.6-5.8S148.6,60.9,140.3,60.8z"/>
</svg>
