<?xml version="1.0" encoding="utf-8"?>
<!-- Generator: Adobe Illustrator 19.0.0, SVG Export Plug-In . SVG Version: 6.00 Build 0)  -->
<svg version="1.1" id="Layer_1" xmlns="http://www.w3.org/2000/svg" xmlns:xlink="http://www.w3.org/1999/xlink" x="0px" y="0px" width="160px" height="160px"
	 viewBox="89.9 -90 160 160" style="enable-background:new 89.9 -90 160 160;" xml:space="preserve">
<style type="text/css">
	.st0{fill:#333333;}
</style>
<path class="st0" d="M134.9,70h30V55h-30V70z M134.9-75h30v-15h-30V-75z M109.9-90c-11.1,0-20,9-20,20v15.1h15V-65
	c0-5.5,4.5-10,10-10h9.9l-0.1-15H109.9z M104.9,45V34.9h-15V50c0,11.1,9,20,20,20h14.9l0.1-15h-10C109.3,55,104.9,50.5,104.9,45z
	 M104.9-45h-15v30h15V-45z M174.9,70h30V55h-30V70z M229.9-90H215l-0.1,15h9.9c5.5,0,10,4.5,10,10v10h15v-15
	C249.9-81.1,240.9-90,229.9-90z M234.9-15h15v-30h-15V-15L234.9-15z M234.9,45c0,5.5-4.5,10-10,10H215l0.1,15h14.8
	c11.1,0,20-9,20-20V34.9h-15L234.9,45L234.9,45z M174.9-75h30v-15h-30V-75z M234.9,25h15V-5h-15V25L234.9,25z M104.9-5h-15v30h15V-5
	z"/>
<g id="Layer_2">
	<path class="st0" d="M223.3,3.3c0.2-27.1-6.7-38.3-8.8-41c2.6,0.5,6,3.3,8,5.4c3,3.1,4.8,5.2,8.2,7.9c0.4,0.3,2.3,2.2,2.3,2.2
		s-0.5-4-0.9-5.1c-0.5-1.6-0.7-2.8-1.3-4.4c-0.4-1.2-1-2.3-1.3-3.5c-0.4-1.2-1.1-2.2-1.7-3.3c-1-1.9-2.6-1.9-4.1-2.2
		c-2.6-0.5-6.1-0.4-8.7-0.4c0.9-0.7,1.9-1.2,2.8-1.9c3.2-2.4,6.4-3.9,9.8-5.3c-0.1,0-0.6-0.9-0.7-1c-0.3-0.4-0.7-0.6-1.1-0.8
		c-0.9-0.5-1.9-0.9-2.9-1.2c-1.9-0.6-4.1-0.7-5.9,0.5c-1.6,1.1-2.6,2-3.4,4.1c-0.1,0.3-2,4.8-2,4.8l-1.4,0.1
		c-0.2-3.7-4.2-8.6-4.2-8.6c-2.6-2.9-6.3-1.1-9,0l-3,1.6c0,0,12.4,6.3,12.9,7.7c-1.1,0.6-6.8,0-9.8,1.1c-2.7,1-3.6,4.9-4.9,8
		c-0.8,2-1.1,3.3-2,5.3c-0.5,1.1-1.2,5-1.2,5s2.2-1.4,2.7-1.8c1.4-1.3,3-3.1,4.4-4.4c4.2-3.8,8.3-7.9,12.6-11.2l-2.4,4.6
		c0,0-4.2,5.7-1.8,14.6c0.5,2.1,1.8,6.8,1.8,6.8l1-8.5c0.6-5.2,3.1-14.8,3.1-14.8c4.7,7.4,4.5,30.1,4.3,37
		C213.6,0.2,227.9,6,223.3,3.3"/>
</g>
<g>
	<path class="st0" d="M122,5.7c12.9,1.5,22-8.1,36.1-3.8c14.2,4.3,22.7,16.7,36.9,9.9c14.2-6.8,18.2-11.9,26-7.3
		s10.1,11.9,10.1,11.9s-1.9-15.4-11.4-19c-12.5-4.7-20.4,2.4-27.7,5c-1.3-1.1-2.3-2.4-2.6-4c-1.2-5.2,4.5-15.5,9.3-7.9
		c0-6.3-5.3-8.2-9.4-7.1c-9.3,2.7-13.3,10.5-12,16.6c-3.8-1.6-6.5-4.2-7.3-7.5c-1.6-6.9,6-20.5,12.3-10.4c0-8.4-7-10.9-12.4-9.4
		c-9.8,2.8-15.1,9.9-16.1,16.7c-3.1-2-5.1-4.9-6-8.5c-2.1-8.9,6.2-25.8,14.4-12.7c0-10.9-9.1-14.1-16.1-12.2
		c-22.9,6.5-13.8,41.7-26.2,41.3c-0.4,0-0.7,0-1.1,0c-0.6-0.3-1.3-0.6-2-1c-7.1-4-9.9-11.6-9.9-11.6S109.1,4.2,122,5.7z"/>
	<path class="st0" d="M216.3,8.5c-8.1,0-17.7,12.6-32.9,12.6C168.3,21.2,163.2,6,150.6,6s-17.7,7.3-27.8,7.6
		C112.7,13.8,107.6,6,107.6,6s0.8,9.1,5.6,13.4c6.4,5.8,23-8.3,37.7-8.3c14.7,0,16.7,17.9,30.6,17.9c13.9,0,27.6-15.4,34.9-15.4
		s12.6,7.6,12.6,7.6S224.4,8.5,216.3,8.5z"/>
	<path class="st0" d="M181.7,36.6c-9.4-0.2-22.7-18.2-33.6-17.9S124.5,29,118.7,29c-5.8,0-8.6-2.5-8.6-2.5s0.7,7.3,7.6,7.3
		c7.3,0,19.1-10.3,30.3-10.1c15.7,0.3,20.2,18,33.9,17.7c13.4-0.3,24.3-15.2,24.3-15.2S191.5,36.8,181.7,36.6z"/>
</g>
</svg>
