<?xml version="1.0" encoding="utf-8"?>
<!-- Generator: Adobe Illustrator 19.0.0, SVG Export Plug-In . SVG Version: 6.00 Build 0)  -->
<svg version="1.1" id="Layer_1" xmlns="http://www.w3.org/2000/svg" xmlns:xlink="http://www.w3.org/1999/xlink" x="0px" y="0px"  width="160px" height="160px"
	 viewBox="89.9 -90 160 160" style="enable-background:new 89.9 -90 160 160;" xml:space="preserve">
<style type="text/css">
	.st0{fill:#333333;}
	.st1{fill:#333333;stroke:#333333;}
</style>

<path class="st1" d="M165.8,33.5c0,0,1.2-24.5-2.2-31.5c-3.4-7-9.3-16-9.5-19c-0.2-3.1-0.7-11.7,0-15.3s2.9-12.2,4.9-7
	s-1.5,9.8-1.4,10.7c0.2,0.8-1.5,7.5,3.2,13.2s3.6-3.9,3.6-3.9S161.9-31.1,166-32c4-0.8,3.2,7.3,2.7,9.5c-0.5,2.2,1.1,10.9,0.4,11.5
	s0.6,8.8,0.1,9.7s0.8,13.4,2.5,8.3c1.7-5.1,2.5-7.3,4.8-9s5.7-1.2,2.8,4.8c-2.9,6-6.1,5.7-7.3,14.9c-1.2,9.2-0.2,18.3-0.2,18.3
	S166.6,37,165.8,33.5L165.8,33.5z"/>
<path class="st1" d="M153.6,35.3c0,0,1-3.2-4.8-11.5s-11.2-5.6-12.4-11.7c-1.2-6.1,1-6.8,2.5-4.4c1.5,2.4,2.6,3.9,5.9,4.9
	c3.3,1,5,4.4,3.1-3.4s-2.7-8.6-5.1-11.3c-2.4-2.7-14.3-10.4-23.9-11.2c-9.7-0.8-10.7-3.9-9.8-5.6c0.8-1.7,12.4,0,12.4,0l3.9,0.3
	c0,0,9.8,5.4,1.9-6.4s-10.4-15.4-7.5-15.6c2.9-0.2,4.6-0.7,8.3,5.3s8.1,17.5,8.1,17.5s1.4,4.2,2.5,3.6c1.2-0.7,0.3-11.5,0.5-12.2
	s-0.8-11.9,0.5-13c1.4-1.1,7.6-12.3,5.6,4s-1.4,21.4-1.4,21.4s4.6,7,6.3,0.3c1.7-6.6,10-10.9,10-10.9s2.9-1,4.1-3.7s6.8,0.5,3.6,4.2
	c-3.2,3.7-14.4,10.5-14.9,15.8c-0.5,5.3-2.2,13.2,0.2,13.7c2.4,0.5,0.7-2,4.9-4.1c4.2-2,7.8-9.8,9.2-5.7c1.4,4-3.1,6.8-3.1,6.8
	s-4.9,1-6.6,5.9c-1.7,4.9-1.9,5.8-1.5,8.8c0.3,3.1,1.9,6.3,4.2,3.7s5.6-2.5,3.1,1.7c-2.5,4.2-4.1,9.5-4.1,11.4
	C159.4,35.7,153.7,37.3,153.6,35.3L153.6,35.3z"/>
<path class="st1" d="M192.8,34.2c0,0-1.4-3.1,3.3-12s10.5-6.9,10.9-13.1c0.5-6.2-1.8-6.6-3.1-4.1s-2.1,4.2-5.3,5.6
	c-3.1,1.4-4.4,5-3.5-3c0.9-8,1.7-8.9,3.7-11.9s12.9-12,22.4-14c9.5-2,10.2-5.1,9.1-6.7s-12.3,1.5-12.3,1.5l-3.8,0.8
	c0,0-9.1,6.6-2.6-6.2c6.5-12.7,8.4-16.6,5.6-16.4s-4.6-0.1-7.6,6.2c-3,6.3-6,18.3-6,18.3s-0.8,4.4-2.1,3.8c-1.3-0.5-1.7-11.4-2-12.1
	c-0.2-0.7-0.6-11.9-2-12.8s-9-11.3-5.1,4.6c4,15.9,3.9,21.1,3.9,21.1s-3.7,7.5-6.2,1.1s-11.2-9.6-11.2-9.6s-3-0.7-4.5-3.2
	s-6.7,1.3-3,4.6c3.6,3.3,15.6,8.7,16.7,13.9c1.1,5.2,3.8,12.9,1.5,13.7c-2.3,0.8-0.9-1.9-5.4-3.5s-8.9-8.8-9.8-4.6s3.8,6.4,3.8,6.4
	s5,0.4,7.3,5.1s2.5,5.5,2.6,8.6c0,3.1-1.1,6.5-3.8,4.2c-2.7-2.2-5.9-1.9-2.8,2c3,3.9,5.2,9,5.4,10.8C187.1,35.3,193,36.2,192.8,34.2
	L192.8,34.2z"/>
<path class="st1" d="M177.9,34.7c0,0-1-11.8,3.3-13.5c4.3-1.8,11.4-9.4,10.8-13.2s-2.4-2.2-3.6-2.2s-4.2,9.4-5.9,9.5
	s-4.3-4.6-1-11.4c3.3-6.7,6.8-8.8,8.3-13.4s-1.7-1.5,2.7-11.8c4.4-10.3,7.8-23,3.3-19.7c-4.5,3.3-4.3,11.1-4.3,11.1l-1.5-0.5
	c0,0-2.1-5.1-1.2-7.1c0.9-2,2.2-9.4,2.2-9.4s-1-6.5-2.8-3c-1.8,3.6-1.4,8.4-1.8,10.2c-0.4,1.8-1.3,8.6-0.6,9.9
	c0.6,1.3,2.5,3.2,2.8,4.3s-0.2,5.6-1.6,10s-5.4-4.2-5.9-4.4s-3.2-6.4-4.2-9.7c-0.9-3.3,1.4-11.9,1.4-13.1c0-1.2-0.2-12-2.9-5.1
	c-2.8,6.9-1.7,12.5-1.7,13.1c0,0.6,0.4,10.3,0.4,10.3s1.2,5.6,3.7,8.9s6,1.7,2.2,12.7c-3.7,11-9.2,14.6-8,20.1
	c1.1,5.6-1.6,5.7,0.4,8.9c2,3.2,1.5,7.7,2,8.6C174.6,35.8,177.9,34.7,177.9,34.7L177.9,34.7z"/>
</svg>
