<?xml version="1.0" encoding="utf-8"?>
<!-- Generator: Adobe Illustrator 19.0.0, SVG Export Plug-In . SVG Version: 6.00 Build 0)  -->
<svg version="1.1" id="Layer_1" xmlns="http://www.w3.org/2000/svg" xmlns:xlink="http://www.w3.org/1999/xlink" x="0px" y="0px"  width="160px" height="160px"
	 viewBox="89.9 -90 160 160" style="enable-background:new 89.9 -90 160 160;" xml:space="preserve">
<style type="text/css">
	.st0{fill:#333333;}
</style>
<path class="st0" d="M134.9,70h30V55h-30V70z M134.9-75h30v-15h-30V-75z M109.9-90c-11.1,0-20,9-20,20v15.1h15V-65
	c0-5.5,4.5-10,10-10h9.9l-0.1-15H109.9z M104.9,45V34.9h-15V50c0,11.1,9,20,20,20h14.9l0.1-15h-10C109.3,55,104.9,50.5,104.9,45z
	 M104.9-45h-15v30h15V-45z M174.9,70h30V55h-30V70z M229.9-90H215l-0.1,15h9.9c5.5,0,10,4.5,10,10v10h15v-15
	C249.9-81.1,240.9-90,229.9-90z M234.9-15h15v-30h-15V-15L234.9-15z M234.9,45c0,5.5-4.5,10-10,10H215l0.1,15h14.8
	c11.1,0,20-9,20-20V34.9h-15L234.9,45L234.9,45z M174.9-75h30v-15h-30V-75z M234.9,25h15V-5h-15V25L234.9,25z M104.9-5h-15v30h15V-5
	z"/>
<path class="st0" d="M205.4,13.7c-7.3,0-16,4-29.7,4c-13.7,0-18.3-4.8-29.7-4.8s-16,2.3-25.2,2.4s-13.7-2.4-13.7-2.4s0.7,2.9,5,4.2
	c5.8,1.8,20.8-2.6,34.1-2.6s15.1,5.6,27.7,5.6c12.6,0,24.9-4.8,31.6-4.8c6.6,0,11.4,2.4,11.4,2.4S212.8,13.7,205.4,13.7z"/>
<path class="st0" d="M186.7,31.9c-10.4-0.1-25.3-7.4-37.4-7.3c-12.1,0.1-26.1,4.2-32.6,4.2c-6.5,0-9.6-1-9.6-1s0.8,3,8.4,3
	c8.2,0,21.3-4.2,33.7-4.1c17.4,0.1,22.5,7.3,37.7,7.2c14.9-0.1,27-6.2,27-6.2S197.6,32,186.7,31.9z"/>
<path class="st0" d="M206.3-53.1l16.4,42c0,0,0,0,0,0.1c2.4,5.1,12.3,34.6,9.5,39.8c-0.3,0.6-1.4,0.5-1.9-0.2L214,6.1
	c-8.5-15.4-77.1-11.2-103.2-9.4c-1.2,0.1-1.9-1.4-0.9-1.8l66.9-27.4c0,0,0.1,0,0.1-0.1C195.7-44.2,202.2-57.1,206.3-53.1z"/>
<path class="st0" d="M186.1,7.9c-7.9-0.1-19.3-7-28.5-6.9s-19.9,4-24.9,4c-4.9,0-7.3-1-7.3-1s0.6,2.8,6.4,2.8c6.2,0,16.2-4,25.7-3.9
	c13.3,0.1,17.2,6.9,28.7,6.8c11.4-0.1,20.6-5.8,20.6-5.8S194.4,8,186.1,7.9z"/>
</svg>
