<?xml version="1.0" encoding="utf-8"?>
<!-- Generator: Adobe Illustrator 19.0.0, SVG Export Plug-In . SVG Version: 6.00 Build 0)  -->
<svg version="1.1" id="Layer_1" xmlns="http://www.w3.org/2000/svg" xmlns:xlink="http://www.w3.org/1999/xlink" x="0px" y="0px"  width="160px" height="160px"
	 viewBox="45 -45 160 160" style="enable-background:new 45 -45 160 160;" xml:space="preserve">
<style type="text/css">
	.st0{fill:#333333;}
	.st1{fill:none;stroke:#333333;stroke-width:6;stroke-miterlimit:10;}
</style>
<path class="st0" d="M89.9,115h30v-15h-30V115z M89.9-30h30v-15h-30V-30z M64.9-45c-11.1,0-20,9-20,20v15.1h15V-20
	c0-5.5,4.5-10,10-10h9.9l-0.1-15H64.9z M59.9,90V79.9h-15V95c0,11.1,9,20,20,20h14.9l0.1-15h-10C64.3,100,59.9,95.5,59.9,90z
	 M59.9,0h-15v30h15V0z M129.9,115h30v-15h-30V115z M184.9-45H170l-0.1,15h9.9c5.5,0,10,4.5,10,10v10h15v-15
	C204.9-36.1,195.9-45,184.9-45z M189.9,30h15V0h-15V30L189.9,30z M189.9,90c0,5.5-4.5,10-10,10H170l0.1,15h14.8c11.1,0,20-9,20-20
	V79.9h-15V90L189.9,90z M129.9-30h30v-15h-30V-30z M189.9,70h15V40h-15V70L189.9,70z M59.9,40h-15v30h15V40z"/>
<path class="st0" d="M132.4,9.2c-1.9-1.7-2.9-3.2-2.8-4.3c0-1.5,2.5-3.5,4.6-5.2c2.1-1.7,4.3-3.5,5.8-5.8c1.2-1.9,1.6-4.2,1.1-6.6
	c-0.9-4.2-4.4-8.4-7.8-11.6H108c6.5,3.4,12.9,8.3,13.4,10.9c0,0.2,0,0.2-0.2,0.5c-2,2.4-4.8,4.1-7.5,5.8c-4.1,2.5-7.9,4.9-8.9,9.5
	c-0.7,3.1,0.2,6.7,2.7,11c3.4,5.7,3.1,12.1-0.9,19.1c-3.1,5.6-7.5,9.5-7.5,9.5c-1.1,0.9-1.2,2.6-0.4,3.8c0.5,0.7,1.2,1,1.9,1
	c0.5,0,1.1-0.2,1.5-0.6c0.2-0.2,5-4.4,8.6-10.8c2.9-5.1,4.2-10,4-14.8c0.8,0.4,1.8,0.8,3,0.8c2.2,0,3.6-1.1,4.5-2
	c0.9,0.9,2.4,2,4.6,2c0.6,0,1.1-0.5,1.1-1.2c0-0.7-0.5-1.2-1.1-1.2c-2.5,0-3.6-2-3.7-2.1c-0.2-0.4-0.6-0.7-1-0.7
	c-0.4,0-0.8,0.2-1,0.7c-0.1,0.1-1.1,2.1-3.5,2.1c-1,0-2-0.4-2.8-1.1c-0.2-0.2-0.4-0.4-0.5-0.5c-0.5-2.4-1.4-4.8-2.7-7
	c-1.7-2.9-2.4-5.1-2-6.7c0.5-2.3,3.3-4,6.6-6.1c2.9-1.8,6.1-3.8,8.6-6.8c0.2-0.3,0.5-0.6,0.6-0.9c0.5,0.3,1.1,0.5,1.9,0.5
	c1.4,0,2.3-0.7,2.9-1.3c0.6,0.6,1.5,1.3,3,1.3c0.4,0,0.7-0.3,0.7-0.8c0-0.4-0.3-0.8-0.7-0.8c-1.6,0-2.3-1.3-2.3-1.3
	c-0.1-0.3-0.4-0.4-0.6-0.4c-0.3,0-0.5,0.2-0.6,0.4c0,0.1-0.7,1.3-2.3,1.3c-0.4,0-0.9-0.1-1.3-0.3c0.3-0.9,0.3-1.9,0.1-2.9
	c-0.2-1.2-0.8-4.6-8.3-9.8h7.1c4.4,3.2,10.4,8.6,11.2,12.7c0.2,0.9,0.1,1.7-0.4,2.4c-0.9,1.5-2.8,3-4.6,4.5
	c-2.9,2.3-5.9,4.8-6.5,8.3c-0.1-0.1-0.2-0.1-0.3-0.2c-0.5-0.4-0.7-0.8-0.7-0.8c-0.1-0.2-0.4-0.4-0.6-0.4c-0.3,0-0.5,0.1-0.7,0.3
	c0,0-1.2,1.6-2.7,1.6c-1.5,0-2.8-1.4-2.8-1.5c-0.1-0.2-0.4-0.3-0.6-0.3c0,0,0,0,0,0c-0.2,0-0.4,0.1-0.6,0.3
	c-0.6,0.7-1.2,1.1-1.8,1.3c-0.5,0.2-0.8,0.2-0.9,0.1c0,0-0.1,0-0.1,0c-0.4,0-0.8,0.4-0.8,0.9c0,0.5,0.4,0.9,0.8,0.9c0,0,0,0,0,0
	c0,0,0.1,0,0.2,0c0.3,0,0.7,0,1.3-0.2c0.6-0.2,1.3-0.6,1.9-1.2c0.7,0.6,1.9,1.4,3.4,1.4c1.4,0,2.6-0.9,3.3-1.6
	c0.4,0.4,0.9,0.9,1.7,1.2c0.2,2.6,1.7,5.1,4.5,7.8c8.4,7.8,12.8,15.8,14.9,21.2c0.7,1.7,1.2,3.3,1.6,4.6c-2.3-0.3-3.4-2.2-3.4-2.3
	c-0.2-0.5-0.6-0.8-1.1-0.8c-0.5,0-0.9,0.3-1.1,0.7c-0.1,0.2-1.3,2.4-4,2.4c-1.2,0-2.3-0.4-3.2-1.2c-0.7-0.6-1.1-1.2-1.2-1.3
	c-0.2-0.4-0.6-0.6-1-0.6c-0.4,0-0.8,0.2-1,0.5c0,0-1.9,2.6-4.3,2.6c-2.4,0-4.4-2.1-4.5-2.2c-0.2-0.3-0.6-0.3-0.9-0.3c0,0,0,0,0,0
	c-0.3,0-0.7,0.1-0.9,0.3c-0.9,1-1.9,1.7-2.8,2c-0.7,0.3-1.2,0.2-1.5,0.2c-0.1,0-0.1,0-0.1,0c-0.7,0-1.3,0.6-1.3,1.4
	c0,0.8,0.6,1.4,1.3,1.4c0,0,0,0,0.1,0c0.1,0,0.2,0,0.3,0c0.4,0,1.2,0,2.1-0.4c1-0.4,2-1,3-1.9c1.1,0.9,3,2.3,5.4,2.3
	c2.3,0,4.1-1.4,5.2-2.5c1,1.1,2.9,2.5,5.5,2.5c2.5,0,4.2-1.2,5.1-2.3c1,1.1,2.7,2.3,5.3,2.3c0.3,1.5,0.4,2.4,0.4,2.4
	c0.1,1.4,1.2,2.5,2.4,2.5c0.1,0,0.1,0,0.2,0c1.3-0.1,2.3-1.4,2.2-2.9C151.8,43.2,150.2,25.7,132.4,9.2z"/>
<path id="XMLID_18_" class="st1" d="M181.6,59.9c-2.9-2.3-7.5-5.3-13.5-5.5c-12.1-0.6-16.2,10.8-27.7,11
	c-12.3,0.2-14.8-12.4-27.2-12.3c-11.6,0.1-15.2,11.2-27.5,11.3c-7.3,0.1-13.4-3.7-17.4-6.9"/>
<path id="XMLID_17_" class="st1" d="M181.6,80.8c-2.9-2.3-7.5-5.3-13.5-5.5c-12.1-0.6-16.2,10.8-27.7,11
	c-12.3,0.2-14.8-12.4-27.2-12.3c-11.6,0.1-15.2,11.1-27.5,11.3c-7.3,0.1-13.4-3.7-17.4-6.9"/>
</svg>
