<?xml version="1.0" encoding="utf-8"?>
<!-- Generator: Adobe Illustrator 19.0.0, SVG Export Plug-In . SVG Version: 6.00 Build 0)  -->
<svg version="1.1" id="Layer_1" xmlns="http://www.w3.org/2000/svg" xmlns:xlink="http://www.w3.org/1999/xlink" x="0px" y="0px"
	 viewBox="42.2 -34.3 156.2 156.2" style="enable-background:new 42.2 -34.3 156.2 156.2;" xml:space="preserve">
<style type="text/css">
	.st0{fill:none;stroke:#FFFFFF;stroke-width:7;stroke-miterlimit:10;}
	.st1{fill:#FFFFFF;}
	.st2{fill:none;stroke:#FFFFFF;stroke-width:6;stroke-miterlimit:10;}
</style>
<path class="st0" d="M177.8,118.4H62.7c-9.4,0-17-7.6-17-17V-13.8c0-9.4,7.6-17,17-17h115.2c9.4,0,17,7.6,17,17v115.2
	C194.8,110.8,187.2,118.4,177.8,118.4z"/>
<path class="st1" d="M127.4,20.6c-1.9-1.7-2.9-3.2-2.8-4.3c0-1.5,2.5-3.5,4.6-5.2s4.3-3.5,5.8-5.8c1.2-1.9,1.6-4.2,1.1-6.6
	c-0.9-4.2-4.4-8.4-7.8-11.6H103c6.5,3.4,12.9,8.3,13.4,10.9c0,0.2,0,0.2-0.2,0.5c-2,2.4-4.8,4.1-7.5,5.8c-4.1,2.5-7.9,4.9-8.9,9.5
	c-0.7,3.1,0.2,6.7,2.7,11c3.4,5.7,3.1,12.1-0.9,19.1c-3.1,5.6-7.5,9.5-7.5,9.5c-1.1,0.9-1.2,2.6-0.4,3.8c0.5,0.7,1.2,1,1.9,1
	c0.5,0,1.1-0.2,1.5-0.6c0.2-0.2,5-4.4,8.6-10.8c2.9-5.1,4.2-10,4-14.8c0.8,0.4,1.8,0.8,3,0.8c2.2,0,3.6-1.1,4.5-2
	c0.9,0.9,2.4,2,4.6,2c0.6,0,1.1-0.5,1.1-1.2s-0.5-1.2-1.1-1.2c-2.5,0-3.6-2-3.7-2.1c-0.2-0.4-0.6-0.7-1-0.7s-0.8,0.2-1,0.7
	c-0.1,0.1-1.1,2.1-3.5,2.1c-1,0-2-0.4-2.8-1.1c-0.2-0.2-0.4-0.4-0.5-0.5c-0.5-2.4-1.4-4.8-2.7-7c-1.7-2.9-2.4-5.1-2-6.7
	c0.5-2.3,3.3-4,6.6-6.1c2.9-1.8,6.1-3.8,8.6-6.8c0.2-0.3,0.5-0.6,0.6-0.9c0.5,0.3,1.1,0.5,1.9,0.5c1.4,0,2.3-0.7,2.9-1.3
	c0.6,0.6,1.5,1.3,3,1.3c0.4,0,0.7-0.3,0.7-0.8c0-0.4-0.3-0.8-0.7-0.8c-1.6,0-2.3-1.3-2.3-1.3c-0.1-0.3-0.4-0.4-0.6-0.4
	c-0.3,0-0.5,0.2-0.6,0.4c0,0.1-0.7,1.3-2.3,1.3c-0.4,0-0.9-0.1-1.3-0.3c0.3-0.9,0.3-1.9,0.1-2.9c-0.2-1.2-0.8-4.6-8.3-9.8h7.1
	c4.4,3.2,10.4,8.6,11.2,12.7c0.2,0.9,0.1,1.7-0.4,2.4c-0.9,1.5-2.8,3-4.6,4.5c-2.9,2.3-5.9,4.8-6.5,8.3c-0.1-0.1-0.2-0.1-0.3-0.2
	c-0.5-0.4-0.7-0.8-0.7-0.8c-0.1-0.2-0.4-0.4-0.6-0.4c-0.3,0-0.5,0.1-0.7,0.3c0,0-1.2,1.6-2.7,1.6s-2.8-1.4-2.8-1.5
	c-0.1-0.2-0.4-0.3-0.6-0.3l0,0c-0.2,0-0.4,0.1-0.6,0.3c-0.6,0.7-1.2,1.1-1.8,1.3c-0.5,0.2-0.8,0.2-0.9,0.1h-0.1
	c-0.4,0-0.8,0.4-0.8,0.9s0.4,0.9,0.8,0.9l0,0c0,0,0.1,0,0.2,0c0.3,0,0.7,0,1.3-0.2c0.6-0.2,1.3-0.6,1.9-1.2c0.7,0.6,1.9,1.4,3.4,1.4
	c1.4,0,2.6-0.9,3.3-1.6c0.4,0.4,0.9,0.9,1.7,1.2c0.2,2.6,1.7,5.1,4.5,7.8c8.4,7.8,12.8,15.8,14.9,21.2c0.7,1.7,1.2,3.3,1.6,4.6
	c-2.3-0.3-3.4-2.2-3.4-2.3c-0.2-0.5-0.6-0.8-1.1-0.8s-0.9,0.3-1.1,0.7c-0.1,0.2-1.3,2.4-4,2.4c-1.2,0-2.3-0.4-3.2-1.2
	c-0.7-0.6-1.1-1.2-1.2-1.3c-0.2-0.4-0.6-0.6-1-0.6s-0.8,0.2-1,0.5c0,0-1.9,2.6-4.3,2.6s-4.4-2.1-4.5-2.2c-0.2-0.3-0.6-0.3-0.9-0.3
	l0,0c-0.3,0-0.7,0.1-0.9,0.3c-0.9,1-1.9,1.7-2.8,2c-0.7,0.3-1.2,0.2-1.5,0.2c-0.1,0-0.1,0-0.1,0c-0.7,0-1.3,0.6-1.3,1.4
	c0,0.8,0.6,1.4,1.3,1.4c0,0,0,0,0.1,0s0.2,0,0.3,0c0.4,0,1.2,0,2.1-0.4c1-0.4,2-1,3-1.9c1.1,0.9,3,2.3,5.4,2.3
	c2.3,0,4.1-1.4,5.2-2.5c1,1.1,2.9,2.5,5.5,2.5c2.5,0,4.2-1.2,5.1-2.3c1,1.1,2.7,2.3,5.3,2.3c0.3,1.5,0.4,2.4,0.4,2.4
	c0.1,1.4,1.2,2.5,2.4,2.5c0.1,0,0.1,0,0.2,0c1.3-0.1,2.3-1.4,2.2-2.9C146.8,54.6,145.2,37.1,127.4,20.6z"/>
<path id="XMLID_18_" class="st2" d="M176.6,71.3c-2.9-2.3-7.5-5.3-13.5-5.5c-12.1-0.6-16.2,10.8-27.7,11
	c-12.3,0.2-14.8-12.4-27.2-12.3C96.6,64.6,93,75.7,80.7,75.8c-7.3,0.1-13.4-3.7-17.4-6.9"/>
<path id="XMLID_17_" class="st2" d="M176.6,92.2c-2.9-2.3-7.5-5.3-13.5-5.5c-12.1-0.6-16.2,10.8-27.7,11
	c-12.3,0.2-14.8-12.4-27.2-12.3C96.6,85.5,93,96.5,80.7,96.7c-7.3,0.1-13.4-3.7-17.4-6.9"/>
</svg>
