<?xml version="1.0" encoding="utf-8"?>
<!-- Generator: Adobe Illustrator 19.0.0, SVG Export Plug-In . SVG Version: 6.00 Build 0)  -->
<svg version="1.1" id="Layer_1" xmlns="http://www.w3.org/2000/svg" xmlns:xlink="http://www.w3.org/1999/xlink" x="0px" y="0px"
	 viewBox="70 -70 300 300" style="enable-background:new 70 -70 300 300;" xml:space="preserve">
<style type="text/css">
	.st0{fill:none;stroke:#00CCFF;stroke-width:0.1;stroke-miterlimit:10;}
	.st1{fill:none;stroke:#333333;stroke-width:0.1;stroke-miterlimit:10;}
	.st2{font-family:'ArialMT';}
	.st3{font-size:20px;}
	.st4{font-size:15px;}
	.st5{font-size:10px;}
	.st6{fill:#00CCFF;}
	.st7{fill:#333333;}
</style>
<g id="XMLID_2_">
	<g>
		<path class="st0" d="M220-45c69,0,125,56,125,125s-56,125-125,125S95,149,95,80S151-45,220-45z"/>
	</g>
</g>
<g>
	<g>
		<g>
			<line class="st1" x1="172.3" y1="195.5" x2="177.5" y2="182.5"/>
			<line class="st1" x1="262.5" y1="-22.5" x2="267.8" y2="-35.5"/>
		</g>
	</g>
	<g>
		<g>
			<line class="st1" x1="131.5" y1="168.5" x2="141.8" y2="158.3"/>
			<line class="st1" x1="298.3" y1="1.8" x2="308.5" y2="-8.5"/>
		</g>
	</g>
	<g>
		<g>
			<line class="st1" x1="104.5" y1="127.8" x2="117.5" y2="122.5"/>
			<line class="st1" x1="322.5" y1="37.5" x2="335.5" y2="32.3"/>
		</g>
	</g>
	<g>
		<g>
			<line class="st1" x1="95" y1="80" x2="109.3" y2="80"/>
			<line class="st1" x1="330.8" y1="80" x2="345" y2="80"/>
		</g>
	</g>
	<g>
		<g>
			<line class="st1" x1="104.5" y1="32.3" x2="117.5" y2="37.5"/>
			<line class="st1" x1="322.5" y1="122.5" x2="335.5" y2="127.8"/>
		</g>
	</g>
	<g>
		<g>
			<line class="st1" x1="131.5" y1="-8.5" x2="141.8" y2="1.8"/>
			<line class="st1" x1="298.3" y1="158.3" x2="308.5" y2="168.5"/>
		</g>
	</g>
	<g>
		<g>
			<line class="st1" x1="172.3" y1="-35.5" x2="177.5" y2="-22.5"/>
			<line class="st1" x1="262.5" y1="182.5" x2="267.8" y2="195.5"/>
		</g>
	</g>
	<g>
		<g>
			<line class="st1" x1="220" y1="-45" x2="220" y2="-30.8"/>
			<line class="st1" x1="220" y1="190.8" x2="220" y2="205"/>
		</g>
	</g>
</g>
<g>
	<g>
		<g>
			<line class="st1" x1="217.8" y1="205" x2="218" y2="198"/>
			<line class="st1" x1="222" y1="-38" x2="222.3" y2="-45"/>
		</g>
	</g>
	<g>
		<g>
			<line class="st1" x1="215.8" y1="205" x2="216" y2="197.8"/>
			<line class="st1" x1="224" y1="-37.8" x2="224.3" y2="-45"/>
		</g>
	</g>
	<g>
		<g>
			<line class="st1" x1="213.5" y1="204.8" x2="213.8" y2="197.8"/>
			<line class="st1" x1="226.3" y1="-37.8" x2="226.5" y2="-44.8"/>
		</g>
	</g>
	<g>
		<g>
			<line class="st1" x1="211.3" y1="204.8" x2="211.8" y2="197.8"/>
			<line class="st1" x1="228.3" y1="-37.8" x2="228.8" y2="-44.8"/>
		</g>
	</g>
	<g>
		<g>
			<line class="st1" x1="209" y1="204.5" x2="209.8" y2="197.5"/>
			<line class="st1" x1="230.3" y1="-37.5" x2="231" y2="-44.5"/>
		</g>
	</g>
	<g>
		<g>
			<line class="st1" x1="207" y1="204.3" x2="207.8" y2="197.3"/>
			<line class="st1" x1="232.3" y1="-37.3" x2="233" y2="-44.3"/>
		</g>
	</g>
	<g>
		<g>
			<line class="st1" x1="204.8" y1="204" x2="205.8" y2="197"/>
			<line class="st1" x1="234.3" y1="-37" x2="235.3" y2="-44"/>
		</g>
	</g>
	<g>
		<g>
			<line class="st1" x1="202.5" y1="203.8" x2="203.5" y2="196.8"/>
			<line class="st1" x1="236.5" y1="-36.8" x2="237.5" y2="-43.8"/>
		</g>
	</g>
	<g>
		<g>
			<line class="st1" x1="200.5" y1="203.5" x2="201.5" y2="196.5"/>
			<line class="st1" x1="238.5" y1="-36.5" x2="239.5" y2="-43.5"/>
		</g>
	</g>
	<g>
		<g>
			<line class="st1" x1="198.3" y1="203" x2="199.5" y2="196.3"/>
			<line class="st1" x1="240.5" y1="-36.3" x2="241.8" y2="-43"/>
		</g>
	</g>
	<g>
		<g>
			<line class="st1" x1="196.3" y1="202.8" x2="197.5" y2="195.8"/>
			<line class="st1" x1="242.5" y1="-35.8" x2="243.8" y2="-42.8"/>
		</g>
	</g>
	<g>
		<g>
			<line class="st1" x1="194" y1="202.3" x2="195.5" y2="195.3"/>
			<line class="st1" x1="244.5" y1="-35.3" x2="246" y2="-42.3"/>
		</g>
	</g>
	<g>
		<g>
			<line class="st1" x1="192" y1="201.8" x2="193.5" y2="195"/>
			<line class="st1" x1="246.5" y1="-35" x2="248" y2="-41.8"/>
		</g>
	</g>
	<g>
		<g>
			<line class="st1" x1="189.8" y1="201.3" x2="191.5" y2="194.5"/>
			<line class="st1" x1="248.5" y1="-34.5" x2="250.3" y2="-41.3"/>
		</g>
	</g>
	<g>
		<g>
			<line class="st1" x1="187.8" y1="200.8" x2="189.5" y2="194"/>
			<line class="st1" x1="250.5" y1="-34" x2="252.3" y2="-40.8"/>
		</g>
	</g>
	<g>
		<g>
			<line class="st1" x1="185.5" y1="200.3" x2="187.5" y2="193.3"/>
			<line class="st1" x1="252.5" y1="-33.3" x2="254.5" y2="-40.3"/>
		</g>
	</g>
	<g>
		<g>
			<line class="st1" x1="183.5" y1="199.5" x2="185.5" y2="192.8"/>
			<line class="st1" x1="254.5" y1="-32.8" x2="256.5" y2="-39.5"/>
		</g>
	</g>
	<g>
		<g>
			<line class="st1" x1="181.3" y1="199" x2="183.5" y2="192.3"/>
			<line class="st1" x1="256.5" y1="-32.3" x2="258.8" y2="-39"/>
		</g>
	</g>
	<g>
		<g>
			<line class="st1" x1="179.3" y1="198.3" x2="181.5" y2="191.5"/>
			<line class="st1" x1="258.5" y1="-31.5" x2="260.8" y2="-38.3"/>
		</g>
	</g>
	<g>
		<g>
			<line class="st1" x1="177.3" y1="197.5" x2="179.8" y2="190.8"/>
			<line class="st1" x1="260.3" y1="-30.8" x2="262.8" y2="-37.5"/>
		</g>
	</g>
	<g>
		<g>
			<line class="st1" x1="175.3" y1="196.8" x2="177.8" y2="190"/>
			<line class="st1" x1="262.3" y1="-30" x2="264.8" y2="-36.8"/>
		</g>
	</g>
	<g>
		<g>
			<line class="st1" x1="173.3" y1="196" x2="175.8" y2="189.3"/>
			<line class="st1" x1="264.3" y1="-29.3" x2="266.8" y2="-36"/>
		</g>
	</g>
	<g>
		<g>
			<line class="st1" x1="171.3" y1="195" x2="174" y2="188.5"/>
			<line class="st1" x1="266" y1="-28.5" x2="268.8" y2="-35"/>
		</g>
	</g>
	<g>
		<g>
			<line class="st1" x1="169.3" y1="194.3" x2="172" y2="187.8"/>
			<line class="st1" x1="268" y1="-27.8" x2="270.8" y2="-34.3"/>
		</g>
	</g>
	<g>
		<g>
			<line class="st1" x1="167.3" y1="193.3" x2="170.3" y2="186.8"/>
			<line class="st1" x1="269.8" y1="-26.8" x2="272.8" y2="-33.3"/>
		</g>
	</g>
	<g>
		<g>
			<line class="st1" x1="165.3" y1="192.3" x2="168.3" y2="186"/>
			<line class="st1" x1="271.8" y1="-26" x2="274.8" y2="-32.3"/>
		</g>
	</g>
	<g>
		<g>
			<line class="st1" x1="163.3" y1="191.5" x2="166.5" y2="185"/>
			<line class="st1" x1="273.5" y1="-25" x2="276.8" y2="-31.5"/>
		</g>
	</g>
	<g>
		<g>
			<line class="st1" x1="161.3" y1="190.3" x2="164.8" y2="184"/>
			<line class="st1" x1="275.3" y1="-24" x2="278.8" y2="-30.3"/>
		</g>
	</g>
	<g>
		<g>
			<line class="st1" x1="159.5" y1="189.3" x2="162.8" y2="183.3"/>
			<line class="st1" x1="277.3" y1="-23.2" x2="280.5" y2="-29.3"/>
		</g>
	</g>
	<g>
		<g>
			<line class="st1" x1="157.5" y1="188.3" x2="161" y2="182"/>
			<line class="st1" x1="279" y1="-22" x2="282.5" y2="-28.2"/>
		</g>
	</g>
	<g>
		<g>
			<line class="st1" x1="155.5" y1="187.3" x2="159.3" y2="181"/>
			<line class="st1" x1="280.8" y1="-21" x2="284.5" y2="-27.3"/>
		</g>
	</g>
	<g>
		<g>
			<line class="st1" x1="153.8" y1="186" x2="157.5" y2="180"/>
			<line class="st1" x1="282.5" y1="-20" x2="286.3" y2="-26"/>
		</g>
	</g>
	<g>
		<g>
			<line class="st1" x1="152" y1="184.8" x2="155.8" y2="179"/>
			<line class="st1" x1="284.3" y1="-19" x2="288" y2="-24.8"/>
		</g>
	</g>
	<g>
		<g>
			<line class="st1" x1="150" y1="183.8" x2="154" y2="177.8"/>
			<line class="st1" x1="286" y1="-17.8" x2="290" y2="-23.8"/>
		</g>
	</g>
	<g>
		<g>
			<line class="st1" x1="148.3" y1="182.5" x2="152.3" y2="176.5"/>
			<line class="st1" x1="287.8" y1="-16.5" x2="291.8" y2="-22.5"/>
		</g>
	</g>
	<g>
		<g>
			<line class="st1" x1="146.5" y1="181.3" x2="150.8" y2="175.5"/>
			<line class="st1" x1="289.3" y1="-15.5" x2="293.5" y2="-21.3"/>
		</g>
	</g>
	<g>
		<g>
			<line class="st1" x1="144.8" y1="179.8" x2="149" y2="174.3"/>
			<line class="st1" x1="291" y1="-14.3" x2="295.3" y2="-19.8"/>
		</g>
	</g>
	<g>
		<g>
			<line class="st1" x1="143" y1="178.5" x2="147.5" y2="173"/>
			<line class="st1" x1="292.5" y1="-13" x2="297" y2="-18.5"/>
		</g>
	</g>
	<g>
		<g>
			<line class="st1" x1="141.3" y1="177.3" x2="145.8" y2="171.8"/>
			<line class="st1" x1="294.3" y1="-11.8" x2="298.8" y2="-17.3"/>
		</g>
	</g>
	<g>
		<g>
			<line class="st1" x1="139.8" y1="175.8" x2="144.3" y2="170.3"/>
			<line class="st1" x1="295.8" y1="-10.3" x2="300.3" y2="-15.7"/>
		</g>
	</g>
	<g>
		<g>
			<line class="st1" x1="138" y1="174.3" x2="142.8" y2="169"/>
			<line class="st1" x1="297.3" y1="-9" x2="302" y2="-14.3"/>
		</g>
	</g>
	<g>
		<g>
			<line class="st1" x1="136.3" y1="173" x2="141" y2="167.8"/>
			<line class="st1" x1="299" y1="-7.8" x2="303.8" y2="-13"/>
		</g>
	</g>
	<g>
		<g>
			<line class="st1" x1="134.8" y1="171.5" x2="139.5" y2="166.3"/>
			<line class="st1" x1="300.5" y1="-6.3" x2="305.3" y2="-11.5"/>
		</g>
	</g>
	<g>
		<g>
			<line class="st1" x1="133.3" y1="170" x2="138" y2="164.8"/>
			<line class="st1" x1="302" y1="-4.7" x2="306.8" y2="-10"/>
		</g>
	</g>
	<g>
		<g>
			<line class="st1" x1="131.5" y1="168.5" x2="136.5" y2="163.5"/>
			<line class="st1" x1="303.5" y1="-3.5" x2="308.5" y2="-8.5"/>
		</g>
	</g>
	<g>
		<g>
			<line class="st1" x1="130" y1="166.8" x2="135.3" y2="162"/>
			<line class="st1" x1="304.8" y1="-2" x2="310" y2="-6.8"/>
		</g>
	</g>
	<g>
		<g>
			<line class="st1" x1="128.5" y1="165.3" x2="133.8" y2="160.5"/>
			<line class="st1" x1="306.3" y1="-0.5" x2="311.5" y2="-5.3"/>
		</g>
	</g>
	<g>
		<g>
			<line class="st1" x1="127" y1="163.8" x2="132.3" y2="159"/>
			<line class="st1" x1="307.8" y1="1" x2="313" y2="-3.8"/>
		</g>
	</g>
	<g>
		<g>
			<line class="st1" x1="125.8" y1="162" x2="131" y2="157.3"/>
			<line class="st1" x1="309" y1="2.8" x2="314.3" y2="-2"/>
		</g>
	</g>
	<g>
		<g>
			<line class="st1" x1="124.3" y1="160.3" x2="129.8" y2="155.8"/>
			<line class="st1" x1="310.3" y1="4.3" x2="315.8" y2="-0.3"/>
		</g>
	</g>
	<g>
		<g>
			<line class="st1" x1="122.8" y1="158.8" x2="128.3" y2="154.3"/>
			<line class="st1" x1="311.8" y1="5.7" x2="317.3" y2="1.3"/>
		</g>
	</g>
	<g>
		<g>
			<line class="st1" x1="121.5" y1="157" x2="127" y2="152.5"/>
			<line class="st1" x1="313" y1="7.5" x2="318.5" y2="3"/>
		</g>
	</g>
	<g>
		<g>
			<line class="st1" x1="120.3" y1="155.3" x2="125.8" y2="151"/>
			<line class="st1" x1="314.3" y1="9" x2="319.8" y2="4.7"/>
		</g>
	</g>
	<g>
		<g>
			<line class="st1" x1="118.8" y1="153.5" x2="124.5" y2="149.3"/>
			<line class="st1" x1="315.5" y1="10.7" x2="321.3" y2="6.5"/>
		</g>
	</g>
	<g>
		<g>
			<line class="st1" x1="117.5" y1="151.8" x2="123.5" y2="147.8"/>
			<line class="st1" x1="316.5" y1="12.3" x2="322.5" y2="8.2"/>
		</g>
	</g>
	<g>
		<g>
			<line class="st1" x1="116.3" y1="150" x2="122.3" y2="146"/>
			<line class="st1" x1="317.8" y1="14" x2="323.8" y2="10"/>
		</g>
	</g>
	<g>
		<g>
			<line class="st1" x1="115.3" y1="148" x2="121" y2="144.3"/>
			<line class="st1" x1="319" y1="15.7" x2="324.8" y2="12"/>
		</g>
	</g>
	<g>
		<g>
			<line class="st1" x1="114" y1="146.3" x2="120" y2="142.5"/>
			<line class="st1" x1="320" y1="17.5" x2="326" y2="13.8"/>
		</g>
	</g>
	<g>
		<g>
			<line class="st1" x1="112.8" y1="144.5" x2="119" y2="140.8"/>
			<line class="st1" x1="321" y1="19.3" x2="327.3" y2="15.5"/>
		</g>
	</g>
	<g>
		<g>
			<line class="st1" x1="111.8" y1="142.5" x2="118" y2="139"/>
			<line class="st1" x1="322" y1="21" x2="328.3" y2="17.5"/>
		</g>
	</g>
	<g>
		<g>
			<line class="st1" x1="110.8" y1="140.5" x2="116.8" y2="137.3"/>
			<line class="st1" x1="323.3" y1="22.7" x2="329.3" y2="19.5"/>
		</g>
	</g>
	<g>
		<g>
			<line class="st1" x1="109.8" y1="138.8" x2="116" y2="135.3"/>
			<line class="st1" x1="324" y1="24.8" x2="330.3" y2="21.3"/>
		</g>
	</g>
	<g>
		<g>
			<line class="st1" x1="108.5" y1="136.8" x2="115" y2="133.5"/>
			<line class="st1" x1="325" y1="26.5" x2="331.5" y2="23.2"/>
		</g>
	</g>
	<g>
		<g>
			<line class="st1" x1="107.8" y1="134.8" x2="114" y2="131.8"/>
			<line class="st1" x1="326" y1="28.2" x2="332.3" y2="25.2"/>
		</g>
	</g>
	<g>
		<g>
			<line class="st1" x1="106.8" y1="132.8" x2="113.3" y2="129.8"/>
			<line class="st1" x1="326.8" y1="30.2" x2="333.3" y2="27.3"/>
		</g>
	</g>
	<g>
		<g>
			<line class="st1" x1="105.8" y1="130.8" x2="112.3" y2="128"/>
			<line class="st1" x1="327.8" y1="32" x2="334.3" y2="29.3"/>
		</g>
	</g>
	<g>
		<g>
			<line class="st1" x1="105" y1="128.8" x2="111.5" y2="126"/>
			<line class="st1" x1="328.5" y1="34" x2="335" y2="31.3"/>
		</g>
	</g>
	<g>
		<g>
			<line class="st1" x1="104" y1="126.7" x2="110.8" y2="124.2"/>
			<line class="st1" x1="329.3" y1="35.8" x2="336" y2="33.3"/>
		</g>
	</g>
	<g>
		<g>
			<line class="st1" x1="103.3" y1="124.8" x2="110" y2="122.3"/>
			<line class="st1" x1="330" y1="37.7" x2="336.8" y2="35.2"/>
		</g>
	</g>
	<g>
		<g>
			<line class="st1" x1="102.5" y1="122.8" x2="109.3" y2="120.3"/>
			<line class="st1" x1="330.8" y1="39.8" x2="337.5" y2="37.3"/>
		</g>
	</g>
	<g>
		<g>
			<line class="st1" x1="101.8" y1="120.8" x2="108.5" y2="118.5"/>
			<line class="st1" x1="331.5" y1="41.5" x2="338.3" y2="39.3"/>
		</g>
	</g>
	<g>
		<g>
			<line class="st1" x1="101" y1="118.8" x2="107.8" y2="116.5"/>
			<line class="st1" x1="332.3" y1="43.5" x2="339" y2="41.3"/>
		</g>
	</g>
	<g>
		<g>
			<line class="st1" x1="100.5" y1="116.5" x2="107.3" y2="114.5"/>
			<line class="st1" x1="332.8" y1="45.5" x2="339.5" y2="43.5"/>
		</g>
	</g>
	<g>
		<g>
			<line class="st1" x1="99.8" y1="114.5" x2="106.8" y2="112.5"/>
			<line class="st1" x1="333.3" y1="47.5" x2="340.3" y2="45.5"/>
		</g>
	</g>
	<g>
		<g>
			<line class="st1" x1="99.3" y1="112.3" x2="106" y2="110.5"/>
			<line class="st1" x1="334" y1="49.5" x2="340.8" y2="47.7"/>
		</g>
	</g>
	<g>
		<g>
			<line class="st1" x1="98.8" y1="110.3" x2="105.5" y2="108.5"/>
			<line class="st1" x1="334.5" y1="51.5" x2="341.3" y2="49.8"/>
		</g>
	</g>
	<g>
		<g>
			<line class="st1" x1="98.3" y1="108" x2="105" y2="106.5"/>
			<line class="st1" x1="335" y1="53.5" x2="341.8" y2="52"/>
		</g>
	</g>
	<g>
		<g>
			<line class="st1" x1="97.8" y1="106" x2="104.8" y2="104.5"/>
			<line class="st1" x1="335.3" y1="55.5" x2="342.3" y2="54"/>
		</g>
	</g>
	<g>
		<g>
			<line class="st1" x1="97.3" y1="103.8" x2="104.3" y2="102.5"/>
			<line class="st1" x1="335.8" y1="57.5" x2="342.8" y2="56.3"/>
		</g>
	</g>
	<g>
		<g>
			<line class="st1" x1="97" y1="101.7" x2="103.8" y2="100.5"/>
			<line class="st1" x1="336.3" y1="59.5" x2="343" y2="58.3"/>
		</g>
	</g>
	<g>
		<g>
			<line class="st1" x1="96.5" y1="99.5" x2="103.5" y2="98.5"/>
			<line class="st1" x1="336.5" y1="61.5" x2="343.5" y2="60.5"/>
		</g>
	</g>
	<g>
		<g>
			<line class="st1" x1="96.3" y1="97.5" x2="103.3" y2="96.5"/>
			<line class="st1" x1="336.8" y1="63.5" x2="343.8" y2="62.5"/>
		</g>
	</g>
	<g>
		<g>
			<line class="st1" x1="96" y1="95.3" x2="103" y2="94.2"/>
			<line class="st1" x1="337" y1="65.8" x2="344" y2="64.8"/>
		</g>
	</g>
	<g>
		<g>
			<line class="st1" x1="95.8" y1="93" x2="102.8" y2="92.3"/>
			<line class="st1" x1="337.3" y1="67.8" x2="344.3" y2="67"/>
		</g>
	</g>
	<g>
		<g>
			<line class="st1" x1="95.5" y1="91" x2="102.5" y2="90.3"/>
			<line class="st1" x1="337.5" y1="69.8" x2="344.5" y2="69"/>
		</g>
	</g>
	<g>
		<g>
			<line class="st1" x1="95.3" y1="88.8" x2="102.3" y2="88.3"/>
			<line class="st1" x1="337.8" y1="71.8" x2="344.8" y2="71.3"/>
		</g>
	</g>
	<g>
		<g>
			<line class="st1" x1="95.3" y1="86.5" x2="102.3" y2="86.3"/>
			<line class="st1" x1="337.8" y1="73.8" x2="344.8" y2="73.5"/>
		</g>
	</g>
	<g>
		<g>
			<line class="st1" x1="95" y1="84.3" x2="102.3" y2="84"/>
			<line class="st1" x1="337.8" y1="76" x2="345" y2="75.8"/>
		</g>
	</g>
	<g>
		<g>
			<line class="st1" x1="95" y1="82.3" x2="102" y2="82"/>
			<line class="st1" x1="338" y1="78" x2="345" y2="77.8"/>
		</g>
	</g>
	<g>
		<g>
			<line class="st1" x1="95" y1="80" x2="102" y2="80"/>
			<line class="st1" x1="338" y1="80" x2="345" y2="80"/>
		</g>
	</g>
	<g>
		<g>
			<line class="st1" x1="95" y1="77.8" x2="102" y2="78"/>
			<line class="st1" x1="338" y1="82" x2="345" y2="82.3"/>
		</g>
	</g>
	<g>
		<g>
			<line class="st1" x1="95" y1="75.8" x2="102.3" y2="76"/>
			<line class="st1" x1="337.8" y1="84" x2="345" y2="84.3"/>
		</g>
	</g>
	<g>
		<g>
			<line class="st1" x1="95.3" y1="73.5" x2="102.3" y2="73.8"/>
			<line class="st1" x1="337.8" y1="86.3" x2="344.8" y2="86.5"/>
		</g>
	</g>
	<g>
		<g>
			<line class="st1" x1="95.3" y1="71.3" x2="102.3" y2="71.8"/>
			<line class="st1" x1="337.8" y1="88.3" x2="344.8" y2="88.8"/>
		</g>
	</g>
	<g>
		<g>
			<line class="st1" x1="95.5" y1="69" x2="102.5" y2="69.8"/>
			<line class="st1" x1="337.5" y1="90.3" x2="344.5" y2="91"/>
		</g>
	</g>
	<g>
		<g>
			<line class="st1" x1="95.8" y1="67" x2="102.8" y2="67.8"/>
			<line class="st1" x1="337.3" y1="92.3" x2="344.3" y2="93"/>
		</g>
	</g>
	<g>
		<g>
			<line class="st1" x1="96" y1="64.8" x2="103" y2="65.8"/>
			<line class="st1" x1="337" y1="94.2" x2="344" y2="95.3"/>
		</g>
	</g>
	<g>
		<g>
			<line class="st1" x1="96.3" y1="62.5" x2="103.3" y2="63.5"/>
			<line class="st1" x1="336.8" y1="96.5" x2="343.8" y2="97.5"/>
		</g>
	</g>
	<g>
		<g>
			<line class="st1" x1="96.5" y1="60.5" x2="103.5" y2="61.5"/>
			<line class="st1" x1="336.5" y1="98.5" x2="343.5" y2="99.5"/>
		</g>
	</g>
	<g>
		<g>
			<line class="st1" x1="97" y1="58.3" x2="103.8" y2="59.5"/>
			<line class="st1" x1="336.3" y1="100.5" x2="343" y2="101.7"/>
		</g>
	</g>
	<g>
		<g>
			<line class="st1" x1="97.3" y1="56.3" x2="104.3" y2="57.5"/>
			<line class="st1" x1="335.8" y1="102.5" x2="342.8" y2="103.8"/>
		</g>
	</g>
	<g>
		<g>
			<line class="st1" x1="97.8" y1="54" x2="104.8" y2="55.5"/>
			<line class="st1" x1="335.3" y1="104.5" x2="342.3" y2="106"/>
		</g>
	</g>
	<g>
		<g>
			<line class="st1" x1="98.3" y1="52" x2="105" y2="53.5"/>
			<line class="st1" x1="335" y1="106.5" x2="341.8" y2="108"/>
		</g>
	</g>
	<g>
		<g>
			<line class="st1" x1="98.8" y1="49.8" x2="105.5" y2="51.5"/>
			<line class="st1" x1="334.5" y1="108.5" x2="341.3" y2="110.3"/>
		</g>
	</g>
	<g>
		<g>
			<line class="st1" x1="99.3" y1="47.7" x2="106" y2="49.5"/>
			<line class="st1" x1="334" y1="110.5" x2="340.8" y2="112.3"/>
		</g>
	</g>
	<g>
		<g>
			<line class="st1" x1="99.8" y1="45.5" x2="106.8" y2="47.5"/>
			<line class="st1" x1="333.3" y1="112.5" x2="340.3" y2="114.5"/>
		</g>
	</g>
	<g>
		<g>
			<line class="st1" x1="100.5" y1="43.5" x2="107.3" y2="45.5"/>
			<line class="st1" x1="332.8" y1="114.5" x2="339.5" y2="116.5"/>
		</g>
	</g>
	<g>
		<g>
			<line class="st1" x1="101" y1="41.3" x2="107.8" y2="43.5"/>
			<line class="st1" x1="332.3" y1="116.5" x2="339" y2="118.8"/>
		</g>
	</g>
	<g>
		<g>
			<line class="st1" x1="101.8" y1="39.3" x2="108.5" y2="41.5"/>
			<line class="st1" x1="331.5" y1="118.5" x2="338.3" y2="120.8"/>
		</g>
	</g>
	<g>
		<g>
			<line class="st1" x1="102.5" y1="37.3" x2="109.3" y2="39.8"/>
			<line class="st1" x1="330.8" y1="120.3" x2="337.5" y2="122.8"/>
		</g>
	</g>
	<g>
		<g>
			<line class="st1" x1="103.3" y1="35.2" x2="110" y2="37.7"/>
			<line class="st1" x1="330" y1="122.3" x2="336.8" y2="124.8"/>
		</g>
	</g>
	<g>
		<g>
			<line class="st1" x1="104" y1="33.3" x2="110.8" y2="35.8"/>
			<line class="st1" x1="329.3" y1="124.2" x2="336" y2="126.7"/>
		</g>
	</g>
	<g>
		<g>
			<line class="st1" x1="105" y1="31.3" x2="111.5" y2="34"/>
			<line class="st1" x1="328.5" y1="126" x2="335" y2="128.8"/>
		</g>
	</g>
	<g>
		<g>
			<line class="st1" x1="105.8" y1="29.3" x2="112.3" y2="32"/>
			<line class="st1" x1="327.8" y1="128" x2="334.3" y2="130.8"/>
		</g>
	</g>
	<g>
		<g>
			<line class="st1" x1="106.8" y1="27.3" x2="113.3" y2="30.2"/>
			<line class="st1" x1="326.8" y1="129.8" x2="333.3" y2="132.8"/>
		</g>
	</g>
	<g>
		<g>
			<line class="st1" x1="107.8" y1="25.2" x2="114" y2="28.2"/>
			<line class="st1" x1="326" y1="131.8" x2="332.3" y2="134.8"/>
		</g>
	</g>
	<g>
		<g>
			<line class="st1" x1="108.5" y1="23.2" x2="115" y2="26.5"/>
			<line class="st1" x1="325" y1="133.5" x2="331.5" y2="136.8"/>
		</g>
	</g>
	<g>
		<g>
			<line class="st1" x1="109.8" y1="21.3" x2="116" y2="24.8"/>
			<line class="st1" x1="324" y1="135.3" x2="330.3" y2="138.8"/>
		</g>
	</g>
	<g>
		<g>
			<line class="st1" x1="110.8" y1="19.5" x2="116.8" y2="22.7"/>
			<line class="st1" x1="323.3" y1="137.3" x2="329.3" y2="140.5"/>
		</g>
	</g>
	<g>
		<g>
			<line class="st1" x1="111.8" y1="17.5" x2="118" y2="21"/>
			<line class="st1" x1="322" y1="139" x2="328.3" y2="142.5"/>
		</g>
	</g>
	<g>
		<g>
			<line class="st1" x1="112.8" y1="15.5" x2="119" y2="19.3"/>
			<line class="st1" x1="321" y1="140.8" x2="327.3" y2="144.5"/>
		</g>
	</g>
	<g>
		<g>
			<line class="st1" x1="114" y1="13.8" x2="120" y2="17.5"/>
			<line class="st1" x1="320" y1="142.5" x2="326" y2="146.3"/>
		</g>
	</g>
	<g>
		<g>
			<line class="st1" x1="115.3" y1="12" x2="121" y2="15.7"/>
			<line class="st1" x1="319" y1="144.3" x2="324.8" y2="148"/>
		</g>
	</g>
	<g>
		<g>
			<line class="st1" x1="116.3" y1="10" x2="122.3" y2="14"/>
			<line class="st1" x1="317.8" y1="146" x2="323.8" y2="150"/>
		</g>
	</g>
	<g>
		<g>
			<line class="st1" x1="117.5" y1="8.2" x2="123.5" y2="12.3"/>
			<line class="st1" x1="316.5" y1="147.8" x2="322.5" y2="151.8"/>
		</g>
	</g>
	<g>
		<g>
			<line class="st1" x1="118.8" y1="6.5" x2="124.5" y2="10.7"/>
			<line class="st1" x1="315.5" y1="149.3" x2="321.3" y2="153.5"/>
		</g>
	</g>
	<g>
		<g>
			<line class="st1" x1="120.3" y1="4.7" x2="125.8" y2="9"/>
			<line class="st1" x1="314.3" y1="151" x2="319.8" y2="155.3"/>
		</g>
	</g>
	<g>
		<g>
			<line class="st1" x1="121.5" y1="3" x2="127" y2="7.5"/>
			<line class="st1" x1="313" y1="152.5" x2="318.5" y2="157"/>
		</g>
	</g>
	<g>
		<g>
			<line class="st1" x1="122.8" y1="1.3" x2="128.3" y2="5.7"/>
			<line class="st1" x1="311.8" y1="154.3" x2="317.3" y2="158.8"/>
		</g>
	</g>
	<g>
		<g>
			<line class="st1" x1="124.3" y1="-0.3" x2="129.8" y2="4.3"/>
			<line class="st1" x1="310.3" y1="155.8" x2="315.8" y2="160.3"/>
		</g>
	</g>
	<g>
		<g>
			<line class="st1" x1="125.8" y1="-2" x2="131" y2="2.8"/>
			<line class="st1" x1="309" y1="157.3" x2="314.3" y2="162"/>
		</g>
	</g>
	<g>
		<g>
			<line class="st1" x1="127" y1="-3.8" x2="132.3" y2="1"/>
			<line class="st1" x1="307.8" y1="159" x2="313" y2="163.8"/>
		</g>
	</g>
	<g>
		<g>
			<line class="st1" x1="128.5" y1="-5.3" x2="133.8" y2="-0.5"/>
			<line class="st1" x1="306.3" y1="160.5" x2="311.5" y2="165.3"/>
		</g>
	</g>
	<g>
		<g>
			<line class="st1" x1="130" y1="-6.8" x2="135.3" y2="-2"/>
			<line class="st1" x1="304.8" y1="162" x2="310" y2="166.8"/>
		</g>
	</g>
	<g>
		<g>
			<line class="st1" x1="131.5" y1="-8.5" x2="136.5" y2="-3.5"/>
			<line class="st1" x1="303.5" y1="163.5" x2="308.5" y2="168.5"/>
		</g>
	</g>
	<g>
		<g>
			<line class="st1" x1="133.3" y1="-10" x2="138" y2="-4.7"/>
			<line class="st1" x1="302" y1="164.8" x2="306.8" y2="170"/>
		</g>
	</g>
	<g>
		<g>
			<line class="st1" x1="134.8" y1="-11.5" x2="139.5" y2="-6.3"/>
			<line class="st1" x1="300.5" y1="166.3" x2="305.3" y2="171.5"/>
		</g>
	</g>
	<g>
		<g>
			<line class="st1" x1="136.3" y1="-13" x2="141" y2="-7.8"/>
			<line class="st1" x1="299" y1="167.8" x2="303.8" y2="173"/>
		</g>
	</g>
	<g>
		<g>
			<line class="st1" x1="138" y1="-14.3" x2="142.8" y2="-9"/>
			<line class="st1" x1="297.3" y1="169" x2="302" y2="174.3"/>
		</g>
	</g>
	<g>
		<g>
			<line class="st1" x1="139.8" y1="-15.7" x2="144.3" y2="-10.3"/>
			<line class="st1" x1="295.8" y1="170.3" x2="300.3" y2="175.8"/>
		</g>
	</g>
	<g>
		<g>
			<line class="st1" x1="141.3" y1="-17.3" x2="145.8" y2="-11.8"/>
			<line class="st1" x1="294.3" y1="171.8" x2="298.8" y2="177.3"/>
		</g>
	</g>
	<g>
		<g>
			<line class="st1" x1="143" y1="-18.5" x2="147.5" y2="-13"/>
			<line class="st1" x1="292.5" y1="173" x2="297" y2="178.5"/>
		</g>
	</g>
	<g>
		<g>
			<line class="st1" x1="144.8" y1="-19.8" x2="149" y2="-14.3"/>
			<line class="st1" x1="291" y1="174.3" x2="295.3" y2="179.8"/>
		</g>
	</g>
	<g>
		<g>
			<line class="st1" x1="146.5" y1="-21.3" x2="150.8" y2="-15.5"/>
			<line class="st1" x1="289.3" y1="175.5" x2="293.5" y2="181.3"/>
		</g>
	</g>
	<g>
		<g>
			<line class="st1" x1="148.3" y1="-22.5" x2="152.3" y2="-16.5"/>
			<line class="st1" x1="287.8" y1="176.5" x2="291.8" y2="182.5"/>
		</g>
	</g>
	<g>
		<g>
			<line class="st1" x1="150" y1="-23.8" x2="154" y2="-17.8"/>
			<line class="st1" x1="286" y1="177.8" x2="290" y2="183.8"/>
		</g>
	</g>
	<g>
		<g>
			<line class="st1" x1="152" y1="-24.8" x2="155.8" y2="-19"/>
			<line class="st1" x1="284.3" y1="179" x2="288" y2="184.8"/>
		</g>
	</g>
	<g>
		<g>
			<line class="st1" x1="153.8" y1="-26" x2="157.5" y2="-20"/>
			<line class="st1" x1="282.5" y1="180" x2="286.3" y2="186"/>
		</g>
	</g>
	<g>
		<g>
			<line class="st1" x1="155.5" y1="-27.3" x2="159.3" y2="-21"/>
			<line class="st1" x1="280.8" y1="181" x2="284.5" y2="187.3"/>
		</g>
	</g>
	<g>
		<g>
			<line class="st1" x1="157.5" y1="-28.2" x2="161" y2="-22"/>
			<line class="st1" x1="279" y1="182" x2="282.5" y2="188.3"/>
		</g>
	</g>
	<g>
		<g>
			<line class="st1" x1="159.5" y1="-29.3" x2="162.8" y2="-23.2"/>
			<line class="st1" x1="277.3" y1="183.3" x2="280.5" y2="189.3"/>
		</g>
	</g>
	<g>
		<g>
			<line class="st1" x1="161.3" y1="-30.3" x2="164.8" y2="-24"/>
			<line class="st1" x1="275.3" y1="184" x2="278.8" y2="190.3"/>
		</g>
	</g>
	<g>
		<g>
			<line class="st1" x1="163.3" y1="-31.5" x2="166.5" y2="-25"/>
			<line class="st1" x1="273.5" y1="185" x2="276.8" y2="191.5"/>
		</g>
	</g>
	<g>
		<g>
			<line class="st1" x1="165.3" y1="-32.3" x2="168.3" y2="-26"/>
			<line class="st1" x1="271.8" y1="186" x2="274.8" y2="192.3"/>
		</g>
	</g>
	<g>
		<g>
			<line class="st1" x1="167.3" y1="-33.3" x2="170.3" y2="-26.8"/>
			<line class="st1" x1="269.8" y1="186.8" x2="272.8" y2="193.3"/>
		</g>
	</g>
	<g>
		<g>
			<line class="st1" x1="169.3" y1="-34.3" x2="172" y2="-27.8"/>
			<line class="st1" x1="268" y1="187.8" x2="270.8" y2="194.3"/>
		</g>
	</g>
	<g>
		<g>
			<line class="st1" x1="171.3" y1="-35" x2="174" y2="-28.5"/>
			<line class="st1" x1="266" y1="188.5" x2="268.8" y2="195"/>
		</g>
	</g>
	<g>
		<g>
			<line class="st1" x1="173.3" y1="-36" x2="175.8" y2="-29.3"/>
			<line class="st1" x1="264.3" y1="189.3" x2="266.8" y2="196"/>
		</g>
	</g>
	<g>
		<g>
			<line class="st1" x1="175.3" y1="-36.8" x2="177.8" y2="-30"/>
			<line class="st1" x1="262.3" y1="190" x2="264.8" y2="196.8"/>
		</g>
	</g>
	<g>
		<g>
			<line class="st1" x1="177.3" y1="-37.5" x2="179.8" y2="-30.8"/>
			<line class="st1" x1="260.3" y1="190.8" x2="262.8" y2="197.5"/>
		</g>
	</g>
	<g>
		<g>
			<line class="st1" x1="179.3" y1="-38.3" x2="181.5" y2="-31.5"/>
			<line class="st1" x1="258.5" y1="191.5" x2="260.8" y2="198.3"/>
		</g>
	</g>
	<g>
		<g>
			<line class="st1" x1="181.3" y1="-39" x2="183.5" y2="-32.3"/>
			<line class="st1" x1="256.5" y1="192.3" x2="258.8" y2="199"/>
		</g>
	</g>
	<g>
		<g>
			<line class="st1" x1="183.5" y1="-39.5" x2="185.5" y2="-32.8"/>
			<line class="st1" x1="254.5" y1="192.8" x2="256.5" y2="199.5"/>
		</g>
	</g>
	<g>
		<g>
			<line class="st1" x1="185.5" y1="-40.3" x2="187.5" y2="-33.3"/>
			<line class="st1" x1="252.5" y1="193.3" x2="254.5" y2="200.3"/>
		</g>
	</g>
	<g>
		<g>
			<line class="st1" x1="187.8" y1="-40.8" x2="189.5" y2="-34"/>
			<line class="st1" x1="250.5" y1="194" x2="252.3" y2="200.8"/>
		</g>
	</g>
	<g>
		<g>
			<line class="st1" x1="189.8" y1="-41.3" x2="191.5" y2="-34.5"/>
			<line class="st1" x1="248.5" y1="194.5" x2="250.3" y2="201.3"/>
		</g>
	</g>
	<g>
		<g>
			<line class="st1" x1="192" y1="-41.8" x2="193.5" y2="-35"/>
			<line class="st1" x1="246.5" y1="195" x2="248" y2="201.8"/>
		</g>
	</g>
	<g>
		<g>
			<line class="st1" x1="194" y1="-42.3" x2="195.5" y2="-35.3"/>
			<line class="st1" x1="244.5" y1="195.3" x2="246" y2="202.3"/>
		</g>
	</g>
	<g>
		<g>
			<line class="st1" x1="196.3" y1="-42.8" x2="197.5" y2="-35.8"/>
			<line class="st1" x1="242.5" y1="195.8" x2="243.8" y2="202.8"/>
		</g>
	</g>
	<g>
		<g>
			<line class="st1" x1="198.3" y1="-43" x2="199.5" y2="-36.3"/>
			<line class="st1" x1="240.5" y1="196.3" x2="241.8" y2="203"/>
		</g>
	</g>
	<g>
		<g>
			<line class="st1" x1="200.5" y1="-43.5" x2="201.5" y2="-36.5"/>
			<line class="st1" x1="238.5" y1="196.5" x2="239.5" y2="203.5"/>
		</g>
	</g>
	<g>
		<g>
			<line class="st1" x1="202.5" y1="-43.8" x2="203.5" y2="-36.8"/>
			<line class="st1" x1="236.5" y1="196.8" x2="237.5" y2="203.8"/>
		</g>
	</g>
	<g>
		<g>
			<line class="st1" x1="204.8" y1="-44" x2="205.8" y2="-37"/>
			<line class="st1" x1="234.3" y1="197" x2="235.3" y2="204"/>
		</g>
	</g>
	<g>
		<g>
			<line class="st1" x1="207" y1="-44.3" x2="207.8" y2="-37.3"/>
			<line class="st1" x1="232.3" y1="197.3" x2="233" y2="204.3"/>
		</g>
	</g>
	<g>
		<g>
			<line class="st1" x1="209" y1="-44.5" x2="209.8" y2="-37.5"/>
			<line class="st1" x1="230.3" y1="197.5" x2="231" y2="204.5"/>
		</g>
	</g>
	<g>
		<g>
			<line class="st1" x1="211.3" y1="-44.8" x2="211.8" y2="-37.8"/>
			<line class="st1" x1="228.3" y1="197.8" x2="228.8" y2="204.8"/>
		</g>
	</g>
	<g>
		<g>
			<line class="st1" x1="213.5" y1="-44.8" x2="213.8" y2="-37.8"/>
			<line class="st1" x1="226.3" y1="197.8" x2="226.5" y2="204.8"/>
		</g>
	</g>
	<g>
		<g>
			<line class="st1" x1="215.8" y1="-45" x2="216" y2="-37.8"/>
			<line class="st1" x1="224" y1="197.8" x2="224.3" y2="205"/>
		</g>
	</g>
	<g>
		<g>
			<line class="st1" x1="217.8" y1="-45" x2="218" y2="-38"/>
			<line class="st1" x1="222" y1="198" x2="222.3" y2="205"/>
		</g>
	</g>
	<g>
		<g>
			<line class="st1" x1="220" y1="-45" x2="220" y2="-38"/>
			<line class="st1" x1="220" y1="198" x2="220" y2="205"/>
		</g>
	</g>
</g>
<text transform="matrix(1 0 0 1 212.6665 -17.0007)" class="st2 st3">N</text>
<text transform="matrix(1 0 0 1 213.8748 187.082)" class="st2 st3">S</text>
<text transform="matrix(1 0 0 1 316.999 87.3345)" class="st2 st3">E</text>
<text transform="matrix(1 0 0 1 109.0002 87.3345)" class="st2 st3">W</text>
<text transform="matrix(1 0 0 1 280.417 13.3328)" class="st2 st4">NE</text>
<text transform="matrix(1 0 0 1 280.4177 155.7524)" class="st2 st4">SE</text>
<text transform="matrix(1 0 0 1 138.6243 13.3345)" class="st2 st4">NW</text>
<text transform="matrix(1 0 0 1 138.625 155.7515)" class="st2 st4">SW</text>
<text transform="matrix(1 0 0 1 251.042 -13.2297)" class="st2 st5">NNE</text>
<text transform="matrix(1 0 0 1 301.374 45.2104)" class="st2 st5">ENE</text>
<text transform="matrix(1 0 0 1 301.3748 122.0845)" class="st2 st5">ESE</text>
<text transform="matrix(1 0 0 1 252.2515 181.2495)" class="st2 st5">SSE</text>
<text transform="matrix(1 0 0 1 167.2488 180.9988)" class="st2 st5">SSW</text>
<text transform="matrix(1 0 0 1 118.7505 122.0828)" class="st2 st5">WSW</text>
<text transform="matrix(1 0 0 1 118.7495 45.2104)" class="st2 st5">WNW</text>
<text transform="matrix(1 0 0 1 167.2488 -14.2502)" class="st2 st5">NNW</text>
<g id="XMLID_7_">
	<g>
		<polygon class="st6" points="208.8,63.8 207.8,67.8 207.5,67.8 184.8,44.8 		"/>
	</g>
	<g>
		<polyline class="st0" points="207.5,67.8 203.8,68.8 184.8,44.8 208.8,63.8 207.8,67.8 		"/>
		<polyline class="st0" points="184.8,44.8 207.5,67.8 207.8,67.8 207.8,67.8 		"/>
	</g>
</g>
<g id="XMLID_8_">
	<g>
		<polygon class="st6" points="232.3,67.8 255,44.8 236.3,68.8 		"/>
	</g>
	<g>
		<polyline class="st0" points="232.3,67.8 231.3,63.8 255,44.8 236.3,68.8 232.3,67.8 		"/>
		<polyline class="st0" points="255,44.8 232.3,67.8 232.3,67.8 232.3,67.8 		"/>
	</g>
</g>
<g id="XMLID_9_">
	<g>
		<polygon class="st6" points="231.3,96.3 232.3,92.3 232.3,92.3 255,115 		"/>
	</g>
	<g>
		<polyline class="st0" points="232.3,92.3 236.3,91.3 255,115 231.3,96.3 232.3,92.3 		"/>
		<polyline class="st0" points="255,115 232.3,92.3 232.3,92.3 232.3,92.3 		"/>
	</g>
</g>
<g id="XMLID_10_">
	<g>
		<polygon class="st6" points="207.8,92.5 185,115.3 203.8,91.5 		"/>
	</g>
	<g>
		<polyline class="st0" points="207.8,92.5 208.8,96.5 185,115.3 203.8,91.5 207.8,92.5 		"/>
		<polyline class="st0" points="185,115.3 207.8,92.5 207.8,92.5 207.8,92.5 		"/>
	</g>
</g>
<g>
	<g id="XMLID_1_">
		<g id="XMLID_12_">
			<path class="st7" d="M357.5,80.2c0,76-61.6,137.6-137.6,137.6S82.3,156.1,82.3,80.2S143.9-57.4,219.9-57.4S357.5,4.2,357.5,80.2z
				 M219.9,205.4c69.3,0,125.3-56.2,125.3-125.3s-56-125.3-125.3-125.3S94.7,10.9,94.7,80.2S150.6,205.4,219.9,205.4z"/>
		</g>
		<g id="XMLID_11_">
		</g>
	</g>
	<polygon id="XMLID_13_" class="st7" points="176.8,36.3 178.3,37.8 200.2,68.9 135.2,79.9 132.1,79.9 133.7,80.2 132.1,80.4 
		135.2,80.4 200.2,91.7 178.3,122.5 176.8,124.1 177.6,123.5 177.1,124.3 178.6,122.8 209.6,101 220.7,165.9 220.7,169 220.9,167.4 
		221.2,169 221.2,165.9 232.5,101 263.3,122.8 264.8,124.3 264.3,123.5 265.1,124.1 263.6,122.5 241.7,91.7 306.7,80.4 309.8,80.4 
		308.2,80.2 309.8,79.9 306.7,79.9 241.7,68.9 263.6,37.8 265.1,36.3 264.3,37 264.8,36 263.3,37.6 232.5,59.4 221.2,-5.6 
		221.2,-8.6 220.9,-7.1 220.7,-8.6 220.7,-5.6 209.6,59.4 178.6,37.6 177.1,36 177.6,37 	"/>
</g>
</svg>
