<?xml version="1.0" encoding="utf-8"?>
<!-- Generator: Adobe Illustrator 16.0.0, SVG Export Plug-In . SVG Version: 6.00 Build 0)  -->
<!DOCTYPE svg PUBLIC "-//W3C//DTD SVG 1.1//EN" "http://www.w3.org/Graphics/SVG/1.1/DTD/svg11.dtd">
<svg version="1.1" id="Layer_1" xmlns="http://www.w3.org/2000/svg" xmlns:xlink="http://www.w3.org/1999/xlink" x="0px" y="0px"
	 width="299.996px" height="299.996px" viewBox="0 0 299.996 299.996" enable-background="new 0 0 299.996 299.996"
	 xml:space="preserve">
<g id="XMLID_4_">
	<g id="XMLID_6_">
		<path fill="#D0D6D8" d="M277.055,149.997c0,67.913-56.654,122.955-126.557,122.955c-69.906,0-126.562-55.134-126.562-122.955
			S80.592,27.044,150.498,27.044C220.398,27.044,277.055,82.087,277.055,149.997z M150.496,261.872
			c63.739,0,115.245-50.218,115.245-111.962c0-61.746-51.506-111.962-115.245-111.962c-63.742,0-115.156,50.129-115.156,112.051
			C35.34,211.921,86.756,261.872,150.496,261.872z"/>
	</g>
	<g id="XMLID_5_">
	</g>
</g>
<g id="XMLID_2_">
	<g>
		<path fill="none" stroke="#00CCFF" stroke-width="0.1" stroke-miterlimit="10" d="M150.495,31.812
			c67.046,0,121.459,52.861,121.459,117.999c0,65.132-54.413,117.996-121.459,117.996c-67.044,0-121.46-52.863-121.46-117.996
			C29.035,84.673,83.451,31.812,150.495,31.812z"/>
	</g>
</g>
<g>
	<g>
		<g>
			
				<line fill="none" stroke="#333333" stroke-width="0.1" stroke-miterlimit="10" x1="104.146" y1="258.84" x2="109.199" y2="246.568"/>
			
				<line fill="none" stroke="#333333" stroke-width="0.1" stroke-miterlimit="10" x1="191.791" y1="53.051" x2="196.941" y2="40.78"/>
		</g>
	</g>
	<g>
		<g>
			
				<line fill="none" stroke="#333333" stroke-width="0.1" stroke-miterlimit="10" x1="64.502" y1="233.352" x2="74.511" y2="223.723"/>
			
				<line fill="none" stroke="#333333" stroke-width="0.1" stroke-miterlimit="10" x1="226.578" y1="75.991" x2="236.488" y2="66.267"/>
		</g>
	</g>
	<g>
		<g>
			
				<line fill="none" stroke="#333333" stroke-width="0.1" stroke-miterlimit="10" x1="38.268" y1="194.932" x2="50.899" y2="189.93"/>
			
				<line fill="none" stroke="#333333" stroke-width="0.1" stroke-miterlimit="10" x1="250.091" y1="109.691" x2="262.723" y2="104.782"/>
		</g>
	</g>
	<g>
		<g>
			
				<line fill="none" stroke="#333333" stroke-width="0.1" stroke-miterlimit="10" x1="29.035" y1="149.811" x2="42.931" y2="149.811"/>
			
				<line fill="none" stroke="#333333" stroke-width="0.1" stroke-miterlimit="10" x1="258.156" y1="149.811" x2="271.954" y2="149.811"/>
		</g>
	</g>
	<g>
		<g>
			
				<line fill="none" stroke="#333333" stroke-width="0.1" stroke-miterlimit="10" x1="38.268" y1="104.782" x2="50.899" y2="109.691"/>
			
				<line fill="none" stroke="#333333" stroke-width="0.1" stroke-miterlimit="10" x1="250.091" y1="189.93" x2="262.723" y2="194.932"/>
		</g>
	</g>
	<g>
		<g>
			
				<line fill="none" stroke="#333333" stroke-width="0.1" stroke-miterlimit="10" x1="64.502" y1="66.267" x2="74.511" y2="75.991"/>
			
				<line fill="none" stroke="#333333" stroke-width="0.1" stroke-miterlimit="10" x1="226.578" y1="223.723" x2="236.488" y2="233.352"/>
		</g>
	</g>
	<g>
		<g>
			
				<line fill="none" stroke="#333333" stroke-width="0.1" stroke-miterlimit="10" x1="104.146" y1="40.78" x2="109.199" y2="53.051"/>
			
				<line fill="none" stroke="#333333" stroke-width="0.1" stroke-miterlimit="10" x1="191.791" y1="246.568" x2="196.941" y2="258.84"/>
		</g>
	</g>
	<g>
		<g>
			
				<line fill="none" stroke="#333333" stroke-width="0.1" stroke-miterlimit="10" x1="150.495" y1="31.812" x2="150.495" y2="45.216"/>
			
				<line fill="none" stroke="#333333" stroke-width="0.1" stroke-miterlimit="10" x1="150.495" y1="254.402" x2="150.495" y2="267.807"/>
		</g>
	</g>
</g>
<text transform="matrix(1.0293 0 0 1 143.3701 58.2422)" font-family="'ArialMT'" font-size="18.8796">N</text>
<text transform="matrix(1.0293 0 0 1 144.5449 250.8926)" font-family="'ArialMT'" font-size="18.8796">S</text>
<text transform="matrix(1.0293 0 0 1 244.748 156.7324)" font-family="'ArialMT'" font-size="18.8796">E</text>
<text transform="matrix(1.0293 0 0 1 42.6416 156.7324)" font-family="'ArialMT'" font-size="18.8796">W</text>
<text transform="matrix(1.0293 0 0 1 209.2021 86.875)" font-family="'ArialMT'" font-size="14.1597">NE</text>
<text transform="matrix(1.0293 0 0 1 209.2021 221.3184)" font-family="'ArialMT'" font-size="14.1597">SE</text>
<text transform="matrix(1.0293 0 0 1 71.4248 86.877)" font-family="'ArialMT'" font-size="14.1597">NW</text>
<text transform="matrix(1.0293 0 0 1 71.4248 221.3164)" font-family="'ArialMT'" font-size="14.1597">SW</text>
<text transform="matrix(1.0293 0 0 1 180.6592 61.8008)" font-family="'ArialMT'" font-size="9.4398">NNE</text>
<text transform="matrix(1.0293 0 0 1 229.5645 116.9668)" font-family="'ArialMT'" font-size="9.4398">ENE</text>
<text transform="matrix(1.0293 0 0 1 229.5654 189.5371)" font-family="'ArialMT'" font-size="9.4398">ESE</text>
<text transform="matrix(1.0293 0 0 1 181.833 245.3848)" font-family="'ArialMT'" font-size="9.4398">SSE</text>
<text transform="matrix(1.0293 0 0 1 99.2393 245.1484)" font-family="'ArialMT'" font-size="9.4398">SSW</text>
<text transform="matrix(1.0293 0 0 1 52.1152 189.5352)" font-family="'ArialMT'" font-size="9.4398">WSW</text>
<text transform="matrix(1.0293 0 0 1 52.1143 116.9668)" font-family="'ArialMT'" font-size="9.4398">WNW</text>
<text transform="matrix(1.0293 0 0 1 99.2393 60.8379)" font-family="'ArialMT'" font-size="9.4398">NNW</text>
<g id="XMLID_7_">
	<g>
		<polygon fill="#00CCFF" points="139.613,134.517 138.642,138.292 138.351,138.292 116.292,116.582 		"/>
	</g>
	<g>
		<polyline fill="none" stroke="#00CCFF" stroke-width="0.1" stroke-miterlimit="10" points="138.351,138.292 134.754,139.237 
			116.292,116.582 139.613,134.517 138.642,138.292 		"/>
		<polyline fill="none" stroke="#00CCFF" stroke-width="0.1" stroke-miterlimit="10" points="116.292,116.582 138.351,138.292 
			138.642,138.292 138.642,138.292 		"/>
	</g>
</g>
<g id="XMLID_8_">
	<g>
		<polygon fill="#00CCFF" points="162.447,138.292 184.504,116.582 166.334,139.237 		"/>
	</g>
	<g>
		<polyline fill="none" stroke="#00CCFF" stroke-width="0.1" stroke-miterlimit="10" points="162.447,138.292 161.475,134.517 
			184.504,116.582 166.334,139.237 162.447,138.292 		"/>
		<polyline fill="none" stroke="#00CCFF" stroke-width="0.1" stroke-miterlimit="10" points="184.504,116.582 162.447,138.292 
			162.447,138.292 162.447,138.292 		"/>
	</g>
</g>
<g id="XMLID_9_">
	<g>
		<polygon fill="#00CCFF" points="161.475,165.195 162.447,161.42 162.447,161.42 184.504,182.852 		"/>
	</g>
	<g>
		<polyline fill="none" stroke="#00CCFF" stroke-width="0.1" stroke-miterlimit="10" points="162.447,161.42 166.334,160.477 
			184.504,182.852 161.475,165.195 162.447,161.42 		"/>
		<polyline fill="none" stroke="#00CCFF" stroke-width="0.1" stroke-miterlimit="10" points="184.504,182.852 162.447,161.42 
			162.447,161.42 162.447,161.42 		"/>
	</g>
</g>
<g id="XMLID_10_">
	<g>
		<polygon fill="#00CCFF" points="138.642,161.609 116.486,183.133 134.754,160.666 		"/>
	</g>
	<g>
		<polyline fill="none" stroke="#00CCFF" stroke-width="0.1" stroke-miterlimit="10" points="138.642,161.609 139.613,165.387 
			116.486,183.133 134.754,160.666 138.642,161.609 		"/>
		<polyline fill="none" stroke="#00CCFF" stroke-width="0.1" stroke-miterlimit="10" points="116.486,183.133 138.642,161.609 
			138.642,161.609 138.642,161.609 		"/>
	</g>
</g>
<g>
	<g id="XMLID_1_">
		<g id="XMLID_12_">
			<path fill="#333333" d="M284.102,149.998c0,71.744-59.854,129.893-133.702,129.893c-73.849,0-133.703-58.244-133.703-129.893
				c0-71.649,59.854-129.892,133.703-129.892C224.247,20.106,284.102,78.256,284.102,149.998z M150.398,268.186
				c67.338,0,121.75-53.053,121.75-118.279c0-65.23-54.412-118.281-121.75-118.281C83.06,31.624,28.745,84.583,28.745,150
				C28.745,215.416,83.062,268.186,150.398,268.186z"/>
		</g>
		<g id="XMLID_11_">
		</g>
	</g>
	<polygon id="XMLID_13_" fill="#333333" points="108.52,108.558 109.977,109.974 131.256,139.331 68.098,149.715 65.086,149.715 
		66.641,149.998 65.086,150.186 68.098,150.186 131.256,160.854 109.977,189.93 108.52,191.439 109.296,190.873 108.812,191.629 
		110.268,190.211 140.389,169.633 151.176,230.898 151.176,233.822 151.371,232.312 151.662,233.822 151.662,230.898 
		162.643,169.633 192.568,190.211 194.025,191.629 193.541,190.873 194.318,191.439 192.861,189.93 171.582,160.854 234.74,150.186 
		237.752,150.186 236.197,149.998 237.752,149.715 234.74,149.715 171.582,139.331 192.861,109.974 194.318,108.558 
		193.541,109.218 194.025,108.274 192.568,109.786 162.643,130.364 151.662,69.004 151.662,66.172 151.371,67.589 151.176,66.172 
		151.176,69.004 140.389,130.364 110.268,109.786 108.812,108.274 109.296,109.218 	"/>
</g>
</svg>
