<?xml version="1.0" encoding="utf-8"?>
<!-- Generator: Adobe Illustrator 19.0.0, SVG Export Plug-In . SVG Version: 6.00 Build 0)  -->
<svg version="1.1" id="Layer_1" xmlns="http://www.w3.org/2000/svg" xmlns:xlink="http://www.w3.org/1999/xlink" x="0px" y="0px" height="300px" width="300px"
	 viewBox="0 0 120 120" style="enable-background:new 0 0 120 120;" xml:space="preserve">
<style type="text/css">
	.st0{fill:none;stroke:#00CCFF;stroke-width:0.1;stroke-miterlimit:10;}
	.st1{font-family:'ArialMT';}
	.st2{font-size:8px;}
	.st3{font-size:6px;}
	.st4{font-size:4px;}
	.st5{fill:#00CCFF;}
	.st6{fill:#FFFFFF;}
</style>
<g id="XMLID_2_">
	<g>
		<path class="st0" d="M60,10c27.6,0,50,22.4,50,50s-22.4,50-50,50S10,87.6,10,60S32.4,10,60,10z"/>
	</g>
</g>
<g>
	<g>
		<g>
			<line class="st0" x1="40.9" y1="106.2" x2="43" y2="101"/>
			<line class="st0" x1="77" y1="19" x2="79.1" y2="13.8"/>
		</g>
	</g>
	<g>
		<g>
			<line class="st0" x1="24.6" y1="95.4" x2="28.7" y2="91.3"/>
			<line class="st0" x1="91.3" y1="28.7" x2="95.4" y2="24.6"/>
		</g>
	</g>
	<g>
		<g>
			<line class="st0" x1="13.8" y1="79.1" x2="19" y2="77"/>
			<line class="st0" x1="101" y1="43" x2="106.2" y2="40.9"/>
		</g>
	</g>
	<g>
		<g>
			<line class="st0" x1="10" y1="60" x2="15.7" y2="60"/>
			<line class="st0" x1="104.3" y1="60" x2="110" y2="60"/>
		</g>
	</g>
	<g>
		<g>
			<line class="st0" x1="13.8" y1="40.9" x2="19" y2="43"/>
			<line class="st0" x1="101" y1="77" x2="106.2" y2="79.1"/>
		</g>
	</g>
	<g>
		<g>
			<line class="st0" x1="24.6" y1="24.6" x2="28.7" y2="28.7"/>
			<line class="st0" x1="91.3" y1="91.3" x2="95.4" y2="95.4"/>
		</g>
	</g>
	<g>
		<g>
			<line class="st0" x1="40.9" y1="13.8" x2="43" y2="19"/>
			<line class="st0" x1="77" y1="101" x2="79.1" y2="106.2"/>
		</g>
	</g>
	<g>
		<g>
			<line class="st0" x1="60" y1="10" x2="60" y2="15.7"/>
			<line class="st0" x1="60" y1="104.3" x2="60" y2="110"/>
		</g>
	</g>
</g>
<g>
	<g>
		<g>
			<line class="st0" x1="59.1" y1="110" x2="59.2" y2="107.2"/>
			<line class="st0" x1="60.8" y1="12.8" x2="60.9" y2="10"/>
		</g>
	</g>
	<g>
		<g>
			<line class="st0" x1="58.3" y1="110" x2="58.4" y2="107.1"/>
			<line class="st0" x1="61.6" y1="12.9" x2="61.7" y2="10"/>
		</g>
	</g>
	<g>
		<g>
			<line class="st0" x1="57.4" y1="109.9" x2="57.5" y2="107.1"/>
			<line class="st0" x1="62.5" y1="12.9" x2="62.6" y2="10.1"/>
		</g>
	</g>
	<g>
		<g>
			<line class="st0" x1="56.5" y1="109.9" x2="56.7" y2="107.1"/>
			<line class="st0" x1="63.3" y1="12.9" x2="63.5" y2="10.1"/>
		</g>
	</g>
	<g>
		<g>
			<line class="st0" x1="55.6" y1="109.8" x2="55.9" y2="107"/>
			<line class="st0" x1="64.1" y1="13" x2="64.4" y2="10.2"/>
		</g>
	</g>
	<g>
		<g>
			<line class="st0" x1="54.8" y1="109.7" x2="55.1" y2="106.9"/>
			<line class="st0" x1="64.9" y1="13.1" x2="65.2" y2="10.3"/>
		</g>
	</g>
	<g>
		<g>
			<line class="st0" x1="53.9" y1="109.6" x2="54.3" y2="106.8"/>
			<line class="st0" x1="65.7" y1="13.2" x2="66.1" y2="10.4"/>
		</g>
	</g>
	<g>
		<g>
			<line class="st0" x1="53" y1="109.5" x2="53.4" y2="106.7"/>
			<line class="st0" x1="66.6" y1="13.3" x2="67" y2="10.5"/>
		</g>
	</g>
	<g>
		<g>
			<line class="st0" x1="52.2" y1="109.4" x2="52.6" y2="106.6"/>
			<line class="st0" x1="67.4" y1="13.4" x2="67.8" y2="10.6"/>
		</g>
	</g>
	<g>
		<g>
			<line class="st0" x1="51.3" y1="109.2" x2="51.8" y2="106.5"/>
			<line class="st0" x1="68.2" y1="13.5" x2="68.7" y2="10.8"/>
		</g>
	</g>
	<g>
		<g>
			<line class="st0" x1="50.5" y1="109.1" x2="51" y2="106.3"/>
			<line class="st0" x1="69" y1="13.7" x2="69.5" y2="10.9"/>
		</g>
	</g>
	<g>
		<g>
			<line class="st0" x1="49.6" y1="108.9" x2="50.2" y2="106.1"/>
			<line class="st0" x1="69.8" y1="13.9" x2="70.4" y2="11.1"/>
		</g>
	</g>
	<g>
		<g>
			<line class="st0" x1="48.8" y1="108.7" x2="49.4" y2="106"/>
			<line class="st0" x1="70.6" y1="14" x2="71.2" y2="11.3"/>
		</g>
	</g>
	<g>
		<g>
			<line class="st0" x1="47.9" y1="108.5" x2="48.6" y2="105.8"/>
			<line class="st0" x1="71.4" y1="14.2" x2="72.1" y2="11.5"/>
		</g>
	</g>
	<g>
		<g>
			<line class="st0" x1="47.1" y1="108.3" x2="47.8" y2="105.6"/>
			<line class="st0" x1="72.2" y1="14.4" x2="72.9" y2="11.7"/>
		</g>
	</g>
	<g>
		<g>
			<line class="st0" x1="46.2" y1="108.1" x2="47" y2="105.3"/>
			<line class="st0" x1="73" y1="14.7" x2="73.8" y2="11.9"/>
		</g>
	</g>
	<g>
		<g>
			<line class="st0" x1="45.4" y1="107.8" x2="46.2" y2="105.1"/>
			<line class="st0" x1="73.8" y1="14.9" x2="74.6" y2="12.2"/>
		</g>
	</g>
	<g>
		<g>
			<line class="st0" x1="44.5" y1="107.6" x2="45.4" y2="104.9"/>
			<line class="st0" x1="74.6" y1="15.1" x2="75.5" y2="12.4"/>
		</g>
	</g>
	<g>
		<g>
			<line class="st0" x1="43.7" y1="107.3" x2="44.6" y2="104.6"/>
			<line class="st0" x1="75.4" y1="15.4" x2="76.3" y2="12.7"/>
		</g>
	</g>
	<g>
		<g>
			<line class="st0" x1="42.9" y1="107" x2="43.9" y2="104.3"/>
			<line class="st0" x1="76.1" y1="15.7" x2="77.1" y2="13"/>
		</g>
	</g>
	<g>
		<g>
			<line class="st0" x1="42.1" y1="106.7" x2="43.1" y2="104"/>
			<line class="st0" x1="76.9" y1="16" x2="77.9" y2="13.3"/>
		</g>
	</g>
	<g>
		<g>
			<line class="st0" x1="41.3" y1="106.4" x2="42.3" y2="103.7"/>
			<line class="st0" x1="77.7" y1="16.3" x2="78.7" y2="13.6"/>
		</g>
	</g>
	<g>
		<g>
			<line class="st0" x1="40.5" y1="106" x2="41.6" y2="103.4"/>
			<line class="st0" x1="78.4" y1="16.6" x2="79.5" y2="14"/>
		</g>
	</g>
	<g>
		<g>
			<line class="st0" x1="39.7" y1="105.7" x2="40.8" y2="103.1"/>
			<line class="st0" x1="79.2" y1="16.9" x2="80.3" y2="14.3"/>
		</g>
	</g>
	<g>
		<g>
			<line class="st0" x1="38.9" y1="105.3" x2="40.1" y2="102.7"/>
			<line class="st0" x1="79.9" y1="17.3" x2="81.1" y2="14.7"/>
		</g>
	</g>
	<g>
		<g>
			<line class="st0" x1="38.1" y1="104.9" x2="39.3" y2="102.4"/>
			<line class="st0" x1="80.7" y1="17.6" x2="81.9" y2="15.1"/>
		</g>
	</g>
	<g>
		<g>
			<line class="st0" x1="37.3" y1="104.6" x2="38.6" y2="102"/>
			<line class="st0" x1="81.4" y1="18" x2="82.7" y2="15.4"/>
		</g>
	</g>
	<g>
		<g>
			<line class="st0" x1="36.5" y1="104.1" x2="37.9" y2="101.6"/>
			<line class="st0" x1="82.1" y1="18.4" x2="83.5" y2="15.9"/>
		</g>
	</g>
	<g>
		<g>
			<line class="st0" x1="35.8" y1="103.7" x2="37.1" y2="101.3"/>
			<line class="st0" x1="82.9" y1="18.7" x2="84.2" y2="16.3"/>
		</g>
	</g>
	<g>
		<g>
			<line class="st0" x1="35" y1="103.3" x2="36.4" y2="100.8"/>
			<line class="st0" x1="83.6" y1="19.2" x2="85" y2="16.7"/>
		</g>
	</g>
	<g>
		<g>
			<line class="st0" x1="34.2" y1="102.9" x2="35.7" y2="100.4"/>
			<line class="st0" x1="84.3" y1="19.6" x2="85.8" y2="17.1"/>
		</g>
	</g>
	<g>
		<g>
			<line class="st0" x1="33.5" y1="102.4" x2="35" y2="100"/>
			<line class="st0" x1="85" y1="20" x2="86.5" y2="17.6"/>
		</g>
	</g>
	<g>
		<g>
			<line class="st0" x1="32.8" y1="101.9" x2="34.3" y2="99.6"/>
			<line class="st0" x1="85.7" y1="20.4" x2="87.2" y2="18.1"/>
		</g>
	</g>
	<g>
		<g>
			<line class="st0" x1="32" y1="101.5" x2="33.6" y2="99.1"/>
			<line class="st0" x1="86.4" y1="20.9" x2="88" y2="18.5"/>
		</g>
	</g>
	<g>
		<g>
			<line class="st0" x1="31.3" y1="101" x2="32.9" y2="98.6"/>
			<line class="st0" x1="87.1" y1="21.4" x2="88.7" y2="19"/>
		</g>
	</g>
	<g>
		<g>
			<line class="st0" x1="30.6" y1="100.5" x2="32.3" y2="98.2"/>
			<line class="st0" x1="87.7" y1="21.8" x2="89.4" y2="19.5"/>
		</g>
	</g>
	<g>
		<g>
			<line class="st0" x1="29.9" y1="99.9" x2="31.6" y2="97.7"/>
			<line class="st0" x1="88.4" y1="22.3" x2="90.1" y2="20.1"/>
		</g>
	</g>
	<g>
		<g>
			<line class="st0" x1="29.2" y1="99.4" x2="31" y2="97.2"/>
			<line class="st0" x1="89" y1="22.8" x2="90.8" y2="20.6"/>
		</g>
	</g>
	<g>
		<g>
			<line class="st0" x1="28.5" y1="98.9" x2="30.3" y2="96.7"/>
			<line class="st0" x1="89.7" y1="23.3" x2="91.5" y2="21.1"/>
		</g>
	</g>
	<g>
		<g>
			<line class="st0" x1="27.9" y1="98.3" x2="29.7" y2="96.1"/>
			<line class="st0" x1="90.3" y1="23.9" x2="92.1" y2="21.7"/>
		</g>
	</g>
	<g>
		<g>
			<line class="st0" x1="27.2" y1="97.7" x2="29.1" y2="95.6"/>
			<line class="st0" x1="90.9" y1="24.4" x2="92.8" y2="22.3"/>
		</g>
	</g>
	<g>
		<g>
			<line class="st0" x1="26.5" y1="97.2" x2="28.4" y2="95.1"/>
			<line class="st0" x1="91.6" y1="24.9" x2="93.5" y2="22.8"/>
		</g>
	</g>
	<g>
		<g>
			<line class="st0" x1="25.9" y1="96.6" x2="27.8" y2="94.5"/>
			<line class="st0" x1="92.2" y1="25.5" x2="94.1" y2="23.4"/>
		</g>
	</g>
	<g>
		<g>
			<line class="st0" x1="25.3" y1="96" x2="27.2" y2="93.9"/>
			<line class="st0" x1="92.8" y1="26.1" x2="94.7" y2="24"/>
		</g>
	</g>
	<g>
		<g>
			<line class="st0" x1="24.6" y1="95.4" x2="26.6" y2="93.4"/>
			<line class="st0" x1="93.4" y1="26.6" x2="95.4" y2="24.6"/>
		</g>
	</g>
	<g>
		<g>
			<line class="st0" x1="24" y1="94.7" x2="26.1" y2="92.8"/>
			<line class="st0" x1="93.9" y1="27.2" x2="96" y2="25.3"/>
		</g>
	</g>
	<g>
		<g>
			<line class="st0" x1="23.4" y1="94.1" x2="25.5" y2="92.2"/>
			<line class="st0" x1="94.5" y1="27.8" x2="96.6" y2="25.9"/>
		</g>
	</g>
	<g>
		<g>
			<line class="st0" x1="22.8" y1="93.5" x2="24.9" y2="91.6"/>
			<line class="st0" x1="95.1" y1="28.4" x2="97.2" y2="26.5"/>
		</g>
	</g>
	<g>
		<g>
			<line class="st0" x1="22.3" y1="92.8" x2="24.4" y2="90.9"/>
			<line class="st0" x1="95.6" y1="29.1" x2="97.7" y2="27.2"/>
		</g>
	</g>
	<g>
		<g>
			<line class="st0" x1="21.7" y1="92.1" x2="23.9" y2="90.3"/>
			<line class="st0" x1="96.1" y1="29.7" x2="98.3" y2="27.9"/>
		</g>
	</g>
	<g>
		<g>
			<line class="st0" x1="21.1" y1="91.5" x2="23.3" y2="89.7"/>
			<line class="st0" x1="96.7" y1="30.3" x2="98.9" y2="28.5"/>
		</g>
	</g>
	<g>
		<g>
			<line class="st0" x1="20.6" y1="90.8" x2="22.8" y2="89"/>
			<line class="st0" x1="97.2" y1="31" x2="99.4" y2="29.2"/>
		</g>
	</g>
	<g>
		<g>
			<line class="st0" x1="20.1" y1="90.1" x2="22.3" y2="88.4"/>
			<line class="st0" x1="97.7" y1="31.6" x2="99.9" y2="29.9"/>
		</g>
	</g>
	<g>
		<g>
			<line class="st0" x1="19.5" y1="89.4" x2="21.8" y2="87.7"/>
			<line class="st0" x1="98.2" y1="32.3" x2="100.5" y2="30.6"/>
		</g>
	</g>
	<g>
		<g>
			<line class="st0" x1="19" y1="88.7" x2="21.4" y2="87.1"/>
			<line class="st0" x1="98.6" y1="32.9" x2="101" y2="31.3"/>
		</g>
	</g>
	<g>
		<g>
			<line class="st0" x1="18.5" y1="88" x2="20.9" y2="86.4"/>
			<line class="st0" x1="99.1" y1="33.6" x2="101.5" y2="32"/>
		</g>
	</g>
	<g>
		<g>
			<line class="st0" x1="18.1" y1="87.2" x2="20.4" y2="85.7"/>
			<line class="st0" x1="99.6" y1="34.3" x2="101.9" y2="32.8"/>
		</g>
	</g>
	<g>
		<g>
			<line class="st0" x1="17.6" y1="86.5" x2="20" y2="85"/>
			<line class="st0" x1="100" y1="35" x2="102.4" y2="33.5"/>
		</g>
	</g>
	<g>
		<g>
			<line class="st0" x1="17.1" y1="85.8" x2="19.6" y2="84.3"/>
			<line class="st0" x1="100.4" y1="35.7" x2="102.9" y2="34.2"/>
		</g>
	</g>
	<g>
		<g>
			<line class="st0" x1="16.7" y1="85" x2="19.2" y2="83.6"/>
			<line class="st0" x1="100.8" y1="36.4" x2="103.3" y2="35"/>
		</g>
	</g>
	<g>
		<g>
			<line class="st0" x1="16.3" y1="84.2" x2="18.7" y2="82.9"/>
			<line class="st0" x1="101.3" y1="37.1" x2="103.7" y2="35.8"/>
		</g>
	</g>
	<g>
		<g>
			<line class="st0" x1="15.9" y1="83.5" x2="18.4" y2="82.1"/>
			<line class="st0" x1="101.6" y1="37.9" x2="104.1" y2="36.5"/>
		</g>
	</g>
	<g>
		<g>
			<line class="st0" x1="15.4" y1="82.7" x2="18" y2="81.4"/>
			<line class="st0" x1="102" y1="38.6" x2="104.6" y2="37.3"/>
		</g>
	</g>
	<g>
		<g>
			<line class="st0" x1="15.1" y1="81.9" x2="17.6" y2="80.7"/>
			<line class="st0" x1="102.4" y1="39.3" x2="104.9" y2="38.1"/>
		</g>
	</g>
	<g>
		<g>
			<line class="st0" x1="14.7" y1="81.1" x2="17.3" y2="79.9"/>
			<line class="st0" x1="102.7" y1="40.1" x2="105.3" y2="38.9"/>
		</g>
	</g>
	<g>
		<g>
			<line class="st0" x1="14.3" y1="80.3" x2="16.9" y2="79.2"/>
			<line class="st0" x1="103.1" y1="40.8" x2="105.7" y2="39.7"/>
		</g>
	</g>
	<g>
		<g>
			<line class="st0" x1="14" y1="79.5" x2="16.6" y2="78.4"/>
			<line class="st0" x1="103.4" y1="41.6" x2="106" y2="40.5"/>
		</g>
	</g>
	<g>
		<g>
			<line class="st0" x1="13.6" y1="78.7" x2="16.3" y2="77.7"/>
			<line class="st0" x1="103.7" y1="42.3" x2="106.4" y2="41.3"/>
		</g>
	</g>
	<g>
		<g>
			<line class="st0" x1="13.3" y1="77.9" x2="16" y2="76.9"/>
			<line class="st0" x1="104" y1="43.1" x2="106.7" y2="42.1"/>
		</g>
	</g>
	<g>
		<g>
			<line class="st0" x1="13" y1="77.1" x2="15.7" y2="76.1"/>
			<line class="st0" x1="104.3" y1="43.9" x2="107" y2="42.9"/>
		</g>
	</g>
	<g>
		<g>
			<line class="st0" x1="12.7" y1="76.3" x2="15.4" y2="75.4"/>
			<line class="st0" x1="104.6" y1="44.6" x2="107.3" y2="43.7"/>
		</g>
	</g>
	<g>
		<g>
			<line class="st0" x1="12.4" y1="75.5" x2="15.1" y2="74.6"/>
			<line class="st0" x1="104.9" y1="45.4" x2="107.6" y2="44.5"/>
		</g>
	</g>
	<g>
		<g>
			<line class="st0" x1="12.2" y1="74.6" x2="14.9" y2="73.8"/>
			<line class="st0" x1="105.1" y1="46.2" x2="107.8" y2="45.4"/>
		</g>
	</g>
	<g>
		<g>
			<line class="st0" x1="11.9" y1="73.8" x2="14.7" y2="73"/>
			<line class="st0" x1="105.3" y1="47" x2="108.1" y2="46.2"/>
		</g>
	</g>
	<g>
		<g>
			<line class="st0" x1="11.7" y1="72.9" x2="14.4" y2="72.2"/>
			<line class="st0" x1="105.6" y1="47.8" x2="108.3" y2="47.1"/>
		</g>
	</g>
	<g>
		<g>
			<line class="st0" x1="11.5" y1="72.1" x2="14.2" y2="71.4"/>
			<line class="st0" x1="105.8" y1="48.6" x2="108.5" y2="47.9"/>
		</g>
	</g>
	<g>
		<g>
			<line class="st0" x1="11.3" y1="71.2" x2="14" y2="70.6"/>
			<line class="st0" x1="106" y1="49.4" x2="108.7" y2="48.8"/>
		</g>
	</g>
	<g>
		<g>
			<line class="st0" x1="11.1" y1="70.4" x2="13.9" y2="69.8"/>
			<line class="st0" x1="106.1" y1="50.2" x2="108.9" y2="49.6"/>
		</g>
	</g>
	<g>
		<g>
			<line class="st0" x1="10.9" y1="69.5" x2="13.7" y2="69"/>
			<line class="st0" x1="106.3" y1="51" x2="109.1" y2="50.5"/>
		</g>
	</g>
	<g>
		<g>
			<line class="st0" x1="10.8" y1="68.7" x2="13.5" y2="68.2"/>
			<line class="st0" x1="106.5" y1="51.8" x2="109.2" y2="51.3"/>
		</g>
	</g>
	<g>
		<g>
			<line class="st0" x1="10.6" y1="67.8" x2="13.4" y2="67.4"/>
			<line class="st0" x1="106.6" y1="52.6" x2="109.4" y2="52.2"/>
		</g>
	</g>
	<g>
		<g>
			<line class="st0" x1="10.5" y1="67" x2="13.3" y2="66.6"/>
			<line class="st0" x1="106.7" y1="53.4" x2="109.5" y2="53"/>
		</g>
	</g>
	<g>
		<g>
			<line class="st0" x1="10.4" y1="66.1" x2="13.2" y2="65.7"/>
			<line class="st0" x1="106.8" y1="54.3" x2="109.6" y2="53.9"/>
		</g>
	</g>
	<g>
		<g>
			<line class="st0" x1="10.3" y1="65.2" x2="13.1" y2="64.9"/>
			<line class="st0" x1="106.9" y1="55.1" x2="109.7" y2="54.8"/>
		</g>
	</g>
	<g>
		<g>
			<line class="st0" x1="10.2" y1="64.4" x2="13" y2="64.1"/>
			<line class="st0" x1="107" y1="55.9" x2="109.8" y2="55.6"/>
		</g>
	</g>
	<g>
		<g>
			<line class="st0" x1="10.1" y1="63.5" x2="12.9" y2="63.3"/>
			<line class="st0" x1="107.1" y1="56.7" x2="109.9" y2="56.5"/>
		</g>
	</g>
	<g>
		<g>
			<line class="st0" x1="10.1" y1="62.6" x2="12.9" y2="62.5"/>
			<line class="st0" x1="107.1" y1="57.5" x2="109.9" y2="57.4"/>
		</g>
	</g>
	<g>
		<g>
			<line class="st0" x1="10" y1="61.7" x2="12.9" y2="61.6"/>
			<line class="st0" x1="107.1" y1="58.4" x2="110" y2="58.3"/>
		</g>
	</g>
	<g>
		<g>
			<line class="st0" x1="10" y1="60.9" x2="12.8" y2="60.8"/>
			<line class="st0" x1="107.2" y1="59.2" x2="110" y2="59.1"/>
		</g>
	</g>
	<g>
		<g>
			<line class="st0" x1="10" y1="60" x2="12.8" y2="60"/>
			<line class="st0" x1="107.2" y1="60" x2="110" y2="60"/>
		</g>
	</g>
	<g>
		<g>
			<line class="st0" x1="10" y1="59.1" x2="12.8" y2="59.2"/>
			<line class="st0" x1="107.2" y1="60.8" x2="110" y2="60.9"/>
		</g>
	</g>
	<g>
		<g>
			<line class="st0" x1="10" y1="58.3" x2="12.9" y2="58.4"/>
			<line class="st0" x1="107.1" y1="61.6" x2="110" y2="61.7"/>
		</g>
	</g>
	<g>
		<g>
			<line class="st0" x1="10.1" y1="57.4" x2="12.9" y2="57.5"/>
			<line class="st0" x1="107.1" y1="62.5" x2="109.9" y2="62.6"/>
		</g>
	</g>
	<g>
		<g>
			<line class="st0" x1="10.1" y1="56.5" x2="12.9" y2="56.7"/>
			<line class="st0" x1="107.1" y1="63.3" x2="109.9" y2="63.5"/>
		</g>
	</g>
	<g>
		<g>
			<line class="st0" x1="10.2" y1="55.6" x2="13" y2="55.9"/>
			<line class="st0" x1="107" y1="64.1" x2="109.8" y2="64.4"/>
		</g>
	</g>
	<g>
		<g>
			<line class="st0" x1="10.3" y1="54.8" x2="13.1" y2="55.1"/>
			<line class="st0" x1="106.9" y1="64.9" x2="109.7" y2="65.2"/>
		</g>
	</g>
	<g>
		<g>
			<line class="st0" x1="10.4" y1="53.9" x2="13.2" y2="54.3"/>
			<line class="st0" x1="106.8" y1="65.7" x2="109.6" y2="66.1"/>
		</g>
	</g>
	<g>
		<g>
			<line class="st0" x1="10.5" y1="53" x2="13.3" y2="53.4"/>
			<line class="st0" x1="106.7" y1="66.6" x2="109.5" y2="67"/>
		</g>
	</g>
	<g>
		<g>
			<line class="st0" x1="10.6" y1="52.2" x2="13.4" y2="52.6"/>
			<line class="st0" x1="106.6" y1="67.4" x2="109.4" y2="67.8"/>
		</g>
	</g>
	<g>
		<g>
			<line class="st0" x1="10.8" y1="51.3" x2="13.5" y2="51.8"/>
			<line class="st0" x1="106.5" y1="68.2" x2="109.2" y2="68.7"/>
		</g>
	</g>
	<g>
		<g>
			<line class="st0" x1="10.9" y1="50.5" x2="13.7" y2="51"/>
			<line class="st0" x1="106.3" y1="69" x2="109.1" y2="69.5"/>
		</g>
	</g>
	<g>
		<g>
			<line class="st0" x1="11.1" y1="49.6" x2="13.9" y2="50.2"/>
			<line class="st0" x1="106.1" y1="69.8" x2="108.9" y2="70.4"/>
		</g>
	</g>
	<g>
		<g>
			<line class="st0" x1="11.3" y1="48.8" x2="14" y2="49.4"/>
			<line class="st0" x1="106" y1="70.6" x2="108.7" y2="71.2"/>
		</g>
	</g>
	<g>
		<g>
			<line class="st0" x1="11.5" y1="47.9" x2="14.2" y2="48.6"/>
			<line class="st0" x1="105.8" y1="71.4" x2="108.5" y2="72.1"/>
		</g>
	</g>
	<g>
		<g>
			<line class="st0" x1="11.7" y1="47.1" x2="14.4" y2="47.8"/>
			<line class="st0" x1="105.6" y1="72.2" x2="108.3" y2="72.9"/>
		</g>
	</g>
	<g>
		<g>
			<line class="st0" x1="11.9" y1="46.2" x2="14.7" y2="47"/>
			<line class="st0" x1="105.3" y1="73" x2="108.1" y2="73.8"/>
		</g>
	</g>
	<g>
		<g>
			<line class="st0" x1="12.2" y1="45.4" x2="14.9" y2="46.2"/>
			<line class="st0" x1="105.1" y1="73.8" x2="107.8" y2="74.6"/>
		</g>
	</g>
	<g>
		<g>
			<line class="st0" x1="12.4" y1="44.5" x2="15.1" y2="45.4"/>
			<line class="st0" x1="104.9" y1="74.6" x2="107.6" y2="75.5"/>
		</g>
	</g>
	<g>
		<g>
			<line class="st0" x1="12.7" y1="43.7" x2="15.4" y2="44.6"/>
			<line class="st0" x1="104.6" y1="75.4" x2="107.3" y2="76.3"/>
		</g>
	</g>
	<g>
		<g>
			<line class="st0" x1="13" y1="42.9" x2="15.7" y2="43.9"/>
			<line class="st0" x1="104.3" y1="76.1" x2="107" y2="77.1"/>
		</g>
	</g>
	<g>
		<g>
			<line class="st0" x1="13.3" y1="42.1" x2="16" y2="43.1"/>
			<line class="st0" x1="104" y1="76.9" x2="106.7" y2="77.9"/>
		</g>
	</g>
	<g>
		<g>
			<line class="st0" x1="13.6" y1="41.3" x2="16.3" y2="42.3"/>
			<line class="st0" x1="103.7" y1="77.7" x2="106.4" y2="78.7"/>
		</g>
	</g>
	<g>
		<g>
			<line class="st0" x1="14" y1="40.5" x2="16.6" y2="41.6"/>
			<line class="st0" x1="103.4" y1="78.4" x2="106" y2="79.5"/>
		</g>
	</g>
	<g>
		<g>
			<line class="st0" x1="14.3" y1="39.7" x2="16.9" y2="40.8"/>
			<line class="st0" x1="103.1" y1="79.2" x2="105.7" y2="80.3"/>
		</g>
	</g>
	<g>
		<g>
			<line class="st0" x1="14.7" y1="38.9" x2="17.3" y2="40.1"/>
			<line class="st0" x1="102.7" y1="79.9" x2="105.3" y2="81.1"/>
		</g>
	</g>
	<g>
		<g>
			<line class="st0" x1="15.1" y1="38.1" x2="17.6" y2="39.3"/>
			<line class="st0" x1="102.4" y1="80.7" x2="104.9" y2="81.9"/>
		</g>
	</g>
	<g>
		<g>
			<line class="st0" x1="15.4" y1="37.3" x2="18" y2="38.6"/>
			<line class="st0" x1="102" y1="81.4" x2="104.6" y2="82.7"/>
		</g>
	</g>
	<g>
		<g>
			<line class="st0" x1="15.9" y1="36.5" x2="18.4" y2="37.9"/>
			<line class="st0" x1="101.6" y1="82.1" x2="104.1" y2="83.5"/>
		</g>
	</g>
	<g>
		<g>
			<line class="st0" x1="16.3" y1="35.8" x2="18.7" y2="37.1"/>
			<line class="st0" x1="101.3" y1="82.9" x2="103.7" y2="84.2"/>
		</g>
	</g>
	<g>
		<g>
			<line class="st0" x1="16.7" y1="35" x2="19.2" y2="36.4"/>
			<line class="st0" x1="100.8" y1="83.6" x2="103.3" y2="85"/>
		</g>
	</g>
	<g>
		<g>
			<line class="st0" x1="17.1" y1="34.2" x2="19.6" y2="35.7"/>
			<line class="st0" x1="100.4" y1="84.3" x2="102.9" y2="85.8"/>
		</g>
	</g>
	<g>
		<g>
			<line class="st0" x1="17.6" y1="33.5" x2="20" y2="35"/>
			<line class="st0" x1="100" y1="85" x2="102.4" y2="86.5"/>
		</g>
	</g>
	<g>
		<g>
			<line class="st0" x1="18.1" y1="32.8" x2="20.4" y2="34.3"/>
			<line class="st0" x1="99.6" y1="85.7" x2="101.9" y2="87.2"/>
		</g>
	</g>
	<g>
		<g>
			<line class="st0" x1="18.5" y1="32" x2="20.9" y2="33.6"/>
			<line class="st0" x1="99.1" y1="86.4" x2="101.5" y2="88"/>
		</g>
	</g>
	<g>
		<g>
			<line class="st0" x1="19" y1="31.3" x2="21.4" y2="32.9"/>
			<line class="st0" x1="98.6" y1="87.1" x2="101" y2="88.7"/>
		</g>
	</g>
	<g>
		<g>
			<line class="st0" x1="19.5" y1="30.6" x2="21.8" y2="32.3"/>
			<line class="st0" x1="98.2" y1="87.7" x2="100.5" y2="89.4"/>
		</g>
	</g>
	<g>
		<g>
			<line class="st0" x1="20.1" y1="29.9" x2="22.3" y2="31.6"/>
			<line class="st0" x1="97.7" y1="88.4" x2="99.9" y2="90.1"/>
		</g>
	</g>
	<g>
		<g>
			<line class="st0" x1="20.6" y1="29.2" x2="22.8" y2="31"/>
			<line class="st0" x1="97.2" y1="89" x2="99.4" y2="90.8"/>
		</g>
	</g>
	<g>
		<g>
			<line class="st0" x1="21.1" y1="28.5" x2="23.3" y2="30.3"/>
			<line class="st0" x1="96.7" y1="89.7" x2="98.9" y2="91.5"/>
		</g>
	</g>
	<g>
		<g>
			<line class="st0" x1="21.7" y1="27.9" x2="23.9" y2="29.7"/>
			<line class="st0" x1="96.1" y1="90.3" x2="98.3" y2="92.1"/>
		</g>
	</g>
	<g>
		<g>
			<line class="st0" x1="22.3" y1="27.2" x2="24.4" y2="29.1"/>
			<line class="st0" x1="95.6" y1="90.9" x2="97.7" y2="92.8"/>
		</g>
	</g>
	<g>
		<g>
			<line class="st0" x1="22.8" y1="26.5" x2="24.9" y2="28.4"/>
			<line class="st0" x1="95.1" y1="91.6" x2="97.2" y2="93.5"/>
		</g>
	</g>
	<g>
		<g>
			<line class="st0" x1="23.4" y1="25.9" x2="25.5" y2="27.8"/>
			<line class="st0" x1="94.5" y1="92.2" x2="96.6" y2="94.1"/>
		</g>
	</g>
	<g>
		<g>
			<line class="st0" x1="24" y1="25.3" x2="26.1" y2="27.2"/>
			<line class="st0" x1="93.9" y1="92.8" x2="96" y2="94.7"/>
		</g>
	</g>
	<g>
		<g>
			<line class="st0" x1="24.6" y1="24.6" x2="26.6" y2="26.6"/>
			<line class="st0" x1="93.4" y1="93.4" x2="95.4" y2="95.4"/>
		</g>
	</g>
	<g>
		<g>
			<line class="st0" x1="25.3" y1="24" x2="27.2" y2="26.1"/>
			<line class="st0" x1="92.8" y1="93.9" x2="94.7" y2="96"/>
		</g>
	</g>
	<g>
		<g>
			<line class="st0" x1="25.9" y1="23.4" x2="27.8" y2="25.5"/>
			<line class="st0" x1="92.2" y1="94.5" x2="94.1" y2="96.6"/>
		</g>
	</g>
	<g>
		<g>
			<line class="st0" x1="26.5" y1="22.8" x2="28.4" y2="24.9"/>
			<line class="st0" x1="91.6" y1="95.1" x2="93.5" y2="97.2"/>
		</g>
	</g>
	<g>
		<g>
			<line class="st0" x1="27.2" y1="22.3" x2="29.1" y2="24.4"/>
			<line class="st0" x1="90.9" y1="95.6" x2="92.8" y2="97.7"/>
		</g>
	</g>
	<g>
		<g>
			<line class="st0" x1="27.9" y1="21.7" x2="29.7" y2="23.9"/>
			<line class="st0" x1="90.3" y1="96.1" x2="92.1" y2="98.3"/>
		</g>
	</g>
	<g>
		<g>
			<line class="st0" x1="28.5" y1="21.1" x2="30.3" y2="23.3"/>
			<line class="st0" x1="89.7" y1="96.7" x2="91.5" y2="98.9"/>
		</g>
	</g>
	<g>
		<g>
			<line class="st0" x1="29.2" y1="20.6" x2="31" y2="22.8"/>
			<line class="st0" x1="89" y1="97.2" x2="90.8" y2="99.4"/>
		</g>
	</g>
	<g>
		<g>
			<line class="st0" x1="29.9" y1="20.1" x2="31.6" y2="22.3"/>
			<line class="st0" x1="88.4" y1="97.7" x2="90.1" y2="99.9"/>
		</g>
	</g>
	<g>
		<g>
			<line class="st0" x1="30.6" y1="19.5" x2="32.3" y2="21.8"/>
			<line class="st0" x1="87.7" y1="98.2" x2="89.4" y2="100.5"/>
		</g>
	</g>
	<g>
		<g>
			<line class="st0" x1="31.3" y1="19" x2="32.9" y2="21.4"/>
			<line class="st0" x1="87.1" y1="98.6" x2="88.7" y2="101"/>
		</g>
	</g>
	<g>
		<g>
			<line class="st0" x1="32" y1="18.5" x2="33.6" y2="20.9"/>
			<line class="st0" x1="86.4" y1="99.1" x2="88" y2="101.5"/>
		</g>
	</g>
	<g>
		<g>
			<line class="st0" x1="32.8" y1="18.1" x2="34.3" y2="20.4"/>
			<line class="st0" x1="85.7" y1="99.6" x2="87.2" y2="101.9"/>
		</g>
	</g>
	<g>
		<g>
			<line class="st0" x1="33.5" y1="17.6" x2="35" y2="20"/>
			<line class="st0" x1="85" y1="100" x2="86.5" y2="102.4"/>
		</g>
	</g>
	<g>
		<g>
			<line class="st0" x1="34.2" y1="17.1" x2="35.7" y2="19.6"/>
			<line class="st0" x1="84.3" y1="100.4" x2="85.8" y2="102.9"/>
		</g>
	</g>
	<g>
		<g>
			<line class="st0" x1="35" y1="16.7" x2="36.4" y2="19.2"/>
			<line class="st0" x1="83.6" y1="100.8" x2="85" y2="103.3"/>
		</g>
	</g>
	<g>
		<g>
			<line class="st0" x1="35.8" y1="16.3" x2="37.1" y2="18.7"/>
			<line class="st0" x1="82.9" y1="101.3" x2="84.2" y2="103.7"/>
		</g>
	</g>
	<g>
		<g>
			<line class="st0" x1="36.5" y1="15.9" x2="37.9" y2="18.4"/>
			<line class="st0" x1="82.1" y1="101.6" x2="83.5" y2="104.1"/>
		</g>
	</g>
	<g>
		<g>
			<line class="st0" x1="37.3" y1="15.4" x2="38.6" y2="18"/>
			<line class="st0" x1="81.4" y1="102" x2="82.7" y2="104.6"/>
		</g>
	</g>
	<g>
		<g>
			<line class="st0" x1="38.1" y1="15.1" x2="39.3" y2="17.6"/>
			<line class="st0" x1="80.7" y1="102.4" x2="81.9" y2="104.9"/>
		</g>
	</g>
	<g>
		<g>
			<line class="st0" x1="38.9" y1="14.7" x2="40.1" y2="17.3"/>
			<line class="st0" x1="79.9" y1="102.7" x2="81.1" y2="105.3"/>
		</g>
	</g>
	<g>
		<g>
			<line class="st0" x1="39.7" y1="14.3" x2="40.8" y2="16.9"/>
			<line class="st0" x1="79.2" y1="103.1" x2="80.3" y2="105.7"/>
		</g>
	</g>
	<g>
		<g>
			<line class="st0" x1="40.5" y1="14" x2="41.6" y2="16.6"/>
			<line class="st0" x1="78.4" y1="103.4" x2="79.5" y2="106"/>
		</g>
	</g>
	<g>
		<g>
			<line class="st0" x1="41.3" y1="13.6" x2="42.3" y2="16.3"/>
			<line class="st0" x1="77.7" y1="103.7" x2="78.7" y2="106.4"/>
		</g>
	</g>
	<g>
		<g>
			<line class="st0" x1="42.1" y1="13.3" x2="43.1" y2="16"/>
			<line class="st0" x1="76.9" y1="104" x2="77.9" y2="106.7"/>
		</g>
	</g>
	<g>
		<g>
			<line class="st0" x1="42.9" y1="13" x2="43.9" y2="15.7"/>
			<line class="st0" x1="76.1" y1="104.3" x2="77.1" y2="107"/>
		</g>
	</g>
	<g>
		<g>
			<line class="st0" x1="43.7" y1="12.7" x2="44.6" y2="15.4"/>
			<line class="st0" x1="75.4" y1="104.6" x2="76.3" y2="107.3"/>
		</g>
	</g>
	<g>
		<g>
			<line class="st0" x1="44.5" y1="12.4" x2="45.4" y2="15.1"/>
			<line class="st0" x1="74.6" y1="104.9" x2="75.5" y2="107.6"/>
		</g>
	</g>
	<g>
		<g>
			<line class="st0" x1="45.4" y1="12.2" x2="46.2" y2="14.9"/>
			<line class="st0" x1="73.8" y1="105.1" x2="74.6" y2="107.8"/>
		</g>
	</g>
	<g>
		<g>
			<line class="st0" x1="46.2" y1="11.9" x2="47" y2="14.7"/>
			<line class="st0" x1="73" y1="105.3" x2="73.8" y2="108.1"/>
		</g>
	</g>
	<g>
		<g>
			<line class="st0" x1="47.1" y1="11.7" x2="47.8" y2="14.4"/>
			<line class="st0" x1="72.2" y1="105.6" x2="72.9" y2="108.3"/>
		</g>
	</g>
	<g>
		<g>
			<line class="st0" x1="47.9" y1="11.5" x2="48.6" y2="14.2"/>
			<line class="st0" x1="71.4" y1="105.8" x2="72.1" y2="108.5"/>
		</g>
	</g>
	<g>
		<g>
			<line class="st0" x1="48.8" y1="11.3" x2="49.4" y2="14"/>
			<line class="st0" x1="70.6" y1="106" x2="71.2" y2="108.7"/>
		</g>
	</g>
	<g>
		<g>
			<line class="st0" x1="49.6" y1="11.1" x2="50.2" y2="13.9"/>
			<line class="st0" x1="69.8" y1="106.1" x2="70.4" y2="108.9"/>
		</g>
	</g>
	<g>
		<g>
			<line class="st0" x1="50.5" y1="10.9" x2="51" y2="13.7"/>
			<line class="st0" x1="69" y1="106.3" x2="69.5" y2="109.1"/>
		</g>
	</g>
	<g>
		<g>
			<line class="st0" x1="51.3" y1="10.8" x2="51.8" y2="13.5"/>
			<line class="st0" x1="68.2" y1="106.5" x2="68.7" y2="109.2"/>
		</g>
	</g>
	<g>
		<g>
			<line class="st0" x1="52.2" y1="10.6" x2="52.6" y2="13.4"/>
			<line class="st0" x1="67.4" y1="106.6" x2="67.8" y2="109.4"/>
		</g>
	</g>
	<g>
		<g>
			<line class="st0" x1="53" y1="10.5" x2="53.4" y2="13.3"/>
			<line class="st0" x1="66.6" y1="106.7" x2="67" y2="109.5"/>
		</g>
	</g>
	<g>
		<g>
			<line class="st0" x1="53.9" y1="10.4" x2="54.3" y2="13.2"/>
			<line class="st0" x1="65.7" y1="106.8" x2="66.1" y2="109.6"/>
		</g>
	</g>
	<g>
		<g>
			<line class="st0" x1="54.8" y1="10.3" x2="55.1" y2="13.1"/>
			<line class="st0" x1="64.9" y1="106.9" x2="65.2" y2="109.7"/>
		</g>
	</g>
	<g>
		<g>
			<line class="st0" x1="55.6" y1="10.2" x2="55.9" y2="13"/>
			<line class="st0" x1="64.1" y1="107" x2="64.4" y2="109.8"/>
		</g>
	</g>
	<g>
		<g>
			<line class="st0" x1="56.5" y1="10.1" x2="56.7" y2="12.9"/>
			<line class="st0" x1="63.3" y1="107.1" x2="63.5" y2="109.9"/>
		</g>
	</g>
	<g>
		<g>
			<line class="st0" x1="57.4" y1="10.1" x2="57.5" y2="12.9"/>
			<line class="st0" x1="62.5" y1="107.1" x2="62.6" y2="109.9"/>
		</g>
	</g>
	<g>
		<g>
			<line class="st0" x1="58.3" y1="10" x2="58.4" y2="12.9"/>
			<line class="st0" x1="61.6" y1="107.1" x2="61.7" y2="110"/>
		</g>
	</g>
	<g>
		<g>
			<line class="st0" x1="59.1" y1="10" x2="59.2" y2="12.8"/>
			<line class="st0" x1="60.8" y1="107.2" x2="60.9" y2="110"/>
		</g>
	</g>
	<g>
		<g>
			<line class="st0" x1="60" y1="10" x2="60" y2="12.8"/>
			<line class="st0" x1="60" y1="107.2" x2="60" y2="110"/>
		</g>
	</g>
</g>
<text transform="matrix(1 0 0 1 57.0665 21.1998)" class="st1 st2">N</text>
<text transform="matrix(1 0 0 1 57.55 102.833)" class="st1 st2">S</text>
<text transform="matrix(1 0 0 1 98.7997 62.9337)" class="st1 st2">E</text>
<text transform="matrix(1 0 0 1 15.6001 62.9334)" class="st1 st2">W</text>
<text transform="matrix(1 0 0 1 84.1667 33.3333)" class="st1 st3">NE</text>
<text transform="matrix(1 0 0 1 84.1671 90.3006)" class="st1 st3">SE</text>
<text transform="matrix(1 0 0 1 27.4498 33.3335)" class="st1 st3">NW</text>
<text transform="matrix(1 0 0 1 27.45 90.3003)" class="st1 st3">SW</text>
<text transform="matrix(1 0 0 1 72.4167 22.7083)" class="st1 st4">NNE</text>
<text transform="matrix(1 0 0 1 92.5497 46.0839)" class="st1 st4">ENE</text>
<text transform="matrix(1 0 0 1 92.5499 76.8337)" class="st1 st4">ESE</text>
<text transform="matrix(1 0 0 1 72.9005 100.4996)" class="st1 st4">SSE</text>
<text transform="matrix(1 0 0 1 38.8996 100.3997)" class="st1 st4">SSW</text>
<text transform="matrix(1 0 0 1 19.5 76.8334)" class="st1 st4">WSW</text>
<text transform="matrix(1 0 0 1 19.4998 46.0839)" class="st1 st4">WNW</text>
<text transform="matrix(1 0 0 1 38.8998 22.3)" class="st1 st4">NNW</text>
<g>
	<g>
		<g id="XMLID_3_">
			<g>
				<polygon class="st5" points="60,35.4 64.9,55.1 60,60 				"/>
				<polygon class="st6" points="60,35.3 60,35.4 60,35.4 60,60 55.1,55.1 				"/>
			</g>
			<g>
				<polygon class="st0" points="60,35.4 64.9,55.1 60,60 55.1,55.1 60,35.3 				"/>
				<line class="st0" x1="60" y1="35.4" x2="60" y2="60"/>
			</g>
		</g>
	</g>
	<g>
		<g id="XMLID_4_">
			<g>
				<polygon class="st5" points="35.4,60 55.1,55.1 60,60 				"/>
				<polygon class="st6" points="35.3,60 35.4,60 35.4,60 60,60 55.1,64.9 				"/>
			</g>
			<g>
				<polygon class="st0" points="35.4,60 55.1,55.1 60,60 55.1,64.9 35.3,60 				"/>
				<line class="st0" x1="35.4" y1="60" x2="60" y2="60"/>
			</g>
		</g>
	</g>
	<g>
		<g id="XMLID_5_">
			<g>
				<polygon class="st5" points="60,84.6 55.1,64.9 60,60 				"/>
				<polygon class="st6" points="60,84.7 60,84.6 60,84.6 60,60 64.9,64.9 				"/>
			</g>
			<g>
				<polygon class="st0" points="60,84.6 55.1,64.9 60,60 64.9,64.9 60,84.7 				"/>
				<line class="st0" x1="60" y1="84.6" x2="60" y2="60"/>
			</g>
		</g>
	</g>
	<g>
		<g id="XMLID_6_">
			<g>
				<polygon class="st5" points="84.6,60 65,64.9 60,60 				"/>
				<polygon class="st6" points="84.8,60 84.6,60 84.6,60 60,60 65,55.1 				"/>
			</g>
			<g>
				<polygon class="st0" points="84.6,60 65,64.9 60,60 65,55.1 84.8,60 				"/>
				<line class="st0" x1="84.6" y1="60" x2="60" y2="60"/>
			</g>
		</g>
	</g>
</g>
<g id="XMLID_7_">
	<g>
		<polygon class="st5" points="55.5,53.5 55.1,55.1 55,55.1 45.9,45.9 		"/>
	</g>
	<g>
		<polyline class="st0" points="55,55.1 53.5,55.5 45.9,45.9 55.5,53.5 55.1,55.1 		"/>
		<polyline class="st0" points="45.9,45.9 55,55.1 55.1,55.1 55.1,55.1 		"/>
	</g>
</g>
<g id="XMLID_8_">
	<g>
		<polygon class="st5" points="64.9,55.1 74,45.9 66.5,55.5 		"/>
	</g>
	<g>
		<polyline class="st0" points="64.9,55.1 64.5,53.5 74,45.9 66.5,55.5 64.9,55.1 		"/>
		<polyline class="st0" points="74,45.9 64.9,55.1 64.9,55.1 64.9,55.1 		"/>
	</g>
</g>
<g id="XMLID_9_">
	<g>
		<polygon class="st5" points="64.5,66.5 64.9,64.9 64.9,64.9 74,74 		"/>
	</g>
	<g>
		<polyline class="st0" points="64.9,64.9 66.5,64.5 74,74 64.5,66.5 64.9,64.9 		"/>
		<polyline class="st0" points="74,74 64.9,64.9 64.9,64.9 64.9,64.9 		"/>
	</g>
</g>
<g id="XMLID_10_">
	<g>
		<polygon class="st5" points="55.1,65 46,74.1 53.5,64.6 		"/>
	</g>
	<g>
		<polyline class="st0" points="55.1,65 55.5,66.6 46,74.1 53.5,64.6 55.1,65 		"/>
		<polyline class="st0" points="46,74.1 55.1,65 55.1,65 55.1,65 		"/>
	</g>
</g>
</svg>
