<?xml version="1.0" encoding="utf-8"?>
<!-- Generator: Adobe Illustrator 19.0.0, SVG Export Plug-In . SVG Version: 6.00 Build 0)  -->
<svg version="1.1" id="Layer_1" xmlns="http://www.w3.org/2000/svg" xmlns:xlink="http://www.w3.org/1999/xlink" x="0px" y="0px"  width="100px" height="100px"
	 viewBox="45 -45 160 160" style="enable-background:new 45 -45 160 160;" xml:space="preserve">
<style type="text/css">
	.st0{fill:#333333;}
</style>

<g id="XMLID_1_">
	<g id="XMLID_2_">
		<path class="st0" d="M178.6,35c0,29.6-24,53.6-53.6,53.6S71.4,64.6,71.4,35s24-53.6,53.6-53.6S178.6,5.4,178.6,35z M125,83.8
			c27,0,48.8-21.9,48.8-48.8S152-13.8,125-13.8S76.2,8,76.2,35S98,83.8,125,83.8z"/>
	</g>
	<g id="XMLID_3_">
	</g>
</g>
<polygon id="XMLID_13_" class="st0" points="108.2,17.9 108.8,18.5 117.3,30.6 92,34.9 90.8,34.9 91.4,35 90.8,35.1 92,35.1
	117.3,39.5 108.8,51.5 108.2,52.1 108.5,51.9 108.3,52.2 108.9,51.6 121,43.1 125.3,68.4 125.3,69.6 125.4,69 125.5,69.6
	125.5,68.4 129.9,43.1 141.9,51.6 142.5,52.2 142.3,51.9 142.6,52.1 142,51.5 133.5,39.5 158.8,35.1 160,35.1 159.4,35 160,34.9
	158.8,34.9 133.5,30.6 142,18.5 142.6,17.9 142.3,18.2 142.5,17.8 141.9,18.4 129.9,26.9 125.5,1.6 125.5,0.4 125.4,1 125.3,0.4
	125.3,1.6 121,26.9 108.9,18.4 108.3,17.8 108.5,18.2 "/>
</svg>
