<?xml version="1.0" encoding="utf-8"?>
<!-- Generator: Adobe Illustrator 19.0.0, SVG Export Plug-In . SVG Version: 6.00 Build 0)  -->
<svg version="1.1" id="Layer_1" xmlns="http://www.w3.org/2000/svg" xmlns:xlink="http://www.w3.org/1999/xlink" x="0px" y="0px" width="160px" height="160px"
	 viewBox="45 -45 160 160" style="enable-background:new 45 -45 160 160;" xml:space="preserve">
<style type="text/css">
	.st0{fill:#333333;}
	.st1{fill:none;}
	.st2{fill:#333333;stroke:#333333;stroke-width:2;stroke-miterlimit:10;}
	.st3{font-family:'ArialMT';}
	.st4{font-size:42.5519px;}
</style>
<path id="XMLID_27_" class="st0" d="M90,115h30v-15H90V115z M90-30h30v-15H90V-30z M65-45c-11.1,0-20,9-20,20v15.1h15V-20
	c0-5.5,4.5-10,10-10h9.9l-0.1-15H65z M60,90V79.9H45V95c0,11.1,9,20,20,20h14.9l0.1-15H70C64.4,100,60,95.5,60,90z M60,0H45v30h15V0
	z M130,115h30v-15h-30V115z M185-45h-14.9L170-30h9.9c5.5,0,10,4.5,10,10v10h15v-15C205-36.1,196-45,185-45z M190,30h15V0h-15V30
	L190,30z M190,90c0,5.5-4.5,10-10,10h-9.9l0.1,15H185c11.1,0,20-9,20-20V79.9h-15V90L190,90z M130-30h30v-15h-30V-30z M190,70h15V40
	h-15V70L190,70z M60,40H45v30h15V40z"/>
<rect x="64.5" y="-26.5" class="st1" width="120.7" height="123"/>
<polygon class="st0" points="70.6,87.5 70.6,75.2 125.1,75.2 125.1,75.2 132.3,75.2 132.3,53.1 70.6,53.1 70.6,38.9 111.8,38.8
	111.8,16.8 70.6,16.8 70.6,4.2 92.5,4.2 92.5,-17.8 70.6,-17.8 70.6,-23.7 64.5,-23.7 64.5,93.7 185.3,93.7 185.3,87.5 "/>
<text transform="matrix(1 0 0 1 161.8555 7.1221)" class="st2 st3 st4">$</text>
</svg>
