<?xml version="1.0" encoding="utf-8"?>
<!-- Generator: Adobe Illustrator 19.0.0, SVG Export Plug-In . SVG Version: 6.00 Build 0)  -->
<svg version="1.1" id="Layer_1" xmlns="http://www.w3.org/2000/svg" xmlns:xlink="http://www.w3.org/1999/xlink" x="0px" y="0px"
	 viewBox="43.2 -37.1 156.2 156.2" style="enable-background:new 43.2 -37.1 156.2 156.2;" xml:space="preserve">
<style type="text/css">
	.st0{fill:none;stroke:#FFFFFF;stroke-width:7;stroke-miterlimit:10;}
	.st1{fill:#FFFFFF;}
</style>
<path class="st0" d="M178.8,115.6H63.7c-9.4,0-17-7.6-17-17V-16.6c0-9.4,7.6-17,17-17h115.2c9.4,0,17,7.6,17,17V98.6
	C195.8,108,188.2,115.6,178.8,115.6z"/>
<g id="Icons_with_numbers_2_">
	<g id="Group_2_" transform="translate(0.000000, -336.000000)">
		<path id="Shape_2_" class="st1" d="M181.7,438.6l-49-19l14.9-12.4c-18.2-29.7-27.3-57-10.6-90.8c-0.3,30.1,9.3,52,30.4,74.3
			l14.9-12.4L181.7,438.6z"/>
	</g>
</g>
<g id="Icons_with_numbers_1_">
	<g id="Group_1_" transform="translate(0.000000, -336.000000)">
		<path id="Shape_1_" class="st1" d="M64.1,378.3L79,390.7c21.1-22.3,30.7-44.2,30.4-74.3c16.7,33.9,7.6,61.1-10.6,90.8l14.9,12.4
			l-49,19L64.1,378.3z"/>
	</g>
</g>
</svg>
