<?xml version="1.0" encoding="utf-8"?>
<!-- Generator: Adobe Illustrator 19.0.0, SVG Export Plug-In . SVG Version: 6.00 Build 0)  -->
<svg version="1.1" id="Layer_1" xmlns="http://www.w3.org/2000/svg" xmlns:xlink="http://www.w3.org/1999/xlink" x="0px" y="0px" height="160px" width="160px"
	 viewBox="45 -45 160 160" style="enable-background:new 45 -45 160 160;" xml:space="preserve">
<style type="text/css">
	.st0{fill:#333333;}
</style>
<path class="st0" d="M90,115h30v-15H90V115z M90-30h30v-15H90V-30z M65-45c-11.1,0-20,9-20,20v15.1l15,0V-20c0-5.5,4.5-10,10-10h9.9
	l-0.1-15H65z M60,90V79.9l-15,0V95c0,11.1,9,20,20,20h14.9l0.1-15H70C64.4,100,60,95.5,60,90z M60,0H45v30h15V0z M130,115h30v-15
	h-30V115z M185-45h-14.9L170-30h9.9c5.5,0,10,4.5,10,10V-10l15,0V-25C205-36.1,196-45,185-45z M190,30h15V0h-15L190,30L190,30z
	 M190,90c0,5.5-4.5,10-10,10h-9.9l0.1,15H185c11.1,0,20-9,20-20V79.9l-15,0L190,90L190,90z M130-30h30v-15h-30V-30z M190,70h15V40
	h-15L190,70L190,70z M60,40H45v30h15V40z"/>
<g id="Icons_with_numbers">
	<g id="Group" transform="translate(0.000000, -336.000000)">
		<path id="Shape" class="st0" d="M183.5,430.7l-49-19l14.9-12.4c-18.2-29.7-27.3-57-10.6-90.8c-0.3,30.1,9.3,52,30.4,74.3
			l14.9-12.4L183.5,430.7z"/>
	</g>
</g>
<g id="Icons_with_numbers_1_">
	<g id="Group_1_" transform="translate(0.000000, -336.000000)">
		<path id="Shape_1_" class="st0" d="M65.9,370.4l14.9,12.4c21.1-22.3,30.7-44.2,30.4-74.3c16.7,33.9,7.6,61.1-10.6,90.8l14.9,12.4
			l-49,19L65.9,370.4z"/>
	</g>
</g>
</svg>
