<?xml version="1.0" encoding="utf-8"?>
<!-- Generator: Adobe Illustrator 19.0.0, SVG Export Plug-In . SVG Version: 6.00 Build 0)  -->
<svg version="1.1" id="Layer_1" xmlns="http://www.w3.org/2000/svg" xmlns:xlink="http://www.w3.org/1999/xlink" x="0px" y="0px"
	 viewBox="90 -90 160 160" style="enable-background:new 90 -90 160 160;" xml:space="preserve">
<style type="text/css">
	.st0{fill:#333333;}
</style>
<path class="st0" d="M135,70h30V55h-30V70z M135-75h30v-15h-30V-75z M110-90c-11.1,0-20,9-20,20v15.1h15V-65c0-5.5,4.5-10,10-10h9.9
	l-0.1-15H110z M105,45V34.9H90V50c0,11.1,9,20,20,20h14.9l0.1-15h-10C109.4,55,105,50.5,105,45z M105-45H90v30h15V-45z M175,70h30
	V55h-30V70z M230-90h-14.9L215-75h9.9c5.5,0,10,4.5,10,10v10h15v-15C250-81.1,241-90,230-90z M235-15h15v-30h-15V-15L235-15z
	 M235,45c0,5.5-4.5,10-10,10h-9.9l0.1,15H230c11.1,0,20-9,20-20V34.9h-15V45L235,45z M175-75h30v-15h-30V-75z M235,25h15V-5h-15V25
	L235,25z M105-5H90v30h15V-5z"/>
<g>
	<path class="st0" d="M223.4-51.8c3.3,3.1,1.8,8.5-6.2,12.4L135,0.6c-3.5,1.7-7.7,1.3-10.8-1.1l-12.4-9.6c-1-0.8-1.2-2.2-0.4-3.2
		l3.2-4.2c0.8-1,2.1-1.4,3.3-1l14.1,4.7l27.1-15.6L132-42.8c-0.5-0.3-0.9-0.7-1-1.3c-0.1-0.6,0-1.2,0.4-1.6l4.1-5.4
		c0.7-0.9,1.8-1.3,2.8-1.1l46.8,7.2c0,0,12.4-5.6,18.9-8.6C211.9-57.2,219.8-55.1,223.4-51.8z M193.5-16.1
		c-15.2,0-27.6,12.3-27.6,27.6S178.3,39,193.5,39c15.2,0,27.6-12.3,27.6-27.6S208.7-16.1,193.5-16.1z M184.7,29.8l0.2,0.5
		c-7.2-3.2-12.2-10.5-12.2-18.9c0-2.1,0.3-4,0.9-5.9l1.7,4.2l3.5,4l2.4,1l0.8,1.6l-0.2,4.7l3.4,3.1l-1.2,1.4L184.7,29.8z M203.5,0.6
		L204,3l-4.1,2.7l-0.5,4.6l2.1,1.8l0.4,3.3l2.3,2.3l1.1,4.5l-3,2.9l2.3,3.7c-3.2,2.1-7.1,3.3-11.2,3.3c-1.4,0-2.8-0.1-4.2-0.4
		l2.3-1.8l-0.2-1.8l3.1-1.5l0.8-2.5l1.2-1.6l-0.5-1.5l-3.2-1.5l-2.4-3.8l-5.9-1.8l-0.3-1.9l-3.1-2.2l0.3-1.9l2.6-0.4l1.3,1.3
		l1.5-0.9L186,6.6l4.8-3.6l0-1.7l2.7-2.4l-2.6-3.4l2.1-2.9l-0.5-1.7c0.3,0,0.6,0,0.9,0c5.2,0,9.9,1.9,13.5,5.1L205-2.8l-2.3-0.3
		l-0.5,2.5L203.5,0.6z"/>
</g>
</svg>
