<?xml version="1.0" encoding="utf-8"?>
<!-- Generator: Adobe Illustrator 19.0.0, SVG Export Plug-In . SVG Version: 6.00 Build 0)  -->
<svg version="1.1" id="Layer_1" xmlns="http://www.w3.org/2000/svg" xmlns:xlink="http://www.w3.org/1999/xlink" x="0px" y="0px"
	 viewBox="90 -90 160 160" style="enable-background:new 90 -90 160 160;" xml:space="preserve">
<style type="text/css">
	.st0{fill:#333333;}
	.st1{fill:none;}
</style>
<path class="st0" d="M135,70h30V55h-30V70z M135-75h30v-15h-30V-75z M110-90c-11.1,0-20,9-20,20v15.1h15V-65c0-5.5,4.5-10,10-10h9.9
	l-0.1-15H110z M105,45V34.9H90V50c0,11.1,9,20,20,20h14.9l0.1-15h-10C109.4,55,105,50.5,105,45z M105-45H90v30h15V-45z M175,70h30
	V55h-30V70z M230-90h-14.9L215-75h9.9c5.5,0,10,4.5,10,10v10h15v-15C250-81.1,241-90,230-90z M235-15h15v-30h-15V-15L235-15z
	 M235,45c0,5.5-4.5,10-10,10h-9.9l0.1,15H230c11.1,0,20-9,20-20V34.9h-15V45L235,45z M175-75h30v-15h-30V-75z M235,25h15V-5h-15V25
	L235,25z M105-5H90v30h15V-5z"/>
<path class="st0" d="M135.1-57.1c2.9,0,5.5,1.2,7.4,3.1c1.9,1.9,3.1,4.5,3.1,7.4c0,2.9-1.2,5.5-3.1,7.4c-1.9,1.9-4.5,3.1-7.4,3.1
	s-5.5-1.2-7.4-3.1c-1.9-1.9-3.1-4.5-3.1-7.4c0-2.9,1.2-5.5,3.1-7.4C129.6-55.9,132.2-57.1,135.1-57.1z M139.5-51
	c-1.1-1.1-2.7-1.8-4.4-1.8s-3.3,0.7-4.4,1.8c-1.1,1.1-1.8,2.7-1.8,4.4c0,1.7,0.7,3.3,1.8,4.4c1.1,1.1,2.7,1.8,4.4,1.8
	c1.7,0,3.3-0.7,4.4-1.8c1.1-1.1,1.8-2.7,1.8-4.4C141.3-48.3,140.6-49.9,139.5-51z"/>
<path class="st0" d="M123.1-56.2c1.4-1.7,3.1-3.1,5.1-4.1c1.9-1,4.1-1.5,6.4-1.6c0.2,0,0.5,0,0.7,0c0.3,0,0.5,0,0.7,0
	c2.3,0.1,4.4,0.6,6.4,1.6c2,1,3.7,2.4,5.1,4.1c3.5,4.4,3.4,11.3,1.5,18.2c-2.4,8.7-7.7,17.8-11.9,22.1c-0.3,0.3-0.6,0.6-1,0.7
	c-0.3,0.1-0.7,0.2-1,0.1c-0.3,0-0.7-0.1-0.9-0.2l0,0l0,0l0,0c-0.2-0.1-0.3-0.2-0.5-0.3c-0.1-0.1-0.2-0.2-0.3-0.3
	c-4.2-4.3-9.5-13.4-11.9-22.1C119.7-45,119.5-51.8,123.1-56.2L123.1-56.2z M130.1-56.6c-1.4,0.7-2.7,1.8-3.7,3
	c-2.6,3.2-2.3,8.7-0.7,14.4c2,7.2,6.1,14.7,9.7,18.9c3.6-4.3,7.7-11.7,9.7-18.9c1.6-5.8,1.8-11.2-0.7-14.4c-1-1.3-2.3-2.3-3.7-3
	c-1.4-0.7-2.9-1.1-4.6-1.2c-0.2,0-0.4,0-0.6,0c-0.2,0-0.4,0-0.6,0C133.1-57.7,131.5-57.3,130.1-56.6L130.1-56.6z M135.5-17.5
	L135.5-17.5L135.5-17.5L135.5-17.5L135.5-17.5z M135.5-17.5L135.5-17.5L137-18l0,0L135.5-17.5L135.5-17.5z"/>
<path class="st0" d="M200.9-10.9c3.6,0,6.8,1.5,9.2,3.8c2.4,2.4,3.8,5.6,3.8,9.2c0,3.6-1.5,6.8-3.8,9.2s-5.6,3.8-9.2,3.8
	c-3.6,0-6.8-1.5-9.2-3.8c-2.4-2.4-3.8-5.6-3.8-9.2c0-3.6,1.5-6.8,3.8-9.2S197.4-10.9,200.9-10.9z M207.1-4c-1.6-1.6-3.8-2.6-6.2-2.6
	c-2.4,0-4.6,1-6.2,2.6c-1.6,1.6-2.6,3.8-2.6,6.2c0,2.4,1,4.6,2.6,6.2c1.6,1.6,3.8,2.6,6.2,2.6c2.4,0,4.6-1,6.2-2.6
	c1.6-1.6,2.6-3.8,2.6-6.2C209.7-0.3,208.7-2.5,207.1-4L207.1-4z"/>
<path class="st0" d="M185.8-9.9c1.7-2.2,3.9-4,6.5-5.2c2.4-1.2,5.2-1.9,8-2c0.3,0,0.6,0,1,0c0.3,0,0.7,0,0.9,0c2.9,0.1,5.6,0.8,8,2
	c2.5,1.3,4.7,3,6.4,5.2c4.5,5.6,4.3,14.2,1.9,23.1c-3.1,11.2-9.9,22.9-15.3,28.4c-0.3,0.4-0.7,0.6-1.1,0.8c-0.3,0.1-0.7,0.2-1,0.1
	c-0.3,0-0.7-0.1-1-0.3l0,0l0,0l0,0c-0.2-0.1-0.3-0.2-0.4-0.3c-0.2-0.1-0.3-0.3-0.4-0.4c-5.5-5.5-12.2-17.2-15.3-28.4
	C181.5,4.3,181.4-4.4,185.8-9.9L185.8-9.9z M194.2-11.4c-2,1-3.7,2.4-5.1,4.1c-3.5,4.3-3.2,11.7-1.1,19.3
	c2.7,9.8,8.3,19.9,13.2,25.4c4.8-5.5,10.5-15.6,13.2-25.4c2.1-7.7,2.4-15-1.1-19.3c-1.4-1.7-3.1-3.1-5-4.1c-1.9-0.9-4-1.5-6.2-1.6
	c-0.3,0-0.6,0-0.8,0c-0.3,0-0.5,0-0.8,0C198.2-12.9,196.1-12.3,194.2-11.4L194.2-11.4z M201.4,40L201.4,40l-0.1,0l0,0L201.4,40
	L201.4,40z M201.4,40L201.4,40l1.4-0.5l0,0L201.4,40z"/>
<path class="st0" d="M135.5-19.3c-1.2,0-2.1,1-2.1,2.2c0,1.2,1,2.1,2.2,2.1c1.8,0,3.9-0.2,6.2-0.5c7.2-0.7,16.5-1.6,17.6,1.8
	c0.8,2.4-4.9,4.6-9.9,6.4c-5.2,1.9-9.9,3.7-9.7,7.3c0.3,4,6.6,4.2,14,4.4c7.2,0.2,15.7,0.4,18.6,3.3c0.9,0.9,0.8,1.6,0.2,2.2
	c-1.4,1.4-4.2,2.8-7.4,4.3c-7.4,3.6-16.1,7.8-14.5,16c0.7,4,7.3,6.6,17,8.3c9,1.6,20.8,2.8,33,3.8c1.2,0.1,2.2-0.8,2.3-2
	c0.1-1.2-0.8-2.2-2-2.3c-12.1-1-23.8-2.1-32.6-3.7c-8-1.5-13.3-3.1-13.6-4.9c-0.9-5,6.1-8.4,12.2-11.4c3.5-1.7,6.7-3.2,8.5-5.1
	c2.5-2.5,2.9-5.1-0.2-8.2c-4.1-4.1-13.5-4.4-21.5-4.6c-5.4-0.2-9.9-0.3-9.9-0.4c0-0.4,3.3-1.6,6.9-3c6.8-2.6,14.6-5.5,12.5-11.8
	c-2.2-6.6-13.3-5.6-22-4.7C139.1-19.6,137.1-19.4,135.5-19.3L135.5-19.3z"/>
<rect x="102" y="-78" class="st1" width="136.5" height="136.5"/>
</svg>
