<?xml version="1.0" encoding="utf-8"?>
<!-- Generator: Adobe Illustrator 19.0.0, SVG Export Plug-In . SVG Version: 6.00 Build 0)  -->
<svg version="1.1" id="Layer_1" xmlns="http://www.w3.org/2000/svg" xmlns:xlink="http://www.w3.org/1999/xlink" x="0px" y="0px" width="160px" height="160px"
	 viewBox="90 -90 160 160" style="enable-background:new 90 -90 160 160;" xml:space="preserve">
<style type="text/css">
	.st0{fill:#333333;}
</style>
<path class="st0" d="M135,70h30V55h-30V70z M135-75h30v-15h-30V-75z M110-90c-11.1,0-20,9-20,20v15.1h15V-65c0-5.5,4.5-10,10-10h9.9
	l-0.1-15H110z M105,45V34.9H90V50c0,11.1,9,20,20,20h14.9l0.1-15h-10C109.4,55,105,50.5,105,45z M105-45H90v30h15V-45z M175,70h30
	V55h-30V70z M230-90h-14.9L215-75h9.9c5.5,0,10,4.5,10,10v10h15v-15C250-81.1,241-90,230-90z M235-15h15v-30h-15V-15L235-15z
	 M235,45c0,5.5-4.5,10-10,10h-9.9l0.1,15H230c11.1,0,20-9,20-20V34.9h-15V45L235,45z M175-75h30v-15h-30V-75z M235,25h15V-5h-15V25
	L235,25z M105-5H90v30h15V-5z"/>
</svg>
