<?xml version="1.0" encoding="utf-8"?>
<!-- Generator: Adobe Illustrator 19.0.0, SVG Export Plug-In . SVG Version: 6.00 Build 0)  -->
<svg version="1.1" id="Globe" xmlns="http://www.w3.org/2000/svg" xmlns:xlink="http://www.w3.org/1999/xlink" x="0px" y="0px" width="25px" height="25px"
	 viewBox="-69 71 20 20" style="enable-background:new -69 71 20 20;" xml:space="preserve">
<style type="text/css">
	.st0{fill:#999999;}
</style>
<g id="XMLID_1_">
	<g>
		<path class="st0" d="M-59,71.4c5.3,0,9.6,4.3,9.6,9.6s-4.3,9.6-9.6,9.6s-9.6-4.3-9.6-9.6S-64.3,71.4-59,71.4z M-50.8,81
			c0-3.6-2.3-6.7-5.6-7.8c-0.2,0.2-0.3,0.5-0.3,0.6c0.2,2.2,1.7,0.5,2,0.9c1,1.2-1.9,1.5-0.9,3.6c0.5,1,1.1,1.3,1.9,1.3
			c0.8,0,1.1,1.4,1.2,2c0.1,0.6,0,2.1-0.3,2.8c-0.3,0.7,0,1.3,0.3,1.5C-51.5,84.6-50.8,82.9-50.8,81z M-54.5,87.8
			c-0.4-0.7-1.7-0.7-2.4-0.7c-0.8,0.1-1.7,0.6-2.2,0.7c-0.6,0.1-1,0.3-1.5,0.3c-0.4,0-0.5,0.3-1,0.6c0.8,0.3,1.7,0.4,2.6,0.4
			C-57.3,89.2-55.8,88.7-54.5,87.8z M-58.8,80.9c1.1-2.9-2.3-3.1-2.8-3.3c-0.5-0.2-1.3-0.2-1.6-0.1c-0.3,0.1-0.9-0.4-0.9-0.8
			s1.2-1.3,1.6-1.9c0.4-0.6,0.7-0.5,1.3-1.1c0.3-0.3,0.8-0.4,1-0.8c-3,0.4-5.5,2.4-6.5,5.2c0.6,0.1,2.1,0.1,2.2,0.6
			c0.2,0.5-0.6,1-0.6,2.1c0,1.2,1.5,1.2,1.5,2.1s0.3,1.9,0.3,2.2c0,0.3,1.3,1.9,1.7,1.9c0.5,0,0.1-1.8,0.1-2.3
			c0-0.3,0.2-1.3,0.3-1.5C-60.7,81.7-59.1,81.8-58.8,80.9z"/>
	</g>
	<g>
	</g>
</g>
</svg>
