<?xml version="1.0" encoding="utf-8"?>
<!-- Generator: Adobe Illustrator 19.0.0, SVG Export Plug-In . SVG Version: 6.00 Build 0)  -->
<svg version="1.1" id="Layer_1" xmlns="http://www.w3.org/2000/svg" xmlns:xlink="http://www.w3.org/1999/xlink" x="0px" y="0px" width="160px" height="160px"
	 viewBox="45 -45 160 160" style="enable-background:new 45 -45 160 160;" xml:space="preserve">
<style type="text/css">
	.st0{fill:#FF9999;}
</style>

<path class="st0" d="M82-5.7H68v9.3h14V-5.7z M140,61.8l-2.4-4l8.9-5.3V38.2l-39.7,23.6l-2.4-4l14.9-8.8V31.6H86.7v18.7H82v-42H68
	v83.9h111.6v-54L140,61.8z M128.6,75.1h-9.3v-9.3h9.3V75.1z M161.3,75.1h-9.3v-9.3h9.3V75.1z M76.2-10.2c1,0,1.8-0.5,2.2-1.3
	c0.7,0.3,1.4,0.5,2.1,0.5c2.2,0,4.1-1.4,4.8-3.4c0.1,0,0.3,0,0.4,0.1c0.8,3.4,3.9,5.9,7.5,5.9c2.1,0,4-0.8,5.4-2.2
	c0.9,1.3,2.5,2.2,4.2,2.2c1.7,0,3.2-0.8,4.1-2.1c0.6,0.2,1.2,0.4,1.9,0.4c2.8,0,5.2-2.3,5.2-5.2c0-2.8-2.3-5.1-5.2-5.1
	c-1.7,0-3.2,0.8-4.1,2.1c-0.6-0.2-1.2-0.4-1.9-0.4c-0.8,0-1.5,0.2-2.2,0.5c-0.9-3.3-3.9-5.7-7.4-5.7c-1.2,0-2.3,0.3-3.2,0.7
	c-0.9-0.9-2.2-1.5-3.6-1.5c-2.2,0-4.1,1.4-4.8,3.4c-0.4-0.1-0.7-0.1-1.1-0.1c-2.8,0-5.2,2.3-5.2,5.1c0,0.3,0,0.6,0.1,1
	c-1.1,0.3-1.9,1.3-1.9,2.5C73.6-11.4,74.8-10.2,76.2-10.2z M103.9,17.7c-2.5,0.5-4.2,2.9-3.7,5.4c0.5,2.5,2.9,4.2,5.4,3.7
	c2.5-0.5,4.2-2.9,3.7-5.4C108.9,18.9,106.4,17.2,103.9,17.7z M109.6,14.6c0.9,5.1,5.8,8.4,10.9,7.4c0.9-0.2,1.7-0.4,2.4-0.8
	c3.5,2.7,8.1,3.9,12.8,3c3.6-0.7,6.6-2.5,8.9-4.9c2.1,2.2,5.2,3.3,8.4,2.7c5.1-0.9,8.4-5.8,7.4-10.9c-0.9-5.1-5.8-8.4-10.9-7.4
	c-0.4,0.1-0.8,0.2-1.2,0.3c-2.2-8.2-10.3-13.4-18.8-11.8c-6.3,1.2-11,5.8-12.7,11.5c0,0,0,0,0,0C112,4.7,108.6,9.6,109.6,14.6z"/>
</svg>
