<?xml version="1.0" encoding="utf-8"?>
<!-- Generator: Adobe Illustrator 19.0.0, SVG Export Plug-In . SVG Version: 6.00 Build 0)  -->
<svg version="1.1" id="Layer_1" xmlns="http://www.w3.org/2000/svg" xmlns:xlink="http://www.w3.org/1999/xlink" x="0px" y="0px"
	 viewBox="39.2 -25.9 156.2 156.2" style="enable-background:new 39.2 -25.9 156.2 156.2;" xml:space="preserve">
<style type="text/css">
	.st0{fill:none;stroke:#FFFFFF;stroke-width:7;stroke-miterlimit:10;}
	.st1{fill:#FFFF66;}
</style>
<path class="st0" d="M174.8,126.8H59.7c-9.4,0-17-7.6-17-17V-5.4c0-9.4,7.6-17,17-17h115.2c9.4,0,17,7.6,17,17v115.2
	C191.8,119.2,184.2,126.8,174.8,126.8z"/>
<g>
	<g>
		<path class="st1" d="M138.3,12.8H136c-1.9,0-3.4,1.4-3.4,3.1v15.3c0,1.7,1.5,3.1,3.4,3.1h2.3c1.9,0,3.4-1.4,3.4-3.1V15.9
			C141.7,14.2,140.2,12.8,138.3,12.8z"/>
		<path class="st1" d="M115.6,18.6c0.5,0,0.9,0.1,1.3,0.1V8.6c0-1.7-1.5-3-3.3-3h-2.2c-1.8,0-3.3,1.4-3.3,3v10.2
			C111.3,18.6,114.2,18.6,115.6,18.6L115.6,18.6z"/>
		<path class="st1" d="M122.5,23.9c0.2,1.6-0.1,4.2-2.1,5.5c0.4,1.5,1.5,1.9,3.2,1.9h2.4c2,0,3.6-1.5,3.6-3.3V12.1
			c0-1.8-1.6-3.3-3.6-3.3h-2.4c-2,0-3.6,1.5-3.6,3.3V20C121.5,21,122.4,22.4,122.5,23.9z"/>
		<path class="st1" d="M135.9,37.3c-3,0-5.5-2.3-5.5-5.2v-0.3c-1,1.2-2.6,2-4.3,2h-2.5c-2.4,0-4.8-1.2-5.5-3.3
			c-0.3,0.1-9.4,3.1-9.4,3.1l15.8,7.4c1.3,0.6-0.3,3.2-1,3.5c-0.4,0.2-1.2,0-1.7-0.2l-0.5-0.2l-18.2-10.7c-0.3-0.1-0.5-0.4-0.4-0.7
			c0-0.3,0.2-0.6,0.5-0.7l11.9-3.3c0.3-0.1,3.6-1,3.2-3.9c-0.5-2.8-1.6-3-3-3.2s-5-0.1-8,0.1c-5,0.3-7.8,0.8-10.1,1.9
			c-2.4,1.1-6.3,5.7-5.4,12.3c1.5,11.2,8.8,20.6,8.8,20.6v46.4h34.3V55.1c3.7-3.9,5.6-11.7,6.5-18.6c-0.8,0.5-1.8,0.8-2.8,0.8
			C138.6,37.3,135.9,37.3,135.9,37.3z"/>
		<path class="st1" d="M97.1,20.4c2.2-0.8,5.1-1.3,7.9-1.6V6.7c0-1.9-1.6-3.4-3.6-3.4h-1.9c-2,0-3.6,1.5-3.6,3.4v13.5
			c0,0.2,0,0.4,0.1,0.7C96.4,20.7,96.8,20.5,97.1,20.4z"/>
	</g>
	<g>
		<path class="st1" d="M172.9,40.6h-1.2c-1,0-1.8,0.8-1.8,1.7v8.2c0,0.9,0.8,1.7,1.8,1.7h1.2c1,0,1.8-0.8,1.8-1.7v-8.2
			C174.7,41.4,173.9,40.6,172.9,40.6z"/>
		<path class="st1" d="M160.8,43.7c0.3,0,0.5,0,0.7,0.1v-5.4c0-0.9-0.8-1.6-1.8-1.6h-1.2c-1,0-1.8,0.7-1.8,1.6v5.4
			C158.5,43.7,160.1,43.7,160.8,43.7L160.8,43.7z"/>
		<path class="st1" d="M164.5,46.5c0.1,0.9-0.1,2.3-1.1,3c0.2,0.8,0.8,1,1.7,1h1.3c1,0,1.9-0.8,1.9-1.7v-8.5c0-1-0.8-1.7-1.9-1.7
			h-1.3c-1,0-1.9,0.8-1.9,1.7v4.2C164,45,164.4,45.8,164.5,46.5z"/>
		<path class="st1" d="M171.6,53.7c-1.6,0-2.9-1.2-2.9-2.8v-0.2c-0.5,0.7-1.4,1.1-2.3,1.1h-1.3c-1.3,0-2.6-0.6-3-1.8
			c-0.1,0-5,1.7-5,1.7l8.4,4c0.7,0.3-0.2,1.7-0.6,1.9c-0.2,0.1-0.7,0-0.9-0.1l-0.3-0.1l-9.7-5.7c-0.2-0.1-0.2-0.2-0.2-0.4
			s0.1-0.3,0.3-0.3l6.3-1.7c0.1,0,1.9-0.5,1.7-2.1c-0.2-1.5-0.9-1.6-1.6-1.7c-0.7-0.1-2.7-0.1-4.3,0c-2.7,0.2-4.2,0.4-5.4,1
			c-1.3,0.6-3.4,3-2.9,6.6c0.8,6,4.7,11,4.7,11v24.7h18.3V63.2c2-2.1,3-6.2,3.5-9.9c-0.4,0.3-1,0.4-1.5,0.4H171.6L171.6,53.7z"/>
		<path class="st1" d="M151,44.7c1.2-0.4,2.7-0.7,4.2-0.8v-6.4c0-1-0.9-1.8-1.9-1.8h-1c-1.1,0-1.9,0.8-1.9,1.8v7.2
			c0,0.1,0,0.2,0,0.4C150.6,44.8,150.8,44.7,151,44.7z"/>
	</g>
	<g>
		<path class="st1" d="M83,40.6h-1.2c-1,0-1.8,0.8-1.8,1.7v8.2c0,0.9,0.8,1.7,1.8,1.7H83c1,0,1.8-0.8,1.8-1.7v-8.2
			C84.9,41.4,84,40.6,83,40.6z"/>
		<path class="st1" d="M70.9,43.7c0.3,0,0.5,0,0.7,0.1v-5.4c0-0.9-0.8-1.6-1.8-1.6h-1.2c-1,0-1.8,0.7-1.8,1.6v5.4
			C68.7,43.7,70.2,43.7,70.9,43.7L70.9,43.7z"/>
		<path class="st1" d="M74.6,46.5c0.1,0.9-0.1,2.3-1.1,3c0.2,0.8,0.8,1,1.7,1h1.3c1,0,1.9-0.8,1.9-1.7v-8.5c0-1-0.8-1.7-1.9-1.7
			h-1.3c-1,0-1.9,0.8-1.9,1.7v4.2C74.1,45,74.5,45.8,74.6,46.5z"/>
		<path class="st1" d="M81.8,53.7c-1.6,0-2.9-1.2-2.9-2.8v-0.2c-0.5,0.7-1.4,1.1-2.3,1.1h-1.4c-1.3,0-2.6-0.6-3-1.8
			c-0.1,0-5,1.7-5,1.7l8.4,4c0.7,0.3-0.2,1.7-0.6,1.9c-0.2,0.1-0.7,0-0.9-0.1l-0.3-0.1l-9.7-5.7c-0.2-0.1-0.2-0.2-0.2-0.4
			S64,51,64.2,51l6.3-1.7c0.1,0,1.9-0.5,1.7-2.1c-0.2-1.5-0.9-1.6-1.6-1.7c-0.7-0.1-2.7-0.1-4.3,0c-2.7,0.2-4.2,0.4-5.4,1
			c-1.3,0.6-3.4,3-2.9,6.6c0.8,6,4.7,11,4.7,11v24.7H81V63.2c2-2.1,3-6.2,3.5-9.9c-0.4,0.3-1,0.4-1.5,0.4H81.8L81.8,53.7z"/>
		<path class="st1" d="M61.1,44.7c1.2-0.4,2.7-0.7,4.2-0.8v-6.4c0-1-0.9-1.8-1.9-1.8h-1c-1.1,0-1.9,0.8-1.9,1.8v7.2
			c0,0.1,0,0.2,0,0.4C60.7,44.8,60.9,44.7,61.1,44.7z"/>
	</g>
</g>
</svg>
