<?xml version="1.0" encoding="utf-8"?>
<!-- Generator: Adobe Illustrator 19.0.0, SVG Export Plug-In . SVG Version: 6.00 Build 0)  -->
<svg version="1.1" id="Layer_1" xmlns="http://www.w3.org/2000/svg" xmlns:xlink="http://www.w3.org/1999/xlink" x="0px" y="0px" width="160px" height="160px"
	 viewBox="45 -45 160 160" style="enable-background:new 45 -45 160 160;" xml:space="preserve">
<style type="text/css">
	.st0{fill:#FF9999;}
	.st1{fill:none;}
</style>

<rect x="50" y="-33.8" class="st1" width="147.5" height="147.5"/>
<path id="XMLID_31_" class="st0" d="M143.2,96.5c0,0.1,0.1,0.2,0.1,0.3C143.2,96.7,143.2,96.6,143.2,96.5z"/>
<path class="st0" d="M64.5,56.6C68,66.2,75.6,75.7,87.4,85c25.6,3.1,51,1.9,76.2-3.5c11.7-10.3,18.4-20.5,20-30.3
	C144.2,57.8,104.5,59.6,64.5,56.6z"/>
<path class="st0" d="M108.3-17c-2.7,0.6-26,73.2-26,73.2s24.3-23,39.4-10.1C136.1,58.5,111-17.6,108.3-17z"/>
<path class="st0" d="M124-9c-3.7,0.4,6.2,63.1,6.2,63.1s29.6-16.8,41.2-11C183.1,48.9,127.8-9.4,124-9z"/>
</svg>
