<?xml version="1.0" encoding="utf-8"?>
<!-- Generator: Adobe Illustrator 19.0.0, SVG Export Plug-In . SVG Version: 6.00 Build 0)  -->
<svg version="1.1" id="Layer_1" xmlns="http://www.w3.org/2000/svg" xmlns:xlink="http://www.w3.org/1999/xlink" x="0px" y="0px"
	 viewBox="39.2 -25.9 156.2 157.2" style="enable-background:new 39.2 -25.9 156.2 157.2;" xml:space="preserve">
<style type="text/css">
	.st0{fill:none;stroke:#FFFFFF;stroke-width:7;stroke-miterlimit:10;}
	.st1{fill:none;}
	.st2{fill:#FF9999;}
	.st3{fill:none;stroke:#FFFF66;stroke-width:3;stroke-miterlimit:10;}
	.st4{fill:#FFFF66;}
</style>
<path class="st0" d="M174.8,126.8H59.7c-9.4,0-17-7.6-17-17V-5.4c0-9.4,7.6-17,17-17h115.2c9.4,0,17,7.6,17,17v115.2
	C191.8,119.2,184.2,126.8,174.8,126.8z"/>
<rect x="41.2" y="-17.2" class="st1" width="147.5" height="147.5"/>
<path id="XMLID_31_" class="st2" d="M134.4,113.1c0,0.1,0.1,0.2,0.1,0.3C134.4,113.3,134.4,113.2,134.4,113.1z"/>
<rect x="42.2" y="-16.2" class="st1" width="147.5" height="147.5"/>
<path id="XMLID_17_" class="st3" d="M174.1,107.5c-2.9-2.3-7.5-5.3-13.5-5.5c-12.1-0.6-16.2,10.8-27.7,11
	c-12.3,0.2-14.8-12.4-27.2-12.3c-11.6,0.1-15.2,11.1-27.5,11.3c-7.3,0.1-13.4-3.7-17.4-6.9"/>
<path id="surfboard.svg" class="st4" d="M66.2,15.3c-0.4-0.3-0.9-0.3-1.3,0c-0.4,0.4-10.5,9.3-10.5,27.9c0,26.8,3.8,40.3,11.2,40.3
	s11.2-13.6,11.2-40.3C76.8,24.6,66.7,15.7,66.2,15.3z M56.4,43.2c0-13.9,6.1-22.2,8.7-25.2v63.5C59.6,80.7,56.4,66.9,56.4,43.2z
	 M66.1,81.5V18c2.6,2.9,8.7,11.2,8.7,25.2C74.8,66.9,71.6,80.7,66.1,81.5z"/>
<path id="surfboard.svg_1_" class="st4" d="M165.2-8.5c-0.6-0.4-1.3-0.4-1.8,0c-0.6,0.6-14.6,12.9-14.6,38.8c0,37.3,5.3,56,15.6,56
	s15.6-18.9,15.6-56C180,4.5,165.9-7.9,165.2-8.5z M151.6,30.3c0-19.3,8.5-30.9,12.1-35v88.3C156,82.5,151.6,63.3,151.6,30.3z
	 M165.1,83.6V-4.7c3.6,4,12.1,15.6,12.1,35C177.2,63.3,172.7,82.5,165.1,83.6z"/>
<path id="surfboard.svg_3_" class="st4" d="M106.6-1.8c-0.5-0.4-1.1-0.4-1.6,0c-0.5,0.5-13.2,11.7-13.2,35
	c0,33.6,4.8,50.6,14.1,50.6S120,66.7,120,33.2C119.9,9.9,107.3-1.3,106.6-1.8z M94.3,33.2c0-17.4,7.7-27.9,10.9-31.6v79.7
	C98.4,80.3,94.3,63,94.3,33.2z M106.5,81.3V1.6c3.3,3.6,10.9,14.1,10.9,31.6C117.4,63,113.4,80.3,106.5,81.3z"/>
<path id="surfboard.svg_2_" class="st4" d="M83.6,33.5c-0.3-0.2-0.6-0.2-0.9,0c-0.3,0.3-7.4,6.5-7.4,19.6c0,18.8,2.7,28.3,7.9,28.3
	s7.9-9.5,7.9-28.3C91.1,40,84,33.8,83.6,33.5z M76.8,53.1c0-9.8,4.3-15.6,6.1-17.7v44.5C79,79.4,76.8,69.7,76.8,53.1z M83.6,79.9
	V35.4c1.8,2,6.1,7.9,6.1,17.7C89.7,69.7,87.4,79.4,83.6,79.9z"/>
<path id="surfboard.svg_4_" class="st4" d="M136,4.3c-0.4-0.3-1-0.3-1.4,0c-0.4,0.4-11.5,10.2-11.5,30.5c0,29.3,4.2,44.1,12.2,44.1
	c8.1,0,12.2-14.9,12.2-44.1C147.6,14.5,136.5,4.7,136,4.3z M125.3,34.8c0-15.2,6.7-24.3,9.5-27.6v69.4
	C128.8,75.8,125.3,60.7,125.3,34.8z M135.9,76.7V7.3c2.8,3.2,9.5,12.2,9.5,27.6C145.4,60.7,141.9,75.8,135.9,76.7z"/>
<g>
	<path class="st4" d="M153.1,52.1c-8.1,0-15.1,5.3-19,13.1c-2.5-1.9-5.4-3-8.5-3c-3.7,0-7,1.5-9.7,4c-3.5-5.5-8.9-9-15-9
		c-2.4,0-4.6,0.5-6.7,1.5c-1.2-1.9-3.3-3.2-5.7-3.2c-3.7,0-6.7,3-6.7,6.7c0,2.4,1.3,4.5,3.2,5.7c-0.8,1.3-1.3,2.7-1.8,4
		c-0.5,0.3-1,0.7-1.5,1.2c-2.4-3.8-6.1-6.2-10.4-6.2c-7.2,0-13.1,7.2-13.1,16c0,3,2,5.3,4.4,5.3h17.5c0.2,0,0.3,0,0.5,0s0.3,0,0.5,0
		h7.1h7.6h17.8c0.3,0,0.5,0,0.7-0.1c0.2,0,0.5,0.1,0.7,0.1h21.2c0.3,0,0.7,0,1-0.1c0.4,0.1,0.7,0.1,1.1,0.1h29.6c4.1,0,7.4-4,7.4-9
		C175.2,64.3,165.3,52.1,153.1,52.1z"/>
	<path class="st4" d="M153.1,49.5c7.5,0,13.6-6.1,13.6-13.6s-6.1-13.6-13.6-13.6s-13.6,6.1-13.6,13.6S145.6,49.5,153.1,49.5z"/>
	<path class="st4" d="M100.9,55.1c6.4,0,11.6-5.2,11.6-11.6s-5.2-11.6-11.6-11.6s-11.6,5.2-11.6,11.6S94.5,55.1,100.9,55.1z"/>
	<circle class="st4" cx="125.6" cy="50.6" r="9.8"/>
	<circle class="st4" cx="71.4" cy="57.3" r="8"/>
</g>
<path id="XMLID_1_" class="st3" d="M173.4,98.1c-2.9-2.3-7.5-5.3-13.5-5.5c-12.1-0.6-16.2,10.8-27.7,11
	c-12.3,0.2-14.8-12.4-27.2-12.3c-11.6,0.1-15.2,11.1-27.5,11.3c-7.3,0.1-13.4-3.7-17.4-6.9"/>
</svg>
