<?xml version="1.0" encoding="utf-8"?>
<!-- Generator: Adobe Illustrator 19.0.0, SVG Export Plug-In . SVG Version: 6.00 Build 0)  -->
<svg version="1.1" id="Layer_1" xmlns="http://www.w3.org/2000/svg" xmlns:xlink="http://www.w3.org/1999/xlink" x="0px" y="0px" width="160px" height="160px"
	 viewBox="45 -45 160 160" style="enable-background:new 45 -45 160 160;" xml:space="preserve">
<style type="text/css">
	.st0{fill:#FF9999;}
	.st1{fill:none;}
	.st2{fill:none;stroke:#000000;stroke-miterlimit:10;}
	.st3{fill:none;stroke:#FF9999;stroke-width:12;stroke-miterlimit:10;}
	.st4{fill:none;stroke:#FFFFFF;stroke-miterlimit:10;}
	.st5{fill:none;stroke:#FF9999;stroke-width:6;stroke-miterlimit:10;}
</style>
<path class="st0" d="M90,115h30v-15H90V115z M90-30h30v-15H90V-30z M65-45c-11.1,0-20,9-20,20v15.1h15V-20c0-5.5,4.5-10,10-10h9.9
	l-0.1-15H65z M60,90V79.9H45V95c0,11.1,9,20,20,20h14.9l0.1-15H70C64.4,100,60,95.5,60,90z M60,0H45v30h15V0z M130,115h30v-15h-30
	V115z M185-45h-14.9L170-30h9.9c5.5,0,10,4.5,10,10v10h15v-15C205-36.1,196-45,185-45z M190,30h15V0h-15V30L190,30z M190,90
	c0,5.5-4.5,10-10,10h-9.9l0.1,15H185c11.1,0,20-9,20-20V79.9h-15V90L190,90z M130-30h30v-15h-30V-30z M190,70h15V40h-15V70L190,70z
	 M60,40H45v30h15V40z"/>
<rect x="50" y="-33.8" class="st1" width="147.5" height="147.5"/>
<path id="XMLID_2_" class="st2" d="M108.6,46.2"/>
<path id="XMLID_63_" class="st0" d="M168.5,53.9c-0.1,0.2-0.2,0.5-0.1,0.9c0.3,1.9,1,3.7,2,5.3c0.1,0.3,0.3,0.5,0.6,0.6
	c0.2,0.1,0.5,0.2,0.7,0.2c0.4,0.1,0.9,0.2,1.3,0.3c0.7,0.2,1.4,0.4,2.1,0.3c1.8-0.1,3.2-0.9,2.6-1.8l0,0c0.1,0,0.2-0.1,0.3-0.2
	c0.1-0.1,0.1-0.3,0.1-0.4c0.1-1.2-0.5-2.4-1.1-3.4c-0.5-1-1.1-2-2.1-2.4c-0.5-0.2-1-0.2-1.5-0.3c-0.5-0.1-1-0.3-1.4-0.4
	c-1.2-0.2-2.3,0.4-3.3,1.2C168.7,53.8,168.6,53.8,168.5,53.9z M180.6,54.8c1,1.9,2.4,4.2,1.6,6.2c0.3,1.8-1.4,3-2.9,3.8
	c-1.6,0.9-3.6,1.8-5.1,0.7c-1.5-1.1-3.7-1.1-4.8-2.6c-0.2-0.3-0.4-0.6-0.7-0.9c-0.3-4.2-0.6-7-0.6-7c-0.8-1.5-1.6-3.1-2.5-4.5l0,0
	c0.1-0.1,0.1-0.2,0.2-0.3c0.5-0.7,1.7-0.8,2.5-1.1c1.1-0.6,1.8-1.6,3.1-1.6c1.3,0,2.4,1.2,3.6,1.8c0.9,0.4,2,0.3,2.8,0.9
	C179.2,51.4,179.7,53.1,180.6,54.8z"/>
<path id="XMLID_60_" class="st0" d="M167.5,35.9c1.5,1.7,0.6,4-0.4,5.9c-1,1.9-2.4,4.2-4.6,4.2c-1.2-1.6-2.5-3-3.8-4.4
	c0.1,0,0.2-0.1,0.3-0.1c0.8-0.3,1.7-0.6,2.4-1.1c1.8-1.3,2.6-3.1,1.4-3.7c0.1-0.1,0.1-0.3,0.2-0.5c0-0.2-0.1-0.4-0.2-0.5
	c-0.7-1.3-2.1-2.1-3.5-2.7c-1.2-0.6-2.5-1.3-3.8-1c-0.6,0.2-1.2,0.5-1.8,0.7c-0.6,0.2-1.2,0.3-1.8,0.5c-0.8,0.4-1.4,1.1-1.9,1.9
	c-1.5-0.9-3.1-1.6-4.7-2.3c0.4-1.1,0.6-2.3,1.7-3c1.3-0.9,3.3-0.4,4.9-0.6c1.2-0.2,2.2-1.1,3.5-1c2.4,0.2,4,1.5,6.1,2.7
	C163.9,32,166.9,33.4,167.5,35.9z"/>
<path id="XMLID_57_" class="st0" d="M165.6,50.5c0.9,1.4,1.7,2.9,2.5,4.5c0,0,0.3,2.8,0.6,7c-1.5-1.8-3.3-3.1-4-4.9
	c-0.7-1.7,0.5-3.9,0.5-5.4C165.2,51.3,165.4,50.9,165.6,50.5z"/>
<path id="XMLID_51_" class="st0" d="M92.4,94.1c-0.5-0.6-0.9-1.4-1.3-2.4c2.4-1.2,4.2-3.9,6.8-5.8c1.8-1.4,1.7-4.1,3-6
	c1.3-1.8,0.1-4.3-1-6.3c-1.1-1.9-2.5-3.9-4.8-3.5c-1.8-0.6-3.9,0.2-5.7,1.2c0.1-0.9,0.1-1.9,0.2-2.8c2.1-1.2,3.9-3.3,6.2-4.8
	c1.9-1.2,2-3.9,3.5-5.7c1.4-1.7,0.5-4.3-0.5-6.3c-1-2-2.3-4.1-4.5-3.9c-0.3-0.1-0.6-0.3-1-0.3c0.2-0.7,0.4-1.3,0.6-2
	c1,0.5,2.1,1,3.3,0.8c2.7-0.4,5.3-2.6,8.3-3.8c2.1-0.8,2.8-3.5,4.5-4.9c1.7-1.4,1.3-4.1,0.8-6.3c0-0.1,0-0.2-0.1-0.2l4.9-0.5
	c0,0.3,0,0.6,0.1,0.9c0.3,0.6,0.6,1.3,1.2,1.7c1.6,0.9,3.1,3.7,5.3,4c2.7,0.4,5.8-0.9,9.1-1.1c2.3-0.1,3.7-2.5,5.8-3.3
	c0.9-0.3,1.5-1.1,1.9-1.9c2.2,0.5,4.4,1.3,6.4,2.1c-0.1,0.2-0.2,0.5-0.3,0.7c-0.5,0.9-1.7,1.8-1.7,2.9c0,0.7,0,1.5,0.4,2
	c1.1,1.5,1.3,4.6,3.2,5.8c2.3,1.5,5.7,1.5,8.8,2.7c2.1,0.8,4.4-0.8,6.6-0.7c0,0,0.1,0,0.2,0c1.1,1.4,2.1,2.9,3.1,4.5l0,0
	c-0.2,0.4-0.5,0.8-0.4,1.2c0,1.5-1.2,3.7-0.5,5.4c0.8,1.8,2.5,3.2,4,4.9c0.6,8.8,1,23.8-1.7,32.3 M159.2,60.5
	c1.7-1.4,1.3-4.1,0.8-6.3s-1.4-4.4-3.6-4.7c-2.1-1.5-5.3-0.5-7.8,0.1c-2.4,0.5-4.5,0.6-6.4,2.1c-1,0.7-1.1,2.1-2,3.1
	c-1.1,1.2-2.9,2.1-3.2,3.7c-0.3,1.5,0.6,2.6,1,4.1c0.3,1,0,2.5,0.6,3.3c0.5,0.5,0.9,1.1,1.6,1.3c1.8,0.4,4,2.5,6.2,2.2
	c2.7-0.4,5.3-2.6,8.3-3.8C156.8,64.6,157.4,61.9,159.2,60.5z M163,82.7c1.7-1.4,1.3-4.1,0.8-6.3s-1.4-4.4-3.6-4.7
	c-2.1-1.5-5.3-0.5-7.8,0.1c-2.4,0.5-4.5,0.6-6.4,2.1c-1,0.7-1.1,2.1-2,3.1c-1.1,1.2-2.9,2.1-3.2,3.7c-0.3,1.5,0.6,2.6,1,4.1
	c0.3,1,0,2.5,0.6,3.3c0.5,0.5,0.9,1.1,1.6,1.3c1.8,0.4,4,2.5,6.2,2.2c2.7-0.4,5.3-2.6,8.3-3.8C160.6,86.8,161.2,84.1,163,82.7z
	 M136.1,49.2c1.7-1.4,1.3-4.1,0.8-6.3s-1.4-4.4-3.6-4.7c-2.1-1.5-5.3-0.5-7.8,0.1c-2.4,0.5-4.5,0.6-6.4,2.1c-1,0.7-1.1,2.1-2,3.1
	c-1.1,1.2-2.9,2.1-3.2,3.7c-0.3,1.5,0.6,2.6,1,4.1c0.3,1,0,2.5,0.6,3.3c0.5,0.5,0.9,1.1,1.6,1.3c1.8,0.4,4,2.5,6.2,2.2
	c2.7-0.4,5.3-2.6,8.3-3.8C133.7,53.3,134.3,50.6,136.1,49.2z M130.1,75.5c1.7-1.4,1.3-4.1,0.8-6.3s-1.4-4.4-3.6-4.7
	c-2.1-1.5-5.3-0.5-7.8,0.1c-2.4,0.5-4.5,0.6-6.4,2.1c-1,0.7-1.1,2.1-2,3.1c-1.1,1.2-2.9,2.1-3.2,3.7c-0.3,1.5,0.6,2.6,1,4.1
	c0.3,1,0,2.5,0.6,3.3c0.5,0.5,0.9,1.1,1.6,1.3c1.8,0.4,4,2.5,6.2,2.2c2.7-0.4,5.3-2.6,8.3-3.8C127.7,79.6,128.4,77,130.1,75.5z"/>
<path id="XMLID_50_" class="st0" d="M149.3,37c0,0.2,0.2,0.5,0.5,1c1.6,1.7,3.6,3.2,5.7,4.1c0.3,0.2,0.7,0.3,1.1,0.3
	c0.3,0,0.6-0.1,0.9-0.2c0.4-0.1,0.8-0.3,1.2-0.5c1.3,1.4,2.7,2.8,3.8,4.4c0,0-0.1,0-0.2,0c-2.3-0.1-4.5,1.4-6.6,0.7
	c-3.1-1.1-6.4-1.2-8.8-2.7c-1.9-1.2-2.1-4.3-3.2-5.8c-0.4-0.6-0.4-1.3-0.4-2c0-1,1.2-2,1.7-2.9c0.1-0.2,0.2-0.5,0.3-0.7
	c1.6,0.7,3.2,1.5,4.7,2.3c-0.3,0.5-0.5,1-0.7,1.6C149.4,36.7,149.3,36.8,149.3,37L149.3,37z"/>
<path id="XMLID_46_" class="st0" d="M143.4,62.3c0.2,0.2,0.5,0.3,1,0.4c2.3,0.3,4.7,0,7-0.7c0.3-0.1,0.7-0.3,1-0.5
	c0.2-0.2,0.4-0.5,0.5-0.7c0.3-0.5,0.5-1,0.8-1.4c0.4-0.8,0.9-1.6,1-2.5c0.5-2.2-0.1-4.1-1.4-3.7c0-0.2-0.1-0.3-0.2-0.5
	c-0.1-0.1-0.3-0.3-0.5-0.3c-1.4-0.4-2.9-0.1-4.4,0.2c-1.3,0.3-2.7,0.7-3.4,1.8c-0.4,0.5-0.6,1.1-0.9,1.7c-0.3,0.5-0.7,1-1,1.6
	c-0.6,1.4-0.2,2.9,0.4,4.3C143.3,62.1,143.3,62.2,143.4,62.3z M160,54.2c0.5,2.2,0.9,4.9-0.8,6.3c-1.8,1.4-2.4,4.1-4.5,4.9
	c-3.1,1.2-5.6,3.4-8.3,3.8c-2.2,0.3-4.4-1.8-6.2-2.2c-0.7-0.2-1.2-0.7-1.6-1.3c-0.7-0.8-0.4-2.3-0.6-3.3c-0.4-1.5-1.3-2.6-1-4.1
	c0.4-1.6,2.2-2.5,3.2-3.7c0.8-1,0.9-2.3,2-3.1c1.9-1.4,4.1-1.5,6.4-2.1c2.5-0.6,5.7-1.5,7.8-0.1C158.5,49.7,159.4,52,160,54.2z"/>
<path id="XMLID_43_" class="st0" d="M147.2,84.6c0.2,0.2,0.5,0.3,1,0.4c2.3,0.3,4.7,0,7-0.7c0.3-0.1,0.7-0.3,1-0.5
	c0.2-0.2,0.4-0.5,0.5-0.7c0.3-0.5,0.5-1,0.8-1.4c0.4-0.8,0.9-1.6,1-2.5c0.5-2.2-0.1-4.1-1.4-3.7c0-0.2-0.1-0.3-0.2-0.5
	c-0.1-0.1-0.3-0.3-0.5-0.3c-1.4-0.4-2.9-0.1-4.4,0.2c-1.3,0.3-2.7,0.7-3.4,1.8c-0.4,0.5-0.6,1.1-0.9,1.7c-0.3,0.5-0.7,1-1,1.6
	c-0.6,1.4-0.2,2.9,0.4,4.3C147.1,84.4,147.1,84.5,147.2,84.6z M163.7,76.4c0.5,2.2,0.9,4.9-0.8,6.3c-1.8,1.4-2.4,4.1-4.5,4.9
	c-3.1,1.2-5.6,3.4-8.3,3.8c-2.2,0.3-4.4-1.8-6.2-2.2c-0.7-0.2-1.2-0.7-1.6-1.3c-0.7-0.8-0.4-2.3-0.6-3.3c-0.4-1.5-1.3-2.6-1-4.1
	c0.4-1.6,2.2-2.5,3.2-3.7c0.8-1,0.9-2.3,2-3.1c1.9-1.4,4.1-1.5,6.4-2.1c2.5-0.6,5.7-1.5,7.8-0.1C162.3,72,163.2,74.2,163.7,76.4z"/>
<path id="XMLID_40_" class="st0" d="M149.3,37c0-0.1,0-0.2,0.1-0.3C149.4,36.8,149.4,36.9,149.3,37z"/>
<path id="XMLID_36_" class="st0" d="M121.5,29.5c0,0.1,0.1,0.3,0.3,0.3l-6.1,0.6c0.1-0.8,0.5-1.7,0.5-2.4c0.1-1.6-0.5-2.9,0.3-4.2
	c0.8-1.4,2.8-1.7,4.2-2.6c1.1-0.7,1.6-1.9,2.8-2.3c2.3-0.8,4.3-0.2,6.7,0c2.6,0.2,5.9,0.2,7.5,2.3c2.1,0.9,2.2,3.3,2.1,5.6
	c-0.1,1.3-0.2,2.7-0.8,3.8c-2.1-0.5-4.3-0.9-6.5-1.1c0.5-0.5,1.1-1.1,1.4-1.7c1.1-1.9,1.2-3.9-0.2-3.9c0-0.1,0-0.3,0-0.5
	c-0.1-0.2-0.2-0.3-0.4-0.4c-1.2-0.9-2.8-1-4.3-1.1c-1.3-0.1-2.8-0.1-3.8,0.7c-0.5,0.4-0.9,0.9-1.4,1.4c-0.4,0.4-1,0.7-1.4,1.2
	c-1,1.1-1,2.7-0.9,4.2C121.4,29.3,121.4,29.4,121.5,29.5z"/>
<path id="XMLID_35_" class="st0" d="M139,30.6c-0.4,0.9-1,1.6-1.9,1.9c-2.1,0.9-3.5,3.2-5.8,3.3c-3.3,0.2-6.3,1.6-9.1,1.1
	c-2.2-0.3-3.7-3-5.3-4c-0.6-0.4-0.9-1-1.2-1.7c-0.1-0.3-0.1-0.5-0.1-0.9l6.1-0.6c0.2,0.1,0.3,0.2,0.6,0.3c2.1,0.9,4.5,1.4,6.9,1.4
	c0.4,0,0.7,0,1.1-0.2c0.3-0.1,0.5-0.3,0.7-0.5c0.4-0.4,0.8-0.8,1.2-1.2c0.1-0.1,0.2-0.2,0.3-0.3C134.7,29.7,136.9,30.1,139,30.6z"/>
<path id="XMLID_34_" class="st0" d="M143.3,62c0,0.1,0.1,0.2,0.1,0.3C143.3,62.2,143.3,62.1,143.3,62z"/>
<path id="XMLID_31_" class="st0" d="M143.2,96.5c0,0.1,0.1,0.2,0.1,0.3C143.2,96.7,143.2,96.6,143.2,96.5z"/>
<path id="XMLID_28_" class="st0" d="M120.3,51.1c0.2,0.2,0.5,0.3,1,0.4c2.3,0.3,4.7,0,7-0.7c0.3-0.1,0.7-0.3,1-0.5
	c0.2-0.2,0.4-0.5,0.5-0.7c0.3-0.5,0.5-1,0.8-1.4c0.4-0.8,0.9-1.6,1-2.5c0.5-2.2-0.1-4.1-1.4-3.7c0-0.2-0.1-0.3-0.2-0.5
	c-0.1-0.1-0.3-0.3-0.5-0.3c-1.4-0.4-2.9-0.1-4.4,0.2c-1.3,0.3-2.7,0.7-3.4,1.8c-0.4,0.5-0.6,1.1-0.9,1.7c-0.3,0.5-0.7,1-1,1.6
	c-0.6,1.4-0.2,2.9,0.4,4.3C120.2,50.9,120.2,51,120.3,51.1z M136.8,42.9c0.5,2.2,0.9,4.9-0.8,6.3c-1.8,1.4-2.4,4.1-4.5,4.9
	c-3.1,1.2-5.6,3.4-8.3,3.8c-2.2,0.3-4.4-1.8-6.2-2.2c-0.7-0.2-1.2-0.7-1.6-1.3c-0.7-0.8-0.4-2.3-0.6-3.3c-0.4-1.5-1.3-2.6-1-4.1
	c0.4-1.6,2.2-2.5,3.2-3.7c0.8-1,0.9-2.3,2-3.1c1.9-1.4,4.1-1.5,6.4-2.1c2.5-0.6,5.7-1.5,7.8-0.1C135.4,38.5,136.3,40.7,136.8,42.9z"
	/>
<path id="XMLID_22_" class="st0" d="M114.3,77.4c0.2,0.2,0.5,0.3,1,0.4c2.3,0.3,4.7,0,7-0.7c0.3-0.1,0.7-0.3,1-0.5
	c0.2-0.2,0.4-0.5,0.5-0.7c0.3-0.5,0.5-1,0.8-1.4c0.4-0.8,0.9-1.6,1-2.5c0.5-2.2-0.1-4.1-1.4-3.7c0-0.2-0.1-0.3-0.2-0.5
	c-0.1-0.1-0.3-0.3-0.5-0.3c-1.4-0.4-2.9-0.1-4.4,0.2c-1.3,0.3-2.7,0.7-3.4,1.8c-0.4,0.5-0.6,1.1-0.9,1.7c-0.3,0.5-0.7,1-1,1.6
	c-0.6,1.4-0.2,2.9,0.4,4.3C114.2,77.2,114.2,77.3,114.3,77.4z M130.9,69.2c0.5,2.2,0.9,4.9-0.8,6.3c-1.8,1.4-2.4,4.1-4.5,4.9
	c-3.1,1.2-5.6,3.4-8.3,3.8c-2.2,0.3-4.4-1.8-6.2-2.2c-0.7-0.2-1.2-0.7-1.6-1.3c-0.7-0.8-0.4-2.3-0.6-3.3c-0.4-1.5-1.3-2.6-1-4.1
	c0.4-1.6,2.2-2.5,3.2-3.7c0.8-1,0.9-2.3,2-3.1c1.9-1.4,4.1-1.5,6.4-2.1c2.5-0.6,5.7-1.5,7.8-0.1C129.4,64.8,130.3,67.1,130.9,69.2z"
	/>
<path id="XMLID_20_" class="st0" d="M120.2,50.8c0,0.1,0.1,0.2,0.1,0.3C120.2,51,120.2,50.9,120.2,50.8z"/>
<path id="XMLID_18_" class="st0" d="M110.8,31.2c0.5,2.2,0.9,4.9-0.8,6.3c-1.8,1.4-2.4,4.1-4.5,4.9c-3.1,1.2-5.6,3.4-8.3,3.8
	c-1.1,0.1-2.2-0.3-3.3-0.8c0.5-1.5,1-2.9,1.6-4.2c1.8,0,3.6-0.3,5.4-0.8c0.3-0.1,0.7-0.3,1-0.5c0.2-0.2,0.4-0.5,0.5-0.7
	c0.3-0.5,0.5-1,0.8-1.4c0.4-0.8,0.9-1.6,1-2.5c0.1-0.7,0.2-1.4,0.1-2c0.3,0.1,0.5,0.1,0.8,0.2l-0.5-2l6-0.6
	C110.8,31.1,110.8,31.1,110.8,31.2z"/>
<path id="XMLID_17_" class="st0" d="M92.9,40.8c0.2,0.2,0.5,0.3,1,0.4c0.5,0,1.1,0.1,1.6,0.1c-0.6,1.3-1.1,2.7-1.6,4.2
	c-1-0.5-2.1-1.2-3-1.4c-0.7-0.2-1.2-0.7-1.6-1.3c-0.7-0.8-0.4-2.3-0.6-3.3c-0.4-1.5-1.3-2.6-1-4.1c0.4-1.6,2.2-2.5,3.2-3.7
	c0.8-1,0.9-2.3,2-3.1c1.9-1.4,4.1-1.5,6.4-2.1c2.5-0.6,5.7-1.5,7.8-0.1c2.1,0.2,3,2.4,3.6,4.4l-6,0.6l0.5,2
	c-0.3-0.1-0.5-0.2-0.8-0.2c-0.1-1.2-0.7-1.9-1.5-1.7c0-0.2-0.1-0.3-0.2-0.5c-0.1-0.1-0.3-0.3-0.5-0.3c-1.4-0.4-2.9-0.1-4.4,0.2
	c-1.3,0.3-2.7,0.7-3.4,1.8c-0.4,0.5-0.6,1.1-0.9,1.7c-0.3,0.5-0.7,1-1,1.6c-0.6,1.4-0.2,2.9,0.4,4.3C92.8,40.6,92.8,40.7,92.9,40.8z
	"/>
<path id="XMLID_15_" class="st0" d="M114.2,77.1c0,0.1,0.1,0.2,0.1,0.3C114.2,77.3,114.2,77.2,114.2,77.1z"/>
<path id="XMLID_12_" class="st0" d="M98.8,51.6c1,2,1.9,4.6,0.5,6.3c-1.4,1.8-1.6,4.5-3.5,5.7c-2.3,1.5-4.1,3.6-6.2,4.8
	c0.2-2.3,0.4-4.5,0.8-6.7c0.6-0.2,1.1-0.5,1.6-0.8c0.3-0.2,0.7-0.4,0.8-0.7c0.2-0.3,0.3-0.5,0.3-0.8c0.2-0.5,0.3-1,0.5-1.6
	c0.2-0.9,0.5-1.7,0.5-2.6c0-2.2-0.8-3.9-2-3.4c0.4-1.5,0.7-3.1,1.2-4.5c0.3,0,0.7,0.2,1,0.3C96.5,47.6,97.8,49.6,98.8,51.6z"/>
<path id="XMLID_11_" class="st0" d="M99.9,73.7c1.1,1.9,2.3,4.4,1,6.3c-1.3,1.9-1.2,4.6-3,6c-2.6,1.9-4.4,4.6-6.8,5.8
	c-0.5-1.3-0.9-2.9-1.2-4.6c1.7-0.5,3.2-1.2,4.7-2.1c0.3-0.2,0.6-0.4,0.8-0.7c0.1-0.2,0.2-0.6,0.3-0.8c0.1-0.5,0.2-1.1,0.3-1.6
	c0.2-0.9,0.4-1.8,0.3-2.6c-0.1-2.2-1.2-3.9-2.4-3.2l0,0c0-0.2-0.2-0.3-0.3-0.4c-0.2-0.1-0.4-0.2-0.6-0.1c-1.4-0.1-2.7,0.6-4,1.3
	c0-1.7,0.1-3.6,0.2-5.4c1.9-1,3.9-1.8,5.7-1.2C97.3,69.8,98.8,71.7,99.9,73.7z"/>
<path id="XMLID_9_" class="st0" d="M84.1,62.8c0.2,0.2,0.5,0.2,1.1,0.2c1.8-0.1,3.5-0.6,5.1-1.3c-0.3,2.2-0.6,4.5-0.8,6.7
	c-0.4,0.2-0.8,0.4-1.2,0.6c-2.1,0.8-4.7-0.9-6.6-1c-0.7,0-1.3-0.5-1.8-0.9c-0.8-0.6-0.8-2.2-1.3-3.1c-0.7-1.4-1.8-2.3-1.8-3.8
	c0-1.6,1.7-2.9,2.4-4.3c0.6-1.1,0.5-2.4,1.3-3.4c1.6-1.8,3.7-2.3,5.9-3.3c2.1-0.9,4.5-2.2,6.7-1.9c-0.4,1.4-0.8,2.9-1.2,4.5
	c0,0,0,0.1,0,0.1c0-0.2-0.1-0.3-0.3-0.5c-0.2-0.1-0.3-0.2-0.5-0.2c-1.5-0.2-2.9,0.5-4.3,1.1c-1.2,0.5-2.5,1.2-3,2.4
	c-0.3,0.6-0.3,1.2-0.5,1.8c-0.2,0.6-0.5,1.1-0.7,1.7c-0.4,1.4,0.4,2.9,1.2,4.1l0,0C84,62.6,84.1,62.8,84.1,62.8z"/>
<path id="XMLID_3_" class="st0" d="M87,87.4c0.2,0.1,0.6,0.1,1.1,0.1c0.6-0.1,1.2-0.3,1.9-0.4c0.3,1.8,0.7,3.4,1.2,4.6
	c-0.1,0.1-0.1,0.1-0.3,0.1c-2,0.9-4.7-0.5-6.6-0.5c-0.7,0-1.3-0.4-1.9-0.8c-0.8-0.6-1-2.1-1.5-3c-0.8-1.3-2-2.2-2.1-3.7
	c-0.1-1.6,1.4-3,2.1-4.4c0.6-1.1,0.3-2.5,1.1-3.5c1.5-1.9,3.5-2.6,5.6-3.7c0.6-0.3,1.2-0.7,1.8-1c-0.1,1.8-0.1,3.7-0.2,5.4
	c-0.1,0.1-0.1,0.1-0.2,0.1c-1.2,0.7-2.4,1.4-2.8,2.7c-0.2,0.6-0.2,1.3-0.4,1.9c-0.1,0.6-0.4,1.2-0.5,1.8c-0.2,1.5,0.6,2.8,1.5,4
	C86.8,87.2,86.8,87.3,87,87.4C86.9,87.4,86.9,87.4,87,87.4z"/>
<path id="XMLID_138_" class="st3" d="M165.6,50.5c-1-1.6-2-3.1-3.1-4.5"/>
<path id="XMLID_136_" class="st4" d="M107.2,26.5c-2.1-1.5-5.3-0.5-7.8,0.1c-2.4,0.5-4.5,0.6-6.4,2.1c-1,0.7-1.1,2.1-2,3.1
	c-1.1,1.2-2.9,2.1-3.2,3.7c-0.3,1.5,0.6,2.6,1,4.1c0.3,1,0,2.5,0.6,3.3c0.5,0.5,0.9,1.1,1.6,1.3c0.9,0.2,1.9,0.9,3,1.4
	c1,0.5,2.1,1,3.3,0.8c2.7-0.4,5.3-2.6,8.3-3.8c2.1-0.8,2.8-3.5,4.5-4.9c1.7-1.4,1.3-4.1,0.8-6.3c0-0.1,0-0.2-0.1-0.2
	C110.2,28.9,109.3,26.8,107.2,26.5"/>
<path id="XMLID_134_" class="st4" d="M182.2,60.9c0.7-2-0.7-4.3-1.6-6.2c-0.9-1.7-1.4-3.4-2.9-4.6c-0.8-0.6-1.9-0.4-2.8-0.9
	c-1.2-0.6-2.3-1.8-3.6-1.8c-1.2,0-1.9,1-3.1,1.6c-0.7,0.4-2,0.5-2.5,1.1c-0.1,0.1-0.1,0.2-0.2,0.3l0,0c-0.2,0.4-0.5,0.8-0.4,1.2
	c0,1.5-1.2,3.7-0.5,5.4c0.8,1.8,2.5,3.2,4,4.9c0.2,0.3,0.5,0.5,0.7,0.9c1.1,1.5,3.3,1.4,4.8,2.6c1.5,1.1,3.5,0.2,5.1-0.7
	C180.9,63.9,182.5,62.8,182.2,60.9"/>
<path id="XMLID_133_" class="st4" d="M168.4,54c0,0,0.1-0.1,0.2-0.1c0.1-0.1,0.1-0.1,0.2-0.1c1-0.7,2.1-1.4,3.3-1.2
	c0.5,0.1,0.9,0.3,1.4,0.4c0.5,0.1,1,0.2,1.5,0.3c1,0.4,1.6,1.4,2.1,2.4c0.6,1.1,1.2,2.2,1.1,3.4c0,0.2,0,0.3-0.1,0.4
	c-0.1,0.1-0.2,0.2-0.3,0.2c-1.4,0.5-4.5-3.1-5.2-3.7c-0.6-0.5-2.9-2.6-3.7-2.3c-0.1,0-0.1,0.1-0.2,0.1c-0.1,0.2-0.2,0.5-0.1,0.9
	c0.3,1.9,1,3.7,2,5.3c0.1,0.3,0.3,0.5,0.6,0.6c0.2,0.1,0.5,0.2,0.7,0.2c0.4,0.1,0.9,0.2,1.3,0.3c0.7,0.2,1.4,0.4,2.1,0.3
	c1.8-0.1,3.2-0.9,2.6-1.8"/>
<path id="XMLID_132_" class="st4" d="M95.1,70.1c-1.8-0.6-3.9,0.2-5.7,1.2c-0.6,0.3-1.2,0.7-1.8,1c-2.1,1.1-4.1,1.8-5.6,3.7
	c-0.8,1-0.5,2.3-1.1,3.5c-0.7,1.5-2.2,2.8-2.1,4.4c0.1,1.6,1.3,2.3,2.1,3.7c0.5,0.9,0.6,2.4,1.5,3c0.6,0.4,1.2,0.8,1.9,0.8
	c1.9-0.1,4.6,1.4,6.6,0.5c0.1,0,0.1-0.1,0.3-0.1c2.4-1.2,4.2-3.9,6.8-5.8c1.8-1.4,1.7-4.1,3-6c1.3-1.8,0.1-4.3-1-6.3
	C98.8,71.7,97.3,69.8,95.1,70.1"/>
<path id="XMLID_123_" class="st4" d="M87,87.4c0.2,0.1,0.6,0.1,1.1,0.1c0.6-0.1,1.2-0.3,1.9-0.4c1.7-0.5,3.2-1.2,4.7-2.1
	c0.3-0.2,0.6-0.4,0.8-0.7c0.1-0.2,0.2-0.6,0.3-0.8c0.1-0.5,0.2-1.1,0.3-1.6c0.2-0.9,0.4-1.8,0.3-2.6c-0.1-2.2-1.2-3.9-2.4-3.2"/>
<path id="XMLID_117_" class="st4" d="M86.9,87.4c-0.1-0.1-0.1-0.2-0.2-0.2c-0.9-1.2-1.8-2.6-1.5-4c0.1-0.6,0.4-1.2,0.5-1.8
	c0.1-0.6,0.2-1.3,0.4-1.9c0.4-1.2,1.7-2,2.8-2.7c0.1-0.1,0.1-0.1,0.2-0.1c1.2-0.7,2.5-1.4,4-1.3c0.2,0,0.4,0,0.6,0.1
	c0.2,0.1,0.2,0.2,0.3,0.4c0.7,1.7-3.7,5.6-4.5,6.5c0,0-0.1,0.1-0.1,0.2c-0.8,0.9-3,3.5-2.7,4.5C86.8,87.2,86.8,87.3,86.9,87.4"/>
<path id="XMLID_105_" class="st4" d="M133.2,38.2c-2.1-1.5-5.3-0.5-7.8,0.1c-2.4,0.5-4.5,0.6-6.4,2.1c-1,0.7-1.1,2.1-2,3.1
	c-1.1,1.2-2.9,2.1-3.2,3.7c-0.3,1.5,0.6,2.6,1,4.1c0.3,1,0,2.5,0.6,3.3c0.5,0.5,0.9,1.1,1.6,1.3c1.8,0.4,4,2.5,6.2,2.2
	c2.7-0.4,5.3-2.6,8.3-3.8c2.1-0.8,2.8-3.5,4.5-4.9c1.7-1.4,1.3-4.1,0.8-6.3C136.3,40.7,135.4,38.5,133.2,38.2z"/>
<path id="XMLID_102_" class="st4" d="M120.4,51.3c0-0.1-0.1-0.1-0.1-0.2c-0.1-0.1-0.1-0.2-0.1-0.3c-0.6-1.4-1-2.9-0.4-4.3
	c0.3-0.6,0.7-1,1-1.6c0.3-0.6,0.5-1.2,0.9-1.7c0.8-1.1,2.2-1.4,3.4-1.8c1.5-0.4,3-0.7,4.4-0.2c0.2,0.1,0.4,0.2,0.5,0.3
	c0.1,0.1,0.2,0.3,0.2,0.5c0.2,1.8-5,4.4-6.1,5.1c-0.8,0.6-4,2.6-3.9,3.7c0,0.1,0.1,0.2,0.1,0.3c0.2,0.2,0.5,0.3,1,0.4
	c2.3,0.3,4.7,0,7-0.7c0.3-0.1,0.7-0.3,1-0.5c0.2-0.2,0.4-0.5,0.5-0.7c0.3-0.5,0.5-1,0.8-1.4c0.4-0.8,0.9-1.6,1-2.5
	c0.5-2.2-0.1-4.1-1.4-3.7"/>
<path id="XMLID_99_" class="st4" d="M156.3,49.5c-2.1-1.5-5.3-0.5-7.8,0.1c-2.4,0.5-4.5,0.6-6.4,2.1c-1,0.7-1.1,2.1-2,3.1
	c-1.1,1.2-2.9,2.1-3.2,3.7c-0.3,1.5,0.6,2.6,1,4.1c0.3,1,0,2.5,0.6,3.3c0.5,0.5,0.9,1.1,1.6,1.3c1.8,0.4,4,2.5,6.2,2.2
	c2.7-0.4,5.3-2.6,8.3-3.8c2.1-0.8,2.8-3.5,4.5-4.9c1.7-1.4,1.3-4.1,0.8-6.3C159.4,52,158.5,49.7,156.3,49.5z"/>
<path id="XMLID_98_" class="st4" d="M143.5,62.6c0-0.1-0.1-0.1-0.1-0.2c-0.1-0.1-0.1-0.2-0.1-0.3c-0.6-1.4-1-2.9-0.4-4.3
	c0.3-0.6,0.7-1,1-1.6c0.3-0.6,0.5-1.2,0.9-1.7c0.8-1.1,2.2-1.4,3.4-1.8c1.4-0.4,3-0.7,4.4-0.2c0.2,0.1,0.4,0.2,0.5,0.3
	c0.1,0.1,0.2,0.3,0.2,0.5c0.2,1.8-5,4.4-6.1,5.1c-0.8,0.6-4,2.6-3.9,3.7c0,0.1,0.1,0.2,0.1,0.3c0.2,0.2,0.5,0.3,1,0.4
	c2.3,0.3,4.7,0,7-0.7c0.3-0.1,0.7-0.3,1-0.5c0.2-0.2,0.4-0.5,0.5-0.7c0.3-0.5,0.5-1,0.8-1.4c0.4-0.8,0.9-1.6,1-2.5
	c0.5-2.2-0.1-4.1-1.4-3.7"/>
<path id="XMLID_94_" class="st4" d="M167.5,35.9c-0.6-2.5-3.6-3.9-5.9-5.2c-2.1-1.1-3.8-2.5-6.1-2.7c-1.3-0.1-2.2,0.8-3.5,1
	c-1.6,0.2-3.6-0.3-4.9,0.6c-1,0.7-1.2,1.9-1.7,3c-0.1,0.2-0.2,0.5-0.3,0.7c-0.5,0.9-1.7,1.8-1.7,2.9c0,0.7,0,1.5,0.4,2
	c1.1,1.5,1.3,4.6,3.2,5.8c2.3,1.5,5.7,1.5,8.8,2.7c2.1,0.8,4.4-0.8,6.6-0.7c0,0,0.1,0,0.2,0c2.1-0.1,3.6-2.3,4.6-4.2
	C168.1,39.9,169,37.6,167.5,35.9"/>
<path id="XMLID_92_" class="st4" d="M149.3,37c0,0.2,0.2,0.5,0.5,1c1.6,1.7,3.6,3.2,5.7,4.1c0.3,0.2,0.7,0.3,1.1,0.3
	c0.3,0,0.6-0.1,0.9-0.2c0.4-0.1,0.8-0.3,1.2-0.5c0.1,0,0.2-0.1,0.3-0.1c0.8-0.3,1.7-0.6,2.4-1.1c1.8-1.3,2.6-3.1,1.4-3.7"/>
<path id="XMLID_78_" class="st4" d="M149.3,37L149.3,37"/>
<path id="XMLID_77_" class="st4" d="M149.2,37.2c0-0.1,0-0.1,0.1-0.2"/>
<path id="XMLID_76_" class="st4" d="M137.6,21.2c-1.6-2.1-4.9-2.1-7.5-2.3c-2.4-0.2-4.5-0.7-6.7,0c-1.2,0.4-1.7,1.7-2.8,2.3
	c-1.4,0.8-3.4,1.2-4.2,2.6c-0.8,1.4-0.2,2.7-0.3,4.2c0,0.8-0.4,1.6-0.5,2.4c0,0.3,0,0.6,0.1,0.9c0.3,0.6,0.6,1.3,1.2,1.7
	c1.6,0.9,3.1,3.7,5.3,4c2.7,0.4,5.8-0.9,9.1-1.1c2.3-0.1,3.7-2.5,5.8-3.3c0.9-0.3,1.5-1.1,1.9-1.9c0.5-1.1,0.7-2.6,0.8-3.8
	C139.8,24.5,139.7,22.1,137.6,21.2"/>
<path id="XMLID_74_" class="st4" d="M160.1,71.7c-2.1-1.5-5.3-0.5-7.8,0.1c-2.4,0.5-4.5,0.6-6.4,2.1c-1,0.7-1.1,2.1-2,3.1
	c-1.1,1.2-2.9,2.1-3.2,3.7c-0.3,1.5,0.6,2.6,1,4.1c0.3,1,0,2.5,0.6,3.3c0.5,0.5,0.9,1.1,1.6,1.3c1.8,0.4,4,2.5,6.2,2.2
	c2.7-0.4,5.3-2.6,8.3-3.8c2.1-0.8,2.8-3.5,4.5-4.9c1.7-1.4,1.3-4.1,0.8-6.3C163.2,74.2,162.3,72,160.1,71.7z"/>
<path id="XMLID_73_" class="st4" d="M147.3,84.8c0-0.1-0.1-0.1-0.1-0.2c-0.1-0.1-0.1-0.2-0.1-0.3c-0.6-1.4-1-2.9-0.4-4.3
	c0.3-0.6,0.7-1,1-1.6c0.3-0.6,0.5-1.2,0.9-1.7c0.8-1.1,2.2-1.4,3.4-1.8c1.4-0.4,3-0.7,4.4-0.2c0.2,0.1,0.4,0.2,0.5,0.3
	s0.2,0.3,0.2,0.5c0.2,1.8-5,4.4-6.1,5.1c-0.8,0.6-4,2.6-3.9,3.7c0,0.1,0.1,0.2,0.1,0.3c0.2,0.2,0.5,0.3,1,0.4c2.3,0.3,4.7,0,7-0.7
	c0.3-0.1,0.7-0.3,1-0.5c0.2-0.2,0.4-0.5,0.5-0.7c0.3-0.5,0.5-1,0.8-1.4c0.4-0.8,0.9-1.6,1-2.5c0.5-2.2-0.1-4.1-1.4-3.7"/>
<path id="XMLID_72_" class="st4" d="M127.2,64.5c-2.1-1.5-5.3-0.5-7.8,0.1c-2.4,0.5-4.5,0.6-6.4,2.1c-1,0.7-1.1,2.1-2,3.1
	c-1.1,1.2-2.9,2.1-3.2,3.7c-0.3,1.5,0.6,2.6,1,4.1c0.3,1,0,2.5,0.6,3.3c0.5,0.5,0.9,1.1,1.6,1.3c1.8,0.4,4,2.5,6.2,2.2
	c2.7-0.4,5.3-2.6,8.3-3.8c2.1-0.8,2.8-3.5,4.5-4.9c1.7-1.4,1.3-4.1,0.8-6.3C130.3,67.1,129.4,64.8,127.2,64.5z"/>
<path id="XMLID_71_" class="st4" d="M114.4,77.6c0-0.1-0.1-0.1-0.1-0.2c-0.1-0.1-0.1-0.2-0.1-0.3c-0.6-1.4-1-2.9-0.4-4.3
	c0.3-0.6,0.7-1,1-1.6c0.3-0.6,0.5-1.2,0.9-1.7c0.8-1.1,2.2-1.4,3.4-1.8c1.4-0.4,3-0.7,4.4-0.2c0.2,0.1,0.4,0.2,0.5,0.3
	s0.2,0.3,0.2,0.5c0.2,1.8-5,4.4-6.1,5.1c-0.8,0.6-4,2.6-3.9,3.7c0,0.1,0.1,0.2,0.1,0.3c0.2,0.2,0.5,0.3,1,0.4c2.3,0.3,4.7,0,7-0.7
	c0.3-0.1,0.7-0.3,1-0.5c0.2-0.2,0.4-0.5,0.5-0.7c0.3-0.5,0.5-1,0.8-1.4c0.4-0.8,0.9-1.6,1-2.5c0.5-2.2-0.1-4.1-1.4-3.7"/>
<path id="XMLID_70_" class="st4" d="M94.3,47.7c-0.3-0.1-0.6-0.3-1-0.3c-2.2-0.3-4.6,0.9-6.7,1.9c-2.2,1-4.3,1.5-5.9,3.3
	c-0.8,1-0.7,2.3-1.3,3.4c-0.8,1.4-2.4,2.6-2.4,4.3c0,1.5,1.1,2.4,1.8,3.8c0.4,0.9,0.4,2.5,1.3,3.1c0.5,0.4,1.1,0.9,1.8,0.9
	c1.8,0.1,4.4,1.7,6.6,1c0.4-0.1,0.8-0.3,1.2-0.6c2.1-1.2,3.9-3.3,6.2-4.8c1.9-1.2,2-3.9,3.5-5.7c1.4-1.7,0.5-4.3-0.5-6.3
	C97.8,49.6,96.5,47.6,94.3,47.7"/>
<path id="XMLID_69_" class="st4" d="M84,62.5c0,0.1,0.1,0.2,0.2,0.3c0.2,0.2,0.5,0.2,1.1,0.2c1.8-0.1,3.5-0.6,5.1-1.3
	c0.6-0.2,1.1-0.5,1.6-0.8c0.3-0.2,0.7-0.4,0.8-0.7c0.2-0.3,0.3-0.5,0.3-0.8c0.2-0.5,0.3-1,0.5-1.6c0.2-0.9,0.5-1.7,0.5-2.6
	c0-2.2-0.8-3.9-2-3.4l0,0"/>
<line id="XMLID_67_" class="st4" x1="84" y1="62.5" x2="84" y2="62.5"/>
<path id="XMLID_66_" class="st4" d="M84.3,63c-0.1-0.1-0.1-0.1-0.1-0.2c-0.1-0.1-0.1-0.2-0.2-0.3"/>
<path id="XMLID_114_" class="st4" d="M90.6-13.4C90.6-13.4,90.6-13.4,90.6-13.4"/>
<path id="XMLID_111_" class="st4" d="M90.7-13.2c-0.1-0.1-0.1-0.1-0.1-0.2"/>
<path id="XMLID_5_" class="st5" d="M182.5-7.7C179.6-10,175-13,169-13.2c-12.1-0.6-16.2,10.8-27.7,11C129-2,126.5-14.6,114.1-14.5
	C102.5-14.4,98.9-3.3,86.6-3.2c-7.3,0.1-13.4-3.7-17.4-6.9"/>
<path id="XMLID_4_" class="st5" d="M182.7,9c-2.9-2.3-7.5-5.3-13.5-5.5c-12.1-0.6-16.2,10.8-27.7,11c-12.3,0.2-14.8-12.4-27.2-12.3
	c-11.6,0.1-15.2,11.1-27.5,11.3c-7.3,0.1-13.4-3.7-17.4-6.9"/>
</svg>
