<?xml version="1.0" encoding="utf-8"?>
<!-- Generator: Adobe Illustrator 19.0.0, SVG Export Plug-In . SVG Version: 6.00 Build 0)  -->
<svg version="1.1" id="Layer_1" xmlns="http://www.w3.org/2000/svg" xmlns:xlink="http://www.w3.org/1999/xlink" x="0px" y="0px" width="160px" height="160px"
	 viewBox="45 -45 160 160" style="enable-background:new 45 -45 160 160;" xml:space="preserve">
<style type="text/css">
	.st0{fill:#FF9999;}
	.st1{fill:none;}
	.st2{fill:none;stroke:#FF9999;stroke-width:3;stroke-miterlimit:10;}
</style>
<g>

	<rect x="50" y="-33.8" class="st1" width="147.5" height="147.5"/>
	<path id="XMLID_17_" class="st2" d="M181.9,89.9c-2.9-2.3-7.5-5.3-13.5-5.5c-12.1-0.6-16.2,10.8-27.7,11
		c-12.3,0.2-14.8-12.4-27.2-12.3C101.9,83.2,98.3,94.2,86,94.4c-7.3,0.1-13.4-3.7-17.4-6.9"/>
	<path id="surfboard.svg" class="st0" d="M74-2.3c-0.4-0.3-0.9-0.3-1.3,0C72.3-1.9,62.2,7,62.2,25.6c0,26.8,3.8,40.3,11.2,40.3
		c7.4,0,11.2-13.6,11.2-40.3C84.6,7,74.5-1.9,74-2.3z M64.2,25.6c0-13.9,6.1-22.2,8.7-25.2v63.5C67.4,63.1,64.2,49.3,64.2,25.6z
		 M73.9,63.9V0.4c2.6,2.9,8.7,11.2,8.7,25.2C82.6,49.3,79.4,63.1,73.9,63.9z"/>
	<path id="surfboard.svg_1_" class="st0" d="M173-26.1c-0.6-0.4-1.3-0.4-1.8,0c-0.6,0.6-14.6,12.9-14.6,38.8c0,37.3,5.3,56,15.6,56
		s15.6-18.9,15.6-56C187.8-13.1,173.7-25.5,173-26.1z M159.4,12.7c0-19.3,8.5-30.9,12.1-35V66C163.8,64.9,159.4,45.7,159.4,12.7z
		 M172.9,66v-88.3c3.6,4,12.1,15.6,12.1,35C185,45.7,180.5,64.9,172.9,66z"/>
	<path id="surfboard.svg_3_" class="st0" d="M114.4-19.4c-0.5-0.4-1.1-0.4-1.6,0c-0.5,0.5-13.2,11.7-13.2,35
		c0,33.6,4.8,50.6,14.1,50.6s14.1-17.1,14.1-50.6C127.7-7.7,115.1-18.9,114.4-19.4z M102.1,15.6c0-17.4,7.7-27.9,10.9-31.6v79.7
		C106.2,62.7,102.1,45.4,102.1,15.6z M114.3,63.7V-16c3.3,3.6,10.9,14.1,10.9,31.6C125.2,45.4,121.2,62.7,114.3,63.7z"/>
	<path id="surfboard.svg_2_" class="st0" d="M91.4,15.9c-0.3-0.2-0.6-0.2-0.9,0c-0.3,0.3-7.4,6.5-7.4,19.6c0,18.8,2.7,28.3,7.9,28.3
		c5.2,0,7.9-9.5,7.9-28.3C98.9,22.4,91.8,16.2,91.4,15.9z M84.6,35.5c0-9.8,4.3-15.6,6.1-17.7v44.5C86.8,61.8,84.6,52.1,84.6,35.5z
		 M91.4,62.3V17.8c1.8,2,6.1,7.9,6.1,17.7C97.5,52.1,95.2,61.8,91.4,62.3z"/>
	<path id="surfboard.svg_4_" class="st0" d="M143.8-13.3c-0.4-0.3-1-0.3-1.4,0c-0.4,0.4-11.5,10.2-11.5,30.5
		c0,29.3,4.2,44.1,12.2,44.1c8.1,0,12.2-14.9,12.2-44.1C155.4-3.1,144.3-12.9,143.8-13.3z M133.1,17.2c0-15.2,6.7-24.3,9.5-27.6
		v69.4C136.6,58.2,133.1,43.1,133.1,17.2z M143.7,59.1v-69.4c2.8,3.2,9.5,12.2,9.5,27.6C153.2,43.1,149.7,58.2,143.7,59.1z"/>
	<g>
		<path class="st0" d="M160.9,34.5c-8.1,0-15.1,5.3-19,13.1c-2.5-1.9-5.4-3-8.5-3c-3.7,0-7,1.5-9.7,4c-3.5-5.5-8.9-9-15-9
			c-2.4,0-4.6,0.5-6.7,1.5c-1.2-1.9-3.3-3.2-5.7-3.2c-3.7,0-6.7,3-6.7,6.7c0,2.4,1.3,4.5,3.2,5.7C92,51.6,91.5,53,91,54.3
			c-0.5,0.3-1,0.7-1.5,1.2c-2.4-3.8-6.1-6.2-10.4-6.2c-7.2,0-13.1,7.2-13.1,16c0,3,2,5.3,4.4,5.3h17.5c0.2,0,0.3,0,0.5,0
			c0.2,0,0.3,0,0.5,0H96h7.6h17.8c0.3,0,0.5,0,0.7-0.1c0.2,0,0.5,0.1,0.7,0.1H144c0.3,0,0.7,0,1-0.1c0.4,0.1,0.7,0.1,1.1,0.1h29.6
			c4.1,0,7.4-4,7.4-9C183,46.7,173.1,34.5,160.9,34.5z"/>
		<path class="st0" d="M160.9,31.9c7.5,0,13.6-6.1,13.6-13.6s-6.1-13.6-13.6-13.6c-7.5,0-13.6,6.1-13.6,13.6
			C147.3,25.8,153.4,31.9,160.9,31.9z"/>
		<path class="st0" d="M108.7,37.5c6.4,0,11.6-5.2,11.6-11.6c0-6.4-5.2-11.6-11.6-11.6c-6.4,0-11.6,5.2-11.6,11.6
			C97.1,32.3,102.3,37.5,108.7,37.5z"/>
		<circle class="st0" cx="133.4" cy="33" r="9.8"/>
		<circle class="st0" cx="79.2" cy="39.7" r="8"/>
	</g>
	<path id="XMLID_1_" class="st2" d="M181.2,80.5c-2.9-2.3-7.5-5.3-13.5-5.5c-12.1-0.6-16.2,10.8-27.7,11
		c-12.3,0.2-14.8-12.4-27.2-12.3C101.2,73.8,97.6,84.8,85.3,85c-7.3,0.1-13.4-3.7-17.4-6.9"/>
</g>
</svg>
