<?xml version="1.0" encoding="utf-8"?>
<!-- Generator: Adobe Illustrator 19.0.0, SVG Export Plug-In . SVG Version: 6.00 Build 0)  -->
<svg version="1.1" id="Layer_1" xmlns="http://www.w3.org/2000/svg" xmlns:xlink="http://www.w3.org/1999/xlink" x="0px" y="0px"
	 viewBox="38.7 -22.6 156.2 156.2" style="enable-background:new 38.7 -22.6 156.2 156.2;" xml:space="preserve">
<style type="text/css">
	.st0{fill:#FFFF66;}
	.st1{fill:none;stroke:#FFFFFF;stroke-width:7;stroke-miterlimit:10;}
</style>
<circle class="st0" cx="116.3" cy="55.4" r="17.8"/>
<g>
	<g>
		<g>
			<polygon class="st0" points="112.2,72.1 93.4,110.5 107.3,70.1 			"/>
			<polygon class="st0" points="125.3,40.5 139.2,0 120.4,38.4 			"/>
		</g>
	</g>
	<g>
		<g>
			<polygon class="st0" points="106.1,69.3 74,97.6 102.3,65.5 			"/>
			<polygon class="st0" points="130.3,45.1 158.6,13 126.5,41.3 			"/>
		</g>
	</g>
	<g>
		<g>
			<polygon class="st0" points="101.5,64.3 61,78.2 99.5,59.4 			"/>
			<polygon class="st0" points="133.1,51.2 171.6,32.4 131.1,46.2 			"/>
		</g>
	</g>
	<g>
		<g>
			<polygon class="st0" points="99.2,58 56.5,55.3 99.2,52.6 			"/>
			<polygon class="st0" points="133.4,58 176.1,55.3 133.4,52.6 			"/>
		</g>
	</g>
	<g>
		<g>
			<polygon class="st0" points="99.5,51.2 61,32.4 101.5,46.2 			"/>
			<polygon class="st0" points="131.1,64.3 171.6,78.2 133.1,59.4 			"/>
		</g>
	</g>
	<g>
		<g>
			<polygon class="st0" points="102.3,45.1 74,13 106.1,41.3 			"/>
			<polygon class="st0" points="126.5,69.3 158.6,97.6 130.3,65.5 			"/>
		</g>
	</g>
	<g>
		<g>
			<polygon class="st0" points="107.3,40.5 93.4,0 112.2,38.4 			"/>
			<polygon class="st0" points="120.4,72.1 139.2,110.5 125.3,70.1 			"/>
		</g>
	</g>
	<g>
		<g>
			<polygon class="st0" points="113.6,38.2 116.3,-4.6 119,38.2 			"/>
			<polygon class="st0" points="113.6,72.4 116.3,115.1 119,72.4 			"/>
		</g>
	</g>
</g>
<path class="st1" d="M174.3,130.1H59.2c-9.4,0-17-7.6-17-17V-2.1c0-9.4,7.6-17,17-17h115.2c9.4,0,17,7.6,17,17v115.2
	C191.3,122.5,183.7,130.1,174.3,130.1z"/>
</svg>
