<?xml version="1.0" encoding="utf-8"?>
<!-- Generator: Adobe Illustrator 19.0.0, SVG Export Plug-In . SVG Version: 6.00 Build 0)  -->
<svg version="1.1" id="Layer_1" xmlns="http://www.w3.org/2000/svg" xmlns:xlink="http://www.w3.org/1999/xlink" x="0px" y="0px"
	 viewBox="39.2 -25.9 156.2 156.2" style="enable-background:new 39.2 -25.9 156.2 156.2;" xml:space="preserve">
<style type="text/css">
	.st0{fill:none;stroke:#FFFFFF;stroke-width:7;stroke-miterlimit:10;}
	.st1{fill:#FFFF66;}
	.st2{fill:none;stroke:#FFFF66;stroke-width:6;stroke-miterlimit:10;}
</style>
<path class="st0" d="M174.8,126.8H59.7c-9.4,0-17-7.6-17-17V-5.4c0-9.4,7.6-17,17-17h115.2c9.4,0,17,7.6,17,17v115.2
	C191.8,119.2,184.2,126.8,174.8,126.8z"/>
<path id="XMLID_16_" class="st1" d="M138.3,27.1"/>
<path id="XMLID_18_" class="st2" d="M174.1,80.5c-2.9-2.3-7.5-5.3-13.5-5.5c-12.1-0.6-16.2,10.8-27.7,11
	c-12.3,0.2-14.8-12.4-27.2-12.3C94.1,73.8,90.5,84.9,78.2,85c-7.3,0.1-13.4-3.7-17.4-6.9"/>
<path id="XMLID_17_" class="st2" d="M174.1,101.4c-2.9-2.3-7.5-5.3-13.5-5.5c-12.1-0.6-16.2,10.8-27.7,11
	c-12.3,0.2-14.8-12.4-27.2-12.3c-11.6,0.1-15.2,11.1-27.5,11.3c-7.3,0.1-13.4-3.7-17.4-6.9"/>
<path id="XMLID_13_" class="st1" d="M85.4,71.1c1.5-15,5.6-29.8,4.5-45.1c4.1,0.7,8.1,1.4,12.2,2c-4.1-2.3-8.3-4.5-12.4-6.8
	C88.6,13.1,87.5,5,86.4-3.1c34.1,20.5,55.8,45.5,70.1,74.2C131.9,67.6,108.1,67.3,85.4,71.1z"/>
<path id="XMLID_1_" class="st2" d="M174.1,57.9c-2.9-2.3-7.5-5.3-13.5-5.5c-12.1-0.6-16.2,10.8-27.7,11
	c-12.3,0.2-14.8-12.4-27.2-12.3c-11.6,0.1-15.2,11.2-27.5,11.3c-7.3,0.1-13.4-3.7-17.4-6.9"/>
</svg>
