<?xml version="1.0" encoding="utf-8"?>
<!-- Generator: Adobe Illustrator 19.0.0, SVG Export Plug-In . SVG Version: 6.00 Build 0)  -->
<svg version="1.1" id="Layer_1" xmlns="http://www.w3.org/2000/svg" xmlns:xlink="http://www.w3.org/1999/xlink" x="0px" y="0px"
	 viewBox="39.2 -25.9 156.2 156.2" style="enable-background:new 39.2 -25.9 156.2 156.2;" xml:space="preserve">
<style type="text/css">
	.st0{fill:none;stroke:#FFFFFF;stroke-width:7;stroke-miterlimit:10;}
	.st1{fill:none;}
	.st2{fill:#FF9999;}
	.st3{fill:#FFFF66;}
</style>
<path class="st0" d="M174.8,126.8H59.7c-9.4,0-17-7.6-17-17V-5.4c0-9.4,7.6-17,17-17h115.2c9.4,0,17,7.6,17,17v115.2
	C191.8,119.2,184.2,126.8,174.8,126.8z"/>
<rect x="41.2" y="-17.2" class="st1" width="147.5" height="147.5"/>
<path id="XMLID_31_" class="st2" d="M134.4,113.1c0,0.1,0.1,0.2,0.1,0.3C134.4,113.3,134.4,113.2,134.4,113.1z"/>
<polygon class="st3" points="118.5,58.4 110.8,64.2 109.4,78.1 113.4,96.2 127.8,106.1 130.7,98 125.7,79 122.3,68.7 122.8,61.2 "/>
<polygon class="st3" points="132.1,88 142,94.4 158.3,85.6 172.8,67.7 168.8,51.9 144,34.7 125,31.1 128.3,37.1 128.3,60.7 
	125,69.5 126.9,70.2 137.2,50 129.3,70.5 134.4,72.8 145.2,51.9 136.6,73.5 144.4,76.4 157.3,57.7 147.1,77.1 "/>
<polygon class="st3" points="84.1,60.2 95.4,75.5 84.9,79.4 61.3,72.1 84.8,66.7 "/>
<path class="st3" d="M116.1,18.7l-1.9-7.9l2.5-1.8h-3L111,3.9l-5.1-5.1h-8.2l-6.1,5.4l-1.2,4.7h-3.3l2.4,1.6L81,45.9l3.3,12.4
	l13.4,17.2H108l1.4-12.1l9.5-7.7l5.6,4.4l-0.8,8.7l3.1-8.2V37.3L116.1,18.7z M93.3,10.6c-1-0.3-1.7-1.2-1.7-2.3
	c0-1.3,1.1-2.4,2.4-2.4c0.7,0,1.4,0.3,1.8,0.8L93.3,10.6z M103.7,15.6h-3.8l1.3-1.5v-3.7l-2.7-1.5l3.3-3l3.3,3l-2.6,1.4v3.8
	L103.7,15.6z M110,10.6l-2.5-3.8c0.4-0.5,1.1-0.8,1.8-0.8c1.3,0,2.4,1.1,2.4,2.4C111.7,9.4,111,10.3,110,10.6z"/>
</svg>
