<?xml version="1.0" encoding="utf-8"?>
<!-- Generator: Adobe Illustrator 19.0.0, SVG Export Plug-In . SVG Version: 6.00 Build 0)  -->
<svg version="1.1" id="Layer_1" xmlns="http://www.w3.org/2000/svg" xmlns:xlink="http://www.w3.org/1999/xlink" x="0px" y="0px"
	 viewBox="39.2 -25.9 156.2 156.2" style="enable-background:new 39.2 -25.9 156.2 156.2;" xml:space="preserve">
<style type="text/css">
	.st0{fill:none;stroke:#FFFFFF;stroke-width:7;stroke-miterlimit:10;}
	.st1{fill:none;}
	.st2{fill:#FF9999;}
	.st3{fill:#FFFF66;}
</style>
<path class="st0" d="M174.8,126.8H59.7c-9.4,0-17-7.6-17-17V-5.4c0-9.4,7.6-17,17-17h115.2c9.4,0,17,7.6,17,17v115.2
	C191.8,119.2,184.2,126.8,174.8,126.8z"/>
<rect x="41.2" y="-17.2" class="st1" width="147.5" height="147.5"/>
<path id="XMLID_31_" class="st2" d="M134.4,113.1c0,0.1,0.1,0.2,0.1,0.3C134.4,113.3,134.4,113.2,134.4,113.1z"/>
<rect x="42.2" y="-19.9" class="st1" width="147.5" height="147.5"/>
<rect x="43.2" y="-17.2" class="st1" width="147.5" height="147.5"/>
<path id="XMLID_1_" class="st2" d="M136.4,113.1c0,0.1,0.1,0.2,0.1,0.3C136.4,113.3,136.4,113.2,136.4,113.1z"/>
<path class="st3" d="M57.7,73.2c3.5,9.6,11.1,19.1,22.9,28.4c25.6,3.1,51,1.9,76.2-3.5c11.7-10.3,18.4-20.5,20-30.3
	C137.4,74.4,97.7,76.2,57.7,73.2z"/>
<path class="st3" d="M101.5-0.4c-2.7,0.6-26,73.2-26,73.2s24.3-23,39.4-10.1C129.3,75.1,104.2-1,101.5-0.4z"/>
<path class="st3" d="M117.2,7.6c-3.7,0.4,6.2,63.1,6.2,63.1s29.6-16.8,41.2-11C176.3,65.5,121,7.2,117.2,7.6z"/>
</svg>
