<?xml version="1.0" encoding="utf-8"?>
<!-- Generator: Adobe Illustrator 19.0.0, SVG Export Plug-In . SVG Version: 6.00 Build 0)  -->
<svg version="1.1" id="Layer_1" xmlns="http://www.w3.org/2000/svg" xmlns:xlink="http://www.w3.org/1999/xlink" x="0px" y="0px" width="160px" height="160px"
	 viewBox="89.9 -90 160 160" style="enable-background:new 89.9 -90 160 160;" xml:space="preserve">
<style type="text/css">
	.st0{fill:#FF9999;}
</style>
<path class="st0" d="M134.9,70h30V55h-30V70z M134.9-75h30v-15h-30V-75z M109.9-90c-11.1,0-20,9-20,20v15.1h15V-65
	c0-5.5,4.5-10,10-10h9.9l-0.1-15H109.9z M104.9,45V34.9h-15V50c0,11.1,9,20,20,20h14.9l0.1-15h-10C109.3,55,104.9,50.5,104.9,45z
	 M104.9-45h-15v30h15V-45z M174.9,70h30V55h-30V70z M229.9-90H215l-0.1,15h9.9c5.5,0,10,4.5,10,10v10h15v-15
	C249.9-81.1,240.9-90,229.9-90z M234.9-15h15v-30h-15V-15L234.9-15z M234.9,45c0,5.5-4.5,10-10,10H215l0.1,15h14.8
	c11.1,0,20-9,20-20V34.9h-15L234.9,45L234.9,45z M174.9-75h30v-15h-30V-75z M234.9,25h15V-5h-15V25L234.9,25z M104.9-5h-15v30h15V-5
	z"/>
<g>
	<g>
		<path class="st0" d="M190.1-50.3h-2.3c-1.9,0-3.4,1.4-3.4,3.1v15.3c0,1.7,1.5,3.1,3.4,3.1h2.3c1.9,0,3.4-1.4,3.4-3.1v-15.3
			C193.5-48.9,192-50.3,190.1-50.3z"/>
		<path class="st0" d="M167.4-44.5c0.5,0,0.9,0.1,1.3,0.1v-10.1c0-1.7-1.5-3-3.3-3h-2.2c-1.8,0-3.3,1.4-3.3,3v10.2
			C163.1-44.5,166-44.5,167.4-44.5L167.4-44.5z"/>
		<path class="st0" d="M174.3-39.2c0.2,1.6-0.1,4.2-2.1,5.5c0.4,1.5,1.5,1.9,3.2,1.9h2.4c2,0,3.6-1.5,3.6-3.3V-51
			c0-1.8-1.6-3.3-3.6-3.3h-2.4c-2,0-3.6,1.5-3.6,3.3v7.9C173.3-42.1,174.2-40.7,174.3-39.2z"/>
		<path class="st0" d="M187.7-25.8c-3,0-5.5-2.3-5.5-5.2v-0.3c-1,1.2-2.6,2-4.3,2h-2.5c-2.4,0-4.8-1.2-5.5-3.3
			c-0.3,0.1-9.4,3.1-9.4,3.1l15.8,7.4c1.3,0.6-0.3,3.2-1,3.5c-0.4,0.2-1.2,0-1.7-0.2l-0.5-0.2l-18.2-10.7c-0.3-0.1-0.5-0.4-0.4-0.7
			c0-0.3,0.2-0.6,0.5-0.7l11.9-3.3c0.3-0.1,3.6-1,3.2-3.9c-0.5-2.8-1.6-3-3-3.2c-1.4-0.2-5-0.1-8,0.1c-5,0.3-7.8,0.8-10.1,1.9
			c-2.4,1.1-6.3,5.7-5.4,12.3c1.5,11.2,8.8,20.6,8.8,20.6v46.4h34.3V-8c3.7-3.9,5.6-11.7,6.5-18.6c-0.8,0.5-1.8,0.8-2.8,0.8
			C190.4-25.8,187.7-25.8,187.7-25.8z"/>
		<path class="st0" d="M148.9-42.7c2.2-0.8,5.1-1.3,7.9-1.6v-12.1c0-1.9-1.6-3.4-3.6-3.4h-1.9c-2,0-3.6,1.5-3.6,3.4v13.5
			c0,0.2,0,0.4,0.1,0.7C148.2-42.4,148.6-42.6,148.9-42.7z"/>
	</g>
	<g>
		<path class="st0" d="M224.7-22.5h-1.2c-1,0-1.8,0.8-1.8,1.7v8.2c0,0.9,0.8,1.7,1.8,1.7h1.2c1,0,1.8-0.8,1.8-1.7v-8.2
			C226.5-21.7,225.7-22.5,224.7-22.5z"/>
		<path class="st0" d="M212.6-19.4c0.3,0,0.5,0,0.7,0.1v-5.4c0-0.9-0.8-1.6-1.8-1.6h-1.2c-1,0-1.8,0.7-1.8,1.6v5.4
			C210.3-19.4,211.9-19.4,212.6-19.4L212.6-19.4z"/>
		<path class="st0" d="M216.3-16.6c0.1,0.9-0.1,2.3-1.1,3c0.2,0.8,0.8,1,1.7,1h1.3c1,0,1.9-0.8,1.9-1.7v-8.5c0-1-0.8-1.7-1.9-1.7
			h-1.3c-1,0-1.9,0.8-1.9,1.7v4.2C215.8-18.1,216.2-17.3,216.3-16.6z"/>
		<path class="st0" d="M223.4-9.4c-1.6,0-2.9-1.2-2.9-2.8v-0.2c-0.5,0.7-1.4,1.1-2.3,1.1h-1.3c-1.3,0-2.6-0.6-3-1.8
			c-0.1,0-5,1.7-5,1.7l8.4,4c0.7,0.3-0.2,1.7-0.6,1.9c-0.2,0.1-0.7,0-0.9-0.1l-0.3-0.1l-9.7-5.7c-0.2-0.1-0.2-0.2-0.2-0.4
			s0.1-0.3,0.3-0.3l6.3-1.7c0.1,0,1.9-0.5,1.7-2.1c-0.2-1.5-0.9-1.6-1.6-1.7c-0.7-0.1-2.7-0.1-4.3,0c-2.7,0.2-4.2,0.4-5.4,1
			c-1.3,0.6-3.4,3-2.9,6.6c0.8,6,4.7,11,4.7,11v24.7h18.3V0.1c2-2.1,3-6.2,3.5-9.9c-0.4,0.3-1,0.4-1.5,0.4H223.4L223.4-9.4z"/>
		<path class="st0" d="M202.8-18.4c1.2-0.4,2.7-0.7,4.2-0.8v-6.4c0-1-0.9-1.8-1.9-1.8h-1c-1.1,0-1.9,0.8-1.9,1.8v7.2
			c0,0.1,0,0.2,0,0.4C202.4-18.3,202.6-18.4,202.8-18.4z"/>
	</g>
	<g>
		<path class="st0" d="M134.8-22.5h-1.2c-1,0-1.8,0.8-1.8,1.7v8.2c0,0.9,0.8,1.7,1.8,1.7h1.2c1,0,1.8-0.8,1.8-1.7v-8.2
			C136.7-21.7,135.8-22.5,134.8-22.5z"/>
		<path class="st0" d="M122.7-19.4c0.3,0,0.5,0,0.7,0.1v-5.4c0-0.9-0.8-1.6-1.8-1.6h-1.2c-1,0-1.8,0.7-1.8,1.6v5.4
			C120.5-19.4,122-19.4,122.7-19.4L122.7-19.4z"/>
		<path class="st0" d="M126.4-16.6c0.1,0.9-0.1,2.3-1.1,3c0.2,0.8,0.8,1,1.7,1h1.3c1,0,1.9-0.8,1.9-1.7v-8.5c0-1-0.8-1.7-1.9-1.7
			H127c-1,0-1.9,0.8-1.9,1.7v4.2C125.9-18.1,126.3-17.3,126.4-16.6z"/>
		<path class="st0" d="M133.6-9.4c-1.6,0-2.9-1.2-2.9-2.8v-0.2c-0.5,0.7-1.4,1.1-2.3,1.1H127c-1.3,0-2.6-0.6-3-1.8
			c-0.1,0-5,1.7-5,1.7l8.4,4c0.7,0.3-0.2,1.7-0.6,1.9c-0.2,0.1-0.7,0-0.9-0.1l-0.3-0.1l-9.7-5.7c-0.2-0.1-0.2-0.2-0.2-0.4
			s0.1-0.3,0.3-0.3l6.3-1.7c0.1,0,1.9-0.5,1.7-2.1c-0.2-1.5-0.9-1.6-1.6-1.7s-2.7-0.1-4.3,0c-2.7,0.2-4.2,0.4-5.4,1
			c-1.3,0.6-3.4,3-2.9,6.6c0.8,6,4.7,11,4.7,11v24.7h18.3V0.1c2-2.1,3-6.2,3.5-9.9c-0.4,0.3-1,0.4-1.5,0.4H133.6L133.6-9.4z"/>
		<path class="st0" d="M112.9-18.4c1.2-0.4,2.7-0.7,4.2-0.8v-6.4c0-1-0.9-1.8-1.9-1.8h-1c-1.1,0-1.9,0.8-1.9,1.8v7.2
			c0,0.1,0,0.2,0,0.4C112.5-18.3,112.7-18.4,112.9-18.4z"/>
	</g>
</g>
</svg>
