<?xml version="1.0" encoding="utf-8"?>
<!-- Generator: Adobe Illustrator 19.0.0, SVG Export Plug-In . SVG Version: 6.00 Build 0)  -->
<svg version="1.1" id="Layer_1" xmlns="http://www.w3.org/2000/svg" xmlns:xlink="http://www.w3.org/1999/xlink" x="0px" y="0px" width="160px" height="160px"
	 viewBox="45 -45 160 160" style="enable-background:new 45 -45 160 160;" xml:space="preserve">
<style type="text/css">
	.st0{fill:#FF9999;}
	.st1{fill:#FF9999;stroke:#FF9999;stroke-miterlimit:10;}
</style>
<path class="st0" d="M89.9,115h30v-15h-30V115z M89.9-30h30v-15h-30V-30z M64.9-45c-11.1,0-20,9-20,20v15.1h15V-20
	c0-5.5,4.5-10,10-10h9.9l-0.1-15H64.9z M59.9,90V79.9h-15V95c0,11.1,9,20,20,20h14.9l0.1-15h-10C64.3,100,59.9,95.5,59.9,90z
	 M59.9,0h-15v30h15V0z M129.9,115h30v-15h-30V115z M184.9-45H170l-0.1,15h9.9c5.5,0,10,4.5,10,10v10h15v-15
	C204.9-36.1,195.9-45,184.9-45z M189.9,30h15V0h-15V30L189.9,30z M189.9,90c0,5.5-4.5,10-10,10H170l0.1,15h14.8c11.1,0,20-9,20-20
	V79.9h-15V90L189.9,90z M129.9-30h30v-15h-30V-30z M189.9,70h15V40h-15V70L189.9,70z M59.9,40h-15v30h15V40z"/>
<path id="XMLID_15_" class="st1" d="M164.7,48.5c-1.1,0.3-2.2,0.3-3.3,0.1c-0.8-0.2-1.7-0.5-2.4-1c-0.1-0.1-0.2-0.2-0.3-0.3
	c-0.1-0.1-0.1-0.2-0.1-0.4c-0.1-1.3,0.5-2.6,1.3-3.6c1.3,0.1,2.6,0.3,3.9,0.6c0.2,0.1,0.4,0.1,0.6,0.2c0.2,0.1,0.3,0.3,0.4,0.4
	c0.4,0.5,0.8,1,1.1,1.6c0.2,0.4,0.4,0.8,0.3,1.3c-0.1,0.5-0.6,0.7-1,0.9C165.1,48.4,164.9,48.5,164.7,48.5z"/>
<path id="XMLID_17_" class="st1" d="M170.8,44.4c-1.5-1.4-1.4,2.4-1,4c0.2,2.2,1.3,4.2,3.1,6.2l3.8,0.8c0,0,4.1,2.4,5.3,1
	s2.4-5,2.4-5c-0.1-2.6-1.3-4.5-3.6-5.6c-3.2-1.5-11.3-2-10.7-1.7"/>
<path id="XMLID_16_" class="st1" d="M161.2,62.3l-3.3-4.8l3.6-4.6c2.8-1.8,5.4-3.1,5.5,2l-0.2,5.8L161.2,62.3z"/>
<path id="XMLID_18_" class="st1" d="M179.4,65.9c-2,0.6-4.3,1.3-6.1,0.4c-1.5-0.8-3-1.1-4.2-1.5c-0.2-0.1-0.4-0.3-0.5-0.5
	c-0.1-0.2-0.1-0.4-0.1-0.6c-0.1-2.1,2.4-6.2,2.5-6c0.1,0.1,5.2-0.3,7.1,0.7c0.3,0.2,0.8,0.2,1.1,0.4c0.3,0.2,0.9,0.4,0.7,0.7
	c-0.7,1.5-0.3,2.5,2,2.6c0.7,0,0.7,1.3,0.5,2c-0.3,0.8-1.1,1.2-1.9,1.6C180,65.7,179.7,65.8,179.4,65.9z"/>
<path class="st0" d="M135.2-0.4c-18.8-3.1-36,4.7-48.6,18.5c-8.9,9.8-15.5,21.6-20.3,33.8c-0.7,1.9-1.4,3.7-2,5.6h83.6
	c-8.7,0-17.7-2.6-23.4-9.5c-4.2-5.1-6.1-12.1-4.7-18.6c1.8-8.3,8.8-13.7,17.4-13.4c8.3,0.3,13.6,7,16.1,14.2c0.6,1.6,1.1,3.3,1.4,5
	C154.7,35.1,171.4,7.9,135.2-0.4"/>
<path id="XMLID_4_" class="st1" d="M164.6,79.9c1-0.5,2.2-0.7,3.3-0.7c0.9,0,1.7,0.2,2.5,0.6c0.1,0.1,0.2,0.1,0.3,0.3
	c0.1,0.1,0.1,0.2,0.1,0.4c0.3,1.3-0.1,2.7-0.6,3.8c-1.3,0.1-2.6,0.2-3.9,0.1c-0.2,0-0.4,0-0.6-0.1c-0.2-0.1-0.3-0.2-0.5-0.4
	c-0.5-0.4-1-0.9-1.4-1.4c-0.3-0.3-0.5-0.8-0.5-1.2c0.1-0.5,0.5-0.8,0.9-1.1C164.2,80.1,164.4,80,164.6,79.9z"/>
<path id="XMLID_3_" class="st1" d="M159.3,85c1.7,1.1,1-2.6,0.3-4.1c-0.6-2.1-2-4-4.1-5.6l-3.9-0.1c0,0-4.4-1.7-5.4-0.1
	c-1,1.5-1.6,5.3-1.6,5.3c0.6,2.6,2.1,4.2,4.4,4.9c3.4,1,11.4,0.1,10.8-0.1"/>
<path id="XMLID_2_" class="st1" d="M165.7,65.8l4,4.2l-2.7,5.1c-2.4,2.3-4.8,4-5.7-1l-0.8-5.8L165.7,65.8z"/>
<path id="XMLID_1_" class="st1" d="M147.2,65.3c1.9-0.9,4-2,6-1.4c1.6,0.5,3.1,0.6,4.4,0.8c0.2,0,0.4,0.2,0.6,0.4
	c0.1,0.2,0.2,0.4,0.2,0.6c0.5,2.1-1.4,6.5-1.5,6.4c-0.1-0.1-5.1,1.2-7.1,0.5c-0.4-0.1-0.8,0-1.2-0.2c-0.3-0.1-0.9-0.2-0.8-0.6
	c0.5-1.6-0.1-2.5-2.4-2.2c-0.7,0.1-0.9-1.2-0.8-1.9c0.1-0.8,0.9-1.4,1.6-1.9C146.6,65.6,146.9,65.4,147.2,65.3z"/>
<path id="XMLID_5_" class="st1" d="M173.4,71.5c1.9-0.9,4-2,6-1.4c1.6,0.5,3.1,0.6,4.4,0.8c0.2,0,0.4,0.2,0.6,0.4
	c0.1,0.2,0.2,0.4,0.2,0.6c0.5,2.1-1.4,6.5-1.5,6.4c-0.1-0.1-5.1,1.2-7.1,0.5c-0.4-0.1-0.8,0-1.2-0.2c-0.3-0.1-0.9-0.2-0.8-0.6
	c0.5-1.6-0.1-2.5-2.4-2.2c-0.7,0.1-0.9-1.2-0.8-1.9c0.1-0.8,0.9-1.4,1.6-1.9C172.9,71.8,173.2,71.6,173.4,71.5z"/>
</svg>
