<?xml version="1.0" encoding="utf-8"?>
<!-- Generator: Adobe Illustrator 19.0.0, SVG Export Plug-In . SVG Version: 6.00 Build 0)  -->
<svg version="1.1" id="Layer_1" xmlns="http://www.w3.org/2000/svg" xmlns:xlink="http://www.w3.org/1999/xlink" x="0px" y="0px" width="160px" height="160px"
	 viewBox="45 -45 160 160" style="enable-background:new 45 -45 160 160;" xml:space="preserve">
<style type="text/css">
	.st0{fill:#FF9999;}
	.st1{fill:none;stroke:#FF9999;stroke-width:6;stroke-miterlimit:10;}
</style>

<path id="XMLID_16_" class="st0" d="M146.1,11"/>
<path id="XMLID_18_" class="st1" d="M181.9,64.4c-2.9-2.3-7.5-5.3-13.5-5.5c-12.1-0.6-16.2,10.8-27.7,11
	c-12.3,0.2-14.8-12.4-27.2-12.3C101.9,57.7,98.3,68.8,86,68.9c-7.3,0.1-13.4-3.7-17.4-6.9"/>
<path id="XMLID_17_" class="st1" d="M181.9,85.3c-2.9-2.3-7.5-5.3-13.5-5.5c-12.1-0.6-16.2,10.8-27.7,11
	c-12.3,0.2-14.8-12.4-27.2-12.3C101.9,78.6,98.3,89.6,86,89.8c-7.3,0.1-13.4-3.7-17.4-6.9"/>
<path id="XMLID_13_" class="st0" d="M93.2,55c1.5-15,5.6-29.8,4.5-45.1c4.1,0.7,8.1,1.4,12.2,2c-4.1-2.3-8.3-4.5-12.4-6.8
	c-1.1-8.1-2.2-16.2-3.3-24.3C128.3,1.3,150,26.3,164.3,55C139.7,51.5,115.9,51.2,93.2,55z"/>
<path id="XMLID_1_" class="st1" d="M181.9,41.8c-2.9-2.3-7.5-5.3-13.5-5.5c-12.1-0.6-16.2,10.8-27.7,11
	c-12.3,0.2-14.8-12.4-27.2-12.3C101.9,35.1,98.3,46.2,86,46.3c-7.3,0.1-13.4-3.7-17.4-6.9"/>
</svg>
