<?xml version="1.0" encoding="utf-8"?>
<!-- Generator: Adobe Illustrator 19.0.0, SVG Export Plug-In . SVG Version: 6.00 Build 0)  -->
<svg version="1.1" id="Layer_1" xmlns="http://www.w3.org/2000/svg" xmlns:xlink="http://www.w3.org/1999/xlink" x="0px" y="0px" width="160px" height="160px"
	 viewBox="45 -45 160 160" style="enable-background:new 45 -45 160 160;" xml:space="preserve">
<style type="text/css">
	.st0{fill:#FF9999;}
	.st1{fill:none;stroke:#FF9999;stroke-width:6;stroke-miterlimit:10;}
	.st2{fill:#FF9999;stroke:#FF9999;stroke-miterlimit:10;}
</style>
<path class="st0" d="M89.9,115h30v-15h-30V115z M89.9-30h30v-15h-30V-30z M64.9-45c-11.1,0-20,9-20,20v15.1h15V-20
	c0-5.5,4.5-10,10-10h9.9l-0.1-15H64.9z M59.9,90V79.9h-15V95c0,11.1,9,20,20,20h14.9l0.1-15h-10C64.3,100,59.9,95.5,59.9,90z
	 M59.9,0h-15v30h15V0z M129.9,115h30v-15h-30V115z M184.9-45H170l-0.1,15h9.9c5.5,0,10,4.5,10,10v10h15v-15
	C204.9-36.1,195.9-45,184.9-45z M189.9,30h15V0h-15V30L189.9,30z M189.9,90c0,5.5-4.5,10-10,10H170l0.1,15h14.8c11.1,0,20-9,20-20
	V79.9h-15V90L189.9,90z M129.9-30h30v-15h-30V-30z M189.9,70h15V40h-15V70L189.9,70z M59.9,40h-15v30h15V40z"/>
<path id="XMLID_18_" class="st1" d="M180.4,21.1c-2.9-2.3-7.5-5.3-13.5-5.5c-12.1-0.6-16.2,10.8-27.7,11
	c-12.3,0.2-14.8-12.4-27.2-12.3c-11.6,0.1-15.2,11.2-27.5,11.3c-7.3,0.1-13.4-3.7-17.4-6.9"/>
<path id="XMLID_1_" class="st1" d="M180.4-1.5c-2.9-2.3-7.5-5.3-13.5-5.5c-12.1-0.6-16.2,10.8-27.7,11C126.9,4.2,124.4-8.4,112-8.3
	C100.4-8.2,96.8,2.9,84.5,3c-7.3,0.1-13.4-3.7-17.4-6.9"/>
<path id="XMLID_15_" class="st2" d="M131.3,72.3c-0.3-1.1-0.3-2.2-0.1-3.3c0.2-0.8,0.5-1.7,1-2.4c0.1-0.1,0.2-0.2,0.3-0.3
	s0.2-0.1,0.4-0.1c1.3-0.1,2.6,0.5,3.6,1.3c-0.1,1.3-0.3,2.6-0.6,3.9c-0.1,0.2-0.1,0.4-0.2,0.6c-0.1,0.2-0.3,0.3-0.4,0.4
	c-0.5,0.4-1,0.8-1.6,1.1c-0.4,0.2-0.8,0.4-1.3,0.3c-0.5-0.1-0.7-0.6-0.9-1C131.4,72.7,131.3,72.5,131.3,72.3z"/>
<path id="XMLID_8_" class="st2" d="M131.4,77.6c1.4-1.5-2.4-1.4-4-1c-2.2,0.2-4.2,1.3-6.2,3.1l-0.8,3.8c0,0-2.4,4.1-1,5.3
	s5,2.4,5,2.4c2.6-0.1,4.5-1.3,5.6-3.6c1.5-3.2,2-11.3,1.7-10.7"/>
<path id="XMLID_16_" class="st2" d="M124.8,64.6l3.4,4.7l-3.5,4.7c-2.8,1.9-5.3,3.2-5.6-1.8l0-5.8L124.8,64.6z"/>
<path id="XMLID_7_" class="st2" d="M108.2,86.6c-0.6-2-1.3-4.3-0.4-6.1c0.8-1.5,1.1-3,1.5-4.2c0.1-0.2,0.3-0.4,0.5-0.5
	s0.4-0.1,0.6-0.1c2.1-0.1,6.2,2.4,6,2.5c-0.1,0.1,0.3,5.2-0.7,7.1c-0.2,0.3-0.2,0.8-0.4,1.1c-0.2,0.3-0.4,0.9-0.7,0.7
	c-1.5-0.7-2.5-0.3-2.6,2c0,0.7-1.3,0.7-2,0.5c-0.8-0.3-1.2-1.1-1.6-1.9C108.4,87.2,108.3,86.9,108.2,86.6z"/>
<path id="XMLID_6_" class="st2" d="M95.9,71.4c0.5,1,0.7,2.2,0.7,3.3c0,0.9-0.2,1.7-0.6,2.5c-0.1,0.1-0.1,0.2-0.3,0.3
	c-0.1,0.1-0.2,0.1-0.4,0.1c-1.3,0.3-2.7-0.1-3.8-0.6c-0.1-1.3-0.2-2.6-0.1-3.9c0-0.2,0-0.4,0.1-0.6c0.1-0.2,0.2-0.3,0.4-0.5
	c0.4-0.5,0.9-1,1.4-1.4c0.3-0.3,0.8-0.5,1.2-0.5c0.5,0.1,0.8,0.5,1.1,0.9C95.7,71,95.8,71.2,95.9,71.4z"/>
<path id="XMLID_4_" class="st2" d="M66.1,88.7c-1.7,1,3.9,0.6,6.2,0.2c3.2-0.4,6.1-1.2,8.5-2.5L81,84c0,0,2.6-2.7,0.2-3.3
	c-2.3-0.6-8.1-1-8.1-1c-3.9,0.4-6.4,1.3-7.4,2.7c-1.5,2.1-0.2,6.9,0.1,6.6"/>
<path id="XMLID_3_" class="st2" d="M110,72.5l-4.2,4l-5.1-2.7c-2.3-2.4-4-4.8,1-5.7l5.8-0.8L110,72.5z"/>
<path id="XMLID_2_" class="st2" d="M154.2,77.9c0.9,1.9,2,4,1.4,6c-0.5,1.6-0.6,3.1-0.8,4.4c0,0.2-0.2,0.4-0.4,0.6
	c-0.2,0.1-0.4,0.2-0.6,0.2c-2.1,0.5-6.5-1.4-6.4-1.5s-1.2-5.1-0.5-7.1c0.1-0.4,0-0.8,0.2-1.2c0.1-0.3,0.2-0.9,0.6-0.8
	c1.6,0.5,2.5-0.1,2.2-2.4c-0.1-0.7,1.2-0.9,1.9-0.8c0.8,0.1,1.4,0.9,1.9,1.6C153.9,77.3,154.1,77.6,154.2,77.9z"/>
<path id="XMLID_5_" class="st2" d="M104.3,80.2c0.9,1.9,2,4,1.4,6c-0.5,1.6-0.6,3.1-0.8,4.4c0,0.2-0.2,0.4-0.4,0.6
	c-0.2,0.1-0.4,0.2-0.6,0.2c-2.1,0.5-6.5-1.4-6.4-1.5s-1.2-5.1-0.5-7.1c0.1-0.4,0-0.8,0.2-1.2c0.1-0.3,0.2-0.9,0.6-0.8
	c1.6,0.5,2.5-0.1,2.2-2.4c-0.1-0.7,1.2-0.9,1.9-0.8c0.8,0.1,1.4,0.9,1.9,1.6C104,79.7,104.2,80,104.3,80.2z"/>
<path id="XMLID_12_" class="st2" d="M176.1,71.1c-0.3-1.1-0.3-2.2-0.1-3.3c0.2-0.8,0.5-1.7,1-2.4c0.1-0.1,0.2-0.2,0.3-0.3
	s0.2-0.1,0.4-0.1c1.3-0.1,2.6,0.5,3.6,1.3c-0.1,1.3-0.3,2.6-0.6,3.9c-0.1,0.2-0.1,0.4-0.2,0.6c-0.1,0.2-0.3,0.3-0.4,0.4
	c-0.5,0.4-1,0.8-1.6,1.1c-0.4,0.2-0.8,0.4-1.3,0.3c-0.5-0.1-0.7-0.6-0.9-1C176.2,71.5,176.1,71.3,176.1,71.1z"/>
<path id="XMLID_11_" class="st2" d="M160.9,66.6l4.8-2.4l4.6,2.6c1.8,2,3.1,3.9-2,3.9l-5.8-0.1L160.9,66.6z"/>
<path id="XMLID_10_" class="st2" d="M115.2,67.9c0.4,0.6,0.5,1.2,0.5,1.8c0,0.5-0.1,0.9-0.4,1.4c-0.1,0.1-0.1,0.1-0.2,0.2
	c-0.1,0.1-0.1,0.1-0.3,0.1c-1,0.2-2-0.1-2.8-0.3c-0.1-0.7-0.1-1.4-0.1-2.1c0-0.1,0-0.2,0.1-0.3c0.1-0.1,0.1-0.2,0.3-0.3
	c0.3-0.3,0.7-0.5,1-0.8c0.2-0.2,0.6-0.3,0.9-0.3c0.4,0.1,0.6,0.3,0.8,0.5C115,67.6,115.1,67.8,115.2,67.9z"/>
<path id="XMLID_9_" class="st2" d="M157.4,69.4l-4.2,4l-5.1-2.7c-2.3-2.4-4-4.8,1-5.7l5.8-0.8L157.4,69.4z"/>
<path id="XMLID_14_" class="st2" d="M161.6,76.6c0.5,1,0.7,2.2,0.7,3.3c0,0.9-0.2,1.7-0.6,2.5c-0.1,0.1-0.1,0.2-0.3,0.3
	c-0.1,0.1-0.2,0.1-0.4,0.1c-1.3,0.3-2.7-0.1-3.8-0.6c-0.1-1.3-0.2-2.6-0.1-3.9c0-0.2,0-0.4,0.1-0.6c0.1-0.2,0.2-0.3,0.4-0.5
	c0.4-0.5,0.9-1,1.4-1.4c0.3-0.3,0.8-0.5,1.2-0.5c0.5,0.1,0.8,0.5,1.1,0.9C161.4,76.2,161.5,76.4,161.6,76.6z"/>
<path id="XMLID_13_" class="st2" d="M175.7,77.7l-4.2,4l-5.1-2.7c-2.3-2.4-4-4.8,1-5.7l5.8-0.8L175.7,77.7z"/>
<path id="XMLID_20_" class="st2" d="M182.3,81.5c-1-0.5-1.9-1.3-2.6-2.1c-0.6-0.7-0.9-1.5-1.1-2.3c0-0.1,0-0.2,0-0.4
	c0-0.1,0.1-0.2,0.2-0.3c0.8-1,2.2-1.6,3.3-1.9c0.9,1,1.8,1.9,2.5,3c0.1,0.2,0.3,0.3,0.3,0.5c0,0.2,0,0.4,0,0.6c0,0.6-0.1,1.3-0.2,2
	c0,0.4-0.3,0.9-0.6,1.1c-0.5,0.2-0.9,0.1-1.4,0C182.7,81.7,182.5,81.6,182.3,81.5z"/>
<path id="XMLID_19_" class="st2" d="M170.7,89.5l0.8-5.7l5.7-1.1c3.3,0.4,6.1,1.2,2.8,5.1l-4,4.3L170.7,89.5z"/>
<path id="XMLID_21_" class="st2" d="M165.7,84.8c0.5,1,0.7,2.2,0.7,3.3c0,0.9-0.2,1.7-0.6,2.5c-0.1,0.1-0.1,0.2-0.3,0.3
	c-0.1,0.1-0.2,0.1-0.4,0.1c-1.3,0.3-2.7-0.1-3.8-0.6c-0.1-1.3-0.2-2.6-0.1-3.9c0-0.2,0-0.4,0.1-0.6c0.1-0.2,0.2-0.3,0.4-0.5
	c0.4-0.5,0.9-1,1.4-1.4c0.3-0.3,0.8-0.5,1.2-0.5c0.5,0.1,0.8,0.5,1.1,0.9C165.5,84.4,165.6,84.6,165.7,84.8z"/>
<path id="XMLID_22_" class="st2" d="M133.8,90.4c-1.1,1.7,2.6,1,4.1,0.3c2.1-0.6,4-2,5.6-4.1l0.1-3.9c0,0,1.7-4.4,0.1-5.4
	c-1.5-1-5.3-1.6-5.3-1.6c-2.6,0.6-4.2,2.1-4.9,4.4c-1,3.4-0.1,11.4,0.1,10.8"/>
<path id="XMLID_23_" class="st2" d="M90.8,89.3l-5.7-1.1l-0.7-5.7c0.6-3.3,1.6-6,5.2-2.5l4,4.3L90.8,89.3z"/>
<path id="XMLID_24_" class="st2" d="M83.9,75.7c-0.3-1.1-0.3-2.2-0.1-3.3c0.2-0.8,0.5-1.7,1-2.4c0.1-0.1,0.2-0.2,0.3-0.3
	s0.2-0.1,0.4-0.1c1.3-0.1,2.6,0.5,3.6,1.3c-0.1,1.3-0.3,2.6-0.6,3.9c-0.1,0.2-0.1,0.4-0.2,0.6c-0.1,0.2-0.3,0.3-0.4,0.4
	c-0.5,0.4-1,0.8-1.6,1.1c-0.4,0.2-0.8,0.4-1.3,0.3c-0.5-0.1-0.7-0.6-0.9-1C84,76.1,83.9,75.9,83.9,75.7z"/>
<path id="XMLID_25_" class="st2" d="M142,68.7c0.4,0.6,0.5,1.2,0.5,1.8c0,0.5-0.1,0.9-0.4,1.4c-0.1,0.1-0.1,0.1-0.2,0.2
	c-0.1,0.1-0.1,0.1-0.3,0.1c-1,0.2-2-0.1-2.8-0.3c-0.1-0.7-0.1-1.4-0.1-2.1c0-0.1,0-0.2,0.1-0.3c0.1-0.1,0.1-0.2,0.3-0.3
	c0.3-0.3,0.7-0.5,1-0.8c0.2-0.2,0.6-0.3,0.9-0.3c0.4,0.1,0.6,0.3,0.8,0.5C141.9,68.5,142,68.6,142,68.7z"/>
<path id="XMLID_26_" class="st2" d="M73.6,69.9c1.4-0.5,3.1-1.1,4.4-0.5c1.1,0.5,2.2,0.7,3.1,1c0.1,0.1,0.3,0.2,0.4,0.4
	c0.1,0.1,0.1,0.3,0.1,0.4c0.2,1.6-1.5,4.8-1.6,4.6c-0.1-0.1-3.7,0.4-5.2-0.3c-0.2-0.1-0.6-0.1-0.8-0.3c-0.2-0.1-0.7-0.3-0.5-0.5
	c0.4-1.2,0.1-1.9-1.6-1.9c-0.5,0-0.6-1-0.4-1.5c0.2-0.6,0.7-0.9,1.3-1.3C73.2,70.1,73.4,70,73.6,69.9z"/>
<path id="XMLID_27_" class="st2" d="M65.1,77.9c-0.3-1.1-0.3-2.2-0.1-3.3c0.2-0.8,0.5-1.7,1-2.4c0.1-0.1,0.2-0.2,0.3-0.3
	s0.2-0.1,0.4-0.1c1.3-0.1,2.6,0.5,3.6,1.3c-0.1,1.3-0.3,2.6-0.6,3.9c-0.1,0.2-0.1,0.4-0.2,0.6c-0.1,0.2-0.3,0.3-0.4,0.4
	c-0.5,0.4-1,0.8-1.6,1.1c-0.4,0.2-0.8,0.4-1.3,0.3c-0.5-0.1-0.7-0.6-0.9-1C65.2,78.3,65.1,78.1,65.1,77.9z"/>
</svg>
