<?xml version="1.0" encoding="utf-8"?>
<!-- Generator: Adobe Illustrator 19.0.0, SVG Export Plug-In . SVG Version: 6.00 Build 0)  -->
<svg version="1.1" id="Layer_1" xmlns="http://www.w3.org/2000/svg" xmlns:xlink="http://www.w3.org/1999/xlink" x="0px" y="0px" width="160px" height="160px"
	 viewBox="45 -45 160 160" style="enable-background:new 45 -45 160 160;" xml:space="preserve">
<style type="text/css">
	.st0{fill:none;stroke:#FF9999;stroke-width:6;stroke-miterlimit:10;}
	.st1{fill:#FF9999;}
</style>

<g>
	<path class="st1" d="M142.3,30.1c-1.3-4.7,5-13,5-14.7c0-1.7,0-7.8,1.1-12.5c0.3-1.3-1.1-6.1-4.7-12.3c-2.4-4.2-5.7-3.9-7-1.6
		c-1.3,2.3,2.6,5.9,4,9.2c1.3,3.3,0.6,3.2-0.9,6.3c-0.2,0.3-0.4,0.6-0.6,0.8c-0.1,0.2-0.2,0.4-0.4,0.5c-0.4,0.2-10.7,5.8-7.9,16
		c0.1,0.5-0.1,1-0.6,1.1c0,0,0,0-0.1,0c-0.5,0.1-1-0.1-1.1-0.6c-2.5-8.9,3.8-14.7,7-17.1c-0.3-0.1-0.5-0.2-0.7-0.4
		c-2.9,0.5-9.4,2.6-12.6,12.3c-0.1,0.3-0.3,0.5-0.6,0.6c-0.2,0.1-0.4,0.1-0.6,0c-0.5-0.2-0.7-0.7-0.6-1.2c2.3-7.1,6.5-10.5,9.5-12
		c1-0.5,1.9-0.8,2.8-1.1c-3-3.3-9.1-19.1-11.6-23.6c-2.7-4.8-2.7-7.3-5.7-6.8c-3.1,0.5-3.1,3-1.8,5.9c7,15.3,10.8,21.7,9.6,22.7
		c-2.1,1.6-7-6.9-9.5-10.6c-0.1-0.1-0.1-0.2-0.2-0.3c-1,2.1-2.4,3.1-3.7,3.6c-0.3,0.1-0.7,0.2-1,0.3c5.2,6.9,8.5,11,7.6,12.2
		c-1,1.4-2.2,0.1-3.5-1.3c-0.2,1.1-0.8,2.1-1.7,2.9c-0.5,0.4-1.1,0.8-1.7,1c-0.6,0.2-1.1,0.3-1.7,0.4c0.7,0.7,1.4,1.5,2.2,2.4
		c3.1,3.3,4.9,6.5,4.9,8.8c0,1.1-0.5,1.9-1.3,2.5c-0.4,0.3-0.8,0.5-1.2,0.6c-0.7,0.3-1.4,0.3-2,0.1c-1.4-0.5-1.8-1.7-1.9-1.9
		c-0.2-0.5,0.1-0.9,0.6-1.1c0,0,0,0,0,0c0.5-0.2,0.9-0.1,1.1,0.4c0,0,0.2,0.5,0.7,0.7c0.5,0.2,1.2-0.2,1.6-0.5
		c0.2-0.1,0.5-0.4,0.5-1c0.1-1.9-2.2-5.6-6.6-9.6c-0.9-0.2-1.8,0.2-2.7,1.1c-1.9,1.8-0.3,3,1.6,6.5c1.9,3.5,3.6,8.5,6.6,12.7
		c2.2,3.1,10.2,4.4,11,4.5c0,0.1,0.1,0.1,0.1,0.2l6.5,24c0.2,0,0.4,0,0.7,0c4.5,0,18.2,0,20.5,0c1.1,0,2.1-0.2,3-0.5
		C153.5,57.9,143.1,33,142.3,30.1z"/>
	<path class="st1" d="M113-11.1c-2.1-3-4.3-5.3-6.5-3.6c-2.5,2-0.8,3.4,1.9,7.6C109.5-7.1,111.9-7.6,113-11.1z"/>
	<path class="st1" d="M106.1,7.3c0.1,0.1,0.2,0.2,0.3,0.2c1.4,0.6,3.3,0.3,4.5-0.7c1.1-0.9,1.4-2.2,0.9-3.8
		c-0.9-1.2-2.1-2.7-3.2-3.4c-1.8-1.1-2.5-0.1-4.6,1.9C101.9,3.7,104,5.5,106.1,7.3z"/>
</g>

<path id="XMLID_18_" class="st0" d="M181.6,68c-2.9-2.3-7.5-5.3-13.5-5.5c-12.1-0.6-16.2,10.8-27.7,11
	c-12.3,0.2-14.8-12.4-27.2-12.3c-11.6,0.1-15.2,11.2-27.5,11.3c-7.3,0.1-13.4-3.7-17.4-6.9"/>
<path id="XMLID_17_" class="st0" d="M181.6,88.9c-2.9-2.3-7.5-5.3-13.5-5.5c-12.1-0.6-16.2,10.8-27.7,11
	c-12.3,0.2-14.8-12.4-27.2-12.3c-11.6,0.1-15.2,11.1-27.5,11.3c-7.3,0.1-13.4-3.7-17.4-6.9"/>
</svg>
