<?xml version="1.0" encoding="utf-8"?>
<!-- Generator: Adobe Illustrator 19.0.0, SVG Export Plug-In . SVG Version: 6.00 Build 0)  -->
<svg version="1.1" id="Layer_1" xmlns="http://www.w3.org/2000/svg" xmlns:xlink="http://www.w3.org/1999/xlink" x="0px" y="0px"
	 viewBox="39.2 -25.9 156.2 156.2" style="enable-background:new 39.2 -25.9 156.2 156.2;" xml:space="preserve">
<style type="text/css">
	.st0{fill:none;stroke:#FFFFFF;stroke-width:7;stroke-miterlimit:10;}
	.st1{fill:none;}
	.st2{fill:#FF9999;}
	.st3{fill:#FFFF66;}
</style>
<path class="st0" d="M174.8,126.8H59.7c-9.4,0-17-7.6-17-17V-5.4c0-9.4,7.6-17,17-17h115.2c9.4,0,17,7.6,17,17v115.2
	C191.8,119.2,184.2,126.8,174.8,126.8z"/>
<rect x="41.2" y="-17.2" class="st1" width="147.5" height="147.5"/>
<path id="XMLID_31_" class="st2" d="M134.4,113.1c0,0.1,0.1,0.2,0.1,0.3C134.4,113.3,134.4,113.2,134.4,113.1z"/>
<rect x="42.2" y="-19.9" class="st1" width="147.5" height="147.5"/>
<path class="st3" d="M98.9,80.6L98.9,80.6z M85.5,84.2L85.5,84.2z M119.7,43.3c3.2-3.2,8-8,19.3-3.2l25.5-4.3c0.2-2,1.3-5.8,5.6-5.8
	c4.8,0,5.6,3.3,5.8,4.3l2.1,4.3c0.2,0.5,0.2,1.1-0.2,1.4l0,0c-3.5,3.5-9.1,4.5-15.4,5.7c-7.8,1.4-16.7,3.1-23.1,10l34.8-0.6
	c0.7,0,1.3,0.6,1.3,1.3c0,0.1,0,0.2-0.1,0.3l0,0c-0.7,2.6-2.1,4.5-4.3,5.8c-2,1.3-4.4,2.1-7.3,2.7c-4.1,0.8-9,0.9-14.1,1.1
	c-3.5,0.2-7,0.2-10.6,0.6c1.5,1.6,3.2,2.8,5,3.8c2.5,1.3,5.4,2.3,8.4,2.9c0.7,0.2,1.1,0.8,1,1.5c-0.1,0.5-0.4,0.8-0.9,0.9l-12.8,4.6
	c-0.2,0.1-0.6,0.1-0.8,0l-0.6-0.2c-4.7-1.2-6.8-1.7-8.1-3.2c-1.1-1.2-1.4-2.7-2-5.3c-0.2-0.9-0.4-1.8-0.7-2.9
	c-3.9,1.5-12,3.1-19.5,3.2c-5.7,0-11.2-0.8-14.7-3.2L89,71c0.9,1.5,2,2.8,3.4,3.9c1.8,1.3,4,2.4,6.5,3.3c0.6,0.2,1,0.9,0.8,1.6
	c-0.2,0.4-0.5,0.7-0.9,0.8l-12.5,3.7c-0.3,0.1-0.6,0.1-0.9-0.1c-3.9-2.1-6.4-4.4-7.2-7.5c-0.7-2.5-0.2-5.4,1.3-9.1
	c-3.7,0.6-6.9,0.6-9.6-0.2c-3.5-0.9-6.3-2.8-8.7-5.8c-1.9-2.4-2.8-4.7-3.2-7.2c-0.4-3.4,0.6-6.8,2.7-10c2-3.2,4.9-6.1,8.4-9
	c11.5-9.1,29.8-16.2,42.6-17.8c0.7-0.1,1.3,0.4,1.4,1.1s-0.4,1.3-1.1,1.4c-5.3,1-18.8,8.1-29.3,15.7C75.1,41.3,69.1,47,69.4,50.5
	c0,0.1,0,0.2,0,0.2c0.1,0.3,0.3,0.6,0.7,0.8c0.6,0.3,1.5,0.4,2.8,0.3c0.8-0.1,1.6-0.2,2.6-0.4c1.4-0.8,11.7-6.1,22.8-5.2
	c6.5,0.6,10.1-0.3,12.8-0.9c2.3-0.6,4-0.9,6.1-0.5c0.5,0.1,1.3-0.7,2.3-1.7L119.7,43.3z M129.3,46.9c1.4,0,2.5,1.1,2.5,2.5
	s-1.1,2.5-2.5,2.5s-2.5-1.1-2.5-2.5S127.9,46.9,129.3,46.9z"/>
</svg>
