<?xml version="1.0" encoding="utf-8"?>
<!-- Generator: Adobe Illustrator 19.0.0, SVG Export Plug-In . SVG Version: 6.00 Build 0)  -->
<svg version="1.1" id="Layer_1" xmlns="http://www.w3.org/2000/svg" xmlns:xlink="http://www.w3.org/1999/xlink" x="0px" y="0px" width="160px" height="160px"
	 viewBox="45 -45 160 160" style="enable-background:new 45 -45 160 160;" xml:space="preserve">
<style type="text/css">
	.st0{fill:#FF9999;}
	.st1{fill:none;}
</style>
<path class="st0" d="M90,115h30v-15H90V115z M90-30h30v-15H90V-30z M65-45c-11.1,0-20,9-20,20v15.1h15V-20c0-5.5,4.5-10,10-10h9.9
	l-0.1-15H65z M60,90V79.9H45V95c0,11.1,9,20,20,20h14.9l0.1-15H70C64.4,100,60,95.5,60,90z M60,0H45v30h15V0z M130,115h30v-15h-30
	V115z M185-45h-14.9L170-30h9.9c5.5,0,10,4.5,10,10v10h15v-15C205-36.1,196-45,185-45z M190,30h15V0h-15V30L190,30z M190,90
	c0,5.5-4.5,10-10,10h-9.9l0.1,15H185c11.1,0,20-9,20-20V79.9h-15V90L190,90z M130-30h30v-15h-30V-30z M190,70h15V40h-15V70L190,70z
	 M60,40H45v30h15V40z"/>
<rect x="50" y="-33.8" class="st1" width="147.5" height="147.5"/>
<circle class="st0" cx="125" cy="35" r="17.8"/>
<g>
	<g>
		<g>
			<polygon class="st0" points="120.9,51.7 102.1,90.1 116,49.7 			"/>
			<polygon class="st0" points="134,20.1 147.9,-20.4 129.1,18 			"/>
		</g>
	</g>
	<g>
		<g>
			<polygon class="st0" points="114.8,48.9 82.7,77.2 111,45.1 			"/>
			<polygon class="st0" points="139,24.7 167.3,-7.4 135.2,20.9 			"/>
		</g>
	</g>
	<g>
		<g>
			<polygon class="st0" points="110.2,43.9 69.7,57.8 108.2,39 			"/>
			<polygon class="st0" points="141.8,30.8 180.3,12 139.8,25.8 			"/>
		</g>
	</g>
	<g>
		<g>
			<polygon class="st0" points="107.9,37.6 65.2,34.9 107.9,32.2 			"/>
			<polygon class="st0" points="142.1,37.6 184.8,34.9 142.1,32.2 			"/>
		</g>
	</g>
	<g>
		<g>
			<polygon class="st0" points="108.2,30.8 69.7,12 110.2,25.8 			"/>
			<polygon class="st0" points="139.8,43.9 180.3,57.8 141.8,39 			"/>
		</g>
	</g>
	<g>
		<g>
			<polygon class="st0" points="111,24.7 82.7,-7.4 114.8,20.9 			"/>
			<polygon class="st0" points="135.2,48.9 167.3,77.2 139,45.1 			"/>
		</g>
	</g>
	<g>
		<g>
			<polygon class="st0" points="116,20.1 102.1,-20.4 120.9,18 			"/>
			<polygon class="st0" points="129.1,51.7 147.9,90.1 134,49.7 			"/>
		</g>
	</g>
	<g>
		<g>
			<polygon class="st0" points="122.3,17.8 125,-25 127.7,17.8 			"/>
			<polygon class="st0" points="122.3,52 125,94.7 127.7,52 			"/>
		</g>
	</g>
</g>
</svg>
