<?xml version="1.0" encoding="utf-8"?>
<!-- Generator: Adobe Illustrator 19.0.0, SVG Export Plug-In . SVG Version: 6.00 Build 0)  -->
<svg version="1.1" id="Layer_1" xmlns="http://www.w3.org/2000/svg" xmlns:xlink="http://www.w3.org/1999/xlink" x="0px" y="0px"
	 viewBox="39.2 -25.9 156.2 156.2" style="enable-background:new 39.2 -25.9 156.2 156.2;" xml:space="preserve">
<style type="text/css">
	.st0{fill:none;stroke:#FFFFFF;stroke-width:7;stroke-miterlimit:10;}
	.st1{fill:none;}
	.st2{fill:#FF9999;}
	.st3{fill:#FFFF66;}
</style>
<path class="st0" d="M174.8,126.8H59.7c-9.4,0-17-7.6-17-17V-5.4c0-9.4,7.6-17,17-17h115.2c9.4,0,17,7.6,17,17v115.2
	C191.8,119.2,184.2,126.8,174.8,126.8z"/>
<rect x="41.2" y="-17.2" class="st1" width="147.5" height="147.5"/>
<path id="XMLID_31_" class="st2" d="M134.4,113.1c0,0.1,0.1,0.2,0.1,0.3C134.4,113.3,134.4,113.2,134.4,113.1z"/>
<g>
	<ellipse class="st3" cx="97.1" cy="5.5" rx="7.9" ry="7.9"/>
	<path class="st3" d="M171.4,77.9c-2.4,2.4-4.8,4.8-7.7,7c-3.4,2.6-7.9,5-12.5,6.5c18.7-45.8-4.1-88.5-4.1-88.5
		c-27.3,33.1-25.2,65.9-19.2,87.3l0.2,1.2c-1.2-0.5-2.6-1-3.8-1.2c-3.6-1-7.4-1.4-11.3-1.9c-0.7,0-1.4-0.2-1.9-0.2l0,0
		c2.4-0.5,4.1-2.9,3.6-5.5l-6.2-31.7V28.8c5.8-2.2,18.9-8.6,24.2-22.8c1-2.4-0.2-5-2.6-6c-2.4-1-5,0.2-6,2.6
		c-4.6,12.2-17.5,17-20.1,17.7H93c-0.5,0-1,0-1.4,0.2c-19.9,7-19.2,31.9-19.2,32.9c0,2.6,2.2,4.6,4.6,4.6c0,0,0,0,0.2,0
		c2.6,0,4.6-2.2,4.6-4.8c0-0.2-0.2-13.9,7.9-20.9l1,10.3L82.2,69c-0.2,1-0.2,1.9,0,2.9L87,87.7c0.5,1.4,1.4,2.4,2.6,2.9
		c-5.3,1.2-11.8,1.7-16.3-0.7c-2.9-1.4-4.3-4.3-7.7-5.3c-1.2-0.2-2.6-0.5-4.1-0.5v23.7h110.3V77.2C171.6,77.4,171.4,77.7,171.4,77.9
		z M94.7,89.4c1-1.2,1.4-2.9,1-4.6l-4.3-14.4l6-18.9h1.9l6.5,33.1c0.2,1.9,1.7,3.1,3.4,3.6C104.5,88,99.2,88.5,94.7,89.4z"/>
</g>
</svg>
