<?xml version="1.0" encoding="utf-8"?>
<!-- Generator: Adobe Illustrator 19.0.0, SVG Export Plug-In . SVG Version: 6.00 Build 0)  -->
<svg version="1.1" id="Layer_1" xmlns="http://www.w3.org/2000/svg" xmlns:xlink="http://www.w3.org/1999/xlink" x="0px" y="0px"
	 viewBox="39.2 -25.9 156.2 156.2" style="enable-background:new 39.2 -25.9 156.2 156.2;" xml:space="preserve">
<style type="text/css">
	.st0{fill:none;stroke:#FFFFFF;stroke-width:7;stroke-miterlimit:10;}
	.st1{fill:#FFFF66;}
</style>
<path class="st0" d="M174.8,126.8H59.7c-9.4,0-17-7.6-17-17V-5.4c0-9.4,7.6-17,17-17h115.2c9.4,0,17,7.6,17,17v115.2
	C191.8,119.2,184.2,126.8,174.8,126.8z"/>
<g>
	<g>
		<path class="st1" d="M62.4,74l3.4-24.5c0.8-5.8,1.6-8.7,5.1-11.7l10.2-8.7c1.8-1.5,1.7-3.4,0.7-4.7c-2.8-3.5-3.1-4-4.2-9.7
			c-0.6-3.1-1.2-6.8-1-9.1c0.7-7.2,4.8-13.2,14.9-13.2s14.2,6.1,14.9,13.2c0.2,2.3-0.4,6-1,9.1c-1.1,5.7-1.4,6.3-4.2,9.7
			c-1,1.2-1.1,3.2,0.7,4.7l5.5,4.7L101.6,47l-0.2-0.1c-1.4-0.7-2.8-1.5-4.5-0.9C95,46.7,94,47.9,93,49.2c-0.6,0.7-1.1,1.4-1.8,1.8
			c-3.6,2.5-7.4,4.6-11.3,6.7L79.4,58l-3.2,6.2c1.8-1.1,3.7-2.1,5.6-3.1c3.9-2.2,7.9-4.4,11.6-6.9c1.1-0.8,1.9-1.7,2.6-2.6
			c0.7-0.8,1.4-1.7,2.2-2c0.1,0,0.8,0.3,1.4,0.6c0.8,0.4,1.6,0.8,2.5,1c1.2,0.2,2.1-0.1,3.1-0.5c0.5-0.2,1-0.3,1-0.3
			c0.7,1.1,1.1,2.6,1.1,4.2c-3.1,1.8-6.1,3.8-8.9,5.8c-0.7,0.4-1.4,0.9-2.1,1.5c-0.2,0.2-0.5,0.4-0.7,0.6c-2,1.6-3.9,3.2-5.4,4.6
			c-5.1,1-10.3,1.8-15.5,3C71.4,70.9,66.6,72,62.4,74L62.4,74z M110.6,24c2.4,0,4.7,0.9,5.9,3.1c0.4,0.7,0.6,1.6,0.6,2.6
			c0,1.6-0.6,3.5-2,5.6l-7,10.1l6.5-5.1c1.6,2.3,2.2,5,2.8,9.2l0.1,0.6c-2,0.6-4.2,1.6-6.3,2.6c-0.2-1.5-0.8-3-1.5-4.2
			c-0.8-1.3-1.6-1.8-2.5-1.9c-0.3,0-0.6,0-0.9,0l0,0c-0.1,0-0.2,0-0.3,0l0,0h-0.1l0,0l0,0l0,0h-0.1l0,0l0,0l0,0l0,0l0,0l0,0l0,0l0,0
			h-0.1l0,0l0,0l0,0l0,0l0,0l0,0l0,0l0,0l0,0l0,0l0,0l0,0l0,0l0,0l0,0l0,0l0,0l0,0l0,0l0,0l0,0l0,0l0,0l0,0l0,0l0,0l0,0l0,0l0,0l0,0
			l0,0l0,0c-0.5,0.2-1.1,0.4-1.3,0.3l0,0l0,0l0,0l0,0l0,0l0,0l0,0l0,0l0,0l0,0l0,0l0,0l0,0l0,0l0,0l0,0l0,0l0,0l0,0l0,0l0,0l0,0l0,0
			l0,0l0,0l0,0l0,0l0,0l0,0l0,0l0,0l0,0l0,0l0,0l0,0l0,0l0,0l0,0l0,0l0,0l0,0l0,0l0,0l0,0l0,0l0,0l0,0l0,0l0,0l0,0l0,0l0,0l0,0l0,0
			l0,0l0,0l0,0l0,0l0,0l0,0l0,0l0,0l0,0l0,0l0,0l0,0l0,0l0,0l0,0l0,0l0,0l0,0l0,0l0,0l0,0l0,0l0,0l0,0l0,0l0,0l0,0l0,0l0,0l0,0l0,0
			l0,0l0,0l0,0l0,0l0,0l0,0l0,0l0,0l0,0l0,0l0,0l0,0l0,0l0,0l0,0l0,0l0,0l0,0l0,0l0,0l0,0l0,0l0,0l0,0l0,0l0,0l0,0l0,0l0,0l0,0l0,0
			l0,0l0,0l0,0h-0.1l9.8-14.1c1-1.4,1.4-2.5,1.4-3.4c0-1.4-1.4-1.8-2.6-1.8L110.6,24L110.6,24z M91.6,16.1c-3.4,0-9.1-0.5-10.3-4
			c-0.7-2.1-0.2-5,1.3-5.4c2.1-0.6,3.8,1,9,1s6.8-1.6,9-1c1.5,0.4,2,3.3,1.3,5.4C100.7,15.6,95,16.1,91.6,16.1L91.6,16.1z"/>
		<path class="st1" d="M160.5,59.5c-5.9-0.4-11.7-0.6-17.6-0.6l0.8,13.1c6.1,0,12.1,0.1,17.5,0.3c3.5,0.1,4-1.9,3.4-4.8
			c-0.5-2.1-1.2-4.3-2.1-6.4C162,59.8,161.4,59.6,160.5,59.5L160.5,59.5z M137.9,72l-0.8-13.1c-4.5,0.1-9.1,0.3-13.9,0.6
			c-2.8,0.2-6.9,2.1-11.2,4.7c-2.6,1.5-5.2,3.3-7.5,5c-1.7,1.2-1.2,3.7,1.2,3.6C115.9,72.2,127.1,72,137.9,72L137.9,72z M65.2,103.7
			h1.4c-0.3-1.2-0.5-2.5-0.5-3.9c0-8.8,7.1-15.9,15.9-15.9S97.9,91,97.9,99.8c0,1.3-0.2,2.6-0.5,3.8c13.6,0,27,0,40.5,0
			c-0.3-1.2-0.5-2.5-0.5-3.8c0-8.8,7.1-15.9,15.9-15.9s15.9,7.1,15.9,15.9c0,1.3-0.2,2.6-0.5,3.9h1.8c3.5,0,8.2,0.2,8.2-5
			c0-1.1,0-2.3,0-3.4c0-1.7-0.7-3.2-2-4.4l-0.9-0.8c0-3.4-0.1-6.5-0.3-9.5h-3.1c-1.1,0-1.7-0.9-1.9-1.9l-0.5-1.9
			c-0.3-1,0.9-1.9,1.9-1.9h2.9c-0.9-5.7-2.8-11.1-6.2-17c-1.2-2.1-2.9-3.6-5.4-3.8c-13.7-1-26.8-1.1-40.6-0.1
			c-8.7,0.6-24.3,12-30.2,18c-6.1,1-32,4.4-33.6,11.2c0,0.1-0.1,0.3-0.1,0.4h5.7c-0.5,2.1-1.9,4.1-4.5,4.3l-1.8,0.2
			c-0.1,1.3-0.2,2.5-0.5,3.7c-1.5,0.7-2.4,1.8-2.4,3.5v2.5C55.5,103,60.9,103.7,65.2,103.7L65.2,103.7z M82,87.8c6.7,0,12,5.4,12,12
			c0,6.7-5.4,12-12,12c-6.7,0-12-5.4-12-12C70,93.1,75.4,87.8,82,87.8L82,87.8z M85.8,96.1c-1-1-2.3-1.6-3.7-1.6
			c-1.5,0-2.8,0.6-3.7,1.6c-1,1-1.6,2.3-1.6,3.7c0,1.5,0.6,2.8,1.6,3.7c1,1,2.3,1.6,3.7,1.6c1.5,0,2.8-0.6,3.7-1.6
			c1-1,1.6-2.3,1.6-3.7C87.3,98.3,86.7,97,85.8,96.1L85.8,96.1z M153.4,87.8c6.7,0,12,5.4,12,12c0,6.7-5.4,12-12,12
			c-6.7,0-12-5.4-12-12C141.4,93.1,146.8,87.8,153.4,87.8L153.4,87.8z M157.2,96.1c-1-1-2.3-1.6-3.7-1.6c-1.5,0-2.8,0.6-3.7,1.6
			c-1,1-1.6,2.3-1.6,3.7c0,1.5,0.6,2.8,1.6,3.7c1,1,2.3,1.6,3.7,1.6c1.5,0,2.8-0.6,3.7-1.6c1-1,1.6-2.3,1.6-3.7
			C158.7,98.3,158.1,97,157.2,96.1L157.2,96.1z"/>
	</g>
</g>
</svg>
