<?xml version="1.0" encoding="utf-8"?>
<!-- Generator: Adobe Illustrator 19.0.0, SVG Export Plug-In . SVG Version: 6.00 Build 0)  -->
<svg version="1.1" id="Layer_1" xmlns="http://www.w3.org/2000/svg" xmlns:xlink="http://www.w3.org/1999/xlink" x="0px" y="0px"
	 viewBox="40.2 -28.7 156.2 156.2" style="enable-background:new 40.2 -28.7 156.2 156.2;" xml:space="preserve">
<style type="text/css">
	.st0{fill:none;stroke:#FFFFFF;stroke-width:7;stroke-miterlimit:10;}
	.st1{fill:none;}
	.st2{fill:#FF9999;}
	.st3{fill:#FFFF66;}
</style>
<path class="st0" d="M175.8,124H60.7c-9.4,0-17-7.6-17-17V-8.2c0-9.4,7.6-17,17-17h115.2c9.4,0,17,7.6,17,17V107
	C192.8,116.4,185.2,124,175.8,124z"/>
<rect x="42.2" y="-20" class="st1" width="147.5" height="147.5"/>
<path id="XMLID_31_" class="st2" d="M135.4,110.3c0,0.1,0.1,0.2,0.1,0.3C135.4,110.5,135.4,110.4,135.4,110.3z"/>
<rect x="43.2" y="-22.7" class="st1" width="147.5" height="147.5"/>
<rect x="44.2" y="-20" class="st1" width="147.5" height="147.5"/>
<path id="XMLID_1_" class="st2" d="M137.4,110.3c0,0.1,0.1,0.2,0.1,0.3C137.4,110.5,137.4,110.4,137.4,110.3z"/>
<path class="st3" d="M163.4,11.8c3.4,1.5,7.4-0.1,8.8-3.6c1.5-3.4-0.1-7.4-3.6-8.8c-3.4-1.5-7.4,0.1-8.8,3.6
	C158.4,6.4,160,10.3,163.4,11.8z"/>
<path class="st3" d="M173.9,34.2l-13-21.6c-0.2-0.3-0.4-0.6-0.6-0.8l-1.9-3c-0.5-0.8-1.7-0.9-2.7-0.3l-17.9,11.1L137,7.8
	c-0.1-0.8-0.7-1.4-1.5-1.7c-0.6-0.3-1.3-0.4-2.1-0.3l-23.3,0.3c-1.8,0.2-3.1,1.2-3,2.4l0.3,2.4c0.1,1.2,1.6,2,3.4,1.8l16.6-0.4
	l0.8,12l-7.8-2.4c-0.7-0.2-1.5,0.1-2.2,0.8c-0.5,0.5-0.8,1.1-1.1,1.9l-6.5,22.7c-0.5,1.7,0,3.4,1.1,3.7l2.3,0.6
	c1.1,0.3,2.4-0.8,2.9-2.5l4.7-16.2l12.9,4.6h0.1c0.6,0.2,1.3,0.1,1.9-0.3l21.1-13.5L168.2,38c0.9,1.5,2.5,2.3,3.5,1.7l2.1-1.6
	C174.8,37.5,174.8,35.7,173.9,34.2z"/>
<path class="st3" d="M102.8,14.4c-0.4,1.5-0.4,3.1-0.2,4.8c0.4,2.5,1.3,5.2,2.8,7.6c1.4,2.4,3.3,4.6,5.5,6.1
	c0.3,0.2,0.8,0.2,1.1-0.2c0.2-0.3,0.2-0.8-0.2-1.1c-1.3-0.9-2.5-2.1-3.6-3.5c-1.6-2.1-2.8-4.5-3.5-6.9c-0.3-1.2-0.6-2.4-0.6-3.5
	c-0.1-1.1,0-2.2,0.2-3.1c0.1-0.4-0.1-0.8-0.6-0.9C103.3,13.7,102.9,14,102.8,14.4z"/>
<path class="st3" d="M99.6,22.2c0.1,3,1,5.8,2.7,8.3s4,4.8,6.8,6.7c0.3,0.2,0.8,0.2,1.1-0.2c0.2-0.3,0.2-0.8-0.2-1.1
	c-2.7-1.9-4.9-4-6.4-6.3s-2.4-4.8-2.4-7.5c0-0.4-0.4-0.8-0.8-0.8C99.9,21.4,99.6,21.8,99.6,22.2z"/>
<path class="st3" d="M104.8,70.9c0,0,6.4,11.3,16.1,13.6l2.2-9.9c0,0,17.4,6.3,23.4,2.6L124.8,64L86.1,41.3L56.9,24.1
	C56.9,24.1,52.5,44.3,104.8,70.9z"/>
<path class="st3" d="M55.3,86.1c0,2.6,2.1,4.7,4.7,4.7c3.9,0,5.7,1.6,8.3,4c3.2,2.8,7.1,6.4,14.7,6.4s11.5-3.5,14.7-6.4
	c2.6-2.4,4.4-4,8.3-4s5.7,1.6,8.3,4c3.2,2.8,7.1,6.4,14.7,6.4c7.6,0,11.5-3.5,14.7-6.4c2.6-2.4,4.4-4,8.3-4c3.9,0,5.7,1.6,8.3,4
	c3.2,2.8,7.1,6.4,14.7,6.4c2.6,0,4.7-2.1,4.7-4.7s-2.1-4.7-4.7-4.7c-3.9,0-5.7-1.6-8.4-4c-3.2-2.8-7.1-6.4-14.7-6.4
	c-7.6,0-11.5,3.5-14.7,6.4c-2.6,2.4-4.4,4-8.3,4c-3.9,0-5.7-1.6-8.3-4c-3.2-2.8-7.1-6.4-14.7-6.4s-11.5,3.5-14.7,6.4
	c-2.7,2.4-4.4,4-8.3,4s-5.7-1.6-8.3-4c-3.2-2.8-7.1-6.4-14.7-6.4C57.4,81.3,55.3,83.5,55.3,86.1z"/>
</svg>
