<?xml version="1.0" encoding="utf-8"?>
<!-- Generator: Adobe Illustrator 19.0.0, SVG Export Plug-In . SVG Version: 6.00 Build 0)  -->
<svg version="1.1" id="Layer_1" xmlns="http://www.w3.org/2000/svg" xmlns:xlink="http://www.w3.org/1999/xlink" x="0px" y="0px" width="160px" height="160px"
	 viewBox="45 -45 160 160" style="enable-background:new 45 -45 160 160;" xml:space="preserve">
<style type="text/css">
	.st0{fill:#FF9999;}
</style>
<path class="st0" d="M89.9,115h30v-15h-30V115z M89.9-30h30v-15h-30V-30z M64.9-45c-11.1,0-20,9-20,20v15.1h15V-20
	c0-5.5,4.5-10,10-10h9.9l-0.1-15H64.9z M59.9,90V79.9h-15V95c0,11.1,9,20,20,20h14.9l0.1-15h-10C64.3,100,59.9,95.5,59.9,90z
	 M59.9,0h-15v30h15V0z M129.9,115h30v-15h-30V115z M184.9-45H170l-0.1,15h9.9c5.5,0,10,4.5,10,10v10h15v-15
	C204.9-36.1,195.9-45,184.9-45z M189.9,30h15V0h-15V30L189.9,30z M189.9,90c0,5.5-4.5,10-10,10H170l0.1,15h14.8c11.1,0,20-9,20-20
	V79.9h-15V90L189.9,90z M129.9-30h30v-15h-30V-30z M189.9,70h15V40h-15V70L189.9,70z M59.9,40h-15v30h15V40z"/>
<path class="st0" d="M70.8-1.4c0.4,0,0.8,0,1-0.4c3.7-2.2,14.4-8.2,18.7-8.2s11.9,5.8,14.4,8.1c0.8,0.6,1.8,0.7,2.5,0.2
	c3.3-2.2,13-8.1,17.5-8.1s14.8,5.8,18.3,8.2c0.8,0.4,1.8,0.4,2.3-0.2c2.7-2.4,10.5-8.1,15.4-8.1c5.1,0,13.4,5.8,16.1,8.1
	c0.8,0.7,2.1,0.6,2.7-0.2c0.8-0.7,0.6-2.1-0.2-2.6c-1.2-0.9-11.3-8.8-18.7-8.8c-6,0-13.8,5.6-16.7,8.1c-3.7-2.2-13.8-8.1-19.3-8.1
	c-5.4,0-15,5.8-18.5,8.1c-2.9-2.4-10.5-8.1-15.9-8.1c-6.2,0-19.3,7.9-20.8,8.8c-0.8,0.2-1.2,1.5-0.6,2.2C69.4-1.8,70.2-1.4,70.8-1.4
	z"/>
<path class="st0" d="M143,47.7l-16.5,16.8V5.6l15,17.1c0.4,0.5,0.9,0.6,1.5,0.6c0.4,0,0.7-0.2,1.1-0.3c0.7-0.5,1.1-1.4,0.4-2.1
	L126.1-0.1c0,0,0,0-0.2,0c-0.2-0.2-0.2-0.2-0.4-0.3l-0.2-0.2c-0.2,0-0.4-0.2-0.6-0.2h-0.2l0,0l0,0l0,0c-0.4,0-0.9,0.2-1.3,0.5l0,0
	c0,0,0,0-0.2,0.2L103,20.4c-0.6,0.6-0.6,1.7,0.4,2.1c0.7,0.5,2.1,0.5,2.6-0.3l16.7-17.1v59.4l-15.4-17.4c-0.6-0.6-1.7-0.9-2.6-0.3
	c-0.7,0.5-1.1,1.4-0.4,2.1l18.6,21c0.4,0.5,0.9,0.6,1.5,0.6l0,0c0.6,0,1.1-0.2,1.5-0.6l20.1-20.4c0.6-0.6,0.6-1.7-0.4-2.1
	C144.8,46.9,143.5,47,143,47.7z"/>
<path class="st0" d="M179.4,10.1h-22.5c-1.1,0-1.9,0.7-1.9,1.9s0.7,1.9,1.9,1.9h22.5c1.1,0,1.9-0.7,1.9-1.9S180.5,10.1,179.4,10.1z"
	/>
<path class="st0" d="M179.4,32.9h-22.5c-1.1,0-1.9,0.7-1.9,1.9c0,1.1,0.7,1.9,1.9,1.9h22.5c1.1,0,1.9-0.7,1.9-1.9
	C181.2,33.7,180.5,32.9,179.4,32.9z"/>
<path class="st0" d="M93.1,10.1H70.6c-1.1,0-1.9,0.7-1.9,1.9s0.7,1.9,1.9,1.9h22.5c1.1,0,1.9-0.7,1.9-1.9S94.3,10.1,93.1,10.1z"/>
<path class="st0" d="M93.1,32.9H70.6c-1.1,0-1.9,0.7-1.9,1.9c0,1.1,0.7,1.9,1.9,1.9h22.5c1.1,0,1.9-0.7,1.9-1.9
	C95,33.7,94.3,32.9,93.1,32.9z"/>
<path class="st0" d="M172.5,93.8h-95c-4.8,0-8.7-3.9-8.7-8.7v0c0-4.8,3.9-8.7,8.7-8.7h95c4.8,0,8.8,3.9,8.8,8.7v0
	C181.2,89.8,177.3,93.8,172.5,93.8z"/>
<path class="st0" d="M179.4,56.4h-22.5c-1.1,0-1.9,0.7-1.9,1.9c0,1.1,0.7,1.9,1.9,1.9h22.5c1.1,0,1.9-0.7,1.9-1.9
	C181.2,57.1,180.5,56.4,179.4,56.4z"/>
<path class="st0" d="M93.1,56.4H70.6c-1.1,0-1.9,0.7-1.9,1.9c0,1.1,0.7,1.9,1.9,1.9h22.5c1.1,0,1.9-0.7,1.9-1.9
	C95,57.1,94.3,56.4,93.1,56.4z"/>
</svg>
