<?xml version="1.0" encoding="utf-8"?>
<!-- Generator: Adobe Illustrator 19.0.0, SVG Export Plug-In . SVG Version: 6.00 Build 0)  -->
<svg version="1.1" id="Layer_1" xmlns="http://www.w3.org/2000/svg" xmlns:xlink="http://www.w3.org/1999/xlink" x="0px" y="0px" width="160px" height="160px"
	 viewBox="45 -45 160 160" style="enable-background:new 45 -45 160 160;" xml:space="preserve">
<style type="text/css">
	.st0{fill:#FF9999;}
	.st1{fill:none;}
</style>

<rect x="50" y="-33.8" class="st1" width="147.5" height="147.5"/>
<path class="st0" d="M106.7,66.7L106.7,66.7z M93.3,70.3L93.3,70.3z M127.5,29.4c3.2-3.2,8-8,19.3-3.2l25.5-4.3
	c0.2-2,1.3-5.8,5.6-5.8c4.8,0,5.6,3.3,5.8,4.3l2.1,4.3c0.2,0.5,0.2,1.1-0.2,1.4l0,0c-3.5,3.5-9.1,4.5-15.4,5.7
	c-7.8,1.4-16.7,3.1-23.1,10l34.8-0.6c0.7,0,1.3,0.6,1.3,1.3c0,0.1,0,0.2-0.1,0.3l0,0c-0.7,2.6-2.1,4.5-4.3,5.8
	c-2,1.3-4.4,2.1-7.3,2.7c-4.1,0.8-9,0.9-14.1,1.1c-3.5,0.2-7,0.2-10.6,0.6c1.5,1.6,3.2,2.8,5,3.8c2.5,1.3,5.4,2.3,8.4,2.9
	c0.7,0.2,1.1,0.8,1,1.5c-0.1,0.5-0.4,0.8-0.9,0.9l-12.8,4.6c-0.2,0.1-0.6,0.1-0.8,0l-0.6-0.2c-4.7-1.2-6.8-1.7-8.1-3.2
	c-1.1-1.2-1.4-2.7-2-5.3c-0.2-0.9-0.4-1.8-0.7-2.9c-3.9,1.5-12,3.1-19.5,3.2c-5.7,0-11.2-0.8-14.7-3.2l-4.3,2c0.9,1.5,2,2.8,3.4,3.9
	c1.8,1.3,4,2.4,6.5,3.3c0.6,0.2,1,0.9,0.8,1.6c-0.2,0.4-0.5,0.7-0.9,0.8l-12.5,3.7c-0.3,0.1-0.6,0.1-0.9-0.1
	c-3.9-2.1-6.4-4.4-7.2-7.5c-0.7-2.5-0.2-5.4,1.3-9.1c-3.7,0.6-6.9,0.6-9.6-0.2c-3.5-0.9-6.3-2.8-8.7-5.8c-1.9-2.4-2.8-4.7-3.2-7.2
	c-0.4-3.4,0.6-6.8,2.7-10c2-3.2,4.9-6.1,8.4-9c11.5-9.1,29.8-16.2,42.6-17.8c0.7-0.1,1.3,0.4,1.4,1.1c0.1,0.7-0.4,1.3-1.1,1.4
	c-5.3,1-18.8,8.1-29.3,15.7c-7.6,5.5-13.6,11.2-13.3,14.7c0,0.1,0,0.2,0,0.2c0.1,0.3,0.3,0.6,0.7,0.8c0.6,0.3,1.5,0.4,2.8,0.3
	c0.8-0.1,1.6-0.2,2.6-0.4c1.4-0.8,11.7-6.1,22.8-5.2c6.5,0.6,10.1-0.3,12.8-0.9c2.3-0.6,4-0.9,6.1-0.5c0.5,0.1,1.3-0.7,2.3-1.7
	L127.5,29.4z M137.1,33c1.4,0,2.5,1.1,2.5,2.5s-1.1,2.5-2.5,2.5c-1.4,0-2.5-1.1-2.5-2.5S135.7,33,137.1,33z"/>
</svg>
