<?xml version="1.0" encoding="utf-8"?>
<!-- Generator: Adobe Illustrator 19.0.0, SVG Export Plug-In . SVG Version: 6.00 Build 0)  -->
<svg version="1.1" id="Layer_1" xmlns="http://www.w3.org/2000/svg" xmlns:xlink="http://www.w3.org/1999/xlink" x="0px" y="0px" width="160px" height="160px"
	 viewBox="45 -45 160 160" style="enable-background:new 45 -45 160 160;" xml:space="preserve">
<style type="text/css">
	.st0{fill:#FF9999;}
</style>

<path class="st0" d="M80-2.9c-0.2,0-0.5,0-0.7,0c-1.2-0.5-2-1.7-1.7-3.2c3.5-12.6,8.6-19.7,14.1-19.7c1.5,0,3.7,0.5,5.7,3.2
	c0.5,0.7,1.2,1.5,2.2,1.5c0.7,0,1.7-0.5,2.7-1.7c2-2,3.9-3,5.9-3c1.5,0,3.7,0.5,5.9,3.2c0.5,0.7,1.5,1.5,2.2,1.5
	c0.7,0,1.7-0.5,2.5-1.5c1.7-2,3.7-3,5.9-3c1.5,0,3.7,0.5,5.9,3c1,1,1.7,1.5,2.5,1.5l0,0c1,0,1.7-0.7,2.2-1.5
	c2.2-2.5,4.4-3.2,5.9-3.2c2.2,0,4.2,1,5.9,3c1,1,2,1.5,2.7,1.7c0.7,0,1.7-0.7,2.2-1.5c2-2.7,4.2-3.2,5.9-3.2
	c5.4,0,10.6,7.2,14.1,19.7c0.2,1.2-0.5,2.7-1.7,3c-1.2,0.2-2.7-0.5-3-1.7c-3.5-11.8-7.4-16.3-9.4-16.3c-0.5,0-1.2,0.5-2,1.2
	c-2.2,2.7-4.4,3.2-5.9,3.5c-1.5,0-3.9-0.5-6.4-3.2c-0.5-0.7-1.5-1.5-2.5-1.5c-0.7,0-1.5,0.7-2,1.2c-2.2,2.7-4.4,3.2-6.2,3.2
	c-1.5,0-3.9-0.5-6.2-3.2c-0.5-0.7-1.5-1.5-2.2-1.5s-1.7,0.7-2.2,1.5c-2.5,2.7-4.7,3.2-6.2,3.2s-3.7-0.5-6.2-3.2
	c-0.5-0.5-1.2-1.2-2-1.2s-1.7,0.7-2.5,1.5c-2.5,2.7-4.9,3.2-6.4,3.2c-1.5,0-3.7-0.7-5.9-3.5c-0.7-0.7-1.2-1.2-2-1.2
	c-2,0-6.2,4.2-9.4,16.3C82-3.7,81-2.9,80-2.9z"/>
<path class="st0" d="M77.8,16.8c-0.2,0-0.5,0-0.7,0c-1.2-0.2-2-1.7-1.7-3c2.2-8.1,7.2-21.7,14.8-21.7c1.5,0,3.9,0.5,5.9,3.5
	c0.5,0.7,1.5,1.7,2.2,1.7s1.7-0.5,3-1.7c2-2.2,3.9-3.2,6.2-3.2c1.5,0,3.9,0.5,6.2,3.5c0.5,0.7,1.5,1.7,2.5,1.7
	c0.7,0,1.7-0.5,2.7-1.7c3.7-4.4,8.6-4.4,12.3,0c1,1.2,2,1.7,2.7,1.7c1,0,2-1,2.5-1.7c2.2-3.2,4.4-3.7,5.9-3.7c2.2,0,4.2,1,6.2,3.2
	c1,1.2,2.2,2,3,1.7c1,0,1.7-1,2.2-1.7c2.2-2.7,4.4-3.5,5.9-3.5c7.6,0,12.6,13.6,14.8,21.7c0.2,1.2-0.5,2.7-1.7,3
	c-1.2,0.2-2.7-0.5-3-1.7c-3.7-13.1-7.9-18-10.1-18c-0.7,0-1.5,0.7-2,1.5c-2.2,3-4.4,3.5-5.9,3.7c-2.5,0-4.7-1-6.7-3.5
	c-1-1-1.7-1.7-2.5-1.7s-1.7,0.7-2.2,1.5c-2.2,3-4.7,3.5-6.2,3.5c-1.5,0-3.9-0.5-6.4-3.5c-0.5-0.7-1.5-1.5-2.5-1.5s-1.7,0.7-2.5,1.5
	c-2.5,3-4.9,3.5-6.4,3.5s-3.9-0.7-6.2-3.5c-0.5-0.7-1.5-1.5-2.2-1.5c-0.7,0-1.5,0.5-2.5,1.7C103.2,1,101,2.3,98.8,2
	c-1.5,0-3.9-0.7-5.9-3.7c-0.5-0.7-1.2-1.5-2-1.5c-2,0-6.4,4.7-10.1,18C79.8,16.1,78.8,16.8,77.8,16.8z"/>
<path class="st0" d="M174.5,38.8c-1,0-2-0.7-2.5-1.7c-3.9-14.8-8.6-20-10.9-20c-0.7,0-1.7,1-2.2,1.7c-2.2,3.2-4.7,3.9-6.2,3.9
	c-2.5,0-4.9-1.2-7.2-3.7c-1-1.2-2-1.7-2.7-1.7c-1,0-1.7,1-2.5,1.7c-2.5,3.2-4.9,3.9-6.4,3.9c-1.7,0-4.2-0.7-6.9-3.9
	c-0.5-0.7-1.5-1.7-2.5-1.7c-1,0-2,1-2.5,1.7c-2.5,3.2-4.9,3.9-6.7,3.9l0,0c-1.7,0-4.2-0.7-6.4-3.9c-0.5-0.7-1.5-1.7-2.5-1.7
	c-0.7,0-1.7,0.7-2.7,1.7c-2.2,2.7-4.4,3.9-7.2,3.7c-1.7,0-3.9-0.7-6.2-3.9c-0.5-0.7-1.5-1.7-2.2-1.7c-2.2,0-6.9,5.4-10.9,20
	c-0.2,1.2-1.7,2.2-3,1.7c-1.2-0.2-2.2-1.7-1.7-3c2.2-8.9,7.4-23.7,15.5-23.7c1.7,0,3.9,0.7,6.2,3.7c0.5,0.7,1.5,1.7,2.5,2
	c0.7,0,2-0.7,3.2-2c2-2.5,4.2-3.5,6.4-3.5c1.7,0,3.9,0.7,6.4,3.7c1,1.2,2,2,2.7,2l0,0c0.7,0,1.7-0.7,3-2c3.9-4.7,8.9-4.7,12.8,0
	c1,1.2,2,2,3,2c0.7,0,1.7-0.7,2.7-2c2.2-3,4.7-3.7,6.4-3.7c2.2,0,4.4,1.2,6.4,3.5c1.2,1.2,2.2,2.2,3.2,2c1,0,2-1.2,2.5-2
	c2.2-3,4.7-3.7,6.2-3.7c8.1,0,13.3,14.8,15.5,23.7c0.2,1.2-0.5,2.7-1.7,3C175,38.8,174.7,38.8,174.5,38.8z"/>
<path class="st0" d="M177.5,62.9c-1,0-2.2-0.7-2.5-2c-4.2-16.5-9.4-22.4-11.6-22.4c-1,0-1.7,1-2.5,2c-2.2,3.5-4.9,4.2-6.4,4.4
	c-2.7,0-5.2-1.2-7.4-4.2c-1-1.2-2.2-2-3-2c-1,0-2,1.2-2.5,2c-2.5,3.5-5.2,4.2-6.9,4.2l0,0c-2.5,0-4.9-1.5-6.9-4.2
	c-2-2.7-3.5-2.7-5.4,0c-2.5,2.7-4.9,4.2-7.4,4.2c-1.7,0-4.2-0.7-6.9-4.2c-0.5-0.7-1.5-2-2.5-2c-0.7,0-1.7,0.7-3,2
	c-2.2,3-4.7,4.2-7.4,4.2c-1.7,0-4.2-1-6.4-4.4c-0.5-1-1.5-2-2.5-2C84,38.5,79,44.4,74.8,61c-0.2,1.2-1.7,2.2-3,1.7
	c-1.2-0.2-2.2-1.7-1.7-3c2.5-9.9,7.9-26.1,16.3-26.1c1.7,0,4.2,0.7,6.4,3.9c1,1.2,2,2.2,2.7,2.2c1,0,2.2-0.7,3.2-2.2
	c2-2.5,4.4-3.9,6.7-3.9c1.7,0,4.2,0.7,6.7,3.9c1,1.5,2,2.2,3,2.2l0,0c1,0,2-0.7,3-2.2c3.9-5.2,9.4-5.2,13.3,0c1.2,1.5,2.2,2.2,3,2.2
	l0,0c0.7,0,2-0.7,3-2.2c2.5-3.2,4.9-3.9,6.7-3.9c2.5,0,4.7,1.2,6.7,3.9c1.2,1.5,2.5,2.5,3.2,2.2c0.7,0,1.7-0.7,2.7-2.2
	c2.2-3.5,4.7-3.9,6.4-3.9c8.4,0,13.8,16.3,16.3,26.1c0.2,1.2-0.5,2.7-1.7,3C177.7,62.9,177.5,62.9,177.5,62.9z"/>
<path class="st0" d="M69.4,90.1c-0.2,0-0.5,0-0.5,0c-1.2-0.2-2.2-1.7-1.7-3C69.9,76.3,75.8,58,84.5,58c1.7,0,4.4,0.7,6.7,4.4
	c1,1.5,2,2.5,3,2.5c1,0,2.2-1,3.7-2.7c4.4-5.7,10.1-5.7,13.8,0c1,1.7,2.2,2.5,3.2,2.5c1,0,2.2-1,3.5-2.5c4.2-5.7,9.9-5.7,13.8,0
	c1.2,1.7,2.5,2.5,3.2,2.5l0,0c1,0,2-1,3.2-2.5c3.9-5.7,9.6-5.9,13.8,0c1.2,1.7,2.7,2.7,3.7,2.7c0.7,0,2-1,3-2.5
	c2.5-3.7,4.9-4.4,6.7-4.4c8.9,0,14.6,18.3,17.3,29.1c0.2,1.2-0.5,2.7-1.7,3c-1.2,0.2-2.7-0.5-3-1.7c-4.7-18.5-10.1-25.2-12.6-25.2
	c-1,0-2,1.5-2.7,2.2c-2,3-4.2,4.7-6.9,4.7c-2.7,0.2-5.4-1.5-7.6-4.7c-1.2-1.5-2.2-2.5-3.2-2.5s-2.2,1.5-2.7,2.2
	c-2,3-4.4,4.7-7.2,4.7l0,0c-2.7,0-5.2-1.5-7.4-4.7c-1-1.5-2.2-2.2-3-2.2c-0.7,0-2,0.7-3,2.2c-2.2,3.2-4.7,4.7-7.4,4.7
	c-2.7,0-4.9-1.7-7.2-4.7c-0.5-0.7-1.7-2.2-2.7-2.2c-1,0-2,0.7-3.2,2.5c-2.5,3.2-5.2,4.7-7.6,4.7c-2.7,0-4.9-1.7-6.9-4.7
	c-0.5-0.7-1.5-2.2-2.5-2.2c-2.5,0-7.9,6.7-12.6,25.2C71.6,89.3,70.4,90.1,69.4,90.1z"/>
<path class="st0" d="M126.4,90.9V71.3l7,6.7c0.5,0.5,1.3,0.5,1.8,0c0.5-0.5,0.5-1.3,0-1.8l-9.2-8.9l0,0c-0.1-0.1-0.1-0.1-0.2-0.2
	c0,0-0.1,0-0.1-0.1c0,0-0.1,0-0.1-0.1c0,0-0.1,0-0.1,0c0,0-0.1,0-0.1,0c-0.1,0-0.2,0-0.3,0l0,0c0,0,0,0,0,0c-0.1,0-0.2,0-0.3,0
	c0,0-0.1,0-0.1,0c0,0-0.1,0-0.1,0c0,0-0.1,0-0.1,0.1c0,0-0.1,0-0.1,0c-0.1,0-0.1,0.1-0.2,0.2l-9.2,8.9c-0.5,0.5-0.5,1.3,0,1.8
	c0.5,0.5,1.3,0.5,1.8,0l7-6.7v19.6c0,0.7,0.6,1.3,1.3,1.3S126.4,91.6,126.4,90.9z"/>
</svg>
