<?xml version="1.0" encoding="utf-8"?>
<!-- Generator: Adobe Illustrator 19.0.0, SVG Export Plug-In . SVG Version: 6.00 Build 0)  -->
<svg version="1.1" id="Layer_1" xmlns="http://www.w3.org/2000/svg" xmlns:xlink="http://www.w3.org/1999/xlink" x="0px" y="0px"
	 viewBox="39.2 -25.9 156.2 156.2" style="enable-background:new 39.2 -25.9 156.2 156.2;" xml:space="preserve">
<style type="text/css">
	.st0{fill:none;stroke:#FFFFFF;stroke-width:7;stroke-miterlimit:10;}
	.st1{fill:#FFFF66;}
</style>
<path class="st0" d="M174.8,126.8H59.7c-9.4,0-17-7.6-17-17V-5.4c0-9.4,7.6-17,17-17h115.2c9.4,0,17,7.6,17,17v115.2
	C191.8,119.2,184.2,126.8,174.8,126.8z"/>
<g>
	<path class="st1" d="M172,16.5c-6.8,0-9.8-9.7-9.8-9.8c-0.4-1.3-1.5-2.2-2.8-2.3c-1.3-0.1-2.5,0.6-3.1,1.8
		c-1.3,2.7-6.2,10.3-11.2,10.3s-9.3-7.3-10.6-10.1c-0.5-1.1-1.5-1.8-2.7-1.9S129.5,5,128.9,6c-2.5,4.2-7.9,10.5-11.4,10.5
		c-3.7,0-8.4-6.9-10.1-10.3c-0.5-1-1.6-1.7-2.8-1.7c-1.2,0-2.3,0.6-2.8,1.6c-1.5,2.7-6.9,10.4-11.6,10.4c-4.4,0-8.7-7.5-9.9-10.1
		c-0.5-1.2-1.7-1.9-3-1.9s-2.4,0.8-2.9,2c-0.2,0.4-3.9,10-12.9,10c-1.8,0-3.2,1.4-3.2,3.2s1.4,3.2,3.2,3.2c7.9,0,13-4.7,15.8-8.7
		c2.7,4,7.1,8.7,12.8,8.7c6,0,11.1-5.3,14.2-9.3c2.8,4.1,7.5,9.3,13.1,9.3s10.7-5.2,13.9-9.2c2.7,4.1,7.4,9.2,13.8,9.2
		c6,0,10.8-4.6,13.7-8.5c2.4,4,6.6,8.5,13.3,8.5c1.8,0,3.2-1.4,3.2-3.2C175.3,17.9,173.8,16.5,172,16.5z"/>
	<path class="st1" d="M63,61.2h74.5c7,0,12.6-5.7,12.6-12.6S144.4,36,137.5,36c-1.8,0-3.2,1.4-3.2,3.2s1.4,3.2,3.2,3.2
		c3.5,0,6.3,2.8,6.3,6.3S141,55,137.5,55H63c-1.8,0-3.2,1.4-3.2,3.2C59.8,59.8,61.2,61.2,63,61.2z"/>
	<path class="st1" d="M63,83.6h58.6c3.5,0,6.3,2.8,6.3,6.3s-2.8,6.3-6.3,6.3c-1.8,0-3.2,1.4-3.2,3.2c0,1.8,1.4,3.2,3.2,3.2
		c7,0,12.6-5.7,12.6-12.6c0-6.9-5.7-12.6-12.6-12.6H63c-1.8,0-3.2,1.4-3.2,3.2C59.8,82.4,61.2,83.6,63,83.6z"/>
	<path class="st1" d="M63,72.1h92.1c3.5,0,6.3,2.8,6.3,6.3s-2.8,6.3-6.3,6.3c-1.8,0-3.2,1.4-3.2,3.2c0,1.8,1.4,3.2,3.2,3.2
		c7,0,12.6-5.7,12.6-12.6c0-7-5.7-12.6-12.6-12.6H63c-1.8,0-3.2,1.4-3.2,3.2C59.8,70.9,61.2,72.1,63,72.1z"/>
</g>
</svg>
