<?xml version="1.0" encoding="utf-8"?>
<!-- Generator: Adobe Illustrator 19.0.0, SVG Export Plug-In . SVG Version: 6.00 Build 0)  -->
<svg version="1.1" id="Layer_1" xmlns="http://www.w3.org/2000/svg" xmlns:xlink="http://www.w3.org/1999/xlink" x="0px" y="0px" width="160px" height="160px"
	 viewBox="45 -45 160 160" style="enable-background:new 45 -45 160 160;" xml:space="preserve">
<style type="text/css">
	.st0{fill:#FF9999;}
</style>

<path class="st0" d="M171.2-2.5c3.4,1.5,7.4-0.1,8.8-3.6c1.5-3.4-0.1-7.4-3.6-8.8c-3.4-1.5-7.4,0.1-8.8,3.6
	C166.2-7.9,167.8-4,171.2-2.5z"/>
<path class="st0" d="M181.7,19.9l-13-21.6c-0.2-0.3-0.4-0.6-0.6-0.8l-1.9-3c-0.5-0.8-1.7-0.9-2.7-0.3L145.6,5.3l-0.8-11.8
	c-0.1-0.8-0.7-1.4-1.5-1.7c-0.6-0.3-1.3-0.4-2.1-0.3l-23.3,0.3c-1.8,0.2-3.1,1.2-3,2.4l0.3,2.4c0.1,1.2,1.6,2,3.4,1.8L135.2-2
	l0.8,12l-7.8-2.4c-0.7-0.2-1.5,0.1-2.2,0.8c-0.5,0.5-0.8,1.1-1.1,1.9L118.4,33c-0.5,1.7,0,3.4,1.1,3.7l2.3,0.6
	c1.1,0.3,2.4-0.8,2.9-2.5l4.7-16.2l12.9,4.6c0,0,0.1,0,0.1,0c0.6,0.2,1.3,0.1,1.9-0.3l21.1-13.5L176,23.7c0.9,1.5,2.5,2.3,3.5,1.7
	l2.1-1.6C182.6,23.2,182.6,21.4,181.7,19.9z"/>
<path class="st0" d="M110.6,0.1c-0.4,1.5-0.4,3.1-0.2,4.8c0.4,2.5,1.3,5.2,2.8,7.6c1.4,2.4,3.3,4.6,5.5,6.1c0.3,0.2,0.8,0.2,1.1-0.2
	c0.2-0.3,0.2-0.8-0.2-1.1c-1.3-0.9-2.5-2.1-3.6-3.5c-1.6-2.1-2.8-4.5-3.5-6.9c-0.3-1.2-0.6-2.4-0.6-3.5c-0.1-1.1,0-2.2,0.2-3.1
	c0.1-0.4-0.1-0.8-0.6-0.9C111.1-0.6,110.7-0.3,110.6,0.1z"/>
<path class="st0" d="M107.4,7.9c0.1,3,1,5.8,2.7,8.3c1.7,2.5,4,4.8,6.8,6.7c0.3,0.2,0.8,0.2,1.1-0.2c0.2-0.3,0.2-0.8-0.2-1.1
	c-2.7-1.9-4.9-4-6.4-6.3c-1.5-2.3-2.4-4.8-2.4-7.5c0-0.4-0.4-0.8-0.8-0.8C107.7,7.1,107.4,7.5,107.4,7.9z"/>
<path class="st0" d="M112.6,56.6c0,0,6.4,11.3,16.1,13.6l2.2-9.9c0,0,17.4,6.3,23.4,2.6l-21.7-13.2L93.9,27L64.7,9.8
	C64.7,9.8,60.3,30,112.6,56.6z M125,45.3"/>
<path class="st0" d="M63.1,71.8c0,2.6,2.1,4.7,4.7,4.7c3.9,0,5.7,1.6,8.3,4c3.2,2.8,7.1,6.4,14.7,6.4c7.6,0,11.5-3.5,14.7-6.4
	c2.6-2.4,4.4-4,8.3-4c3.9,0,5.7,1.6,8.3,4c3.2,2.8,7.1,6.4,14.7,6.4c7.6,0,11.5-3.5,14.7-6.4c2.6-2.4,4.4-4,8.3-4
	c3.9,0,5.7,1.6,8.3,4c3.2,2.8,7.1,6.4,14.7,6.4c2.6,0,4.7-2.1,4.7-4.7c0-2.6-2.1-4.7-4.7-4.7c-3.9,0-5.7-1.6-8.4-4
	c-3.2-2.8-7.1-6.4-14.7-6.4c-7.6,0-11.5,3.5-14.7,6.4c-2.6,2.4-4.4,4-8.3,4c-3.9,0-5.7-1.6-8.3-4c-3.2-2.8-7.1-6.4-14.7-6.4
	c-7.6,0-11.5,3.5-14.7,6.4c-2.7,2.4-4.4,4-8.3,4c-3.9,0-5.7-1.6-8.3-4c-3.2-2.8-7.1-6.4-14.7-6.4C65.2,67,63.1,69.2,63.1,71.8z"/>
</svg>
