<?xml version="1.0" encoding="utf-8"?>
<!-- Generator: Adobe Illustrator 19.0.0, SVG Export Plug-In . SVG Version: 6.00 Build 0)  -->
<svg version="1.1" id="Layer_1" xmlns="http://www.w3.org/2000/svg" xmlns:xlink="http://www.w3.org/1999/xlink" x="0px" y="0px"
	 viewBox="39.2 -25.9 156.2 156.2" style="enable-background:new 39.2 -25.9 156.2 156.2;" xml:space="preserve">
<style type="text/css">
	.st0{fill:none;stroke:#FFFFFF;stroke-width:7;stroke-miterlimit:10;}
	.st1{fill:#FFFF66;}
</style>
<path class="st0" d="M174.8,126.8H59.7c-9.4,0-17-7.6-17-17V-5.4c0-9.4,7.6-17,17-17h115.2c9.4,0,17,7.6,17,17v115.2
	C191.8,119.2,184.2,126.8,174.8,126.8z"/>
<path class="st1" d="M72.2,16.2c-0.2,0-0.5,0-0.7,0c-1.2-0.5-2-1.7-1.7-3.2C73.3,0.4,78.4-6.7,83.9-6.7c1.5,0,3.7,0.5,5.7,3.2
	C90.1-2.8,90.8-2,91.8-2c0.7,0,1.7-0.5,2.7-1.7c2-2,3.9-3,5.9-3c1.5,0,3.7,0.5,5.9,3.2c0.5,0.7,1.5,1.5,2.2,1.5s1.7-0.5,2.5-1.5
	c1.7-2,3.7-3,5.9-3c1.5,0,3.7,0.5,5.9,3c1,1,1.7,1.5,2.5,1.5l0,0c1,0,1.7-0.7,2.2-1.5c2.2-2.5,4.4-3.2,5.9-3.2c2.2,0,4.2,1,5.9,3
	c1,1,2,1.5,2.7,1.7c0.7,0,1.7-0.7,2.2-1.5c2-2.7,4.2-3.2,5.9-3.2c5.4,0,10.6,7.2,14.1,19.7c0.2,1.2-0.5,2.7-1.7,3
	c-1.2,0.2-2.7-0.5-3-1.7C156,2.5,152.1-2,150.1-2c-0.5,0-1.2,0.5-2,1.2c-2.2,2.7-4.4,3.2-5.9,3.5c-1.5,0-3.9-0.5-6.4-3.2
	c-0.5-0.7-1.5-1.5-2.5-1.5c-0.7,0-1.5,0.7-2,1.2c-2.2,2.7-4.4,3.2-6.2,3.2c-1.5,0-3.9-0.5-6.2-3.2c-0.5-0.7-1.5-1.5-2.2-1.5
	s-1.7,0.7-2.2,1.5c-2.5,2.7-4.7,3.2-6.2,3.2s-3.7-0.5-6.2-3.2c-0.5-0.5-1.2-1.2-2-1.2s-1.7,0.7-2.5,1.5c-2.5,2.7-4.9,3.2-6.4,3.2
	S87.5,2,85.3-0.8c-0.7-0.7-1.2-1.2-2-1.2c-2,0-6.2,4.2-9.4,16.3C74.2,15.4,73.2,16.2,72.2,16.2z"/>
<path class="st1" d="M70,35.9c-0.2,0-0.5,0-0.7,0c-1.2-0.2-2-1.7-1.7-3c2.2-8.1,7.2-21.7,14.8-21.7c1.5,0,3.9,0.5,5.9,3.5
	c0.5,0.7,1.5,1.7,2.2,1.7s1.7-0.5,3-1.7c2-2.2,3.9-3.2,6.2-3.2c1.5,0,3.9,0.5,6.2,3.5c0.5,0.7,1.5,1.7,2.5,1.7
	c0.7,0,1.7-0.5,2.7-1.7c3.7-4.4,8.6-4.4,12.3,0c1,1.2,2,1.7,2.7,1.7c1,0,2-1,2.5-1.7c2.2-3.2,4.4-3.7,5.9-3.7c2.2,0,4.2,1,6.2,3.2
	c1,1.2,2.2,2,3,1.7c1,0,1.7-1,2.2-1.7c2.2-2.7,4.4-3.5,5.9-3.5c7.6,0,12.6,13.6,14.8,21.7c0.2,1.2-0.5,2.7-1.7,3
	c-1.2,0.2-2.7-0.5-3-1.7c-3.7-13.1-7.9-18-10.1-18c-0.7,0-1.5,0.7-2,1.5c-2.2,3-4.4,3.5-5.9,3.7c-2.5,0-4.7-1-6.7-3.5
	c-1-1-1.7-1.7-2.5-1.7s-1.7,0.7-2.2,1.5c-2.2,3-4.7,3.5-6.2,3.5s-3.9-0.5-6.4-3.5c-0.5-0.7-1.5-1.5-2.5-1.5s-1.7,0.7-2.5,1.5
	c-2.5,3-4.9,3.5-6.4,3.5s-3.9-0.7-6.2-3.5c-0.5-0.7-1.5-1.5-2.2-1.5s-1.5,0.5-2.5,1.7c-2.2,2.4-4.4,3.7-6.6,3.4
	c-1.5,0-3.9-0.7-5.9-3.7c-0.5-0.7-1.2-1.5-2-1.5c-2,0-6.4,4.7-10.1,18C72,35.2,71,35.9,70,35.9z"/>
<path class="st1" d="M166.7,57.9c-1,0-2-0.7-2.5-1.7c-3.9-14.8-8.6-20-10.9-20c-0.7,0-1.7,1-2.2,1.7c-2.2,3.2-4.7,3.9-6.2,3.9
	c-2.5,0-4.9-1.2-7.2-3.7c-1-1.2-2-1.7-2.7-1.7c-1,0-1.7,1-2.5,1.7c-2.5,3.2-4.9,3.9-6.4,3.9c-1.7,0-4.2-0.7-6.9-3.9
	c-0.5-0.7-1.5-1.7-2.5-1.7s-2,1-2.5,1.7c-2.5,3.2-4.9,3.9-6.7,3.9l0,0c-1.7,0-4.2-0.7-6.4-3.9c-0.5-0.7-1.5-1.7-2.5-1.7
	c-0.7,0-1.7,0.7-2.7,1.7c-2.2,2.7-4.4,3.9-7.2,3.7c-1.7,0-3.9-0.7-6.2-3.9c-0.5-0.7-1.5-1.7-2.2-1.7c-2.2,0-6.9,5.4-10.9,20
	c-0.2,1.2-1.7,2.2-3,1.7c-1.2-0.2-2.2-1.7-1.7-3c2.2-8.9,7.4-23.7,15.5-23.7c1.7,0,3.9,0.7,6.2,3.7c0.5,0.7,1.5,1.7,2.5,2
	c0.7,0,2-0.7,3.2-2c2-2.5,4.2-3.5,6.4-3.5c1.7,0,3.9,0.7,6.4,3.7c1,1.2,2,2,2.7,2l0,0c0.7,0,1.7-0.7,3-2c3.9-4.7,8.9-4.7,12.8,0
	c1,1.2,2,2,3,2c0.7,0,1.7-0.7,2.7-2c2.2-3,4.7-3.7,6.4-3.7c2.2,0,4.4,1.2,6.4,3.5c1.2,1.2,2.2,2.2,3.2,2c1,0,2-1.2,2.5-2
	c2.2-3,4.7-3.7,6.2-3.7c8.1,0,13.3,14.8,15.5,23.7c0.2,1.2-0.5,2.7-1.7,3C167.2,57.9,166.9,57.9,166.7,57.9z"/>
<path class="st1" d="M169.7,82c-1,0-2.2-0.7-2.5-2c-4.2-16.5-9.4-22.4-11.6-22.4c-1,0-1.7,1-2.5,2c-2.2,3.5-4.9,4.2-6.4,4.4
	c-2.7,0-5.2-1.2-7.4-4.2c-1-1.2-2.2-2-3-2c-1,0-2,1.2-2.5,2c-2.5,3.5-5.2,4.2-6.9,4.2l0,0c-2.5,0-4.9-1.5-6.9-4.2s-3.5-2.7-5.4,0
	c-2.5,2.7-4.9,4.2-7.4,4.2c-1.7,0-4.2-0.7-6.9-4.2c-0.5-0.7-1.5-2-2.5-2c-0.7,0-1.7,0.7-3,2c-2.2,3-4.7,4.2-7.4,4.2
	c-1.7,0-4.2-1-6.4-4.4c-0.5-1-1.5-2-2.5-2c-2.3,0-7.3,5.9-11.5,22.5c-0.2,1.2-1.7,2.2-3,1.7c-1.2-0.2-2.2-1.7-1.7-3
	c2.5-9.9,7.9-26.1,16.3-26.1c1.7,0,4.2,0.7,6.4,3.9c1,1.2,2,2.2,2.7,2.2c1,0,2.2-0.7,3.2-2.2c2-2.5,4.4-3.9,6.7-3.9
	c1.7,0,4.2,0.7,6.7,3.9c1,1.5,2,2.2,3,2.2l0,0c1,0,2-0.7,3-2.2c3.9-5.2,9.4-5.2,13.3,0c1.2,1.5,2.2,2.2,3,2.2l0,0c0.7,0,2-0.7,3-2.2
	c2.5-3.2,4.9-3.9,6.7-3.9c2.5,0,4.7,1.2,6.7,3.9c1.2,1.5,2.5,2.5,3.2,2.2c0.7,0,1.7-0.7,2.7-2.2c2.2-3.5,4.7-3.9,6.4-3.9
	c8.4,0,13.8,16.3,16.3,26.1c0.2,1.2-0.5,2.7-1.7,3C169.9,82,169.7,82,169.7,82z"/>
<path class="st1" d="M61.6,109.2c-0.2,0-0.5,0-0.5,0c-1.2-0.2-2.2-1.7-1.7-3c2.7-10.8,8.6-29.1,17.3-29.1c1.7,0,4.4,0.7,6.7,4.4
	c1,1.5,2,2.5,3,2.5s2.2-1,3.7-2.7c4.4-5.7,10.1-5.7,13.8,0c1,1.7,2.2,2.5,3.2,2.5s2.2-1,3.5-2.5c4.2-5.7,9.9-5.7,13.8,0
	c1.2,1.7,2.5,2.5,3.2,2.5l0,0c1,0,2-1,3.2-2.5c3.9-5.7,9.6-5.9,13.8,0c1.2,1.7,2.7,2.7,3.7,2.7c0.7,0,2-1,3-2.5
	c2.5-3.7,4.9-4.4,6.7-4.4c8.9,0,14.6,18.3,17.3,29.1c0.2,1.2-0.5,2.7-1.7,3c-1.2,0.2-2.7-0.5-3-1.7C165.9,89,160.5,82.3,158,82.3
	c-1,0-2,1.5-2.7,2.2c-2,3-4.2,4.7-6.9,4.7c-2.7,0.2-5.4-1.5-7.6-4.7c-1.2-1.5-2.2-2.5-3.2-2.5s-2.2,1.5-2.7,2.2
	c-2,3-4.4,4.7-7.2,4.7l0,0c-2.7,0-5.2-1.5-7.4-4.7c-1-1.5-2.2-2.2-3-2.2c-0.7,0-2,0.7-3,2.2c-2.2,3.2-4.7,4.7-7.4,4.7
	s-4.9-1.7-7.2-4.7C99.2,83.5,98,82,97,82s-2,0.7-3.2,2.5c-2.5,3.2-5.2,4.7-7.6,4.7c-2.7,0-4.9-1.7-6.9-4.7c-0.5-0.7-1.5-2.2-2.5-2.2
	c-2.5,0-7.9,6.7-12.6,25.2C63.8,108.4,62.6,109.2,61.6,109.2z"/>
<path class="st1" d="M118.6,115V95.4l7,6.7c0.5,0.5,1.3,0.5,1.8,0c0.5-0.5,0.5-1.3,0-1.8l-9.2-8.9l0,0c-0.1-0.1-0.1-0.1-0.2-0.2
	c0,0-0.1,0-0.1-0.1c0,0-0.1,0-0.1-0.1h-0.1h-0.1c-0.1,0-0.2,0-0.3,0l0,0l0,0c-0.1,0-0.2,0-0.3,0h-0.1h-0.1c0,0-0.1,0-0.1,0.1h-0.1
	c-0.1,0-0.1,0.1-0.2,0.2l-9.2,8.9c-0.5,0.5-0.5,1.3,0,1.8s1.3,0.5,1.8,0l7-6.7v19.6c0,0.7,0.6,1.3,1.3,1.3
	C118,116.2,118.6,115.7,118.6,115z"/>
</svg>
