<?xml version="1.0" encoding="utf-8"?>
<!-- Generator: Adobe Illustrator 19.0.0, SVG Export Plug-In . SVG Version: 6.00 Build 0)  -->
<svg version="1.1" id="Layer_1" xmlns="http://www.w3.org/2000/svg" xmlns:xlink="http://www.w3.org/1999/xlink" x="0px" y="0px"
	 viewBox="39.2 -25.9 156.2 156.2" style="enable-background:new 39.2 -25.9 156.2 156.2;" xml:space="preserve">
<style type="text/css">
	.st0{fill:none;stroke:#FFFFFF;stroke-width:7;stroke-miterlimit:10;}
	.st1{fill:#FFFF66;}
</style>
<path class="st0" d="M174.8,126.8H59.7c-9.4,0-17-7.6-17-17V-5.4c0-9.4,7.6-17,17-17h115.2c9.4,0,17,7.6,17,17v115.2
	C191.8,119.2,184.2,126.8,174.8,126.8z"/>
<path class="st1" d="M63,10.7c0.4,0,0.8,0,1-0.4c3.7-2.2,14.4-8.2,18.7-8.2c4.3,0,11.9,5.8,14.4,8.1c0.8,0.6,1.8,0.7,2.5,0.2
	c3.3-2.2,13-8.1,17.5-8.1s14.8,5.8,18.3,8.2c0.8,0.4,1.8,0.4,2.3-0.2c2.7-2.4,10.5-8.1,15.4-8.1c5.1,0,13.4,5.8,16.1,8.1
	c0.8,0.7,2.1,0.6,2.7-0.2c0.8-0.7,0.6-2.1-0.2-2.6c-1.2-0.9-11.3-8.8-18.7-8.8c-6,0-13.8,5.6-16.7,8.1c-3.7-2.2-13.8-8.1-19.3-8.1
	c-5.4,0-15,5.8-18.5,8.1C95.6,4.4,88-1.3,82.6-1.3c-6.2,0-19.3,7.9-20.8,8.8C61,7.7,60.6,9,61.2,9.7C61.6,10.3,62.4,10.7,63,10.7z"
	/>
<path class="st1" d="M135.2,59.8l-16.5,16.8V17.7l15,17.1c0.4,0.5,0.9,0.6,1.5,0.6c0.4,0,0.7-0.2,1.1-0.3c0.7-0.5,1.1-1.4,0.4-2.1
	l-18.4-21c0,0,0,0-0.2,0c-0.2-0.2-0.2-0.2-0.4-0.3l-0.2-0.2c-0.2,0-0.4-0.2-0.6-0.2h-0.2l0,0l0,0l0,0c-0.4,0-0.9,0.2-1.3,0.5l0,0
	c0,0,0,0-0.2,0.2l-20,20.5c-0.6,0.6-0.6,1.7,0.4,2.1c0.7,0.5,2.1,0.5,2.6-0.3l16.7-17.1v59.4L99.5,59.2c-0.6-0.6-1.7-0.9-2.6-0.3
	c-0.7,0.5-1.1,1.4-0.4,2.1l18.6,21c0.4,0.5,0.9,0.6,1.5,0.6l0,0c0.6,0,1.1-0.2,1.5-0.6l20.1-20.4c0.6-0.6,0.6-1.7-0.4-2.1
	C137,59,135.7,59.1,135.2,59.8z"/>
<path class="st1" d="M171.6,22.2h-22.5c-1.1,0-1.9,0.7-1.9,1.9s0.7,1.9,1.9,1.9h22.5c1.1,0,1.9-0.7,1.9-1.9S172.7,22.2,171.6,22.2z"
	/>
<path class="st1" d="M171.6,45h-22.5c-1.1,0-1.9,0.7-1.9,1.9c0,1.1,0.7,1.9,1.9,1.9h22.5c1.1,0,1.9-0.7,1.9-1.9
	C173.4,45.8,172.7,45,171.6,45z"/>
<path class="st1" d="M85.3,22.2H62.8c-1.1,0-1.9,0.7-1.9,1.9s0.7,1.9,1.9,1.9h22.5c1.1,0,1.9-0.7,1.9-1.9S86.5,22.2,85.3,22.2z"/>
<path class="st1" d="M85.3,45H62.8c-1.1,0-1.9,0.7-1.9,1.9c0,1.1,0.7,1.9,1.9,1.9h22.5c1.1,0,1.9-0.7,1.9-1.9
	C87.2,45.8,86.5,45,85.3,45z"/>
<path class="st1" d="M164.7,105.9h-95c-4.8,0-8.7-3.9-8.7-8.7l0,0c0-4.8,3.9-8.7,8.7-8.7h95c4.8,0,8.8,3.9,8.8,8.7l0,0
	C173.4,101.9,169.5,105.9,164.7,105.9z"/>
<path class="st1" d="M171.6,68.5h-22.5c-1.1,0-1.9,0.7-1.9,1.9c0,1.1,0.7,1.9,1.9,1.9h22.5c1.1,0,1.9-0.7,1.9-1.9
	C173.4,69.2,172.7,68.5,171.6,68.5z"/>
<path class="st1" d="M85.3,68.5H62.8c-1.1,0-1.9,0.7-1.9,1.9c0,1.1,0.7,1.9,1.9,1.9h22.5c1.1,0,1.9-0.7,1.9-1.9
	C87.2,69.2,86.5,68.5,85.3,68.5z"/>
</svg>
