<?xml version="1.0" encoding="utf-8"?>
<!-- Generator: Adobe Illustrator 19.0.0, SVG Export Plug-In . SVG Version: 6.00 Build 0)  -->
<svg version="1.1" id="Layer_1" xmlns="http://www.w3.org/2000/svg" xmlns:xlink="http://www.w3.org/1999/xlink" x="0px" y="0px"
	 viewBox="39.2 -25.9 156.2 156.2" style="enable-background:new 39.2 -25.9 156.2 156.2;" xml:space="preserve">
<style type="text/css">
	.st0{fill:none;stroke:#FFFFFF;stroke-miterlimit:10;}
	.st1{fill:#FFFF66;}
</style>
<path class="st0" d="M174.8,126.8H59.7c-9.4,0-17-7.6-17-17V-5.4c0-9.4,7.6-17,17-17h115.2c9.4,0,17,7.6,17,17v115.2
	C191.8,119.2,184.2,126.8,174.8,126.8z"/>
<circle class="st1" cx="117.3" cy="52.6" r="17.8"/>
<g>
	<g>
		<g>
			<polygon class="st1" points="113.2,69.3 94.4,107.7 108.3,67.3 			"/>
			<polygon class="st1" points="126.3,37.7 140.2,-2.8 121.4,35.6 			"/>
		</g>
	</g>
	<g>
		<g>
			<polygon class="st1" points="107.1,66.5 75,94.8 103.3,62.7 			"/>
			<polygon class="st1" points="131.3,42.3 159.6,10.2 127.5,38.5 			"/>
		</g>
	</g>
	<g>
		<g>
			<polygon class="st1" points="102.5,61.5 62,75.4 100.5,56.6 			"/>
			<polygon class="st1" points="134.1,48.4 172.6,29.6 132.1,43.4 			"/>
		</g>
	</g>
	<g>
		<g>
			<polygon class="st1" points="100.2,55.2 57.5,52.5 100.2,49.8 			"/>
			<polygon class="st1" points="134.4,55.2 177.1,52.5 134.4,49.8 			"/>
		</g>
	</g>
	<g>
		<g>
			<polygon class="st1" points="100.5,48.4 62,29.6 102.5,43.4 			"/>
			<polygon class="st1" points="132.1,61.5 172.6,75.4 134.1,56.6 			"/>
		</g>
	</g>
	<g>
		<g>
			<polygon class="st1" points="103.3,42.3 75,10.2 107.1,38.5 			"/>
			<polygon class="st1" points="127.5,66.5 159.6,94.8 131.3,62.7 			"/>
		</g>
	</g>
	<g>
		<g>
			<polygon class="st1" points="108.3,37.7 94.4,-2.8 113.2,35.6 			"/>
			<polygon class="st1" points="121.4,69.3 140.2,107.7 126.3,67.3 			"/>
		</g>
	</g>
	<g>
		<g>
			<polygon class="st1" points="114.6,35.4 117.3,-7.4 120,35.4 			"/>
			<polygon class="st1" points="114.6,69.6 117.3,112.3 120,69.6 			"/>
		</g>
	</g>
</g>
</svg>
