<?xml version="1.0" encoding="utf-8"?>
<!-- Generator: Adobe Illustrator 19.0.0, SVG Export Plug-In . SVG Version: 6.00 Build 0)  -->
<svg version="1.1" id="Layer_1" xmlns="http://www.w3.org/2000/svg" xmlns:xlink="http://www.w3.org/1999/xlink" x="0px" y="0px" width="160px" height="160px"
	 viewBox="45 -45 160 160" style="enable-background:new 45 -45 160 160;" xml:space="preserve">
<style type="text/css">
	.st0{fill:#FF9999;}
	.st1{fill:none;}
</style>
<path class="st0" d="M90,115h30v-15H90V115z M90-30h30v-15H90V-30z M65-45c-11.1,0-20,9-20,20v15.1h15V-20c0-5.5,4.5-10,10-10h9.9
	l-0.1-15H65z M60,90V79.9H45V95c0,11.1,9,20,20,20h14.9l0.1-15H70C64.4,100,60,95.5,60,90z M60,0H45v30h15V0z M130,115h30v-15h-30
	V115z M185-45h-14.9L170-30h9.9c5.5,0,10,4.5,10,10v10h15v-15C205-36.1,196-45,185-45z M190,30h15V0h-15V30L190,30z M190,90
	c0,5.5-4.5,10-10,10h-9.9l0.1,15H185c11.1,0,20-9,20-20V79.9h-15V90L190,90z M130-30h30v-15h-30V-30z M190,70h15V40h-15V70L190,70z
	 M60,40H45v30h15V40z"/>
<rect x="50" y="-33.8" class="st1" width="147.5" height="147.5"/>
<path id="XMLID_31_" class="st0" d="M143.2,96.5c0,0.1,0.1,0.2,0.1,0.3C143.2,96.7,143.2,96.6,143.2,96.5z"/>
<path class="st0" d="M64.5,56.6C68,66.2,75.6,75.7,87.4,85c25.6,3.1,51,1.9,76.2-3.5c11.7-10.3,18.4-20.5,20-30.3
	C144.2,57.8,104.5,59.6,64.5,56.6z"/>
<path class="st0" d="M108.3-17c-2.7,0.6-26,73.2-26,73.2s24.3-23,39.4-10.1C136.1,58.5,111-17.6,108.3-17z"/>
<path class="st0" d="M124-9c-3.7,0.4,6.2,63.1,6.2,63.1s29.6-16.8,41.2-11C183.1,48.9,127.8-9.4,124-9z"/>
</svg>
