<?xml version="1.0" encoding="utf-8"?>
<!-- Generator: Adobe Illustrator 19.0.0, SVG Export Plug-In . SVG Version: 6.00 Build 0)  -->
<svg version="1.1" id="Layer_1" xmlns="http://www.w3.org/2000/svg" xmlns:xlink="http://www.w3.org/1999/xlink" x="0px" y="0px" width="160px" height="160px"
	 viewBox="89.9 -90 160 160" style="enable-background:new 89.9 -90 160 160;" xml:space="preserve">
<style type="text/css">
	.st0{fill:#FF9999;}
</style>

<g>
	<ellipse class="st0" cx="149.9" cy="-54.6" rx="7.9" ry="7.9"/>
	<path class="st0" d="M224.2,17.8c-2.4,2.4-4.8,4.8-7.7,7c-3.4,2.6-7.9,5-12.5,6.5c18.7-45.8-4.1-88.5-4.1-88.5
		c-27.3,33.1-25.2,65.9-19.2,87.3l0.2,1.2c-1.2-0.5-2.6-1-3.8-1.2c-3.6-1-7.4-1.4-11.3-1.9c-0.7,0-1.4-0.2-1.9-0.2l0,0
		c2.4-0.5,4.1-2.9,3.6-5.5l-6.2-31.7v-22.1c5.8-2.2,18.9-8.6,24.2-22.8c1-2.4-0.2-5-2.6-6c-2.4-1-5,0.2-6,2.6
		c-4.6,12.2-17.5,17-20.1,17.7h-11c-0.5,0-1,0-1.4,0.2c-19.9,7-19.2,31.9-19.2,32.9c0,2.6,2.2,4.6,4.6,4.6c0,0,0,0,0.2,0
		c2.6,0,4.6-2.2,4.6-4.8c0-0.2-0.2-13.9,7.9-20.9l1,10.3L135,8.9c-0.2,1-0.2,1.9,0,2.9l4.8,15.8c0.5,1.4,1.4,2.4,2.6,2.9
		c-5.3,1.2-11.8,1.7-16.3-0.7c-2.9-1.4-4.3-4.3-7.7-5.3c-1.2-0.2-2.6-0.5-4.1-0.5v23.7h110.3V17.1C224.4,17.3,224.2,17.6,224.2,17.8
		z M147.5,29.3c1-1.2,1.4-2.9,1-4.6l-4.3-14.4l6-18.9h1.9l6.5,33.1c0.2,1.9,1.7,3.1,3.4,3.6C157.3,27.9,152,28.4,147.5,29.3z"/>
</g>
</svg>
