<?xml version="1.0" encoding="utf-8"?>
<!-- Generator: Adobe Illustrator 19.0.0, SVG Export Plug-In . SVG Version: 6.00 Build 0)  -->
<svg version="1.1" id="Layer_1" xmlns="http://www.w3.org/2000/svg" xmlns:xlink="http://www.w3.org/1999/xlink" x="0px" y="0px" width="160px" height="160px"
	 viewBox="45 -45 160 160" style="enable-background:new 45 -45 160 160;" xml:space="preserve">
<style type="text/css">
	.st0{fill:#FF9999;}
</style>
<path class="st0" d="M89.9,115h30v-15h-30V115z M89.9-30h30v-15h-30V-30z M64.9-45c-11.1,0-20,9-20,20v15.1h15V-20
	c0-5.5,4.5-10,10-10h9.9l-0.1-15H64.9z M59.9,90V79.9h-15V95c0,11.1,9,20,20,20h14.9l0.1-15h-10C64.3,100,59.9,95.5,59.9,90z
	 M59.9,0h-15v30h15V0z M129.9,115h30v-15h-30V115z M184.9-45H170l-0.1,15h9.9c5.5,0,10,4.5,10,10v10h15v-15
	C204.9-36.1,195.9-45,184.9-45z M189.9,30h15V0h-15V30L189.9,30z M189.9,90c0,5.5-4.5,10-10,10H170l0.1,15h14.8c11.1,0,20-9,20-20
	V79.9h-15V90L189.9,90z M129.9-30h30v-15h-30V-30z M189.9,70h15V40h-15V70L189.9,70z M59.9,40h-15v30h15V40z"/>
<path class="st0" d="M184.2,30.9c-1-2.1-2.6-4.2-4.8-6.3c-3.2-3.1-7.6-6.3-12.9-9.2c-5.3-2.9-11.6-5.6-18.6-7.5
	c-1-0.3-2.1-0.1-2.9,0.6c-0.8,0.6-1.3,1.6-1.3,2.7v20.1h-6.8v-21c0-1.8-1.5-3.3-3.3-3.3c-1.8,0-3.3,1.5-3.3,3.3v21h-6.5V11
	c0-1.8-1.5-3.3-3.3-3.3c-1.8,0-3.3,1.5-3.3,3.3v20.1h-6.5V14.2c0-1.8-1.5-3.3-3.3-3.3c-1.8,0-3.3,1.5-3.3,3.3v16.8h-6.5V20.6
	c0-1.8-1.5-3.3-3.3-3.3c-1.8,0-3.3,1.5-3.3,3.3v10.5h-4.1c-1.7-9.4-10-16.6-19.9-16.6c-1,0-1.8,0.8-1.9,1.8c0,0.1,0,0.2,0,0.4
	c0,7.9,4.5,14.7,11,18.1c-6.5,3.4-11,10.2-11,18.1c0,0.2,0,0.3,0,0.4c0,1,0.9,1.8,1.9,1.8h0c9.8,0,18-7,19.9-16.3h4.2v10.6
	c0,1.8,1.5,3.3,3.3,3.3c1.8,0,3.3-1.5,3.3-3.3V38.8h6.5v16.9c0,1.8,1.5,3.3,3.3,3.3c1.8,0,3.3-1.5,3.3-3.3V38.8h6.5V59
	c0,1.8,1.5,3.3,3.3,3.3c1.8,0,3.3-1.5,3.3-3.3V38.8h6.5v21.1c0,1.8,1.5,3.3,3.3,3.3c1.8,0,3.3-1.5,3.3-3.3V38.8h6.8v19.7
	c0,1,0.5,2,1.3,2.7c0.6,0.4,1.3,0.7,2,0.7c0.3,0,0.6,0,0.9-0.1c10.6-3,19.7-7.6,26.2-12.3c3.3-2.4,5.9-4.8,7.8-7.1
	c1-1.2,1.7-2.4,2.3-3.6c0.6-1.2,1-2.5,1-3.9C185.2,33.4,184.8,32.1,184.2,30.9z M152.5,26.6c-0.9-0.9-0.9-2.3,0-3.2
	c0.9-0.9,2.3-0.9,3.2,0l4,4l4-4c0.9-0.9,2.3-0.9,3.2,0c0.9,0.9,0.9,2.3,0,3.2l-4,4l4,4c0.9,0.9,0.9,2.3,0,3.2
	c-0.4,0.4-1,0.7-1.6,0.7c-0.6,0-1.1-0.2-1.6-0.7l-4-4l-4,4c-0.4,0.4-1,0.7-1.6,0.7c-0.6,0-1.1-0.2-1.6-0.7c-0.9-0.9-0.9-2.3,0-3.2
	l4-4L152.5,26.6z"/>
</svg>
