<?xml version="1.0" encoding="utf-8"?>
<!-- Generator: Adobe Illustrator 19.0.0, SVG Export Plug-In . SVG Version: 6.00 Build 0)  -->
<svg version="1.1" id="Layer_1" xmlns="http://www.w3.org/2000/svg" xmlns:xlink="http://www.w3.org/1999/xlink" x="0px" y="0px" width="160px" height="160px"
	 viewBox="45 -45 160 160" style="enable-background:new 45 -45 160 160;" xml:space="preserve">
<style type="text/css">
	.st0{fill:#FF9999;}
</style>

<path class="st0" d="M184.2,30.9c-1-2.1-2.6-4.2-4.8-6.3c-3.2-3.1-7.6-6.3-12.9-9.2c-5.3-2.9-11.6-5.6-18.6-7.5
	c-1-0.3-2.1-0.1-2.9,0.6c-0.8,0.6-1.3,1.6-1.3,2.7v20.1h-6.8v-21c0-1.8-1.5-3.3-3.3-3.3c-1.8,0-3.3,1.5-3.3,3.3v21h-6.5V11
	c0-1.8-1.5-3.3-3.3-3.3c-1.8,0-3.3,1.5-3.3,3.3v20.1h-6.5V14.2c0-1.8-1.5-3.3-3.3-3.3c-1.8,0-3.3,1.5-3.3,3.3v16.8h-6.5V20.6
	c0-1.8-1.5-3.3-3.3-3.3c-1.8,0-3.3,1.5-3.3,3.3v10.5h-4.1c-1.7-9.4-10-16.6-19.9-16.6c-1,0-1.8,0.8-1.9,1.8c0,0.1,0,0.2,0,0.4
	c0,7.9,4.5,14.7,11,18.1c-6.5,3.4-11,10.2-11,18.1c0,0.2,0,0.3,0,0.4c0,1,0.9,1.8,1.9,1.8h0c9.8,0,18-7,19.9-16.3h4.2v10.6
	c0,1.8,1.5,3.3,3.3,3.3c1.8,0,3.3-1.5,3.3-3.3V38.8h6.5v16.9c0,1.8,1.5,3.3,3.3,3.3c1.8,0,3.3-1.5,3.3-3.3V38.8h6.5V59
	c0,1.8,1.5,3.3,3.3,3.3c1.8,0,3.3-1.5,3.3-3.3V38.8h6.5v21.1c0,1.8,1.5,3.3,3.3,3.3c1.8,0,3.3-1.5,3.3-3.3V38.8h6.8v19.7
	c0,1,0.5,2,1.3,2.7c0.6,0.4,1.3,0.7,2,0.7c0.3,0,0.6,0,0.9-0.1c10.6-3,19.7-7.6,26.2-12.3c3.3-2.4,5.9-4.8,7.8-7.1
	c1-1.2,1.7-2.4,2.3-3.6c0.6-1.2,1-2.5,1-3.9C185.2,33.4,184.8,32.1,184.2,30.9z M152.5,26.6c-0.9-0.9-0.9-2.3,0-3.2
	c0.9-0.9,2.3-0.9,3.2,0l4,4l4-4c0.9-0.9,2.3-0.9,3.2,0c0.9,0.9,0.9,2.3,0,3.2l-4,4l4,4c0.9,0.9,0.9,2.3,0,3.2
	c-0.4,0.4-1,0.7-1.6,0.7c-0.6,0-1.1-0.2-1.6-0.7l-4-4l-4,4c-0.4,0.4-1,0.7-1.6,0.7c-0.6,0-1.1-0.2-1.6-0.7c-0.9-0.9-0.9-2.3,0-3.2
	l4-4L152.5,26.6z"/>
</svg>
