<?xml version="1.0" encoding="utf-8"?>
<!-- Generator: Adobe Illustrator 19.0.0, SVG Export Plug-In . SVG Version: 6.00 Build 0)  -->
<svg version="1.1" id="Layer_1" xmlns="http://www.w3.org/2000/svg" xmlns:xlink="http://www.w3.org/1999/xlink" x="0px" y="0px"
	 viewBox="39.2 -25.9 156.2 156.2" style="enable-background:new 39.2 -25.9 156.2 156.2;" xml:space="preserve">
<style type="text/css">
	.st0{fill:none;stroke:#FFFFFF;stroke-width:7;stroke-miterlimit:10;}
	.st1{fill:none;}
	.st2{fill:#FF9999;}
	.st3{fill:none;stroke:#FFFF66;stroke-width:6;stroke-miterlimit:10;}
	.st4{fill:#FFFF66;stroke:#FFFF66;stroke-miterlimit:10;}
</style>
<path class="st0" d="M174.8,126.8H59.7c-9.4,0-17-7.6-17-17V-5.4c0-9.4,7.6-17,17-17h115.2c9.4,0,17,7.6,17,17v115.2
	C191.8,119.2,184.2,126.8,174.8,126.8z"/>
<rect x="41.2" y="-17.2" class="st1" width="147.5" height="147.5"/>
<path id="XMLID_31_" class="st2" d="M134.4,113.1c0,0.1,0.1,0.2,0.1,0.3C134.4,113.3,134.4,113.2,134.4,113.1z"/>
<path id="XMLID_18_" class="st3" d="M172.6,32.2c-2.9-2.3-7.5-5.3-13.5-5.5c-12.1-0.6-16.2,10.8-27.7,11
	c-12.3,0.2-14.8-12.4-27.2-12.3C92.6,25.5,89,36.6,76.7,36.7c-7.3,0.1-13.4-3.7-17.4-6.9"/>
<path id="XMLID_1_" class="st3" d="M172.6,9.6c-2.9-2.3-7.5-5.3-13.5-5.5c-12.1-0.6-16.2,10.8-27.7,11
	c-12.3,0.2-14.8-12.4-27.2-12.3C92.6,2.9,89,14,76.7,14.1c-7.3,0.1-13.4-3.7-17.4-6.9"/>
<path id="XMLID_15_" class="st4" d="M123.5,83.4c-0.3-1.1-0.3-2.2-0.1-3.3c0.2-0.8,0.5-1.7,1-2.4c0.1-0.1,0.2-0.2,0.3-0.3
	s0.2-0.1,0.4-0.1c1.3-0.1,2.6,0.5,3.6,1.3c-0.1,1.3-0.3,2.6-0.6,3.9c-0.1,0.2-0.1,0.4-0.2,0.6c-0.1,0.2-0.3,0.3-0.4,0.4
	c-0.5,0.4-1,0.8-1.6,1.1c-0.4,0.2-0.8,0.4-1.3,0.3c-0.5-0.1-0.7-0.6-0.9-1C123.6,83.8,123.5,83.6,123.5,83.4z"/>
<path id="XMLID_8_" class="st4" d="M123.6,88.7c1.4-1.5-2.4-1.4-4-1c-2.2,0.2-4.2,1.3-6.2,3.1l-0.8,3.8c0,0-2.4,4.1-1,5.3
	s5,2.4,5,2.4c2.6-0.1,4.5-1.3,5.6-3.6c1.5-3.2,2-11.3,1.7-10.7"/>
<path id="XMLID_16_" class="st4" d="M117,75.7l3.4,4.7l-3.5,4.7c-2.8,1.9-5.3,3.2-5.6-1.8v-5.8L117,75.7z"/>
<path id="XMLID_7_" class="st4" d="M100.4,97.7c-0.6-2-1.3-4.3-0.4-6.1c0.8-1.5,1.1-3,1.5-4.2c0.1-0.2,0.3-0.4,0.5-0.5
	c0.2-0.1,0.4-0.1,0.6-0.1c2.1-0.1,6.2,2.4,6,2.5c-0.1,0.1,0.3,5.2-0.7,7.1c-0.2,0.3-0.2,0.8-0.4,1.1c-0.2,0.3-0.4,0.9-0.7,0.7
	c-1.5-0.7-2.5-0.3-2.6,2c0,0.7-1.3,0.7-2,0.5c-0.8-0.3-1.2-1.1-1.6-1.9C100.6,98.3,100.5,98,100.4,97.7z"/>
<path id="XMLID_6_" class="st4" d="M88.1,82.5c0.5,1,0.7,2.2,0.7,3.3c0,0.9-0.2,1.7-0.6,2.5c-0.1,0.1-0.1,0.2-0.3,0.3
	c-0.1,0.1-0.2,0.1-0.4,0.1c-1.3,0.3-2.7-0.1-3.8-0.6c-0.1-1.3-0.2-2.6-0.1-3.9c0-0.2,0-0.4,0.1-0.6s0.2-0.3,0.4-0.5
	c0.4-0.5,0.9-1,1.4-1.4c0.3-0.3,0.8-0.5,1.2-0.5c0.5,0.1,0.8,0.5,1.1,0.9C87.9,82.1,88,82.3,88.1,82.5z"/>
<path id="XMLID_4_" class="st4" d="M58.3,99.8c-1.7,1,3.9,0.6,6.2,0.2c3.2-0.4,6.1-1.2,8.5-2.5l0.2-2.4c0,0,2.6-2.7,0.2-3.3
	c-2.3-0.6-8.1-1-8.1-1c-3.9,0.4-6.4,1.3-7.4,2.7c-1.5,2.1-0.2,6.9,0.1,6.6"/>
<path id="XMLID_3_" class="st4" d="M102.2,83.6l-4.2,4l-5.1-2.7c-2.3-2.4-4-4.8,1-5.7l5.8-0.8L102.2,83.6z"/>
<path id="XMLID_2_" class="st4" d="M146.4,89c0.9,1.9,2,4,1.4,6c-0.5,1.6-0.6,3.1-0.8,4.4c0,0.2-0.2,0.4-0.4,0.6
	c-0.2,0.1-0.4,0.2-0.6,0.2c-2.1,0.5-6.5-1.4-6.4-1.5c0.1-0.1-1.2-5.1-0.5-7.1c0.1-0.4,0-0.8,0.2-1.2c0.1-0.3,0.2-0.9,0.6-0.8
	c1.6,0.5,2.5-0.1,2.2-2.4c-0.1-0.7,1.2-0.9,1.9-0.8c0.8,0.1,1.4,0.9,1.9,1.6C146.1,88.4,146.3,88.7,146.4,89z"/>
<path id="XMLID_5_" class="st4" d="M96.5,91.3c0.9,1.9,2,4,1.4,6c-0.5,1.6-0.6,3.1-0.8,4.4c0,0.2-0.2,0.4-0.4,0.6
	c-0.2,0.1-0.4,0.2-0.6,0.2c-2.1,0.5-6.5-1.4-6.4-1.5c0.1-0.1-1.2-5.1-0.5-7.1c0.1-0.4,0-0.8,0.2-1.2c0.1-0.3,0.2-0.9,0.6-0.8
	c1.6,0.5,2.5-0.1,2.2-2.4c-0.1-0.7,1.2-0.9,1.9-0.8c0.8,0.1,1.4,0.9,1.9,1.6C96.2,90.8,96.4,91.1,96.5,91.3z"/>
<path id="XMLID_12_" class="st4" d="M168.3,82.2c-0.3-1.1-0.3-2.2-0.1-3.3c0.2-0.8,0.5-1.7,1-2.4c0.1-0.1,0.2-0.2,0.3-0.3
	s0.2-0.1,0.4-0.1c1.3-0.1,2.6,0.5,3.6,1.3c-0.1,1.3-0.3,2.6-0.6,3.9c-0.1,0.2-0.1,0.4-0.2,0.6c-0.1,0.2-0.3,0.3-0.4,0.4
	c-0.5,0.4-1,0.8-1.6,1.1c-0.4,0.2-0.8,0.4-1.3,0.3c-0.5-0.1-0.7-0.6-0.9-1C168.4,82.6,168.3,82.4,168.3,82.2z"/>
<path id="XMLID_11_" class="st4" d="M153.1,77.7l4.8-2.4l4.6,2.6c1.8,2,3.1,3.9-2,3.9l-5.8-0.1L153.1,77.7z"/>
<path id="XMLID_10_" class="st4" d="M107.4,79c0.4,0.6,0.5,1.2,0.5,1.8c0,0.5-0.1,0.9-0.4,1.4c-0.1,0.1-0.1,0.1-0.2,0.2
	c-0.1,0.1-0.1,0.1-0.3,0.1c-1,0.2-2-0.1-2.8-0.3c-0.1-0.7-0.1-1.4-0.1-2.1c0-0.1,0-0.2,0.1-0.3s0.1-0.2,0.3-0.3
	c0.3-0.3,0.7-0.5,1-0.8c0.2-0.2,0.6-0.3,0.9-0.3c0.4,0.1,0.6,0.3,0.8,0.5C107.2,78.7,107.3,78.9,107.4,79z"/>
<path id="XMLID_9_" class="st4" d="M149.6,80.5l-4.2,4l-5.1-2.7c-2.3-2.4-4-4.8,1-5.7l5.8-0.8L149.6,80.5z"/>
<path id="XMLID_14_" class="st4" d="M153.8,87.7c0.5,1,0.7,2.2,0.7,3.3c0,0.9-0.2,1.7-0.6,2.5c-0.1,0.1-0.1,0.2-0.3,0.3
	c-0.1,0.1-0.2,0.1-0.4,0.1c-1.3,0.3-2.7-0.1-3.8-0.6c-0.1-1.3-0.2-2.6-0.1-3.9c0-0.2,0-0.4,0.1-0.6s0.2-0.3,0.4-0.5
	c0.4-0.5,0.9-1,1.4-1.4c0.3-0.3,0.8-0.5,1.2-0.5c0.5,0.1,0.8,0.5,1.1,0.9C153.6,87.3,153.7,87.5,153.8,87.7z"/>
<path id="XMLID_13_" class="st4" d="M167.9,88.8l-4.2,4l-5.1-2.7c-2.3-2.4-4-4.8,1-5.7l5.8-0.8L167.9,88.8z"/>
<path id="XMLID_20_" class="st4" d="M174.5,92.6c-1-0.5-1.9-1.3-2.6-2.1c-0.6-0.7-0.9-1.5-1.1-2.3c0-0.1,0-0.2,0-0.4
	c0-0.1,0.1-0.2,0.2-0.3c0.8-1,2.2-1.6,3.3-1.9c0.9,1,1.8,1.9,2.5,3c0.1,0.2,0.3,0.3,0.3,0.5s0,0.4,0,0.6c0,0.6-0.1,1.3-0.2,2
	c0,0.4-0.3,0.9-0.6,1.1c-0.5,0.2-0.9,0.1-1.4,0C174.9,92.8,174.7,92.7,174.5,92.6z"/>
<path id="XMLID_19_" class="st4" d="M162.9,100.6l0.8-5.7l5.7-1.1c3.3,0.4,6.1,1.2,2.8,5.1l-4,4.3L162.9,100.6z"/>
<path id="XMLID_21_" class="st4" d="M157.9,95.9c0.5,1,0.7,2.2,0.7,3.3c0,0.9-0.2,1.7-0.6,2.5c-0.1,0.1-0.1,0.2-0.3,0.3
	c-0.1,0.1-0.2,0.1-0.4,0.1c-1.3,0.3-2.7-0.1-3.8-0.6c-0.1-1.3-0.2-2.6-0.1-3.9c0-0.2,0-0.4,0.1-0.6s0.2-0.3,0.4-0.5
	c0.4-0.5,0.9-1,1.4-1.4c0.3-0.3,0.8-0.5,1.2-0.5c0.5,0.1,0.8,0.5,1.1,0.9C157.7,95.5,157.8,95.7,157.9,95.9z"/>
<path id="XMLID_22_" class="st4" d="M126,101.5c-1.1,1.7,2.6,1,4.1,0.3c2.1-0.6,4-2,5.6-4.1l0.1-3.9c0,0,1.7-4.4,0.1-5.4
	c-1.5-1-5.3-1.6-5.3-1.6c-2.6,0.6-4.2,2.1-4.9,4.4c-1,3.4-0.1,11.4,0.1,10.8"/>
<path id="XMLID_23_" class="st4" d="M83,100.4l-5.7-1.1l-0.7-5.7c0.6-3.3,1.6-6,5.2-2.5l4,4.3L83,100.4z"/>
<path id="XMLID_24_" class="st4" d="M76.1,86.8c-0.3-1.1-0.3-2.2-0.1-3.3c0.2-0.8,0.5-1.7,1-2.4c0.1-0.1,0.2-0.2,0.3-0.3
	s0.2-0.1,0.4-0.1c1.3-0.1,2.6,0.5,3.6,1.3c-0.1,1.3-0.3,2.6-0.6,3.9c-0.1,0.2-0.1,0.4-0.2,0.6s-0.3,0.3-0.4,0.4
	c-0.5,0.4-1,0.8-1.6,1.1c-0.4,0.2-0.8,0.4-1.3,0.3c-0.5-0.1-0.7-0.6-0.9-1C76.2,87.2,76.1,87,76.1,86.8z"/>
<path id="XMLID_25_" class="st4" d="M134.2,79.8c0.4,0.6,0.5,1.2,0.5,1.8c0,0.5-0.1,0.9-0.4,1.4c-0.1,0.1-0.1,0.1-0.2,0.2
	c-0.1,0.1-0.1,0.1-0.3,0.1c-1,0.2-2-0.1-2.8-0.3c-0.1-0.7-0.1-1.4-0.1-2.1c0-0.1,0-0.2,0.1-0.3s0.1-0.2,0.3-0.3
	c0.3-0.3,0.7-0.5,1-0.8c0.2-0.2,0.6-0.3,0.9-0.3c0.4,0.1,0.6,0.3,0.8,0.5C134.1,79.6,134.2,79.7,134.2,79.8z"/>
<path id="XMLID_26_" class="st4" d="M65.8,81c1.4-0.5,3.1-1.1,4.4-0.5c1.1,0.5,2.2,0.7,3.1,1c0.1,0.1,0.3,0.2,0.4,0.4
	c0.1,0.1,0.1,0.3,0.1,0.4c0.2,1.6-1.5,4.8-1.6,4.6c-0.1-0.1-3.7,0.4-5.2-0.3c-0.2-0.1-0.6-0.1-0.8-0.3c-0.2-0.1-0.7-0.3-0.5-0.5
	c0.4-1.2,0.1-1.9-1.6-1.9c-0.5,0-0.6-1-0.4-1.5c0.2-0.6,0.7-0.9,1.3-1.3C65.4,81.2,65.6,81.1,65.8,81z"/>
<path id="XMLID_27_" class="st4" d="M57.3,89c-0.3-1.1-0.3-2.2-0.1-3.3c0.2-0.8,0.5-1.7,1-2.4c0.1-0.1,0.2-0.2,0.3-0.3
	s0.2-0.1,0.4-0.1c1.3-0.1,2.6,0.5,3.6,1.3c-0.1,1.3-0.3,2.6-0.6,3.9c-0.1,0.2-0.1,0.4-0.2,0.6s-0.3,0.3-0.4,0.4
	c-0.5,0.4-1,0.8-1.6,1.1c-0.4,0.2-0.8,0.4-1.3,0.3c-0.5-0.1-0.7-0.6-0.9-1C57.4,89.4,57.3,89.2,57.3,89z"/>
</svg>
