<?xml version="1.0" encoding="utf-8"?>
<!-- Generator: Adobe Illustrator 19.0.0, SVG Export Plug-In . SVG Version: 6.00 Build 0)  -->
<svg version="1.1" id="Layer_1" xmlns="http://www.w3.org/2000/svg" xmlns:xlink="http://www.w3.org/1999/xlink" x="0px" y="0px"
	 viewBox="39.2 -25.9 156.2 156.2" style="enable-background:new 39.2 -25.9 156.2 156.2;" xml:space="preserve">
<style type="text/css">
	.st0{fill:none;stroke:#FFFFFF;stroke-width:7;stroke-miterlimit:10;}
	.st1{fill:none;}
	.st2{fill:#FF9999;}
	.st3{fill:#FFFF66;}
</style>
<path class="st0" d="M174.8,126.8H59.7c-9.4,0-17-7.6-17-17V-5.4c0-9.4,7.6-17,17-17h115.2c9.4,0,17,7.6,17,17v115.2
	C191.8,119.2,184.2,126.8,174.8,126.8z"/>
<rect x="41.2" y="-17.2" class="st1" width="147.5" height="147.5"/>
<path id="XMLID_31_" class="st2" d="M134.4,113.1c0,0.1,0.1,0.2,0.1,0.3C134.4,113.3,134.4,113.2,134.4,113.1z"/>
<path class="st3" d="M75.2,12.4h-14v9.3h14V12.4z M133.2,79.9l-2.4-4l8.9-5.3V56.3L100,79.9l-2.4-4l14.9-8.8V49.7H79.9v18.7h-4.7
	v-42h-14v83.9h111.6v-54L133.2,79.9z M121.8,93.2h-9.3v-9.3h9.3V93.2z M154.5,93.2h-9.3v-9.3h9.3V93.2z M69.4,7.9
	c1,0,1.8-0.5,2.2-1.3c0.7,0.3,1.4,0.5,2.1,0.5c2.2,0,4.1-1.4,4.8-3.4c0.1,0,0.3,0,0.4,0.1c0.8,3.4,3.9,5.9,7.5,5.9
	c2.1,0,4-0.8,5.4-2.2c0.9,1.3,2.5,2.2,4.2,2.2s3.2-0.8,4.1-2.1c0.6,0.2,1.2,0.4,1.9,0.4c2.8,0,5.2-2.3,5.2-5.2
	c0-2.8-2.3-5.1-5.2-5.1c-1.7,0-3.2,0.8-4.1,2.1c-0.6-0.2-1.2-0.4-1.9-0.4c-0.8,0-1.5,0.2-2.2,0.5c-0.9-3.3-3.9-5.7-7.4-5.7
	c-1.2,0-2.3,0.3-3.2,0.7C82.3-6,81-6.6,79.6-6.6c-2.2,0-4.1,1.4-4.8,3.4c-0.4-0.1-0.7-0.1-1.1-0.1c-2.8,0-5.2,2.3-5.2,5.1
	c0,0.3,0,0.6,0.1,1c-1.1,0.3-1.9,1.3-1.9,2.5C66.8,6.7,68,7.9,69.4,7.9z M97.1,35.8c-2.5,0.5-4.2,2.9-3.7,5.4s2.9,4.2,5.4,3.7
	s4.2-2.9,3.7-5.4C102.1,37,99.6,35.3,97.1,35.8z M102.8,32.7c0.9,5.1,5.8,8.4,10.9,7.4c0.9-0.2,1.7-0.4,2.4-0.8
	c3.5,2.7,8.1,3.9,12.8,3c3.6-0.7,6.6-2.5,8.9-4.9c2.1,2.2,5.2,3.3,8.4,2.7c5.1-0.9,8.4-5.8,7.4-10.9c-0.9-5.1-5.8-8.4-10.9-7.4
	c-0.4,0.1-0.8,0.2-1.2,0.3c-2.2-8.2-10.3-13.4-18.8-11.8c-6.3,1.2-11,5.8-12.7,11.5l0,0C105.2,22.8,101.8,27.7,102.8,32.7z"/>
</svg>
