<?xml version="1.0" encoding="utf-8"?>
<!-- Generator: Adobe Illustrator 19.0.0, SVG Export Plug-In . SVG Version: 6.00 Build 0)  -->
<svg version="1.1" id="Layer_1" xmlns="http://www.w3.org/2000/svg" xmlns:xlink="http://www.w3.org/1999/xlink" x="0px" y="0px" width="160px" height="160px"
	 viewBox="45 -45 160 160" style="enable-background:new 45 -45 160 160;" xml:space="preserve">
<style type="text/css">
	.st0{fill:#FF9999;}
</style>

<g>
	<path class="st0" d="M180.8,3.4c-6.8,0-9.8-9.7-9.8-9.8c-0.4-1.3-1.5-2.2-2.8-2.3c-1.3-0.1-2.5,0.6-3.1,1.8
		c-1.3,2.7-6.2,10.3-11.2,10.3c-5,0-9.3-7.3-10.6-10.1c-0.5-1.1-1.5-1.8-2.7-1.9c-1.2-0.1-2.3,0.5-2.9,1.5
		c-2.5,4.2-7.9,10.5-11.4,10.5c-3.7,0-8.4-6.9-10.1-10.3c-0.5-1-1.6-1.7-2.8-1.7c-1.2,0-2.3,0.6-2.8,1.6
		c-1.5,2.7-6.9,10.4-11.6,10.4c-4.4,0-8.7-7.5-9.9-10.1c-0.5-1.2-1.7-1.9-3-1.9c-1.3,0-2.4,0.8-2.9,2c-0.2,0.4-3.9,10-12.9,10
		c-1.8,0-3.2,1.4-3.2,3.2s1.4,3.2,3.2,3.2c7.9,0,13-4.7,15.8-8.7c2.7,4,7.1,8.7,12.8,8.7c6,0,11.1-5.3,14.2-9.3
		c2.8,4.1,7.5,9.3,13.1,9.3c5.6,0,10.7-5.2,13.9-9.2c2.7,4.1,7.4,9.2,13.8,9.2c6,0,10.8-4.6,13.7-8.5c2.4,4,6.6,8.5,13.3,8.5
		c1.8,0,3.2-1.4,3.2-3.2S182.6,3.4,180.8,3.4z"/>
	<path class="st0" d="M71.8,48.1h74.5c7,0,12.6-5.7,12.6-12.6s-5.7-12.6-12.6-12.6c-1.8,0-3.2,1.4-3.2,3.2s1.4,3.2,3.2,3.2
		c3.5,0,6.3,2.8,6.3,6.3c0,3.5-2.8,6.3-6.3,6.3H71.8c-1.8,0-3.2,1.4-3.2,3.2C68.6,46.7,70,48.1,71.8,48.1z"/>
	<path class="st0" d="M71.8,70.5h58.6c3.5,0,6.3,2.8,6.3,6.3s-2.8,6.3-6.3,6.3c-1.8,0-3.2,1.4-3.2,3.2s1.4,3.2,3.2,3.2
		c7,0,12.6-5.7,12.6-12.6s-5.7-12.6-12.6-12.6H71.8c-1.8,0-3.2,1.4-3.2,3.2S70,70.5,71.8,70.5z"/>
	<path class="st0" d="M71.8,59h92.1c3.5,0,6.3,2.8,6.3,6.3c0,3.5-2.8,6.3-6.3,6.3c-1.8,0-3.2,1.4-3.2,3.2c0,1.8,1.4,3.2,3.2,3.2
		c7,0,12.6-5.7,12.6-12.6c0-7-5.7-12.6-12.6-12.6H71.8c-1.8,0-3.2,1.4-3.2,3.2S70,59,71.8,59z"/>
</g>
</svg>
