<?xml version="1.0" encoding="utf-8"?>
<!-- Generator: Adobe Illustrator 19.0.0, SVG Export Plug-In . SVG Version: 6.00 Build 0)  -->
<svg version="1.1" id="Layer_1" xmlns="http://www.w3.org/2000/svg" xmlns:xlink="http://www.w3.org/1999/xlink" x="0px" y="0px" width="160px" height="160px"
	 viewBox="45 -45 160 160" style="enable-background:new 45 -45 160 160;" xml:space="preserve">
<style type="text/css">
	.st0{fill:#FF9999;}
</style>
<path class="st0" d="M89.9,115h30v-15h-30V115z M89.9-30h30v-15h-30V-30z M64.9-45c-11.1,0-20,9-20,20v15.1h15V-20
	c0-5.5,4.5-10,10-10h9.9l-0.1-15H64.9z M59.9,90V79.9h-15V95c0,11.1,9,20,20,20h14.9l0.1-15h-10C64.3,100,59.9,95.5,59.9,90z
	 M59.9,0h-15v30h15V0z M129.9,115h30v-15h-30V115z M184.9-45H170l-0.1,15h9.9c5.5,0,10,4.5,10,10v10h15v-15
	C204.9-36.1,195.9-45,184.9-45z M189.9,30h15V0h-15V30L189.9,30z M189.9,90c0,5.5-4.5,10-10,10H170l0.1,15h14.8c11.1,0,20-9,20-20
	V79.9h-15V90L189.9,90z M129.9-30h30v-15h-30V-30z M189.9,70h15V40h-15V70L189.9,70z M59.9,40h-15v30h15V40z"/>
<polygon class="st0" points="125.3,42.3 117.6,48.1 116.2,62 120.2,80.1 134.6,90 137.5,81.9 132.5,62.9 129.1,52.6 129.6,45.1 "/>
<polygon class="st0" points="138.9,71.9 148.8,78.3 165.1,69.5 179.6,51.6 175.6,35.8 150.8,18.6 131.8,15 135.1,21 135.1,44.6
	131.8,53.4 133.7,54.1 144,33.9 136.1,54.4 141.2,56.7 152,35.8 143.4,57.4 151.2,60.3 164.1,41.6 153.9,61 "/>
<polygon class="st0" points="90.9,44.1 102.2,59.4 91.7,63.3 68.1,56 91.6,50.6 "/>
<path class="st0" d="M122.9,2.6l-1.9-7.9l2.5-1.8h-3l-2.7-5.1l-5.1-5.1h-8.2l-6.1,5.4l-1.2,4.7h-3.3l2.4,1.6l-8.5,35.4l3.3,12.4
	l13.4,17.2h10.3l1.4-12.1l9.5-7.7l5.6,4.4l-0.8,8.7l3.1-8.2V21.2L122.9,2.6z M100.1-5.5c-1-0.3-1.7-1.2-1.7-2.3
	c0-1.3,1.1-2.4,2.4-2.4c0.7,0,1.4,0.3,1.8,0.8L100.1-5.5z M110.5-0.5l-3.8,0L108-2l0-3.7l-2.7-1.5l3.3-3l3.3,3l-2.6,1.4V-2
	L110.5-0.5z M116.8-5.5l-2.5-3.8c0.4-0.5,1.1-0.8,1.8-0.8c1.3,0,2.4,1.1,2.4,2.4C118.5-6.7,117.8-5.8,116.8-5.5z"/>
</svg>
