<?xml version="1.0" encoding="utf-8"?>
<!-- Generator: Adobe Illustrator 19.0.0, SVG Export Plug-In . SVG Version: 6.00 Build 0)  -->
<svg version="1.1" id="Layer_1" xmlns="http://www.w3.org/2000/svg" xmlns:xlink="http://www.w3.org/1999/xlink" x="0px" y="0px"
	 viewBox="39.2 -25.9 156.2 156.2" style="enable-background:new 39.2 -25.9 156.2 156.2;" xml:space="preserve">
<style type="text/css">
	.st0{fill:none;stroke:#FFFFFF;stroke-width:7;stroke-miterlimit:10;}
	.st1{fill:none;}
	.st2{fill:#FF9999;}
	.st3{fill:#FFFF66;}
	.st4{fill:none;stroke:#FFFF66;stroke-width:6;stroke-miterlimit:10;}
</style>
<path class="st0" d="M174.8,126.8H59.7c-9.4,0-17-7.6-17-17V-5.4c0-9.4,7.6-17,17-17h115.2c9.4,0,17,7.6,17,17v115.2
	C191.8,119.2,184.2,126.8,174.8,126.8z"/>
<rect x="41.2" y="-17.2" class="st1" width="147.5" height="147.5"/>
<path id="XMLID_31_" class="st2" d="M134.4,113.1c0,0.1,0.1,0.2,0.1,0.3C134.4,113.3,134.4,113.2,134.4,113.1z"/>
<g id="XMLID_15_">
	<g id="XMLID_19_">
		<path id="XMLID_21_" class="st3" d="M128.8,77.9c0,2.9-1.2,5.8-3.4,7.7c-2.1,1.9-5,3-6,5.6c-0.2,0.5-0.2,1.2,0.2,1.5
			s1.1,0,1.4-0.4c0.4-0.4,0.6-0.9,1-1.3c1.3-1,3.2,0.5,3.4,2.1c0.1,1.6-0.9,3.1-1.8,4.4c-2.4,3.7-4,7.9-4.7,12.3l-0.7,0.2
			c-1.3-1.5-2.4-3-3.6-4.5c-1.4-1.8-2.8-3.6-4.3-5.3c-0.5-0.6-0.9-1.3-0.9-2c0.1-1.5,2-1.9,3.5-2c1.5-0.1,3.4-0.8,3.1-2.3
			c-0.1-0.8-0.9-1.3-1.5-1.8c-2-1.5-3.7-3.6-4.7-5.8c-0.4-0.9-0.8-1.9-0.6-2.8c0.2-0.9,1.1-1.8,2.1-1.7c0.6,0.1,1.1,0.6,1.7,0.4
			c0.7-0.2,0.8-1.2,0.6-2c-0.5-2.4-1.5-4.7-3-6.6c-0.8-0.9-1.6-1.8-2.1-2.9c-0.5-1.1-0.4-2.6,0.6-3.3c0.9-0.8,2.5-0.6,3.3-1.4
			c1.3-1.1,0.4-3.3-1-4.3s-3.2-1.5-4.1-2.9c-1-1.4-1-3.5,0.1-4.8s2.9-1.9,3.4-3.5c0.4-1.3-0.4-2.6-1.4-3.5s-2.2-1.4-3.2-2.3
			c-2.4-2-3.3-5.6-2.1-8.5c1.1-2.7,3.8-4.7,4.3-7.6c0.2-1,0.1-2.1,0.5-3.1s1.3-1.9,2.3-1.6s1.3,1.5,1.3,2.5s-0.4,2.1,0,3
			c0.4,1.3,1.7,2.2,3.1,2.4c1.3,0.2,2.7-0.1,4.1-0.5c-0.4,3.5-3.7,5.9-5.1,9.2c-0.4,0.9-0.6,2-0.4,3c0.3,1,1.1,1.9,2.2,1.9
			c1.6,0,2.7-1.9,4.3-2.1c1.4-0.2,2.6,1.3,2.8,2.7s-0.4,2.8-0.9,4.2c-1.3,3.6-2.3,7.2-3.1,10.9c-0.1,0.6-0.2,1.2,0.2,1.7
			c0.6,0.7,1.7,0.3,2.4-0.4c0.6-0.6,1.2-1.5,2.1-1.7c1-0.2,2,0.5,2.4,1.4s0.2,2-0.1,3c-0.8,2.5-2.4,4.6-3.8,6.9
			c-1.3,2.3-2.3,4.9-1.6,7.5c1.7-1.1,3.5-2.2,5.3-3.3c0.3-0.2,0.6-0.4,1-0.4C128.2,75.5,128.8,76.8,128.8,77.9z"/>
	</g>
	<g id="XMLID_20_">
	</g>
</g>
<g id="XMLID_22_">
	<g id="XMLID_13_">
		<path id="XMLID_18_" class="st3" d="M138.5,66.8c2.3-1.8,2.1-5.1,0.5-7.4c-0.2-0.2,0-0.8-0.2-1c-1.3-2.1-2.3-4.6-1.5-6.9
			c1-2.1,3.6-1,4.9,0.5c1,1.5,1.8,2.8,3.6,3.3c1,0.2,2.1-0.2,2.6-1c1-1.8,0.5-4.1-0.5-5.9c-0.8-1.8-1.3-3.6-1-5.4
			c0.5-1.8,2.6-2.1,3.8-1c1.5,1,2.6,2.8,4.3,3.3c1,0.2,2.1-0.2,3.1-0.8c1.8-1.5,3.6-3.3,5.6-4.3c3.1-1.3,7.2-0.5,9.2,2.3
			c1.5,4.9-5.1,4.9-8.2,6.1c-1.5,0.8-3.3,1.5-3.8,3.6c0,0.8,1,1,1.5,1c1.5,0,2.8,0.2,4.1,0.8c1.3,0.8,2.6,1.8,2.3,3.6
			c-1,4.9-6.4,3.3-10,3.6c-1.5,0.2-3.3,1-3.6,2.6c0,0.8,0.5,2.1,1.5,2.1c0.8,0,1.3-0.8,2.1-1c1.5-0.2,1.8,1.8,1.5,2.8
			c-1.8,4.1-6.9,2.6-10.5,2.8c-1.3,0.2-2.3,1-3.1,2.1c-0.5,1-0.5,2.6,0.2,3.3c1.5,1,3.3,0.2,4.9,1.3c1,1,1.8,2.3,1.3,3.6
			c-1.5,3.3-5.6,2.8-8.4,4.1c-2.1,1-2.8,3.6-2.8,5.6c0,1.3,1.3,2.3,1.5,3.6c0.2,1.5-0.5,2.8-1.8,3.6c-0.5,0.2-0.8,0.5-1.3,0.8
			c-1.5,0.8-3.6,0.5-4.6,2.1c-1.8,3.6-2.8,7.2-5.7,9.9h-0.1c-0.8-4-1.6-8.9,1.5-12.2c1.5-1.5,3.8-1.8,5.4-3.6c1-1.5,0.2-3.3-1-4.3
			c-1-0.8-2.3-1.3-3.6-1.8c-2.1-0.8-3.8-2.1-4.1-4.3c0-0.8,0.2-1.5,1-1.8c1.8-0.2,3.6,1,5.4,0c2.1-1.5,4.1-4.3,1.5-6.4
			c-3.8-2.6-7.4-6.1-6.1-10.7c0.2-1.3,2.1-1.5,3.3-0.8C135,65.5,136.5,67.1,138.5,66.8z"/>
	</g>
	<g id="XMLID_14_">
	</g>
</g>
<path id="XMLID_3_" class="st1" d="M110.5,23.3c-0.8,9.2,0.2,18.2,2.9,27.2c0.8,2.6,1,4.9,1.5,7.4c0,0.2,0.5,0.8,0.5,1
	c2.5,10,3.5,19.2,1.5,29.4c-0.8,2.8,0.5,5.4,0.8,8.2c0.2,2.3-0.5,4.9-0.5,7.2c0.2,1.3,0.5,2.6,1.3,3.8c0.2,1,0.8,2.1,0.4,3"/>
<path id="XMLID_4_" class="st1" d="M172.8,44.5c-2.8-1.4-6.2-0.7-8.9,0.9s-4.8,4-6.8,6.4c-3,3.5-6,7-9,10.4
	c-2.4,2.8-4.9,5.8-5.5,9.5c-0.5,3.2,0.4,6.9-1.7,9.3c-0.4,0.5-1,0.9-1.4,1.4c-2.4,2.8,0.1,7.1-0.2,10.8c-0.2,3.4-2.8,6-5.1,8.6
	c-2.3,2.5-4.6,5.6-4.1,8.9"/>
<g id="XMLID_1_">
	<g id="XMLID_9_">
		<path id="XMLID_12_" class="st3" d="M71.2,79.6c-0.2-0.8,0-1.5,0.5-2.1c1.5-1.3,4.9-2.6,3.3-4.9c-2.3-1-4.9-0.2-7.4-0.5
			c-1.3-0.2-2.1-1.3-2.6-2.3c0-0.3,0-0.6,0-0.9c0.1-1.3,0.8-2.6,1.8-3.2c1.3-0.5,2.6-1,3.8-0.8c1.8,0.2,3.3,1.5,4.1,3.3
			c0.5,0.8,1.5,1,2.3,0.8c1.5-0.2,0.8-2.6,1.5-3.8c1-1.5,3.6-1,5.1-0.5c1.5,0.8,2.1,2.6,1.3,4.1c-1.1,2.5-1.1,5.7,0.9,7.8
			c-0.1,0,0,0.2,0.9,0.8c0.5-2.7,3.6-4.5,6.1-3.4c1.8,0.8,2.3,3.3,1.5,4.9c-0.8,2.1-4.6,4.6-1.8,6.1c2.8,1.8,4.6-1.8,7.2-2.6
			c1.3-0.2,2.8-0.2,3.3,1c0.2,0.8,0.2,1.8,0,2.6c-1,2.3-3.3,4.1-3.6,6.6c-0.2,1,1,1.8,2.1,1.8c2.3,0,5.1-2.1,6.6,0.5
			c0.8,1.3,0.2,2.6-0.2,3.8c-1.5,2.6-4.6,5.1-2.8,8.2c0.2,0.5,0.5,0.8,0.8,1.3c0.6,0.9,1.2,1.4,1.4,2.3c-2.1,0.3-3.4-0.8-5-1.8
			c-1.8-1.5-3.1-3.3-5.1-4.3c-3.1-1.5-6.1-0.2-9.4-1c-2.1-0.5-1.8-2.6-1-3.8c1.8-2.1,5.1-2.1,6.1-4.6c0.2-1.3-0.5-2.8-1.8-2.8
			c-2.6,0.5-4.6,3.3-7.2,1.8c-1-0.5-1-1.8-0.5-2.6c1-1,2.6-1.3,3.8-2.1c0.5-0.5,1.3-0.8,1.5-1.3c0.5-1,0.2-2.1-0.8-2.8
			c-1-0.5-2.3-0.5-3.1,0c-2.8,1.5-5.6,4.1-8.9,2.3c-0.8-0.5-1.3-1.3-1.5-2.1c-0.2-0.8,0.2-1.3,0.8-1.5c1.5-0.5,3.3,0,4.3-1.3
			c0.8-1.3,0.2-3.1-1.3-3.3c-1.5,0-2.8,0.8-4.1,1.3C73.2,80.9,71.7,80.6,71.2,79.6z"/>
	</g>
	<g id="XMLID_11_">
	</g>
</g>
<path id="XMLID_8_" class="st1" d="M65.2,68c4.1,0.1,8.1,1.5,11.3,4c3.3,2.5,6.2,5.7,9.1,8.7c5.6,5.7,11,11.9,14.5,19.2
	c1,2.1,1.6,4.4,3.1,6.2c0.7,0.8,1.5,1.5,2.1,2.5c0.5,0.8,0.9,1.8,1.9,2"/>
<path id="XMLID_2_" class="st4" d="M172.8,1c-2.9-2.3-7.5-5.3-13.5-5.5c-12.1-0.6-16.2,10.8-27.7,11c-12.3,0.2-14.8-12.4-27.2-12.3
	C92.8-5.7,89.2,5.4,76.9,5.5c-7.3,0.1-13.3-3.7-17.3-6.9"/>
<path id="XMLID_17_" class="st4" d="M172.8,21.9c-2.9-2.3-7.5-5.3-13.5-5.5c-12.1-0.6-16.2,10.8-27.7,11
	c-12.3,0.2-14.8-12.4-27.1-12.3C92.9,15.2,89.3,26.2,77,26.4c-7.3,0.1-13.4-3.7-17.4-6.9"/>
</svg>
