<?xml version="1.0" encoding="utf-8"?>
<!-- Generator: Adobe Illustrator 19.0.0, SVG Export Plug-In . SVG Version: 6.00 Build 0)  -->
<svg version="1.1" id="Layer_1" xmlns="http://www.w3.org/2000/svg" xmlns:xlink="http://www.w3.org/1999/xlink" x="0px" y="0px" width="160px" height="160px"
	 viewBox="45 -45 160 160" style="enable-background:new 45 -45 160 160;" xml:space="preserve">
<style type="text/css">
	.st0{fill:#FF9999;}
	.st1{fill:none;stroke:#FF9999;stroke-width:6;stroke-miterlimit:10;}
</style>
<path class="st0" d="M90,115h30v-15H90V115z M90-30h30v-15H90V-30z M65-45c-11.1,0-20,9-20,20v15.1h15V-20c0-5.5,4.5-10,10-10h9.9
	l-0.1-15H65z M60,90V79.9H45V95c0,11.1,9,20,20,20h14.9l0.1-15H70C64.4,100,60,95.5,60,90z M60,0H45v30h15V0z M130,115h30v-15h-30
	V115z M185-45h-14.9L170-30h9.9c5.5,0,10,4.5,10,10v10h15v-15C205-36.1,196-45,185-45z M190,30h15V0h-15V30L190,30z M190,90
	c0,5.5-4.5,10-10,10h-9.9l0.1,15H185c11.1,0,20-9,20-20V79.9h-15V90L190,90z M130-30h30v-15h-30V-30z M190,70h15V40h-15V70L190,70z
	 M60,40H45v30h15V40z"/>
<path id="XMLID_16_" class="st0" d="M146.1,11"/>
<path id="XMLID_18_" class="st1" d="M181.9,64.4c-2.9-2.3-7.5-5.3-13.5-5.5c-12.1-0.6-16.2,10.8-27.7,11
	c-12.3,0.2-14.8-12.4-27.2-12.3C101.9,57.7,98.3,68.8,86,68.9c-7.3,0.1-13.4-3.7-17.4-6.9"/>
<path id="XMLID_17_" class="st1" d="M181.9,85.3c-2.9-2.3-7.5-5.3-13.5-5.5c-12.1-0.6-16.2,10.8-27.7,11
	c-12.3,0.2-14.8-12.4-27.2-12.3C101.9,78.6,98.3,89.6,86,89.8c-7.3,0.1-13.4-3.7-17.4-6.9"/>
<path id="XMLID_13_" class="st0" d="M93.2,55c1.5-15,5.6-29.8,4.5-45.1c4.1,0.7,8.1,1.4,12.2,2c-4.1-2.3-8.3-4.5-12.4-6.8
	c-1.1-8.1-2.2-16.2-3.3-24.3C128.3,1.3,150,26.3,164.3,55C139.7,51.5,115.9,51.2,93.2,55z"/>
<path id="XMLID_1_" class="st1" d="M181.9,41.8c-2.9-2.3-7.5-5.3-13.5-5.5c-12.1-0.6-16.2,10.8-27.7,11
	c-12.3,0.2-14.8-12.4-27.2-12.3C101.9,35.1,98.3,46.2,86,46.3c-7.3,0.1-13.4-3.7-17.4-6.9"/>
</svg>
