<?xml version="1.0" encoding="utf-8"?>
<!-- Generator: Adobe Illustrator 19.0.0, SVG Export Plug-In . SVG Version: 6.00 Build 0)  -->
<svg version="1.1" id="Layer_1" xmlns="http://www.w3.org/2000/svg" xmlns:xlink="http://www.w3.org/1999/xlink" x="0px" y="0px"
	 viewBox="39.2 -25.9 156.2 156.2" style="enable-background:new 39.2 -25.9 156.2 156.2;" xml:space="preserve">
<style type="text/css">
	.st0{fill:none;stroke:#FFFFFF;stroke-width:7;stroke-miterlimit:10;}
	.st1{fill:none;}
	.st2{fill:#FF9999;}
	.st3{fill:#FFFF66;stroke:#FFFF66;stroke-miterlimit:10;}
	.st4{fill:#FFFF66;}
</style>
<path class="st0" d="M174.8,126.8H59.7c-9.4,0-17-7.6-17-17V-5.4c0-9.4,7.6-17,17-17h115.2c9.4,0,17,7.6,17,17v115.2
	C191.8,119.2,184.2,126.8,174.8,126.8z"/>
<rect x="41.2" y="-17.2" class="st1" width="147.5" height="147.5"/>
<path id="XMLID_31_" class="st2" d="M134.4,113.1c0,0.1,0.1,0.2,0.1,0.3C134.4,113.3,134.4,113.2,134.4,113.1z"/>
<path id="XMLID_15_" class="st3" d="M156.9,59.6c-1.1,0.3-2.2,0.3-3.3,0.1c-0.8-0.2-1.7-0.5-2.4-1c-0.1-0.1-0.2-0.2-0.3-0.3
	s-0.1-0.2-0.1-0.4c-0.1-1.3,0.5-2.6,1.3-3.6c1.3,0.1,2.6,0.3,3.9,0.6c0.2,0.1,0.4,0.1,0.6,0.2c0.2,0.1,0.3,0.3,0.4,0.4
	c0.4,0.5,0.8,1,1.1,1.6c0.2,0.4,0.4,0.8,0.3,1.3c-0.1,0.5-0.6,0.7-1,0.9C157.3,59.5,157.1,59.6,156.9,59.6z"/>
<path id="XMLID_17_" class="st3" d="M163,55.5c-1.5-1.4-1.4,2.4-1,4c0.2,2.2,1.3,4.2,3.1,6.2l3.8,0.8c0,0,4.1,2.4,5.3,1
	c1.2-1.4,2.4-5,2.4-5c-0.1-2.6-1.3-4.5-3.6-5.6c-3.2-1.5-11.3-2-10.7-1.7"/>
<path id="XMLID_16_" class="st3" d="M153.4,73.4l-3.3-4.8l3.6-4.6c2.8-1.8,5.4-3.1,5.5,2l-0.2,5.8L153.4,73.4z"/>
<path id="XMLID_18_" class="st3" d="M171.6,77c-2,0.6-4.3,1.3-6.1,0.4c-1.5-0.8-3-1.1-4.2-1.5c-0.2-0.1-0.4-0.3-0.5-0.5
	s-0.1-0.4-0.1-0.6c-0.1-2.1,2.4-6.2,2.5-6c0.1,0.1,5.2-0.3,7.1,0.7c0.3,0.2,0.8,0.2,1.1,0.4c0.3,0.2,0.9,0.4,0.7,0.7
	c-0.7,1.5-0.3,2.5,2,2.6c0.7,0,0.7,1.3,0.5,2c-0.3,0.8-1.1,1.2-1.9,1.6C172.2,76.8,171.9,76.9,171.6,77z"/>
<path class="st4" d="M127.4,10.7c-18.8-3.1-36,4.7-48.6,18.5C69.9,39,63.3,50.8,58.5,63c-0.7,1.9-1.4,3.7-2,5.6h83.6
	c-8.7,0-17.7-2.6-23.4-9.5c-4.2-5.1-6.1-12.1-4.7-18.6c1.8-8.3,8.8-13.7,17.4-13.4c8.3,0.3,13.6,7,16.1,14.2c0.6,1.6,1.1,3.3,1.4,5
	C146.9,46.2,163.6,19,127.4,10.7"/>
<path id="XMLID_4_" class="st3" d="M156.8,91c1-0.5,2.2-0.7,3.3-0.7c0.9,0,1.7,0.2,2.5,0.6c0.1,0.1,0.2,0.1,0.3,0.3
	c0.1,0.1,0.1,0.2,0.1,0.4c0.3,1.3-0.1,2.7-0.6,3.8c-1.3,0.1-2.6,0.2-3.9,0.1c-0.2,0-0.4,0-0.6-0.1c-0.2-0.1-0.3-0.2-0.5-0.4
	c-0.5-0.4-1-0.9-1.4-1.4c-0.3-0.3-0.5-0.8-0.5-1.2c0.1-0.5,0.5-0.8,0.9-1.1C156.4,91.2,156.6,91.1,156.8,91z"/>
<path id="XMLID_3_" class="st3" d="M151.5,96.1c1.7,1.1,1-2.6,0.3-4.1c-0.6-2.1-2-4-4.1-5.6l-3.9-0.1c0,0-4.4-1.7-5.4-0.1
	c-1,1.5-1.6,5.3-1.6,5.3c0.6,2.6,2.1,4.2,4.4,4.9c3.4,1,11.4,0.1,10.8-0.1"/>
<path id="XMLID_2_" class="st3" d="M157.9,76.9l4,4.2l-2.7,5.1c-2.4,2.3-4.8,4-5.7-1l-0.8-5.8L157.9,76.9z"/>
<path id="XMLID_1_" class="st3" d="M139.4,76.4c1.9-0.9,4-2,6-1.4c1.6,0.5,3.1,0.6,4.4,0.8c0.2,0,0.4,0.2,0.6,0.4
	c0.1,0.2,0.2,0.4,0.2,0.6c0.5,2.1-1.4,6.5-1.5,6.4c-0.1-0.1-5.1,1.2-7.1,0.5c-0.4-0.1-0.8,0-1.2-0.2c-0.3-0.1-0.9-0.2-0.8-0.6
	c0.5-1.6-0.1-2.5-2.4-2.2c-0.7,0.1-0.9-1.2-0.8-1.9c0.1-0.8,0.9-1.4,1.6-1.9C138.8,76.7,139.1,76.5,139.4,76.4z"/>
<path id="XMLID_5_" class="st3" d="M165.6,82.6c1.9-0.9,4-2,6-1.4c1.6,0.5,3.1,0.6,4.4,0.8c0.2,0,0.4,0.2,0.6,0.4
	c0.1,0.2,0.2,0.4,0.2,0.6c0.5,2.1-1.4,6.5-1.5,6.4c-0.1-0.1-5.1,1.2-7.1,0.5c-0.4-0.1-0.8,0-1.2-0.2c-0.3-0.1-0.9-0.2-0.8-0.6
	c0.5-1.6-0.1-2.5-2.4-2.2c-0.7,0.1-0.9-1.2-0.8-1.9c0.1-0.8,0.9-1.4,1.6-1.9C165.1,82.9,165.4,82.7,165.6,82.6z"/>
</svg>
