<svg xmlns="http://www.w3.org/2000/svg"><symbol viewBox="-69 71 20 20" id="globe"> <style type="text/css"> .st0{fill:#999999;} </style> <g id="globe-XMLID_1_"> <g> <path class="st0" d="M-59,71.4c5.3,0,9.6,4.3,9.6,9.6s-4.3,9.6-9.6,9.6s-9.6-4.3-9.6-9.6S-64.3,71.4-59,71.4z M-50.8,81
			c0-3.6-2.3-6.7-5.6-7.8c-0.2,0.2-0.3,0.5-0.3,0.6c0.2,2.2,1.7,0.5,2,0.9c1,1.2-1.9,1.5-0.9,3.6c0.5,1,1.1,1.3,1.9,1.3
			c0.8,0,1.1,1.4,1.2,2c0.1,0.6,0,2.1-0.3,2.8c-0.3,0.7,0,1.3,0.3,1.5C-51.5,84.6-50.8,82.9-50.8,81z M-54.5,87.8
			c-0.4-0.7-1.7-0.7-2.4-0.7c-0.8,0.1-1.7,0.6-2.2,0.7c-0.6,0.1-1,0.3-1.5,0.3c-0.4,0-0.5,0.3-1,0.6c0.8,0.3,1.7,0.4,2.6,0.4
			C-57.3,89.2-55.8,88.7-54.5,87.8z M-58.8,80.9c1.1-2.9-2.3-3.1-2.8-3.3c-0.5-0.2-1.3-0.2-1.6-0.1c-0.3,0.1-0.9-0.4-0.9-0.8
			s1.2-1.3,1.6-1.9c0.4-0.6,0.7-0.5,1.3-1.1c0.3-0.3,0.8-0.4,1-0.8c-3,0.4-5.5,2.4-6.5,5.2c0.6,0.1,2.1,0.1,2.2,0.6
			c0.2,0.5-0.6,1-0.6,2.1c0,1.2,1.5,1.2,1.5,2.1s0.3,1.9,0.3,2.2c0,0.3,1.3,1.9,1.7,1.9c0.5,0,0.1-1.8,0.1-2.3
			c0-0.3,0.2-1.3,0.3-1.5C-60.7,81.7-59.1,81.8-58.8,80.9z"/> </g>  </g> </symbol><symbol viewBox="-69 71 20 20" id="magnifying-glass"> <style type="text/css"> .st0{fill:#999999;} </style> <path class="st0" d="M-51.5,86.5l-3.8-3.8c0.6-0.9,0.9-2,0.9-3.2c0-3.4-3-6.4-6.4-6.4c-3.4,0-6.2,2.8-6.2,6.2c0,3.4,3,6.4,6.4,6.4
	c1.1,0,2.2-0.3,3.1-0.8l3.8,3.8c0.4,0.4,1,0.4,1.3,0l0.9-0.9C-50.9,87.3-51.1,86.8-51.5,86.5z M-65,79.3c0-2.4,1.9-4.3,4.3-4.3
	c2.4,0,4.5,2.1,4.5,4.5c0,2.4-1.9,4.3-4.3,4.3C-62.9,83.8-65,81.7-65,79.3z"/> </symbol><symbol viewBox="-133.369 140.238 28.532 26.695" id="star"> <path d="M-119.103,140.426l3.816,10.054h10.247l-8.361,5.904l2.99,10.36l-8.692-6.213l-8.69,6.213l2.987-10.36
	l-8.362-5.904h10.246L-119.103,140.426z"/> </symbol></svg>