<?xml version="1.0" encoding="utf-8"?>
<!-- Generator: Adobe Illustrator 19.0.0, SVG Export Plug-In . SVG Version: 6.00 Build 0)  -->
<svg version="1.1" id="Magnifying_glass" xmlns="http://www.w3.org/2000/svg" xmlns:xlink="http://www.w3.org/1999/xlink" x="0px" width="30px" height="30px"
	 y="0px" viewBox="-69 71 20 20" style="enable-background:new -69 71 20 20;" xml:space="preserve">
<style type="text/css">
	.st0{fill:#999999;}
</style>
<path class="st0" d="M-51.5,86.5l-3.8-3.8c0.6-0.9,0.9-2,0.9-3.2c0-3.4-3-6.4-6.4-6.4c-3.4,0-6.2,2.8-6.2,6.2c0,3.4,3,6.4,6.4,6.4
	c1.1,0,2.2-0.3,3.1-0.8l3.8,3.8c0.4,0.4,1,0.4,1.3,0l0.9-0.9C-50.9,87.3-51.1,86.8-51.5,86.5z M-65,79.3c0-2.4,1.9-4.3,4.3-4.3
	c2.4,0,4.5,2.1,4.5,4.5c0,2.4-1.9,4.3-4.3,4.3C-62.9,83.8-65,81.7-65,79.3z"/>
</svg>
