<?xml version="1.0" encoding="utf-8"?>
<!-- Generator: Adobe Illustrator 19.0.0, SVG Export Plug-In . SVG Version: 6.00 Build 0)  -->
<svg version="1.1" id="Magnifying_glass" xmlns="http://www.w3.org/2000/svg" xmlns:xlink="http://www.w3.org/1999/xlink" x="0px"
	 y="0px" width="20px" height="20px" viewBox="-142 148.1 7.9 7.9" style="enable-background:new -142 148.1 7.9 7.9;" xml:space="preserve">
<style type="text/css">
	.st0{fill:#999999;}
</style>
<path class="st0" d="M-134.3,154.8l-1.9-1.9c0.3-0.5,0.4-1,0.4-1.6c0-1.7-1.5-3.2-3.2-3.2c-1.7,0-3.1,1.4-3.1,3.1
	c0,1.7,1.5,3.2,3.2,3.2c0.6,0,1.1-0.2,1.6-0.4l1.9,1.9c0.2,0.2,0.5,0.2,0.7,0l0.4-0.5C-133.9,155.2-134.1,154.9-134.3,154.8z
	 M-141,151.2c0-1.2,0.9-2.2,2.1-2.2c1.2,0,2.3,1.1,2.3,2.3c0,1.2-0.9,2.2-2.1,2.2S-141,152.4-141,151.2z"/>
</svg>
