<?xml version="1.0" encoding="utf-8"?>
<!-- Generator: Adobe Illustrator 19.0.0, SVG Export Plug-In . SVG Version: 6.00 Build 0)  -->
<svg version="1.1" id="Layer_1" xmlns="http://www.w3.org/2000/svg" xmlns:xlink="http://www.w3.org/1999/xlink" x="0px" y="0px" height="46px" width="36px"
	 viewBox="-199.1 194.3 25.3 32.3" style="enable-background:new -199.1 194.3 25.3 32.3;" xml:space="preserve">
<style type="text/css">
	.st0{fill:#33CCFF;stroke:#000000;stroke-width:0.25;stroke-miterlimit:10;}
	.st1{fill:#FFFF66;}
</style>
<path class="st0" d="M-186.5,194.4c-6.9,0-12.5,5.4-12.5,12.1c0,0.1,0.1,3.2,1.1,5.5c3.1,6.8,11.4,14.4,11.4,14.4s8.2-7.5,11.3-14.4
	c0.9-1.6,1.2-5.2,1.2-5.5C-174,199.8-179.6,194.4-186.5,194.4z"/>
<polygon class="st1" points="-186.4,195.3 -183,202.6 -175,203.7 -180.8,209.3 -179.3,217.4 -186.4,213.5 -193.6,217.4
	-192.3,209.3 -198.1,203.7 -190.1,202.6 "/>
</svg>
