<?xml version="1.0" encoding="utf-8"?>
<!-- Generator: Adobe Illustrator 16.0.0, SVG Export Plug-In . SVG Version: 6.00 Build 0)  -->
<!DOCTYPE svg PUBLIC "-//W3C//DTD SVG 1.1//EN" "http://www.w3.org/Graphics/SVG/1.1/DTD/svg11.dtd">
<svg version="1.1" id="Layer_1" xmlns="http://www.w3.org/2000/svg" xmlns:xlink="http://www.w3.org/1999/xlink" x="0px" y="0px"
	 width="40px" height="52.4px" viewBox="214.2 452 40 52.4" enable-background="new 214.2 452 40 52.4" xml:space="preserve">
<g>
	<path fill="#121212" d="M234.2,453c-10.5,0-19,8.5-19,18.9c0,0.1,0.1,5.1,1.7,8.6c4.7,10.7,17.3,22.5,17.3,22.5
		s12.5-11.8,17.2-22.5c1.4-2.5,1.8-8.1,1.8-8.6C253.2,461.3,244.7,453,234.2,453z"/>
	<path fill="none" stroke="#FFFFFF" stroke-width="2" stroke-miterlimit="10" d="M234.2,453c-10.5,0-19,8.5-19,18.9
		c0,0.1,0.1,5.1,1.7,8.6c4.7,10.7,17.3,22.5,17.3,22.5s12.5-11.8,17.2-22.5c1.4-2.5,1.8-8.1,1.8-8.6
		C253.2,461.3,244.7,453,234.2,453z"/>
</g>
</svg>
