<?xml version="1.0" encoding="utf-8"?>
<!-- Generator: Adobe Illustrator 19.0.0, SVG Export Plug-In . SVG Version: 6.00 Build 0)  -->
<svg version="1.1" id="Layer_1" xmlns="http://www.w3.org/2000/svg" xmlns:xlink="http://www.w3.org/1999/xlink" x="0px" y="0px"
	 viewBox="-260.7 251.5 36.7 47" style="enable-background:new -260.7 251.5 36.7 47;" xml:space="preserve">
<style type="text/css">
	.st0{fill:#33CCFF;stroke:#000000;stroke-width:0.25;stroke-miterlimit:10;}
	.st1{fill:#FF33FF;stroke:#FFFFFF;stroke-miterlimit:10;}
</style>
<path class="st0" d="M-242.2,252.5c-9.8,0-17.8,7.7-17.8,17.2c0,0.1,0.1,4.6,1.6,7.8c4.4,9.7,16.2,20.5,16.2,20.5
	s11.7-10.7,16.1-20.5c1.3-2.3,1.7-7.4,1.7-7.8C-224.4,260.1-232.4,252.5-242.2,252.5z"/>
<path class="st1" d="M-231.4,262.5c-2.5-2.3-6.6-2.3-9.1,0l-1.7,1.5l-1.6-1.5c-2.6-2.3-6.6-2.3-9.2,0c-2.8,2.5-2.8,6.8,0,9.3
	l10.8,9.9l10.8-9.9C-228.6,269.2-228.6,265-231.4,262.5z"/>
</svg>
