<?xml version="1.0" encoding="utf-8"?>
<!-- Generator: Adobe Illustrator 16.0.0, SVG Export Plug-In . SVG Version: 6.00 Build 0)  -->
<!DOCTYPE svg PUBLIC "-//W3C//DTD SVG 1.1//EN" "http://www.w3.org/Graphics/SVG/1.1/DTD/svg11.dtd">
<svg version="1.1" id="Layer_1" xmlns="http://www.w3.org/2000/svg" xmlns:xlink="http://www.w3.org/1999/xlink" x="0px" y="0px"
	 width="39.25px" height="68.575px" viewBox="0 0 39.25 68.575" enable-background="new 0 0 39.25 68.575" xml:space="preserve">
<path fill="#33CCFF" stroke="#000000" stroke-width="0.25" stroke-miterlimit="10" d="M19.625,9.289c-10.46,0-19,8.461-19,18.9
	c0,0.109,0.104,5.053,1.708,8.57c4.696,10.658,17.292,22.527,17.292,22.527s12.488-11.758,17.187-22.527
	c1.388-2.527,1.813-8.133,1.813-8.57C38.625,17.64,30.086,9.289,19.625,9.289z"/>
<path fill="#FF33FF" stroke="#FFFFFF" stroke-miterlimit="10" d="M31.456,19.552c-2.738-2.562-7.229-2.562-9.969,0l-1.862,1.672
	l-1.753-1.672c-2.85-2.562-7.229-2.562-10.079,0c-3.065,2.785-3.065,7.578,0,10.363l11.832,11.029l11.832-11.029
	C34.522,27.019,34.522,22.337,31.456,19.552z"/>
</svg>
