<?xml version="1.0" ?><!DOCTYPE svg  PUBLIC '-//W3C//DTD SVG 1.1//EN'  'http://www.w3.org/Graphics/SVG/1.1/DTD/svg11.dtd'><svg enable-background="new 0 0 48 48" id="Layer_1" version="1.1" viewBox="0 0 48 48" xml:space="preserve" xmlns="http://www.w3.org/2000/svg" xmlns:xlink="http://www.w3.org/1999/xlink" x="0px" y="0px" width="160px" height="160px"><g><g><g><path d="M19.9,18.8H4.8c-0.3,0-0.6,0.2-0.7,0.5l-2.6,6     c-0.2,0.5,0.2,1.1,0.7,1.1h20.2c0.6,0,0.9-0.6,0.7-1.1l-2.6-6C20.5,19,20.2,18.8,19.9,18.8z" fill="none" stroke="#231F20" stroke-miterlimit="10" stroke-width="2"/><path d="M5.9,14.9c-0.7,0-1.3-0.6-1.3-1.3V9.2V2.9     c0-0.7,0.6-1.3,1.3-1.3h13c0.7,0,1.3,0.6,1.3,1.3v6.3v4.4c0,0.7-0.6,1.3-1.3,1.3H5.9z" fill="none" stroke="#231F20" stroke-miterlimit="10" stroke-width="2"/></g><g><path d="M43.2,39H28.1c-0.3,0-0.6,0.2-0.7,0.5l-2.6,6     c-0.2,0.5,0.2,1.1,0.7,1.1h20.2c0.6,0,0.9-0.6,0.7-1.1l-2.6-6C43.8,39.2,43.5,39,43.2,39z" fill="none" stroke="#231F20" stroke-miterlimit="10" stroke-width="2"/><path d="M29.2,35.1c-0.7,0-1.3-0.6-1.3-1.3v-4.4v-6.3     c0-0.7,0.6-1.3,1.3-1.3h13c0.7,0,1.3,0.6,1.3,1.3v6.3v4.4c0,0.7-0.6,1.3-1.3,1.3H29.2z" fill="none" stroke="#231F20" stroke-miterlimit="10" stroke-width="2"/></g><polyline fill="none" points="8.3,30 8.3,41.7 20.1,41.7   " stroke="#231F20" stroke-miterlimit="10" stroke-width="2"/></g><g><line fill="none" stroke="#231F20" stroke-miterlimit="10" stroke-width="2" x1="27.9" x2="39.7" y1="5.5" y2="17.3"/><line fill="none" stroke="#231F20" stroke-miterlimit="10" stroke-width="2" x1="39.7" x2="27.9" y1="5.5" y2="17.3"/></g></g></svg>