<?xml version="1.0" encoding="utf-8"?>
<!-- Generator: Adobe Illustrator 16.0.0, SVG Export Plug-In . SVG Version: 6.00 Build 0)  -->
<!DOCTYPE svg PUBLIC "-//W3C//DTD SVG 1.1//EN" "http://www.w3.org/Graphics/SVG/1.1/DTD/svg11.dtd">
<svg version="1.1" id="CW" xmlns="http://www.w3.org/2000/svg" xmlns:xlink="http://www.w3.org/1999/xlink" x="0px" y="0px"
	 width="64.778px" height="56.766px" viewBox="267 362.934 64.778 56.766" enable-background="new 267 362.934 64.778 56.766"
	 xml:space="preserve">
<path fill="#00CCFF" d="M331.389,391.32h-8.111v-0.701c-0.369-15.163-12.734-27.344-27.936-27.344
	c-15.44,0-27.953,12.557-27.953,28.045s12.513,28.039,27.953,28.039c6.491,0,12.465-2.224,17.211-5.943l-4.807-5.144
	c-3.475,2.559-7.764,4.079-12.404,4.079c-11.579,0-20.966-9.417-20.966-21.031c0-11.613,9.387-21.031,20.966-21.031
	c11.344,0,20.58,9.039,20.945,20.331v0.701h-9.137l11.947,13.317L331.389,391.32z"/>
</svg>
