<?xml version="1.0" encoding="utf-8"?>
<!-- Generator: Adobe Illustrator 16.0.0, SVG Export Plug-In . SVG Version: 6.00 Build 0)  -->
<!DOCTYPE svg PUBLIC "-//W3C//DTD SVG 1.1//EN" "http://www.w3.org/Graphics/SVG/1.1/DTD/svg11.dtd">
<svg version="1.1" id="CW" xmlns="http://www.w3.org/2000/svg" xmlns:xlink="http://www.w3.org/1999/xlink" x="0px" y="0px"
	 width="65.445px" height="57.351px" viewBox="265.944 362.008 65.445 57.351"
	 enable-background="new 265.944 362.008 65.445 57.351" xml:space="preserve">
<path fill="#35ABBB" d="M330.666,390.687h-8.11v-0.7c-0.369-15.163-12.734-27.345-27.937-27.345
	c-15.44,0-27.953,12.558-27.953,28.045c0,15.488,12.513,28.039,27.953,28.039c6.491,0,12.465-2.224,17.211-5.942l-4.807-5.145
	c-3.475,2.56-7.764,4.079-12.404,4.079c-11.579,0-20.966-9.417-20.966-21.031c0-11.612,9.387-21.03,20.966-21.03
	c11.344,0,20.58,9.039,20.945,20.331v0.7h-9.137l11.946,13.317L330.666,390.687z"/>
</svg>
