<?xml version="1.0" encoding="utf-8"?>
<!-- Generator: Adobe Illustrator 19.0.0, SVG Export Plug-In . SVG Version: 6.00 Build 0)  -->
<svg version="1.1" id="Layer_1" xmlns="http://www.w3.org/2000/svg" xmlns:xlink="http://www.w3.org/1999/xlink" x="0px" y="0px"
	 viewBox="43.2 -37.1 156.2 156.2" style="enable-background:new 43.2 -37.1 156.2 156.2;" xml:space="preserve">
<style type="text/css">
	.st0{fill:none;stroke:#FFFFFF;stroke-width:7;stroke-miterlimit:10;}
	.st1{fill:#FFFFFF;}
</style>
<path class="st0" d="M178.8,115.6H63.7c-9.4,0-17-7.6-17-17V-16.6c0-9.4,7.6-17,17-17h115.2c9.4,0,17,7.6,17,17V98.6
	C195.8,108,188.2,115.6,178.8,115.6z"/>
<path class="st1" d="M125-3.8v-16.6h-8.2v16.6c1.4-0.1,2.7-0.2,4.1-0.2S123.7-3.9,125-3.8z M102,0.2l-8.3-14.4l-7.1,4.1l8.3,14.4
	C97.1,2.7,99.5,1.4,102,0.2z M155.3-10.1l-7.1-4.1l-8.4,14.4c2.5,1.2,4.9,2.5,7.1,4.1L155.3-10.1z M84,15.2L69.6,6.8l-4.1,7.1
	l14.4,8.4C81.1,19.8,82.4,17.4,84,15.2z M120.9,4.2c-20.4,0-37,16.5-37,37s16.5,37,37,37s37-16.5,37-37S141.3,4.2,120.9,4.2z
	 M176.3,14l-4.1-7.1l-14.4,8.3c1.6,2.2,2.9,4.6,4.1,7.1L176.3,14z M139.8,82.2l8.3,14.4l7.1-4.1l-8.3-14.4
	C144.7,79.7,142.3,81,139.8,82.2z M157.8,67.2l14.4,8.3l4.1-7.1l-14.4-8.3C160.7,62.6,159.4,65,157.8,67.2z M165.9,37.1
	c0.1,1.4,0.2,2.7,0.2,4.1s-0.1,2.8-0.2,4.1h16.6v-8.2C182.5,37.1,165.9,37.1,165.9,37.1z M116.8,86.2v16.6h8.2V86.2
	c-1.4,0.1-2.7,0.2-4.1,0.2S118.1,86.3,116.8,86.2z M86.5,92.5l7.1,4.1l8.3-14.4c-2.5-1.2-4.9-2.5-7.1-4.1L86.5,92.5z M75.7,41.2
	c0-1.4,0.1-2.8,0.2-4.1H59.3v8.2h16.6C75.8,44,75.7,42.6,75.7,41.2z M65.5,68.4l4.1,7.1L84,67.2c-1.6-2.2-2.9-4.6-4.1-7.1L65.5,68.4
	z"/>
</svg>
