<?xml version="1.0" encoding="utf-8"?>
<!-- Generator: Adobe Illustrator 19.0.0, SVG Export Plug-In . SVG Version: 6.00 Build 0)  -->
<svg version="1.1" id="Layer_1" xmlns="http://www.w3.org/2000/svg" xmlns:xlink="http://www.w3.org/1999/xlink" x="0px" y="0px"
	 viewBox="43.2 -37.1 156.2 156.2" style="enable-background:new 43.2 -37.1 156.2 156.2;" xml:space="preserve">
<style type="text/css">
	.st0{fill:none;stroke:#FFFFFF;stroke-width:7;stroke-miterlimit:10;}
	.st1{fill:#FFFFFF;}
</style>
<path class="st0" d="M178.8,115.6H63.7c-9.4,0-17-7.6-17-17V-16.6c0-9.4,7.6-17,17-17h115.2c9.4,0,17,7.6,17,17V98.6
	C195.8,108,188.2,115.6,178.8,115.6z"/>
<g>
	<path class="st1" d="M173.3,61.7c-2.5,0-4.8,0.3-7,0.7c1.9-1.3,3.8-2.8,5.4-4.5c9.4-9.3-1.6-20.3-10.9-10.9
		c-1.7,1.7-3.2,3.6-4.5,5.4c0.4-2.2,0.7-4.5,0.7-7c0-13.3-15.5-13.3-15.5,0c0,2.5,0.3,4.8,0.7,7c-1.3-1.9-2.8-3.8-4.5-5.4
		c-9.4-9.4-20.4,1.6-11,10.9c1.7,1.7,3.6,3.2,5.4,4.5c-2.2-0.4-4.5-0.7-7-0.7c-13.3,0-13.3,15.5,0,15.5c2.5,0,4.8-0.3,7-0.7
		c-1.9,1.3-3.8,2.8-5.4,4.5c-9.4,9.4,1.6,20.4,10.9,11c1.7-1.7,3.2-3.6,4.5-5.4c-0.4,2.2-0.7,4.5-0.7,7c0,13.3,15.5,13.3,15.5,0
		c0-2.5-0.3-4.8-0.7-7c1.3,1.9,2.8,3.8,4.5,5.4c9.4,9.4,20.4-1.6,11-10.9c-1.7-1.7-3.6-3.2-5.4-4.5c2.2,0.4,4.5,0.7,7,0.7
		C186.6,77.4,186.6,61.7,173.3,61.7z M143.2,63.9c3.5-3.5,9.3-3.5,12.7,0c3.3,3.3,3.5,8.4,0.7,12c-1.6,1.9-4.1,3-6.7,3
		c-5.1,0-9.1-4.1-9.1-9.1c0-2.2,0.7-4.1,2-5.6C143,64.1,143,63.9,143.2,63.9z"/>
</g>
<path class="st1" d="M128.8,7.7L128.8,7.7L128.8,7.7L128.8,7.7c-4.1,0-10.5,2.5-13.8,3.8l-0.6-3c-0.1-0.6-0.6-1.1-1.3-1.3
	c-0.1,0-0.3-0.1-0.5-0.1c-0.4,0-0.9,0.2-1.3,0.5l-7.1,7.5l4.8-22c0.2-0.7-0.2-1.5-0.8-1.9C107.9-9,107.7-9,107.4-9
	c-0.4,0-0.8,0.1-1.1,0.4l-3.6,3.3l-5.4-14c-0.2-0.6-0.9-1.4-1.6-1.4l0,0c-0.7,0-1.4,0.6-1.6,1.4L88.6-5.4l-3.8-3.2
	C84.5-8.9,84.1-9,83.7-9c-0.3,0-0.6,0.1-0.8,0.2c-0.6,0.4-0.9,1.1-0.8,1.9l6.8,24l-7.2-7.5c-0.3-0.3-2.8-2.5-3.3-2.5
	c-0.2,0-0.3,0-0.5,0.1c-0.6,0.2-1,0.6-1.3,1.3l-0.6,3c-3.4-1.3-9.8-3.8-13.9-3.8l0,0c-0.7,0-1.4,0.4-1.6,1c-0.3,0.6-0.1,1.5,0.4,1.9
	c1.9,1.7,6.4,6.4,8.4,10.1c-1.6,0.5-3.4,1.3-4.3,1.8c-0.5,0.3-0.8,1-0.8,1.7c0.1,0.6,0.5,1.3,1.1,1.5c2.1,0.7,11.4,4,15.8,4.9
	c-1.5,2.1-4.9,6-7.9,9.3c-0.4,0.4-0.6,1-0.4,1.7c0.2,0.6,0.6,1,1.3,1.1c0.1,0,0.9,0.2,2.4,0.2c2.2,0,5.7-0.4,10.1-2.7l7.5-3.8v10.1
	c0,2.8-0.5,7.7,5.8,10.6c0.2,0.1,0.4,0.1,0.6,0.1c0.6,0,1.3-0.3,1.5-0.9c0.4-0.8,0-1.8-0.8-2.2c-4.4-2.1-4.9-4.9-4.9-7.6V36.3l7.6,4
	c3.9,2.5,7.2,3,9.3,3s3.4-0.5,3.5-0.5c0.5-0.2,0.9-0.7,1-1.3c0.1-0.5,0-1.1-0.4-1.6c-3-3.2-6.5-7.2-7.9-9.3c4.6-1,13.8-4.2,15.8-4.9
	c0.6-0.2,1-0.7,1.1-1.5c0.1-0.6-0.2-1.3-0.8-1.7c-0.8-0.5-2.7-1.3-4.3-1.8c2-3.6,6.6-8.3,8.3-10.1c0.3-0.3,0.6-0.8,0.6-1.4
	C130.6,8.6,129.8,7.7,128.8,7.7z"/>
</svg>
