<?xml version="1.0" encoding="utf-8"?>
<!-- Generator: Adobe Illustrator 19.0.0, SVG Export Plug-In . SVG Version: 6.00 Build 0)  -->
<svg version="1.1" id="Layer_1" xmlns="http://www.w3.org/2000/svg" xmlns:xlink="http://www.w3.org/1999/xlink" x="0px" y="0px" width="160px" height="160px"
	 viewBox="45 -45 160 160" style="enable-background:new 45 -45 160 160;" xml:space="preserve">
<style type="text/css">
	.st0{fill:#333333;}
</style>

<path class="st0" d="M175.8,18.7C175.8,18.7,175.8,18.7,175.8,18.7C175.7,18.7,175.7,18.7,175.8,18.7
	C175.7,18.7,175.7,18.7,175.8,18.7c-6.2,0-16,3.8-20.9,5.8l-1-4.6c-0.2-1-0.9-1.7-1.9-2c-0.2-0.1-0.5-0.1-0.7-0.1
	c-0.7,0-1.4,0.3-1.9,0.8L138.4,30l7.3-33.5c0.2-1.1-0.3-2.3-1.3-2.8c-0.4-0.2-0.9-0.4-1.3-0.4c-0.6,0-1.3,0.2-1.8,0.7l-5.6,5
	l-8.3-21.3c-0.4-1-1.4-2-2.4-2c0,0,0,0,0,0c-1.1,0-2,1-2.4,2l-8.4,21.1l-5.6-5c-0.5-0.4-1.1-0.6-1.8-0.6c-0.5,0-0.9,0.1-1.3,0.4
	c-1,0.6-1.5,1.7-1.2,2.8l7.3,33.5l-10.9-11.4c-0.5-0.5-1.2-0.8-1.9-0.8c-0.2,0-0.5,0-0.7,0.1c-0.9,0.3-1.7,1-1.9,2l-1,4.6
	c-4.9-2-14.7-5.8-20.9-5.8c0,0,0,0-0.1,0c-1.1,0-2,0.7-2.4,1.7c-0.4,1-0.2,2.2,0.6,2.9c2.8,2.6,9.7,9.7,12.8,15.4
	c-2.3,0.8-5.3,1.9-6.5,2.7c-0.9,0.5-1.3,1.5-1.2,2.5c0.1,1,0.8,1.8,1.7,2.2c3.2,1.1,17.2,6,24.1,7.5c-2.2,3.2-7.4,9.2-12.1,14.1
	c-0.6,0.7-0.9,1.6-0.6,2.5c0.3,0.9,1,1.6,1.9,1.8c0.1,0,1.4,0.3,3.6,0.3c3.3,0,8.7-0.7,15.4-4.1l11.5-5.8v15.3
	c0,4.2-0.8,11.7,8.8,16.1c0.3,0.2,0.7,0.2,1,0.2c0.9,0,1.8-0.5,2.3-1.4c0.6-1.2,0-2.7-1.2-3.3c-6.7-3.1-7.5-7.5-7.5-11.6V62.3
	l11.6,5.9c5.9,3.7,10.9,4.5,14.1,4.5c3.2,0,5.2-0.8,5.4-0.9c0.8-0.3,1.4-1,1.6-1.9c0.2-0.9-0.1-1.7-0.7-2.4
	c-4.7-4.9-9.8-10.9-12.1-14.1c6.9-1.5,20.9-6.4,24.1-7.5c1-0.3,1.6-1.2,1.7-2.2c0.1-1-0.4-2-1.2-2.5c-1.2-0.8-4.2-1.9-6.5-2.7
	c3-5.6,9.9-12.7,12.7-15.3c0.5-0.5,0.9-1.2,0.9-2C178.4,19.9,177.2,18.7,175.8,18.7z"/>
</svg>
