<?xml version="1.0" encoding="utf-8"?>
<!-- Generator: Adobe Illustrator 19.0.0, SVG Export Plug-In . SVG Version: 6.00 Build 0)  -->
<svg version="1.1" id="Layer_1" xmlns="http://www.w3.org/2000/svg" xmlns:xlink="http://www.w3.org/1999/xlink" x="0px" y="0px"
	 viewBox="43.2 -37.1 156.2 156.2" style="enable-background:new 43.2 -37.1 156.2 156.2;" xml:space="preserve">
<style type="text/css">
	.st0{fill:none;stroke:#FFFFFF;stroke-width:7;stroke-miterlimit:10;}
	.st1{fill:#FFFFFF;}
</style>
<path class="st0" d="M178.8,115.6H63.7c-9.4,0-17-7.6-17-17V-16.6c0-9.4,7.6-17,17-17h115.2c9.4,0,17,7.6,17,17V98.6
	C195.8,108,188.2,115.6,178.8,115.6z"/>
<g>
	<path class="st1" d="M173.3,61.7c-2.5,0-4.8,0.3-7,0.7c1.9-1.3,3.8-2.8,5.4-4.5c9.4-9.3-1.6-20.3-10.9-10.9
		c-1.7,1.7-3.2,3.6-4.5,5.4c0.4-2.2,0.7-4.5,0.7-7c0-13.3-15.5-13.3-15.5,0c0,2.5,0.3,4.8,0.7,7c-1.3-1.9-2.8-3.8-4.5-5.4
		c-9.4-9.4-20.4,1.6-11,10.9c1.7,1.7,3.6,3.2,5.4,4.5c-2.2-0.4-4.5-0.7-7-0.7c-13.3,0-13.3,15.5,0,15.5c2.5,0,4.8-0.3,7-0.7
		c-1.9,1.3-3.8,2.8-5.4,4.5c-9.4,9.4,1.6,20.4,10.9,11c1.7-1.7,3.2-3.6,4.5-5.4c-0.4,2.2-0.7,4.5-0.7,7c0,13.3,15.5,13.3,15.5,0
		c0-2.5-0.3-4.8-0.7-7c1.3,1.9,2.8,3.8,4.5,5.4c9.4,9.4,20.4-1.6,11-10.9c-1.7-1.7-3.6-3.2-5.4-4.5c2.2,0.4,4.5,0.7,7,0.7
		C186.6,77.4,186.6,61.7,173.3,61.7z M143.2,63.9c3.5-3.5,9.3-3.5,12.7,0c3.3,3.3,3.5,8.4,0.7,12c-1.6,1.9-4.1,3-6.7,3
		c-5.1,0-9.1-4.1-9.1-9.1c0-2.2,0.7-4.1,2-5.6C143,64.1,143,63.9,143.2,63.9z"/>
</g>
<path class="st1" d="M99.4-9.8v-9.5h-4.7v9.5c0.8-0.1,1.6-0.1,2.4-0.1C98-9.9,98.8-9.9,99.4-9.8z M86.3-7.5l-4.8-8.2l-4,2.4l4.8,8.2
	C83.6-6,84.9-6.8,86.3-7.5z M116.8-13.4l-4-2.4l-4.7,8.2c1.5,0.7,2.7,1.5,4,2.4L116.8-13.4z M76.1,1l-8.2-4.7l-2.4,4l8.2,4.8
	C74.4,3.7,75.1,2.3,76.1,1z M97.1-5.3C85.4-5.3,76,4.2,76,15.9S85.4,37,97.1,37s21.1-9.4,21.1-21.1S108.7-5.3,97.1-5.3z M128.7,0.3
	l-2.4-4L118.2,1c0.9,1.3,1.7,2.6,2.4,4L128.7,0.3z M108,39.3l4.8,8.2l4-2.4l-4.7-8.2C110.7,37.9,109.3,38.6,108,39.3z M118.2,30.8
	l8.2,4.7l2.4-4l-8.2-4.8C119.9,28.2,119.1,29.5,118.2,30.8z M122.9,13.6c0.1,0.8,0.1,1.6,0.1,2.4s-0.1,1.6-0.1,2.4h9.5v-4.7H122.9z
	 M94.8,41.6v9.5h4.7v-9.5c-0.8,0.1-1.6,0.1-2.4,0.1C96.3,41.7,95.5,41.7,94.8,41.6z M77.5,45.2l4,2.4l4.8-8.2
	c-1.5-0.7-2.7-1.5-4-2.4L77.5,45.2z M71.3,15.9c0-0.8,0.1-1.6,0.1-2.4h-9.5v4.7h9.5C71.4,17.5,71.3,16.7,71.3,15.9z M65.5,31.5
	l2.4,4l8.2-4.7c-0.9-1.3-1.7-2.6-2.4-4L65.5,31.5z"/>
</svg>
