<?xml version="1.0" encoding="utf-8"?>
<!-- Generator: Adobe Illustrator 19.0.0, SVG Export Plug-In . SVG Version: 6.00 Build 0)  -->
<svg version="1.1" id="Layer_1" xmlns="http://www.w3.org/2000/svg" xmlns:xlink="http://www.w3.org/1999/xlink" x="0px" y="0px" height="160px" width="160px"
	 viewBox="45 -45 160 160" style="enable-background:new 45 -45 160 160;" xml:space="preserve">
<style type="text/css">
	.st0{fill:#333333;}
</style>
<path class="st0" d="M90,114.9h30v-15H90V114.9z M90-30.1h30v-15H90V-30.1z M65-45.1c-11.1,0-20,9-20,20V-10h15v-10.1
	c0-5.5,4.5-10,10-10h9.9l-0.1-15H65z M60,89.9V79.8H45v15.1c0,11.1,9,20,20,20h14.9l0.1-15H70C64.4,99.9,60,95.4,60,89.9z M60-0.1
	H45v30h15V-0.1z M130,114.9h30v-15h-30V114.9z M185-45.1h-14.9l-0.1,15h9.9c5.5,0,10,4.5,10,10v10h15v-15
	C205-36.2,196-45.1,185-45.1z M190,29.9h15v-30h-15V29.9L190,29.9z M190,89.9c0,5.5-4.5,10-10,10h-9.9l0.1,15H185c11.1,0,20-9,20-20
	V79.8h-15V89.9L190,89.9z M130-30.1h30v-15h-30V-30.1z M190,69.9h15v-30h-15V69.9L190,69.9z M60,39.9H45v30h15V39.9z"/>
<g id="christmas">
	<path id="snowflake_winter_christmas" class="st0" d="M119.4,19.2V3.8l-17.4-17.4c-2.1-2.1-2.1-5.7,0-7.8c2.2-2.2,5.7-2.2,7.8,0
		l9.5,9.5v-8.8c0-3.1,2.5-5.5,5.6-5.5c3.1,0,5.6,2.5,5.6,5.5v8.8l9.5-9.5c2.2-2.2,5.6-2.2,7.8,0c2.2,2.2,2.2,5.7,0,7.8L130.6,3.8
		v15.3c2,0.7,3.8,1.8,5.4,3.1l13.3-7.7l6.4-23.8c0.8-2.9,3.8-4.7,6.8-3.9c3,0.8,4.7,3.8,3.9,6.8l-3.5,13l7.7-4.4
		c2.7-1.5,6-0.6,7.6,2c1.5,2.7,0.6,6.1-2,7.6l-7.7,4.4l13,3.5c2.9,0.8,4.7,3.8,3.9,6.8c-0.8,3-3.9,4.7-6.8,3.9l-23.8-6.4l-13.4,7.7
		c0.2,1,0.3,1.9,0.3,2.9c0,1.1-0.1,2.1-0.3,3.2l13.4,7.7l23.8-6.4c2.9-0.8,6,1,6.8,3.9c0.8,3-0.9,6-3.9,6.8l-13,3.5l7.7,4.4
		c2.7,1.5,3.5,4.9,2,7.6c-1.5,2.7-4.9,3.6-7.6,2l-7.7-4.4l3.5,13c0.8,2.9-1,6-3.9,6.8c-3,0.8-6-1-6.8-3.9l-6.4-23.8l-13.5-7.8
		c-1.5,1.3-3.3,2.3-5.2,3v15.6l17.4,17.4c2.1,2.1,2.1,5.7,0,7.8c-2.2,2.2-5.7,2.2-7.8,0l-9.5-9.5v8.8c0,3.1-2.5,5.5-5.6,5.5
		c-3.1,0-5.6-2.5-5.6-5.5v-8.8l-9.5,9.5c-2.2,2.2-5.6,2.2-7.8,0c-2.2-2.2-2.2-5.7,0-7.8l17.4-17.4V50.6c-1.9-0.7-3.7-1.7-5.2-3
		l-13.5,7.8l-6.4,23.8c-0.8,2.9-3.8,4.7-6.8,3.9c-3-0.8-4.7-3.8-3.9-6.8l3.5-13l-7.7,4.4c-2.7,1.5-6,0.6-7.6-2
		c-1.5-2.7-0.6-6.1,2-7.6l7.7-4.4l-13-3.5c-2.9-0.8-4.7-3.8-3.9-6.8c0.8-3,3.9-4.7,6.8-3.9l23.8,6.4l13.4-7.7
		c-0.2-1-0.3-2.1-0.3-3.2c0-1,0.1-2,0.3-2.9l-13.4-7.7l-23.8,6.4c-2.9,0.8-6-1-6.8-3.9c-0.8-3,0.9-6,3.9-6.8l13-3.5L74,11.9
		c-2.7-1.5-3.5-4.9-2-7.6c1.5-2.7,4.9-3.6,7.6-2l7.7,4.4l-3.5-13c-0.8-2.9,1-6,3.9-6.8c3-0.8,6,1,6.8,3.9l6.4,23.8l13.3,7.7
		C115.6,20.9,117.5,19.9,119.4,19.2z"/>
</g>
</svg>
