<?xml version="1.0" encoding="utf-8"?>
<!-- Generator: Adobe Illustrator 19.0.0, SVG Export Plug-In . SVG Version: 6.00 Build 0)  -->
<svg version="1.1" id="Layer_1" xmlns="http://www.w3.org/2000/svg" xmlns:xlink="http://www.w3.org/1999/xlink" x="0px" y="0px" width="160px" height="160px"
	 viewBox="45 -45 160 160" style="enable-background:new 45 -45 160 160;" xml:space="preserve">
<style type="text/css">
	.st0{fill:#333333;}
</style>

<path class="st0" d="M132.6,1.7L132.6,1.7L132.6,1.7L132.6,1.7c-4.1,0-10.5,2.5-13.8,3.8l-0.6-3c-0.1-0.6-0.6-1.1-1.3-1.3
	c-0.1,0-0.3-0.1-0.5-0.1c-0.4,0-0.9,0.2-1.3,0.5L108,9.1l4.8-22c0.2-0.7-0.2-1.5-0.8-1.9c-0.3-0.2-0.5-0.2-0.8-0.2
	c-0.4,0-0.8,0.1-1.1,0.4l-3.6,3.3l-5.4-14c-0.2-0.6-0.9-1.4-1.6-1.4l0,0c-0.7,0-1.4,0.6-1.6,1.4l-5.5,13.9l-3.8-3.2
	c-0.3-0.3-0.7-0.4-1.1-0.4c-0.3,0-0.6,0.1-0.8,0.2c-0.6,0.4-0.9,1.1-0.8,1.9l4.8,22l-7.2-7.5c-0.3-0.3-0.8-0.5-1.3-0.5
	c-0.2,0-0.3,0-0.5,0.1c-0.6,0.2-1,0.6-1.3,1.3l-0.6,3C76.4,4.2,70,1.7,65.9,1.7l0,0c-0.7,0-1.4,0.4-1.6,1c-0.3,0.6-0.1,1.5,0.4,1.9
	c1.9,1.7,6.4,6.4,8.4,10.1c-1.6,0.5-3.4,1.3-4.3,1.8c-0.5,0.3-0.8,1-0.8,1.7c0.1,0.6,0.5,1.3,1.1,1.5c2.1,0.7,11.4,4,15.8,4.9
	c-1.5,2.1-4.9,6-7.9,9.3c-0.4,0.4-0.6,1-0.4,1.7c0.2,0.6,0.6,1,1.3,1.1c0.1,0,0.9,0.2,2.4,0.2c2.2,0,5.7-0.4,10.1-2.7l7.5-3.8v10.1
	c0,2.8-0.5,7.7,5.8,10.6c0.2,0.1,0.4,0.1,0.6,0.1c0.6,0,1.3-0.3,1.5-0.9c0.4-0.8,0-1.8-0.8-2.2c-4.4-2.1-4.9-4.9-4.9-7.6V30.3l7.6,4
	c3.9,2.5,7.2,3,9.3,3s3.4-0.5,3.5-0.5c0.5-0.2,0.9-0.7,1-1.3c0.1-0.5,0-1.1-0.4-1.6c-3-3.2-6.5-7.2-7.9-9.3c4.6-1,13.8-4.2,15.8-4.9
	c0.6-0.2,1-0.7,1.1-1.5c0.1-0.6-0.2-1.3-0.8-1.7c-0.8-0.5-2.7-1.3-4.3-1.8c2-3.6,6.6-8.3,8.3-10.1c0.3-0.3,0.6-0.8,0.6-1.4
	C134.4,2.6,133.6,1.7,132.6,1.7z"/>
<path class="st0" d="M154.1,35.1v-9.6h-4.7v9.6c0.8-0.1,1.6-0.1,2.4-0.1C152.6,34.9,153.4,35,154.1,35.1z M140.9,37.3l-4.8-8.3
	l-4.1,2.4l4.8,8.3C138.1,38.8,139.5,38,140.9,37.3z M171.5,31.4l-4.1-2.4l-4.8,8.3c1.4,0.7,2.8,1.4,4.1,2.4L171.5,31.4z M130.6,45.9
	l-8.3-4.8l-2.4,4.1l8.3,4.8C128.9,48.6,129.7,47.2,130.6,45.9z M151.8,39.6c-11.7,0-21.2,9.5-21.2,21.2s9.5,21.2,21.2,21.2
	c11.7,0,21.2-9.5,21.2-21.2S163.5,39.6,151.8,39.6z M183.6,45.2l-2.4-4.1l-8.3,4.8c0.9,1.3,1.7,2.6,2.4,4.1L183.6,45.2z M162.6,84.4
	l4.8,8.3l4.1-2.4l-4.8-8.3C165.4,82.9,164.1,83.7,162.6,84.4z M172.9,75.8l8.3,4.8l2.4-4.1l-8.3-4.8
	C174.6,73.2,173.9,74.5,172.9,75.8z M177.6,58.5c0.1,0.8,0.1,1.6,0.1,2.4s0,1.6-0.1,2.4h9.6v-4.7H177.6z M149.4,86.7v9.6h4.7v-9.6
	c-0.8,0.1-1.6,0.1-2.4,0.1C151,86.8,150.2,86.7,149.4,86.7z M132.1,90.3l4.1,2.4l4.8-8.3c-1.4-0.7-2.8-1.4-4.1-2.4L132.1,90.3z
	 M125.8,60.9c0-0.8,0-1.6,0.1-2.4h-9.5v4.7h9.5C125.9,62.4,125.8,61.7,125.8,60.9z M120,76.5l2.4,4.1l8.3-4.8
	c-0.9-1.3-1.7-2.6-2.4-4.1L120,76.5z"/>
</svg>
