<?xml version="1.0" encoding="utf-8"?>
<!-- Generator: Adobe Illustrator 19.0.0, SVG Export Plug-In . SVG Version: 6.00 Build 0)  -->
<svg version="1.1" id="Layer_1" xmlns="http://www.w3.org/2000/svg" xmlns:xlink="http://www.w3.org/1999/xlink" x="0px" y="0px"
	 viewBox="43.2 -37.1 156.2 156.2" style="enable-background:new 43.2 -37.1 156.2 156.2;" xml:space="preserve">
<style type="text/css">
	.st0{fill:none;stroke:#FFFFFF;stroke-width:7;stroke-miterlimit:10;}
	.st1{fill:#FFFFFF;}
</style>
<path class="st0" d="M178.8,115.6H63.7c-9.4,0-17-7.6-17-17V-16.6c0-9.4,7.6-17,17-17h115.2c9.4,0,17,7.6,17,17V98.6
	C195.8,108,188.2,115.6,178.8,115.6z"/>
<path class="st1" d="M174,22.9L174,22.9C173.9,22.9,173.9,22.9,174,22.9C173.9,22.9,173.9,22.9,174,22.9c-6.2,0-16,3.8-20.9,5.8
	l-1-4.6c-0.2-1-0.9-1.7-1.9-2c-0.2-0.1-0.5-0.1-0.7-0.1c-0.7,0-1.4,0.3-1.9,0.8l-11,11.4l7.3-33.5c0.2-1.1-0.3-2.3-1.3-2.8
	c-0.4-0.2-0.9-0.4-1.3-0.4c-0.6,0-1.3,0.2-1.8,0.7l-5.6,5l-8.3-21.3c-0.4-1-1.4-2-2.4-2l0,0c-1.1,0-2,1-2.4,2L112.4,3l-5.6-5
	c-0.5-0.4-1.1-0.6-1.8-0.6c-0.5,0-0.9,0.1-1.3,0.4c-1,0.6-1.5,1.7-1.2,2.8l7.3,33.5L98.9,22.7c-0.5-0.5-1.2-0.8-1.9-0.8
	c-0.2,0-0.5,0-0.7,0.1c-0.9,0.3-1.7,1-1.9,2l-1,4.6c-4.9-2-14.7-5.8-20.9-5.8c0,0,0,0-0.1,0c-1.1,0-2,0.7-2.4,1.7s-0.2,2.2,0.6,2.9
	c2.8,2.6,9.7,9.7,12.8,15.4c-2.3,0.8-5.3,1.9-6.5,2.7C76,46,75.6,47,75.7,48c0.1,1,0.8,1.8,1.7,2.2c3.2,1.1,17.2,6,24.1,7.5
	c-2.2,3.2-7.4,9.2-12.1,14.1c-0.6,0.7-0.9,1.6-0.6,2.5s1,1.6,1.9,1.8c0.1,0,1.4,0.3,3.6,0.3c3.3,0,8.7-0.7,15.4-4.1l11.5-5.8v15.3
	c0,4.2-0.8,11.7,8.8,16.1c0.3,0.2,0.7,0.2,1,0.2c0.9,0,1.8-0.5,2.3-1.4c0.6-1.2,0-2.7-1.2-3.3c-6.7-3.1-7.5-7.5-7.5-11.6V66.5
	l11.6,5.9c5.9,3.7,10.9,4.5,14.1,4.5c3.2,0,5.2-0.8,5.4-0.9c0.8-0.3,1.4-1,1.6-1.9c0.2-0.9-0.1-1.7-0.7-2.4
	c-4.7-4.9-9.8-10.9-12.1-14.1c6.9-1.5,20.9-6.4,24.1-7.5c1-0.3,1.6-1.2,1.7-2.2c0.1-1-0.4-2-1.2-2.5c-1.2-0.8-4.2-1.9-6.5-2.7
	c3-5.6,9.9-12.7,12.7-15.3c0.5-0.5,0.9-1.2,0.9-2C176.6,24.1,175.4,22.9,174,22.9z"/>
</svg>
