<?xml version="1.0" encoding="utf-8"?>
<!-- Generator: Adobe Illustrator 19.0.0, SVG Export Plug-In . SVG Version: 6.00 Build 0)  -->
<svg version="1.1" id="Layer_1" xmlns="http://www.w3.org/2000/svg" xmlns:xlink="http://www.w3.org/1999/xlink" x="0px" y="0px" width="160px" height="160px"
	 viewBox="45 -45 160 160" style="enable-background:new 45 -45 160 160;" xml:space="preserve">
<style type="text/css">
	.st0{fill:#333333;}
</style>

<path class="st0" d="M131.1,2.1L131.1,2.1L131.1,2.1L131.1,2.1c-3.9,0-10.1,2.4-13.2,3.6l-0.6-2.9c-0.1-0.6-0.6-1.1-1.2-1.2
	c-0.1,0-0.3-0.1-0.5-0.1c-0.4,0-0.9,0.2-1.2,0.5l-6.9,7.2l4.6-21.1c0.2-0.7-0.2-1.4-0.8-1.8c-0.3-0.2-0.5-0.2-0.8-0.2
	c-0.4,0-0.8,0.1-1.1,0.4l-3.5,3.2l-5.2-13.4c-0.2-0.6-0.9-1.3-1.5-1.3l0,0c-0.7,0-1.3,0.6-1.5,1.3l-5.3,13.3l-3.6-3.1
	c-0.3-0.3-0.7-0.4-1.1-0.4c-0.3,0-0.6,0.1-0.8,0.2c-0.6,0.4-0.9,1.1-0.8,1.8l4.6,21.1L83.8,2c-0.3-0.3-0.8-0.5-1.2-0.5
	c-0.2,0-0.3,0-0.5,0.1c-0.6,0.2-1,0.6-1.2,1.2l-0.6,2.9C77.2,4.5,71,2.1,67.1,2.1l0,0c-0.7,0-1.3,0.4-1.5,1
	c-0.3,0.6-0.1,1.4,0.4,1.8c1.8,1.6,6.1,6.1,8.1,9.7c-1.5,0.5-3.3,1.2-4.1,1.7c-0.5,0.3-0.8,1-0.8,1.6c0.1,0.6,0.5,1.2,1.1,1.4
	c2,0.7,10.9,3.8,15.2,4.7c-1.4,2-4.7,5.8-7.6,8.9c-0.4,0.4-0.6,1-0.4,1.6s0.6,1,1.2,1.1c0.1,0,0.9,0.2,2.3,0.2
	c2.1,0,5.5-0.4,9.7-2.6l7.2-3.6v9.7c0,2.7-0.5,7.4,5.6,10.2c0.2,0.1,0.4,0.1,0.6,0.1c0.6,0,1.2-0.3,1.4-0.9c0.4-0.8,0-1.7-0.8-2.1
	c-4.2-2-4.7-4.7-4.7-7.3v-9.8l7.3,3.8c3.7,2.4,6.9,2.9,8.9,2.9s3.3-0.5,3.4-0.5c0.5-0.2,0.9-0.7,1-1.2s0-1.1-0.4-1.5
	c-2.9-3.1-6.2-6.9-7.6-8.9c4.4-1,13.2-4,15.2-4.7c0.6-0.2,1-0.7,1.1-1.4c0.1-0.6-0.2-1.2-0.8-1.6c-0.8-0.5-2.6-1.2-4.1-1.7
	c1.9-3.5,6.3-8,8-9.7c0.3-0.3,0.6-0.8,0.6-1.3C132.8,2.9,132,2.1,131.1,2.1z"/>
<g id="christmas">
	<path id="snowflake_winter_christmas" class="st0" d="M148.8,55.4v-8.1l-9.2-9.2c-1.1-1.1-1.1-3,0-4.1c1.2-1.2,3-1.2,4.1,0l5,5
		v-4.7c0-1.6,1.3-2.9,2.9-2.9s2.9,1.3,2.9,2.9V39l5-5c1.1-1.1,3-1.1,4.1,0s1.1,3,0,4.1l-9.2,9.2v8.1c1,0.4,2,0.9,2.8,1.6l7-4
		l3.4-12.5c0.4-1.5,2-2.5,3.6-2c1.6,0.4,2.5,2,2.1,3.6l-1.8,6.9l4-2.3c1.4-0.8,3.2-0.3,4,1.1c0.8,1.4,0.3,3.2-1.1,4l-4,2.3l6.9,1.8
		c1.5,0.4,2.5,2,2,3.6c-0.4,1.6-2,2.5-3.6,2.1l-12.3-3.5l-7,4.1c0.1,0.5,0.1,1,0.1,1.6s-0.1,1.1-0.2,1.7l7.1,4.1l12.5-3.4
		c1.5-0.4,3.1,0.5,3.6,2.1c0.4,1.6-0.5,3.2-2,3.6l-6.9,1.8l4,2.3c1.4,0.8,1.9,2.6,1.1,4c-0.8,1.4-2.6,1.9-4,1.1l-4-2.3l1.8,6.9
		c0.4,1.5-0.5,3.1-2.1,3.6c-1.6,0.4-3.2-0.5-3.6-2l-3.4-12.5l-7.1-4.1c-0.8,0.7-1.7,1.2-2.7,1.6v8.2l9.2,9.2c1.1,1.1,1.1,3,0,4.1
		c-1.2,1.2-3,1.2-4.1,0l-5-5v4.3c0,1.6-1.3,2.9-2.9,2.9s-2.9-1.3-2.9-2.9v-4.7l-5,5c-1.1,1.1-3,1.1-4.1,0s-1.1-3,0-4.1l9.2-9.2v-8.2
		c-1-0.4-1.9-0.9-2.7-1.6l-7.1,4.1l-3.4,12.5c-0.4,1.5-2,2.5-3.6,2c-1.6-0.4-2.5-2-2.1-3.6l1.8-6.9l-4,2.3c-1.4,0.8-3.2,0.3-4-1.1
		s-0.3-3.2,1.1-4l4-2.3l-6.9-1.8c-1.5-0.4-2.5-2-2-3.6c0.4-1.6,2-2.5,3.6-2.1l12.5,3.4l7.1-4.1c-0.1-0.5-0.2-1.1-0.2-1.7
		c0-0.5,0-1,0.1-1.6l-7-4.1l-12.5,3.4c-1.5,0.4-3.1-0.5-3.6-2.1c-0.4-1.6,0.5-3.2,2-3.6l6.9-1.8l-4-2.3c-1.4-0.8-1.9-2.6-1.1-4
		s2.6-1.9,4-1.1l4,2.3l-1.8-6.9c-0.4-1.5,0.5-3.1,2.1-3.6c1.6-0.4,3.2,0.5,3.6,2l3.4,12.5l7,4C146.8,56.3,147.8,55.8,148.8,55.4z"/>
</g>
</svg>
