<?xml version="1.0" encoding="utf-8"?>
<!-- Generator: Adobe Illustrator 19.0.0, SVG Export Plug-In . SVG Version: 6.00 Build 0)  -->
<svg version="1.1" id="Layer_1" xmlns="http://www.w3.org/2000/svg" xmlns:xlink="http://www.w3.org/1999/xlink" x="0px" y="0px"
	 viewBox="43.2 -37.1 156.2 156.2" style="enable-background:new 43.2 -37.1 156.2 156.2;" xml:space="preserve">
<style type="text/css">
	.st0{fill:none;stroke:#FFFFFF;stroke-width:7;stroke-miterlimit:10;}
	.st1{fill:#FFFFFF;}
</style>
<path class="st0" d="M178.8,115.6H63.7c-9.4,0-17-7.6-17-17V-16.6c0-9.4,7.6-17,17-17h115.2c9.4,0,17,7.6,17,17V98.6
	C195.8,108,188.2,115.6,178.8,115.6z"/>
<g id="christmas_1_">
	<path id="snowflake_winter_christmas_1_" class="st1" d="M115.1,24.7V9.3L97.7-8.1c-2.1-2.1-2.1-5.7,0-7.8c2.2-2.2,5.7-2.2,7.8,0
		l9.5,9.5v-8.8c0-3.1,2.5-5.5,5.6-5.5s5.6,2.5,5.6,5.5v8.8l9.5-9.5c2.2-2.2,5.6-2.2,7.8,0s2.2,5.7,0,7.8L126.3,9.3v15.3
		c2,0.7,3.8,1.8,5.4,3.1L145,20l6.4-23.8c0.8-2.9,3.8-4.7,6.8-3.9c3,0.8,4.7,3.8,3.9,6.8l-3.5,13l7.7-4.4c2.7-1.5,6-0.6,7.6,2
		c1.5,2.7,0.6,6.1-2,7.6l-7.7,4.4l13,3.5c2.9,0.8,4.7,3.8,3.9,6.8s-3.9,4.7-6.8,3.9l-23.8-6.4l-13.4,7.7c0.2,1,0.3,1.9,0.3,2.9
		c0,1.1-0.1,2.1-0.3,3.2l13.4,7.7l23.8-6.4c2.9-0.8,6,1,6.8,3.9c0.8,3-0.9,6-3.9,6.8l-13,3.5l7.7,4.4c2.7,1.5,3.5,4.9,2,7.6
		s-4.9,3.6-7.6,2l-7.7-4.4l3.5,13c0.8,2.9-1,6-3.9,6.8c-3,0.8-6-1-6.8-3.9L145,60.5l-13.5-7.8c-1.5,1.3-3.3,2.3-5.2,3v15.6
		l17.4,17.4c2.1,2.1,2.1,5.7,0,7.8c-2.2,2.2-5.7,2.2-7.8,0l-9.5-9.5v8.8c0,3.1-2.5,5.5-5.6,5.5s-5.6-2.5-5.6-5.5V87l-9.5,9.5
		c-2.2,2.2-5.6,2.2-7.8,0c-2.2-2.2-2.2-5.7,0-7.8l17.4-17.4V56.1c-1.9-0.7-3.7-1.7-5.2-3l-13.5,7.8l-6.4,23.8
		c-0.8,2.9-3.8,4.7-6.8,3.9c-3-0.8-4.7-3.8-3.9-6.8l3.5-13l-7.7,4.4c-2.7,1.5-6,0.6-7.6-2c-1.5-2.7-0.6-6.1,2-7.6l7.7-4.4l-13-3.5
		c-2.9-0.8-4.7-3.8-3.9-6.8c0.8-3,3.9-4.7,6.8-3.9l23.8,6.4l13.4-7.7c-0.2-1-0.3-2.1-0.3-3.2c0-1,0.1-2,0.3-2.9l-13.4-7.7l-23.8,6.4
		c-2.9,0.8-6-1-6.8-3.9c-0.8-3,0.9-6,3.9-6.8l13-3.5l-7.7-4.7c-2.7-1.5-3.5-4.9-2-7.6s4.9-3.6,7.6-2l7.7,4.4l-3.5-13
		c-0.8-2.9,1-6,3.9-6.8c3-0.8,6,1,6.8,3.9l6.4,23.8l13.3,7.7C111.3,26.4,113.2,25.4,115.1,24.7z"/>
</g>
</svg>
