<?xml version="1.0" encoding="utf-8"?>
<!-- Generator: Adobe Illustrator 19.0.0, SVG Export Plug-In . SVG Version: 6.00 Build 0)  -->
<svg version="1.1" id="Layer_1" xmlns="http://www.w3.org/2000/svg" xmlns:xlink="http://www.w3.org/1999/xlink" x="0px" y="0px" width="160px" height="160px"
	 viewBox="45 -45 160 160" style="enable-background:new 45 -45 160 160;" xml:space="preserve">
<style type="text/css">
	.st0{fill:#333333;}
</style>
<path class="st0" d="M90,114.9h30v-15H90V114.9z M90-30.1h30v-15H90V-30.1z M65-45.1c-11.1,0-20,9-20,20V-10h15v-10.1
	c0-5.5,4.5-10,10-10h9.9l-0.1-15H65z M60,89.9V79.8H45v15.1c0,11.1,9,20,20,20h14.9l0.1-15H70C64.4,99.9,60,95.4,60,89.9z M60-0.1
	H45v30h15V-0.1z M130,114.9h30v-15h-30V114.9z M185-45.1h-14.9l-0.1,15h9.9c5.5,0,10,4.5,10,10v10h15v-15
	C205-36.2,196-45.1,185-45.1z M190,29.9h15v-30h-15V29.9L190,29.9z M190,89.9c0,5.5-4.5,10-10,10h-9.9l0.1,15H185c11.1,0,20-9,20-20
	V79.8h-15V89.9L190,89.9z M130-30.1h30v-15h-30V-30.1z M190,69.9h15v-30h-15V69.9L190,69.9z M60,39.9H45v30h15V39.9z"/>
<path class="st0" d="M120.7-5.3L120.7-5.3L120.7-5.3L120.7-5.3c-3.4,0-8.7,2.1-11.4,3.1l-0.5-2.5c-0.1-0.5-0.5-0.9-1-1
	c-0.1,0-0.3-0.1-0.4-0.1c-0.3,0-0.8,0.2-1,0.4l-5.9,6.2l4-18.2c0.2-0.6-0.2-1.2-0.7-1.5c-0.3-0.2-0.4-0.2-0.7-0.2
	c-0.3,0-0.7,0.1-0.9,0.3L99-16l-4.5-11.5c-0.2-0.5-0.8-1.1-1.3-1.1l0,0c-0.6,0-1.1,0.5-1.3,1.1L87.4-16l-3.1-2.7
	c-0.3-0.3-0.6-0.3-0.9-0.3c-0.3,0-0.5,0.1-0.7,0.2c-0.5,0.3-0.8,0.9-0.7,1.5l4,18.2L80-5.4c-0.3-0.3-0.7-0.4-1-0.4
	c-0.2,0-0.3,0-0.4,0.1c-0.5,0.2-0.9,0.5-1,1l-0.5,2.5c-2.7-1-8-3.1-11.4-3.1l0,0c-0.6,0-1.1,0.3-1.3,0.9c-0.3,0.5-0.1,1.2,0.3,1.5
	c1.5,1.4,5.3,5.3,7,8.3c-1.3,0.4-2.8,1-3.5,1.5c-0.4,0.3-0.7,0.9-0.7,1.4c0.1,0.5,0.4,1,0.9,1.2c1.7,0.6,9.4,3.3,13.1,4
	c-1.2,1.7-4,5-6.5,7.7c-0.3,0.3-0.5,0.9-0.3,1.4c0.2,0.5,0.5,0.9,1,0.9c0.1,0,0.8,0.2,2,0.2c1.8,0,4.7-0.3,8.3-2.2l6.2-3.1v8.3
	c0,2.3-0.4,6.4,4.8,8.8c0.2,0.1,0.3,0.1,0.5,0.1c0.5,0,1-0.3,1.2-0.8c0.3-0.7,0-1.5-0.7-1.8c-3.6-1.7-4-4-4-6.3v-8.4l6.3,3.3
	c3.2,2.1,5.9,2.5,7.7,2.5c1.7,0,2.8-0.4,2.9-0.4c0.4-0.2,0.8-0.6,0.9-1c0.1-0.4,0-0.9-0.3-1.3c-2.5-2.7-5.3-5.9-6.5-7.7
	c3.8-0.9,11.4-3.4,13.1-4c0.5-0.2,0.9-0.6,0.9-1.2c0.1-0.5-0.2-1-0.7-1.4c-0.7-0.4-2.2-1-3.5-1.5c1.6-3,5.4-6.9,6.9-8.3
	c0.3-0.3,0.5-0.7,0.5-1.1C122.1-4.6,121.4-5.3,120.7-5.3z"/>
<path class="st0" d="M158.3,47.8v-7.7h-3.8v7.7c0.6-0.1,1.3-0.1,1.9-0.1S157.7,47.7,158.3,47.8z M147.6,49.7l-3.9-6.7l-3.3,1.9
	l3.9,6.7C145.3,50.8,146.4,50.2,147.6,49.7z M172.4,44.9l-3.3-1.9l-3.9,6.7c1.2,0.5,2.3,1.2,3.3,1.9L172.4,44.9z M139.3,56.6
	l-6.7-3.9l-1.9,3.3l6.7,3.9C137.9,58.7,138.5,57.6,139.3,56.6z M156.4,51.5c-9.5,0-17.2,7.7-17.2,17.2s7.7,17.2,17.2,17.2
	s17.2-7.7,17.2-17.2S165.9,51.5,156.4,51.5z M182.2,56l-1.9-3.3l-6.7,3.9c0.7,1,1.4,2.1,1.9,3.3L182.2,56z M165.2,87.8l3.9,6.7
	l3.3-1.9l-3.9-6.7C167.5,86.6,166.4,87.2,165.2,87.8z M173.5,80.8l6.7,3.9l1.9-3.3l-6.7-3.9C174.9,78.7,174.3,79.8,173.5,80.8z
	 M177.3,66.8c0.1,0.6,0.1,1.3,0.1,1.9c0,0.6,0,1.3-0.1,1.9h7.7v-3.8H177.3z M154.5,89.6v7.7h3.8v-7.7c-0.6,0.1-1.3,0.1-1.9,0.1
	S155.1,89.7,154.5,89.6z M140.4,92.6l3.3,1.9l3.9-6.7c-1.2-0.5-2.3-1.2-3.3-1.9L140.4,92.6z M135.4,68.7c0-0.6,0-1.3,0.1-1.9h-7.7
	v3.8h7.7C135.4,70,135.4,69.4,135.4,68.7z M130.6,81.4l1.9,3.3l6.7-3.9c-0.7-1-1.4-2.1-1.9-3.3L130.6,81.4z"/>
<g id="christmas">
	<path id="snowflake_winter_christmas" class="st0" d="M154.8-3.9v-7.2l-8.2-8.2c-1-1-1-2.7,0-3.7c1.1-1.1,2.7-1.1,3.7,0l4.5,4.5
		v-4.2c0-1.4,1.2-2.6,2.6-2.6s2.6,1.2,2.6,2.6v4.2l4.5-4.5c1-1,2.7-1,3.7,0s1,2.7,0,3.7l-8.2,8.2v7.2c0.9,0.4,1.8,0.8,2.5,1.4
		l6.2-3.6l3-11.2c0.4-1.3,1.8-2.2,3.2-1.8c1.4,0.4,2.2,1.8,1.9,3.2L175-9.6l3.6-2.1c1.2-0.7,2.9-0.3,3.6,1c0.7,1.2,0.3,2.9-1,3.6
		l-3.6,2.1l6.2,1.6c1.3,0.4,2.2,1.8,1.8,3.2c-0.4,1.4-1.8,2.2-3.2,1.9l-11-3.1l-6.2,3.7c0.1,0.4,0.1,0.9,0.1,1.4s-0.1,1-0.2,1.5
		l6.3,3.7l11.2-3c1.3-0.4,2.8,0.4,3.2,1.9c0.4,1.4-0.4,2.9-1.8,3.2l-6.2,1.6l3.6,2.1c1.2,0.7,1.7,2.3,1,3.6s-2.3,1.7-3.6,1l-3.6-2.1
		l1.6,6.2c0.4,1.3-0.4,2.8-1.9,3.2c-1.4,0.4-2.9-0.4-3.2-1.8l-3-11.2l-6.3-3.7c-0.7,0.6-1.5,1.1-2.4,1.4v7.3l8.2,8.2
		c1,1,1,2.7,0,3.7c-1.1,1.1-2.7,1.1-3.7,0l-4.5-4.5v3.8c0,1.4-1.2,2.6-2.6,2.6c-1.4,0-2.6-1.2-2.6-2.6v-4.2l-4.5,4.5
		c-1,1-2.7,1-3.7,0c-1-1-1-2.7,0-3.7l8.2-8.2v-7.3c-0.9-0.4-1.7-0.8-2.4-1.4l-6.3,3.7l-3,11.2c-0.4,1.3-1.8,2.2-3.2,1.8
		c-1.4-0.4-2.2-1.8-1.9-3.2l1.6-6.2l-3.6,2.1c-1.2,0.7-2.9,0.3-3.6-1s-0.3-2.9,1-3.6l3.6-2.1l-6.2-1.6c-1.3-0.4-2.2-1.8-1.8-3.2
		c0.4-1.4,1.8-2.2,3.2-1.9l11.2,3l6.3-3.7c-0.1-0.4-0.2-1-0.2-1.5c0-0.4,0-0.9,0.1-1.4l-6.2-3.7l-11.2,3c-1.3,0.4-2.8-0.4-3.2-1.9
		c-0.4-1.4,0.4-2.9,1.8-3.2l6.2-1.6l-3.6-2.1c-1.2-0.7-1.7-2.3-1-3.6c0.7-1.2,2.3-1.7,3.6-1l3.6,2.1l-1.6-6.2
		c-0.4-1.3,0.4-2.8,1.9-3.2c1.4-0.4,2.9,0.4,3.2,1.8l3,11.2l6.2,3.6C153-3.1,153.9-3.5,154.8-3.9z"/>
</g>
<g>
	<path class="st0" d="M113,62.2c-2,0-4,0.2-5.8,0.6c1.6-1.1,3.1-2.3,4.4-3.7c7.8-7.7-1.3-16.8-9-9c-1.4,1.4-2.6,3-3.7,4.4
		c0.4-1.8,0.6-3.7,0.6-5.8c0-11-12.8-11-12.8,0c0,2,0.2,4,0.6,5.8c-1.1-1.6-2.3-3.1-3.7-4.4c-7.8-7.8-16.9,1.3-9.1,9
		c1.4,1.4,3,2.6,4.4,3.7c-1.8-0.4-3.7-0.6-5.8-0.6c-11,0-11,12.8,0,12.8c2,0,4-0.2,5.8-0.6c-1.6,1.1-3.1,2.3-4.4,3.7
		c-7.8,7.8,1.3,16.9,9,9.1c1.4-1.4,2.6-3,3.7-4.4c-0.4,1.8-0.6,3.7-0.6,5.8c0,11,12.8,11,12.8,0c0-2-0.2-4-0.6-5.8
		c1.1,1.6,2.3,3.1,3.7,4.4c7.8,7.8,16.9-1.3,9.1-9c-1.4-1.4-3-2.6-4.4-3.7c1.8,0.4,3.7,0.6,5.8,0.6C124,75.2,124,62.2,113,62.2z
		 M88.1,64c2.9-2.9,7.7-2.9,10.5,0c2.8,2.8,2.9,6.9,0.6,9.9c-1.3,1.6-3.4,2.5-5.5,2.5c-4.2,0-7.5-3.4-7.5-7.5c0-1.8,0.6-3.4,1.7-4.7
		C87.9,64.2,87.9,64,88.1,64z"/>
</g>
</svg>
