<?xml version="1.0" encoding="utf-8"?>
<!-- Generator: Adobe Illustrator 19.0.0, SVG Export Plug-In . SVG Version: 6.00 Build 0)  -->
<svg version="1.1" id="Layer_1" xmlns="http://www.w3.org/2000/svg" xmlns:xlink="http://www.w3.org/1999/xlink" x="0px" y="0px"
	 viewBox="43.2 -37.1 156.2 156.2" style="enable-background:new 43.2 -37.1 156.2 156.2;" xml:space="preserve">
<style type="text/css">
	.st0{fill:none;stroke:#FFFFFF;stroke-width:7;stroke-miterlimit:10;}
	.st1{fill:#FFFFFF;}
</style>
<path class="st0" d="M178.8,115.6H63.7c-9.4,0-17-7.6-17-17V-16.6c0-9.4,7.6-17,17-17h115.2c9.4,0,17,7.6,17,17V98.6
	C195.8,108,188.2,115.6,178.8,115.6z"/>
<path class="st1" d="M118.9,2.7L118.9,2.7L118.9,2.7L118.9,2.7c-3.4,0-8.7,2.1-11.4,3.1L107,3.3c-0.1-0.5-0.5-0.9-1-1
	c-0.1,0-0.3-0.1-0.4-0.1c-0.3,0-0.8,0.2-1,0.4l-5.9,6.2l4-18.2c0.2-0.6-0.2-1.2-0.7-1.5c-0.3-0.2-0.4-0.2-0.7-0.2
	c-0.3,0-0.7,0.1-0.9,0.3L97.2-8l-4.5-11.5c-0.2-0.5-0.8-1.1-1.3-1.1l0,0c-0.6,0-1.1,0.5-1.3,1.1L85.6-8l-3.1-2.7
	C82.2-11,81.9-11,81.6-11s-0.5,0.1-0.7,0.2c-0.5,0.3-0.8,0.9-0.7,1.5l4,18.2l-6-6.3c-0.3-0.3-0.7-0.4-1-0.4c-0.2,0-0.3,0-0.4,0.1
	c-0.5,0.2-0.9,0.5-1,1l-0.5,2.5c-2.7-1-8-3.1-11.4-3.1l0,0c-0.6,0-1.1,0.3-1.3,0.9c-0.3,0.5-0.1,1.2,0.3,1.5c1.5,1.4,5.3,5.3,7,8.3
	c-1.3,0.4-2.8,1-3.5,1.5c-0.4,0.3-0.7,0.9-0.7,1.4c0.1,0.5,0.4,1,0.9,1.2c1.7,0.6,9.4,3.3,13.1,4c-1.2,1.7-4,5-6.5,7.7
	c-0.3,0.3-0.5,0.9-0.3,1.4s0.5,0.9,1,0.9c0.1,0,0.8,0.2,2,0.2c1.8,0,4.7-0.3,8.3-2.2l6.2-3.1v8.3c0,2.3-0.4,6.4,4.8,8.8
	c0.2,0.1,0.3,0.1,0.5,0.1c0.5,0,1-0.3,1.2-0.8c0.3-0.7,0-1.5-0.7-1.8c-3.6-1.7-4-4-4-6.3v-8.4l6.3,3.3c3.2,2.1,5.9,2.5,7.7,2.5
	c1.7,0,2.8-0.4,2.9-0.4c0.4-0.2,0.8-0.6,0.9-1s0-0.9-0.3-1.3c-2.5-2.7-5.3-5.9-6.5-7.7c3.8-0.9,11.4-3.4,13.1-4
	c0.5-0.2,0.9-0.6,0.9-1.2c0.1-0.5-0.2-1-0.7-1.4c-0.7-0.4-2.2-1-3.5-1.5c1.6-3,5.4-6.9,6.9-8.3c0.3-0.3,0.5-0.7,0.5-1.1
	C120.3,3.4,119.6,2.7,118.9,2.7z"/>
<path class="st1" d="M156.5,55.8v-7.7h-3.8v7.7c0.6-0.1,1.3-0.1,1.9-0.1S155.9,55.7,156.5,55.8z M145.8,57.7l-3.9-6.7l-3.3,1.9
	l3.9,6.7C143.5,58.8,144.6,58.2,145.8,57.7z M170.6,52.9l-3.3-1.9l-3.9,6.7c1.2,0.5,2.3,1.2,3.3,1.9L170.6,52.9z M137.5,64.6
	l-6.7-3.9l-1.9,3.3l6.7,3.9C136.1,66.7,136.7,65.6,137.5,64.6z M154.6,59.5c-9.5,0-17.2,7.7-17.2,17.2s7.7,17.2,17.2,17.2
	s17.2-7.7,17.2-17.2S164.1,59.5,154.6,59.5z M180.4,64l-1.9-3.3l-6.7,3.9c0.7,1,1.4,2.1,1.9,3.3L180.4,64z M163.4,95.8l3.9,6.7
	l3.3-1.9l-3.9-6.7C165.7,94.6,164.6,95.2,163.4,95.8z M171.7,88.8l6.7,3.9l1.9-3.3l-6.7-3.9C173.1,86.7,172.5,87.8,171.7,88.8z
	 M175.5,74.8c0.1,0.6,0.1,1.3,0.1,1.9s0,1.3-0.1,1.9h7.7v-3.8H175.5z M152.7,97.6v7.7h3.8v-7.7c-0.6,0.1-1.3,0.1-1.9,0.1
	S153.3,97.7,152.7,97.6z M138.6,100.6l3.3,1.9l3.9-6.7c-1.2-0.5-2.3-1.2-3.3-1.9L138.6,100.6z M133.6,76.7c0-0.6,0-1.3,0.1-1.9H126
	v3.8h7.7C133.6,78,133.6,77.4,133.6,76.7z M128.8,89.4l1.9,3.3l6.7-3.9c-0.7-1-1.4-2.1-1.9-3.3L128.8,89.4z"/>
<g id="christmas">
	<path id="snowflake_winter_christmas" class="st1" d="M153,4.1v-7.2l-8.2-8.2c-1-1-1-2.7,0-3.7c1.1-1.1,2.7-1.1,3.7,0l4.5,4.5v-4.2
		c0-1.4,1.2-2.6,2.6-2.6s2.6,1.2,2.6,2.6v4.2l4.5-4.5c1-1,2.7-1,3.7,0s1,2.7,0,3.7l-8.2,8.2v7.2c0.9,0.4,1.8,0.8,2.5,1.4l6.2-3.6
		l3-11.2c0.4-1.3,1.8-2.2,3.2-1.8c1.4,0.4,2.2,1.8,1.9,3.2l-1.8,6.3l3.6-2.1c1.2-0.7,2.9-0.3,3.6,1c0.7,1.2,0.3,2.9-1,3.6L175.8,3
		l6.2,1.6c1.3,0.4,2.2,1.8,1.8,3.2s-1.8,2.2-3.2,1.9l-11-3.1l-6.2,3.7c0.1,0.4,0.1,0.9,0.1,1.4s-0.1,1-0.2,1.5l6.3,3.7l11.2-3
		c1.3-0.4,2.8,0.4,3.2,1.9c0.4,1.4-0.4,2.9-1.8,3.2l-6.2,1.6l3.6,2.1c1.2,0.7,1.7,2.3,1,3.6s-2.3,1.7-3.6,1l-3.6-2.1l1.6,6.2
		c0.4,1.3-0.4,2.8-1.9,3.2c-1.4,0.4-2.9-0.4-3.2-1.8l-3-11.2l-6.3-3.7c-0.7,0.6-1.5,1.1-2.4,1.4v7.3l8.2,8.2c1,1,1,2.7,0,3.7
		c-1.1,1.1-2.7,1.1-3.7,0l-4.5-4.5v3.8c0,1.4-1.2,2.6-2.6,2.6c-1.4,0-2.6-1.2-2.6-2.6v-4.2l-4.5,4.5c-1,1-2.7,1-3.7,0s-1-2.7,0-3.7
		l8.2-8.2v-7.3c-0.9-0.4-1.7-0.8-2.4-1.4l-6.3,3.7l-3,11.2c-0.4,1.3-1.8,2.2-3.2,1.8c-1.4-0.4-2.2-1.8-1.9-3.2l1.6-6.2l-3.6,2.1
		c-1.2,0.7-2.9,0.3-3.6-1s-0.3-2.9,1-3.6l3.6-2.1l-6.2-1.6c-1.3-0.4-2.2-1.8-1.8-3.2s1.8-2.2,3.2-1.9l11.2,3l6.3-3.7
		c-0.1-0.4-0.2-1-0.2-1.5c0-0.4,0-0.9,0.1-1.4l-6.2-3.7l-11.2,3c-1.3,0.4-2.8-0.4-3.2-1.9c-0.4-1.4,0.4-2.9,1.8-3.2l6.2-1.6
		l-3.6-2.1c-1.2-0.7-1.7-2.3-1-3.6c0.7-1.2,2.3-1.7,3.6-1l3.6,2.1l-1.6-6.2c-0.4-1.3,0.4-2.8,1.9-3.2c1.4-0.4,2.9,0.4,3.2,1.8
		l3,11.2l6.2,3.6C151.2,4.9,152.1,4.5,153,4.1z"/>
</g>
<g>
	<path class="st1" d="M111.2,70.2c-2,0-4,0.2-5.8,0.6c1.6-1.1,3.1-2.3,4.4-3.7c7.8-7.7-1.3-16.8-9-9c-1.4,1.4-2.6,3-3.7,4.4
		c0.4-1.8,0.6-3.7,0.6-5.8c0-11-12.8-11-12.8,0c0,2,0.2,4,0.6,5.8c-1.1-1.6-2.3-3.1-3.7-4.4c-7.8-7.8-16.9,1.3-9.1,9
		c1.4,1.4,3,2.6,4.4,3.7c-1.8-0.4-3.7-0.6-5.8-0.6c-11,0-11,12.8,0,12.8c2,0,4-0.2,5.8-0.6c-1.6,1.1-3.1,2.3-4.4,3.7
		c-7.8,7.8,1.3,16.9,9,9.1c1.4-1.4,2.6-3,3.7-4.4c-0.4,1.8-0.6,3.7-0.6,5.8c0,11,12.8,11,12.8,0c0-2-0.2-4-0.6-5.8
		c1.1,1.6,2.3,3.1,3.7,4.4c7.8,7.8,16.9-1.3,9.1-9c-1.4-1.4-3-2.6-4.4-3.7c1.8,0.4,3.7,0.6,5.8,0.6
		C122.2,83.2,122.2,70.2,111.2,70.2z M86.3,72c2.9-2.9,7.7-2.9,10.5,0c2.8,2.8,2.9,6.9,0.6,9.9c-1.3,1.6-3.4,2.5-5.5,2.5
		c-4.2,0-7.5-3.4-7.5-7.5c0-1.8,0.6-3.4,1.7-4.7C86.1,72.2,86.1,72,86.3,72z"/>
</g>
</svg>
