<?xml version="1.0" encoding="utf-8"?>
<!-- Generator: Adobe Illustrator 19.0.0, SVG Export Plug-In . SVG Version: 6.00 Build 0)  -->
<svg version="1.1" id="Layer_1" xmlns="http://www.w3.org/2000/svg" xmlns:xlink="http://www.w3.org/1999/xlink" x="0px" y="0px"
	 viewBox="43.2 -37.1 156.2 156.2" style="enable-background:new 43.2 -37.1 156.2 156.2;" xml:space="preserve">
<style type="text/css">
	.st0{fill:none;stroke:#FFFFFF;stroke-width:7;stroke-miterlimit:10;}
	.st1{fill:#FFFFFF;}
</style>
<path class="st0" d="M178.8,115.6H63.7c-9.4,0-17-7.6-17-17V-16.6c0-9.4,7.6-17,17-17h115.2c9.4,0,17,7.6,17,17V98.6
	C195.8,108,188.2,115.6,178.8,115.6z"/>
<g id="christmas">
	<path id="snowflake_winter_christmas" class="st1" d="M144.7,62.3v-8.1l-9.2-9.2c-1.1-1.1-1.1-3,0-4.1c1.2-1.2,3-1.2,4.1,0l5,5
		v-4.7c0-1.6,1.3-2.9,2.9-2.9s2.9,1.3,2.9,2.9v4.7l5-5c1.1-1.1,3-1.1,4.1,0s1.1,3,0,4.1l-9.2,9.2v8.1c1,0.4,2,0.9,2.8,1.6l7-4
		l3.4-12.5c0.4-1.5,2-2.5,3.6-2c1.6,0.4,2.5,2,2.1,3.6l-1.8,6.9l4-2.3c1.4-0.8,3.2-0.3,4,1.1c0.8,1.4,0.3,3.2-1.1,4l-4,2.3l6.9,1.8
		c1.5,0.4,2.5,2,2,3.6c-0.4,1.6-2,2.5-3.6,2.1L163.3,65l-7,4.1c0.1,0.5,0.1,1,0.1,1.6c0,0.6-0.1,1.1-0.2,1.7l7.1,4.1l12.5-3.4
		c1.5-0.4,3.1,0.5,3.6,2.1c0.4,1.6-0.5,3.2-2,3.6l-6.9,1.8l4,2.3c1.4,0.8,1.9,2.6,1.1,4c-0.8,1.4-2.6,1.9-4,1.1l-4-2.3l1.8,6.9
		c0.4,1.5-0.5,3.1-2.1,3.6c-1.6,0.4-3.2-0.5-3.6-2l-3.4-12.5l-7.1-4.1c-0.8,0.7-1.7,1.2-2.7,1.6v8.2l9.2,9.2c1.1,1.1,1.1,3,0,4.1
		c-1.2,1.2-3,1.2-4.1,0l-5-5v4.3c0,1.6-1.3,2.9-2.9,2.9s-2.9-1.3-2.9-2.9v-4.7l-5,5c-1.1,1.1-3,1.1-4.1,0s-1.1-3,0-4.1l9.2-9.2v-8.2
		c-1-0.4-1.9-0.9-2.7-1.6l-7.1,4.1l-3.4,12.5c-0.4,1.5-2,2.5-3.6,2c-1.6-0.4-2.5-2-2.1-3.6l1.8-6.9l-4,2.3c-1.4,0.8-3.2,0.3-4-1.1
		s-0.3-3.2,1.1-4l4-2.3l-6.9-1.8c-1.5-0.4-2.5-2-2-3.6c0.4-1.6,2-2.5,3.6-2.1l12.5,3.4l7.1-4.1c-0.1-0.5-0.2-1.1-0.2-1.7
		c0-0.5,0-1,0.1-1.6l-7-4.1L119.6,68c-1.5,0.4-3.1-0.5-3.6-2.1c-0.4-1.6,0.5-3.2,2-3.6l6.9-1.8l-4-2.3c-1.4-0.8-1.9-2.6-1.1-4
		s2.6-1.9,4-1.1l4,2.3l-1.8-6.9c-0.4-1.5,0.5-3.1,2.1-3.6c1.6-0.4,3.2,0.5,3.6,2l3.4,12.5l7,4C142.7,63.2,143.7,62.7,144.7,62.3z"/>
</g>
<g>
	<path class="st1" d="M119.4,7.9c-2.5,0-4.8,0.3-7,0.7c1.9-1.3,3.8-2.8,5.4-4.6c9.5-9.4-1.6-20.6-11-11c-1.8,1.8-3.2,3.7-4.6,5.4
		c0.4-2.2,0.7-4.6,0.7-7c0-13.5-15.7-13.5-15.7,0c0,2.5,0.3,4.8,0.7,7c-1.3-1.9-2.8-3.8-4.6-5.4c-9.5-9.5-20.7,1.6-11.2,11
		c1.8,1.8,3.7,3.2,5.4,4.6c-2.2-0.4-4.6-0.7-7-0.7c-13.5,0-13.5,15.7,0,15.7c2.5,0,4.8-0.3,7-0.7c-1.9,1.3-3.8,2.8-5.4,4.6
		c-9.5,9.5,1.6,20.7,11,11.2c1.8-1.8,3.2-3.7,4.6-5.4c-0.4,2.2-0.7,4.6-0.7,7c0,13.5,15.7,13.5,15.7,0c0-2.5-0.3-4.8-0.7-7
		c1.3,1.9,2.8,3.8,4.6,5.4c9.5,9.5,20.7-1.6,11.2-11c-1.8-1.8-3.7-3.2-5.4-4.6c2.2,0.4,4.6,0.7,7,0.7
		C132.9,23.7,132.9,7.9,119.4,7.9z M88.8,10.1c3.5-3.5,9.4-3.5,12.9,0c3.4,3.4,3.5,8.5,0.7,12.2c-1.6,1.9-4.1,3.1-6.8,3.1
		c-5.1,0-9.2-4.1-9.2-9.2c0-2.2,0.7-4.1,2.1-5.7C88.7,10.2,88.7,10.1,88.8,10.1z"/>
</g>
</svg>
