<?xml version="1.0" encoding="utf-8"?>
<!-- Generator: Adobe Illustrator 19.0.0, SVG Export Plug-In . SVG Version: 6.00 Build 0)  -->
<svg version="1.1" id="Layer_1" xmlns="http://www.w3.org/2000/svg" xmlns:xlink="http://www.w3.org/1999/xlink" x="0px" y="0px" width="160px" height="160px"
	 viewBox="45 -45 160 160" style="enable-background:new 45 -45 160 160;" xml:space="preserve">
<style type="text/css">
	.st0{fill:#333333;}
</style>
<path class="st0" d="M90,114.9h30v-15H90V114.9z M90-30.1h30v-15H90V-30.1z M65-45.1c-11.1,0-20,9-20,20V-10h15v-10.1
	c0-5.5,4.5-10,10-10h9.9l-0.1-15H65z M60,89.9V79.8H45v15.1c0,11.1,9,20,20,20h14.9l0.1-15H70C64.4,99.9,60,95.4,60,89.9z M60-0.1
	H45v30h15V-0.1z M130,114.9h30v-15h-30V114.9z M185-45.1h-14.9l-0.1,15h9.9c5.5,0,10,4.5,10,10v10h15v-15
	C205-36.2,196-45.1,185-45.1z M190,29.9h15v-30h-15V29.9L190,29.9z M190,89.9c0,5.5-4.5,10-10,10h-9.9l0.1,15H185c11.1,0,20-9,20-20
	V79.8h-15V89.9L190,89.9z M130-30.1h30v-15h-30V-30.1z M190,69.9h15v-30h-15V69.9L190,69.9z M60,39.9H45v30h15V39.9z"/>
<g id="christmas">
	<path id="snowflake_winter_christmas" class="st0" d="M148.9,55.3v-8.1l-9.2-9.2c-1.1-1.1-1.1-3,0-4.1c1.2-1.2,3-1.2,4.1,0l5,5
		v-4.7c0-1.6,1.3-2.9,2.9-2.9c1.6,0,2.9,1.3,2.9,2.9v4.7l5-5c1.1-1.1,3-1.1,4.1,0c1.1,1.1,1.1,3,0,4.1l-9.2,9.2v8.1
		c1,0.4,2,0.9,2.8,1.6l7-4l3.4-12.5c0.4-1.5,2-2.5,3.6-2c1.6,0.4,2.5,2,2.1,3.6l-1.8,6.9l4-2.3c1.4-0.8,3.2-0.3,4,1.1
		c0.8,1.4,0.3,3.2-1.1,4l-4,2.3l6.9,1.8c1.5,0.4,2.5,2,2,3.6c-0.4,1.6-2,2.5-3.6,2.1L167.5,58l-7,4.1c0.1,0.5,0.1,1,0.1,1.6
		c0,0.6-0.1,1.1-0.2,1.7l7.1,4.1l12.5-3.4c1.5-0.4,3.1,0.5,3.6,2.1c0.4,1.6-0.5,3.2-2,3.6l-6.9,1.8l4,2.3c1.4,0.8,1.9,2.6,1.1,4
		c-0.8,1.4-2.6,1.9-4,1.1l-4-2.3l1.8,6.9c0.4,1.5-0.5,3.1-2.1,3.6c-1.6,0.4-3.2-0.5-3.6-2l-3.4-12.5l-7.1-4.1
		c-0.8,0.7-1.7,1.2-2.7,1.6v8.2l9.2,9.2c1.1,1.1,1.1,3,0,4.1c-1.2,1.2-3,1.2-4.1,0l-5-5V93c0,1.6-1.3,2.9-2.9,2.9
		c-1.6,0-2.9-1.3-2.9-2.9v-4.7l-5,5c-1.1,1.1-3,1.1-4.1,0c-1.1-1.1-1.1-3,0-4.1l9.2-9.2v-8.2c-1-0.4-1.9-0.9-2.7-1.6l-7.1,4.1
		l-3.4,12.5c-0.4,1.5-2,2.5-3.6,2c-1.6-0.4-2.5-2-2.1-3.6l1.8-6.9l-4,2.3c-1.4,0.8-3.2,0.3-4-1.1c-0.8-1.4-0.3-3.2,1.1-4l4-2.3
		l-6.9-1.8c-1.5-0.4-2.5-2-2-3.6c0.4-1.6,2-2.5,3.6-2.1l12.5,3.4l7.1-4.1c-0.1-0.5-0.2-1.1-0.2-1.7c0-0.5,0-1,0.1-1.6l-7-4.1
		l-12.5,3.4c-1.5,0.4-3.1-0.5-3.6-2.1c-0.4-1.6,0.5-3.2,2-3.6l6.9-1.8l-4-2.3c-1.4-0.8-1.9-2.6-1.1-4c0.8-1.4,2.6-1.9,4-1.1l4,2.3
		l-1.8-6.9c-0.4-1.5,0.5-3.1,2.1-3.6c1.6-0.4,3.2,0.5,3.6,2l3.4,12.5l7,4C146.9,56.2,147.9,55.7,148.9,55.3z"/>
</g>
<g>
	<path class="st0" d="M123.5,0.7c-2.5,0-4.8,0.3-7,0.7c1.9-1.3,3.8-2.8,5.4-4.6c9.5-9.4-1.6-20.6-11-11c-1.8,1.8-3.2,3.7-4.6,5.4
		c0.4-2.2,0.7-4.6,0.7-7c0-13.5-15.7-13.5-15.7,0c0,2.5,0.3,4.8,0.7,7c-1.3-1.9-2.8-3.8-4.6-5.4c-9.5-9.5-20.7,1.6-11.2,11
		c1.8,1.8,3.7,3.2,5.4,4.6c-2.2-0.4-4.6-0.7-7-0.7c-13.5,0-13.5,15.7,0,15.7c2.5,0,4.8-0.3,7-0.7c-1.9,1.3-3.8,2.8-5.4,4.6
		c-9.5,9.5,1.6,20.7,11,11.2c1.8-1.8,3.2-3.7,4.6-5.4c-0.4,2.2-0.7,4.6-0.7,7c0,13.5,15.7,13.5,15.7,0c0-2.5-0.3-4.8-0.7-7
		c1.3,1.9,2.8,3.8,4.6,5.4c9.5,9.5,20.7-1.6,11.2-11c-1.8-1.8-3.7-3.2-5.4-4.6c2.2,0.4,4.6,0.7,7,0.7C137,16.5,137,0.7,123.5,0.7z
		 M92.9,2.9c3.5-3.5,9.4-3.5,12.9,0c3.4,3.4,3.5,8.5,0.7,12.2c-1.6,1.9-4.1,3.1-6.8,3.1c-5.1,0-9.2-4.1-9.2-9.2
		c0-2.2,0.7-4.1,2.1-5.7C92.8,3,92.8,2.9,92.9,2.9z"/>
</g>
</svg>
