<?xml version="1.0" encoding="utf-8"?>
<!-- Generator: Adobe Illustrator 19.0.0, SVG Export Plug-In . SVG Version: 6.00 Build 0)  -->
<svg version="1.1" id="Layer_1" xmlns="http://www.w3.org/2000/svg" xmlns:xlink="http://www.w3.org/1999/xlink" x="0px" y="0px"
	 viewBox="43.2 -37.1 156.2 156.2" style="enable-background:new 43.2 -37.1 156.2 156.2;" xml:space="preserve">
<style type="text/css">
	.st0{fill:none;stroke:#FFFFFF;stroke-width:7;stroke-miterlimit:10;}
	.st1{fill:#FFFFFF;}
</style>
<path class="st0" d="M178.8,115.6H63.7c-9.4,0-17-7.6-17-17V-16.6c0-9.4,7.6-17,17-17h115.2c9.4,0,17,7.6,17,17V98.6
	C195.8,108,188.2,115.6,178.8,115.6z"/>
<path class="st1" d="M127.8,8L127.8,8L127.8,8L127.8,8c-4.1,0-10.5,2.5-13.8,3.8l-0.6-3c-0.1-0.6-0.6-1.1-1.3-1.3
	c-0.1,0-0.3-0.1-0.5-0.1c-0.4,0-0.9,0.2-1.3,0.5l-7.1,7.5l4.8-22c0.2-0.7-0.2-1.5-0.8-1.9c-0.3-0.2-0.5-0.2-0.8-0.2
	c-0.4,0-0.8,0.1-1.1,0.4L101.7-5l-5.4-14c-0.2-0.6-0.9-1.4-1.6-1.4l0,0c-0.7,0-1.4,0.6-1.6,1.4L87.6-5.1l-3.8-3.2
	c-0.3-0.3-0.7-0.4-1.1-0.4c-0.3,0-0.6,0.1-0.8,0.2c-0.6,0.4-0.9,1.1-0.8,1.9l4.8,22l-7.2-7.5c-0.3-0.3-0.8-0.5-1.3-0.5
	c-0.2,0-0.3,0-0.5,0.1c-0.6,0.2-1,0.6-1.3,1.3l-0.6,3C71.6,10.5,65.2,8,61.1,8l0,0c-0.7,0-1.4,0.4-1.6,1c-0.3,0.6-0.1,1.5,0.4,1.9
	c1.9,1.7,6.4,6.4,8.4,10.1c-1.6,0.5-3.4,1.3-4.3,1.8c-0.5,0.3-0.8,1-0.8,1.7c0.1,0.6,0.5,1.3,1.1,1.5c2.1,0.7,11.4,4,15.8,4.9
	c-1.5,2.1-4.9,6-7.9,9.3c-0.4,0.4-0.6,1-0.4,1.7c0.2,0.6,0.6,1,1.3,1.1c0.1,0,0.9,0.2,2.4,0.2c2.2,0,5.7-0.4,10.1-2.7l7.5-3.8v10.1
	c0,2.8-0.5,7.7,5.8,10.6c0.2,0.1,0.4,0.1,0.6,0.1c0.6,0,1.3-0.3,1.5-0.9c0.4-0.8,0-1.8-0.8-2.2c-4.4-2.1-4.9-4.9-4.9-7.6V36.6l7.6,4
	c3.9,2.5,7.2,3,9.3,3s3.4-0.5,3.5-0.5c0.5-0.2,0.9-0.7,1-1.3c0.1-0.5,0-1.1-0.4-1.6c-3-3.2-6.5-7.2-7.9-9.3c4.6-1,13.8-4.2,15.8-4.9
	c0.6-0.2,1-0.7,1.1-1.5c0.1-0.6-0.2-1.3-0.8-1.7c-0.8-0.5-2.7-1.3-4.3-1.8c2-3.6,6.6-8.3,8.3-10.1c0.3-0.3,0.6-0.8,0.6-1.4
	C129.6,8.9,128.8,8,127.8,8z"/>
<path class="st1" d="M149.3,41.4v-9.6h-4.7v9.6c0.8-0.1,1.6-0.1,2.4-0.1C147.8,41.2,148.6,41.3,149.3,41.4z M136.1,43.6l-4.8-8.3
	l-4.1,2.4L132,46C133.3,45.1,134.7,44.3,136.1,43.6z M166.7,37.7l-4.1-2.4l-4.8,8.3c1.4,0.7,2.8,1.4,4.1,2.4L166.7,37.7z
	 M125.8,52.2l-8.3-4.8l-2.4,4.1l8.3,4.8C124.1,54.9,124.9,53.5,125.8,52.2z M147,45.9c-11.7,0-21.2,9.5-21.2,21.2
	s9.5,21.2,21.2,21.2s21.2-9.5,21.2-21.2S158.7,45.9,147,45.9z M178.8,51.5l-2.4-4.1l-8.3,4.8c0.9,1.3,1.7,2.6,2.4,4.1L178.8,51.5z
	 M157.8,90.7l4.8,8.3l4.1-2.4l-4.8-8.3C160.6,89.2,159.3,90,157.8,90.7z M168.1,82.1l8.3,4.8l2.4-4.1l-8.3-4.8
	C169.8,79.5,169.1,80.8,168.1,82.1z M172.8,64.8c0.1,0.8,0.1,1.6,0.1,2.4s0,1.6-0.1,2.4h9.6v-4.7L172.8,64.8L172.8,64.8z M144.6,93
	v9.6h4.7V93c-0.8,0.1-1.6,0.1-2.4,0.1C146.2,93.1,145.4,93,144.6,93z M127.3,96.6l4.1,2.4l4.8-8.3c-1.4-0.7-2.8-1.4-4.1-2.4
	L127.3,96.6z M121,67.2c0-0.8,0-1.6,0.1-2.4h-9.5v4.7h9.5C121.1,68.7,121,68,121,67.2z M115.2,82.8l2.4,4.1l8.3-4.8
	c-0.9-1.3-1.7-2.6-2.4-4.1L115.2,82.8z"/>
</svg>
