<?xml version="1.0" encoding="utf-8"?>
<!-- Generator: Adobe Illustrator 19.0.0, SVG Export Plug-In . SVG Version: 6.00 Build 0)  -->
<svg version="1.1" id="Layer_1" xmlns="http://www.w3.org/2000/svg" xmlns:xlink="http://www.w3.org/1999/xlink" x="0px" y="0px" width="160px" height="160px"
	 viewBox="45 -45 160 160" style="enable-background:new 45 -45 160 160;" xml:space="preserve">
<style type="text/css">
	.st0{fill:#333333;}
</style>
<path class="st0" d="M90,114.9h30v-15H90V114.9z M90-30.1h30v-15H90V-30.1z M65-45.1c-11.1,0-20,9-20,20V-10h15v-10.1
	c0-5.5,4.5-10,10-10h9.9l-0.1-15H65z M60,89.9V79.8H45v15.1c0,11.1,9,20,20,20h14.9l0.1-15H70C64.4,99.9,60,95.4,60,89.9z M60-0.1
	H45v30h15V-0.1z M130,114.9h30v-15h-30V114.9z M185-45.1h-14.9l-0.1,15h9.9c5.5,0,10,4.5,10,10v10h15v-15
	C205-36.2,196-45.1,185-45.1z M190,29.9h15v-30h-15V29.9L190,29.9z M190,89.9c0,5.5-4.5,10-10,10h-9.9l0.1,15H185c11.1,0,20-9,20-20
	V79.8h-15V89.9L190,89.9z M130-30.1h30v-15h-30V-30.1z M190,69.9h15v-30h-15V69.9L190,69.9z M60,39.9H45v30h15V39.9z"/>
<g id="christmas">
	<path id="snowflake_winter_christmas" class="st0" d="M148.9,55.3v-8.1l-9.2-9.2c-1.1-1.1-1.1-3,0-4.1c1.2-1.2,3-1.2,4.1,0l5,5
		v-4.7c0-1.6,1.3-2.9,2.9-2.9c1.6,0,2.9,1.3,2.9,2.9v4.7l5-5c1.1-1.1,3-1.1,4.1,0c1.1,1.1,1.1,3,0,4.1l-9.2,9.2v8.1
		c1,0.4,2,0.9,2.8,1.6l7-4l3.4-12.5c0.4-1.5,2-2.5,3.6-2c1.6,0.4,2.5,2,2.1,3.6l-1.8,6.9l4-2.3c1.4-0.8,3.2-0.3,4,1.1
		c0.8,1.4,0.3,3.2-1.1,4l-4,2.3l6.9,1.8c1.5,0.4,2.5,2,2,3.6c-0.4,1.6-2,2.5-3.6,2.1L167.5,58l-7,4.1c0.1,0.5,0.1,1,0.1,1.6
		c0,0.6-0.1,1.1-0.2,1.7l7.1,4.1l12.5-3.4c1.5-0.4,3.1,0.5,3.6,2.1c0.4,1.6-0.5,3.2-2,3.6l-6.9,1.8l4,2.3c1.4,0.8,1.9,2.6,1.1,4
		c-0.8,1.4-2.6,1.9-4,1.1l-4-2.3l1.8,6.9c0.4,1.5-0.5,3.1-2.1,3.6c-1.6,0.4-3.2-0.5-3.6-2l-3.4-12.5l-7.1-4.1
		c-0.8,0.7-1.7,1.2-2.7,1.6v8.2l9.2,9.2c1.1,1.1,1.1,3,0,4.1c-1.2,1.2-3,1.2-4.1,0l-5-5V93c0,1.6-1.3,2.9-2.9,2.9
		c-1.6,0-2.9-1.3-2.9-2.9v-4.7l-5,5c-1.1,1.1-3,1.1-4.1,0c-1.1-1.1-1.1-3,0-4.1l9.2-9.2v-8.2c-1-0.4-1.9-0.9-2.7-1.6l-7.1,4.1
		l-3.4,12.5c-0.4,1.5-2,2.5-3.6,2c-1.6-0.4-2.5-2-2.1-3.6l1.8-6.9l-4,2.3c-1.4,0.8-3.2,0.3-4-1.1c-0.8-1.4-0.3-3.2,1.1-4l4-2.3
		l-6.9-1.8c-1.5-0.4-2.5-2-2-3.6c0.4-1.6,2-2.5,3.6-2.1l12.5,3.4l7.1-4.1c-0.1-0.5-0.2-1.1-0.2-1.7c0-0.5,0-1,0.1-1.6l-7-4.1
		l-12.5,3.4c-1.5,0.4-3.1-0.5-3.6-2.1c-0.4-1.6,0.5-3.2,2-3.6l6.9-1.8l-4-2.3c-1.4-0.8-1.9-2.6-1.1-4c0.8-1.4,2.6-1.9,4-1.1l4,2.3
		l-1.8-6.9c-0.4-1.5,0.5-3.1,2.1-3.6c1.6-0.4,3.2,0.5,3.6,2l3.4,12.5l7,4C146.9,56.2,147.9,55.7,148.9,55.3z"/>
</g>
<path class="st0" d="M102.4-17.2v-9.7h-4.8v9.7c0.8-0.1,1.6-0.1,2.4-0.1C100.9-17.3,101.7-17.3,102.4-17.2z M89-14.9l-4.9-8.4
	L80-20.9l4.9,8.4C86.2-13.4,87.6-14.2,89-14.9z M120.1-20.9l-4.1-2.4l-4.8,8.4c1.5,0.7,2.8,1.5,4.1,2.4L120.1-20.9z M78.6-6.2
	L70.2-11l-2.4,4.1L76.2-2C76.8-3.5,77.6-4.9,78.6-6.2z M100-12.6C88.1-12.6,78.5-2.9,78.5,9s9.6,21.5,21.5,21.5s21.5-9.6,21.5-21.5
	S111.9-12.6,100-12.6z M132.3-6.9l-2.4-4.1l-8.4,4.8c0.9,1.3,1.7,2.7,2.4,4.1L132.3-6.9z M111.1,32.9l4.9,8.4l4.1-2.4l-4.8-8.4
	C113.9,31.4,112.5,32.2,111.1,32.9z M121.5,24.2l8.4,4.8l2.4-4.1l-8.4-4.9C123.3,21.5,122.5,22.9,121.5,24.2z M126.3,6.6
	c0.1,0.8,0.1,1.6,0.1,2.4s-0.1,1.6-0.1,2.4h9.7V6.6H126.3z M97.7,35.2v9.7h4.8v-9.7c-0.8,0.1-1.6,0.1-2.4,0.1
	C99.2,35.3,98.4,35.3,97.7,35.2z M80,38.9l4.1,2.4l4.9-8.4c-1.5-0.7-2.8-1.5-4.1-2.4L80,38.9z M73.7,9c0-0.8,0.1-1.6,0.1-2.4h-9.7
	v4.8h9.7C73.8,10.6,73.7,9.8,73.7,9z M67.8,24.9l2.4,4.1l8.4-4.8c-0.9-1.3-1.7-2.7-2.4-4.1L67.8,24.9z"/>
</svg>
