<?xml version="1.0" encoding="utf-8"?>
<!-- Generator: Adobe Illustrator 19.0.0, SVG Export Plug-In . SVG Version: 6.00 Build 0)  -->
<svg version="1.1" id="Layer_1" xmlns="http://www.w3.org/2000/svg" xmlns:xlink="http://www.w3.org/1999/xlink" x="0px" y="0px"
	 viewBox="43.2 -37.1 156.2 156.2" style="enable-background:new 43.2 -37.1 156.2 156.2;" xml:space="preserve">
<style type="text/css">
	.st0{fill:none;stroke:#FFFFFF;stroke-width:7;stroke-miterlimit:10;}
	.st1{fill:#FFFFFF;}
</style>
<path class="st0" d="M178.8,115.6H63.7c-9.4,0-17-7.6-17-17V-16.6c0-9.4,7.6-17,17-17h115.2c9.4,0,17,7.6,17,17V98.6
	C195.8,108,188.2,115.6,178.8,115.6z"/>
<g>
	<path class="st1" d="M164,26.3c-4.4,0-8.6,0.5-12.5,1.3c3.4-2.3,6.8-5,9.7-8.1c17-16.7-2.9-36.5-19.6-19.6
		c-3.1,3.1-5.7,6.5-8.1,9.7c0.8-3.9,1.3-8.1,1.3-12.5c0-24-27.9-24-27.9,0c0,4.4,0.5,8.6,1.3,12.5c-2.3-3.4-5-6.8-8.1-9.7
		c-17-17-36.8,2.9-19.8,19.6c3.1,3.1,6.5,5.7,9.7,8.1c-3.9-0.8-8.1-1.3-12.5-1.3c-24,0-24,27.9,0,27.9c4.4,0,8.6-0.5,12.5-1.3
		c-3.4,2.3-6.8,5-9.7,8.1c-17,17,2.9,36.8,19.6,19.8c3.1-3.1,5.7-6.5,8.1-9.7c-0.8,3.9-1.3,8.1-1.3,12.5c0,24,27.9,24,27.9,0
		c0-4.4-0.5-8.6-1.3-12.5c2.3,3.4,5,6.8,8.1,9.7c17,17,36.8-2.9,19.8-19.6c-3.1-3.1-6.5-5.7-9.7-8.1c3.9,0.8,8.1,1.3,12.5,1.3
		C188,54.5,188,26.3,164,26.3z M109.7,30.2c6.3-6.3,16.7-6.3,23,0c6,6,6.3,15.1,1.3,21.7c-2.9,3.4-7.3,5.5-12,5.5
		c-9.1,0-16.4-7.3-16.4-16.4c0-3.9,1.3-7.3,3.7-10.2C109.5,30.5,109.5,30.2,109.7,30.2z"/>
</g>
</svg>
