<?xml version="1.0" encoding="utf-8"?>
<!-- Generator: Adobe Illustrator 19.0.0, SVG Export Plug-In . SVG Version: 6.00 Build 0)  -->
<svg version="1.1" id="Layer_1" xmlns="http://www.w3.org/2000/svg" xmlns:xlink="http://www.w3.org/1999/xlink" x="0px" y="0px" width="160px" height="160px"
	 viewBox="45 -45 160 160" style="enable-background:new 45 -45 160 160;" xml:space="preserve">
<style type="text/css">
	.st0{fill:#333333;}
</style>
<path class="st0" d="M90,114.9h30v-15H90V114.9z M90-30.1h30v-15H90V-30.1z M65-45.1c-11.1,0-20,9-20,20V-10h15v-10.1
	c0-5.5,4.5-10,10-10h9.9l-0.1-15H65z M60,89.9V79.8H45v15.1c0,11.1,9,20,20,20h14.9l0.1-15H70C64.4,99.9,60,95.4,60,89.9z M60-0.1
	H45v30h15V-0.1z M130,114.9h30v-15h-30V114.9z M185-45.1h-14.9l-0.1,15h9.9c5.5,0,10,4.5,10,10v10h15v-15
	C205-36.2,196-45.1,185-45.1z M190,29.9h15v-30h-15V29.9L190,29.9z M190,89.9c0,5.5-4.5,10-10,10h-9.9l0.1,15H185c11.1,0,20-9,20-20
	V79.8h-15V89.9L190,89.9z M130-30.1h30v-15h-30V-30.1z M190,69.9h15v-30h-15V69.9L190,69.9z M60,39.9H45v30h15V39.9z"/>
<path class="st0" d="M129.1-10v-16.6h-8.2V-10c1.4-0.1,2.7-0.2,4.1-0.2S127.8-10.1,129.1-10z M106.1-6l-8.3-14.4l-7.1,4.1L99-1.9
	C101.2-3.5,103.6-4.8,106.1-6z M159.4-16.3l-7.1-4.1L143.9-6c2.5,1.2,4.9,2.5,7.1,4.1L159.4-16.3z M88.1,9L73.7,0.6l-4.1,7.1
	L84,16.1C85.2,13.6,86.5,11.2,88.1,9z M125-2c-20.4,0-37,16.5-37,37s16.5,37,37,37s37-16.5,37-37S145.4-2,125-2z M180.4,7.8
	l-4.1-7.1L161.9,9c1.6,2.2,2.9,4.6,4.1,7.1L180.4,7.8z M143.9,76l8.3,14.4l7.1-4.1L151,71.9C148.8,73.5,146.4,74.8,143.9,76z
	 M161.9,61l14.4,8.3l4.1-7.1L166,53.9C164.8,56.4,163.5,58.8,161.9,61z M170,30.9c0.1,1.4,0.2,2.7,0.2,4.1s-0.1,2.8-0.2,4.1h16.6
	v-8.2H170z M120.9,80v16.6h8.2V80c-1.4,0.1-2.7,0.2-4.1,0.2S122.2,80.1,120.9,80z M90.6,86.3l7.1,4.1l8.3-14.4
	c-2.5-1.2-4.9-2.5-7.1-4.1L90.6,86.3z M79.8,35c0-1.4,0.1-2.8,0.2-4.1H63.4v8.2H80C79.9,37.8,79.8,36.4,79.8,35z M69.6,62.2l4.1,7.1
	L88.1,61c-1.6-2.2-2.9-4.6-4.1-7.1L69.6,62.2z"/>
</svg>
