<?xml version="1.0" encoding="utf-8"?>
<!-- Generator: Adobe Illustrator 19.0.0, SVG Export Plug-In . SVG Version: 6.00 Build 0)  -->
<svg version="1.1" id="Layer_1" xmlns="http://www.w3.org/2000/svg" xmlns:xlink="http://www.w3.org/1999/xlink" x="0px" y="0px" height="160px" width="160px"
	 viewBox="45 -45 160 160" style="enable-background:new 45 -45 160 160;" xml:space="preserve">
<style type="text/css">
	.st0{fill:#333333;}
</style>
<path class="st0" d="M90,114.9h30v-15H90V114.9z M90-30.1h30v-15H90V-30.1z M65-45.1c-11.1,0-20,9-20,20V-10h15v-10.1
	c0-5.5,4.5-10,10-10h9.9l-0.1-15H65z M60,89.9V79.8H45v15.1c0,11.1,9,20,20,20h14.9l0.1-15H70C64.4,99.9,60,95.4,60,89.9z M60-0.1
	H45v30h15V-0.1z M130,114.9h30v-15h-30V114.9z M185-45.1h-14.9l-0.1,15h9.9c5.5,0,10,4.5,10,10v10h15v-15
	C205-36.2,196-45.1,185-45.1z M190,29.9h15v-30h-15V29.9L190,29.9z M190,89.9c0,5.5-4.5,10-10,10h-9.9l0.1,15H185c11.1,0,20-9,20-20
	V79.8h-15V89.9L190,89.9z M130-30.1h30v-15h-30V-30.1z M190,69.9h15v-30h-15V69.9L190,69.9z M60,39.9H45v30h15V39.9z"/>
<g>
	<path class="st0" d="M168.3,20.9c-4.4,0-8.6,0.5-12.5,1.3c3.4-2.3,6.8-5,9.7-8.1c17-16.7-2.9-36.5-19.6-19.6
		c-3.1,3.1-5.7,6.5-8.1,9.7c0.8-3.9,1.3-8.1,1.3-12.5c0-24-27.9-24-27.9,0c0,4.4,0.5,8.6,1.3,12.5c-2.3-3.4-5-6.8-8.1-9.7
		c-17-17-36.8,2.9-19.8,19.6c3.1,3.1,6.5,5.7,9.7,8.1c-3.9-0.8-8.1-1.3-12.5-1.3c-24,0-24,27.9,0,27.9c4.4,0,8.6-0.5,12.5-1.3
		c-3.4,2.3-6.8,5-9.7,8.1c-17,17,2.9,36.8,19.6,19.8c3.1-3.1,5.7-6.5,8.1-9.7c-0.8,3.9-1.3,8.1-1.3,12.5c0,24,27.9,24,27.9,0
		c0-4.4-0.5-8.6-1.3-12.5c2.3,3.4,5,6.8,8.1,9.7c17,17,36.8-2.9,19.8-19.6c-3.1-3.1-6.5-5.7-9.7-8.1c3.9,0.8,8.1,1.3,12.5,1.3
		C192.3,49.1,192.3,20.9,168.3,20.9z M114,24.8c6.3-6.3,16.7-6.3,23,0c6,6,6.3,15.1,1.3,21.7c-2.9,3.4-7.3,5.5-12,5.5
		c-9.1,0-16.4-7.3-16.4-16.4c0-3.9,1.3-7.3,3.7-10.2C113.8,25.1,113.8,24.8,114,24.8z"/>
</g>
</svg>
