<?xml version="1.0" encoding="utf-8"?>
<!-- Generator: Adobe Illustrator 19.0.0, SVG Export Plug-In . SVG Version: 6.00 Build 0)  -->
<svg version="1.1" id="Layer_1" xmlns="http://www.w3.org/2000/svg" xmlns:xlink="http://www.w3.org/1999/xlink" x="0px" y="0px"
	 viewBox="45.2 -42.7 156.2 156.2" style="enable-background:new 45.2 -42.7 156.2 156.2;" xml:space="preserve">
<style type="text/css">
	.st0{fill:#FFFFFF;}
	.st1{fill:#24D400;}
	.st2{fill:#FFFFFF;stroke:#FFFFFF;stroke-miterlimit:10;}
	.st3{fill:none;stroke:#FFFFFF;stroke-width:7;stroke-miterlimit:10;}
</style>
<path class="st0" d="M116.6,32.8h12.9c4.4,0,7.9,2.8,7.9,6.3v51.8c0,3.5-3.6,6.3-7.9,6.3h-12.9c-4.4,0-7.9-2.8-7.9-6.3V39.1
	C108.7,35.6,112.3,32.8,116.6,32.8z"/>
<path class="st1" d="M161.3-21.5h12.5c4.4,0,7.9,3.8,7.9,8.5V88.2c0,4.7-3.6,8.5-7.9,8.5h-12.5c-4.4,0-7.9-3.8-7.9-8.5V-12.9
	C153.4-17.6,156.9-21.5,161.3-21.5z"/>
<path class="st2" d="M74.1,65H87c4.4,0,7.9,2.1,7.9,4.6v23.1c0,2.5-3.6,4.6-7.9,4.6H74.1c-4.4,0-7.9-2.1-7.9-4.6V69.6
	C66.1,67.1,69.7,65,74.1,65z"/>
<path class="st3" d="M180.8,110H65.7c-9.4,0-17-7.6-17-17V-22.2c0-9.4,7.6-17,17-17h115.2c9.4,0,17,7.6,17,17V93
	C197.8,102.4,190.2,110,180.8,110z"/>
</svg>
