<?xml version="1.0" encoding="utf-8"?>
<!-- Generator: Adobe Illustrator 19.0.0, SVG Export Plug-In . SVG Version: 6.00 Build 0)  -->
<svg version="1.1" id="Layer_1" xmlns="http://www.w3.org/2000/svg" xmlns:xlink="http://www.w3.org/1999/xlink" x="0px" y="0px"
	 viewBox="43.2 -37.1 156.2 156.2" style="enable-background:new 43.2 -37.1 156.2 156.2;" xml:space="preserve">
<style type="text/css">
	.st0{fill:#24D400;}
	.st1{fill:#FFFFFF;stroke:#FFFFFF;stroke-miterlimit:10;}
	.st2{fill:none;stroke:#FFFFFF;stroke-width:7;stroke-miterlimit:10;}
</style>
<path class="st0" d="M114.6,38.4h12.9c4.4,0,7.9,2.8,7.9,6.3v51.8c0,3.5-3.6,6.3-7.9,6.3h-12.9c-4.4,0-7.9-2.8-7.9-6.3V44.7
	C106.7,41.2,110.3,38.4,114.6,38.4z"/>
<path class="st0" d="M159.3-15.9h12.5c4.4,0,7.9,3.8,7.9,8.5V93.8c0,4.7-3.6,8.5-7.9,8.5h-12.5c-4.4,0-7.9-3.8-7.9-8.5V-7.3
	C151.4-12,154.9-15.9,159.3-15.9z"/>
<path class="st1" d="M72.1,70.6H85c4.4,0,7.9,2.1,7.9,4.6v23.1c0,2.5-3.6,4.6-7.9,4.6H72.1c-4.4,0-7.9-2.1-7.9-4.6V75.2
	C64.1,72.7,67.7,70.6,72.1,70.6z"/>
<path class="st2" d="M178.8,115.6H63.7c-9.4,0-17-7.6-17-17V-16.6c0-9.4,7.6-17,17-17h115.2c9.4,0,17,7.6,17,17V98.6
	C195.8,108,188.2,115.6,178.8,115.6z"/>
</svg>
