<?xml version="1.0" encoding="utf-8"?>
<!-- Generator: Adobe Illustrator 19.0.0, SVG Export Plug-In . SVG Version: 6.00 Build 0)  -->
<svg version="1.1" id="Layer_1" xmlns="http://www.w3.org/2000/svg" xmlns:xlink="http://www.w3.org/1999/xlink" x="0px" y="0px" width="160px" height="160px"
	 viewBox="45 -45 160 160" style="enable-background:new 45 -45 160 160;" xml:space="preserve">
<style type="text/css">
	.st0{fill:#333333;}
	.st1{fill:#333333;stroke:#333333;stroke-width:2;stroke-miterlimit:10;}
	.st2{fill:#FFFFFF;stroke:#333333;stroke-miterlimit:10;}
</style>

<path class="st1" d="M117.6,30h12.9c4.4,0,7.9,2.8,7.9,6.3v51.8c0,3.5-3.6,6.3-7.9,6.3h-12.9c-4.4,0-7.9-2.8-7.9-6.3V36.3
	C109.7,32.8,113.3,30,117.6,30z"/>
<path class="st2" d="M162.3-24.3h12.5c4.4,0,7.9,3.8,7.9,8.5V85.4c0,4.7-3.6,8.5-7.9,8.5h-12.5c-4.4,0-7.9-3.8-7.9-8.5V-15.7
	C154.4-20.4,157.9-24.3,162.3-24.3z"/>
<path class="st1" d="M75.1,62.2H88c4.4,0,7.9,2.1,7.9,4.6v23.1c0,2.5-3.6,4.6-7.9,4.6H75.1c-4.4,0-7.9-2.1-7.9-4.6V66.8
	C67.1,64.3,70.7,62.2,75.1,62.2z"/>
</svg>
