<?xml version="1.0" encoding="utf-8"?>
<!-- Generator: Adobe Illustrator 19.0.0, SVG Export Plug-In . SVG Version: 6.00 Build 0)  -->
<svg version="1.1" id="Layer_1" xmlns="http://www.w3.org/2000/svg" xmlns:xlink="http://www.w3.org/1999/xlink" x="0px" y="0px"
	 viewBox="42.2 -34.3 156.2 156.2" style="enable-background:new 42.2 -34.3 156.2 156.2;" xml:space="preserve">
<style type="text/css">
	.st0{fill:#FFFFFF;}
	.st1{fill:#FFFFFF;stroke:#FFFFFF;stroke-miterlimit:10;}
	.st2{fill:#24D400;}
	.st3{fill:none;stroke:#FFFFFF;stroke-width:7;stroke-miterlimit:10;}
</style>
<path class="st0" d="M113.6,41.2h12.9c4.4,0,7.9,2.8,7.9,6.3v51.8c0,3.5-3.6,6.3-7.9,6.3h-12.9c-4.4,0-7.9-2.8-7.9-6.3V47.5
	C105.7,44,109.3,41.2,113.6,41.2z"/>
<path class="st1" d="M158.3-13.1h12.5c4.4,0,7.9,3.8,7.9,8.5V96.6c0,4.7-3.6,8.5-7.9,8.5h-12.5c-4.4,0-7.9-3.8-7.9-8.5V-4.5
	C150.4-9.2,153.9-13.1,158.3-13.1z"/>
<path class="st2" d="M71.1,73.4H84c4.4,0,7.9,2.1,7.9,4.6v23.1c0,2.5-3.6,4.6-7.9,4.6H71.1c-4.4,0-7.9-2.1-7.9-4.6V78
	C63.1,75.5,66.7,73.4,71.1,73.4z"/>
<path class="st3" d="M177.8,118.4H62.7c-9.4,0-17-7.6-17-17V-13.8c0-9.4,7.6-17,17-17h115.2c9.4,0,17,7.6,17,17v115.2
	C194.8,110.8,187.2,118.4,177.8,118.4z"/>
</svg>
