<?xml version="1.0" encoding="utf-8"?>
<!-- Generator: Adobe Illustrator 19.0.0, SVG Export Plug-In . SVG Version: 6.00 Build 0)  -->
<svg version="1.1" id="Layer_1" xmlns="http://www.w3.org/2000/svg" xmlns:xlink="http://www.w3.org/1999/xlink" x="0px" y="0px"
	 viewBox="44.2 -39.9 156.2 156.2" style="enable-background:new 44.2 -39.9 156.2 156.2;" xml:space="preserve">
<style type="text/css">
	.st0{fill:#24D400;}
	.st1{fill:#FFFFFF;stroke:#FFFFFF;stroke-miterlimit:10;}
	.st2{fill:none;stroke:#FFFFFF;stroke-width:7;stroke-miterlimit:10;}
</style>
<path class="st0" d="M115.6,35.6h12.9c4.4,0,7.9,2.8,7.9,6.3v51.8c0,3.5-3.6,6.3-7.9,6.3h-12.9c-4.4,0-7.9-2.8-7.9-6.3V41.9
	C107.7,38.4,111.3,35.6,115.6,35.6z"/>
<path class="st0" d="M160.3-18.7h12.5c4.4,0,7.9,3.8,7.9,8.5V91c0,4.7-3.6,8.5-7.9,8.5h-12.5c-4.4,0-7.9-3.8-7.9-8.5V-10.1
	C152.4-14.8,155.9-18.7,160.3-18.7z"/>
<path class="st1" d="M73.1,67.8H86c4.4,0,7.9,2.1,7.9,4.6v23.1c0,2.5-3.6,4.6-7.9,4.6H73.1c-4.4,0-7.9-2.1-7.9-4.6V72.4
	C65.1,69.9,68.7,67.8,73.1,67.8z"/>
<path class="st2" d="M179.8,112.8H64.7c-9.4,0-17-7.6-17-17V-19.4c0-9.4,7.6-17,17-17h115.2c9.4,0,17,7.6,17,17V95.8
	C196.8,105.2,189.2,112.8,179.8,112.8z"/>
</svg>
