<?xml version="1.0" encoding="utf-8"?>
<!-- Generator: Adobe Illustrator 19.0.0, SVG Export Plug-In . SVG Version: 6.00 Build 0)  -->
<svg version="1.1" id="Layer_1" xmlns="http://www.w3.org/2000/svg" xmlns:xlink="http://www.w3.org/1999/xlink" x="0px" y="0px" height="160px" width="160px"
	 viewBox="215 -215 498 498" style="enable-background:new 215 -215 498 498;" xml:space="preserve">
<style type="text/css">
	.st0{fill:#333333;}
	.st1{fill:#333333;stroke:#333333;stroke-width:2;stroke-miterlimit:10;}
	.st2{fill:#FFFFFF;stroke:#333333;stroke-width:2;stroke-miterlimit:10;}
</style>
<path class="st0" d="M355.1,283h93.4v-46.7h-93.4V283z M355.1-168.3h93.4V-215h-93.4V-168.3z M277.3-215
	c-34.4,0-62.3,27.9-62.3,62.2v47l46.7-0.1v-31.3c0-17.2,13.9-31.1,31.1-31.1h30.9l-0.2-46.7H277.3z M261.7,205.2v-31.3l-46.7-0.1v47
	c0,34.4,27.9,62.3,62.3,62.3h46.3l0.2-46.7h-30.9C275.6,236.4,261.7,222.4,261.7,205.2z M261.7-74.9H215v93.4h46.7V-74.9z
	 M479.6,283H573v-46.7h-93.4V283z M650.8-215h-46.3l-0.2,46.7h30.9c17.2,0,31.1,13.9,31.1,31.1v31.3l46.7,0.1v-47
	C713-187.1,685.2-215,650.8-215z M666.4,18.5H713v-93.4h-46.7V18.5z M666.4,205.2c0,17.2-13.9,31.1-31.1,31.1h-30.9l0.2,46.7h46.3
	c34.4,0,62.3-27.9,62.3-62.3v-47l-46.7,0.1V205.2z M479.6-168.3H573V-215h-93.4V-168.3z M666.4,143H713V49.6h-46.7V143z M261.7,49.6
	H215V143h46.7V49.6z"/>
<g>
	<path class="st1" d="M368,29.4h24.3c8.2,0,14.9,6.7,14.9,14.9v122.3c0,8.2-6.7,14.9-14.9,14.9H368c-8.2,0-14.9-6.7-14.9-14.9V44.3
		C353.2,36.1,359.8,29.4,368,29.4z"/>
	<path class="st1" d="M451.9-25.4h23.5c8.2,0,14.9,6.7,14.9,14.9v176.3c0,8.2-6.7,14.9-14.9,14.9h-23.5c-8.2,0-14.9-6.7-14.9-14.9
		V-10.5C437-18.7,443.7-25.4,451.9-25.4z"/>
	<path class="st2" d="M530.2-70.9h23.5c8.2,0,14.9,6.7,14.9,14.9v220.2c0,8.2-6.7,14.9-14.9,14.9h-23.5c-8.2,0-14.9-6.7-14.9-14.9
		V-56C515.3-64.2,522-70.9,530.2-70.9z"/>
	<path class="st2" d="M616.4-126.5h23.5c8.2,0,14.9,6.7,14.9,14.9V165c0,8.2-6.7,14.9-14.9,14.9h-23.5c-8.2,0-14.9-6.7-14.9-14.9
		v-276.7C601.5-119.8,608.2-126.5,616.4-126.5z"/>
	<path class="st1" d="M288.1,77.3h24.3c8.2,0,14.9,6.7,14.9,14.9v74.5c0,8.2-6.7,14.9-14.9,14.9h-24.3c-8.2,0-14.9-6.7-14.9-14.9
		V92.1C273.2,83.9,279.9,77.3,288.1,77.3z"/>
</g>
</svg>
