<?xml version="1.0" encoding="utf-8"?>
<!-- Generator: Adobe Illustrator 19.0.0, SVG Export Plug-In . SVG Version: 6.00 Build 0)  -->
<svg version="1.1" id="Layer_1" xmlns="http://www.w3.org/2000/svg" xmlns:xlink="http://www.w3.org/1999/xlink" x="0px" y="0px" width="160px" height="160px"
	 viewBox="45 -45 160 160" style="enable-background:new 45 -45 160 160;" xml:space="preserve">
<style type="text/css">
	.st0{fill:#333333;}
	.st1{fill:#333333;stroke:#333333;stroke-width:2;stroke-miterlimit:10;}
	.st2{fill:#FFFFFF;stroke:#333333;stroke-miterlimit:10;}
</style>
<path class="st0" d="M90,115h30v-15H90V115z M90-30h30v-15H90V-30z M65-45c-11.1,0-20,9-20,20v15.1l15,0V-20c0-5.5,4.5-10,10-10h9.9
	l-0.1-15H65z M60,90V79.9l-15,0V95c0,11.1,9,20,20,20h14.9l0.1-15H70C64.4,100,60,95.5,60,90z M60,0H45v30h15V0z M130,115h30v-15
	h-30V115z M185-45h-14.9L170-30h9.9c5.5,0,10,4.5,10,10V-10l15,0V-25C205-36.1,196-45,185-45z M190,30h15V0h-15L190,30L190,30z
	 M190,90c0,5.5-4.5,10-10,10h-9.9l0.1,15H185c11.1,0,20-9,20-20V79.9l-15,0L190,90L190,90z M130-30h30v-15h-30V-30z M190,70h15V40
	h-15L190,70L190,70z M60,40H45v30h15V40z"/>
<path class="st1" d="M117.6,30h12.9c4.4,0,7.9,2.8,7.9,6.3v51.8c0,3.5-3.6,6.3-7.9,6.3h-12.9c-4.4,0-7.9-2.8-7.9-6.3V36.3
	C109.7,32.8,113.3,30,117.6,30z"/>
<path class="st1" d="M162.3-24.3h12.5c4.4,0,7.9,3.8,7.9,8.5V85.4c0,4.7-3.6,8.5-7.9,8.5h-12.5c-4.4,0-7.9-3.8-7.9-8.5V-15.7
	C154.4-20.4,157.9-24.3,162.3-24.3z"/>
<path class="st2" d="M75.1,62.2H88c4.4,0,7.9,2.1,7.9,4.6v23.1c0,2.5-3.6,4.6-7.9,4.6H75.1c-4.4,0-7.9-2.1-7.9-4.6V66.8
	C67.1,64.3,70.7,62.2,75.1,62.2z"/>
</svg>
