<?xml version="1.0" encoding="utf-8"?>
<!-- Generator: Adobe Illustrator 19.0.0, SVG Export Plug-In . SVG Version: 6.00 Build 0)  -->
<svg version="1.1" id="Layer_1" xmlns="http://www.w3.org/2000/svg" xmlns:xlink="http://www.w3.org/1999/xlink" x="0px" y="0px" width="160px" height="160px"
	 viewBox="135 -135 160 160" style="enable-background:new 135 -135 160 160;" xml:space="preserve">
<style type="text/css">
	.st0{fill:#333333;}
	.st1{fill:#231F20;}
	.st2{fill:#010101;}
</style>

<path class="st1" d="M202.6-76.5c9,0,16.7-6.1,18.8-14.8c0.1-0.3-0.1-0.6-0.3-0.8c-0.3-0.2-0.6-0.1-0.9,0.1c-2.4,2.3-5.6,3.6-9,3.6
	c-7.2,0-13-5.8-13-13c0-5.4,3.4-10.2,8.4-12.1c0.3-0.1,0.5-0.4,0.5-0.7c0-0.3-0.3-0.6-0.6-0.6c-1.3-0.3-2.6-0.4-3.9-0.4
	c-10.7,0-19.4,8.7-19.4,19.4S192-76.5,202.6-76.5z"/>
<polygon id="_x3C_Ruler_x3E_" class="st2" points="249,-63 260.6,-63 260.6,-60.4 249,-60.4 249,-57.8 254.1,-57.8 254.1,-55.2
	249,-55.2 249,-52.7 254.1,-52.7 254.1,-50.1 249,-50.1 249,-47.5 254.1,-47.5 254.1,-44.9 249,-44.9 249,-42.3 260.6,-42.3
	260.6,-39.8 249,-39.8 249,-37.2 254.1,-37.2 254.1,-34.6 249,-34.6 249,-32 254.1,-32 254.1,-29.5 249,-29.5 249,-26.9
	254.1,-26.9 254.1,-24.3 249,-24.3 249,-21.7 260.6,-21.7 260.6,-19.2 249,-19.2 249,-16.6 254.1,-16.6 254.1,-14 249,-14
	249,-11.4 254.1,-11.4 254.1,-8.8 249,-8.8 249,-6.3 254.1,-6.3 254.1,-3.7 249,-3.7 249,-1.1 260.6,-1.1 260.6,1.5 249,1.5
	249,5.3 267,5.3 267,-66.8 249,-66.8 "/>
<path class="st1" d="M240.2-29.2c-4.3,0-6.3-6.3-6.3-6.4c-0.3-1-1.2-1.7-2.2-1.8s-2,0.5-2.5,1.4c-0.9,1.8-4,6.8-7.3,6.8
	c-3.2,0-6.1-4.9-6.9-6.7c-0.4-0.9-1.2-1.4-2.1-1.5s-1.8,0.4-2.3,1.2c-1.7,2.8-5.2,7-7.4,7c-2.1,0-5.2-4.1-6.6-6.8
	c-0.4-0.8-1.3-1.4-2.2-1.4c-1,0-1.8,0.5-2.2,1.3c-1.3,2.2-4.8,6.9-7.5,6.9c-2.6,0-5.4-4.5-6.4-6.7c-0.4-0.9-1.3-1.5-2.4-1.5
	c-1,0-1.9,0.7-2.3,1.6c-0.1,0.3-2.6,6.5-8.4,6.5c-1.4,0-2.5,1.1-2.5,2.5s1.1,2.5,2.5,2.5c5.2,0,8.7-3,10.7-5.7
	c1.9,2.7,4.9,5.7,8.7,5.7c4,0,7.4-3.3,9.6-6c2,2.8,5.1,6,8.9,6s7.2-3.3,9.4-6c1.9,2.8,5.1,6,9.4,6c4,0,7.2-2.9,9.2-5.5
	c1.7,2.7,4.6,5.5,9,5.5c1.4,0,2.5-1.1,2.5-2.5C242.7-28.1,241.5-29.2,240.2-29.2z"/>
<path class="st1" d="M241.1-58.4c-4.3,0-6.3-6.3-6.3-6.4c-0.3-1-1.2-1.7-2.2-1.8c-1-0.1-2,0.5-2.5,1.4c-0.9,1.8-4,6.8-7.3,6.8
	c-3.2,0-6.1-4.9-6.9-6.7c-0.4-0.9-1.2-1.4-2.1-1.5c-0.9-0.1-1.8,0.4-2.3,1.2c-1.7,2.8-5.2,7-7.4,7c-2.1,0-5.2-4.1-6.6-6.8
	c-0.4-0.8-1.3-1.4-2.2-1.4c-1,0-1.8,0.5-2.2,1.3c-1.3,2.2-4.8,6.9-7.5,6.9c-2.6,0-5.4-4.5-6.4-6.7c-0.4-0.9-1.3-1.5-2.4-1.5
	c-1,0-1.9,0.7-2.3,1.6c-0.1,0.3-2.6,6.5-8.4,6.5c-1.4,0-2.5,1.1-2.5,2.5s1.1,2.5,2.5,2.5c5.2,0,8.7-3,10.7-5.7
	c1.9,2.7,4.9,5.7,8.7,5.7c4,0,7.4-3.3,9.6-6c2,2.8,5.1,6,8.9,6c3.8,0,7.2-3.3,9.4-6c1.9,2.8,5.1,6,9.4,6c4,0,7.2-2.9,9.2-5.5
	c1.7,2.7,4.6,5.5,9,5.5c1.4,0,2.5-1.1,2.5-2.5C243.6-57.3,242.5-58.4,241.1-58.4z"/>
</svg>
