<?xml version="1.0" encoding="utf-8"?>
<!-- Generator: Adobe Illustrator 19.0.0, SVG Export Plug-In . SVG Version: 6.00 Build 0)  -->
<svg version="1.1" id="Layer_1" xmlns="http://www.w3.org/2000/svg" xmlns:xlink="http://www.w3.org/1999/xlink" x="0px" y="0px" width="160px" height="160px"
	 viewBox="180 -180 160 160" style="enable-background:new 180 -180 160 160;" xml:space="preserve">
<style type="text/css">
	.st0{fill:#333333;}
	.st1{fill:#231F20;}
	.st2{fill:#010101;}
</style>
<path class="st0" d="M225-20h30v-15h-30V-20z M225-165h30v-15h-30V-165z M200-180c-11.1,0-20,9-20,20v15.1h15V-155
	c0-5.5,4.5-10,10-10h9.9l-0.1-15H200z M195-45v-10.1h-15V-40c0,11.1,9,20,20,20h14.9l0.1-15h-10C199.4-35,195-39.5,195-45z M195-135
	h-15v30h15V-135z M265-20h30v-15h-30V-20z M320-180h-14.9l-0.1,15h9.9c5.5,0,10,4.5,10,10v10h15v-15C340-171.1,331-180,320-180z
	 M325-105h15v-30h-15V-105L325-105z M325-45c0,5.5-4.5,10-10,10h-9.9l0.1,15H320c11.1,0,20-9,20-20v-15.1h-15V-45L325-45z M265-165
	h30v-15h-30V-165z M325-65h15v-30h-15V-65L325-65z M195-95h-15v30h15V-95z"/>
<path class="st1" d="M286.1-103.4c-4.3,0-6.3-6.3-6.3-6.4c-0.3-1-1.2-1.7-2.2-1.8c-1-0.1-2,0.5-2.5,1.4c-0.9,1.8-4,6.8-7.3,6.8
	c-3.2,0-6.1-4.9-6.9-6.7c-0.4-0.9-1.2-1.4-2.1-1.5c-0.9-0.1-1.8,0.4-2.3,1.2c-1.7,2.8-5.2,7-7.4,7c-2.1,0-5.2-4.1-6.6-6.8
	c-0.4-0.8-1.3-1.4-2.2-1.4c-1,0-1.8,0.5-2.2,1.3c-1.3,2.2-4.8,6.9-7.5,6.9c-2.6,0-5.4-4.5-6.4-6.7c-0.4-0.9-1.3-1.5-2.4-1.5
	c-1,0-1.9,0.7-2.3,1.6c-0.1,0.3-2.6,6.5-8.4,6.5c-1.4,0-2.5,1.1-2.5,2.5s1.1,2.5,2.5,2.5c5.2,0,8.7-3,10.7-5.7
	c1.9,2.7,4.9,5.7,8.7,5.7c4,0,7.4-3.3,9.6-6c2,2.8,5.1,6,8.9,6c3.8,0,7.2-3.3,9.4-6c1.9,2.8,5.1,6,9.4,6c4,0,7.2-2.9,9.2-5.5
	c1.7,2.7,4.6,5.5,9,5.5c1.4,0,2.5-1.1,2.5-2.5C288.6-102.3,287.5-103.4,286.1-103.4z"/>
<path class="st1" d="M247.6-121.5c9,0,16.7-6.1,18.8-14.8c0.1-0.3-0.1-0.6-0.3-0.8c-0.3-0.2-0.6-0.1-0.9,0.1c-2.4,2.3-5.6,3.6-9,3.6
	c-7.2,0-13-5.8-13-13c0-5.4,3.4-10.2,8.4-12.1c0.3-0.1,0.5-0.4,0.5-0.7c0-0.3-0.3-0.6-0.6-0.6c-1.3-0.3-2.6-0.4-3.9-0.4
	c-10.7,0-19.4,8.7-19.4,19.4S237-121.5,247.6-121.5z"/>
<polygon id="_x3C_Ruler_x3E_" class="st2" points="294,-108 305.6,-108 305.6,-105.4 294,-105.4 294,-102.8 299.1,-102.8
	299.1,-100.2 294,-100.2 294,-97.7 299.1,-97.7 299.1,-95.1 294,-95.1 294,-92.5 299.1,-92.5 299.1,-89.9 294,-89.9 294,-87.3
	305.6,-87.3 305.6,-84.8 294,-84.8 294,-82.2 299.1,-82.2 299.1,-79.6 294,-79.6 294,-77 299.1,-77 299.1,-74.5 294,-74.5
	294,-71.9 299.1,-71.9 299.1,-69.3 294,-69.3 294,-66.7 305.6,-66.7 305.6,-64.2 294,-64.2 294,-61.6 299.1,-61.6 299.1,-59
	294,-59 294,-56.4 299.1,-56.4 299.1,-53.8 294,-53.8 294,-51.3 299.1,-51.3 299.1,-48.7 294,-48.7 294,-46.1 305.6,-46.1
	305.6,-43.5 294,-43.5 294,-39.7 312,-39.7 312,-111.8 294,-111.8 "/>
</svg>
