<?xml version="1.0" encoding="utf-8"?>
<!-- Generator: Adobe Illustrator 19.0.0, SVG Export Plug-In . SVG Version: 6.00 Build 0)  -->
<svg version="1.1" id="Layer_1" xmlns="http://www.w3.org/2000/svg" xmlns:xlink="http://www.w3.org/1999/xlink" x="0px" y="0px" width="160px" height="160px"
	 viewBox="45 -45.1 160 160" style="enable-background:new 45 -45.1 160 160;" xml:space="preserve">
<style type="text/css">
	.st0{fill:#333333;}
	.st1{font-family:'ArialMT';}
	.st2{font-size:30px;}
</style>
<g>
	<path class="st0" d="M139.1,46l-6.8,12.1c-0.2,0.4-0.8,0.6-1.2,0.3l-7.1-3.8c-0.4-0.1-0.6-0.7-0.3-1.1L138.9,26
		c0.2-0.3,0.4-0.5,0.8-0.5h6.1c0.6,0,1-0.5,0.9-1.1l-0.8-3c-0.2-0.6,0.2-1.1,0.8-1.1h13.9c0.6,0,1,0.5,0.9,1.1l-0.7,3.2
		c-0.1,0.5,0.3,1.1,0.9,1.1h6.1c0.3,0,0.6,0.2,0.8,0.5l15,26.9c0.2,0.4,0.1,0.9-0.3,1.2l-7,4.3c-0.4,0.3-1,0.1-1.2-0.3l-6.7-12.2
		c-0.4-0.8-1.7-0.5-1.7,0.3l-1.1,10.5c0,0.4,0,0.7,0,1.1l4.8,33.8c0.1,0.5-0.3,1-0.9,1h-10.9c-0.4,0-0.8-0.3-0.9-0.7L154.5,71
		c-0.2-1-1.7-1-1.8,0l-3,21.1c-0.1,0.4-0.4,0.8-0.9,0.8h-10.9c-0.5,0-0.9-0.5-0.9-1l5.1-34c0.1-0.4,0.1-0.8,0-1.2l-1.4-10.2
		C140.7,45.5,139.6,45.3,139.1,46z"/>
</g>
<text transform="matrix(1 0 0 1 65.5 77.6667)" class="st0 st1 st2">2mm</text>
</svg>
