<?xml version="1.0" encoding="utf-8"?>
<!-- Generator: Adobe Illustrator 19.0.0, SVG Export Plug-In . SVG Version: 6.00 Build 0)  -->
<svg version="1.1" id="Layer_1" xmlns="http://www.w3.org/2000/svg" xmlns:xlink="http://www.w3.org/1999/xlink" x="0px" y="0px" width="160px" height="160px"
	 viewBox="45 -45.1 160 160" style="enable-background:new 45 -45.1 160 160;" xml:space="preserve">
<style type="text/css">
	.st0{fill:#333333;}
</style>
<g>
	<path class="st0" d="M141.8,39.1c-0.4,0-0.5,0.1-0.6,0.3c-0.1,0.3-0.1,0.5-0.1,0.5c0.2,0.3,1.5,0.9,4.1,0.9l0,0c0.3,0,0.6,0,0.9,0
		C144.5,39.8,142.8,39.1,141.8,39.1z"/>
	<path class="st0" d="M155.9,39.8c0,0,0-0.2-0.1-0.5c-0.1-0.2-0.1-0.3-0.5-0.3c-1,0-2.6,0.7-4,1.6c0.3,0,0.5,0,0.8,0
		C154.4,40.7,155.7,40.2,155.9,39.8z"/>
	<path class="st0" d="M147.8,42.7c-0.2,0.3-0.5,0.8-0.8,1.4h2.1c-0.2-0.6-0.4-1.2-0.5-1.6C148.3,42.6,148,42.6,147.8,42.7z"/>
	<path class="st0" d="M172.9,46.1h-20.7c0.8,3.4,1.3,7.7,0.1,10.8L150,56c1.1-2.8,0.5-6.8-0.3-9.9h-3.5c-0.7,2.3-1.1,5.5-0.4,9.5
		l-2.4,0.5c-0.8-4.1-0.4-7.4,0.3-10h-18.8L117,91.2h27.8l4.1-15.6l4.1,15.6h27.8L172.9,46.1z"/>
	<path class="st0" d="M144.8,43C144.8,43,144.7,43,144.8,43L144.8,43c-1.8,0-4-0.3-5-1.7c-0.4-0.5-0.7-1.4-0.2-2.7
		c0.5-1.1,1.4-1.7,2.7-1.7c2.1,0,4.9,1.8,6.2,2.8c1.4-1,4.1-2.8,6.2-2.8c1.2,0,2.2,0.6,2.7,1.7c0.5,1.2,0.2,2.1-0.2,2.7
		c-1,1.4-3.2,1.7-4.9,1.7c-0.4,0-0.8,0-1.1,0c0.1,0.4,0.2,0.8,0.4,1.2h20.7v-9.9h-47l0,9.1l-0.1,0.8h19.1
		C144.5,43.7,144.6,43.3,144.8,43z"/>
</g>
</svg>
