<?xml version="1.0" encoding="utf-8"?>
<!-- Generator: Adobe Illustrator 19.0.0, SVG Export Plug-In . SVG Version: 6.00 Build 0)  -->
<svg version="1.1" id="Layer_1" xmlns="http://www.w3.org/2000/svg" xmlns:xlink="http://www.w3.org/1999/xlink" x="0px" y="0px" width="160px" height="160px"
	 viewBox="45 -45.1 160 160" style="enable-background:new 45 -45.1 160 160;" xml:space="preserve">
<style type="text/css">
	.st0{fill:#333333;}
	.st1{font-family:'ArialMT';}
	.st2{font-size:30px;}
</style>
<g>
	<path class="st0" d="M139.1,46l-6.8,12.1c-0.2,0.4-0.8,0.6-1.2,0.3l-7.1-3.8c-0.4-0.1-0.6-0.7-0.3-1.1L138.9,26
		c0.2-0.3,0.4-0.5,0.8-0.5h6.1c0.6,0,1-0.5,0.9-1.1l-0.8-3c-0.2-0.6,0.2-1.1,0.8-1.1h13.9c0.6,0,1,0.5,0.9,1.1l-0.7,3.2
		c-0.1,0.5,0.3,1.1,0.9,1.1h6.1c0.3,0,0.6,0.2,0.8,0.5l15,26.9c0.2,0.4,0.1,0.9-0.3,1.2l-7,4.3c-0.4,0.3-1,0.1-1.2-0.3l-6.7-12.2
		c-0.4-0.8-1.7-0.5-1.7,0.3l-1.1,10.5c0,0.4,0,0.7,0,1.1l4.8,33.8c0.1,0.5-0.3,1-0.9,1h-10.9c-0.4,0-0.8-0.3-0.9-0.7L154.5,71
		c-0.2-1-1.7-1-1.8,0l-3,21.1c-0.1,0.4-0.4,0.8-0.9,0.8h-10.9c-0.5,0-0.9-0.5-0.9-1l5.1-34c0.1-0.4,0.1-0.8,0-1.2l-1.4-10.2
		C140.7,45.5,139.6,45.3,139.1,46z"/>
</g>
<g id="layer1" transform="translate(0,-540.36218)">
	<path id="rect3818-9-8" class="st0" d="M128.9,521.9c-0.4,0-0.8,0.4-0.8,0.9v5.7h-0.3v-5c0-0.5-0.3-0.9-0.8-0.9h-0.6
		c-0.4,0-0.8,0.4-0.8,0.9v6v3l-1.2-2c-0.2-0.3-0.5-0.5-0.8-0.5c-0.1,0-0.2,0-0.3,0.1l-0.5,0.3h-0.1c-0.3,0.2-0.4,0.7-0.1,1.2
		l3.6,6.2l0,0c0.1,0.2,0.2,0.4,0.4,0.6v10.3c0,0.4,0.3,0.8,0.6,0.8h6.1c0.4,0,0.6-0.4,0.6-0.8v-10.3c0.6-0.8,1-1.8,1-2.8v-0.1
		c0,0,0,0,0-0.1v-5.9V526c0-0.5-0.3-0.9-0.8-0.9h-0.6c-0.4,0-0.8,0.4-0.8,0.9v2.4h-0.3V524c0-0.5-0.3-0.9-0.8-0.9H131
		c-0.4,0-0.8,0.4-0.8,0.9v4.4h-0.3v-5.7c0-0.5-0.3-0.9-0.8-0.9h-0.2V521.9z"/>
</g>
<g>
	<path class="st0" d="M145.5,1.3c3.2,0,5-3.5,5-3.6s0.1-0.1,0.1-0.1v-0.1l-0.4-11.7l-5.3,0.2C144.9-14,145.6-0.5,145.5,1.3z"/>
	<path class="st0" d="M164.6,6.4V4.8c-0.1-0.3-0.4-0.4-0.5-0.4c0-0.3-0.2-1.5-1.5-1.9l-11.3-4.2c0,0-0.2-0.1-0.3-0.1l0,0
		c-0.1,0.2-1.9,3.8-5.5,3.9c0.1,0.8,0.3,2.4,0.2,3.6c0,0.1,0,0.1,0,0.2s0,0.1,0,0.2s0,0.1-0.1,0.2s-0.1,0.1-0.2,0.1c0,0,0,0-0.1,0
		s-0.1,0-0.2-0.1C145,6.2,145,6.1,145,6.1V6V5.9c0.2-1.6-0.3-4-0.3-4.1V1.7c0.2-1-0.5-15.3-0.5-15.3l-6.3-0.2c0,0,0.1,5.1,0.8,7.5
		c0,0,1.1,4.4,0.7,6.2c0,0-0.7,5-0.4,5.8c0,0,0,0-0.2,0c-0.2,0.1-0.3,0.4-0.3,0.4l0.1,1.9c1,0.9,4.2,0.5,4.2,0.5s13.8,0.1,15.5-0.1
		c2-0.2,3.6-0.5,4.9-1.1C164.7,6.6,164.6,6.4,164.6,6.4z"/>
</g>
<path class="st0" d="M185.7-0.9h-3.6c0.8-0.6,3-2,2-2.8c-1.2-1-1.2-0.8-1-1.8c0.2-0.9,1.9-1.9,1.2-2.9s-0.2-10.5-8.5-10.7l0,0l0,0
	l0,0l0,0c-7.7,0.2-7.7,9.6-8.4,10.7s1,2,1.3,2.9c0.2,0.9,0.2,0.7-1,1.7c-1,0.8,1.1,2.3,1.9,2.8H166c0,0,1.2,13.5,10.5,13.2
	C185.8,12,185.7-0.9,185.7-0.9z M175.8-17.1c2.8,0,5,3.2,5,7.1s-1.4,7.1-5,7.1c-3.3,0.1-5-3.2-5-7.1S173.1-17.1,175.8-17.1z"/>
<text transform="matrix(1 0 0 1 65.5 77.6667)" class="st0 st1 st2">6mm</text>
</svg>
