<?xml version="1.0" encoding="utf-8"?>
<!-- Generator: Adobe Illustrator 19.0.0, SVG Export Plug-In . SVG Version: 6.00 Build 0)  -->
<svg version="1.1" id="Layer_1" xmlns="http://www.w3.org/2000/svg" xmlns:xlink="http://www.w3.org/1999/xlink" x="0px" y="0px"
	 viewBox="45 -45.1 160 160" style="enable-background:new 45 -45.1 160 160;" xml:space="preserve">
<style type="text/css">
	.st0{fill:#333333;}
	.st1{font-family:'ArialMT';}
	.st2{font-size:30px;}
	.st3{fill:#333333;stroke:#FFFFFF;stroke-miterlimit:10;}
</style>
<g>
	<path class="st0" d="M138.3,45.7l-6.8,12.1c-0.2,0.4-0.8,0.6-1.2,0.3l-7.1-3.8c-0.4-0.1-0.6-0.7-0.3-1.1l15.2-27.5
		c0.2-0.3,0.4-0.5,0.8-0.5h6.1c0.6,0,1-0.5,0.9-1.1l-0.8-3c-0.2-0.6,0.2-1.1,0.8-1.1h13.9c0.6,0,1,0.5,0.9,1.1l-0.7,3.2
		c-0.1,0.5,0.3,1.1,0.9,1.1h6.1c0.3,0,0.6,0.2,0.8,0.5l15,26.9c0.2,0.4,0.1,0.9-0.3,1.2l-7,4.3c-0.4,0.3-1,0.1-1.2-0.3l-6.7-12.2
		c-0.4-0.8-1.7-0.5-1.7,0.3l-1.1,10.5c0,0.4,0,0.7,0,1.1l4.8,33.8c0.1,0.5-0.3,1-0.9,1h-10.9c-0.4,0-0.8-0.3-0.9-0.7l-3.2-21.1
		c-0.2-1-1.7-1-1.8,0l-3,21.1c-0.1,0.4-0.4,0.8-0.9,0.8h-10.9c-0.5,0-0.9-0.5-0.9-1l5.1-34c0.1-0.4,0.1-0.8,0-1.2l-1.4-10.2
		C139.9,45.2,138.8,45,138.3,45.7z"/>
</g>
<g id="layer1" transform="translate(0,-540.36218)">
	<path id="rect3818-9-8" class="st0" d="M150.7,525.3c-0.4,0-0.7,0.3-0.7,0.8v5h-0.2v-4.4c0-0.5-0.3-0.8-0.7-0.8h-0.6
		c-0.4,0-0.7,0.3-0.7,0.8v5.3v2.6l-1.1-1.8c-0.2-0.3-0.5-0.5-0.8-0.5c-0.1,0-0.2,0-0.3,0.1l-0.5,0.3c0,0-0.1,0-0.1,0.1
		c-0.3,0.2-0.4,0.7-0.1,1l3.3,5.4l0,0c0.1,0.2,0.2,0.3,0.4,0.5v9c0,0.4,0.3,0.7,0.6,0.7h5.7c0.4,0,0.6-0.3,0.6-0.7v-9
		c0.6-0.7,0.9-1.6,0.9-2.5c0-0.1,0-0.1,0-0.1V537v-5.1v-3c0-0.5-0.3-0.8-0.7-0.8H155c-0.4,0-0.7,0.3-0.7,0.8v2.2h-0.2v-3.9
		c0-0.5-0.3-0.8-0.7-0.8h-0.6c-0.4,0-0.7,0.3-0.7,0.8v3.9H152v-5c0-0.5-0.3-0.8-0.7-0.8H150.7L150.7,525.3z"/>
</g>
<g>
	<path class="st0" d="M166.1,2.3c3-0.1,4.7-3.1,4.7-3.1c0-0.1,0.1-0.1,0.1-0.1v-0.1l-0.4-10.3l-4.9,0.1
		C165.6-11.1,166.3,0.6,166.1,2.3z"/>
	<path class="st0" d="M184,6.7c0,0,0-1.4-0.1-1.4c-0.1-0.3-0.4-0.3-0.4-0.4c0-0.3-0.1-1.3-1.4-1.7l-10.5-3.7c0,0-0.1-0.1-0.3-0.1
		l0,0c-0.1,0.1-1.8,3.3-5.1,3.4c0.1,0.7,0.3,2.1,0.1,3.2c0,0.1,0,0.1,0,0.1c0,0.1,0,0.1,0,0.2s-0.1,0.1-0.1,0.1
		c-0.1,0.1-0.1,0.1-0.2,0.1c0,0,0,0-0.1,0c-0.1,0-0.1-0.1-0.1-0.1c-0.1-0.1-0.1-0.1-0.1-0.2s0-0.1,0-0.1c0-0.1,0-0.1,0-0.1
		c0.1-1.4-0.2-3.6-0.2-3.6V2.3c0.1-0.9-0.5-13.5-0.5-13.5l-5.8-0.1c0,0,0.1,4.5,0.8,6.6c0,0,1,3.8,0.6,5.4c0,0-0.6,4.4-0.4,5.1
		c0,0,0,0-0.2,0c-0.2,0.1-0.3,0.4-0.3,0.4l-0.1,2c1,0.8,3.9,0.5,3.9,0.5s12.9,0.1,14.5-0.1c1.9-0.1,3.4-0.4,4.6-0.9
		C184.1,7,184,6.7,184,6.7z"/>
</g>
<text transform="matrix(1 0 0 1 64.6667 77.3956)" class="st0 st1 st2">6mm</text>
<path class="st3" d="M144-2.7h-3.6c0.8-0.6,3-2,2-2.8c-1.2-1-1.2-0.8-1-1.8c0.2-0.9,1.9-1.9,1.2-2.9s-0.2-10.5-8.5-10.7l0,0l0,0l0,0
	l0,0c-7.7,0.2-7.7,9.6-8.4,10.7s1,2,1.3,2.9c0.2,0.9,0.2,0.7-1,1.7c-1,0.8,1.1,2.3,1.9,2.8h-3.6c0,0,1.2,13.5,10.5,13.2
	C144.1,10.2,144-2.7,144-2.7z M134.1-18.9c2.8,0,5,3.2,5,7.1s-1.4,7.1-5,7.1c-3.3,0.1-5-3.2-5-7.1S131.4-18.9,134.1-18.9z"/>
</svg>
