<?xml version="1.0" encoding="utf-8"?>
<!-- Generator: Adobe Illustrator 19.0.0, SVG Export Plug-In . SVG Version: 6.00 Build 0)  -->
<svg version="1.1" id="Layer_1" xmlns="http://www.w3.org/2000/svg" xmlns:xlink="http://www.w3.org/1999/xlink" x="0px" y="0px"
	 viewBox="40.2 -28.7 156.2 156.2" style="enable-background:new 40.2 -28.7 156.2 156.2;" xml:space="preserve">
<style type="text/css">
	.st0{fill:none;stroke:#FFFFFF;stroke-width:7;stroke-miterlimit:10;}
	.st1{fill:#FFFFFF;stroke:#FFFFFF;stroke-miterlimit:10;}
	.st2{fill:#FFFFFF;}
	.st3{font-family:'ArialMT';}
	.st4{font-size:30px;}
</style>
<path class="st0" d="M175.8,124H60.7c-9.4,0-17-7.6-17-17V-8.2c0-9.4,7.6-17,17-17h115.2c9.4,0,17,7.6,17,17V107
	C192.8,116.4,185.2,124,175.8,124z"/>
<g>
	<path class="st1" d="M73.6,23.6l-9.3,16.6c-0.3,0.5-1.1,0.8-1.6,0.4L53,35.4c-0.5-0.1-0.8-1-0.4-1.5L73.4-3.8
		c0.3-0.4,0.5-0.7,1.1-0.7h8.4c0.8,0,1.4-0.7,1.2-1.5L83-10.1c-0.3-0.8,0.3-1.5,1.1-1.5h19.1c0.8,0,1.4,0.7,1.2,1.5l-1,4.4
		c-0.1,0.7,0.4,1.5,1.2,1.5h8.4c0.4,0,0.8,0.3,1.1,0.7l20.6,36.9c0.3,0.5,0.1,1.2-0.4,1.6l-9.6,5.9c-0.5,0.4-1.4,0.1-1.6-0.4
		l-9.3-16.7c-0.5-1.1-2.3-0.7-2.3,0.4L110,38.6c0,0.5,0,1,0,1.5l6.6,46.4c0.1,0.7-0.4,1.4-1.2,1.4h-15c-0.5,0-1.1-0.4-1.2-1L94.8,58
		c-0.3-1.4-2.3-1.4-2.5,0l-4.1,28.9C88.1,87.4,87.7,88,87,88H72c-0.7,0-1.2-0.7-1.2-1.4l7-46.6c0.1-0.5,0.1-1.1,0-1.6l-1.9-14
		C75.8,23,74.3,22.7,73.6,23.6z"/>
</g>
<g>
	<path class="st1" d="M152.6,41.5c4.4,0,6.9-4.8,6.9-5c0-0.1,0.1-0.1,0.1-0.1v-0.1L159,20.2l-7.3,0.3
		C151.8,20.4,152.8,39,152.6,41.5z"/>
	<path class="st1" d="M179,48.5v-2.2c-0.1-0.4-0.6-0.6-0.7-0.6c0-0.4-0.3-2.1-2.1-2.6l-15.6-5.8c0,0-0.3-0.1-0.4-0.1l0,0
		c-0.1,0.3-2.6,5.2-7.6,5.4c0.1,1.1,0.4,3.3,0.3,5c0,0.1,0,0.1,0,0.3s0,0.1,0,0.3c0,0.1,0,0.1-0.1,0.3c-0.1,0.1-0.1,0.1-0.3,0.1
		c0,0,0,0-0.1,0s-0.1,0-0.3-0.1s-0.1-0.3-0.1-0.3v-0.1v-0.3c0.3-2.2-0.4-5.5-0.4-5.7V42c0.3-1.4-0.7-21.1-0.7-21.1l-8.7-0.3
		c0,0,0.1,7,1.1,10.3c0,0,1.5,6.1,1,8.5c0,0-1,6.9-0.6,8c0,0,0,0-0.3,0c-0.3,0.1-0.4,0.6-0.4,0.6l0.1,2.6c1.4,1.2,5.8,0.7,5.8,0.7
		s19,0.1,21.4-0.1c2.8-0.3,5-0.7,6.8-1.5C179.1,48.8,179,48.5,179,48.5z"/>
</g>
<text transform="matrix(1 0 0 1 88.0333 113.9667)" class="st2 st3 st4">4mm</text>
</svg>
