<?xml version="1.0" encoding="utf-8"?>
<!-- Generator: Adobe Illustrator 19.0.0, SVG Export Plug-In . SVG Version: 6.00 Build 0)  -->
<svg version="1.1" id="Layer_1" xmlns="http://www.w3.org/2000/svg" xmlns:xlink="http://www.w3.org/1999/xlink" x="0px" y="0px"
	 viewBox="39.2 -25.9 156.2 156.2" style="enable-background:new 39.2 -25.9 156.2 156.2;" xml:space="preserve">
<style type="text/css">
	.st0{fill:none;stroke:#FFFFFF;stroke-width:7;stroke-miterlimit:10;}
	.st1{fill:#FFFFFF;stroke:#FFFFFF;stroke-miterlimit:10;}
	.st2{fill:#FFFFFF;}
	.st3{font-family:'ArialMT';}
	.st4{font-size:30px;}
</style>
<path class="st0" d="M174.8,126.8H59.7c-9.4,0-17-7.6-17-17V-5.4c0-9.4,7.6-17,17-17h115.2c9.4,0,17,7.6,17,17v115.2
	C191.8,119.2,184.2,126.8,174.8,126.8z"/>
<g>
	<path class="st1" d="M69.3,26.8L60,43.4c-0.3,0.5-1.1,0.8-1.6,0.4l-9.8-5.2c-0.5-0.1-0.8-1-0.4-1.5L69-0.7c0.3-0.4,0.5-0.7,1.1-0.7
		h8.4c0.8,0,1.4-0.7,1.2-1.5L78.6-7c-0.3-0.8,0.3-1.5,1.1-1.5h19.1c0.8,0,1.4,0.7,1.2,1.5l-1,4.4c-0.1,0.7,0.4,1.5,1.2,1.5h8.4
		c0.4,0,0.8,0.3,1.1,0.7l20.6,36.9c0.3,0.5,0.1,1.2-0.4,1.6l-9.6,5.9c-0.5,0.4-1.4,0.1-1.6-0.4l-9.2-16.7c-0.5-1.1-2.3-0.7-2.3,0.4
		l-1.5,14.4c0,0.5,0,1,0,1.5l6.6,46.4c0.1,0.7-0.4,1.4-1.2,1.4h-15c-0.5,0-1.1-0.4-1.2-1l-4.4-28.9c-0.3-1.4-2.3-1.4-2.5,0L83.9,90
		c-0.1,0.5-0.5,1.1-1.2,1.1h-15c-0.7,0-1.2-0.7-1.2-1.4l7-46.6c0.1-0.5,0.1-1.1,0-1.6l-1.9-14C71.5,26.1,70,25.8,69.3,26.8z"/>
</g>
<g id="layer1" transform="translate(0,-540.36218)">
	<path id="rect3818-9-8" class="st1" d="M176.2,592.5c-0.6,0-1.1,0.6-1.1,1.2v7.9h-0.4v-6.9c0-0.7-0.4-1.2-1.1-1.2h-0.8
		c-0.6,0-1.1,0.6-1.1,1.2v8.3v4.1l-1.7-2.8c-0.3-0.4-0.7-0.7-1.1-0.7c-0.1,0-0.3,0-0.4,0.1l-0.7,0.4h-0.1c-0.4,0.3-0.5,1-0.1,1.7
		l5,8.5l0,0c0.1,0.3,0.3,0.6,0.6,0.8v14.2c0,0.6,0.4,1.1,0.8,1.1h8.4c0.6,0,0.8-0.6,0.8-1.1v-14.2c0.8-1.1,1.4-2.5,1.4-3.9v-0.1
		c0,0,0,0,0-0.1v-8.1v-4.8c0-0.7-0.4-1.2-1.1-1.2h-0.8c-0.6,0-1.1,0.6-1.1,1.2v3.3h-0.4v-6.1c0-0.7-0.4-1.2-1.1-1.2h-0.8
		c-0.6,0-1.1,0.6-1.1,1.2v6.1h-0.4v-7.9c0-0.7-0.4-1.2-1.1-1.2h-0.3L176.2,592.5z"/>
</g>
<g>
	<path class="st1" d="M141,80.3c4.4,0,6.9-4.8,6.9-5s0.1-0.1,0.1-0.1v-0.1L147.4,59l-7.3,0.3C140.1,59.2,141.1,77.8,141,80.3z"/>
	<path class="st1" d="M167.3,87.3v-2.2c-0.1-0.4-0.6-0.6-0.7-0.6c0-0.4-0.3-2.1-2.1-2.6L149,76.2c0,0-0.3-0.1-0.4-0.1l0,0
		c-0.1,0.3-2.6,5.2-7.6,5.4c0.1,1.1,0.4,3.3,0.3,5c0,0.1,0,0.1,0,0.3c0,0.2,0,0.1,0,0.3c0,0.2,0,0.1-0.1,0.3
		c-0.1,0.1-0.1,0.1-0.3,0.1c0,0,0,0-0.1,0s-0.1,0-0.3-0.1c-0.1-0.1-0.1-0.3-0.1-0.3V87v-0.4c0.3-2.2-0.4-5.5-0.4-5.7v-0.1
		c0.3-1.4-0.7-21.1-0.7-21.1l-8.7-0.3c0,0,0.1,7,1.1,10.3c0,0,1.5,6.1,1,8.5c0,0-1,6.9-0.6,8c0,0,0,0-0.3,0
		c-0.3,0.1-0.4,0.6-0.4,0.6l0.1,2.6c1.4,1.2,5.8,0.7,5.8,0.7s19,0.1,21.4-0.1c2.8-0.3,5-0.7,6.8-1.5
		C167.4,87.6,167.3,87.3,167.3,87.3z"/>
</g>
<path class="st1" d="M170.8,30.2h-5c1.1-0.8,4.1-2.8,2.8-3.9c-1.7-1.4-1.7-1.1-1.4-2.5c0.3-1.2,2.6-2.6,1.7-4s-0.3-14.5-11.7-14.7
	l0,0l0,0l0,0l0,0c-10.6,0.3-10.6,13.2-11.6,14.7s1.4,2.8,1.8,4c0.3,1.2,0.3,1-1.4,2.3c-1.4,1.1,1.5,3.2,2.6,3.9h-5
	c0,0,1.7,18.6,14.5,18.2C171,48,170.8,30.2,170.8,30.2z M157.2,7.9c3.9,0,6.9,4.4,6.9,9.8s-1.9,9.8-6.9,9.8
	c-4.5,0.1-6.9-4.4-6.9-9.8S153.5,7.9,157.2,7.9z"/>
<text transform="matrix(1 0 0 1 85.5333 118.2667)" class="st2 st3 st4">6mm</text>
</svg>
