<?xml version="1.0" encoding="utf-8"?>
<!-- Generator: Adobe Illustrator 19.0.0, SVG Export Plug-In . SVG Version: 6.00 Build 0)  -->
<svg version="1.1" id="Layer_1" xmlns="http://www.w3.org/2000/svg" xmlns:xlink="http://www.w3.org/1999/xlink" x="0px" y="0px"
	 viewBox="40.2 -28.7 156.2 156.2" style="enable-background:new 40.2 -28.7 156.2 156.2;" xml:space="preserve">
<style type="text/css">
	.st0{fill:none;stroke:#FFFFFF;stroke-width:7;stroke-miterlimit:10;}
	.st1{fill:#FFFFFF;stroke:#FFFFFF;stroke-miterlimit:10;}
	.st2{fill:#FFFFFF;}
	.st3{font-family:'ArialMT';}
	.st4{font-size:30px;}
</style>
<path class="st0" d="M175.8,124H60.7c-9.4,0-17-7.6-17-17V-8.2c0-9.4,7.6-17,17-17h115.2c9.4,0,17,7.6,17,17V107
	C192.8,116.4,185.2,124,175.8,124z"/>
<g>
	<path class="st1" d="M98,20.4l-9.6,17.1c-0.3,0.6-1.1,0.8-1.7,0.4l-10-5.4c-0.6-0.1-0.8-0.9-0.4-1.5L97.8-7.8
		c0.3-0.4,0.6-0.7,1.1-0.7h8.6c0.8,0,1.4-0.7,1.2-1.5l-1.1-4.3c-0.3-0.8,0.3-1.5,1.1-1.5h19.6c0.8,0,1.4,0.7,1.2,1.5l-0.9,4.5
		c-0.1,0.7,0.4,1.5,1.2,1.5h8.6c0.4,0,0.8,0.3,1.1,0.7l21.1,37.9c0.3,0.6,0.1,1.2-0.4,1.7l-9.9,6c-0.6,0.4-1.4,0.1-1.7-0.4
		l-9.4-17.2c-0.6-1.1-2.4-0.7-2.4,0.4l-1.5,14.8c0,0.6,0,0.9,0,1.5l6.8,47.6c0.1,0.7-0.4,1.4-1.2,1.4h-15.5c-0.6,0-1.1-0.4-1.2-0.9
		l-4.5-29.7c-0.3-1.4-2.4-1.4-2.5,0l-4.2,29.7c-0.1,0.6-0.6,1.1-1.2,1.1H96.3c-0.7,0-1.2-0.7-1.2-1.4l7.2-47.9
		c0.1-0.6,0.1-1.1,0-1.7l-2-14.3C100.3,19.6,98.7,19.3,98,20.4z"/>
</g>
<text transform="matrix(1 0 0 1 85.0333 113.9667)" class="st2 st3 st4">3mm</text>
</svg>
