<?xml version="1.0" encoding="utf-8"?>
<!-- Generator: Adobe Illustrator 19.0.0, SVG Export Plug-In . SVG Version: 6.00 Build 0)  -->
<svg version="1.1" id="Layer_1" xmlns="http://www.w3.org/2000/svg" xmlns:xlink="http://www.w3.org/1999/xlink" x="0px" y="0px"
	 viewBox="41.2 -31.5 156.2 156.2" style="enable-background:new 41.2 -31.5 156.2 156.2;" xml:space="preserve">
<style type="text/css">
	.st0{fill:none;stroke:#FFFFFF;stroke-width:7;stroke-miterlimit:10;}
	.st1{fill:#FFFFFF;}
</style>
<path class="st0" d="M176.8,121.2H61.7c-9.4,0-17-7.6-17-17V-11c0-9.4,7.6-17,17-17h115.2c9.4,0,17,7.6,17,17v115.2
	C193.8,113.6,186.2,121.2,176.8,121.2z"/>
<g>
	<path class="st1" d="M106,1.2c-0.8,0-0.9,0.2-1.1,0.6c-0.2,0.6-0.2,0.9-0.2,0.9c0.4,0.6,2.8,1.7,7.7,1.7l0,0c0.6,0,1.1,0,1.7,0
		C111.1,2.6,107.9,1.2,106,1.2z"/>
	<path class="st1" d="M132.7,2.6c0,0,0-0.4-0.2-0.9c-0.2-0.4-0.2-0.6-0.9-0.6c-1.9,0-4.9,1.3-7.6,3c0.6,0,0.9,0,1.5,0
		C129.8,4.3,132.3,3.3,132.7,2.6z"/>
	<path class="st1" d="M117.4,8c-0.4,0.6-0.9,1.5-1.5,2.6h4c-0.4-1.1-0.8-2.3-0.9-3C118.3,7.8,117.7,7.8,117.4,8z"/>
	<path class="st1" d="M164.7,14.5h-39.1c1.5,6.4,2.5,14.5,0.2,20.4l-4.3-1.7c2.1-5.3,0.9-12.8-0.6-18.7h-6.6
		c-1.3,4.3-2.1,10.4-0.8,17.9l-4.5,0.9c-1.5-7.7-0.8-14,0.6-18.9H74.1L59.2,99.6h52.5l7.7-29.5l7.7,29.5h52.5L164.7,14.5z"/>
	<path class="st1" d="M111.7,8.6C111.7,8.6,111.5,8.6,111.7,8.6L111.7,8.6c-3.4,0-7.6-0.6-9.4-3.2c-0.8-0.9-1.3-2.6-0.4-5.1
		c0.9-2.1,2.6-3.2,5.1-3.2c4,0,9.3,3.4,11.7,5.3c2.6-1.9,7.7-5.3,11.7-5.3c2.3,0,4.2,1.1,5.1,3.2c0.9,2.3,0.4,4-0.4,5.1
		c-1.9,2.6-6,3.2-9.3,3.2c-0.8,0-1.5,0-2.1,0c0.2,0.8,0.4,1.5,0.8,2.3h39.1V-7.8H74.9V9.4l-0.2,1.5h36.1
		C111.1,9.9,111.3,9.2,111.7,8.6z"/>
</g>
</svg>
