<?xml version="1.0" encoding="utf-8"?>
<!-- Generator: Adobe Illustrator 19.0.0, SVG Export Plug-In . SVG Version: 6.00 Build 0)  -->
<svg version="1.1" id="Layer_1" xmlns="http://www.w3.org/2000/svg" xmlns:xlink="http://www.w3.org/1999/xlink" x="0px" y="0px"  width="100px" height="100px"
	 viewBox="45 -45.1 160 160" style="enable-background:new 45 -45.1 160 160;" xml:space="preserve">
<style type="text/css">
	.st0{fill:#333333;}
</style>
<path class="st0" d="M90,114.9h30v-15H90V114.9z M90-30.1h30v-15H90V-30.1z M65-45.1c-11.1,0-20,9-20,20V-10h15v-10.1
	c0-5.5,4.5-10,10-10h9.9l-0.1-15H65z M60,89.9V79.8H45v15.1c0,11.1,9,20,20,20h14.9l0.1-15H70C64.4,99.9,60,95.4,60,89.9z M60-0.1
	H45v30h15V-0.1z M130,114.9h30v-15h-30V114.9z M185-45.1h-14.9l-0.1,15h9.9c5.5,0,10,4.5,10,10v10h15v-15
	C205-36.2,196-45.1,185-45.1z M190,29.9h15v-30h-15V29.9L190,29.9z M190,89.9c0,5.5-4.5,10-10,10h-9.9l0.1,15H185c11.1,0,20-9,20-20
	V79.8h-15V89.9L190,89.9z M130-30.1h30v-15h-30V-30.1z M190,69.9h15v-30h-15V69.9L190,69.9z M60,39.9H45v30h15V39.9z"/>
<path class="st0" d="M93.2-18.3v-7.4h-3.7v7.4c0.6,0,1.2-0.1,1.8-0.1S92.6-18.3,93.2-18.3z M82.9-16.5l-3.7-6.5L76-21.1l3.7,6.5
	C80.7-15.3,81.7-15.9,82.9-16.5z M106.7-21.1l-3.2-1.8l-3.8,6.5c1.1,0.5,2.2,1.1,3.2,1.8L106.7-21.1z M74.8-9.7l-6.5-3.8l-1.8,3.2
	L73-6.6C73.5-7.7,74.1-8.8,74.8-9.7z M91.3-14.7c-9.1,0-16.6,7.4-16.6,16.6s7.4,16.6,16.6,16.6s16.6-7.4,16.6-16.6
	S100.5-14.7,91.3-14.7z M116.2-10.3l-1.8-3.2l-6.5,3.7c0.7,1,1.3,2.1,1.8,3.2L116.2-10.3z M99.8,20.3l3.7,6.5l3.2-1.8l-3.7-6.5
	C102,19.2,100.9,19.7,99.8,20.3z M107.9,13.5l6.5,3.7l1.8-3.2l-6.5-3.7C109.2,11.5,108.6,12.6,107.9,13.5z M111.5,0.1
	c0,0.6,0.1,1.2,0.1,1.8s0,1.3-0.1,1.8h7.4V0.1C118.9,0.1,111.5,0.1,111.5,0.1z M89.5,22.1v7.4h3.7v-7.4c-0.6,0-1.2,0.1-1.8,0.1
	S90.1,22.1,89.5,22.1z M75.9,24.9l3.2,1.8l3.7-6.5c-1.1-0.5-2.2-1.1-3.2-1.8L75.9,24.9z M71.1,1.9c0-0.6,0-1.3,0.1-1.8h-7.4v3.7h7.4
	C71.1,3.2,71.1,2.5,71.1,1.9z M66.5,14.1l1.8,3.2l6.5-3.7c-0.7-1-1.3-2.1-1.8-3.2L66.5,14.1z"/>
</svg>
