<?xml version="1.0" encoding="utf-8"?>
<!-- Generator: Adobe Illustrator 19.0.0, SVG Export Plug-In . SVG Version: 6.00 Build 0)  -->
<svg version="1.1" id="Layer_1" xmlns="http://www.w3.org/2000/svg" xmlns:xlink="http://www.w3.org/1999/xlink" x="0px" y="0px"
	 viewBox="39.2 -25.9 156.2 156.2" style="enable-background:new 39.2 -25.9 156.2 156.2;" xml:space="preserve">
<style type="text/css">
	.st0{fill:none;stroke:#FFFFFF;stroke-width:7;stroke-miterlimit:10;}
	.st1{fill:#FFFFFF;stroke:#FFFFFF;stroke-miterlimit:10;}
	.st2{fill:#FFFFFF;}
	.st3{font-family:'ArialMT';}
	.st4{font-size:30px;}
</style>
<path class="st0" d="M174.8,126.8H59.7c-9.4,0-17-7.6-17-17V-5.4c0-9.4,7.6-17,17-17h115.2c9.4,0,17,7.6,17,17v115.2
	C191.8,119.2,184.2,126.8,174.8,126.8z"/>
<g>
	<path class="st1" d="M72.6,26.4L63.3,43c-0.3,0.5-1.1,0.8-1.6,0.4L52,38.2c-0.5-0.1-0.8-1-0.4-1.5L72.4-1c0.3-0.4,0.5-0.7,1.1-0.7
		h8.4c0.8,0,1.4-0.7,1.2-1.5L82-7.3c-0.3-0.8,0.3-1.5,1.1-1.5h19.1c0.8,0,1.4,0.7,1.2,1.5l-1,4.4c-0.1,0.7,0.4,1.5,1.2,1.5h8.4
		c0.4,0,0.8,0.3,1.1,0.7l20.6,36.9c0.3,0.5,0.1,1.2-0.4,1.6l-9.6,5.9c-0.5,0.4-1.4,0.1-1.6-0.4l-9.3-16.7c-0.5-1.1-2.3-0.7-2.3,0.4
		L109,41.4c0,0.5,0,1,0,1.5l6.6,46.4c0.1,0.7-0.4,1.4-1.2,1.4h-15c-0.5,0-1.1-0.4-1.2-1l-4.4-28.9c-0.3-1.4-2.3-1.4-2.5,0l-4.1,28.9
		c-0.1,0.5-0.5,1.1-1.2,1.1H71c-0.7,0-1.2-0.7-1.2-1.4l7-46.6c0.1-0.5,0.1-1.1,0-1.6l-1.9-14C74.8,25.8,73.3,25.5,72.6,26.4z"/>
</g>
<g id="layer1" transform="translate(0,-540.36218)">
	<path id="rect3818-9-8" class="st1" d="M154.2,539.9c-0.6,0-1.1,0.6-1.1,1.2v7.9h-0.4v-6.9c0-0.7-0.4-1.2-1.1-1.2h-0.8
		c-0.6,0-1.1,0.6-1.1,1.2v8.3v4.1l-1.7-2.8c-0.3-0.4-0.7-0.7-1.1-0.7c-0.1,0-0.3,0-0.4,0.1l-0.7,0.4h-0.1c-0.4,0.3-0.5,1-0.1,1.7
		l5,8.5l0,0c0.1,0.3,0.3,0.6,0.6,0.8v14.2c0,0.6,0.4,1.1,0.8,1.1h8.4c0.6,0,0.8-0.6,0.8-1.1v-14.2c0.8-1.1,1.4-2.5,1.4-3.9v-0.1
		c0,0,0,0,0-0.1v-8.1v-4.8c0-0.7-0.4-1.2-1.1-1.2h-0.8c-0.6,0-1.1,0.6-1.1,1.2v3.3h-0.4v-6.1c0-0.7-0.4-1.2-1.1-1.2h-0.8
		c-0.6,0-1.1,0.6-1.1,1.2v6.1h-0.4v-7.9c0-0.7-0.4-1.2-1.1-1.2h-0.3L154.2,539.9z"/>
</g>
<g>
	<path class="st1" d="M156.3,81.3c4.4,0,6.9-4.8,6.9-5s0.1-0.1,0.1-0.1v-0.1L162.7,60l-7.3,0.3C155.5,60.2,156.4,78.8,156.3,81.3z"
		/>
	<path class="st1" d="M182.6,88.3v-2.2c-0.1-0.4-0.6-0.6-0.7-0.6c0-0.4-0.3-2.1-2.1-2.6l-15.6-5.8c0,0-0.3-0.1-0.4-0.1l0,0
		c-0.1,0.3-2.6,5.2-7.6,5.4c0.1,1.1,0.4,3.3,0.3,5c0,0.1,0,0.1,0,0.3c0,0.2,0,0.1,0,0.3c0,0.2,0,0.1-0.1,0.3
		c-0.1,0.1-0.1,0.1-0.3,0.1c0,0,0,0-0.1,0s-0.1,0-0.3-0.1c-0.1-0.1-0.1-0.3-0.1-0.3v-0.1v-0.3c0.3-2.2-0.4-5.5-0.4-5.7v-0.1
		c0.3-1.4-0.7-21.1-0.7-21.1l-8.7-0.3c0,0,0.1,7,1.1,10.3c0,0,1.5,6.1,1,8.5c0,0-1,6.9-0.6,8c0,0,0,0-0.3,0
		c-0.3,0.1-0.4,0.6-0.4,0.6l0.1,2.6c1.4,1.2,5.8,0.7,5.8,0.7s19,0.1,21.4-0.1c2.8-0.3,5-0.7,6.8-1.5
		C182.8,88.6,182.6,88.3,182.6,88.3z"/>
</g>
<text transform="matrix(1 0 0 1 87.0333 116.7667)" class="st2 st3 st4">5mm</text>
</svg>
