<?xml version="1.0" encoding="utf-8"?>
<!-- Generator: Adobe Illustrator 19.0.0, SVG Export Plug-In . SVG Version: 6.00 Build 0)  -->
<svg version="1.1" id="Layer_1" xmlns="http://www.w3.org/2000/svg" xmlns:xlink="http://www.w3.org/1999/xlink" x="0px" y="0px"  width="100px" height="100px"
	 viewBox="45 -45.1 160 160" style="enable-background:new 45 -45.1 160 160;" xml:space="preserve">
<style type="text/css">
	.st0{fill:#333333;}
</style>

<g>
	<path class="st0" d="M111.7-4.7c-2,0-3.9,0.2-5.7,0.6c1.6-1.1,3.1-2.3,4.4-3.7c7.8-7.7-1.3-16.7-9-9c-1.4,1.4-2.6,3-3.7,4.4
		c0.4-1.8,0.6-3.7,0.6-5.7c0-11-12.8-11-12.8,0c0,2,0.2,3.9,0.6,5.7c-1.1-1.6-2.3-3.1-3.7-4.4c-7.8-7.8-16.9,1.3-9.1,9
		c1.4,1.4,3,2.6,4.4,3.7c-1.8-0.4-3.7-0.6-5.7-0.6c-11,0-11,12.8,0,12.8c2,0,3.9-0.2,5.7-0.6c-1.6,1.1-3.1,2.3-4.4,3.7
		c-7.8,7.8,1.3,16.9,9,9.1c1.4-1.4,2.6-3,3.7-4.4c-0.4,1.8-0.6,3.7-0.6,5.7c0,11,12.8,11,12.8,0c0-2-0.2-3.9-0.6-5.7
		c1.1,1.6,2.3,3.1,3.7,4.4c7.8,7.8,16.9-1.3,9.1-9c-1.4-1.4-3-2.6-4.4-3.7c1.8,0.4,3.7,0.6,5.7,0.6C122.7,8.3,122.7-4.7,111.7-4.7z
		 M86.8-2.9c2.9-2.9,7.7-2.9,10.5,0c2.8,2.8,2.9,6.9,0.6,9.9c-1.3,1.6-3.3,2.5-5.5,2.5c-4.2,0-7.5-3.3-7.5-7.5
		c0-1.8,0.6-3.3,1.7-4.7C86.7-2.7,86.7-2.9,86.8-2.9z"/>
</g>
</svg>
