<?xml version="1.0" encoding="utf-8"?>
<!-- Generator: Adobe Illustrator 19.0.0, SVG Export Plug-In . SVG Version: 6.00 Build 0)  -->
<svg version="1.1" id="Layer_1" xmlns="http://www.w3.org/2000/svg" xmlns:xlink="http://www.w3.org/1999/xlink" x="0px" y="0px" width="100px" height="100px"
	 viewBox="45 -45.1 160 160" style="enable-background:new 45 -45.1 160 160;" xml:space="preserve">
<style type="text/css">
	.st0{fill:#333333;}
</style>
<path class="st0" d="M90,114.9h30v-15H90V114.9z M90-30.1h30v-15H90V-30.1z M65-45.1c-11.1,0-20,9-20,20V-10h15v-10.1
	c0-5.5,4.5-10,10-10h9.9l-0.1-15H65z M60,89.9V79.8H45v15.1c0,11.1,9,20,20,20h14.9l0.1-15H70C64.4,99.9,60,95.4,60,89.9z M60-0.1
	H45v30h15V-0.1z M130,114.9h30v-15h-30V114.9z M185-45.1h-14.9l-0.1,15h9.9c5.5,0,10,4.5,10,10v10h15v-15
	C205-36.2,196-45.1,185-45.1z M190,29.9h15v-30h-15V29.9L190,29.9z M190,89.9c0,5.5-4.5,10-10,10h-9.9l0.1,15H185c11.1,0,20-9,20-20
	V79.8h-15V89.9L190,89.9z M130-30.1h30v-15h-30V-30.1z M190,69.9h15v-30h-15V69.9L190,69.9z M60,39.9H45v30h15V39.9z"/>
<g id="christmas">
	<path id="snowflake_winter_christmas" class="st0" d="M88.8-5.4v-6.9L81-20c-0.9-0.9-0.9-2.5,0-3.5c1-1,2.5-1,3.5,0l4.2,4.2v-3.9
		c0-1.4,1.1-2.4,2.5-2.4s2.5,1.1,2.5,2.4v3.9l4.2-4.2c1-1,2.5-1,3.5,0c1,1,1,2.5,0,3.5l-7.7,7.7v6.8c0.9,0.3,1.7,0.8,2.4,1.4
		l5.9-3.4l2.9-10.6c0.4-1.3,1.7-2.1,3-1.7c1.3,0.4,2.1,1.7,1.7,3l-1.6,5.8l3.4-2c1.2-0.7,2.7-0.3,3.4,0.9c0.7,1.2,0.3,2.7-0.9,3.4
		l-3.4,2l5.8,1.6c1.3,0.4,2.1,1.7,1.7,3s-1.7,2.1-3,1.7l-10.6-2.9l-6,3.4c0.1,0.4,0.1,0.8,0.1,1.3c0,0.5,0,0.9-0.1,1.4l6,3.4
		l10.6-2.9c1.3-0.4,2.7,0.4,3,1.7c0.4,1.3-0.4,2.7-1.7,3l-5.8,1.6l3.4,2c1.2,0.7,1.6,2.2,0.9,3.4c-0.7,1.2-2.2,1.6-3.4,0.9l-3.4-2
		l1.6,5.8c0.4,1.3-0.4,2.7-1.7,3c-1.3,0.4-2.7-0.4-3-1.7l-2.9-10.6l-6-3.5c-0.7,0.6-1.5,1-2.3,1.3v6.9l7.7,7.7
		c0.9,0.9,0.9,2.5,0,3.5c-1,1-2.5,1-3.5,0l-4.2-4.2v3.9c0,1.4-1.1,2.4-2.5,2.4s-2.5-1.1-2.5-2.4v-3.9l-4.2,4.2c-1,1-2.5,1-3.5,0
		s-1-2.5,0-3.5l7.7-7.7V8.6c-0.8-0.3-1.6-0.8-2.3-1.3l-6,3.5l-2.9,10.6c-0.4,1.3-1.7,2.1-3,1.7c-1.3-0.4-2.1-1.7-1.7-3l1.6-5.8
		l-3.4,2c-1.2,0.7-2.7,0.3-3.4-0.9c-0.7-1.2-0.3-2.7,0.9-3.4l3.4-2l-5.8-1.6c-1.3-0.4-2.1-1.7-1.7-3s1.7-2.1,3-1.7l10.6,2.9l6-3.4
		c-0.1-0.4-0.1-0.9-0.1-1.4c0-0.4,0-0.9,0.1-1.3l-6-3.4L67.5-0.2c-1.3,0.4-2.7-0.4-3-1.7c-0.4-1.3,0.4-2.7,1.7-3L72-6.6l-3.4-2.1
		c-1.2-0.7-1.6-2.2-0.9-3.4c0.7-1.2,2.2-1.6,3.4-0.9l3.4,2l-1.6-5.8c-0.4-1.3,0.4-2.7,1.7-3c1.3-0.4,2.7,0.4,3,1.7l2.9,10.6L86.5-4
		C87.1-4.7,87.9-5.1,88.8-5.4z"/>
</g>
</svg>
