<?xml version="1.0" encoding="utf-8"?>
<!-- Generator: Adobe Illustrator 19.0.0, SVG Export Plug-In . SVG Version: 6.00 Build 0)  -->
<svg version="1.1" id="Layer_1" xmlns="http://www.w3.org/2000/svg" xmlns:xlink="http://www.w3.org/1999/xlink" x="0px" y="0px" width="160px" height="160px"
	 viewBox="45 -45.1 160 160" style="enable-background:new 45 -45.1 160 160;" xml:space="preserve">
<style type="text/css">
	.st0{fill:#333333;}
	.st1{font-family:'ArialMT';}
	.st2{font-size:30px;}
</style>
<g>
	<path class="st0" d="M139.1,46l-6.8,12.1c-0.2,0.4-0.8,0.6-1.2,0.3l-7.1-3.8c-0.4-0.1-0.6-0.7-0.3-1.1L138.9,26
		c0.2-0.3,0.4-0.5,0.8-0.5h6.1c0.6,0,1-0.5,0.9-1.1l-0.8-3c-0.2-0.6,0.2-1.1,0.8-1.1h13.9c0.6,0,1,0.5,0.9,1.1l-0.7,3.2
		c-0.1,0.5,0.3,1.1,0.9,1.1h6.1c0.3,0,0.6,0.2,0.8,0.5l15,26.9c0.2,0.4,0.1,0.9-0.3,1.2l-7,4.3c-0.4,0.3-1,0.1-1.2-0.3l-6.7-12.2
		c-0.4-0.8-1.7-0.5-1.7,0.3l-1.1,10.5c0,0.4,0,0.7,0,1.1l4.8,33.8c0.1,0.5-0.3,1-0.9,1h-10.9c-0.4,0-0.8-0.3-0.9-0.7L154.5,71
		c-0.2-1-1.7-1-1.8,0l-3,21.1c-0.1,0.4-0.4,0.8-0.9,0.8h-10.9c-0.5,0-0.9-0.5-0.9-1l5.1-34c0.1-0.4,0.1-0.8,0-1.2l-1.4-10.2
		C140.7,45.5,139.6,45.3,139.1,46z"/>
</g>
<g id="layer1" transform="translate(0,-540.36218)">
	<path id="rect3818-9-8" class="st0" d="M139.2,517.2c-0.6,0-1,0.5-1,1.2v7.4h-0.3v-6.5c0-0.7-0.4-1.2-1-1.2h-0.8
		c-0.6,0-1,0.5-1,1.2v7.8v3.9l-1.5-2.6c-0.3-0.4-0.7-0.7-1.1-0.7c-0.1,0-0.3,0-0.4,0.1l-0.7,0.4c0,0-0.1,0-0.1,0.1
		c-0.4,0.3-0.5,1-0.2,1.5l4.6,8l0,0c0.1,0.3,0.3,0.5,0.5,0.8V552c0,0.6,0.4,1,0.8,1h8c0.5,0,0.8-0.5,0.8-1v-13.4
		c0.8-1,1.2-2.3,1.2-3.7c0-0.1,0-0.1,0-0.2v-0.1V527v-4.4c0-0.7-0.4-1.2-1-1.2h-0.8c-0.6,0-1,0.5-1,1.2v3.2h-0.3V520
		c0-0.7-0.4-1.2-1-1.2h-0.8c-0.6,0-1,0.5-1,1.2v5.8H141v-7.4c0-0.7-0.4-1.2-1-1.2L139.2,517.2L139.2,517.2z"/>
</g>
<g>
	<path class="st0" d="M160.7,2.7c4.2-0.1,6.5-4.6,6.5-4.6c0-0.1,0.1-0.1,0.2-0.1v-0.1l-0.5-15.3l-6.9,0.2
		C160-17.3,161,0.2,160.7,2.7z"/>
	<path class="st0" d="M185.7,9.2c0,0,0-2.1-0.1-2.1c-0.1-0.4-0.5-0.5-0.6-0.6c0-0.4-0.2-1.9-1.9-2.5l-14.7-5.5c0,0-0.2-0.1-0.4-0.2
		l0,0c-0.1,0.2-2.5,4.9-7.1,5.1c0.2,1.1,0.4,3.1,0.2,4.7c0,0.1,0,0.1,0,0.2c0,0.1,0,0.2,0,0.3S161,8.8,161,8.8
		c-0.1,0.1-0.2,0.1-0.3,0.1c0,0,0,0-0.1,0s-0.2-0.1-0.2-0.1c-0.1-0.1-0.1-0.2-0.1-0.3s0-0.1,0-0.2c0-0.1,0-0.1,0-0.2
		c0.2-2.1-0.3-5.3-0.3-5.3V2.7c0.2-1.3-0.7-20-0.7-20l-8.1-0.2c0,0,0.1,6.7,1.1,9.8c0,0,1.4,5.7,0.9,8c0,0-0.9,6.5-0.5,7.5
		c0,0,0,0-0.3,0c-0.3,0.1-0.4,0.6-0.4,0.6l-0.1,2.9c1.4,1.2,5.4,0.7,5.4,0.7s18,0.1,20.2-0.1c2.6-0.2,4.7-0.6,6.4-1.4
		C185.8,9.6,185.7,9.2,185.7,9.2z"/>
</g>
<text transform="matrix(1 0 0 1 65.5 77.6667)" class="st0 st1 st2">5mm</text>
</svg>
