<?xml version="1.0" encoding="utf-8"?>
<!-- Generator: Adobe Illustrator 19.0.0, SVG Export Plug-In . SVG Version: 6.00 Build 0)  -->
<svg version="1.1" id="Layer_1" xmlns="http://www.w3.org/2000/svg" xmlns:xlink="http://www.w3.org/1999/xlink" x="0px" y="0px" width="160px" height="160px"
	 viewBox="45 -45.1 160 160" style="enable-background:new 45 -45.1 160 160;" xml:space="preserve">
<style type="text/css">
	.st0{fill:#333333;}
</style>
<path class="st0" d="M90,114.9h30v-15H90V114.9z M90-30.1h30v-15H90V-30.1z M65-45.1c-11.1,0-20,9-20,20V-10h15v-10.1
	c0-5.5,4.5-10,10-10h9.9l-0.1-15H65z M60,89.9V79.8H45v15.1c0,11.1,9,20,20,20h14.9l0.1-15H70C64.4,99.9,60,95.4,60,89.9z M60-0.1
	H45v30h15V-0.1z M130,114.9h30v-15h-30V114.9z M185-45.1h-14.9l-0.1,15h9.9c5.5,0,10,4.5,10,10v10h15v-15
	C205-36.2,196-45.1,185-45.1z M190,29.9h15v-30h-15V29.9L190,29.9z M190,89.9c0,5.5-4.5,10-10,10h-9.9l0.1,15H185c11.1,0,20-9,20-20
	V79.8h-15V89.9L190,89.9z M130-30.1h30v-15h-30V-30.1z M190,69.9h15v-30h-15V69.9L190,69.9z M60,39.9H45v30h15V39.9z"/>
<path class="st0" d="M121.6-2.2L121.6-2.2C121.5-2.2,121.5-2.2,121.6-2.2C121.5-2.2,121.5-2.2,121.6-2.2c-3.4,0-8.8,2.1-11.5,3.2
	l-0.6-2.5c-0.1-0.6-0.5-0.9-1-1.1c-0.1-0.1-0.3-0.1-0.4-0.1c-0.4,0-0.8,0.2-1,0.4L101,4l4-18.4c0.1-0.6-0.2-1.3-0.7-1.5
	c-0.2-0.1-0.5-0.2-0.7-0.2c-0.3,0-0.7,0.1-1,0.4l-3.1,2.8L95-24.8c-0.2-0.6-0.8-1.1-1.3-1.1l0,0c-0.6,0-1.1,0.6-1.3,1.1l-4.6,11.6
	l-3.1-2.8c-0.3-0.2-0.6-0.3-1-0.3c-0.3,0-0.5,0.1-0.7,0.2c-0.6,0.3-0.8,0.9-0.7,1.5l4,18.4l-6-6.3c-0.3-0.3-0.7-0.4-1-0.4
	c-0.1,0-0.3,0-0.4,0.1c-0.5,0.2-0.9,0.6-1,1.1l-0.6,2.5c-2.7-1.1-8.1-3.2-11.5-3.2c0,0,0,0-0.1,0c-0.6,0-1.1,0.4-1.3,0.9
	s-0.1,1.2,0.3,1.6c1.5,1.4,5.3,5.3,7,8.5c-1.3,0.4-2.9,1-3.6,1.5c-0.5,0.3-0.7,0.8-0.7,1.4c0.1,0.6,0.4,1,0.9,1.2
	c1.8,0.6,9.5,3.3,13.3,4.1c-1.2,1.8-4.1,5.1-6.7,7.8c-0.3,0.4-0.5,0.9-0.3,1.4c0.2,0.5,0.6,0.9,1,1c0.1,0,0.8,0.2,2,0.2
	c1.8,0,4.8-0.4,8.5-2.3l6.3-3.2v8.4c0,2.3-0.4,6.4,4.8,8.9c0.2,0.1,0.4,0.1,0.6,0.1c0.5,0,1-0.3,1.3-0.8c0.3-0.7,0-1.5-0.7-1.8
	c-3.7-1.7-4.1-4.1-4.1-6.4v-8.4l6.4,3.2c3.2,2,6,2.5,7.8,2.5s2.9-0.4,3-0.5c0.4-0.2,0.8-0.6,0.9-1c0.1-0.5-0.1-0.9-0.4-1.3
	c-2.6-2.7-5.4-6-6.7-7.8c3.8-0.8,11.5-3.5,13.3-4.1c0.6-0.2,0.9-0.7,0.9-1.2c0.1-0.6-0.2-1.1-0.7-1.4c-0.7-0.4-2.3-1-3.6-1.5
	c1.7-3.1,5.4-7,7-8.4c0.3-0.3,0.5-0.7,0.5-1.1C123-1.6,122.4-2.2,121.6-2.2z"/>
</svg>
