<?xml version="1.0" encoding="utf-8"?>
<!-- Generator: Adobe Illustrator 19.0.0, SVG Export Plug-In . SVG Version: 6.00 Build 0)  -->
<svg version="1.1" id="Layer_1" xmlns="http://www.w3.org/2000/svg" xmlns:xlink="http://www.w3.org/1999/xlink" x="0px" y="0px"  width="100px" height="100px"
	 viewBox="45 -45.1 160 160" style="enable-background:new 45 -45.1 160 160;" xml:space="preserve">
<style type="text/css">
	.st0{fill:#333333;}
</style>

<path class="st0" d="M118.4-3.5L118.4-3.5C118.3-3.5,118.3-3.5,118.4-3.5C118.3-3.5,118.3-3.5,118.4-3.5c-3.2,0-8.3,2-10.9,3
	L107-2.9c-0.1-0.6-0.5-0.8-0.9-1C105.9-4,105.8-4,105.7-4c-0.4,0-0.8,0.2-0.9,0.4L99,2.3l3.8-17.4c0.1-0.6-0.2-1.2-0.7-1.4
	c-0.2-0.1-0.5-0.2-0.7-0.2c-0.3,0-0.7,0.1-0.9,0.4l-2.9,2.6l-4.2-11.2c-0.2-0.6-0.8-1-1.2-1l0,0c-0.6,0-1,0.6-1.2,1l-4.3,11
	l-2.9-2.6c-0.3-0.2-0.6-0.3-0.9-0.3c-0.3,0-0.5,0.1-0.7,0.2c-0.6,0.3-0.8,0.8-0.7,1.4l3.8,17.4l-5.7-5.9c-0.3-0.3-0.7-0.4-0.9-0.4
	c-0.1,0-0.3,0-0.4,0.1c-0.5,0.2-0.8,0.6-0.9,1l-0.6,2.4c-2.5-1-7.6-3-10.9-3c0,0,0,0-0.1,0c-0.6,0-1,0.4-1.2,0.8
	c-0.2,0.5-0.1,1.1,0.3,1.5c1.4,1.3,5,5,6.6,8c-1.2,0.4-2.7,0.9-3.4,1.4c-0.5,0.3-0.7,0.8-0.7,1.3c0.1,0.6,0.4,0.9,0.8,1.1
	c1.7,0.6,9,3.1,12.6,3.9c-1.1,1.7-3.9,4.8-6.3,7.4c-0.3,0.4-0.5,0.8-0.3,1.3c0.2,0.5,0.6,0.8,0.9,0.9c0.1,0,0.8,0.2,1.9,0.2
	c1.7,0,4.5-0.4,8-2.2l5.9-3V27c0,2.2-0.4,6,4.5,8.4c0.2,0.1,0.4,0.1,0.6,0.1c0.5,0,0.9-0.3,1.2-0.8c0.3-0.7,0-1.4-0.7-1.7
	c-3.5-1.6-3.9-3.9-3.9-6v-7.9l6,3c3,1.9,5.7,2.4,7.4,2.4s2.7-0.4,2.8-0.5c0.4-0.2,0.8-0.6,0.8-0.9c0.1-0.5-0.1-0.8-0.4-1.2
	c-2.5-2.5-5.1-5.7-6.3-7.4c3.6-0.8,10.9-3.3,12.6-3.9c0.6-0.2,0.8-0.7,0.8-1.1c0.1-0.6-0.2-1-0.7-1.3c-0.7-0.4-2.2-0.9-3.4-1.4
	c1.6-2.9,5.1-6.6,6.6-7.9c0.3-0.3,0.5-0.7,0.5-1C119.7-3,119.2-3.5,118.4-3.5z"/>
</svg>
