<?xml version="1.0" encoding="utf-8"?>
<!-- Generator: Adobe Illustrator 19.0.0, SVG Export Plug-In . SVG Version: 6.00 Build 0)  -->
<svg version="1.1" id="Layer_1" xmlns="http://www.w3.org/2000/svg" xmlns:xlink="http://www.w3.org/1999/xlink" x="0px" y="0px"
	 viewBox="42.2 -34.3 156.2 156.2" style="enable-background:new 42.2 -34.3 156.2 156.2;" xml:space="preserve">
<style type="text/css">
	.st0{fill:none;stroke:#FFFFFF;stroke-width:7;stroke-miterlimit:10;}
	.st1{fill:#FFFFFF;}
	.st2{fill:#2B2A29;}
	.st3{fill:none;}
</style>
<path class="st0" d="M177.8,118.4H62.7c-9.4,0-17-7.6-17-17V-13.8c0-9.4,7.6-17,17-17h115.2c9.4,0,17,7.6,17,17v115.2
	C194.8,110.8,187.2,118.4,177.8,118.4z"/>
<g id="Layer_x0020_1">
	<path class="st1" d="M119.6,87.2v0.4c-1,1.8-2.4,3.3-4.1,4.5c-1.6,1.2-3.7,2.3-6.5,3c-2.5,0.7-5.4,1.3-8.2,1
		c-0.9-0.1-2.1-0.3-3.2-0.7c-2.3-0.5-3.8-1.2-3.6-1.8c0.4-1.3,3.4-4.1,4.4-4.9c4.1-3,9.1-4.5,14.4-4c3.8,0.4,6.3,2,7,2.2L119.6,87.2
		L119.6,87.2z M169.9,29.8c1.8-1.7,4.5-4.8,4.9-9c0.2-1.3,0.1-2.8,0-4.1l0,0c0-2.6-0.8-6-1.6-8.7c-0.5-1.9-0.9-3.1-0.9-3.1
		c-1.6,0.9-4.1,4-5.2,6.1c-3.2,6.7-3.3,14.1,1,20.3C168.7,31,169.3,30.5,169.9,29.8L169.9,29.8L169.9,29.8z M167.4,47.7
		c0,0,0.6,0,1.6-0.5c1.8-0.7,3.7-2,4.5-2.8c1.2-1.2,2.3-2.5,3.3-4c2-2.4,3-5.1,3.4-7.6c0-0.1,0.1-0.3,0.1-0.4
		c0.6-2.6,0.4-4.1,0.1-5.9c-0.2-1.6-0.5-2.5-0.5-2.5c-1.8,0.2-5.3,2.5-6.2,3.3c-1.6,1.5-3,2.8-4.3,5c-1.2,2-2.1,4.3-2.6,6.9
		C166.5,41.6,166.4,45.8,167.4,47.7L167.4,47.7L167.4,47.7L167.4,47.7z M161.3,63.2c0,0,6.7,1.1,12.9-4c3.1-2.5,4.8-6.1,5.6-9.1
		l0.1-0.2c0.4-1,0.6-3.1,0.8-3.7v-1.3c-7.8,0-14.3,4.6-17.5,10.8C162.3,57.4,161.1,60.9,161.3,63.2L161.3,63.2z M174.9,64.8
		c0,0-1.8,7.2-10.5,10.3l0,0c-2,0.9-4.1,1.5-6,1.8c-2,0.3-6.5-0.1-7.8-1.2c0.8-2.4,2.4-4.3,3.7-5.8
		C158.5,64.9,167.6,62.2,174.9,64.8L174.9,64.8L174.9,64.8z M162.5,82.1c0,0-2.7,6-12.7,5.8c-2.6,0.2-5.3,0.2-7.6-0.5h-0.1
		c-0.7-0.2-1.3-0.4-1.8-0.7c-1.6-0.7-2.6-1.6-4.1-2.5c0.7-1.3,3.4-3.4,5.2-4.3c2.2-1.1,4.2-1.8,7.1-2.2c5.8-0.7,10.9,1.2,14.3,4
		C162.8,81.7,162.6,82,162.5,82.1L162.5,82.1z M124.3,92.2c1.6,1.2,3.7,2.3,6.6,3c2.5,0.7,5.4,1.3,8.2,1c0.9-0.1,2.1-0.3,3.2-0.7
		c2.3-0.5,3.8-1.2,3.6-1.8c-0.4-1.3-3.4-4.1-4.4-4.9c-4.1-3-9.1-4.5-14.4-4c-3.8,0.4-6.3,2-7,2.2v0.4c1,1.8,2.4,3.3,4.1,4.5
		L124.3,92.2L124.3,92.2z M69.9,29.8c-1.8-1.7-4.5-4.8-4.9-9c-0.2-1.3-0.1-2.8,0-4.1l0,0c0-2.6,0.8-6,1.6-8.7
		c0.5-1.9,0.9-3.1,0.9-3.1c1.6,0.9,4.1,4,5.2,6.1c3.2,6.7,3.3,14.1-1,20.3C71.1,31,70.5,30.5,69.9,29.8L69.9,29.8L69.9,29.8z
		 M72.4,47.7c0,0-0.6,0-1.6-0.5c-1.8-0.7-3.7-2-4.5-2.8c-1.2-1.2-2.3-2.5-3.3-4c-2-2.4-3.6-10.3-4.1-12.7c0-0.1-0.1-0.3-0.1-0.4
		c-0.6-2.6-0.4-4.1-0.1-5.9c0.2-1.6,0.5-2.5,0.5-2.5c1.8,0.2,5.9,7.7,6.9,8.5c1.6,1.5,3,2.8,4.3,5c1.2,2,2.1,4.3,2.6,6.9
		C73.3,41.6,73.4,45.8,72.4,47.7L72.4,47.7L72.4,47.7z M78.5,63.2c0,0-6.7,1.1-12.9-4c-3.1-2.5-5.5-11.3-6.3-14.3l-0.1-0.2
		c-0.4-1-0.6-3.1-0.8-3.7v-1.3c7.8,0,15,9.8,18.2,16C77.5,57.4,78.7,60.9,78.5,63.2L78.5,63.2z M64.9,64.8c0,0,1.8,7.2,10.5,10.3
		l0,0c2,0.9,4.1,1.5,6,1.8c2,0.3,6.5-0.1,7.8-1.2c-0.8-2.4-2.4-4.3-3.7-5.8C81.3,64.9,72.2,62.2,64.9,64.8L64.9,64.8L64.9,64.8z
		 M103.5,84.3l-26.3-2.2l0,0c-0.1-0.2-0.3-0.4-0.3-0.4c3.4-2.8,8.5-4.7,14.3-4c2.9,0.4,4.9,1.1,7.1,2.2
		C100.1,80.8,102.8,83,103.5,84.3L103.5,84.3L103.5,84.3z M77.2,82.1c0,0,2.7,6,12.7,5.8c2.6,0.2,5.3,0.2,7.6-0.5h0.1
		c0.7-0.2,1.3-0.4,1.8-0.7c1.6-0.7,2.6-1.6,4.1-2.5 M77.2,82.1L77.2,82.1L77.2,82.1z"/>
	<g id="XMLID_1_">
		<g>
			<path class="st1" d="M151.2,18.2c-0.2,0.3-0.2,0.4-0.4,0.6c-0.5-0.4-0.7-0.4-0.8-1.3c0.6,0.2,0.5,0.6,0.6,0v-1.4
				C151.7,18,151.5,17.4,151.2,18.2z"/>
			<path class="st2" d="M150.8,18.8L150.8,18.8L150.8,18.8L150.8,18.8z"/>
			<path class="st1" d="M148.8,16.2v1c-0.4-0.2-0.5-0.3-0.8-0.6l0,0C148.3,16.3,148.3,16.3,148.8,16.2z"/>
			<path class="st1" d="M148.7,20.6c0.1,0.2,0.2-0.3,0.2,0.5c0,0.2-0.1,0.5-0.2,0.7l-0.6-1.2C148,20.6,148.7,20.6,148.7,20.6z"/>
			<path class="st1" d="M147.6,17.7c1.1,1.5,0.6,0.7,1.6,1.3l-0.2,1.5c-0.4-0.4-0.4-0.5-0.5-1.1l-0.7,0.2c-0.2-1-0.3-0.7-0.6-1.3
				l0,0L147.6,17.7z"/>
			<path class="st2" d="M147.1,18.3L147.1,18.3L147.1,18.3L147.1,18.3z"/>
			<path class="st1" d="M142,29.7c0.5,0.3,0.5,0.2,0.7,0.8C142.1,30.1,142.3,30.4,142,29.7z"/>
			<path class="st1" d="M141.2,30c0.2,0.4,0.3,0.4,0,0.9c-0.1-0.2-0.2-0.2-0.2-0.5C141,30,141.1,30.2,141.2,30z"/>
			<path class="st1" d="M136.1,12.8c0.2,0.6,0.6,1,0.5,1.5c-0.3,0.1-0.5,0-1-0.1c0-1.1,0.4-1.3,0.4-1.3
				C136,12.8,136.1,12.8,136.1,12.8z"/>
			<path class="st1" d="M134,13.9c0.5,0.5,0.3,1.8-0.3,2.3c-0.3,0.3-1.3,1.1-1.4,0.4c0-0.1,0-0.1-0.1-0.1l-0.7,0.5
				c0-0.7-0.4-1.4-0.8-1.9l0.4-0.5c0,0,0.1,0,0.1-0.1l0.5-0.4l0.1-0.1l0.2-0.3C132.7,13,133.7,13.5,134,13.9z"/>
			<path class="st2" d="M130.9,15.1L130.9,15.1L130.9,15.1L130.9,15.1z"/>
			<path class="st2" d="M130.9,15.1L130.9,15.1L130.9,15.1z"/>
			<path class="st1" d="M131.1,11.3c-0.4,0.2-0.3,0-0.5,0.1c0-0.3,0.5-0.4,0.9-0.5C131.3,11.3,131.8,11,131.1,11.3z"/>
			<path class="st1" d="M128.8,6.4c0.3,0.2,0.6,0.2,1,0.4c-1.4,0.7-3.4,1.5-4.1-0.2c-0.2-0.5-0.2-0.7,0.1-1.2
				c1.1-0.1,0.4,0.2,1.7,0.2C128.6,5.7,128.2,6.1,128.8,6.4z"/>
			<path class="st1" d="M127.7,1.4c0.6-0.2,0.5-0.1,0.7,0.6c-0.7,0-1.5,0.1-2-0.2l0,0C126.9,1.4,127.2,1.4,127.7,1.4z"/>
			<path class="st1" d="M128.5,50.6l-0.6,0.4l0,0l0,0c-0.4-1.1-0.3-1.9-0.3-3.2l0.4,0.8c0.1,0.2,0.2,0.4,0.3,0.6
				c0.2,0.4,0.5,0.7,0.8,1l-0.3,0.6c-0.1,0.2-0.2,0.3-0.3,0.4C128.3,51.1,128.1,51.4,128.5,50.6z"/>
			<path class="st1" d="M126.6,29l-0.4,0.8c-0.1-0.2-0.2-0.3-0.3-0.4L126.6,29z"/>
			<path class="st1" d="M126.2,4.5c-2.6,0.9-0.1,0.1-3.5-0.1l0,0c0-1.5,1.3-1.8,2.3-0.9C125.5,3.9,125.8,4.1,126.2,4.5z"/>
			<path class="st1" d="M126.2,30c-0.1,0.5-0.4,0.7-0.8,0.8l-0.3-0.6c0.3-0.3,0.1-0.2,1.2-0.4C126.2,29.9,126.2,29.9,126.2,30z"/>
			<path class="st2" d="M123.9,52.5C123.9,52.5,124,52.6,123.9,52.5L123.9,52.5z"/>
			<rect x="122.5" y="69.3" class="st1" width="1.1" height="0.2"/>
			<path class="st1" d="M122.9,22.1l-0.5,1.2c-0.3-0.4-0.3-0.5-0.3-1.2H122.9z"/>
			<path class="st1" d="M118,46.6l0.5,0.2c0,0.1-0.1,0.2-0.1,0.3c0.6,0.2,1.4,0.5,1.9,0.7c0-0.7,0.2-0.4-0.3-0.8l-0.2-0.2
				c-0.3-0.2-0.2,0-0.4-0.4c1-0.8,0.4,0.1,1.8,0.1c0.6-0.6,1.2-1.6,1.7-2.3c-0.2,0.8-0.6,1.4-0.8,2.1c-0.2,0.9,0.2,0.4-0.1,1
				c-0.3,0.8-0.1-0.2-0.5,0.6c1.3,0,1.9,0.3,3.2,0.1v0.5c0.9-0.1,0.8-0.2,1.5,0.4c-0.7,1.2-1.1,0.6-1.9,0.7l-1.2,0.1
				c-0.7,0.1-0.7,0.3-0.9,0.6c-1.1-0.7-0.8-0.3-2.1-0.5c-1-0.2,0.5,0.5-2.3,0.2l-1.7,1.7c0.3-1.1,1.3-2,1.4-3.2v-0.2
				c0.2-1.5-3.8,0-4-1.3c0,0,0,0,0-0.1c0-0.6,0.3-0.8,0.9-1c0.5-0.2,0.9-0.1,1.4-0.4h0.6c-0.1,0.1-0.1,0.1-0.2,0.2L118,46.6z"/>
			<path class="st1" d="M119.3,17.5c-0.3,0.9-0.1,0.6-0.2,1.3c0,0.4-0.3,0.7-0.7,1.1c-0.3-0.3-0.5-0.3-0.2-0.6
				c0.7-0.7,0.5,0.1,0.7-1.3C119,17.5,118.8,17.8,119.3,17.5z"/>
			<path class="st3" d="M118.7,22.8c-0.2,0.7-0.3,0.3-0.3,0.9s0.2,0.1,0.3,0.8c-2.2,1.2-2.7,0.3-3.3-0.3c-0.9-0.8-0.6-0.2-0.9-1.1
				l-0.2-0.5c0,0,0-0.2-0.1-0.2c0.4-0.7,1.3-1.2,2.1-1.8l0.7,0.9V23c0.1-0.2,0.5-0.8,0.8-1.1C118.3,22.3,118,22.4,118.7,22.8z"/>
			<path class="st1" d="M116.5,45.8c0.4-0.4,0.5-0.3,1-1c0,0.3,0,0.3,0,0.5v0.5c0.2,0.3,0.4,0.4,0.6,0.8l-1.7-0.6
				C116.3,45.9,116.4,45.8,116.5,45.8z"/>
			<path class="st3" d="M141.2,30.9c0.3-0.5,0.2-0.4,0-0.9c-0.1,0.1-0.2,0-0.2,0.4S141.1,30.7,141.2,30.9z M142,29.7
				c0.3,0.8,0.1,0.5,0.7,0.8C142.5,29.8,142.5,29.9,142,29.7z M136.6,14.3c0.2-0.5-0.3-0.9-0.5-1.5c0,0-0.1,0-0.1,0.1
				c0,0.1-0.4,0.3-0.4,1.3C136.1,14.3,136.2,14.4,136.6,14.3z M130.6,11.4c0.2,0,0.1,0.1,0.5-0.1c0.6-0.3,0.2,0,0.4-0.4
				C131.1,11,130.7,11.1,130.6,11.4z M131.3,14.6l-0.4,0.5l0,0l0,0l0,0l0,0l0,0l0,0c0.4,0.5,0.7,1.3,0.8,1.9l0.7-0.5
				c0,0,0.1,0,0.1,0.1c0.1,0.6,1.1-0.2,1.4-0.4c0.6-0.4,0.7-1.7,0.3-2.3c-0.4-0.4-1.3-0.9-1.9-0.2l-0.2,0.3l-0.1,0.1L131.3,14.6
				C131.4,14.6,131.4,14.6,131.3,14.6z M127.5,5.6c-1.3-0.1-0.6-0.3-1.7-0.2c-0.3,0.5-0.3,0.7-0.1,1.2c0.8,1.8,2.7,0.9,4.1,0.2
				c-0.4-0.2-0.7-0.2-1-0.4C128.2,6.1,128.6,5.7,127.5,5.6z M127.9,51L127.9,51l0.7-0.4c-0.5,0.8-0.2,0.5,0,0.7
				c0.1-0.2,0.2-0.3,0.3-0.4l0.3-0.6c-0.3-0.3-0.6-0.6-0.8-1c-0.1-0.3-0.2-0.4-0.3-0.6l-0.4-0.8C127.5,49.1,127.4,49.9,127.9,51
				L127.9,51z M125,3.5c-1-0.8-2.3-0.5-2.3,0.9l0,0c3.4,0.2,0.9,1,3.5,0.1C125.8,4.1,125.5,3.9,125,3.5z M113.5,47.2
				c0.2,1.2,4.2-0.3,4,1.3v0.2c-0.2,1.2-1.2,2.1-1.4,3.2l1.7-1.7c2.8,0.3,1.3-0.4,2.3-0.2c1.3,0.2,1.1-0.2,2.1,0.5
				c0.3-0.3,0.3-0.5,0.9-0.6l1.2-0.1c0.8-0.1,1.3,0.5,1.9-0.7c-0.6-0.5-0.5-0.4-1.5-0.4v-0.5c-1.3,0.1-1.9-0.1-3.2-0.1
				c0.4-0.8,0.2,0.2,0.5-0.6c0.3-0.6-0.1-0.2,0.1-1c0.2-0.7,0.6-1.3,0.8-2.1c-0.5,0.7-1.1,1.7-1.7,2.3c-1.3,0-0.8-1-1.8-0.1
				c0.2,0.4,0.2,0.2,0.4,0.4l0.2,0.2c0.4,0.4,0.3,0,0.3,0.8c-0.5-0.2-1.3-0.5-1.9-0.7c0-0.1,0.1-0.3,0.1-0.3c0.2-0.4,0.3-0.3,0.2-1
				c0.5,0.3,0.6,0.5,1.2,0l-0.8-1.2c-0.3-0.5,0.2-0.6-1.3-0.5c-0.3,0-0.3,0.7-0.8-1c-0.5-1.8-0.3-1.7,1.3-2.8c0.7-0.5,1.1-0.5,1.7-1
				c0.1-3.5,0.8-2.9,2.8-4.2c-0.2-1-0.3-0.1-0.3-1.1c0.3-0.2,0.7-0.4,1-0.7c0.3,0.3,0.5,0.5,0.9,0.7c0.6-0.3,0.8-0.8,1.5-1.2
				c1-0.5,0.8-0.7,1.4-1.3l-0.3-0.5c0.1,0,0.1-0.1,0.1-0.1l0,0c0,0,0.1,0,0.2,0l1.2,0.3l0.1,0.1l0.1,0.1l0.1,0.1
				c0.3-0.6,0.6-0.6,1.1-1c-0.1-0.8-0.2-1.4,0.1-2l-0.9-0.2c-0.4-0.1-0.7-0.2-1.2-0.3c0.1-0.9-0.1-1.5-0.8-2.2s-1.8-0.6-2.1-1.4
				l-0.8-1.2c-0.5-0.6-0.8-1.1-1.3-1.6c0.3-0.6,0.2-0.1,0.3-0.6l0.4-2.8c-1.2-0.7-1.5-1.5-2.5-2.3l-1.2-1.3
				c-0.8-0.8-0.7-0.6-0.2-1.6c0.9,0.3,0.3,0.7,1.5,0.6c1.3-0.1,1.3,0.5,1.8,1.4l0.7,1.2c0.2,0.4,0,0,0.2,0.3
				c0.6,0.8,0.1-0.3,0.5,0.8c0.4,1.2,0.8,1.9,1.9,2.9c0.8,0.8,1.3,1.2,2.4,1.3c2.5,0.3,0.1-2.9,0.7-4c0.8-1.4,0.2-0.9,0.4-2
				c0.1-0.7,0.7-0.8,0.5-2c-0.1-1-1.1-1.2-1.8-2.5c0,0,0-0.1-0.1-0.1c-0.4-0.7-1.4-1-2.2-1.4c-0.8-0.5-0.7-0.8-1.3-1.5
				c-0.2,0-2.1,0-2.4,0.1c-0.9,0.3-0.8,0.8-1.5,1.3c-0.4,0-0.7-0.2-1.3-0.2c-0.8,0-1,0.3-1.7,0.4l-0.8,0.5c-0.8,0.6-0.3,0.4-1.3,0.4
				c-2.2,0.1-4.7,0.2-7.2,0.3l3.5,0.6c-0.3,0.2-0.3,0-0.8,0.4c-0.6,0.4-0.1,0.3-1,0.5c-0.8,0.3-1.4,0.4-2-0.3c0,0,0-0.2-0.1-0.1
				l-0.1-1.7c-0.1-0.8,0.1-1.1,0.2-1.8c-0.7-0.3-1.1-0.6-1.8-1c-0.6-0.3-1.1,0.3-1.7,0.4l1.1-1.3c0.3-0.3,0.9-0.7,1.3-1.1
				c0.6,0.8-0.1,0.5,0.7,0.6c0.8-0.6,0.4-0.2,0.8-1.1c-0.1-0.3-0.4-0.3-0.5-0.7c0.4-0.5,0.5-0.9,0.7-1.2c0.5-0.6,0.4-0.1,1.3-0.6
				c1.3-0.8,1.2-1,2.4,0.1l3.2-0.8c-1-0.2-0.6-0.5-1.1-1.3l0.2,0.1l0,0l2.8-0.3c1,1.2,1.1,0.7,1.6,1.2c0.5,0.4,0.8,1,1.3,1.4
				c0.8-0.2,0.6-0.4,1.3-0.6c-0.3-0.5-0.4-0.7-0.8-1.1c0.8-0.3,2-0.5,2.9-0.4c2.2,0.2,0.5,0.6,0.1,1.1c0.4,0.8,1.6,1,2.7,1.1
				c2.3,0.2,2.3,0.2,3.1-0.7c0.8,1.3,1,0.4,1.5,1.5c0.2,0.4,0.2,0.4,0.3,0.8c-0.3,0.4-0.5,0.7-1.1,0.8h-0.1c0.9,0.6,0.4,0.5,1,1.2
				c0.9,1.3,4,3.2,5,4.5c0.9,1.1,1.7,1.3,3.1,1.3c0.4,0,1.2,0.4,1.7,0.6l0.4,1.7c-1.2,0.2-1.4-0.1-2.3-0.7c-0.4-0.3-1-0.4-1.3-0.3
				l-0.3,0.2c0,0,0,0-0.1,0c-0.2-0.3,0.1-0.6,0.2-1l-1.4-1c0.3,1.1,0.7,1.2,1,2.4c0.4,2,0.3,1,1.4,1.8c0.3,0.7,0,1.2,0.6,1.9
				c0.5,0.6,0.8,1,1.7,1l0.4-1.2l0.2,1.2c0.5-0.2,0.4-0.2,0.8-0.6c0.2,0.5,0.3,0.4,0.6,0.8c1.2-0.3,1.4-0.5,2.1,0.6
				c-0.5,1.4-1.9,1.9-0.3,3.2c0.7,0.6,0.5,0.9,1,1.5c0.4,0.4,0.3,0.1,0.6,0.6c0.2,0.2,0.3,0.5,0.4,0.8l0.7-1.1
				c0.5,1.3,0.1,1.2,0.3,2.4c0.2,1.2,0.8,1.5,0.7,2.4c-0.3-0.8,0-0.3-0.4-0.4l-0.3,0.9c-0.5,0.1,0.3-0.3-0.3-0.2l-0.6,2.4
				c0.9,0.3,0.5,0.4,1.4,0.2c0.2,2.3-0.3,2.4,0.9,4.3c0.5,0.8,0.4,1.9,0.2,2.7c0.5,0.4,0.6,0.5,0.8,1.2c0.3,0,0.7,0,1,0.1
				c0.6,0.2,0.3,0.5,0.9,0.6c2.2-0.2,2-0.4,2.7-2.3c0.3-0.7,0.5-0.9,0.8-1.6c0.2-0.6,0.3-1.4,0.5-2c0.2,6-3.8,14.5-7.1,18.9
				c-1.8,2.4-4,4.7-6.3,6.6c-1.7,1.3-5.8,4.2-8.2,4.9c0.8-1.6,4.4-2.2,6-4.6c1-1.5,0.5-1.5,2-3.3c0.8-1,1.8-1.9,1-3.6
				c-1.1,0.2-0.5,0.4-1.8,0.3c-1.2,0-1,0.2-2,0.5c-1.3,0.4-0.8,0-1.6,0.1c-0.6,0.1-1.4,0.2-2.1,0.3c0,0,0-0.2-0.1-0.2l-0.5-0.6
				l-0.1-0.1l-0.1-0.1l-0.1-0.1c-0.3-0.3,0.1,0-0.4-0.4c-1.9-1.4-2.9,0.9-5.9-1.2c0.4-0.6,2.6-1.2,3.3-1.4c-1,0-3.1,0.3-4.1,0.5
				c-2.2,0.4-3.2,1.2-4.4,0.1c-0.1-0.1-0.1-0.1-0.1-0.1c0.1,0,0,0,0,0s0,0-0.1,0h-0.1l-0.4-0.1h-0.1h-0.9c-0.5,0-0.1-0.1-0.5,0
				c-0.2,0-0.5,0.3-0.7,0.4c-0.5,0.2-0.4,0.1-1,0.3c-0.9,0.3-0.9,0.6-1.3,1.3c-0.7-0.2-0.9-0.5-1.6-0.5c-0.9,0-0.8,0.5-1.6,0.2
				c-1.5-0.6-0.4-1.8-0.5-3.1c-0.9-0.9-1.4-0.8-2.9-1c0-0.7,1-2,1-2.7h0.3C113.5,47.2,113.5,47.2,113.5,47.2z"/>
			<path class="st2" d="M114.1,22.4L114.1,22.4L114.1,22.4L114.1,22.4z"/>
			<path class="st3" d="M114.4,46.2c-0.6,0.2-0.9,0.3-0.9,1h-0.3c0-0.1,0-0.2-0.1-0.3c-0.5-0.4-2.3-0.7-2.8-0.1
				c-0.6,0.8,0.3,0.8-0.8,0.9c-1.9,0.3-2.3-1.4-2.4-2.5s0.6-1.3,0.6-2.8c0.6-0.3,1.6-0.7,2.2-0.4l2.1,0.9c0.4-0.5,0.6-0.9,1.3-0.6
				c0.7,0.3-0.2,0.1,0.7,0.4c0.6,0.2,0.2-0.3,0.6,0.1c0.5,0.6,0.1,0.7,0.5,1.5c0.3,0.5,0.5,0.8,0.7,1.5
				C115.3,46.1,115,46.1,114.4,46.2z"/>
			<path class="st1" d="M108.3,58.5c0.4-0.5,0.3-0.1,0.5-0.6c0.2-0.4-0.1-0.4,0.3-0.9l1.2,1.7l-0.8,0.4L108.3,58.5z"/>
			<path class="st1" d="M106.9-0.5l-2,1.4c-0.6,0.4-0.7,0-1.4,0c-0.4,0-1,0.2-1.5,0.3C102.6-0.4,105.2-0.4,106.9-0.5z"/>
			<path class="st1" d="M100.9,3.4c0.5,0.2,0.6,0.4,0.4,0.8C100.8,4,100.7,3.9,100.9,3.4z"/>
			<path class="st1" d="M99.5,5.7c-0.3,0.6-0.6,0.8-1.1,1.3c-0.2-0.2-0.2,0.3-0.1-0.4l0.4-1.3L99.5,5.7z"/>
			<path class="st3" d="M108.8,57.9c-0.2,0.5-0.1,0-0.5,0.6l1.1,0.5l0.8-0.4l-1.2-1.7C108.8,57.5,108.9,57.5,108.8,57.9z M98.2,6.6
				c0,0.7,0,0.3,0.1,0.4c-0.7,0.6-1.7,1.1-2.5,1.7l0.8,0.1c0,0.8,0,1.1,0,1.2c0,0.1-0.2,0-0.7,0.3c1.7,0.9,2.1,2.4,3.3,2.7
				c0,0.4,0,0.2-0.1,0.8c2.1,0.6,0.5,0.3,2.2,0.1c0.2,0.2,1.2,0.8,0.7,2.9c-0.2,0.8-0.8,1.7-1.3,2.4c-1.4,2.3,0.3,4.9-0.8,6.1
				c-0.3,0.3-0.3,0.1-0.4,0.4c0,0,0.3,0.2-0.5,1c-0.7,0.7-0.3,0.3-0.8,1.2c-0.4,0.9-0.8,0.9-0.8,2.9c-0.1,1.8-0.3,2.1,0.3,3
				c0.8,1.3,0.3,2,0.4,3.7L97.3,37l1.4,3.1c0.4,1.2-0.7-0.2,0.3,1.3c0.4,0.7,0.4,1,0.6,1.8c0.8-0.3,1.1-0.1,1.2-1
				c0.2,0.5,0.8,1.3,0.8,1.8c0,0.4-0.9,1.6,1.4,3.3c0.6,0.4,0.8,0.7,1.4,1.3c2.8,2.1,2.4,0.8,3.4,1.5c1.4,1.1-1,0.2,3.2,2.2
				c1.7,0.8,0.5,1.4,2.1,2.2c0.8,0.4-0.1,0.4,1,0.8c0.8,0.3,0.3-0.1,1,0.4c0.4,0.3,0.1,0.4,0.8,0.3c0.4,0,0.7-0.3,1.1-0.2
				c0.6,0.2,0.6,1.3,0.1,1.8c-0.3,0.3-0.9,0.5-1.7,1.5c-0.2,0.3-0.1,0.1-0.2,0.4c-0.5,1.3,0,0-0.3,2.2v0.1c1.6,0.9,1.5,0.8,2.4,2
				c0.6,0.8,1.4,1.7,2.4,2c0.7,0.2,1.8,0.5,2.4,0.6c-0.1,0.8-0.4,1.4-0.8,2c-0.4,0.5-0.1,0.1-0.3,0.5c-1,1.9-8.7,0.1-10-0.2
				c-11.5-2.9-21-11.3-25.4-22.3c-5-12.6-2.6-26.5,5.8-36.9l3.9-4.1c0.8-0.7,3.5-2.8,4.6-3.2c-1.2,1.3-2.3,3.2-3.4,4.6
				C96.6,6.7,97.2,6,98,5.3l0.8,0.1L98.2,6.6z M85.6,28.8c0.3-0.9,0.4-3.4,0.3-4C84.7,25,85,25.4,85,26.6c-0.1,1.1-0.4,1.3-0.3,2.4
				l0,0L85.6,28.8z"/>
			<path class="st1" d="M100.9,3.4c-0.3,0.5-0.1,0.6,0.4,0.8C101.6,3.7,101.4,3.6,100.9,3.4z M99,6.8L98.4,7l0,0
				c0.5-0.4,0.8-0.7,1.1-1.3l-0.8-0.4l-0.8-0.1c1.2-1.3,2.7-2.8,3.1-3c-0.3,0.7-0.3,0.4-0.6,1c1.9-0.2,0.3,0.2,2,0.3
				c0.4,0,0-0.2,0.6,0c-0.1,0.5,0.3,0.1-0.4,0.5c-0.3,0.2-0.5,0.3-0.7,0.4c0.5,0.3,1.5,0.1,1.1,1.2c0,0,0,0.1-0.1,0.1L102.7,6
				c0.3,0.2,0.3,0.2,0.7,0.3l0.3,0.1l0.3,0.1c0,0,0.1,0,0.1,0.1c-1.5,0.8-1.3,1.3-1,2.1H101l-0.2,1.3c-0.2,0.4-0.3,0.3-0.5,0.8
				c-0.1,0.4,0.5,0-0.3,0.6c-0.5,0.2-1.3-1-1.4-1.2C98.4,10,98.9,9.8,97,9.9l0.1-0.1c0.4-0.5,0.2-0.1,0.6-0.5
				c0.1-0.2,0.3-0.6,0.4-0.8C98.3,7.8,98.6,7.6,99,6.8z"/>
			<path class="st1" d="M98.4,7L99,6.8c-0.4,0.7-0.7,1-1.1,1.8c-0.1,0.3-0.3,0.7-0.4,0.8c-0.4,0.5-0.2,0.1-0.6,0.5h-0.2
				c0-0.1,0-0.4,0-1.2h-0.8C96.7,8.1,97.6,7.6,98.4,7L98.4,7z"/>
			<path class="st1" d="M147.1,18.3c0.4,0.6,0.4,0.3,0.6,1.3l0.7-0.2c0.2,0.6,0.2,0.7,0.5,1.1l0.2-1.5c-0.9-0.6-0.5,0.3-1.6-1.3
				L147.1,18.3L147.1,18.3L147.1,18.3z M148.7,20.6h-0.6l0.6,1.2c0.1-0.2,0.2-0.5,0.2-0.7C148.8,20.3,148.8,20.8,148.7,20.6z
				 M126.2,29.9c-1.1,0.2-0.9,0-1.2,0.4l0.3,0.6c0.4-0.1,0.8-0.4,0.8-0.8C126.2,29.9,126.2,29.9,126.2,29.9z M125.9,29.3
				c0.1,0.1,0.2,0.3,0.3,0.4l0.4-0.8l0,0l0,0l0,0L125.9,29.3z M122.9,22.1l-0.8,0.1c0,0.6,0,0.8,0.3,1.2L122.9,22.1z M117.5,44.8
				c-0.5,0.7-0.6,0.6-1,1h-0.6c-0.1-0.7-0.4-1.1-0.7-1.5c-0.4-0.8,0.1-0.9-0.5-1.5c-0.4-0.4,0,0.1-0.6-0.1c-0.8-0.3,0-0.1-0.7-0.4
				c-0.7-0.3-0.9,0.2-1.3,0.6L110,42c-0.6-0.2-1.6,0.2-2.2,0.4c0,1.4-0.7,1.8-0.6,2.8c0.2,1.2,0.5,2.8,2.4,2.5
				c1.2-0.2,0.3-0.2,0.8-0.9c0.4-0.6,2.3-0.3,2.8,0.1c0.1,0.1,0.1,0.2,0.1,0.3c0,0.7-1,2.1-1,2.7c1.4,0.2,2,0,2.9,1
				c0.2,1.3-0.9,2.5,0.5,3.1c0.9,0.4,0.7-0.2,1.6-0.2c0.7,0,0.8,0.4,1.6,0.5c0.4-0.7,0.3-1.1,1.3-1.3c0.6-0.2,0.5-0.1,1-0.3
				c0.2-0.1,0.5-0.4,0.7-0.4c0.5-0.2,0.1,0,0.5,0h0.9h0.1l0.4,0.1c0,0,0,0,0.1,0h0.1l0.1,0.1c1.2,1.1,2.2,0.3,4.4-0.1
				c1-0.2,3.1-0.5,4.1-0.5c-0.7,0.3-2.9,0.8-3.3,1.4c3.1,2.1,4-0.2,5.9,1.2c0.5,0.4,0.1,0.1,0.4,0.4l0.1,0.1c0.1,0,0.1,0.1,0.1,0.1
				c0.1,0,0.1,0.1,0.1,0.1l0.5,0.6c0,0,0,0.1,0.1,0.2c0.7-0.1,1.5-0.2,2.1-0.3c0.7-0.1,0.3,0.3,1.6-0.1c1-0.3,0.8-0.5,2-0.5
				c1.3,0,0.8-0.2,1.8-0.3c0.8,1.7-0.2,2.6-1,3.6c-1.5,1.8-1.1,1.8-2,3.3c-1.6,2.4-5.2,3-6,4.6c2.4-0.7,6.5-3.6,8.2-4.9
				c2.3-1.9,4.5-4.2,6.3-6.6c3.4-4.5,7.4-12.9,7.2-18.9c-0.3,0.5-0.3,1.3-0.5,2s-0.5,0.9-0.8,1.6c-0.7,1.8-0.4,2.1-2.7,2.3
				c-0.6-0.1-0.3-0.4-0.9-0.6c-0.3-0.1-0.8-0.1-1-0.1c-0.3-0.7-0.4-0.8-0.8-1.2c0.3-0.8,0.3-1.9-0.2-2.7c-1.2-1.8-0.7-1.9-0.9-4.3
				c-0.9,0.3-0.5,0.1-1.4-0.2l0.6-2.4c0.6-0.1-0.3,0.3,0.3,0.2l0.3-0.9c0.4,0.2,0.1-0.3,0.4,0.4c0.1-1-0.5-1.3-0.7-2.4
				c-0.2-1.2,0.2-1.1-0.3-2.4l-0.7,1.1c-0.2-0.3-0.3-0.6-0.4-0.8c-0.4-0.6-0.3-0.2-0.6-0.6c-0.5-0.6-0.3-0.9-1-1.5
				c-1.5-1.3-0.2-1.8,0.3-3.2c-0.6-1.1-0.9-0.9-2.1-0.6c-0.3-0.4-0.4-0.3-0.6-0.8c-0.3,0.4-0.3,0.4-0.8,0.6l-0.2-1.2l-0.4,1.2
				c-0.8,0-1.2-0.4-1.7-1c-0.6-0.8-0.3-1.2-0.6-1.9c-1.1-0.8-1.1,0.2-1.4-1.8c-0.3-1.2-0.7-1.3-1-2.4l1.4,1c-0.1,0.4-0.3,0.6-0.2,1
				h0.1l0.3-0.1c0.3-0.1,1,0,1.3,0.3c0.8,0.6,1.1,0.9,2.3,0.7l-0.4-1.7c-0.5-0.2-1.2-0.6-1.7-0.6c-1.4,0-2.3-0.3-3.1-1.3
				c-1-1.3-4-3.1-5-4.5c-0.5-0.7-0.1-0.6-1-1.2h0.1c0.5-0.2,0.8-0.4,1.1-0.8c-0.1-0.4-0.1-0.4-0.3-0.8c-0.5-1.1-0.7-0.2-1.5-1.5
				c-0.8,0.8-0.8,0.9-3.1,0.7c-1.1-0.1-2.2-0.3-2.7-1.1c0.4-0.4,2.1-0.9-0.1-1.1c-0.8-0.1-2.1,0.2-2.9,0.4c0.4,0.4,0.5,0.5,0.8,1.1
				c-0.8,0.3-0.6,0.4-1.3,0.6c-0.5-0.4-0.8-1-1.3-1.4s-0.6,0-1.6-1.2l-2.8,0.3l0,0h-0.1c0.4,0.7,0.1,1,1.1,1.3l-3.2,0.8
				c-1.3-1-1.2-0.8-2.4-0.1c-0.8,0.5-0.8,0-1.3,0.6c-0.2,0.2-0.3,0.7-0.7,1.2c0.2,0.4,0.4,0.4,0.5,0.7c-0.4,0.9-0.1,0.4-0.8,1.1
				c-0.8-0.2-0.1,0.2-0.7-0.6c-0.4,0.4-1,0.7-1.3,1.1l-1.1,1.3c0.6-0.1,1-0.8,1.7-0.4c0.7,0.4,1.1,0.7,1.8,1
				c-0.1,0.7-0.3,1.1-0.2,1.8l0.3,1.5c0,0,0,0.1,0.1,0.1c0.6,0.7,1.3,0.5,2,0.3c0.9-0.3,0.3-0.1,1-0.5c0.5-0.4,0.5-0.2,0.8-0.4
				l-3.9-0.9c2.5-0.1,5-0.2,7.2-0.3c1,0,0.4,0.2,1.3-0.4l0.8-0.5c0.7-0.1,0.9-0.4,1.7-0.4c0.6,0,0.9,0.2,1.3,0.2
				c0.7-0.4,0.5-1,1.5-1.3c0.3-0.1,2.2-0.2,2.4-0.1c0.5,0.7,0.4,1,1.3,1.5c0.8,0.4,1.8,0.7,2.2,1.4c0,0,0,0.1,0.1,0.1
				c0.7,1.3,1.7,1.6,1.8,2.5c0.2,1.2-0.4,1.3-0.5,2c-0.2,1.1,0.4,0.6-0.4,2c-0.6,1.1,1.9,4.2-0.7,4c-1.1-0.1-1.6-0.5-2.4-1.3
				c-1-1-1.4-1.6-1.9-2.9c-0.4-1.1,0.1,0.1-0.5-0.8c-0.2-0.3,0,0-0.2-0.3l-0.7-1.2c-0.5-1-0.5-1.5-1.8-1.4c-1.2,0.1-0.7-0.3-1.5-0.6
				c-0.5,0.9-0.6,0.7,0.2,1.6l1.2,1.2c1,0.8,1.3,1.6,2.5,2.3l-0.4,2.8c-0.1,0.5,0,0-0.3,0.6c0.4,0.5,0.8,1,1.3,1.6l0.8,1.2
				c0.4,0.8,1.4,0.7,2.1,1.4c0.7,0.6,0.9,1.3,0.8,2.2c0.4,0.1,0.7,0.2,1.2,0.3l0.8,0.2c-0.3,0.6-0.1,1.3-0.1,2
				c-0.5,0.4-0.9,0.4-1.1,1c-0.1,0-0.1-0.1-0.1-0.1l-0.1-0.1c0-0.1-0.1-0.1-0.1-0.1l-1.2-0.3c-0.1,0-0.2,0-0.2,0c0.1,0,0,0,0,0
				s-0.1,0-0.1,0.1l0.3,0.5c-0.6,0.7-0.4,0.8-1.4,1.3c-0.7,0.4-0.9,0.9-1.5,1.2c-0.4-0.2-0.6-0.4-0.9-0.7c-0.3,0.3-0.8,0.5-1,0.7
				c0.1,1,0.2,0.1,0.3,1.1c-1.9,1.3-2.7,0.7-2.8,4.2c-0.6,0.5-1,0.5-1.7,1c-1.5,1.1-1.7,1.1-1.3,2.8c0.5,1.7,0.5,1,0.8,1
				c1.5-0.1,1,0,1.3,0.5l0.8,1.2c-0.5,0.5-0.7,0.3-1.2,0c0,0.7-0.1,0.6-0.2,1l-0.5-0.2c-0.2-0.4-0.4-0.5-0.6-0.8v-0.5
				C117.5,45.1,117.5,45.1,117.5,44.8z M117.7,21.9c-0.3,0.3-0.7,0.9-0.8,1.1v-1.5l-0.7-0.9c-0.9,0.6-1.7,1.1-2.1,1.8l0,0l0,0l0,0
				l0,0l0,0l0,0c0,0.1,0.1,0.2,0.1,0.2l0.2,0.5c0.4,0.9,0,0.3,0.9,1.1c0.6,0.5,1.1,1.5,3.3,0.3c-0.1-0.7-0.3-0.3-0.3-0.8
				c0-0.7,0.2-0.3,0.3-0.9C118,22.4,118.3,22.3,117.7,21.9z M106.9-0.5c-1.6,0.1-4.3,0.2-4.9,1.7c0.5-0.1,1.1-0.3,1.5-0.3
				c0.8,0,0.8,0.3,1.4,0L106.9-0.5z M100.9,2.2c-0.3,0.2-1.9,1.7-3.1,3C97,6,96.4,6.6,96.3,6.7c1.1-1.4,2.3-3.2,3.4-4.6
				c-1.2,0.4-3.9,2.5-4.6,3.2l-3.9,4.1c-8.2,10.5-10.6,24.3-5.6,37c4.4,11,13.9,19.5,25.6,22.3c1.3,0.3,8.9,2.1,10,0.2
				c0.3-0.4-0.1,0,0.3-0.5s0.8-1.1,0.8-2c-0.7-0.2-1.7-0.4-2.4-0.6c-0.9-0.3-1.7-1.2-2.4-2c-0.9-1.1-0.8-1.1-2.4-2
				c0-0.1,0-0.1,0-0.1c0.4-2.2-0.2-0.9,0.3-2.2c0.1-0.3,0-0.1,0.2-0.4c0.8-1,1.4-1.3,1.7-1.5c0.5-0.5,0.5-1.5-0.1-1.8
				c-0.4-0.2-0.7,0.2-1.1,0.2c-0.7,0.1-0.4,0-0.8-0.3c-0.7-0.5-0.2-0.1-1-0.4c-1.2-0.4-0.2-0.4-1-0.8c-1.6-0.8-0.4-1.4-2.1-2.2
				c-4.2-2.1-1.8-1.2-3.2-2.2c-1-0.7-0.6,0.6-3.4-1.5c-0.7-0.6-0.8-0.8-1.4-1.3c-2.3-1.7-1.3-3-1.4-3.3c0-0.5-0.6-1.3-0.8-1.8
				c-0.1,0.9-0.4,0.7-1.2,1c-0.3-0.7-0.2-1.1-0.6-1.8c-0.9-1.5,0.1-0.2-0.3-1.3L97.5,37l0.8,0.5c-0.2-1.7,0.4-2.4-0.4-3.7
				c-0.6-0.9-0.4-1.2-0.3-3c0.1-2.1,0.4-2,0.8-2.9s0.1-0.5,0.8-1.2c0.8-0.8,0.5-1,0.5-1c0.1-0.3,0.1-0.1,0.4-0.4
				c1.2-1.3-0.5-3.9,0.8-6.1c0.4-0.7,1-1.6,1.3-2.4c0.5-2-0.5-2.6-0.7-2.9c-1.7,0.2-0.2,0.5-2.2-0.1c0-0.6,0.1-0.3,0.1-0.8
				c-1.2-0.3-1.6-1.8-3.3-2.7c0.6-0.3,0.7-0.2,0.7-0.3H97l-0.1,0.1c1.9,0,1.4,0.2,1.6,0.3c0.2,0.2,0.9,1.3,1.4,1.2
				c0.8-0.7,0.1-0.2,0.3-0.6c0.2-0.6,0.3-0.4,0.5-0.8l0.2-1.3h2.1c-0.4-0.7-0.5-1.3,1-2.1c0,0-0.1,0-0.1-0.1l-0.3-0.1l-0.3-0.1
				c-0.3-0.1-0.3-0.1-0.7-0.3l0.2-0.3c0,0,0-0.1,0.1-0.1c0.4-1.1-0.5-0.9-1.1-1.2c0.2-0.1,0.5-0.2,0.7-0.4c0.7-0.4,0.3,0,0.4-0.5
				c-0.5-0.2-0.2,0-0.6,0c-1.6-0.1-0.1-0.5-2-0.3C100.6,2.7,100.6,2.9,100.9,2.2z M160.2,32.7c0,21.3-16.4,38.7-37.3,40.3v3.4
				c5.4,0.5,9.5,2.5,9.9,4.9h-25.9c0.4-2.4,4.5-4.4,9.9-4.9V73c-20.9-1.5-37.3-19-37.3-40.3c0-22.3,18.1-40.3,40.4-40.3
				S160.2,10.4,160.2,32.7z M151.2,18.2c0.4-0.8,0.6-0.2-0.5-2v1.4c-0.1,0.6,0,0.1-0.6,0c0.1,0.8,0.3,0.8,0.8,1.3l0,0l0,0l0,0l0,0
				l0,0l0,0C151,18.6,151,18.5,151.2,18.2z M148.8,17.2v-1c-0.5,0.1-0.5,0.1-0.9,0.4l0,0C148.3,17,148.5,17.1,148.8,17.2z
				 M128.4,1.9c-0.2-0.7-0.1-0.7-0.7-0.6c-0.6,0.1-0.8,0.1-1.3,0.4l0,0C126.9,2,127.7,1.9,128.4,1.9z M123.6,69.5v-0.2h-1.1v0.2
				H123.6z M119.1,18.9c0.1-0.8-0.1-0.4,0.2-1.3c-0.4,0.3-0.3,0-0.3,0.5c-0.3,1.4,0,0.6-0.7,1.3c-0.3,0.3-0.1,0.4,0.2,0.6
				C118.7,19.6,119,19.3,119.1,18.9z"/>
			<path class="st1" d="M84.9,26.5c0.1-1.2-0.3-1.6,0.9-1.8c0.1,0.7,0,3.1-0.3,4l-1,0.3l0,0C84.5,27.8,84.8,27.6,84.9,26.5z"/>
		</g>
	</g>
</g>
</svg>
