<?xml version="1.0" encoding="utf-8"?>
<!-- Generator: Adobe Illustrator 19.0.0, SVG Export Plug-In . SVG Version: 6.00 Build 0)  -->
<svg version="1.1" id="Layer_1" xmlns="http://www.w3.org/2000/svg" xmlns:xlink="http://www.w3.org/1999/xlink" x="0px" y="0px" height="160px" width="160px"
	 viewBox="45 -45 160 160" style="enable-background:new 45 -45 160 160;" xml:space="preserve">
<style type="text/css">
	.st0{fill:#333333;}
	.st1{fill:#2B2A29;}
	.st2{fill:#FFFFFF;}
</style>

<g id="Layer_x0020_1">
	<path class="st1" d="M124.7,80.8v0.4c-1,1.8-2.4,3.3-4.1,4.5c-1.6,1.2-3.7,2.3-6.5,3c-2.5,0.7-5.4,1.3-8.2,1
		c-0.9-0.1-2.1-0.3-3.2-0.7c-2.3-0.5-3.8-1.2-3.6-1.8c0.4-1.3,3.4-4.1,4.4-4.9c4.1-3,9.1-4.5,14.4-4c3.8,0.4,6.3,2,7,2.2L124.7,80.8
		L124.7,80.8z M175,23.4c1.8-1.7,4.5-4.8,4.9-9c0.2-1.3,0.1-2.8,0-4.1l0,0c0-2.6-0.8-6-1.6-8.7c-0.5-1.9-0.9-3.1-0.9-3.1
		c-1.6,0.9-4.1,4-5.2,6.1c-3.2,6.7-3.3,14.1,1,20.3C173.8,24.6,174.4,24.1,175,23.4L175,23.4L175,23.4z M172.5,41.3
		c0,0,0.6,0,1.6-0.5c1.8-0.7,3.7-2,4.5-2.8c1.2-1.2,2.3-2.5,3.3-4c2-2.4,3-5.1,3.4-7.6c0-0.1,0.1-0.3,0.1-0.4
		c0.6-2.6,0.4-4.1,0.1-5.9c-0.2-1.6-0.5-2.5-0.5-2.5c-1.8,0.2-5.3,2.5-6.2,3.3c-1.6,1.5-3,2.8-4.3,5c-1.2,2-2.1,4.3-2.6,6.9
		C171.6,35.2,171.5,39.4,172.5,41.3L172.5,41.3L172.5,41.3L172.5,41.3z M166.4,56.8c0,0,6.7,1.1,12.9-4c3.1-2.5,4.8-6.1,5.6-9.1
		l0.1-0.2c0.4-1,0.6-3.1,0.8-3.7v-1.3c-7.8,0-14.3,4.6-17.5,10.8C167.4,51,166.2,54.5,166.4,56.8L166.4,56.8z M180,58.4
		c0,0-1.8,7.2-10.5,10.3l0,0c-2,0.9-4.1,1.5-6,1.8c-2,0.3-6.5-0.1-7.8-1.2c0.8-2.4,2.4-4.3,3.7-5.8C163.6,58.5,172.7,55.8,180,58.4
		L180,58.4L180,58.4z M167.6,75.7c0,0-2.7,6-12.7,5.8c-2.6,0.2-5.3,0.2-7.6-0.5l-0.1,0c-0.7-0.2-1.3-0.4-1.8-0.7
		c-1.6-0.7-2.6-1.6-4.1-2.5c0.7-1.3,3.4-3.4,5.2-4.3c2.2-1.1,4.2-1.8,7.1-2.2c5.8-0.7,10.9,1.2,14.3,4
		C167.9,75.3,167.7,75.6,167.6,75.7L167.6,75.7z M129.4,85.8c1.6,1.2,3.7,2.3,6.6,3c2.5,0.7,5.4,1.3,8.2,1c0.9-0.1,2.1-0.3,3.2-0.7
		c2.3-0.5,3.8-1.2,3.6-1.8c-0.4-1.3-3.4-4.1-4.4-4.9c-4.1-3-9.1-4.5-14.4-4c-3.8,0.4-6.3,2-7,2.2v0.4c1,1.8,2.4,3.3,4.1,4.5
		L129.4,85.8L129.4,85.8z M75,23.4c-1.8-1.7-4.5-4.8-4.9-9c-0.2-1.3-0.1-2.8,0-4.1l0,0c0-2.6,0.8-6,1.6-8.7c0.5-1.9,0.9-3.1,0.9-3.1
		c1.6,0.9,4.1,4,5.2,6.1c3.2,6.7,3.3,14.1-1,20.3C76.2,24.6,75.6,24.1,75,23.4L75,23.4L75,23.4z M77.5,41.3c0,0-0.6,0-1.6-0.5
		c-1.8-0.7-3.7-2-4.5-2.8c-1.2-1.2-2.3-2.5-3.3-4c-2-2.4-3.6-10.3-4.1-12.7c0-0.1-0.1-0.3-0.1-0.4c-0.6-2.6-0.4-4.1-0.1-5.9
		c0.2-1.6,0.5-2.5,0.5-2.5c1.8,0.2,5.9,7.7,6.9,8.5c1.6,1.5,3,2.8,4.3,5c1.2,2,2.1,4.3,2.6,6.9C78.4,35.2,78.5,39.4,77.5,41.3
		L77.5,41.3L77.5,41.3z M83.6,56.8c0,0-6.7,1.1-12.9-4c-3.1-2.5-5.5-11.3-6.3-14.3l-0.1-0.2c-0.4-1-0.6-3.1-0.8-3.7v-1.3
		c7.8,0,15,9.8,18.2,16C82.6,51,83.8,54.5,83.6,56.8L83.6,56.8z M70,58.4c0,0,1.8,7.2,10.5,10.3l0,0c2,0.9,4.1,1.5,6,1.8
		c2,0.3,6.5-0.1,7.8-1.2c-0.8-2.4-2.4-4.3-3.7-5.8C86.4,58.5,77.3,55.8,70,58.4L70,58.4L70,58.4z M108.6,77.9l-26.3-2.2l0,0
		c-0.1-0.2-0.3-0.4-0.3-0.4c3.4-2.8,8.5-4.7,14.3-4c2.9,0.4,4.9,1.1,7.1,2.2C105.2,74.4,107.9,76.6,108.6,77.9L108.6,77.9
		L108.6,77.9z M82.3,75.7c0,0,2.7,6,12.7,5.8c2.6,0.2,5.3,0.2,7.6-0.5l0.1,0c0.7-0.2,1.3-0.4,1.8-0.7c1.6-0.7,2.6-1.6,4.1-2.5
		 M82.3,75.7L82.3,75.7L82.3,75.7z"/>
	<g id="XMLID_1_">
		<g>
			<path class="st1" d="M156.3,11.8c-0.2,0.3-0.2,0.4-0.4,0.6c-0.5-0.4-0.7-0.4-0.8-1.3c0.6,0.2,0.5,0.6,0.6,0l0-1.4
				C156.8,11.6,156.6,11,156.3,11.8z"/>
			<path class="st1" d="M155.9,12.4C155.9,12.4,155.9,12.4,155.9,12.4L155.9,12.4L155.9,12.4z"/>
			<path class="st1" d="M153.9,9.8v1c-0.4-0.2-0.5-0.3-0.8-0.6h0C153.4,9.9,153.4,9.9,153.9,9.8z"/>
			<path class="st1" d="M153.8,14.2c0.1,0.2,0.2-0.3,0.2,0.5c0,0.2-0.1,0.5-0.2,0.7l-0.6-1.2C153.1,14.2,153.8,14.2,153.8,14.2z"/>
			<path class="st1" d="M152.7,11.3c1.1,1.5,0.6,0.7,1.6,1.3l-0.2,1.5c-0.4-0.4-0.4-0.5-0.5-1.1l-0.7,0.2c-0.2-1-0.3-0.7-0.6-1.3v0
				L152.7,11.3z"/>
			<path class="st1" d="M152.2,11.9L152.2,11.9C152.2,11.9,152.2,11.9,152.2,11.9L152.2,11.9z"/>
			<path class="st1" d="M147.1,23.3c0.5,0.3,0.5,0.2,0.7,0.8C147.2,23.7,147.4,24,147.1,23.3z"/>
			<path class="st1" d="M146.3,23.6c0.2,0.4,0.3,0.4,0,0.9c-0.1-0.2-0.2-0.2-0.2-0.5C146.1,23.6,146.2,23.8,146.3,23.6z"/>
			<path class="st1" d="M141.2,6.4c0.2,0.6,0.6,1,0.5,1.5c-0.3,0.1-0.5,0-1-0.1c0-1.1,0.4-1.3,0.4-1.3
				C141.1,6.4,141.2,6.4,141.2,6.4z"/>
			<path class="st1" d="M139.1,7.5c0.5,0.5,0.3,1.8-0.3,2.3c-0.3,0.3-1.3,1.1-1.4,0.4c0-0.1,0-0.1-0.1-0.1l-0.7,0.5
				c0-0.7-0.4-1.4-0.8-1.9l0.4-0.5c0,0,0.1,0,0.1-0.1l0.5-0.4c0,0,0.1-0.1,0.1-0.1l0.2-0.3C137.8,6.6,138.8,7.1,139.1,7.5z"/>
			<path class="st1" d="M136,8.7C136,8.7,136,8.7,136,8.7L136,8.7L136,8.7z"/>
			<polygon class="st1" points="136,8.7 136,8.7 136,8.7 			"/>
			<path class="st1" d="M136.2,4.9c-0.4,0.2-0.3,0-0.5,0.1c0-0.3,0.5-0.4,0.9-0.5C136.4,4.9,136.9,4.6,136.2,4.9z"/>
			<path class="st1" d="M133.9,0c0.3,0.2,0.6,0.2,1,0.4c-1.4,0.7-3.4,1.5-4.1-0.2c-0.2-0.5-0.2-0.7,0.1-1.2c1.1-0.1,0.4,0.2,1.7,0.2
				C133.7-0.7,133.3-0.3,133.9,0z"/>
			<path class="st1" d="M132.8-5c0.6-0.2,0.5-0.1,0.7,0.6c-0.7,0-1.5,0.1-2-0.2v0C132-5,132.3-5,132.8-5z"/>
			<path class="st1" d="M133.6,44.2l-0.6,0.4h0h0c-0.4-1.1-0.3-1.9-0.3-3.2l0.4,0.8c0.1,0.2,0.2,0.4,0.3,0.6c0.2,0.4,0.5,0.7,0.8,1
				l-0.3,0.6c-0.1,0.2-0.2,0.3-0.3,0.4C133.4,44.7,133.2,45,133.6,44.2z"/>
			<path class="st1" d="M131.7,22.6l-0.4,0.8c-0.1-0.2-0.2-0.3-0.3-0.4L131.7,22.6z"/>
			<path class="st1" d="M131.3-1.9c-2.6,0.9-0.1,0.1-3.5-0.1h0c0-1.5,1.3-1.8,2.3-0.9C130.6-2.5,130.9-2.3,131.3-1.9z"/>
			<path class="st1" d="M131.3,23.6c-0.1,0.5-0.4,0.7-0.8,0.8l-0.3-0.6c0.3-0.3,0.1-0.2,1.2-0.4C131.3,23.5,131.3,23.5,131.3,23.6z"
				/>
			<path class="st1" d="M129,46.1C129,46.1,129.1,46.2,129,46.1L129,46.1z"/>
			<rect x="127.6" y="62.9" class="st1" width="1.1" height="0.2"/>
			<path class="st1" d="M128,15.7l-0.5,1.2c-0.3-0.4-0.3-0.5-0.3-1.2L128,15.7z"/>
			<path class="st1" d="M123.1,40.2l0.5,0.2c0,0.1-0.1,0.2-0.1,0.3c0.6,0.2,1.4,0.5,1.9,0.7c0-0.7,0.2-0.4-0.3-0.8l-0.2-0.2
				c-0.3-0.2-0.2,0-0.4-0.4c1-0.8,0.4,0.1,1.8,0.1c0.6-0.6,1.2-1.6,1.7-2.3c-0.2,0.8-0.6,1.4-0.8,2.1c-0.2,0.9,0.2,0.4-0.1,1
				c-0.3,0.8-0.1-0.2-0.5,0.6c1.3,0,1.9,0.3,3.2,0.1v0.5c0.9-0.1,0.8-0.2,1.5,0.4c-0.7,1.2-1.1,0.6-1.9,0.7l-1.2,0.1
				c-0.7,0.1-0.7,0.3-0.9,0.6c-1.1-0.7-0.8-0.3-2.1-0.5c-1-0.2,0.5,0.5-2.3,0.2l-1.7,1.7c0.3-1.1,1.3-2,1.4-3.2l0-0.2
				c0.2-1.5-3.8,0-4-1.3c0,0,0,0,0-0.1c0-0.6,0.3-0.8,0.9-1c0.5-0.2,0.9-0.1,1.4-0.4h0.6c-0.1,0.1-0.1,0.1-0.2,0.2L123.1,40.2z"/>
			<path class="st1" d="M124.4,11.1c-0.3,0.9-0.1,0.6-0.2,1.3c0,0.4-0.3,0.7-0.7,1.1c-0.3-0.3-0.5-0.3-0.2-0.6
				c0.7-0.7,0.5,0.1,0.7-1.3C124.1,11.1,123.9,11.4,124.4,11.1z"/>
			<path class="st2" d="M123.8,16.4c-0.2,0.7-0.3,0.3-0.3,0.9c0,0.6,0.2,0.1,0.3,0.8c-2.2,1.2-2.7,0.3-3.3-0.3
				c-0.9-0.8-0.6-0.2-0.9-1.1l-0.2-0.5c0,0,0-0.2-0.1-0.2c0.4-0.7,1.3-1.2,2.1-1.8l0.7,0.9l0,1.5c0.1-0.2,0.5-0.8,0.8-1.1
				C123.4,15.9,123.1,16,123.8,16.4z"/>
			<path class="st1" d="M121.6,39.4c0.4-0.4,0.5-0.3,1-1c0,0.3,0,0.3,0,0.5l0,0.5c0.2,0.3,0.4,0.4,0.6,0.8l-1.7-0.6
				C121.4,39.5,121.5,39.4,121.6,39.4z"/>
			<path class="st2" d="M146.3,24.5c0.3-0.5,0.2-0.4,0-0.9c-0.1,0.1-0.2,0-0.2,0.4C146.1,24.4,146.2,24.3,146.3,24.5z M147.1,23.3
				c0.3,0.8,0.1,0.5,0.7,0.8C147.6,23.4,147.6,23.5,147.1,23.3z M141.7,7.9c0.2-0.5-0.3-0.9-0.5-1.5c0,0-0.1,0-0.1,0.1
				c0,0.1-0.4,0.3-0.4,1.3C141.2,7.9,141.3,8,141.7,7.9z M135.7,5c0.2,0,0.1,0.1,0.5-0.1c0.6-0.3,0.2,0,0.4-0.4
				C136.2,4.6,135.8,4.7,135.7,5z M136.4,8.2L136,8.7l0,0l0,0l0,0l0,0l0,0l0,0c0.4,0.5,0.7,1.3,0.8,1.9l0.7-0.5c0,0,0.1,0,0.1,0.1
				c0.1,0.6,1.1-0.2,1.4-0.4c0.6-0.4,0.7-1.7,0.3-2.3c-0.4-0.4-1.3-0.9-1.9-0.2l-0.2,0.3c0,0-0.1,0.1-0.1,0.1L136.4,8.2
				C136.5,8.2,136.5,8.2,136.4,8.2z M132.6-0.8c-1.3-0.1-0.6-0.3-1.7-0.2c-0.3,0.5-0.3,0.7-0.1,1.2c0.8,1.8,2.7,0.9,4.1,0.2
				c-0.4-0.2-0.7-0.2-1-0.4C133.3-0.3,133.7-0.7,132.6-0.8z M133,44.6L133,44.6l0.7-0.4c-0.5,0.8-0.2,0.5,0,0.7
				c0.1-0.2,0.2-0.3,0.3-0.4l0.3-0.6c-0.3-0.3-0.6-0.6-0.8-1c-0.1-0.3-0.2-0.4-0.3-0.6l-0.4-0.8C132.6,42.7,132.5,43.5,133,44.6
				L133,44.6z M130.1-2.9c-1-0.8-2.3-0.5-2.3,0.9h0c3.4,0.2,0.9,1,3.5,0.1C130.9-2.3,130.6-2.5,130.1-2.9z M118.6,40.8
				c0.2,1.2,4.2-0.3,4,1.3l0,0.2c-0.2,1.2-1.2,2.1-1.4,3.2l1.7-1.7c2.8,0.3,1.3-0.4,2.3-0.2c1.3,0.2,1.1-0.2,2.1,0.5
				c0.3-0.3,0.3-0.5,0.9-0.6l1.2-0.1c0.8-0.1,1.3,0.5,1.9-0.7c-0.6-0.5-0.5-0.4-1.5-0.4v-0.5c-1.3,0.1-1.9-0.1-3.2-0.1
				c0.4-0.8,0.2,0.2,0.5-0.6c0.3-0.6-0.1-0.2,0.1-1c0.2-0.7,0.6-1.3,0.8-2.1c-0.5,0.7-1.1,1.7-1.7,2.3c-1.3,0-0.8-1-1.8-0.1
				c0.2,0.4,0.2,0.2,0.4,0.4l0.2,0.2c0.4,0.4,0.3,0,0.3,0.8c-0.5-0.2-1.3-0.5-1.9-0.7c0-0.1,0.1-0.3,0.1-0.3c0.2-0.4,0.3-0.3,0.2-1
				c0.5,0.3,0.6,0.5,1.2,0l-0.8-1.2c-0.3-0.5,0.2-0.6-1.3-0.5c-0.3,0-0.3,0.7-0.8-1c-0.5-1.8-0.3-1.7,1.3-2.8c0.7-0.5,1.1-0.5,1.7-1
				c0.1-3.5,0.8-2.9,2.8-4.2c-0.2-1-0.3-0.1-0.3-1.1c0.3-0.2,0.7-0.4,1-0.7c0.3,0.3,0.5,0.5,0.9,0.7c0.6-0.3,0.8-0.8,1.5-1.2
				c1-0.5,0.8-0.7,1.4-1.3l-0.3-0.5c0.1,0,0.1-0.1,0.1-0.1l0,0c0,0,0.1,0,0.2,0l1.2,0.3c0,0,0.1,0.1,0.1,0.1c0,0,0.1,0.1,0.1,0.1
				c0,0,0.1,0.1,0.1,0.1c0.3-0.6,0.6-0.6,1.1-1c-0.1-0.8-0.2-1.4,0.1-2l-0.9-0.2c-0.4-0.1-0.7-0.2-1.2-0.3c0.1-0.9-0.1-1.5-0.8-2.2
				c-0.7-0.7-1.8-0.6-2.1-1.4l-0.8-1.2c-0.5-0.6-0.8-1.1-1.3-1.6c0.3-0.6,0.2-0.1,0.3-0.6l0.4-2.8c-1.2-0.7-1.5-1.5-2.5-2.3L125,8.4
				c-0.8-0.8-0.7-0.6-0.2-1.6c0.9,0.3,0.3,0.7,1.5,0.6c1.3-0.1,1.3,0.5,1.8,1.4l0.7,1.2c0.2,0.4,0,0,0.2,0.3
				c0.6,0.8,0.1-0.3,0.5,0.8c0.4,1.2,0.8,1.9,1.9,2.9c0.8,0.8,1.3,1.2,2.4,1.3c2.5,0.3,0.1-2.9,0.7-4c0.8-1.4,0.2-0.9,0.4-2
				c0.1-0.7,0.7-0.8,0.5-2c-0.1-1-1.1-1.2-1.8-2.5c0,0,0-0.1-0.1-0.1c-0.4-0.7-1.4-1-2.2-1.4c-0.8-0.5-0.7-0.8-1.3-1.5
				c-0.2,0-2.1,0-2.4,0.1c-0.9,0.3-0.8,0.8-1.5,1.3c-0.4,0-0.7-0.2-1.3-0.2c-0.8,0-1,0.3-1.7,0.4l-0.8,0.5c-0.8,0.6-0.3,0.4-1.3,0.4
				c-2.2,0.1-4.7,0.2-7.2,0.3l3.5,0.6c-0.3,0.2-0.3,0-0.8,0.4c-0.6,0.4-0.1,0.3-1,0.5c-0.8,0.3-1.4,0.4-2-0.3c0,0,0-0.2-0.1-0.1
				L113.3,4c-0.1-0.8,0.1-1.1,0.2-1.8c-0.7-0.3-1.1-0.6-1.8-1c-0.6-0.3-1.1,0.3-1.7,0.4l1.1-1.3c0.3-0.3,0.9-0.7,1.3-1.1
				c0.6,0.8-0.1,0.5,0.7,0.6c0.8-0.6,0.4-0.2,0.8-1.1c-0.1-0.3-0.4-0.3-0.5-0.7c0.4-0.5,0.5-0.9,0.7-1.2c0.5-0.6,0.4-0.1,1.3-0.6
				c1.3-0.8,1.2-1,2.4,0.1l3.2-0.8c-1-0.2-0.6-0.5-1.1-1.3l0.2,0.1h0l2.8-0.3c1,1.2,1.1,0.7,1.6,1.2c0.5,0.4,0.8,1,1.3,1.4
				c0.8-0.2,0.6-0.4,1.3-0.6c-0.3-0.5-0.4-0.7-0.8-1.1c0.8-0.3,2-0.5,2.9-0.4c2.2,0.2,0.5,0.6,0.1,1.1c0.4,0.8,1.6,1,2.7,1.1
				c2.3,0.2,2.3,0.2,3.1-0.7c0.8,1.3,1,0.4,1.5,1.5c0.2,0.4,0.2,0.4,0.3,0.8c-0.3,0.4-0.5,0.7-1.1,0.8c0,0-0.1,0-0.1,0
				c0.9,0.6,0.4,0.5,1,1.2c0.9,1.3,4,3.2,5,4.5c0.9,1.1,1.7,1.3,3.1,1.3c0.4,0,1.2,0.4,1.7,0.6l0.4,1.7c-1.2,0.2-1.4-0.1-2.3-0.7
				c-0.4-0.3-1-0.4-1.3-0.3L143,7.6c0,0,0,0-0.1,0c-0.2-0.3,0.1-0.6,0.2-1l-1.4-1c0.3,1.1,0.7,1.2,1,2.4c0.4,2,0.3,1,1.4,1.8
				c0.3,0.7,0,1.2,0.6,1.9c0.5,0.6,0.8,1,1.7,1l0.4-1.2l0.2,1.2c0.5-0.2,0.4-0.2,0.8-0.6c0.2,0.5,0.3,0.4,0.6,0.8
				c1.2-0.3,1.4-0.5,2.1,0.6c-0.5,1.4-1.9,1.9-0.3,3.2c0.7,0.6,0.5,0.9,1,1.5c0.4,0.4,0.3,0.1,0.6,0.6c0.2,0.2,0.3,0.5,0.4,0.8
				l0.7-1.1c0.5,1.3,0.1,1.2,0.3,2.4c0.2,1.2,0.8,1.5,0.7,2.4c-0.3-0.8,0-0.3-0.4-0.4l-0.3,0.9c-0.5,0.1,0.3-0.3-0.3-0.2l-0.6,2.4
				c0.9,0.3,0.5,0.4,1.4,0.2c0.2,2.3-0.3,2.4,0.9,4.3c0.5,0.8,0.4,1.9,0.2,2.7c0.5,0.4,0.6,0.5,0.8,1.2c0.3,0,0.7,0,1,0.1
				c0.6,0.2,0.3,0.5,0.9,0.6c2.2-0.2,2-0.4,2.7-2.3c0.3-0.7,0.5-0.9,0.8-1.6c0.2-0.6,0.3-1.4,0.5-2c0.2,6-3.8,14.5-7.1,18.9
				c-1.8,2.4-4,4.7-6.3,6.6c-1.7,1.3-5.8,4.2-8.2,4.9c0.8-1.6,4.4-2.2,6-4.6c1-1.5,0.5-1.5,2-3.3c0.8-1,1.8-1.9,1-3.6
				c-1.1,0.2-0.5,0.4-1.8,0.3c-1.2,0-1,0.2-2,0.5c-1.3,0.4-0.8,0-1.6,0.1c-0.6,0.1-1.4,0.2-2.1,0.3c0,0,0-0.2-0.1-0.2l-0.5-0.6
				c0,0-0.1-0.1-0.1-0.1c0,0-0.1-0.1-0.1-0.1c0,0-0.1-0.1-0.1-0.1c-0.3-0.3,0.1,0-0.4-0.4c-1.9-1.4-2.9,0.9-5.9-1.2
				c0.4-0.6,2.6-1.2,3.3-1.4c-1,0-3.1,0.3-4.1,0.5c-2.2,0.4-3.2,1.2-4.4,0.1c-0.1-0.1-0.1-0.1-0.1-0.1c0.1,0,0,0,0,0c0,0,0,0-0.1,0
				c0,0-0.1,0-0.1,0l-0.4-0.1c0,0-0.1,0-0.1,0l-0.9,0c-0.5,0-0.1-0.1-0.5,0c-0.2,0-0.5,0.3-0.7,0.4c-0.5,0.2-0.4,0.1-1,0.3
				c-0.9,0.3-0.9,0.6-1.3,1.3c-0.7-0.2-0.9-0.5-1.6-0.5c-0.9,0-0.8,0.5-1.6,0.2c-1.5-0.6-0.4-1.8-0.5-3.1c-0.9-0.9-1.4-0.8-2.9-1
				c0-0.7,1-2,1-2.7h0.3C118.6,40.8,118.6,40.8,118.6,40.8z"/>
			<path class="st1" d="M119.2,16L119.2,16C119.2,16,119.2,16,119.2,16L119.2,16z"/>
			<path class="st2" d="M119.5,39.8c-0.6,0.2-0.9,0.3-0.9,1h-0.3c0-0.1,0-0.2-0.1-0.3c-0.5-0.4-2.3-0.7-2.8-0.1
				c-0.6,0.8,0.3,0.8-0.8,0.9c-1.9,0.3-2.3-1.4-2.4-2.5c-0.1-1.1,0.6-1.3,0.6-2.8c0.6-0.3,1.6-0.7,2.2-0.4l2.1,0.9
				c0.4-0.5,0.6-0.9,1.3-0.6c0.7,0.3-0.2,0.1,0.7,0.4c0.6,0.2,0.2-0.3,0.6,0.1c0.5,0.6,0.1,0.7,0.5,1.5c0.3,0.5,0.5,0.8,0.7,1.5
				C120.4,39.7,120.1,39.7,119.5,39.8z"/>
			<path class="st1" d="M113.4,52.1c0.4-0.5,0.3-0.1,0.5-0.6c0.2-0.4-0.1-0.4,0.3-0.9l1.2,1.7l-0.8,0.4L113.4,52.1z"/>
			<path class="st1" d="M112-6.9l-2,1.4c-0.6,0.4-0.7,0-1.4,0c-0.4,0-1,0.2-1.5,0.3C107.7-6.8,110.3-6.8,112-6.9z"/>
			<path class="st1" d="M106-3c0.5,0.2,0.6,0.4,0.4,0.8C105.9-2.4,105.8-2.5,106-3z"/>
			<path class="st1" d="M104.6-0.7c-0.3,0.6-0.6,0.8-1.1,1.3c-0.2-0.2-0.2,0.3-0.1-0.4l0.4-1.3L104.6-0.7z"/>
			<path class="st2" d="M113.9,51.5c-0.2,0.5-0.1,0-0.5,0.6l1.1,0.5l0.8-0.4l-1.2-1.7C113.9,51.1,114,51.1,113.9,51.5z M103.3,0.2
				c0,0.7,0,0.3,0.1,0.4c-0.7,0.6-1.7,1.1-2.5,1.7l0.8,0.1c0,0.8,0,1.1,0,1.2c0,0.1-0.2,0-0.7,0.3c1.7,0.9,2.1,2.4,3.3,2.7
				c0,0.4,0,0.2-0.1,0.8c2.1,0.6,0.5,0.3,2.2,0.1c0.2,0.2,1.2,0.8,0.7,2.9c-0.2,0.8-0.8,1.7-1.3,2.4c-1.4,2.3,0.3,4.9-0.8,6.1
				c-0.3,0.3-0.3,0.1-0.4,0.4c0,0,0.3,0.2-0.5,1c-0.7,0.7-0.3,0.3-0.8,1.2c-0.4,0.9-0.8,0.9-0.8,2.9c-0.1,1.8-0.3,2.1,0.3,3
				c0.8,1.3,0.3,2,0.4,3.7l-0.8-0.5l1.4,3.1c0.4,1.2-0.7-0.2,0.3,1.3c0.4,0.7,0.4,1,0.6,1.8c0.8-0.3,1.1-0.1,1.2-1
				c0.2,0.5,0.8,1.3,0.8,1.8c0,0.4-0.9,1.6,1.4,3.3c0.6,0.4,0.8,0.7,1.4,1.3c2.8,2.1,2.4,0.8,3.4,1.5c1.4,1.1-1,0.2,3.2,2.2
				c1.7,0.8,0.5,1.4,2.1,2.2c0.8,0.4-0.1,0.4,1,0.8c0.8,0.3,0.3-0.1,1,0.4c0.4,0.3,0.1,0.4,0.8,0.3c0.4,0,0.7-0.3,1.1-0.2
				c0.6,0.2,0.6,1.3,0.1,1.8c-0.3,0.3-0.9,0.5-1.7,1.5c-0.2,0.3-0.1,0.1-0.2,0.4c-0.5,1.3,0,0-0.3,2.2c0,0,0,0.1,0,0.1
				c1.6,0.9,1.5,0.8,2.4,2c0.6,0.8,1.4,1.7,2.4,2c0.7,0.2,1.8,0.5,2.4,0.6c-0.1,0.8-0.4,1.4-0.8,2c-0.4,0.5-0.1,0.1-0.3,0.5
				c-1,1.9-8.7,0.1-10-0.2C104.6,59.4,95.1,51,90.7,40c-5-12.6-2.6-26.5,5.8-36.9l3.9-4.1c0.8-0.7,3.5-2.8,4.6-3.2
				c-1.2,1.3-2.3,3.2-3.4,4.6c0.1-0.1,0.7-0.8,1.5-1.5l0.8,0.1L103.3,0.2z M90.7,22.4c0.3-0.9,0.4-3.4,0.3-4
				c-1.2,0.2-0.9,0.6-0.9,1.8c-0.1,1.1-0.4,1.3-0.3,2.4v0L90.7,22.4z"/>
			<path class="st1" d="M106-3c-0.3,0.5-0.1,0.6,0.4,0.8C106.7-2.7,106.5-2.8,106-3z M104.1,0.4l-0.6,0.2v0c0.5-0.4,0.8-0.7,1.1-1.3
				l-0.8-0.4L103-1.2c1.2-1.3,2.7-2.8,3.1-3c-0.3,0.7-0.3,0.4-0.6,1c1.9-0.2,0.3,0.2,2,0.3c0.4,0,0-0.2,0.6,0
				c-0.1,0.5,0.3,0.1-0.4,0.5c-0.3,0.2-0.5,0.3-0.7,0.4c0.5,0.3,1.5,0.1,1.1,1.2c0,0,0,0.1-0.1,0.1l-0.2,0.3
				c0.3,0.2,0.3,0.2,0.7,0.3c0,0,0.3,0.1,0.3,0.1l0.3,0.1c0,0,0.1,0,0.1,0.1c-1.5,0.8-1.3,1.3-1,2.1l-2.1,0l-0.2,1.3
				c-0.2,0.4-0.3,0.3-0.5,0.8c-0.1,0.4,0.5,0-0.3,0.6c-0.5,0.2-1.3-1-1.4-1.2c-0.2-0.2,0.3-0.4-1.6-0.3c0,0,0.1-0.1,0.1-0.1
				c0.4-0.5,0.2-0.1,0.6-0.5c0.1-0.2,0.3-0.6,0.4-0.8C103.4,1.4,103.7,1.2,104.1,0.4z"/>
			<path class="st1" d="M103.5,0.6l0.6-0.2c-0.4,0.7-0.7,1-1.1,1.8c-0.1,0.3-0.3,0.7-0.4,0.8c-0.4,0.5-0.2,0.1-0.6,0.5l-0.2,0
				c0-0.1,0-0.4,0-1.2L101,2.3C101.8,1.7,102.7,1.2,103.5,0.6L103.5,0.6z"/>
			<path class="st1" d="M152.2,11.9c0.4,0.6,0.4,0.3,0.6,1.3l0.7-0.2c0.2,0.6,0.2,0.7,0.5,1.1l0.2-1.5c-0.9-0.6-0.5,0.3-1.6-1.3
				L152.2,11.9L152.2,11.9L152.2,11.9z M153.8,14.2h-0.6l0.6,1.2c0.1-0.2,0.2-0.5,0.2-0.7C153.9,13.9,153.9,14.4,153.8,14.2z
				 M131.3,23.5c-1.1,0.2-0.9,0-1.2,0.4l0.3,0.6c0.4-0.1,0.8-0.4,0.8-0.8C131.3,23.5,131.3,23.5,131.3,23.5z M131,22.9
				c0.1,0.1,0.2,0.3,0.3,0.4l0.4-0.8l0,0v0v0L131,22.9z M128,15.7l-0.8,0.1c0,0.6,0,0.8,0.3,1.2L128,15.7z M122.6,38.4
				c-0.5,0.7-0.6,0.6-1,1h-0.6c-0.1-0.7-0.4-1.1-0.7-1.5c-0.4-0.8,0.1-0.9-0.5-1.5c-0.4-0.4,0,0.1-0.6-0.1c-0.8-0.3,0-0.1-0.7-0.4
				c-0.7-0.3-0.9,0.2-1.3,0.6l-2.1-0.9c-0.6-0.2-1.6,0.2-2.2,0.4c0,1.4-0.7,1.8-0.6,2.8c0.2,1.2,0.5,2.8,2.4,2.5
				c1.2-0.2,0.3-0.2,0.8-0.9c0.4-0.6,2.3-0.3,2.8,0.1c0.1,0.1,0.1,0.2,0.1,0.3c0,0.7-1,2.1-1,2.7c1.4,0.2,2,0,2.9,1
				c0.2,1.3-0.9,2.5,0.5,3.1c0.9,0.4,0.7-0.2,1.6-0.2c0.7,0,0.8,0.4,1.6,0.5c0.4-0.7,0.3-1.1,1.3-1.3c0.6-0.2,0.5-0.1,1-0.3
				c0.2-0.1,0.5-0.4,0.7-0.4c0.5-0.2,0.1,0,0.5,0l0.9,0c0,0,0.1,0,0.1,0l0.4,0.1c0,0,0,0,0.1,0c0,0,0.1,0,0.1,0s0.1,0.1,0.1,0.1
				c1.2,1.1,2.2,0.3,4.4-0.1c1-0.2,3.1-0.5,4.1-0.5c-0.7,0.3-2.9,0.8-3.3,1.4c3.1,2.1,4-0.2,5.9,1.2c0.5,0.4,0.1,0.1,0.4,0.4
				c0,0,0.1,0.1,0.1,0.1c0.1,0,0.1,0.1,0.1,0.1c0.1,0,0.1,0.1,0.1,0.1l0.5,0.6c0,0,0,0.1,0.1,0.2c0.7-0.1,1.5-0.2,2.1-0.3
				c0.7-0.1,0.3,0.3,1.6-0.1c1-0.3,0.8-0.5,2-0.5c1.3,0,0.8-0.2,1.8-0.3c0.8,1.7-0.2,2.6-1,3.6c-1.5,1.8-1.1,1.8-2,3.3
				c-1.6,2.4-5.2,3-6,4.6c2.4-0.7,6.5-3.6,8.2-4.9c2.3-1.9,4.5-4.2,6.3-6.6c3.4-4.5,7.4-12.9,7.2-18.9c-0.3,0.5-0.3,1.3-0.5,2
				c-0.2,0.7-0.5,0.9-0.8,1.6c-0.7,1.8-0.4,2.1-2.7,2.3c-0.6-0.1-0.3-0.4-0.9-0.6c-0.3-0.1-0.8-0.1-1-0.1c-0.3-0.7-0.4-0.8-0.8-1.2
				c0.3-0.8,0.3-1.9-0.2-2.7c-1.2-1.8-0.7-1.9-0.9-4.3c-0.9,0.3-0.5,0.1-1.4-0.2l0.6-2.4c0.6-0.1-0.3,0.3,0.3,0.2l0.3-0.9
				c0.4,0.2,0.1-0.3,0.4,0.4c0.1-1-0.5-1.3-0.7-2.4c-0.2-1.2,0.2-1.1-0.3-2.4l-0.7,1.1c-0.2-0.3-0.3-0.6-0.4-0.8
				c-0.4-0.6-0.3-0.2-0.6-0.6c-0.5-0.6-0.3-0.9-1-1.5c-1.5-1.3-0.2-1.8,0.3-3.2c-0.6-1.1-0.9-0.9-2.1-0.6c-0.3-0.4-0.4-0.3-0.6-0.8
				c-0.3,0.4-0.3,0.4-0.8,0.6l-0.2-1.2l-0.4,1.2c-0.8,0-1.2-0.4-1.7-1c-0.6-0.8-0.3-1.2-0.6-1.9c-1.1-0.8-1.1,0.2-1.4-1.8
				c-0.3-1.2-0.7-1.3-1-2.4l1.4,1c-0.1,0.4-0.3,0.6-0.2,1c0,0,0.1,0,0.1,0l0.3-0.1c0.3-0.1,1,0,1.3,0.3c0.8,0.6,1.1,0.9,2.3,0.7
				l-0.4-1.7c-0.5-0.2-1.2-0.6-1.7-0.6c-1.4,0-2.3-0.3-3.1-1.3c-1-1.3-4-3.1-5-4.5c-0.5-0.7-0.1-0.6-1-1.2c0,0,0.1,0,0.1,0
				c0.5-0.2,0.8-0.4,1.1-0.8c-0.1-0.4-0.1-0.4-0.3-0.8c-0.5-1.1-0.7-0.2-1.5-1.5c-0.8,0.8-0.8,0.9-3.1,0.7c-1.1-0.1-2.2-0.3-2.7-1.1
				c0.4-0.4,2.1-0.9-0.1-1.1c-0.8-0.1-2.1,0.2-2.9,0.4c0.4,0.4,0.5,0.5,0.8,1.1c-0.8,0.3-0.6,0.4-1.3,0.6c-0.5-0.4-0.8-1-1.3-1.4
				c-0.5-0.4-0.6,0-1.6-1.2l-2.8,0.3h0l-0.1,0c0.4,0.7,0.1,1,1.1,1.3l-3.2,0.8c-1.3-1-1.2-0.8-2.4-0.1c-0.8,0.5-0.8,0-1.3,0.6
				c-0.2,0.2-0.3,0.7-0.7,1.2c0.2,0.4,0.4,0.4,0.5,0.7c-0.4,0.9-0.1,0.4-0.8,1.1c-0.8-0.2-0.1,0.2-0.7-0.6c-0.4,0.4-1,0.7-1.3,1.1
				l-1.1,1.3c0.6-0.1,1-0.8,1.7-0.4c0.7,0.4,1.1,0.7,1.8,1c-0.1,0.7-0.3,1.1-0.2,1.8l0.3,1.5c0,0,0,0.1,0.1,0.1
				c0.6,0.7,1.3,0.5,2,0.3c0.9-0.3,0.3-0.1,1-0.5c0.5-0.4,0.5-0.2,0.8-0.4L114,4.6c2.5-0.1,5-0.2,7.2-0.3c1,0,0.4,0.2,1.3-0.4
				l0.8-0.5C124,3.3,124.2,3,125,3c0.6,0,0.9,0.2,1.3,0.2c0.7-0.4,0.5-1,1.5-1.3c0.3-0.1,2.2-0.2,2.4-0.1c0.5,0.7,0.4,1,1.3,1.5
				c0.8,0.4,1.8,0.7,2.2,1.4c0,0,0,0.1,0.1,0.1c0.7,1.3,1.7,1.6,1.8,2.5c0.2,1.2-0.4,1.3-0.5,2c-0.2,1.1,0.4,0.6-0.4,2
				c-0.6,1.1,1.9,4.2-0.7,4c-1.1-0.1-1.6-0.5-2.4-1.3c-1-1-1.4-1.6-1.9-2.9c-0.4-1.1,0.1,0.1-0.5-0.8c-0.2-0.3,0,0-0.2-0.3l-0.7-1.2
				c-0.5-1-0.5-1.5-1.8-1.4c-1.2,0.1-0.7-0.3-1.5-0.6c-0.5,0.9-0.6,0.7,0.2,1.6l1.2,1.2c1,0.8,1.3,1.6,2.5,2.3l-0.4,2.8
				c-0.1,0.5,0,0-0.3,0.6c0.4,0.5,0.8,1,1.3,1.6l0.8,1.2c0.4,0.8,1.4,0.7,2.1,1.4c0.7,0.6,0.9,1.3,0.8,2.2c0.4,0.1,0.7,0.2,1.2,0.3
				l0.8,0.2c-0.3,0.6-0.1,1.3-0.1,2c-0.5,0.4-0.9,0.4-1.1,1c-0.1,0-0.1-0.1-0.1-0.1c0,0-0.1-0.1-0.1-0.1c0-0.1-0.1-0.1-0.1-0.1
				l-1.2-0.3c-0.1,0-0.2,0-0.2,0c0.1,0,0,0,0,0c0,0-0.1,0-0.1,0.1l0.3,0.5c-0.6,0.7-0.4,0.8-1.4,1.3c-0.7,0.4-0.9,0.9-1.5,1.2
				c-0.4-0.2-0.6-0.4-0.9-0.7c-0.3,0.3-0.8,0.5-1,0.7c0.1,1,0.2,0.1,0.3,1.1c-1.9,1.3-2.7,0.7-2.8,4.2c-0.6,0.5-1,0.5-1.7,1
				c-1.5,1.1-1.7,1.1-1.3,2.8c0.5,1.7,0.5,1,0.8,1c1.5-0.1,1,0,1.3,0.5l0.8,1.2c-0.5,0.5-0.7,0.3-1.2,0c0,0.7-0.1,0.6-0.2,1
				l-0.5-0.2c-0.2-0.4-0.4-0.5-0.6-0.8l0-0.5C122.6,38.7,122.6,38.7,122.6,38.4z M122.8,15.5c-0.3,0.3-0.7,0.9-0.8,1.1l0-1.5
				l-0.7-0.9c-0.9,0.6-1.7,1.1-2.1,1.8l0,0v0h0l0,0v0l0,0c0,0.1,0.1,0.2,0.1,0.2l0.2,0.5c0.4,0.9,0,0.3,0.9,1.1
				c0.6,0.5,1.1,1.5,3.3,0.3c-0.1-0.7-0.3-0.3-0.3-0.8c0-0.7,0.2-0.3,0.3-0.9C123.1,16,123.4,15.9,122.8,15.5z M112-6.9
				c-1.6,0.1-4.3,0.2-4.9,1.7c0.5-0.1,1.1-0.3,1.5-0.3c0.8,0,0.8,0.3,1.4,0L112-6.9z M106-4.2c-0.3,0.2-1.9,1.7-3.1,3
				c-0.8,0.8-1.4,1.4-1.5,1.5c1.1-1.4,2.3-3.2,3.4-4.6c-1.2,0.4-3.9,2.5-4.6,3.2l-3.9,4.1C88.1,13.5,85.7,27.3,90.7,40
				c4.4,11,13.9,19.5,25.6,22.3c1.3,0.3,8.9,2.1,10,0.2c0.3-0.4-0.1,0,0.3-0.5c0.4-0.5,0.8-1.1,0.8-2c-0.7-0.2-1.7-0.4-2.4-0.6
				c-0.9-0.3-1.7-1.2-2.4-2c-0.9-1.1-0.8-1.1-2.4-2c0-0.1,0-0.1,0-0.1c0.4-2.2-0.2-0.9,0.3-2.2c0.1-0.3,0-0.1,0.2-0.4
				c0.8-1,1.4-1.3,1.7-1.5c0.5-0.5,0.5-1.5-0.1-1.8c-0.4-0.2-0.7,0.2-1.1,0.2c-0.7,0.1-0.4,0-0.8-0.3c-0.7-0.5-0.2-0.1-1-0.4
				c-1.2-0.4-0.2-0.4-1-0.8c-1.6-0.8-0.4-1.4-2.1-2.2c-4.2-2.1-1.8-1.2-3.2-2.2c-1-0.7-0.6,0.6-3.4-1.5c-0.7-0.6-0.8-0.8-1.4-1.3
				c-2.3-1.7-1.3-3-1.4-3.3c0-0.5-0.6-1.3-0.8-1.8c-0.1,0.9-0.4,0.7-1.2,1c-0.3-0.7-0.2-1.1-0.6-1.8c-0.9-1.5,0.1-0.2-0.3-1.3
				l-1.4-3.1l0.8,0.5c-0.2-1.7,0.4-2.4-0.4-3.7c-0.6-0.9-0.4-1.2-0.3-3c0.1-2.1,0.4-2,0.8-2.9c0.4-0.9,0.1-0.5,0.8-1.2
				c0.8-0.8,0.5-1,0.5-1c0.1-0.3,0.1-0.1,0.4-0.4c1.2-1.3-0.5-3.9,0.8-6.1c0.4-0.7,1-1.6,1.3-2.4c0.5-2-0.5-2.6-0.7-2.9
				c-1.7,0.2-0.2,0.5-2.2-0.1c0-0.6,0.1-0.3,0.1-0.8c-1.2-0.3-1.6-1.8-3.3-2.7c0.6-0.3,0.7-0.2,0.7-0.3l0.2,0c0,0-0.1,0.1-0.1,0.1
				c1.9,0,1.4,0.2,1.6,0.3c0.2,0.2,0.9,1.3,1.4,1.2c0.8-0.7,0.1-0.2,0.3-0.6c0.2-0.6,0.3-0.4,0.5-0.8l0.2-1.3l2.1,0
				c-0.4-0.7-0.5-1.3,1-2.1c0,0-0.1,0-0.1-0.1l-0.3-0.1c0,0-0.3-0.1-0.3-0.1c-0.3-0.1-0.3-0.1-0.7-0.3l0.2-0.3c0,0,0-0.1,0.1-0.1
				c0.4-1.1-0.5-0.9-1.1-1.2c0.2-0.1,0.5-0.2,0.7-0.4c0.7-0.4,0.3,0,0.4-0.5c-0.5-0.2-0.2,0-0.6,0c-1.6-0.1-0.1-0.5-2-0.3
				C105.7-3.7,105.7-3.5,106-4.2z M165.3,26.3c0,21.3-16.4,38.7-37.3,40.3V70c5.4,0.5,9.5,2.5,9.9,4.9H112c0.4-2.4,4.5-4.4,9.9-4.9
				v-3.4c-20.9-1.5-37.3-19-37.3-40.3C84.6,4,102.7-14,125-14S165.3,4,165.3,26.3z M156.3,11.8c0.4-0.8,0.6-0.2-0.5-2l0,1.4
				c-0.1,0.6,0,0.1-0.6,0c0.1,0.8,0.3,0.8,0.8,1.3l0,0h0v0c0,0,0,0,0,0l0,0l0,0C156.1,12.2,156.1,12.1,156.3,11.8z M153.9,10.8v-1
				c-0.5,0.1-0.5,0.1-0.9,0.4h0C153.4,10.6,153.6,10.7,153.9,10.8z M133.5-4.5c-0.2-0.7-0.1-0.7-0.7-0.6c-0.6,0.1-0.8,0.1-1.3,0.4v0
				C132-4.4,132.8-4.5,133.5-4.5z M128.7,63.1v-0.2h-1.1v0.2H128.7z M124.2,12.5c0.1-0.8-0.1-0.4,0.2-1.3c-0.4,0.3-0.3,0-0.3,0.5
				c-0.3,1.4,0,0.6-0.7,1.3c-0.3,0.3-0.1,0.4,0.2,0.6C123.8,13.2,124.1,12.9,124.2,12.5z"/>
			<path class="st1" d="M90,20.1c0.1-1.2-0.3-1.6,0.9-1.8c0.1,0.7,0,3.1-0.3,4l-1,0.3v0C89.6,21.4,89.9,21.2,90,20.1z"/>
		</g>
	</g>
</g>
</svg>
