<?xml version="1.0" encoding="utf-8"?>
<!-- Generator: Adobe Illustrator 19.0.0, SVG Export Plug-In . SVG Version: 6.00 Build 0)  -->
<svg version="1.1" id="Layer_1" xmlns="http://www.w3.org/2000/svg" xmlns:xlink="http://www.w3.org/1999/xlink" x="0px" y="0px" width="70px" height="70px"
	 viewBox="176 -176 512 512" style="enable-background:new 176 -176 512 512;" xml:space="preserve">
<style type="text/css">
	.st0{fill:#00B8E6;}
	.st1{fill:#333333;}
</style>
<path class="st0" d="M465,173c7.8-9,12.4-20.9,12.4-31.8c0-10.9-4.5-22.8-12.1-31.7c-9-10.6-21.8-16.5-36-16.5
	c-31.2,0-47.8,28-47.8,48.2c0,4.1,3.4,7.5,7.5,7.5c4.1,0,7.5-3.4,7.5-7.5c0-7.2,3.2-15.5,8.4-21.8c4.3-5.2,12.1-11.5,24.3-11.5
	c21.5,0,33,19.3,33,33.2c0,13.6-11.8,33.3-33,33.3H220.5c-4.1,0-7.5,3.4-7.5,7.5s3.4,7.5,7.5,7.5h208.9
	C443.2,189.5,455.8,183.6,465,173z"/>
<path class="st0" d="M238.5,158.5h89.4c20,0,33.4-17.2,33.4-33.3c0-16-12.8-33.3-33.4-33.3c-9.8,0-18.7,4.2-24.9,11.7
	c-5.1,6.1-8.1,14.2-8.1,21.6c0,4.1,3.4,7.5,7.5,7.5s7.5-3.4,7.5-7.5c0-6.4,5.3-18.3,18-18.3c6.4,0,18.4,5.4,18.4,18.3
	c0,7.5-6.5,18.3-18.4,18.3h-89.4c-4.1,0-7.5,3.4-7.5,7.5S234.4,158.5,238.5,158.5z"/>
<path class="st0" d="M520.2,213.9c-6.4-7.4-15.2-11.4-24.8-11.4H387.7H253.5c-4.1,0-7.5,3.4-7.5,7.5s3.4,7.5,7.5,7.5h134.2
	c12,0,19.8,6.1,24.2,11.2c5.4,6.3,8.8,14.6,8.8,21.9c0,13.9-11.5,33.1-33,33.1c-12.3,0-20-6.2-24.3-11.4c-5.2-6.2-8.4-14.5-8.4-21.7
	c0-4.1-3.4-7.5-7.5-7.5s-7.5,3.4-7.5,7.5c0,20.2,16.6,48.1,47.7,48.1c14.1,0,26.9-5.8,36-16.4c7.6-8.9,12.1-20.7,12.1-31.6
	c0-10.8-4.6-22.7-12.4-31.7c-0.4-0.5-0.9-1-1.3-1.4h73.4c7.5,0,18.4,6.6,18.4,18.4c0,6.4-5.4,18.4-18.4,18.4
	c-13,0-18.6-12.2-18.6-18.4c0-4.1-3.4-7.5-7.5-7.5s-7.5,3.4-7.5,7.5c0,14,11.7,33.4,33.6,33.4c9.8,0,18.7-4.1,25-11.5
	c5.2-6.1,8.3-14.3,8.3-21.9C528.7,228.4,525.5,220.2,520.2,213.9z"/>
<path class="st1" d="M551.5-22.5H540c-22.3-52.9-74.6-90-135.5-90c-81.2,0-147,65.8-147,147c0,1.8,0,3.6,0.1,5.4
	c-39.6,9.4-69.1,45-69.1,87.6c0,16.2,4.3,31.4,11.8,44.6c2.4-4.8,6.4-8.6,11.3-10.8c-5.2-10.2-8.1-21.7-8.1-33.8
	c0-34.9,23.7-64.9,57.6-73l12-2.8l-0.4-12.3c-0.1-1.9-0.1-3.4-0.1-4.9c0-72.8,59.2-132,132-132c53.3,0,101,31.7,121.7,80.8l3.9,9.2
	h21.4c57.9,0,105,47.1,105,105s-47.1,105-105,105H530c0.5,0.5,1,1.1,1.5,1.6c3.5,4,6.3,8.6,8.3,13.4h11.7c66.3,0,120-53.7,120-120
	S617.8-22.5,551.5-22.5z"/>
</svg>
