<?xml version="1.0" encoding="utf-8"?>
<!-- Generator: Adobe Illustrator 16.0.0, SVG Export Plug-In . SVG Version: 6.00 Build 0)  -->
<!DOCTYPE svg PUBLIC "-//W3C//DTD SVG 1.1//EN" "http://www.w3.org/Graphics/SVG/1.1/DTD/svg11.dtd">
<svg version="1.1" id="Layer_1" xmlns="http://www.w3.org/2000/svg" xmlns:xlink="http://www.w3.org/1999/xlink" x="0px" y="0px"
	 width="127px" height="88.9px" viewBox="110.1 -54.4 127 88.9" style="enable-background:new 110.1 -54.4 127 88.9;"
	 xml:space="preserve">
<g>
	<path d="M209.2,13.7c-7.3,0-16,4-29.7,4s-18.3-4.8-29.7-4.8s-16,2.3-25.2,2.4c-9.2,0.1-13.7-2.4-13.7-2.4s0.7,2.9,5,4.2
		c5.8,1.8,20.8-2.6,34.1-2.6s15.1,5.6,27.7,5.6c12.6,0,24.9-4.8,31.6-4.8c6.6,0,11.4,2.4,11.4,2.4S216.6,13.7,209.2,13.7z"/>
	<path d="M209.2,13.7v-0.5c-3.7,0-7.8,1-12.6,2s-10.3,2-17.1,2s-11.3-1.2-15.6-2.4c-4.3-1.2-8.3-2.4-14.1-2.4
		c-5.7,0-9.8,0.6-13.5,1.2s-7.1,1.2-11.7,1.2c-0.2,0-0.4,0-0.5,0c-4.4,0-7.6-0.6-9.8-1.2c-1.1-0.3-1.9-0.6-2.4-0.8
		c-0.3-0.1-0.5-0.2-0.6-0.3l-0.1-0.1l-1-0.6l0.3,1.1c0,0.1,0.2,0.8,1,1.8s2.1,2.1,4.4,2.8c1.1,0.3,2.4,0.5,3.8,0.5
		c3.6,0,8.5-0.8,13.8-1.5c5.3-0.8,11.1-1.5,16.6-1.5c6.6,0,10.2,1.4,13.9,2.8c3.7,1.4,7.4,2.8,13.8,2.8s12.6-1.2,18.1-2.4
		c5.5-1.2,10.2-2.4,13.5-2.4c3.2,0,6,0.6,8,1.2c1,0.3,1.8,0.6,2.3,0.8c0.3,0.1,0.5,0.2,0.6,0.3l0.2,0.1l2.9,1.4l-2.3-2.2
		c0,0-4.3-4.1-11.8-4.1L209.2,13.7l0.1,0.5c3.6,0,6.4,1,8.3,1.9c0.9,0.5,1.7,1,2.1,1.3c0.2,0.2,0.4,0.3,0.5,0.4l0.1,0.1l0.3-0.4
		l0.2-0.4c0,0-4.9-2.5-11.6-2.5c-3.5,0-8.2,1.2-13.7,2.4s-11.7,2.4-17.9,2.4s-9.7-1.4-13.4-2.8c-3.7-1.4-7.6-2.8-14.3-2.8
		c-5.6,0-11.4,0.8-16.7,1.5c-5.3,0.8-10.2,1.5-13.7,1.5c-1.4,0-2.6-0.1-3.5-0.4c-2.1-0.6-3.2-1.6-3.9-2.4c-0.3-0.4-0.5-0.8-0.6-1
		c-0.1-0.1-0.1-0.2-0.1-0.3v-0.1h-0.1h0.1h-0.1h0.1l-0.5,0.1l-0.2,0.4c0.1,0,4.5,2.5,13.4,2.5c0.2,0,0.4,0,0.5,0
		c4.6-0.1,8.1-0.7,11.8-1.2c3.7-0.6,7.7-1.2,13.3-1.2c5.6,0,9.6,1.2,13.9,2.4c4.3,1.2,8.9,2.4,15.8,2.4c6.9,0,12.5-1,17.4-2
		c4.8-1,8.8-2,12.3-2v-0.3H209.2z"/>
	<path d="M190.5,31.9c-10.4-0.1-25.3-7.4-37.4-7.3c-12.1,0.1-26.1,4.2-32.6,4.2s-9.6-1-9.6-1s0.8,3,8.4,3c8.2,0,21.3-4.2,33.7-4.1
		c17.4,0.1,22.5,7.3,37.7,7.2c14.9-0.1,27-6.2,27-6.2S201.4,32,190.5,31.9z"/>
	<path d="M190.5,31.9v-0.5c-5.1,0-11.3-1.9-17.8-3.7c-6.5-1.8-13.2-3.6-19.4-3.6H153c-6.1,0.1-12.7,1.1-18.5,2.1s-11,2.1-14.1,2.1
		c-3.2,0-5.6-0.2-7.2-0.5c-0.8-0.1-1.4-0.2-1.7-0.3c-0.2,0-0.3-0.1-0.4-0.1H111l-0.9-0.3l0.2,0.9c0,0.1,0.3,1,1.6,1.8
		c1.3,0.8,3.5,1.6,7.3,1.6c4.1,0,9.4-1,15.2-2.1c5.8-1,12-2,18.1-2c0.1,0,0.3,0,0.4,0c8.6,0.1,14.1,1.8,19.4,3.6
		c5.3,1.8,10.4,3.6,18,3.6c0.1,0,0.2,0,0.3,0c15-0.1,27.2-6.2,27.2-6.3l4.3-2.1l-4.6,1.2c0,0-0.2,0.1-0.7,0.2c-3.2,0.8-16.6,4-26,4
		c-0.1,0-0.2,0-0.4,0L190.5,31.9v0.5c0.1,0,0.3,0,0.4,0c11,0,26.9-4.2,27-4.2l-0.1-0.5l-0.2-0.4l-0.1,0.1c-1.3,0.7-12.8,6-26.6,6.1
		c-0.1,0-0.2,0-0.3,0c-7.4,0-12.3-1.7-17.7-3.5c-5.3-1.8-11-3.6-19.7-3.7c-0.1,0-0.3,0-0.4,0c-6.2,0-12.5,1-18.3,2.1
		c-5.8,1-11,2-15,2c-3.7,0-5.7-0.7-6.8-1.4c-0.5-0.3-0.8-0.7-1-0.9c-0.1-0.1-0.1-0.2-0.1-0.3v-0.1l-0.3,0.1l0.3-0.1l-0.3,0.1
		l0.3-0.1l-0.5,0.1l-0.2,0.5c0,0,3.2,1,9.8,1c3.3,0,8.5-1,14.3-2.1c5.8-1,12.3-2.1,18.3-2.1h0.2c5.9,0,12.6,1.8,19.1,3.6
		c6.5,1.8,12.8,3.7,18.1,3.7L190.5,31.9z"/>
	<path d="M210.1-53.1l16.4,42c0,0,0,0,0,0.1c2.4,5.1,12.3,34.6,9.5,39.8c-0.3,0.6-1.4,0.5-1.9-0.2L217.8,6.1
		c-8.5-15.4-77.1-11.2-103.2-9.4c-1.2,0.1-1.9-1.4-0.9-1.8l66.9-27.4c0,0,0.1,0,0.1-0.1C199.5-44.2,206-57.1,210.1-53.1z"/>
	<path d="M210.1-53.1l-0.5,0.2l16.4,42l0.5-0.2H226c0,0,0,0,0,0.1v0.1v0.1c0.5,1.1,1.4,3.4,2.4,6.3c1.5,4.4,3.4,10.3,4.9,16
		c1.5,5.6,2.6,11.1,2.6,14.4c0,1.2-0.2,2.2-0.4,2.7l-0.1,0.1c0,0-0.1,0-0.2,0c-0.2,0-0.6-0.1-0.7-0.4L218.2,5.8l-0.4,0.3l0.4-0.2
		c-1.3-2.4-4-4.3-7.5-5.8c-5.3-2.3-12.8-3.7-21.3-4.6s-18.1-1.2-27.7-1.2c-18.2,0-36.3,1.2-47.2,1.9h-0.1c-0.2,0-0.4-0.1-0.6-0.2
		c-0.1-0.1-0.2-0.3-0.2-0.4v-0.1l0.1-0.1L180.8-32l-0.2-0.5v0.5c0,0,0.1,0,0.3-0.1c0.1,0,0.2-0.1,0.2-0.2c0.1-0.1,0.1-0.2,0.1-0.3
		h-0.5l0.3,0.4c8.2-5.1,14.1-10.4,18.5-14.5c2.2-2,4-3.7,5.4-4.9c1.5-1.2,2.7-1.8,3.5-1.8c0.5,0,0.9,0.2,1.3,0.6L210.1-53.1
		l-0.5,0.2L210.1-53.1l0.3-0.4c-0.6-0.6-1.3-0.9-2-0.9c-1.3,0-2.6,0.8-4.1,2c-2.3,1.8-5.2,4.8-9.1,8.2c-3.9,3.4-8.7,7.3-14.8,11.1
		l-0.2,0.1v0.3h0.4l-0.3-0.2l-0.1,0.2h0.4l-0.3-0.2l0.3,0.2l-0.1-0.4c0,0-0.1,0.1-0.2,0.2l0.3,0.2l-0.1-0.4l0.1,0.4V-33h-0.1
		l0.1,0.4V-33h-0.1l-67,27.4c-0.2,0.1-0.5,0.3-0.6,0.5c-0.1,0.2-0.2,0.4-0.2,0.7c0,0.4,0.2,0.8,0.5,1.1c0.3,0.3,0.7,0.5,1.3,0.5h0.2
		v-0.5v0.5c10.8-0.7,29-1.9,47.1-1.9c12.8,0,25.5,0.6,35.7,2.3c5.1,0.8,9.5,2,12.9,3.4c3.4,1.5,5.9,3.2,7,5.3l16.3,22.5
		c0.4,0.5,1,0.8,1.6,0.8c0.2,0,0.5,0,0.7-0.2c0.2-0.1,0.4-0.3,0.5-0.5l-0.4-0.2l0.4,0.2c0.4-0.8,0.5-1.8,0.6-3.1
		c0-4.7-2-12.8-4.2-20.3c-1.1-3.8-2.3-7.4-3.3-10.4s-1.9-5.3-2.5-6.4l-0.5,0.2h0.5c0-0.1,0-0.1,0-0.1v-0.1l-16.5-42.2l-0.1-0.1
		L210.1-53.1z"/>
	<path d="M189.9,7.9c-7.9-0.1-19.3-7-28.5-6.9c-9.2,0.1-19.9,4-24.9,4c-4.9,0-7.3-1-7.3-1s0.6,2.8,6.4,2.8c6.2,0,16.2-4,25.7-3.9
		C174.6,3,178.5,9.8,190,9.7c11.4-0.1,20.6-5.8,20.6-5.8S198.2,8,189.9,7.9z"/>
	<path d="M189.9,7.9V7.4c-3.8,0-8.5-1.7-13.5-3.5c-5-1.7-10.1-3.4-14.8-3.4h-0.2c-4.7,0.1-9.7,1.1-14.1,2c-4.5,1-8.4,2-10.8,2
		c-2.4,0-4.2-0.2-5.4-0.5c-0.6-0.1-1-0.2-1.3-0.3c-0.1,0-0.2-0.1-0.3-0.1h-0.1l-0.9-0.4l0.2,0.9c0,0.1,0.2,0.9,1.2,1.7
		c1,0.8,2.7,1.5,5.7,1.5c3.2,0,7.2-1,11.6-2c4.4-1,9.2-1.9,13.8-1.9c0.1,0,0.2,0,0.3,0c6.5,0.1,10.7,1.7,14.7,3.4
		c4,1.7,7.9,3.4,13.7,3.4h0.3c11.6-0.1,20.8-5.9,20.9-5.9l3.6-2.2l-4,1.3c0,0-0.2,0.1-0.5,0.2c-2.4,0.8-12.6,3.8-19.7,3.8
		c-0.1,0-0.2,0-0.3,0L189.9,7.9v0.5c0.1,0,0.2,0,0.3,0c4.2,0,9.3-1,13.4-2c4.1-1,7.1-2,7.1-2l-0.2-0.5l-0.3-0.4l-0.1,0.1
		c-1,0.6-9.7,5.6-20.2,5.7h-0.2c-5.6,0-9.3-1.6-13.3-3.3c-4.1-1.7-8.4-3.4-15.1-3.5c-0.1,0-0.2,0-0.4,0c-4.8,0-9.6,1-14,2
		c-4.4,1-8.4,1.9-11.3,1.9c-2.8,0-4.3-0.7-5.1-1.3c-0.4-0.3-0.6-0.6-0.7-0.8c-0.1-0.1-0.1-0.2-0.1-0.2V4h-0.5L129,4.5
		c0.1,0,2.5,1,7.5,1c2.6,0,6.5-1,11-2c4.4-1,9.4-2,13.9-2h0.2c4.5,0,9.5,1.7,14.5,3.4c4.9,1.7,9.8,3.5,13.8,3.5V7.9z"/>
</g>
</svg>
