<?xml version="1.0" encoding="utf-8"?>
<!-- Generator: Adobe Illustrator 16.0.0, SVG Export Plug-In . SVG Version: 6.00 Build 0)  -->
<!DOCTYPE svg PUBLIC "-//W3C//DTD SVG 1.1//EN" "http://www.w3.org/Graphics/SVG/1.1/DTD/svg11.dtd">
<svg version="1.1" id="Layer_1" xmlns="http://www.w3.org/2000/svg" xmlns:xlink="http://www.w3.org/1999/xlink" x="0px" y="0px"
	 width="122.4px" height="88.2px" viewBox="231.2 -161.6 122.4 88.2" style="enable-background:new 231.2 -161.6 122.4 88.2;"
	 xml:space="preserve">
<g>
	<path d="M288.2-76.6c0,0,1.2-24.5-2.2-31.5c-3.4-7-9.3-16-9.5-19c-0.2-3.1-0.7-11.7,0-15.3s2.9-12.2,4.9-7c2,5.2-1.5,9.8-1.4,10.7
		c0.2,0.8-1.5,7.5,3.2,13.2s3.6-3.9,3.6-3.9s-2.5-11.8,1.6-12.7c4-0.8,3.2,7.3,2.7,9.5c-0.5,2.2,1.1,10.9,0.4,11.5s0.6,8.8,0.1,9.7
		s0.8,13.4,2.5,8.3c1.7-5.1,2.5-7.3,4.8-9c2.3-1.7,5.7-1.2,2.8,4.8c-2.9,6-6.1,5.7-7.3,14.9c-1.2,9.2-0.2,18.3-0.2,18.3
		S289-73.1,288.2-76.6z"/>
	<path d="M288.2-76.6c0,0,1.2-24.5-2.2-31.5c-3.4-7-9.3-16-9.5-19c-0.2-3.1-0.7-11.7,0-15.3s2.9-12.2,4.9-7c2,5.2-1.5,9.8-1.4,10.7
		c0.2,0.8-1.5,7.5,3.2,13.2s3.6-3.9,3.6-3.9s-2.5-11.8,1.6-12.7c4-0.8,3.2,7.3,2.7,9.5c-0.5,2.2,1.1,10.9,0.4,11.5s0.6,8.8,0.1,9.7
		s0.8,13.4,2.5,8.3c1.7-5.1,2.5-7.3,4.8-9c2.3-1.7,5.7-1.2,2.8,4.8c-2.9,6-6.1,5.7-7.3,14.9c-1.2,9.2-0.2,18.3-0.2,18.3
		S289-73.1,288.2-76.6z"/>
	<path d="M288.2-76.6h0.5c0,0,0.2-4.2,0.2-9.6c0-3.8-0.1-8.3-0.5-12.3c-0.4-4-0.9-7.6-2-9.8c-1.7-3.5-4-7.5-6-11
		c-1-1.7-1.8-3.4-2.4-4.7c-0.6-1.3-1-2.5-1-3.1c-0.1-1.9-0.4-5.9-0.4-9.5c0-2.2,0.1-4.4,0.4-5.7c0.3-1.4,0.8-3.5,1.4-5.3
		c0.3-0.9,0.6-1.7,1-2.2c0.2-0.3,0.3-0.5,0.5-0.6c0.1-0.1,0.2-0.1,0.3-0.1c0,0,0.1,0,0.3,0.2c0.2,0.2,0.4,0.6,0.6,1.1
		c0.4,1.1,0.6,2.2,0.6,3.2c0,1.7-0.5,3.3-1,4.5c-0.2,0.6-0.5,1.2-0.7,1.6c-0.1,0.2-0.2,0.4-0.2,0.6c-0.1,0.2-0.1,0.3-0.1,0.5v0.1
		h0.1h-0.1h0.1h-0.1v0.1c0,0.2,0,0.6-0.1,1.1c0,0.5-0.1,1.2-0.1,2c0,2.7,0.5,6.6,3.5,10.2c0.6,0.7,1,1.2,1.5,1.5
		c0.4,0.3,0.9,0.5,1.3,0.5c0.4,0,0.8-0.2,1-0.5c0.4-0.4,0.5-1,0.6-1.6c0.1-0.6,0.1-1.3,0.1-1.9c0-1.2-0.1-2.2-0.1-2.2s0-0.2-0.1-0.6
		c-0.2-1.1-0.6-3.8-0.6-6.2c0-1.3,0.1-2.6,0.5-3.6c0.2-0.5,0.4-0.9,0.6-1.2c0.3-0.3,0.5-0.5,0.9-0.5l-0.1-0.5l0.1,0.5
		c0.2,0,0.3,0,0.4,0c0.4,0,0.7,0.1,0.9,0.3c0.4,0.3,0.7,1,0.9,1.8s0.3,1.8,0.3,2.7c0,1.7-0.2,3.3-0.4,4.1c-0.1,0.4-0.1,0.8-0.1,1.4
		c0,1.3,0.2,3.1,0.3,4.8c0.2,1.7,0.3,3.4,0.3,4.4c0,0.3,0,0.5,0,0.6v0.1l0.2,0.1l-0.1-0.2l-0.1,0.1l0.2,0.1l-0.1-0.2
		c-0.1,0.1-0.2,0.3-0.2,0.4c-0.1,0.4-0.1,0.8-0.1,1.4c0,1,0.1,2.4,0.2,3.8c0.1,1.4,0.2,2.7,0.2,3.6c0,0.2,0,0.4,0,0.6v0.2l0.1,0.1
		l-0.1-0.1l0.1,0.1l-0.1-0.1c-0.1,0.1-0.1,0.2-0.1,0.3c-0.1,0.3-0.1,0.6-0.1,1c0,1.3,0.2,3.4,0.5,5.3c0.2,0.9,0.4,1.8,0.6,2.4
		c0.1,0.3,0.2,0.6,0.4,0.8c0.1,0.1,0.2,0.2,0.3,0.3c0.1,0.1,0.3,0.2,0.5,0.2c0.2,0,0.4-0.1,0.5-0.2c0.2-0.1,0.3-0.3,0.5-0.6
		c0.1-0.2,0.2-0.5,0.4-0.8c0.8-2.5,1.5-4.4,2.1-5.7c0.7-1.4,1.4-2.2,2.5-3c0.6-0.5,1.4-0.8,2-0.8c0.4,0,0.6,0.1,0.8,0.3
		c0.2,0.2,0.3,0.5,0.3,1.1c0,0.8-0.3,1.9-1.1,3.5c-1.4,2.9-2.9,4.3-4.2,6.2c-1.4,1.9-2.5,4.2-3.1,8.9c-0.5,3.5-0.6,6.9-0.6,9.9
		c0,4.9,0.4,8.5,0.4,8.5l0.5-0.1l-0.1-0.5h-0.1c-0.2,0-0.8,0.1-1.4,0.1c-0.8,0-1.7-0.1-2.4-0.4c-0.7-0.3-1.3-0.9-1.5-1.8H288.2h0.5
		H288.2l-0.5,0.1c0.3,1.3,1.1,2.1,2.1,2.5c0.9,0.4,2,0.5,2.8,0.5c1,0,1.7-0.1,1.7-0.1l0.5-0.1l-0.1-0.5c0,0,0-0.2-0.1-0.6
		c-0.1-1.2-0.3-4.1-0.3-7.8c0-2.9,0.1-6.3,0.6-9.8c0.6-4.5,1.7-6.6,2.9-8.4c1.3-1.8,2.8-3.3,4.3-6.3c0.8-1.7,1.2-3,1.2-4
		c0-0.8-0.2-1.4-0.6-1.8c-0.4-0.4-1-0.6-1.5-0.6c-0.9,0-1.8,0.4-2.6,0.9c-1.2,0.9-2.1,2-2.8,3.4c-0.7,1.4-1.4,3.3-2.2,5.8
		c-0.1,0.4-0.3,0.7-0.4,0.8l-0.1,0.1l0.1,0.1v-0.2h-0.1l0.1,0.1v-0.2v0.2l0.1-0.1h-0.1v0.2l0.1-0.1c0,0-0.1-0.1-0.2-0.3
		c-0.2-0.3-0.3-0.8-0.5-1.5c-0.4-1.9-0.7-4.7-0.7-6.2c0-0.3,0-0.5,0-0.6v-0.2h-0.1l0.1,0.1h-0.1l0.1,0.1c0.1-0.2,0.1-0.4,0.1-0.6
		c0-0.2,0-0.4,0-0.7c0-0.9-0.1-2.3-0.2-3.6c-0.1-1.4-0.2-2.7-0.2-3.7c0-0.3,0-0.6,0-0.8c0-0.1,0-0.2,0-0.2h-0.1h0.1h-0.1h0.1
		l-0.2-0.1l0.2,0.2v-0.1l-0.2-0.1l0.2,0.2c0.1-0.1,0.2-0.2,0.2-0.3c0.1-0.3,0.1-0.7,0.1-1.1c0-1.1-0.2-2.8-0.3-4.5
		c-0.2-1.7-0.3-3.5-0.3-4.7c0-0.5,0-0.9,0.1-1.1c0.2-0.9,0.4-2.6,0.4-4.3c0-1.3-0.1-2.7-0.6-3.8c-0.2-0.6-0.5-1-0.9-1.4
		c-0.4-0.4-1-0.6-1.6-0.6c-0.2,0-0.4,0-0.6,0.1c-0.6,0.1-1,0.4-1.4,0.8c-0.5,0.6-0.9,1.5-1.1,2.4c-0.2,0.9-0.3,2-0.3,3
		c0,3.4,0.8,7,0.8,7l0.5-0.1l-0.5,0.1c0,0,0,0.1,0,0.2c0,0.3,0.1,1.1,0.1,1.9s-0.1,1.7-0.2,2.3c-0.1,0.3-0.2,0.5-0.3,0.7
		c-0.1,0.1-0.2,0.1-0.3,0.2c-0.1,0-0.4-0.1-0.7-0.3c-0.3-0.3-0.8-0.7-1.3-1.3c-2.7-3.3-3.2-7-3.2-9.6c0-0.7,0-1.4,0.1-1.9
		c0-0.5,0.1-0.9,0.1-1.2c0-0.1,0-0.2,0-0.3l-0.5,0.1l0.5-0.1h-0.2h0.2h-0.2h0.2c0-0.1,0.1-0.4,0.3-0.9c0.6-1.3,1.7-3.6,1.7-6.4
		c0-1.1-0.2-2.3-0.7-3.5c-0.2-0.6-0.5-1.1-0.8-1.4c-0.3-0.3-0.6-0.6-1.1-0.6c-0.4,0-0.7,0.2-0.9,0.4c-0.4,0.4-0.8,0.9-1.1,1.6
		c-0.9,2-1.7,5.2-2.1,7c-0.3,1.4-0.4,3.6-0.4,5.9c0,3.7,0.2,7.7,0.4,9.6c0.1,0.9,0.5,2,1.1,3.4c1.9,4.2,5.9,10.5,8.4,15.8
		c0.9,1.9,1.6,5.5,1.9,9.4c0.4,4,0.5,8.4,0.5,12.2c0,2.7-0.1,5.1-0.1,6.8c-0.1,1.7-0.1,2.8-0.1,2.8v0.1v0.1L288.2-76.6z"/>
	<path d="M288.2-76.6h0.5c0,0,0.2-4.2,0.2-9.6c0-3.8-0.1-8.3-0.5-12.3c-0.4-4-0.9-7.6-2-9.8c-1.7-3.5-4-7.5-6-11
		c-1-1.7-1.8-3.4-2.4-4.7c-0.6-1.3-1-2.5-1-3.1c-0.1-1.9-0.4-5.9-0.4-9.5c0-2.2,0.1-4.4,0.4-5.7c0.3-1.4,0.8-3.5,1.4-5.3
		c0.3-0.9,0.6-1.7,1-2.2c0.2-0.3,0.3-0.5,0.5-0.6c0.1-0.1,0.2-0.1,0.3-0.1c0,0,0.1,0,0.3,0.2c0.2,0.2,0.4,0.6,0.6,1.1
		c0.4,1.1,0.6,2.2,0.6,3.2c0,1.7-0.5,3.3-1,4.5c-0.2,0.6-0.5,1.2-0.7,1.6c-0.1,0.2-0.2,0.4-0.2,0.6c-0.1,0.2-0.1,0.3-0.1,0.5v0.1
		h0.1h-0.1h0.1h-0.1v0.1c0,0.2,0,0.6-0.1,1.1c0,0.5-0.1,1.2-0.1,2c0,2.7,0.5,6.6,3.5,10.2c0.6,0.7,1,1.2,1.5,1.5
		c0.4,0.3,0.9,0.5,1.3,0.5c0.4,0,0.8-0.2,1-0.5c0.4-0.4,0.5-1,0.6-1.6c0.1-0.6,0.1-1.3,0.1-1.9c0-1.2-0.1-2.2-0.1-2.2s0-0.2-0.1-0.6
		c-0.2-1.1-0.6-3.8-0.6-6.2c0-1.3,0.1-2.6,0.5-3.6c0.2-0.5,0.4-0.9,0.6-1.2c0.3-0.3,0.5-0.5,0.9-0.5l-0.1-0.5l0.1,0.5
		c0.2,0,0.3,0,0.4,0c0.4,0,0.7,0.1,0.9,0.3c0.4,0.3,0.7,1,0.9,1.8s0.3,1.8,0.3,2.7c0,1.7-0.2,3.3-0.4,4.1c-0.1,0.4-0.1,0.8-0.1,1.4
		c0,1.3,0.2,3.1,0.3,4.8c0.2,1.7,0.3,3.4,0.3,4.4c0,0.3,0,0.5,0,0.6v0.1l0.2,0.1l-0.1-0.2l-0.1,0.1l0.2,0.1l-0.1-0.2
		c-0.1,0.1-0.2,0.3-0.2,0.4c-0.1,0.4-0.1,0.8-0.1,1.4c0,1,0.1,2.4,0.2,3.8c0.1,1.4,0.2,2.7,0.2,3.6c0,0.2,0,0.4,0,0.6v0.2l0.1,0.1
		l-0.1-0.1l0.1,0.1l-0.1-0.1c-0.1,0.1-0.1,0.2-0.1,0.3c-0.1,0.3-0.1,0.6-0.1,1c0,1.3,0.2,3.4,0.5,5.3c0.2,0.9,0.4,1.8,0.6,2.4
		c0.1,0.3,0.2,0.6,0.4,0.8c0.1,0.1,0.2,0.2,0.3,0.3c0.1,0.1,0.3,0.2,0.5,0.2c0.2,0,0.4-0.1,0.5-0.2c0.2-0.1,0.3-0.3,0.5-0.6
		c0.1-0.2,0.2-0.5,0.4-0.8c0.8-2.5,1.5-4.4,2.1-5.7c0.7-1.4,1.4-2.2,2.5-3c0.6-0.5,1.4-0.8,2-0.8c0.4,0,0.6,0.1,0.8,0.3
		c0.2,0.2,0.3,0.5,0.3,1.1c0,0.8-0.3,1.9-1.1,3.5c-1.4,2.9-2.9,4.3-4.2,6.2c-1.4,1.9-2.5,4.2-3.1,8.9c-0.5,3.5-0.6,6.9-0.6,9.9
		c0,4.9,0.4,8.5,0.4,8.5l0.5-0.1l-0.1-0.5h-0.1c-0.2,0-0.8,0.1-1.4,0.1c-0.8,0-1.7-0.1-2.4-0.4c-0.7-0.3-1.3-0.9-1.5-1.8H288.2h0.5
		H288.2l-0.5,0.1c0.3,1.3,1.1,2.1,2.1,2.5c0.9,0.4,2,0.5,2.8,0.5c1,0,1.7-0.1,1.7-0.1l0.5-0.1l-0.1-0.5c0,0,0-0.2-0.1-0.6
		c-0.1-1.2-0.3-4.1-0.3-7.8c0-2.9,0.1-6.3,0.6-9.8c0.6-4.5,1.7-6.6,2.9-8.4c1.3-1.8,2.8-3.3,4.3-6.3c0.8-1.7,1.2-3,1.2-4
		c0-0.8-0.2-1.4-0.6-1.8c-0.4-0.4-1-0.6-1.5-0.6c-0.9,0-1.8,0.4-2.6,0.9c-1.2,0.9-2.1,2-2.8,3.4c-0.7,1.4-1.4,3.3-2.2,5.8
		c-0.1,0.4-0.3,0.7-0.4,0.8l-0.1,0.1l0.1,0.1v-0.2h-0.1l0.1,0.1v-0.2v0.2l0.1-0.1h-0.1v0.2l0.1-0.1c0,0-0.1-0.1-0.2-0.3
		c-0.2-0.3-0.3-0.8-0.5-1.5c-0.4-1.9-0.7-4.7-0.7-6.2c0-0.3,0-0.5,0-0.6v-0.2h-0.1l0.1,0.1h-0.1l0.1,0.1c0.1-0.2,0.1-0.4,0.1-0.6
		c0-0.2,0-0.4,0-0.7c0-0.9-0.1-2.3-0.2-3.6c-0.1-1.4-0.2-2.7-0.2-3.7c0-0.3,0-0.6,0-0.8c0-0.1,0-0.2,0-0.2h-0.1h0.1h-0.1h0.1
		l-0.2-0.1l0.2,0.2v-0.1l-0.2-0.1l0.2,0.2c0.1-0.1,0.2-0.2,0.2-0.3c0.1-0.3,0.1-0.7,0.1-1.1c0-1.1-0.2-2.8-0.3-4.5
		c-0.2-1.7-0.3-3.5-0.3-4.7c0-0.5,0-0.9,0.1-1.1c0.2-0.9,0.4-2.6,0.4-4.3c0-1.3-0.1-2.7-0.6-3.8c-0.2-0.6-0.5-1-0.9-1.4
		c-0.4-0.4-1-0.6-1.6-0.6c-0.2,0-0.4,0-0.6,0.1c-0.6,0.1-1,0.4-1.4,0.8c-0.5,0.6-0.9,1.5-1.1,2.4c-0.2,0.9-0.3,2-0.3,3
		c0,3.4,0.8,7,0.8,7l0.5-0.1l-0.5,0.1c0,0,0,0.1,0,0.2c0,0.3,0.1,1.1,0.1,1.9s-0.1,1.7-0.2,2.3c-0.1,0.3-0.2,0.5-0.3,0.7
		c-0.1,0.1-0.2,0.1-0.3,0.2c-0.1,0-0.4-0.1-0.7-0.3c-0.3-0.3-0.8-0.7-1.3-1.3c-2.7-3.3-3.2-7-3.2-9.6c0-0.7,0-1.4,0.1-1.9
		c0-0.5,0.1-0.9,0.1-1.2c0-0.1,0-0.2,0-0.3l-0.5,0.1l0.5-0.1h-0.2h0.2h-0.2h0.2c0-0.1,0.1-0.4,0.3-0.9c0.6-1.3,1.7-3.6,1.7-6.4
		c0-1.1-0.2-2.3-0.7-3.5c-0.2-0.6-0.5-1.1-0.8-1.4c-0.3-0.3-0.6-0.6-1.1-0.6c-0.4,0-0.7,0.2-0.9,0.4c-0.4,0.4-0.8,0.9-1.1,1.6
		c-0.9,2-1.7,5.2-2.1,7c-0.3,1.4-0.4,3.6-0.4,5.9c0,3.7,0.2,7.7,0.4,9.6c0.1,0.9,0.5,2,1.1,3.4c1.9,4.2,5.9,10.5,8.4,15.8
		c0.9,1.9,1.6,5.5,1.9,9.4c0.4,4,0.5,8.4,0.5,12.2c0,2.7-0.1,5.1-0.1,6.8c-0.1,1.7-0.1,2.8-0.1,2.8v0.1v0.1L288.2-76.6z"/>
	<path d="M276-74.8c0,0,1-3.2-4.8-11.5c-5.8-8.3-11.2-5.6-12.4-11.7c-1.2-6.1,1-6.8,2.5-4.4s2.6,3.9,5.9,4.9s5,4.4,3.1-3.4
		c-1.9-7.8-2.7-8.6-5.1-11.3c-2.4-2.7-14.3-10.4-23.9-11.2c-9.7-0.8-10.7-3.9-9.8-5.6c0.8-1.7,12.4,0,12.4,0l3.9,0.3
		c0,0,9.8,5.4,1.9-6.4c-7.9-11.8-10.4-15.4-7.5-15.6c2.9-0.2,4.6-0.7,8.3,5.3s8.1,17.5,8.1,17.5s1.4,4.2,2.5,3.6
		c1.2-0.7,0.3-11.5,0.5-12.2c0.2-0.7-0.8-11.9,0.5-13c1.4-1.1,7.6-12.3,5.6,4s-1.4,21.4-1.4,21.4s4.6,7,6.3,0.3
		c1.7-6.6,10-10.9,10-10.9s2.9-1,4.1-3.7c1.2-2.7,6.8,0.5,3.6,4.2c-3.2,3.7-14.4,10.5-14.9,15.8c-0.5,5.3-2.2,13.2,0.2,13.7
		c2.4,0.5,0.7-2,4.9-4.1c4.2-2,7.8-9.8,9.2-5.7c1.4,4-3.1,6.8-3.1,6.8s-4.9,1-6.6,5.9c-1.7,4.9-1.9,5.8-1.5,8.8
		c0.3,3.1,1.9,6.3,4.2,3.7c2.3-2.6,5.6-2.5,3.1,1.7c-2.5,4.2-4.1,9.5-4.1,11.4C281.8-74.4,276.1-72.8,276-74.8z"/>
	<path d="M276-74.8c0,0,1-3.2-4.8-11.5c-5.8-8.3-11.2-5.6-12.4-11.7c-1.2-6.1,1-6.8,2.5-4.4s2.6,3.9,5.9,4.9s5,4.4,3.1-3.4
		c-1.9-7.8-2.7-8.6-5.1-11.3c-2.4-2.7-14.3-10.4-23.9-11.2c-9.7-0.8-10.7-3.9-9.8-5.6c0.8-1.7,12.4,0,12.4,0l3.9,0.3
		c0,0,9.8,5.4,1.9-6.4c-7.9-11.8-10.4-15.4-7.5-15.6c2.9-0.2,4.6-0.7,8.3,5.3s8.1,17.5,8.1,17.5s1.4,4.2,2.5,3.6
		c1.2-0.7,0.3-11.5,0.5-12.2c0.2-0.7-0.8-11.9,0.5-13c1.4-1.1,7.6-12.3,5.6,4s-1.4,21.4-1.4,21.4s4.6,7,6.3,0.3
		c1.7-6.6,10-10.9,10-10.9s2.9-1,4.1-3.7c1.2-2.7,6.8,0.5,3.6,4.2c-3.2,3.7-14.4,10.5-14.9,15.8c-0.5,5.3-2.2,13.2,0.2,13.7
		c2.4,0.5,0.7-2,4.9-4.1c4.2-2,7.8-9.8,9.2-5.7c1.4,4-3.1,6.8-3.1,6.8s-4.9,1-6.6,5.9c-1.7,4.9-1.9,5.8-1.5,8.8
		c0.3,3.1,1.9,6.3,4.2,3.7c2.3-2.6,5.6-2.5,3.1,1.7c-2.5,4.2-4.1,9.5-4.1,11.4C281.8-74.4,276.1-72.8,276-74.8z"/>
	<path d="M276-74.8l0.5,0.1c0,0,0.1-0.3,0.1-0.8c0-1.5-0.6-4.9-5-11.1c-2.9-4.2-5.9-5.7-8.1-6.8c-1.1-0.6-2-1-2.7-1.7
		c-0.7-0.7-1.2-1.5-1.5-3c-0.2-1.2-0.3-2.2-0.3-2.9c0-0.9,0.1-1.5,0.3-1.8c0.1-0.2,0.2-0.3,0.2-0.3l0.2-0.1c0.1,0,0.3,0.1,0.5,0.2
		c0.2,0.2,0.5,0.4,0.7,0.8c0.8,1.2,1.4,2.2,2.4,3.1c0.9,0.9,2.1,1.5,3.8,2c0.8,0.2,1.5,0.6,2,0.9c0.3,0.2,0.6,0.3,0.8,0.4
		c0.3,0.1,0.5,0.2,0.8,0.2c0.1,0,0.3,0,0.4-0.1c0.2-0.1,0.3-0.3,0.4-0.5c0.1-0.2,0.1-0.4,0.1-0.6c0-0.8-0.3-2.1-0.8-4.4
		c-1-3.9-1.6-6.1-2.4-7.7s-1.6-2.5-2.8-3.9c-0.7-0.7-1.9-1.7-3.5-2.9c-4.9-3.4-13.4-7.9-20.7-8.5c-3.9-0.3-6.4-1-7.8-1.8
		c-0.7-0.4-1.2-0.8-1.4-1.2c-0.3-0.4-0.4-0.7-0.4-1.1c0-0.3,0.1-0.6,0.2-0.8c0,0,0.1-0.1,0.3-0.2c0.5-0.2,1.6-0.3,2.9-0.3
		c1.8,0,4,0.2,5.7,0.4c0.9,0.1,1.6,0.2,2.2,0.3c0.5,0.1,0.9,0.1,0.9,0.1l3.9,0.3v-0.5l-0.2,0.4c0,0,0.6,0.3,1.4,0.6
		c0.8,0.3,1.7,0.6,2.6,0.7c0.4,0,0.9-0.1,1.2-0.4c0.4-0.3,0.5-0.8,0.5-1.3c0-0.7-0.2-1.5-0.7-2.6s-1.3-2.4-2.4-4.2
		c-2.9-4.3-5.1-7.5-6.5-9.9c-0.7-1.2-1.3-2.1-1.6-2.9c-0.4-0.7-0.5-1.3-0.5-1.6c0-0.2,0-0.3,0.1-0.3c0.1-0.1,0.3-0.1,0.6-0.2
		c0.7,0,1.2-0.1,1.7-0.1c0.9,0,1.7,0.2,2.6,0.8c0.9,0.7,2.1,2,3.5,4.3c1.8,3,3.8,7.3,5.4,10.9c0.8,1.8,1.4,3.4,1.9,4.6
		c0.5,1.2,0.7,1.9,0.7,1.9l0.5-0.2l-0.5,0.2c0,0,0.3,0.9,0.8,1.9c0.2,0.5,0.5,1,0.8,1.3c0.2,0.2,0.3,0.4,0.5,0.5
		c0.2,0.1,0.4,0.3,0.7,0.3c0.2,0,0.3,0,0.5-0.1s0.3-0.2,0.4-0.4c0.1-0.2,0.2-0.5,0.3-0.8c0.2-1,0.2-2.4,0.2-4c0-2.7-0.2-5.7-0.2-6.9
		c0-0.1,0-0.3,0-0.3v-0.1H262h0.2H262h0.2c0-0.1,0-0.2,0-0.3c0-0.1,0-0.2,0-0.3c0-1.3-0.2-4.6-0.2-7.5c0-1.2,0-2.3,0.1-3.2
		c0-0.4,0.1-0.8,0.2-1.1c0-0.1,0.1-0.2,0.1-0.3v-0.1l-0.3-0.4l0.3,0.4c0.2-0.1,0.3-0.3,0.5-0.5c0.5-0.6,1.3-1.7,2.1-2.6
		c0.4-0.5,0.8-0.9,1.1-1.2c0.4-0.3,0.7-0.4,0.8-0.4l0.2,0.1c0.1,0.1,0.3,0.3,0.4,0.8c0.1,0.5,0.2,1.2,0.2,2.2c0,1.3-0.1,3-0.4,5.2
		c-1.3,10.2-1.5,16-1.5,19c0,1.8,0.1,2.5,0.1,2.5v0.1l0.1,0.1c0,0,0.5,0.8,1.3,1.7c0.4,0.4,0.9,0.8,1.4,1.2c0.5,0.3,1.1,0.6,1.7,0.6
		c0.6,0,1.2-0.3,1.7-0.8s0.8-1.3,1.1-2.5c0.8-3.1,3.2-5.8,5.5-7.7c1.1-0.9,2.2-1.7,3-2.2c0.4-0.2,0.7-0.4,0.9-0.6
		c0.1-0.1,0.2-0.1,0.3-0.1h0.1l-0.2-0.4l0.2,0.5c0,0,0.8-0.3,1.7-0.9s2-1.6,2.7-3.1c0.1-0.3,0.3-0.4,0.5-0.5
		c0.2-0.1,0.4-0.2,0.7-0.2c0.5,0,1.2,0.3,1.7,0.7c0.5,0.4,0.8,1,0.8,1.7c0,0.6-0.2,1.2-0.9,2c-0.8,0.9-2,2-3.5,3.2
		c-2.3,1.9-5,4-7.2,6.2c-1.1,1.1-2.1,2.2-2.9,3.3c-0.7,1.1-1.3,2.2-1.4,3.3c-0.3,3.2-1.1,7.4-1.1,10.3c0,1,0.1,1.8,0.3,2.5
		c0.1,0.3,0.3,0.6,0.5,0.9c0.2,0.3,0.5,0.4,0.9,0.5c0.2,0,0.4,0.1,0.6,0.1c0.3,0,0.5,0,0.7-0.2c0.4-0.2,0.6-0.5,0.7-0.8
		c0.2-0.5,0.4-0.9,0.8-1.5c0.4-0.5,1.1-1.2,2.3-1.8l-0.2-0.4l0.2,0.5c1.8-0.9,3.4-2.6,4.8-4.1c0.7-0.8,1.3-1.5,1.9-2
		c0.3-0.2,0.5-0.4,0.7-0.6c0.2-0.1,0.4-0.2,0.5-0.2c0.1,0,0.1,0,0.3,0.1c0.1,0.1,0.2,0.3,0.4,0.7c0.2,0.5,0.2,0.9,0.2,1.4
		c0,1.4-0.8,2.6-1.6,3.5c-0.4,0.4-0.8,0.8-1.1,1c-0.1,0.1-0.3,0.2-0.4,0.3l-0.1,0.1l0.3,0.4l-0.1-0.5c0,0-1.3,0.3-2.8,1.2
		s-3.3,2.5-4.2,5.1c-0.6,1.8-1,3-1.3,4.1c-0.3,1-0.4,1.9-0.4,2.8c0,0.7,0.1,1.4,0.2,2.2l0.5-0.1h-0.5c0.1,1.2,0.4,2.4,0.9,3.4
		c0.2,0.5,0.5,0.9,0.9,1.2c0.4,0.3,0.8,0.5,1.3,0.5c0.7,0,1.4-0.4,2-1.1c0.5-0.5,1-0.9,1.4-1.2c0.5-0.3,0.9-0.4,1.2-0.4
		c0.2,0,0.3,0.1,0.4,0.1c0.1,0.1,0.1,0.2,0.1,0.4c0,0.4-0.2,1.1-0.8,2.2c-1.3,2.1-2.3,4.5-3,6.7c-0.7,2.1-1.1,3.9-1.1,5
		c0,0.1-0.1,0.3-0.3,0.5c-0.3,0.3-0.9,0.7-1.5,0.9c-0.6,0.2-1.3,0.4-1.9,0.4c-0.4,0-0.7-0.1-0.8-0.2l-0.1-0.1l-0.1-0.2L276-74.8
		l0.5,0.1L276-74.8h-0.5c0,0.2,0.1,0.5,0.2,0.7c0.2,0.3,0.5,0.5,0.8,0.6s0.6,0.1,1,0.1c1,0,2-0.3,3-0.7c0.5-0.2,0.9-0.5,1.2-0.8
		c0.3-0.3,0.6-0.7,0.6-1.2v-0.1h-0.5h0.5c0-0.8,0.4-2.6,1.1-4.7s1.7-4.4,2.9-6.5c0.7-1.1,1-2,1-2.7c0-0.4-0.1-0.9-0.4-1.1
		c-0.3-0.3-0.7-0.4-1.1-0.4c-0.5,0-1.1,0.2-1.7,0.5c-0.6,0.3-1.2,0.8-1.7,1.4c-0.5,0.6-1,0.8-1.3,0.8c-0.2,0-0.4-0.1-0.6-0.3
		c-0.3-0.3-0.7-0.9-0.9-1.6c-0.3-0.7-0.4-1.5-0.5-2.4c-0.1-0.8-0.2-1.5-0.2-2.1c0-0.8,0.1-1.5,0.4-2.5c0.3-1,0.7-2.2,1.3-4
		c0.8-2.3,2.4-3.7,3.7-4.5c0.7-0.4,1.3-0.7,1.8-0.8c0.2-0.1,0.4-0.1,0.5-0.2h0.1h0.1h0.1c0,0,0.9-0.6,1.8-1.5c0.9-1,1.8-2.4,1.8-4.1
		c0-0.5-0.1-1.1-0.3-1.7c-0.2-0.5-0.3-0.8-0.6-1.1c-0.3-0.3-0.6-0.4-1-0.4c-0.3,0-0.7,0.1-1,0.3c-0.5,0.3-1,0.8-1.6,1.4
		c-0.8,0.9-1.8,1.9-2.7,2.9c-1,1-2,1.9-3,2.3c-2,1-2.8,2.2-3.2,3c-0.2,0.4-0.4,0.8-0.5,0.9l-0.2,0.1c-0.1,0-0.1,0-0.3,0
		c-0.1,0-0.3,0-0.4-0.1c-0.1,0-0.2-0.1-0.3-0.2c-0.2-0.2-0.3-0.5-0.4-1c-0.1-0.5-0.1-1.1-0.1-1.7c0-2.8,0.7-7,1-10.3
		c0.1-1.2,0.8-2.5,2-3.9c1.7-2.1,4.3-4.3,6.8-6.3s4.8-3.8,6-5.3c0.8-0.9,1.1-1.8,1.1-2.6c0-1-0.5-1.9-1.1-2.5c-0.7-0.6-1.5-1-2.3-1
		c-0.4,0-0.8,0.1-1.2,0.3c-0.4,0.2-0.7,0.6-0.9,1c-0.5,1.2-1.5,2.1-2.3,2.7c-0.4,0.3-0.8,0.5-1.1,0.6c-0.1,0.1-0.2,0.1-0.3,0.1h-0.1
		c0,0-2.1,1.1-4.5,3c-2.3,1.9-4.9,4.7-5.8,8.2c-0.3,1-0.6,1.7-0.9,2.1c-0.3,0.4-0.6,0.5-0.9,0.5s-0.7-0.1-1.1-0.4
		c-0.6-0.4-1.2-1-1.7-1.6c-0.2-0.3-0.4-0.5-0.5-0.7l-0.1-0.2v-0.1l-0.4,0.3l0.5-0.1c0-0.1-0.1-0.9-0.1-2.4c0-2.9,0.2-8.7,1.5-18.9
		c0.3-2.2,0.4-4,0.4-5.3s-0.1-2.3-0.4-2.9c-0.1-0.3-0.3-0.6-0.5-0.8c-0.2-0.2-0.5-0.3-0.8-0.3c-0.6,0-1.1,0.4-1.6,0.8
		c-0.7,0.6-1.5,1.6-2.1,2.4c-0.3,0.4-0.6,0.8-0.9,1.1c-0.2,0.3-0.5,0.5-0.5,0.6c-0.3,0.2-0.4,0.5-0.5,0.9c-0.3,1-0.4,2.7-0.4,4.6
		c0,2.9,0.2,6.3,0.2,7.5c0,0.1,0,0.2,0,0.3v0.1h0.2l-0.2-0.1h0.2l-0.2-0.1c0,0.1,0,0.2,0,0.3s0,0.2,0,0.4c0,1.3,0.2,4.3,0.2,6.9
		c0,1.2,0,2.3-0.1,3.1c0,0.4-0.1,0.7-0.2,1c0,0.1-0.1,0.2-0.1,0.2l0.1,0.1l-0.1-0.1l0.1,0.1l-0.1-0.1l0.3,0.4l-0.2-0.4v-0.1v-0.1
		l-0.2-0.1c-0.2-0.1-0.4-0.4-0.6-0.8c-0.3-0.5-0.6-1.1-0.8-1.6c-0.1-0.2-0.2-0.5-0.2-0.6c-0.1-0.2-0.1-0.2-0.1-0.2s-1.1-2.9-2.7-6.5
		s-3.6-8-5.5-11.1c-1.5-2.4-2.6-3.8-3.7-4.6c-1.1-0.8-2.2-1.1-3.2-1c-0.6,0-1.2,0.1-1.8,0.1c-0.4,0-0.8,0.1-1.2,0.4
		c-0.3,0.3-0.5,0.7-0.5,1.1c0,0.6,0.2,1.2,0.6,2c1.1,2.4,3.8,6.4,8.2,12.9c1.1,1.7,1.9,3,2.4,4s0.6,1.7,0.6,2.1s-0.1,0.5-0.2,0.5
		c-0.1,0.1-0.3,0.1-0.6,0.1c-0.6,0-1.5-0.3-2.2-0.6c-0.4-0.1-0.7-0.3-0.9-0.4c-0.1-0.1-0.2-0.1-0.3-0.1h-0.1l-0.1-0.1l-4-0.3v0.5
		l0.1-0.5c0,0-5.2-0.8-8.9-0.8c-0.9,0-1.8,0-2.5,0.2c-0.3,0.1-0.6,0.1-0.9,0.3c-0.3,0.1-0.5,0.3-0.6,0.6l0.5,0.2l-0.4-0.2
		c-0.2,0.4-0.3,0.8-0.3,1.3s0.2,1.1,0.5,1.6c0.6,0.8,1.6,1.5,3.2,2.1c1.6,0.6,3.8,1.1,6.8,1.3c4.7,0.4,10,2.5,14.5,4.8
		c2.2,1.2,4.2,2.4,5.8,3.5c1.6,1.1,2.8,2.1,3.3,2.7c1.2,1.4,2,2.2,2.7,3.6c0.7,1.5,1.4,3.6,2.3,7.5c0.5,2.2,0.8,3.5,0.8,4.1
		c0,0.1,0,0.2,0,0.2v0.1h0.1h-0.1h0.1h-0.1l0.2,0.1l-0.1-0.2l-0.1,0.1l0.2,0.1l-0.1-0.2l0.1,0.1V-97h-0.1l0.1,0.1V-97
		c0,0-0.1,0-0.3-0.1c-0.6-0.3-1.7-1-3-1.4c-1.6-0.5-2.6-1.1-3.4-1.8c-0.8-0.7-1.4-1.7-2.2-2.9c-0.3-0.5-0.6-0.8-0.9-1.1
		c-0.3-0.3-0.7-0.4-1.1-0.4c-0.3,0-0.5,0.1-0.8,0.2c-0.3,0.2-0.6,0.6-0.7,1.1c-0.2,0.5-0.2,1.1-0.2,1.8c0,0.9,0.1,1.9,0.4,3.1
		c0.3,1.6,0.9,2.7,1.8,3.5c1.3,1.2,2.9,1.8,4.7,2.8c1.8,1,3.9,2.5,6,5.6c4.3,6.1,4.8,9.4,4.8,10.6c0,0.2,0,0.3,0,0.4v0.1l0.2,0.1
		l-0.2-0.1l0.2,0.1l-0.2-0.1v0.1v0.1L276-74.8z"/>
	<path d="M276-74.8l0.5,0.1c0,0,0.1-0.3,0.1-0.8c0-1.5-0.6-4.9-5-11.1c-2.9-4.2-5.9-5.7-8.1-6.8c-1.1-0.6-2-1-2.7-1.7
		c-0.7-0.7-1.2-1.5-1.5-3c-0.2-1.2-0.3-2.2-0.3-2.9c0-0.9,0.1-1.5,0.3-1.8c0.1-0.2,0.2-0.3,0.2-0.3l0.2-0.1c0.1,0,0.3,0.1,0.5,0.2
		c0.2,0.2,0.5,0.4,0.7,0.8c0.8,1.2,1.4,2.2,2.4,3.1c0.9,0.9,2.1,1.5,3.8,2c0.8,0.2,1.5,0.6,2,0.9c0.3,0.2,0.6,0.3,0.8,0.4
		c0.3,0.1,0.5,0.2,0.8,0.2c0.1,0,0.3,0,0.4-0.1c0.2-0.1,0.3-0.3,0.4-0.5c0.1-0.2,0.1-0.4,0.1-0.6c0-0.8-0.3-2.1-0.8-4.4
		c-1-3.9-1.6-6.1-2.4-7.7s-1.6-2.5-2.8-3.9c-0.7-0.7-1.9-1.7-3.5-2.9c-4.9-3.4-13.4-7.9-20.7-8.5c-3.9-0.3-6.4-1-7.8-1.8
		c-0.7-0.4-1.2-0.8-1.4-1.2c-0.3-0.4-0.4-0.7-0.4-1.1c0-0.3,0.1-0.6,0.2-0.8c0,0,0.1-0.1,0.3-0.2c0.5-0.2,1.6-0.3,2.9-0.3
		c1.8,0,4,0.2,5.7,0.4c0.9,0.1,1.6,0.2,2.2,0.3c0.5,0.1,0.9,0.1,0.9,0.1l3.9,0.3v-0.5l-0.2,0.4c0,0,0.6,0.3,1.4,0.6
		c0.8,0.3,1.7,0.6,2.6,0.7c0.4,0,0.9-0.1,1.2-0.4c0.4-0.3,0.5-0.8,0.5-1.3c0-0.7-0.2-1.5-0.7-2.6s-1.3-2.4-2.4-4.2
		c-2.9-4.3-5.1-7.5-6.5-9.9c-0.7-1.2-1.3-2.1-1.6-2.9c-0.4-0.7-0.5-1.3-0.5-1.6c0-0.2,0-0.3,0.1-0.3c0.1-0.1,0.3-0.1,0.6-0.2
		c0.7,0,1.2-0.1,1.7-0.1c0.9,0,1.7,0.2,2.6,0.8c0.9,0.7,2.1,2,3.5,4.3c1.8,3,3.8,7.3,5.4,10.9c0.8,1.8,1.4,3.4,1.9,4.6
		c0.5,1.2,0.7,1.9,0.7,1.9l0.5-0.2l-0.5,0.2c0,0,0.3,0.9,0.8,1.9c0.2,0.5,0.5,1,0.8,1.3c0.2,0.2,0.3,0.4,0.5,0.5
		c0.2,0.1,0.4,0.3,0.7,0.3c0.2,0,0.3,0,0.5-0.1s0.3-0.2,0.4-0.4c0.1-0.2,0.2-0.5,0.3-0.8c0.2-1,0.2-2.4,0.2-4c0-2.7-0.2-5.7-0.2-6.9
		c0-0.1,0-0.3,0-0.3v-0.1H262h0.2H262h0.2c0-0.1,0-0.2,0-0.3c0-0.1,0-0.2,0-0.3c0-1.3-0.2-4.6-0.2-7.5c0-1.2,0-2.3,0.1-3.2
		c0-0.4,0.1-0.8,0.2-1.1c0-0.1,0.1-0.2,0.1-0.3v-0.1l-0.3-0.4l0.3,0.4c0.2-0.1,0.3-0.3,0.5-0.5c0.5-0.6,1.3-1.7,2.1-2.6
		c0.4-0.5,0.8-0.9,1.1-1.2c0.4-0.3,0.7-0.4,0.8-0.4l0.2,0.1c0.1,0.1,0.3,0.3,0.4,0.8c0.1,0.5,0.2,1.2,0.2,2.2c0,1.3-0.1,3-0.4,5.2
		c-1.3,10.2-1.5,16-1.5,19c0,1.8,0.1,2.5,0.1,2.5v0.1l0.1,0.1c0,0,0.5,0.8,1.3,1.7c0.4,0.4,0.9,0.8,1.4,1.2c0.5,0.3,1.1,0.6,1.7,0.6
		c0.6,0,1.2-0.3,1.7-0.8s0.8-1.3,1.1-2.5c0.8-3.1,3.2-5.8,5.5-7.7c1.1-0.9,2.2-1.7,3-2.2c0.4-0.2,0.7-0.4,0.9-0.6
		c0.1-0.1,0.2-0.1,0.3-0.1h0.1l-0.2-0.4l0.2,0.5c0,0,0.8-0.3,1.7-0.9s2-1.6,2.7-3.1c0.1-0.3,0.3-0.4,0.5-0.5
		c0.2-0.1,0.4-0.2,0.7-0.2c0.5,0,1.2,0.3,1.7,0.7c0.5,0.4,0.8,1,0.8,1.7c0,0.6-0.2,1.2-0.9,2c-0.8,0.9-2,2-3.5,3.2
		c-2.3,1.9-5,4-7.2,6.2c-1.1,1.1-2.1,2.2-2.9,3.3c-0.7,1.1-1.3,2.2-1.4,3.3c-0.3,3.2-1.1,7.4-1.1,10.3c0,1,0.1,1.8,0.3,2.5
		c0.1,0.3,0.3,0.6,0.5,0.9c0.2,0.3,0.5,0.4,0.9,0.5c0.2,0,0.4,0.1,0.6,0.1c0.3,0,0.5,0,0.7-0.2c0.4-0.2,0.6-0.5,0.7-0.8
		c0.2-0.5,0.4-0.9,0.8-1.5c0.4-0.5,1.1-1.2,2.3-1.8l-0.2-0.4l0.2,0.5c1.8-0.9,3.4-2.6,4.8-4.1c0.7-0.8,1.3-1.5,1.9-2
		c0.3-0.2,0.5-0.4,0.7-0.6c0.2-0.1,0.4-0.2,0.5-0.2c0.1,0,0.1,0,0.3,0.1c0.1,0.1,0.2,0.3,0.4,0.7c0.2,0.5,0.2,0.9,0.2,1.4
		c0,1.4-0.8,2.6-1.6,3.5c-0.4,0.4-0.8,0.8-1.1,1c-0.1,0.1-0.3,0.2-0.4,0.3l-0.1,0.1l0.3,0.4l-0.1-0.5c0,0-1.3,0.3-2.8,1.2
		s-3.3,2.5-4.2,5.1c-0.6,1.8-1,3-1.3,4.1c-0.3,1-0.4,1.9-0.4,2.8c0,0.7,0.1,1.4,0.2,2.2l0.5-0.1h-0.5c0.1,1.2,0.4,2.4,0.9,3.4
		c0.2,0.5,0.5,0.9,0.9,1.2c0.4,0.3,0.8,0.5,1.3,0.5c0.7,0,1.4-0.4,2-1.1c0.5-0.5,1-0.9,1.4-1.2c0.5-0.3,0.9-0.4,1.2-0.4
		c0.2,0,0.3,0.1,0.4,0.1c0.1,0.1,0.1,0.2,0.1,0.4c0,0.4-0.2,1.1-0.8,2.2c-1.3,2.1-2.3,4.5-3,6.7c-0.7,2.1-1.1,3.9-1.1,5
		c0,0.1-0.1,0.3-0.3,0.5c-0.3,0.3-0.9,0.7-1.5,0.9c-0.6,0.2-1.3,0.4-1.9,0.4c-0.4,0-0.7-0.1-0.8-0.2l-0.1-0.1l-0.1-0.2L276-74.8
		l0.5,0.1L276-74.8h-0.5c0,0.2,0.1,0.5,0.2,0.7c0.2,0.3,0.5,0.5,0.8,0.6s0.6,0.1,1,0.1c1,0,2-0.3,3-0.7c0.5-0.2,0.9-0.5,1.2-0.8
		c0.3-0.3,0.6-0.7,0.6-1.2v-0.1h-0.5h0.5c0-0.8,0.4-2.6,1.1-4.7s1.7-4.4,2.9-6.5c0.7-1.1,1-2,1-2.7c0-0.4-0.1-0.9-0.4-1.1
		c-0.3-0.3-0.7-0.4-1.1-0.4c-0.5,0-1.1,0.2-1.7,0.5c-0.6,0.3-1.2,0.8-1.7,1.4c-0.5,0.6-1,0.8-1.3,0.8c-0.2,0-0.4-0.1-0.6-0.3
		c-0.3-0.3-0.7-0.9-0.9-1.6c-0.3-0.7-0.4-1.5-0.5-2.4c-0.1-0.8-0.2-1.5-0.2-2.1c0-0.8,0.1-1.5,0.4-2.5c0.3-1,0.7-2.2,1.3-4
		c0.8-2.3,2.4-3.7,3.7-4.5c0.7-0.4,1.3-0.7,1.8-0.8c0.2-0.1,0.4-0.1,0.5-0.2h0.1h0.1h0.1c0,0,0.9-0.6,1.8-1.5c0.9-1,1.8-2.4,1.8-4.1
		c0-0.5-0.1-1.1-0.3-1.7c-0.2-0.5-0.3-0.8-0.6-1.1c-0.3-0.3-0.6-0.4-1-0.4c-0.3,0-0.7,0.1-1,0.3c-0.5,0.3-1,0.8-1.6,1.4
		c-0.8,0.9-1.8,1.9-2.7,2.9c-1,1-2,1.9-3,2.3c-2,1-2.8,2.2-3.2,3c-0.2,0.4-0.4,0.8-0.5,0.9l-0.2,0.1c-0.1,0-0.1,0-0.3,0
		c-0.1,0-0.3,0-0.4-0.1c-0.1,0-0.2-0.1-0.3-0.2c-0.2-0.2-0.3-0.5-0.4-1c-0.1-0.5-0.1-1.1-0.1-1.7c0-2.8,0.7-7,1-10.3
		c0.1-1.2,0.8-2.5,2-3.9c1.7-2.1,4.3-4.3,6.8-6.3s4.8-3.8,6-5.3c0.8-0.9,1.1-1.8,1.1-2.6c0-1-0.5-1.9-1.1-2.5c-0.7-0.6-1.5-1-2.3-1
		c-0.4,0-0.8,0.1-1.2,0.3c-0.4,0.2-0.7,0.6-0.9,1c-0.5,1.2-1.5,2.1-2.3,2.7c-0.4,0.3-0.8,0.5-1.1,0.6c-0.1,0.1-0.2,0.1-0.3,0.1h-0.1
		c0,0-2.1,1.1-4.5,3c-2.3,1.9-4.9,4.7-5.8,8.2c-0.3,1-0.6,1.7-0.9,2.1c-0.3,0.4-0.6,0.5-0.9,0.5s-0.7-0.1-1.1-0.4
		c-0.6-0.4-1.2-1-1.7-1.6c-0.2-0.3-0.4-0.5-0.5-0.7l-0.1-0.2v-0.1l-0.4,0.3l0.5-0.1c0-0.1-0.1-0.9-0.1-2.4c0-2.9,0.2-8.7,1.5-18.9
		c0.3-2.2,0.4-4,0.4-5.3s-0.1-2.3-0.4-2.9c-0.1-0.3-0.3-0.6-0.5-0.8c-0.2-0.2-0.5-0.3-0.8-0.3c-0.6,0-1.1,0.4-1.6,0.8
		c-0.7,0.6-1.5,1.6-2.1,2.4c-0.3,0.4-0.6,0.8-0.9,1.1c-0.2,0.3-0.5,0.5-0.5,0.6c-0.3,0.2-0.4,0.5-0.5,0.9c-0.3,1-0.4,2.7-0.4,4.6
		c0,2.9,0.2,6.3,0.2,7.5c0,0.1,0,0.2,0,0.3v0.1h0.2l-0.2-0.1h0.2l-0.2-0.1c0,0.1,0,0.2,0,0.3s0,0.2,0,0.4c0,1.3,0.2,4.3,0.2,6.9
		c0,1.2,0,2.3-0.1,3.1c0,0.4-0.1,0.7-0.2,1c0,0.1-0.1,0.2-0.1,0.2l0.1,0.1l-0.1-0.1l0.1,0.1l-0.1-0.1l0.3,0.4l-0.2-0.4v-0.1v-0.1
		l-0.2-0.1c-0.2-0.1-0.4-0.4-0.6-0.8c-0.3-0.5-0.6-1.1-0.8-1.6c-0.1-0.2-0.2-0.5-0.2-0.6c-0.1-0.2-0.1-0.2-0.1-0.2s-1.1-2.9-2.7-6.5
		s-3.6-8-5.5-11.1c-1.5-2.4-2.6-3.8-3.7-4.6c-1.1-0.8-2.2-1.1-3.2-1c-0.6,0-1.2,0.1-1.8,0.1c-0.4,0-0.8,0.1-1.2,0.4
		c-0.3,0.3-0.5,0.7-0.5,1.1c0,0.6,0.2,1.2,0.6,2c1.1,2.4,3.8,6.4,8.2,12.9c1.1,1.7,1.9,3,2.4,4s0.6,1.7,0.6,2.1s-0.1,0.5-0.2,0.5
		c-0.1,0.1-0.3,0.1-0.6,0.1c-0.6,0-1.5-0.3-2.2-0.6c-0.4-0.1-0.7-0.3-0.9-0.4c-0.1-0.1-0.2-0.1-0.3-0.1h-0.1l-0.1-0.1l-4-0.3v0.5
		l0.1-0.5c0,0-5.2-0.8-8.9-0.8c-0.9,0-1.8,0-2.5,0.2c-0.3,0.1-0.6,0.1-0.9,0.3c-0.3,0.1-0.5,0.3-0.6,0.6l0.5,0.2l-0.4-0.2
		c-0.2,0.4-0.3,0.8-0.3,1.3s0.2,1.1,0.5,1.6c0.6,0.8,1.6,1.5,3.2,2.1c1.6,0.6,3.8,1.1,6.8,1.3c4.7,0.4,10,2.5,14.5,4.8
		c2.2,1.2,4.2,2.4,5.8,3.5c1.6,1.1,2.8,2.1,3.3,2.7c1.2,1.4,2,2.2,2.7,3.6c0.7,1.5,1.4,3.6,2.3,7.5c0.5,2.2,0.8,3.5,0.8,4.1
		c0,0.1,0,0.2,0,0.2v0.1h0.1h-0.1h0.1h-0.1l0.2,0.1l-0.1-0.2l-0.1,0.1l0.2,0.1l-0.1-0.2l0.1,0.1V-97h-0.1l0.1,0.1V-97
		c0,0-0.1,0-0.3-0.1c-0.6-0.3-1.7-1-3-1.4c-1.6-0.5-2.6-1.1-3.4-1.8c-0.8-0.7-1.4-1.7-2.2-2.9c-0.3-0.5-0.6-0.8-0.9-1.1
		c-0.3-0.3-0.7-0.4-1.1-0.4c-0.3,0-0.5,0.1-0.8,0.2c-0.3,0.2-0.6,0.6-0.7,1.1c-0.2,0.5-0.2,1.1-0.2,1.8c0,0.9,0.1,1.9,0.4,3.1
		c0.3,1.6,0.9,2.7,1.8,3.5c1.3,1.2,2.9,1.8,4.7,2.8c1.8,1,3.9,2.5,6,5.6c4.3,6.1,4.8,9.4,4.8,10.6c0,0.2,0,0.3,0,0.4v0.1l0.2,0.1
		l-0.2-0.1l0.2,0.1l-0.2-0.1v0.1v0.1L276-74.8z"/>
	<path d="M315.2-75.9c0,0-1.4-3.1,3.3-12s10.5-6.9,10.9-13.1c0.5-6.2-1.8-6.6-3.1-4.1s-2.1,4.2-5.3,5.6c-3.1,1.4-4.4,5-3.5-3
		s1.7-8.9,3.7-11.9s12.9-12,22.4-14s10.2-5.1,9.1-6.7c-1.1-1.6-12.3,1.5-12.3,1.5l-3.8,0.8c0,0-9.1,6.6-2.6-6.2
		c6.5-12.7,8.4-16.6,5.6-16.4c-2.8,0.2-4.6-0.1-7.6,6.2c-3,6.3-6,18.3-6,18.3s-0.8,4.4-2.1,3.8c-1.3-0.5-1.7-11.4-2-12.1
		c-0.2-0.7-0.6-11.9-2-12.8c-1.4-0.9-9-11.3-5.1,4.6c4,15.9,3.9,21.1,3.9,21.1s-3.7,7.5-6.2,1.1c-2.5-6.4-11.2-9.6-11.2-9.6
		s-3-0.7-4.5-3.2s-6.7,1.3-3,4.6c3.6,3.3,15.6,8.7,16.7,13.9s3.8,12.9,1.5,13.7c-2.3,0.8-0.9-1.9-5.4-3.5c-4.5-1.6-8.9-8.8-9.8-4.6
		c-0.9,4.2,3.8,6.4,3.8,6.4s5,0.4,7.3,5.1c2.3,4.7,2.5,5.5,2.6,8.6c0,3.1-1.1,6.5-3.8,4.2c-2.7-2.2-5.9-1.9-2.8,2
		c3,3.9,5.2,9,5.4,10.8C309.5-74.8,315.4-73.9,315.2-75.9z"/>
	<path d="M315.2-75.9c0,0-1.4-3.1,3.3-12s10.5-6.9,10.9-13.1c0.5-6.2-1.8-6.6-3.1-4.1s-2.1,4.2-5.3,5.6c-3.1,1.4-4.4,5-3.5-3
		s1.7-8.9,3.7-11.9s12.9-12,22.4-14s10.2-5.1,9.1-6.7c-1.1-1.6-12.3,1.5-12.3,1.5l-3.8,0.8c0,0-9.1,6.6-2.6-6.2
		c6.5-12.7,8.4-16.6,5.6-16.4c-2.8,0.2-4.6-0.1-7.6,6.2c-3,6.3-6,18.3-6,18.3s-0.8,4.4-2.1,3.8c-1.3-0.5-1.7-11.4-2-12.1
		c-0.2-0.7-0.6-11.9-2-12.8c-1.4-0.9-9-11.3-5.1,4.6c4,15.9,3.9,21.1,3.9,21.1s-3.7,7.5-6.2,1.1c-2.5-6.4-11.2-9.6-11.2-9.6
		s-3-0.7-4.5-3.2s-6.7,1.3-3,4.6c3.6,3.3,15.6,8.7,16.7,13.9s3.8,12.9,1.5,13.7c-2.3,0.8-0.9-1.9-5.4-3.5c-4.5-1.6-8.9-8.8-9.8-4.6
		c-0.9,4.2,3.8,6.4,3.8,6.4s5,0.4,7.3,5.1c2.3,4.7,2.5,5.5,2.6,8.6c0,3.1-1.1,6.5-3.8,4.2c-2.7-2.2-5.9-1.9-2.8,2
		c3,3.9,5.2,9,5.4,10.8C309.5-74.8,315.4-73.9,315.2-75.9z"/>
	<path d="M315.2-75.9l0.5-0.2l-0.3,0.1l0.3-0.1l-0.3,0.1l0.3-0.1v-0.1c0-0.1-0.1-0.5-0.1-1.2c0-1.6,0.5-4.8,3.4-10.3
		c2.3-4.4,4.8-6,6.9-7.4c1-0.7,2-1.3,2.7-2.2c0.7-0.9,1.2-2.1,1.3-3.7h-0.5h0.5c0-0.6,0.1-1.2,0.1-1.7c0-1.4-0.2-2.5-0.5-3.2
		c-0.2-0.4-0.4-0.7-0.6-0.9c-0.3-0.2-0.6-0.3-0.9-0.3c-0.4,0-0.8,0.2-1.2,0.5c-0.3,0.3-0.6,0.7-0.9,1.2c-0.7,1.3-1.2,2.3-1.9,3.1
		c-0.7,0.9-1.6,1.6-3.2,2.2c-0.9,0.4-1.6,0.9-2.1,1.3c-0.3,0.2-0.5,0.4-0.7,0.5c-0.1,0.1-0.2,0.1-0.2,0.1h-0.1v0.2l0.1-0.1h-0.1v0.2
		l0.1-0.1l-0.1,0.1l0.1-0.1l-0.1,0.1l0.1-0.1v-0.1c0-0.1-0.1-0.4-0.1-0.9c0-0.7,0.1-1.9,0.3-3.6c0.4-4,0.9-6.2,1.4-7.7
		s1.2-2.5,2.2-4c0.5-0.7,1.5-1.8,2.9-3.1c4.3-3.9,12.2-9.3,19.2-10.7c3.8-0.8,6.2-1.8,7.7-2.8s2.2-2.1,2.2-3.2
		c0-0.6-0.2-1.1-0.5-1.5c-0.2-0.3-0.6-0.5-0.9-0.6c-0.4-0.1-0.8-0.1-1.3-0.1c-1.8,0-4.5,0.5-6.7,1s-4,1-4,1l0.1,0.5l-0.1-0.5
		l-3.9,0.8l-0.1,0.1l-0.1,0.1c-0.2,0.2-0.8,0.6-1.5,0.9c-0.7,0.4-1.4,0.6-1.9,0.6c-0.2,0-0.4-0.1-0.5-0.1c-0.1-0.1-0.2-0.3-0.2-0.7
		c0-1,0.6-3,2.3-6.3c2.3-4.5,4-7.8,5.1-10.3c0.6-1.3,1-2.3,1.3-3.1c0.3-0.9,0.5-1.5,0.5-2.1c0-0.4-0.1-0.9-0.4-1.2
		c-0.3-0.3-0.7-0.4-1.1-0.4h-0.2c-0.7,0-1.3,0.1-2,0.2c-1,0.2-2,0.5-2.9,1.5c-1,0.9-1.9,2.4-3.1,4.8c-1.5,3.2-3,7.8-4.2,11.6
		c-1.1,3.8-1.9,6.8-1.9,6.8s0,0.1,0,0.2c-0.1,0.4-0.3,1.3-0.6,2c-0.1,0.4-0.3,0.8-0.5,1c-0.1,0.1-0.2,0.2-0.2,0.2H324v0.1l0.1-0.1
		v0.1l0.1-0.1c0,0-0.2-0.2-0.3-0.6c-0.2-0.6-0.4-1.6-0.5-2.7c-0.2-1.7-0.4-3.7-0.6-5.3c-0.1-0.8-0.1-1.5-0.2-2.1
		c0-0.3-0.1-0.5-0.1-0.7c0-0.1,0-0.2,0-0.2l-0.1-0.2l-0.5,0.2l0.5-0.1c0-0.1,0-0.4-0.1-0.7c-0.1-1.4-0.3-4.2-0.6-6.7
		c-0.1-1.3-0.3-2.5-0.6-3.5c-0.1-0.5-0.2-0.9-0.4-1.3c-0.2-0.3-0.3-0.6-0.6-0.9c0,0-0.2-0.1-0.3-0.3c-0.5-0.5-1.4-1.5-2.3-2.3
		c-0.5-0.4-0.9-0.8-1.4-1.1c-0.5-0.3-0.9-0.5-1.4-0.5c-0.2,0-0.5,0.1-0.7,0.2c-0.3,0.2-0.5,0.5-0.6,0.9c-0.1,0.4-0.2,0.9-0.2,1.5
		c0,1.4,0.3,3.6,1.1,6.8c3.8,15.1,3.9,20.5,3.9,20.9h0.5l-0.4-0.2c0,0,0,0-0.1,0.1c-0.2,0.3-0.7,1.2-1.3,1.9c-0.3,0.4-0.7,0.7-1,1
		c-0.3,0.2-0.7,0.4-1,0.4c-0.3,0-0.6-0.1-0.9-0.4c-0.3-0.3-0.7-0.9-1.1-1.8c-1.3-3.4-4.2-5.8-6.7-7.4c-2.5-1.6-4.7-2.4-4.8-2.4
		c-0.1,0-0.9-0.2-1.7-0.7s-1.8-1.2-2.4-2.3c-0.4-0.7-1.2-1.1-1.9-1.1c-0.8,0-1.6,0.4-2.3,1c-0.6,0.6-1.1,1.5-1.1,2.4s0.5,2,1.5,2.9
		l0.3-0.4l-0.3,0.4c1,0.9,2.4,1.8,4,2.9c2.5,1.6,5.4,3.4,7.9,5.2c1.2,0.9,2.3,1.9,3.1,2.8s1.4,1.9,1.5,2.7c0.4,1.9,1,4.1,1.5,6.1
		c0.5,2.1,0.9,4,0.9,5.3c0,0.5-0.1,0.9-0.2,1.2c-0.1,0.3-0.2,0.4-0.4,0.4c-0.3,0.1-0.4,0.1-0.5,0.1c-0.1,0-0.1,0-0.2,0
		c-0.1,0-0.2-0.2-0.4-0.4c-0.2-0.4-0.6-0.9-1.2-1.5c-0.6-0.6-1.5-1.2-2.8-1.7c-1.6-0.6-3.3-2-4.9-3.3c-0.8-0.7-1.5-1.3-2.1-1.8
		c-0.7-0.5-1.2-0.8-1.9-0.8c-0.4,0-0.8,0.2-1,0.5c-0.3,0.3-0.4,0.7-0.5,1.2c-0.1,0.4-0.1,0.8-0.1,1.2c0,2,1.1,3.4,2.1,4.4
		s2.1,1.4,2.1,1.4h0.1h0.1c0.2,0,1.5,0.2,2.9,0.9c1.4,0.7,3,1.9,4,3.9c1.1,2.3,1.8,3.7,2.1,4.8c0.3,1.1,0.4,2,0.5,3.6h0.5H310
		c0,1.1-0.2,2.3-0.5,3.2c-0.2,0.4-0.4,0.8-0.6,1c-0.2,0.2-0.4,0.3-0.6,0.3c-0.3,0-0.7-0.2-1.3-0.6c-1.2-0.9-2.4-1.5-3.4-1.5
		c-0.4,0-0.7,0.1-1,0.3c-0.3,0.2-0.5,0.6-0.5,1c0,0.8,0.5,1.6,1.4,2.8l0.4-0.3l-0.4,0.3c1.5,1.9,2.8,4.1,3.7,6.1
		c0.9,2,1.5,3.7,1.6,4.5l0.5-0.1h-0.5c0,0.5,0.3,0.8,0.6,1.1c0.5,0.5,1.1,0.8,1.8,1c0.7,0.2,1.4,0.3,2.1,0.3c0.6,0,1.1-0.1,1.5-0.3
		c0.2-0.1,0.4-0.3,0.6-0.5c0.2-0.2,0.2-0.5,0.2-0.8v-0.1v-0.1v-0.1L315.2-75.9h-0.5l-0.1,0.2c0,0.1-0.2,0.2-0.4,0.2
		c-0.2,0.1-0.6,0.1-0.9,0.1c-0.8,0-1.7-0.2-2.4-0.5c-0.4-0.2-0.6-0.3-0.8-0.5c-0.2-0.2-0.3-0.4-0.3-0.5c-0.1-1-0.7-2.7-1.7-4.8
		c-1-2-2.3-4.3-3.8-6.3c-0.9-1.1-1.2-1.9-1.2-2.2c0-0.2,0-0.2,0.1-0.2c0.1,0,0.2-0.1,0.4-0.1c0.6,0,1.7,0.4,2.8,1.3l0.3-0.4
		l-0.3,0.4c0.7,0.6,1.3,0.9,1.9,0.9c0.5,0,1-0.2,1.3-0.6c0.5-0.5,0.8-1.3,1-2.1c0.2-0.9,0.3-1.8,0.3-2.7c0-1.6-0.1-2.6-0.5-3.8
		c-0.4-1.2-1-2.6-2.2-5c-1.2-2.5-3.1-3.8-4.8-4.5c-1.6-0.7-2.9-0.8-3-0.8v0.5l0.2-0.5c-0.2-0.1-1.1-0.6-2-1.4
		c-0.9-0.8-1.6-2-1.6-3.5c0-0.3,0-0.6,0.1-1c0.1-0.4,0.2-0.7,0.3-0.8c0.1-0.1,0.1-0.1,0.3-0.1s0.7,0.2,1.3,0.7
		c0.9,0.7,2,1.7,3.2,2.7s2.6,2,4,2.5c1.9,0.7,2.6,1.5,3.1,2.2c0.2,0.3,0.4,0.7,0.7,1c0.1,0.1,0.3,0.3,0.5,0.4s0.4,0.2,0.7,0.2
		s0.5-0.1,0.9-0.2c0.5-0.2,0.8-0.6,1-1c0.2-0.5,0.2-1,0.2-1.6c0-1.5-0.4-3.5-0.9-5.6c-0.5-2.1-1.1-4.3-1.5-6.1
		c-0.3-1.5-1.3-2.8-2.7-4.2c-2.1-2-4.9-3.9-7.6-5.6c-2.7-1.7-5.2-3.2-6.5-4.4c-0.9-0.8-1.1-1.5-1.1-2.1c0-0.6,0.3-1.3,0.8-1.7
		c0.5-0.5,1.1-0.7,1.6-0.7c0.4,0,0.8,0.2,1,0.6c0.8,1.4,2,2.2,3,2.7s1.8,0.7,1.8,0.7l0.1-0.5l-0.2,0.5h0.1c0.5,0.2,2.6,1.1,4.9,2.6
		c2.3,1.6,4.8,3.8,5.9,6.7c0.4,1,0.8,1.7,1.3,2.2s1,0.7,1.6,0.7c0.7,0,1.2-0.3,1.7-0.7c0.7-0.6,1.3-1.4,1.8-2.1
		c0.4-0.7,0.7-1.2,0.7-1.2v-0.1v-0.1c0-0.5-0.1-6-3.9-21.2c-0.8-3.2-1.1-5.3-1.1-6.6c0-0.7,0.1-1.2,0.2-1.4c0.1-0.1,0.1-0.1,0.1-0.2
		h0.1c0.2,0,0.6,0.2,1.1,0.5c0.7,0.5,1.5,1.3,2.2,2c0.3,0.4,0.7,0.7,0.9,1c0.3,0.3,0.5,0.5,0.7,0.6c0,0,0.2,0.3,0.3,0.7
		c0.2,0.7,0.4,1.7,0.6,2.9c0.3,1.8,0.4,3.9,0.6,5.6c0.1,0.9,0.1,1.6,0.2,2.2c0,0.3,0,0.5,0.1,0.7c0,0.2,0,0.3,0.1,0.4h0.1h-0.1h0.1
		h-0.1c0,0,0.1,0.3,0.1,0.7c0.1,1.3,0.3,4,0.6,6.5c0.1,1.2,0.3,2.4,0.5,3.3c0.1,0.5,0.2,0.8,0.4,1.2c0.1,0.2,0.1,0.3,0.2,0.4
		c0.1,0.1,0.2,0.3,0.4,0.3l0.2-0.5l-0.2,0.5c0.1,0.1,0.3,0.1,0.5,0.1c0.3,0,0.5-0.1,0.7-0.3c0.3-0.3,0.5-0.6,0.7-1.1
		c0.6-1.2,0.9-2.9,0.9-2.9l-0.5-0.1l0.5,0.1c0,0,0.2-0.7,0.5-2c1-3.7,3.2-11.6,5.5-16.2c1.5-3.1,2.6-4.5,3.7-5.2
		c0.5-0.3,1-0.5,1.6-0.6c0.6-0.1,1.2-0.1,1.9-0.2h0.2c0.3,0,0.4,0.1,0.4,0.1s0.1,0.1,0.1,0.4c0,0.4-0.1,1-0.4,1.8
		c-0.8,2.4-3,6.7-6.4,13.4c-1.7,3.4-2.4,5.4-2.4,6.8c0,0.6,0.1,1.1,0.5,1.4c0.3,0.3,0.8,0.5,1.2,0.5c0.9,0,1.9-0.5,2.7-0.9
		s1.4-0.9,1.4-0.9l-0.3-0.4l0.1,0.5l3.8-0.8c0,0,0.4-0.1,1.1-0.3c1.1-0.3,2.8-0.7,4.5-1c1.7-0.3,3.5-0.6,4.8-0.6c0.4,0,0.8,0,1,0.1
		c0.1,0,0.2,0.1,0.3,0.1l0.1,0.1c0.2,0.3,0.3,0.6,0.3,0.9c0,0.6-0.4,1.4-1.7,2.4c-1.4,0.9-3.7,1.9-7.4,2.6c-4.9,1-10,3.8-14.2,6.7
		c-2.1,1.4-4,2.9-5.4,4.2c-1.5,1.3-2.5,2.4-3.1,3.3c-1,1.5-1.7,2.5-2.3,4.2c-0.6,1.7-1,3.9-1.5,7.9c-0.2,1.7-0.3,2.9-0.3,3.7
		c0,0.5,0,0.9,0.1,1.3c0.1,0.2,0.1,0.3,0.3,0.5c0.1,0.1,0.4,0.2,0.5,0.2c0.3,0,0.6-0.1,0.8-0.3c0.4-0.2,0.7-0.5,1.2-0.9
		c0.4-0.3,1-0.7,1.5-0.9l-0.2-0.5l0.2,0.5c1.7-0.7,2.7-1.6,3.5-2.5c0.8-1,1.3-2.1,2-3.3c0.2-0.4,0.5-0.7,0.7-0.9s0.4-0.3,0.5-0.3
		s0.2,0,0.3,0.1c0.2,0.1,0.4,0.4,0.5,1c0.2,0.5,0.3,1.3,0.3,2.3c0,0.5,0,1-0.1,1.6c-0.1,1.5-0.5,2.4-1.1,3.1
		c-0.9,1.1-2.4,1.9-4.2,3.2c-1.8,1.3-3.8,3.2-5.6,6.6c-3,5.6-3.6,9-3.6,10.8c0,1.1,0.2,1.6,0.2,1.6L315.2-75.9h-0.5H315.2z"/>
	<path d="M315.2-75.9l0.5-0.2l-0.3,0.1l0.3-0.1l-0.3,0.1l0.3-0.1v-0.1c0-0.1-0.1-0.5-0.1-1.2c0-1.6,0.5-4.8,3.4-10.3
		c2.3-4.4,4.8-6,6.9-7.4c1-0.7,2-1.3,2.7-2.2c0.7-0.9,1.2-2.1,1.3-3.7h-0.5h0.5c0-0.6,0.1-1.2,0.1-1.7c0-1.4-0.2-2.5-0.5-3.2
		c-0.2-0.4-0.4-0.7-0.6-0.9c-0.3-0.2-0.6-0.3-0.9-0.3c-0.4,0-0.8,0.2-1.2,0.5c-0.3,0.3-0.6,0.7-0.9,1.2c-0.7,1.3-1.2,2.3-1.9,3.1
		c-0.7,0.9-1.6,1.6-3.2,2.2c-0.9,0.4-1.6,0.9-2.1,1.3c-0.3,0.2-0.5,0.4-0.7,0.5c-0.1,0.1-0.2,0.1-0.2,0.1h-0.1v0.2l0.1-0.1h-0.1v0.2
		l0.1-0.1l-0.1,0.1l0.1-0.1l-0.1,0.1l0.1-0.1v-0.1c0-0.1-0.1-0.4-0.1-0.9c0-0.7,0.1-1.9,0.3-3.6c0.4-4,0.9-6.2,1.4-7.7
		s1.2-2.5,2.2-4c0.5-0.7,1.5-1.8,2.9-3.1c4.3-3.9,12.2-9.3,19.2-10.7c3.8-0.8,6.2-1.8,7.7-2.8s2.2-2.1,2.2-3.2
		c0-0.6-0.2-1.1-0.5-1.5c-0.2-0.3-0.6-0.5-0.9-0.6c-0.4-0.1-0.8-0.1-1.3-0.1c-1.8,0-4.5,0.5-6.7,1s-4,1-4,1l0.1,0.5l-0.1-0.5
		l-3.9,0.8l-0.1,0.1l-0.1,0.1c-0.2,0.2-0.8,0.6-1.5,0.9c-0.7,0.4-1.4,0.6-1.9,0.6c-0.2,0-0.4-0.1-0.5-0.1c-0.1-0.1-0.2-0.3-0.2-0.7
		c0-1,0.6-3,2.3-6.3c2.3-4.5,4-7.8,5.1-10.3c0.6-1.3,1-2.3,1.3-3.1c0.3-0.9,0.5-1.5,0.5-2.1c0-0.4-0.1-0.9-0.4-1.2
		c-0.3-0.3-0.7-0.4-1.1-0.4h-0.2c-0.7,0-1.3,0.1-2,0.2c-1,0.2-2,0.5-2.9,1.5c-1,0.9-1.9,2.4-3.1,4.8c-1.5,3.2-3,7.8-4.2,11.6
		c-1.1,3.8-1.9,6.8-1.9,6.8s0,0.1,0,0.2c-0.1,0.4-0.3,1.3-0.6,2c-0.1,0.4-0.3,0.8-0.5,1c-0.1,0.1-0.2,0.2-0.2,0.2H324v0.1l0.1-0.1
		v0.1l0.1-0.1c0,0-0.2-0.2-0.3-0.6c-0.2-0.6-0.4-1.6-0.5-2.7c-0.2-1.7-0.4-3.7-0.6-5.3c-0.1-0.8-0.1-1.5-0.2-2.1
		c0-0.3-0.1-0.5-0.1-0.7c0-0.1,0-0.2,0-0.2l-0.1-0.2l-0.5,0.2l0.5-0.1c0-0.1,0-0.4-0.1-0.7c-0.1-1.4-0.3-4.2-0.6-6.7
		c-0.1-1.3-0.3-2.5-0.6-3.5c-0.1-0.5-0.2-0.9-0.4-1.3c-0.2-0.3-0.3-0.6-0.6-0.9c0,0-0.2-0.1-0.3-0.3c-0.5-0.5-1.4-1.5-2.3-2.3
		c-0.5-0.4-0.9-0.8-1.4-1.1c-0.5-0.3-0.9-0.5-1.4-0.5c-0.2,0-0.5,0.1-0.7,0.2c-0.3,0.2-0.5,0.5-0.6,0.9c-0.1,0.4-0.2,0.9-0.2,1.5
		c0,1.4,0.3,3.6,1.1,6.8c3.8,15.1,3.9,20.5,3.9,20.9h0.5l-0.4-0.2c0,0,0,0-0.1,0.1c-0.2,0.3-0.7,1.2-1.3,1.9c-0.3,0.4-0.7,0.7-1,1
		c-0.3,0.2-0.7,0.4-1,0.4c-0.3,0-0.6-0.1-0.9-0.4c-0.3-0.3-0.7-0.9-1.1-1.8c-1.3-3.4-4.2-5.8-6.7-7.4c-2.5-1.6-4.7-2.4-4.8-2.4
		c-0.1,0-0.9-0.2-1.7-0.7s-1.8-1.2-2.4-2.3c-0.4-0.7-1.2-1.1-1.9-1.1c-0.8,0-1.6,0.4-2.3,1c-0.6,0.6-1.1,1.5-1.1,2.4s0.5,2,1.5,2.9
		l0.3-0.4l-0.3,0.4c1,0.9,2.4,1.8,4,2.9c2.5,1.6,5.4,3.4,7.9,5.2c1.2,0.9,2.3,1.9,3.1,2.8s1.4,1.9,1.5,2.7c0.4,1.9,1,4.1,1.5,6.1
		c0.5,2.1,0.9,4,0.9,5.3c0,0.5-0.1,0.9-0.2,1.2c-0.1,0.3-0.2,0.4-0.4,0.4c-0.3,0.1-0.4,0.1-0.5,0.1c-0.1,0-0.1,0-0.2,0
		c-0.1,0-0.2-0.2-0.4-0.4c-0.2-0.4-0.6-0.9-1.2-1.5c-0.6-0.6-1.5-1.2-2.8-1.7c-1.6-0.6-3.3-2-4.9-3.3c-0.8-0.7-1.5-1.3-2.1-1.8
		c-0.7-0.5-1.2-0.8-1.9-0.8c-0.4,0-0.8,0.2-1,0.5c-0.3,0.3-0.4,0.7-0.5,1.2c-0.1,0.4-0.1,0.8-0.1,1.2c0,2,1.1,3.4,2.1,4.4
		s2.1,1.4,2.1,1.4h0.1h0.1c0.2,0,1.5,0.2,2.9,0.9c1.4,0.7,3,1.9,4,3.9c1.1,2.3,1.8,3.7,2.1,4.8c0.3,1.1,0.4,2,0.5,3.6h0.5H310
		c0,1.1-0.2,2.3-0.5,3.2c-0.2,0.4-0.4,0.8-0.6,1c-0.2,0.2-0.4,0.3-0.6,0.3c-0.3,0-0.7-0.2-1.3-0.6c-1.2-0.9-2.4-1.5-3.4-1.5
		c-0.4,0-0.7,0.1-1,0.3c-0.3,0.2-0.5,0.6-0.5,1c0,0.8,0.5,1.6,1.4,2.8l0.4-0.3l-0.4,0.3c1.5,1.9,2.8,4.1,3.7,6.1
		c0.9,2,1.5,3.7,1.6,4.5l0.5-0.1h-0.5c0,0.5,0.3,0.8,0.6,1.1c0.5,0.5,1.1,0.8,1.8,1c0.7,0.2,1.4,0.3,2.1,0.3c0.6,0,1.1-0.1,1.5-0.3
		c0.2-0.1,0.4-0.3,0.6-0.5c0.2-0.2,0.2-0.5,0.2-0.8v-0.1v-0.1v-0.1L315.2-75.9h-0.5l-0.1,0.2c0,0.1-0.2,0.2-0.4,0.2
		c-0.2,0.1-0.6,0.1-0.9,0.1c-0.8,0-1.7-0.2-2.4-0.5c-0.4-0.2-0.6-0.3-0.8-0.5c-0.2-0.2-0.3-0.4-0.3-0.5c-0.1-1-0.7-2.7-1.7-4.8
		c-1-2-2.3-4.3-3.8-6.3c-0.9-1.1-1.2-1.9-1.2-2.2c0-0.2,0-0.2,0.1-0.2c0.1,0,0.2-0.1,0.4-0.1c0.6,0,1.7,0.4,2.8,1.3l0.3-0.4
		l-0.3,0.4c0.7,0.6,1.3,0.9,1.9,0.9c0.5,0,1-0.2,1.3-0.6c0.5-0.5,0.8-1.3,1-2.1c0.2-0.9,0.3-1.8,0.3-2.7c0-1.6-0.1-2.6-0.5-3.8
		c-0.4-1.2-1-2.6-2.2-5c-1.2-2.5-3.1-3.8-4.8-4.5c-1.6-0.7-2.9-0.8-3-0.8v0.5l0.2-0.5c-0.2-0.1-1.1-0.6-2-1.4
		c-0.9-0.8-1.6-2-1.6-3.5c0-0.3,0-0.6,0.1-1c0.1-0.4,0.2-0.7,0.3-0.8c0.1-0.1,0.1-0.1,0.3-0.1s0.7,0.2,1.3,0.7
		c0.9,0.7,2,1.7,3.2,2.7s2.6,2,4,2.5c1.9,0.7,2.6,1.5,3.1,2.2c0.2,0.3,0.4,0.7,0.7,1c0.1,0.1,0.3,0.3,0.5,0.4s0.4,0.2,0.7,0.2
		s0.5-0.1,0.9-0.2c0.5-0.2,0.8-0.6,1-1c0.2-0.5,0.2-1,0.2-1.6c0-1.5-0.4-3.5-0.9-5.6c-0.5-2.1-1.1-4.3-1.5-6.1
		c-0.3-1.5-1.3-2.8-2.7-4.2c-2.1-2-4.9-3.9-7.6-5.6c-2.7-1.7-5.2-3.2-6.5-4.4c-0.9-0.8-1.1-1.5-1.1-2.1c0-0.6,0.3-1.3,0.8-1.7
		c0.5-0.5,1.1-0.7,1.6-0.7c0.4,0,0.8,0.2,1,0.6c0.8,1.4,2,2.2,3,2.7s1.8,0.7,1.8,0.7l0.1-0.5l-0.2,0.5h0.1c0.5,0.2,2.6,1.1,4.9,2.6
		c2.3,1.6,4.8,3.8,5.9,6.7c0.4,1,0.8,1.7,1.3,2.2s1,0.7,1.6,0.7c0.7,0,1.2-0.3,1.7-0.7c0.7-0.6,1.3-1.4,1.8-2.1
		c0.4-0.7,0.7-1.2,0.7-1.2v-0.1v-0.1c0-0.5-0.1-6-3.9-21.2c-0.8-3.2-1.1-5.3-1.1-6.6c0-0.7,0.1-1.2,0.2-1.4c0.1-0.1,0.1-0.1,0.1-0.2
		h0.1c0.2,0,0.6,0.2,1.1,0.5c0.7,0.5,1.5,1.3,2.2,2c0.3,0.4,0.7,0.7,0.9,1c0.3,0.3,0.5,0.5,0.7,0.6c0,0,0.2,0.3,0.3,0.7
		c0.2,0.7,0.4,1.7,0.6,2.9c0.3,1.8,0.4,3.9,0.6,5.6c0.1,0.9,0.1,1.6,0.2,2.2c0,0.3,0,0.5,0.1,0.7c0,0.2,0,0.3,0.1,0.4h0.1h-0.1h0.1
		h-0.1c0,0,0.1,0.3,0.1,0.7c0.1,1.3,0.3,4,0.6,6.5c0.1,1.2,0.3,2.4,0.5,3.3c0.1,0.5,0.2,0.8,0.4,1.2c0.1,0.2,0.1,0.3,0.2,0.4
		c0.1,0.1,0.2,0.3,0.4,0.3l0.2-0.5l-0.2,0.5c0.1,0.1,0.3,0.1,0.5,0.1c0.3,0,0.5-0.1,0.7-0.3c0.3-0.3,0.5-0.6,0.7-1.1
		c0.6-1.2,0.9-2.9,0.9-2.9l-0.5-0.1l0.5,0.1c0,0,0.2-0.7,0.5-2c1-3.7,3.2-11.6,5.5-16.2c1.5-3.1,2.6-4.5,3.7-5.2
		c0.5-0.3,1-0.5,1.6-0.6c0.6-0.1,1.2-0.1,1.9-0.2h0.2c0.3,0,0.4,0.1,0.4,0.1s0.1,0.1,0.1,0.4c0,0.4-0.1,1-0.4,1.8
		c-0.8,2.4-3,6.7-6.4,13.4c-1.7,3.4-2.4,5.4-2.4,6.8c0,0.6,0.1,1.1,0.5,1.4c0.3,0.3,0.8,0.5,1.2,0.5c0.9,0,1.9-0.5,2.7-0.9
		s1.4-0.9,1.4-0.9l-0.3-0.4l0.1,0.5l3.8-0.8c0,0,0.4-0.1,1.1-0.3c1.1-0.3,2.8-0.7,4.5-1c1.7-0.3,3.5-0.6,4.8-0.6c0.4,0,0.8,0,1,0.1
		c0.1,0,0.2,0.1,0.3,0.1l0.1,0.1c0.2,0.3,0.3,0.6,0.3,0.9c0,0.6-0.4,1.4-1.7,2.4c-1.4,0.9-3.7,1.9-7.4,2.6c-4.9,1-10,3.8-14.2,6.7
		c-2.1,1.4-4,2.9-5.4,4.2c-1.5,1.3-2.5,2.4-3.1,3.3c-1,1.5-1.7,2.5-2.3,4.2c-0.6,1.7-1,3.9-1.5,7.9c-0.2,1.7-0.3,2.9-0.3,3.7
		c0,0.5,0,0.9,0.1,1.3c0.1,0.2,0.1,0.3,0.3,0.5c0.1,0.1,0.4,0.2,0.5,0.2c0.3,0,0.6-0.1,0.8-0.3c0.4-0.2,0.7-0.5,1.2-0.9
		c0.4-0.3,1-0.7,1.5-0.9l-0.2-0.5l0.2,0.5c1.7-0.7,2.7-1.6,3.5-2.5c0.8-1,1.3-2.1,2-3.3c0.2-0.4,0.5-0.7,0.7-0.9s0.4-0.3,0.5-0.3
		s0.2,0,0.3,0.1c0.2,0.1,0.4,0.4,0.5,1c0.2,0.5,0.3,1.3,0.3,2.3c0,0.5,0,1-0.1,1.6c-0.1,1.5-0.5,2.4-1.1,3.1
		c-0.9,1.1-2.4,1.9-4.2,3.2c-1.8,1.3-3.8,3.2-5.6,6.6c-3,5.6-3.6,9-3.6,10.8c0,1.1,0.2,1.6,0.2,1.6L315.2-75.9h-0.5H315.2z"/>
	<path d="M300.3-75.4c0,0-1-11.8,3.3-13.5c4.3-1.8,11.4-9.4,10.8-13.2c-0.6-3.8-2.4-2.2-3.6-2.2s-4.2,9.4-5.9,9.5
		c-1.7,0.1-4.3-4.6-1-11.4c3.3-6.7,6.8-8.8,8.3-13.4s-1.7-1.5,2.7-11.8c4.4-10.3,7.8-23,3.3-19.7c-4.5,3.3-4.3,11.1-4.3,11.1
		l-1.5-0.5c0,0-2.1-5.1-1.2-7.1c0.9-2,2.2-9.4,2.2-9.4s-1-6.5-2.8-3c-1.8,3.6-1.4,8.4-1.8,10.2c-0.4,1.8-1.3,8.6-0.6,9.9
		c0.6,1.3,2.5,3.2,2.8,4.3s-0.2,5.6-1.6,10c-1.4,4.4-5.4-4.2-5.9-4.4s-3.2-6.4-4.2-9.7c-0.9-3.3,1.4-11.9,1.4-13.1
		c0-1.2-0.2-12-2.9-5.1c-2.8,6.9-1.7,12.5-1.7,13.1c0,0.6,0.4,10.3,0.4,10.3s1.2,5.6,3.7,8.9c2.5,3.3,6,1.7,2.2,12.7
		c-3.7,11-9.2,14.6-8,20.1c1.1,5.6-1.6,5.7,0.4,8.9c2,3.2,1.5,7.7,2,8.6C297-74.3,300.3-75.4,300.3-75.4z"/>
	<path d="M300.3-75.4c0,0-1-11.8,3.3-13.5c4.3-1.8,11.4-9.4,10.8-13.2c-0.6-3.8-2.4-2.2-3.6-2.2s-4.2,9.4-5.9,9.5
		c-1.7,0.1-4.3-4.6-1-11.4c3.3-6.7,6.8-8.8,8.3-13.4s-1.7-1.5,2.7-11.8c4.4-10.3,7.8-23,3.3-19.7c-4.5,3.3-4.3,11.1-4.3,11.1
		l-1.5-0.5c0,0-2.1-5.1-1.2-7.1c0.9-2,2.2-9.4,2.2-9.4s-1-6.5-2.8-3c-1.8,3.6-1.4,8.4-1.8,10.2c-0.4,1.8-1.3,8.6-0.6,9.9
		c0.6,1.3,2.5,3.2,2.8,4.3s-0.2,5.6-1.6,10c-1.4,4.4-5.4-4.2-5.9-4.4s-3.2-6.4-4.2-9.7c-0.9-3.3,1.4-11.9,1.4-13.1
		c0-1.2-0.2-12-2.9-5.1c-2.8,6.9-1.7,12.5-1.7,13.1c0,0.6,0.4,10.3,0.4,10.3s1.2,5.6,3.7,8.9c2.5,3.3,6,1.7,2.2,12.7
		c-3.7,11-9.2,14.6-8,20.1c1.1,5.6-1.6,5.7,0.4,8.9c2,3.2,1.5,7.7,2,8.6C297-74.3,300.3-75.4,300.3-75.4z"/>
	<path d="M300.3-75.4h0.5c0,0,0-0.3,0-0.8s0-1.2,0-2c0-1.8,0.1-4.1,0.6-6.1c0.2-1,0.6-1.9,1-2.6c0.4-0.7,0.9-1.2,1.5-1.4
		c2.2-0.9,4.9-3.2,7.1-5.7c1.1-1.3,2.1-2.6,2.8-3.9c0.7-1.3,1.2-2.5,1.2-3.6c0-0.2,0-0.4,0-0.6c-0.2-1.1-0.4-1.8-0.8-2.3
		c-0.4-0.5-0.9-0.7-1.4-0.7c-0.4,0-0.8,0.1-1.1,0.2s-0.6,0.2-0.8,0.2c-0.2,0-0.4,0.1-0.6,0.2c-0.3,0.2-0.5,0.5-0.7,0.8
		c-0.8,1.2-1.7,3.3-2.6,5.2c-0.5,0.9-0.9,1.8-1.3,2.4c-0.2,0.3-0.4,0.5-0.5,0.7l-0.2,0.1c-0.1,0-0.3-0.1-0.5-0.2
		c-0.7-0.5-1.5-2.1-1.5-4.4c0-1.7,0.4-3.7,1.5-6c1.6-3.3,3.3-5.5,4.8-7.4c1.5-1.9,2.8-3.7,3.6-6.1c0.3-1.1,0.5-1.8,0.5-2.3
		c0-0.4-0.1-0.7-0.1-1c0-0.3-0.1-0.5-0.1-0.9c0-1,0.4-2.8,2.4-7.6c1.5-3.5,2.8-7.2,3.8-10.5c1-3.3,1.6-6.2,1.6-8.1
		c0-0.6-0.1-1.2-0.3-1.6c-0.1-0.2-0.2-0.4-0.4-0.6c-0.2-0.1-0.5-0.2-0.7-0.2c-0.5,0-1,0.2-1.5,0.6c-2.2,1.6-3.3,4.2-3.9,6.5
		c-0.6,2.3-0.6,4.3-0.6,4.9c0,0.1,0,0.2,0,0.2h0.5l0.2-0.5l-1.5-0.5l-0.2,0.5l0.5-0.2c0,0,0,0-0.1-0.1c-0.1-0.3-0.5-1.2-0.8-2.3
		c-0.3-1-0.6-2.3-0.6-3.2c0-0.5,0.1-0.8,0.2-1.1c0.2-0.6,0.5-1.4,0.8-2.4c0.8-3,1.5-7.1,1.5-7.1v-0.1v-0.1c0,0-0.2-1-0.5-2.1
		c-0.2-0.5-0.3-1.1-0.6-1.5c-0.1-0.2-0.3-0.4-0.5-0.6c-0.2-0.2-0.4-0.3-0.7-0.3s-0.6,0.2-0.8,0.4c-0.2,0.2-0.4,0.5-0.6,0.9
		c-0.9,1.9-1.3,4.1-1.5,6c-0.1,1-0.1,1.8-0.2,2.6c0,0.8-0.1,1.4-0.2,1.8c-0.3,1.4-0.9,5.4-0.9,8c0,0.5,0,0.9,0.1,1.3
		c0,0.4,0.1,0.7,0.3,1l0.4-0.2l-0.5,0.2c0.3,0.7,1,1.5,1.6,2.3c0.3,0.4,0.6,0.8,0.8,1.1c0.2,0.3,0.4,0.6,0.4,0.8
		c0,0.1,0.1,0.4,0.1,0.8c0,1.7-0.5,5.4-1.7,8.9c-0.1,0.4-0.3,0.7-0.4,0.8c-0.1,0.1-0.2,0.1-0.3,0.1c-0.1,0-0.2,0-0.4-0.2
		c-0.3-0.2-0.8-0.6-1.2-1.2c-0.6-0.8-1.2-1.8-1.7-2.6c-0.2-0.4-0.5-0.8-0.6-1c-0.1-0.1-0.2-0.3-0.2-0.4l-0.1-0.1
		c-0.1,0-0.1-0.1-0.2-0.2l-0.1,0.3l0.2-0.2l-0.1-0.1l-0.1,0.3l0.2-0.2c0,0-0.1-0.2-0.3-0.4c-0.4-0.8-1.2-2.4-1.9-4.1
		c-0.7-1.7-1.4-3.6-1.8-5l-0.5,0.1l0.5-0.1c-0.1-0.5-0.2-1.1-0.2-1.9c0-1.9,0.4-4.4,0.8-6.6c0.2-1.1,0.4-2.1,0.6-2.8
		c0.1-0.4,0.1-0.7,0.2-1c0-0.3,0.1-0.5,0.1-0.7c0-0.5,0-2.3-0.2-4.1c-0.1-0.9-0.2-1.7-0.4-2.4c-0.1-0.3-0.2-0.6-0.4-0.9
		c-0.1-0.1-0.2-0.2-0.3-0.3c-0.1-0.1-0.3-0.2-0.5-0.2s-0.4,0.1-0.6,0.2c-0.3,0.2-0.5,0.5-0.7,0.9c-0.2,0.4-0.5,0.9-0.7,1.5l0.5,0.2
		l-0.5-0.2c-1.6,3.9-1.9,7.5-1.9,9.9c0,1,0.1,1.8,0.1,2.3c0,0.3,0.1,0.5,0.1,0.7c0,0.2,0,0.3,0,0.3c0,0.2,0,0.9,0.1,1.9
		c0.1,3,0.3,8.4,0.3,8.4s0.3,1.4,0.9,3.3c0.6,1.8,1.6,4.1,2.9,5.8c0.9,1.2,1.9,1.8,2.6,2.4c0.3,0.3,0.6,0.6,0.8,1
		c0.2,0.4,0.3,0.9,0.3,1.7c0,1.4-0.5,3.6-1.7,7.1c-1.7,4.9-3.7,8.3-5.3,11.2c-0.8,1.4-1.5,2.7-2,3.9c-0.5,1.2-0.8,2.4-0.8,3.7
		c0,0.5,0.1,1.1,0.2,1.6l0.5-0.1l-0.5,0.1c0.2,1,0.3,1.8,0.3,2.5c0,1-0.1,1.7-0.3,2.3c-0.2,0.6-0.3,1.2-0.3,1.8
		c0,0.7,0.2,1.5,0.8,2.5c0.9,1.5,1.3,3.3,1.5,5c0.1,0.8,0.1,1.5,0.2,2.2c0,0.3,0.1,0.6,0.1,0.8c0,0.2,0.1,0.4,0.2,0.7l0.4-0.2
		l-0.5,0.1c0.1,0.3,0.3,0.6,0.6,0.7s0.5,0.1,0.8,0.1c0.6,0,1.3-0.1,1.8-0.3c0.5-0.1,0.9-0.3,0.9-0.3l0.4-0.1v-0.4L300.3-75.4
		l-0.2-0.5c0,0-0.1,0-0.2,0.1c-0.5,0.1-1.5,0.4-2.2,0.4c-0.2,0-0.4,0-0.4-0.1l-0.1,0.1h0.1l-0.1,0.1h0.1v-0.1v-0.1
		c0,0-0.1-0.2-0.1-0.3c-0.1-0.7-0.2-2-0.4-3.6c-0.2-1.5-0.6-3.2-1.6-4.7c-0.5-0.9-0.7-1.4-0.7-1.9s0.1-0.9,0.3-1.6
		c0.2-0.7,0.3-1.5,0.3-2.5c0-0.7-0.1-1.6-0.3-2.7c-0.1-0.5-0.2-1-0.2-1.4c0-1.1,0.3-2.2,0.8-3.3c1.5-3.4,4.8-7.6,7.4-15.1
		c1.2-3.5,1.7-5.8,1.7-7.4c0-0.9-0.1-1.6-0.4-2.1c-0.4-0.9-1-1.4-1.7-1.9c-0.6-0.5-1.3-1-1.9-1.8c-1.2-1.6-2.1-3.8-2.7-5.5
		c-0.3-0.9-0.5-1.7-0.7-2.3c-0.1-0.3-0.1-0.5-0.2-0.7c0-0.2-0.1-0.2-0.1-0.2l-0.5,0.1h0.5c0,0-0.1-2.4-0.2-4.9
		c0-1.2-0.1-2.5-0.1-3.5s-0.1-1.7-0.1-1.8s0-0.2,0-0.4c-0.1-0.5-0.2-1.6-0.2-3c0-2.4,0.3-5.7,1.9-9.5c0.3-0.8,0.6-1.3,0.8-1.7
		c0.1-0.2,0.2-0.2,0.3-0.3v-0.1v0.1v-0.1v0.1v-0.1l-0.1,0.1h0.1v-0.1l-0.1,0.1c0,0,0.1,0.1,0.2,0.3c0.1,0.3,0.3,0.9,0.4,1.5
		c0.3,1.9,0.4,4.6,0.4,5.1c0,0.1,0,0.3-0.1,0.5c-0.1,0.9-0.5,2.7-0.9,4.7c-0.3,2-0.7,4.1-0.7,5.9c0,0.8,0.1,1.5,0.2,2.1
		c0.5,1.7,1.4,4.1,2.3,6.1c0.4,1,0.9,1.9,1.2,2.6c0.2,0.3,0.3,0.6,0.5,0.8c0.1,0.1,0.1,0.2,0.2,0.3s0.1,0.2,0.3,0.3l0.1-0.3
		l-0.2,0.3l0.1,0.1l0.1-0.3l-0.2,0.3c0,0,0.1,0.2,0.2,0.3c0.4,0.7,1.2,2,2,3.1c0.4,0.6,0.9,1.1,1.3,1.5c0.5,0.4,0.9,0.7,1.5,0.8
		c0.4,0,0.7-0.2,1-0.4c0.3-0.3,0.5-0.7,0.6-1.2c1.2-3.6,1.7-7.3,1.7-9.2c0-0.4,0-0.8-0.1-1.1c-0.1-0.4-0.3-0.7-0.5-1.1
		c-0.4-0.6-0.8-1.2-1.3-1.7c-0.4-0.6-0.8-1.1-1-1.6c0-0.1-0.1-0.3-0.1-0.6c0-0.3-0.1-0.7-0.1-1.2c0-2.5,0.6-6.5,0.8-7.8
		c0.1-0.5,0.2-1.2,0.2-1.9c0.1-2.3,0.3-5.6,1.6-8.2l-0.4-0.2l0.4,0.2c0.2-0.3,0.3-0.6,0.4-0.7l0.1-0.1c0,0,0.3,0.2,0.4,0.6
		c0.3,0.5,0.5,1.3,0.6,1.9c0.1,0.3,0.1,0.6,0.2,0.8c0.1,0.2,0.1,0.3,0.1,0.3l0.5-0.1l-0.5-0.1c0,0-0.1,0.5-0.2,1.2
		c-0.2,1.1-0.5,2.8-0.9,4.3c-0.4,1.6-0.8,3.1-1.1,3.8c-0.2,0.5-0.3,1-0.3,1.5c0,1.3,0.4,2.7,0.7,3.9c0.4,1.2,0.7,2.1,0.7,2.1
		l0.1,0.2l2.4,0.8v-0.7c0,0,0,0,0-0.1c0-0.5,0-2.5,0.6-4.6c0.5-2.2,1.6-4.5,3.5-5.9c0.5-0.3,0.8-0.4,0.9-0.4h0.1
		c0,0,0.1,0.1,0.2,0.4c0.1,0.2,0.1,0.6,0.1,1c0,1.7-0.6,4.5-1.6,7.8c-1,3.3-2.3,7-3.8,10.4c-2,4.8-2.5,6.7-2.5,8
		c0,0.4,0.1,0.7,0.1,1c0,0.3,0.1,0.5,0.1,0.8c0,0.4-0.1,1-0.4,2c-0.7,2.2-1.9,3.8-3.4,5.8c-1.5,1.9-3.2,4.2-4.9,7.6
		c-1.2,2.4-1.6,4.6-1.6,6.5c0,1.7,0.4,3,0.9,4c0.3,0.5,0.6,0.9,0.9,1.2c0.4,0.3,0.7,0.5,1.2,0.5h0.1c0.4,0,0.7-0.3,1-0.6
		c0.5-0.5,1-1.4,1.5-2.3c0.7-1.4,1.5-3.1,2.2-4.5c0.3-0.7,0.6-1.3,0.9-1.6c0.1-0.2,0.2-0.3,0.3-0.4l0.1-0.1l-0.1-0.2v0.2h0.1
		l-0.1-0.2v0.2c0.4,0,0.7-0.1,1-0.2c0.3-0.1,0.6-0.2,0.8-0.2c0.3,0,0.4,0.1,0.6,0.3c0.2,0.3,0.5,0.8,0.6,1.8c0,0.1,0,0.3,0,0.4
		c0,0.8-0.4,2-1,3.2c-1,1.8-2.6,3.8-4.4,5.5s-3.6,3-5.1,3.7l0.2,0.5l-0.2-0.5c-0.9,0.3-1.5,1-2,1.9c-0.7,1.3-1.2,2.9-1.4,4.5
		c-0.2,1.7-0.3,3.3-0.3,4.7c0,1.7,0.1,2.9,0.1,2.9L300.3-75.4l-0.2-0.5L300.3-75.4z"/>
	<path d="M300.3-75.4h0.5c0,0,0-0.3,0-0.8s0-1.2,0-2c0-1.8,0.1-4.1,0.6-6.1c0.2-1,0.6-1.9,1-2.6c0.4-0.7,0.9-1.2,1.5-1.4
		c2.2-0.9,4.9-3.2,7.1-5.7c1.1-1.3,2.1-2.6,2.8-3.9c0.7-1.3,1.2-2.5,1.2-3.6c0-0.2,0-0.4,0-0.6c-0.2-1.1-0.4-1.8-0.8-2.3
		c-0.4-0.5-0.9-0.7-1.4-0.7c-0.4,0-0.8,0.1-1.1,0.2s-0.6,0.2-0.8,0.2c-0.2,0-0.4,0.1-0.6,0.2c-0.3,0.2-0.5,0.5-0.7,0.8
		c-0.8,1.2-1.7,3.3-2.6,5.2c-0.5,0.9-0.9,1.8-1.3,2.4c-0.2,0.3-0.4,0.5-0.5,0.7l-0.2,0.1c-0.1,0-0.3-0.1-0.5-0.2
		c-0.7-0.5-1.5-2.1-1.5-4.4c0-1.7,0.4-3.7,1.5-6c1.6-3.3,3.3-5.5,4.8-7.4c1.5-1.9,2.8-3.7,3.6-6.1c0.3-1.1,0.5-1.8,0.5-2.3
		c0-0.4-0.1-0.7-0.1-1c0-0.3-0.1-0.5-0.1-0.9c0-1,0.4-2.8,2.4-7.6c1.5-3.5,2.8-7.2,3.8-10.5c1-3.3,1.6-6.2,1.6-8.1
		c0-0.6-0.1-1.2-0.3-1.6c-0.1-0.2-0.2-0.4-0.4-0.6c-0.2-0.1-0.5-0.2-0.7-0.2c-0.5,0-1,0.2-1.5,0.6c-2.2,1.6-3.3,4.2-3.9,6.5
		c-0.6,2.3-0.6,4.3-0.6,4.9c0,0.1,0,0.2,0,0.2h0.5l0.2-0.5l-1.5-0.5l-0.2,0.5l0.5-0.2c0,0,0,0-0.1-0.1c-0.1-0.3-0.5-1.2-0.8-2.3
		c-0.3-1-0.6-2.3-0.6-3.2c0-0.5,0.1-0.8,0.2-1.1c0.2-0.6,0.5-1.4,0.8-2.4c0.8-3,1.5-7.1,1.5-7.1v-0.1v-0.1c0,0-0.2-1-0.5-2.1
		c-0.2-0.5-0.3-1.1-0.6-1.5c-0.1-0.2-0.3-0.4-0.5-0.6c-0.2-0.2-0.4-0.3-0.7-0.3s-0.6,0.2-0.8,0.4c-0.2,0.2-0.4,0.5-0.6,0.9
		c-0.9,1.9-1.3,4.1-1.5,6c-0.1,1-0.1,1.8-0.2,2.6c0,0.8-0.1,1.4-0.2,1.8c-0.3,1.4-0.9,5.4-0.9,8c0,0.5,0,0.9,0.1,1.3
		c0,0.4,0.1,0.7,0.3,1l0.4-0.2l-0.5,0.2c0.3,0.7,1,1.5,1.6,2.3c0.3,0.4,0.6,0.8,0.8,1.1c0.2,0.3,0.4,0.6,0.4,0.8
		c0,0.1,0.1,0.4,0.1,0.8c0,1.7-0.5,5.4-1.7,8.9c-0.1,0.4-0.3,0.7-0.4,0.8c-0.1,0.1-0.2,0.1-0.3,0.1c-0.1,0-0.2,0-0.4-0.2
		c-0.3-0.2-0.8-0.6-1.2-1.2c-0.6-0.8-1.2-1.8-1.7-2.6c-0.2-0.4-0.5-0.8-0.6-1c-0.1-0.1-0.2-0.3-0.2-0.4l-0.1-0.1
		c-0.1,0-0.1-0.1-0.2-0.2l-0.1,0.3l0.2-0.2l-0.1-0.1l-0.1,0.3l0.2-0.2c0,0-0.1-0.2-0.3-0.4c-0.4-0.8-1.2-2.4-1.9-4.1
		c-0.7-1.7-1.4-3.6-1.8-5l-0.5,0.1l0.5-0.1c-0.1-0.5-0.2-1.1-0.2-1.9c0-1.9,0.4-4.4,0.8-6.6c0.2-1.1,0.4-2.1,0.6-2.8
		c0.1-0.4,0.1-0.7,0.2-1c0-0.3,0.1-0.5,0.1-0.7c0-0.5,0-2.3-0.2-4.1c-0.1-0.9-0.2-1.7-0.4-2.4c-0.1-0.3-0.2-0.6-0.4-0.9
		c-0.1-0.1-0.2-0.2-0.3-0.3c-0.1-0.1-0.3-0.2-0.5-0.2s-0.4,0.1-0.6,0.2c-0.3,0.2-0.5,0.5-0.7,0.9c-0.2,0.4-0.5,0.9-0.7,1.5l0.5,0.2
		l-0.5-0.2c-1.6,3.9-1.9,7.5-1.9,9.9c0,1,0.1,1.8,0.1,2.3c0,0.3,0.1,0.5,0.1,0.7c0,0.2,0,0.3,0,0.3c0,0.2,0,0.9,0.1,1.9
		c0.1,3,0.3,8.4,0.3,8.4s0.3,1.4,0.9,3.3c0.6,1.8,1.6,4.1,2.9,5.8c0.9,1.2,1.9,1.8,2.6,2.4c0.3,0.3,0.6,0.6,0.8,1
		c0.2,0.4,0.3,0.9,0.3,1.7c0,1.4-0.5,3.6-1.7,7.1c-1.7,4.9-3.7,8.3-5.3,11.2c-0.8,1.4-1.5,2.7-2,3.9c-0.5,1.2-0.8,2.4-0.8,3.7
		c0,0.5,0.1,1.1,0.2,1.6l0.5-0.1l-0.5,0.1c0.2,1,0.3,1.8,0.3,2.5c0,1-0.1,1.7-0.3,2.3c-0.2,0.6-0.3,1.2-0.3,1.8
		c0,0.7,0.2,1.5,0.8,2.5c0.9,1.5,1.3,3.3,1.5,5c0.1,0.8,0.1,1.5,0.2,2.2c0,0.3,0.1,0.6,0.1,0.8c0,0.2,0.1,0.4,0.2,0.7l0.4-0.2
		l-0.5,0.1c0.1,0.3,0.3,0.6,0.6,0.7s0.5,0.1,0.8,0.1c0.6,0,1.3-0.1,1.8-0.3c0.5-0.1,0.9-0.3,0.9-0.3l0.4-0.1v-0.4L300.3-75.4
		l-0.2-0.5c0,0-0.1,0-0.2,0.1c-0.5,0.1-1.5,0.4-2.2,0.4c-0.2,0-0.4,0-0.4-0.1l-0.1,0.1h0.1l-0.1,0.1h0.1v-0.1v-0.1
		c0,0-0.1-0.2-0.1-0.3c-0.1-0.7-0.2-2-0.4-3.6c-0.2-1.5-0.6-3.2-1.6-4.7c-0.5-0.9-0.7-1.4-0.7-1.9s0.1-0.9,0.3-1.6
		c0.2-0.7,0.3-1.5,0.3-2.5c0-0.7-0.1-1.6-0.3-2.7c-0.1-0.5-0.2-1-0.2-1.4c0-1.1,0.3-2.2,0.8-3.3c1.5-3.4,4.8-7.6,7.4-15.1
		c1.2-3.5,1.7-5.8,1.7-7.4c0-0.9-0.1-1.6-0.4-2.1c-0.4-0.9-1-1.4-1.7-1.9c-0.6-0.5-1.3-1-1.9-1.8c-1.2-1.6-2.1-3.8-2.7-5.5
		c-0.3-0.9-0.5-1.7-0.7-2.3c-0.1-0.3-0.1-0.5-0.2-0.7c0-0.2-0.1-0.2-0.1-0.2l-0.5,0.1h0.5c0,0-0.1-2.4-0.2-4.9
		c0-1.2-0.1-2.5-0.1-3.5s-0.1-1.7-0.1-1.8s0-0.2,0-0.4c-0.1-0.5-0.2-1.6-0.2-3c0-2.4,0.3-5.7,1.9-9.5c0.3-0.8,0.6-1.3,0.8-1.7
		c0.1-0.2,0.2-0.2,0.3-0.3v-0.1v0.1v-0.1v0.1v-0.1l-0.1,0.1h0.1v-0.1l-0.1,0.1c0,0,0.1,0.1,0.2,0.3c0.1,0.3,0.3,0.9,0.4,1.5
		c0.3,1.9,0.4,4.6,0.4,5.1c0,0.1,0,0.3-0.1,0.5c-0.1,0.9-0.5,2.7-0.9,4.7c-0.3,2-0.7,4.1-0.7,5.9c0,0.8,0.1,1.5,0.2,2.1
		c0.5,1.7,1.4,4.1,2.3,6.1c0.4,1,0.9,1.9,1.2,2.6c0.2,0.3,0.3,0.6,0.5,0.8c0.1,0.1,0.1,0.2,0.2,0.3s0.1,0.2,0.3,0.3l0.1-0.3
		l-0.2,0.3l0.1,0.1l0.1-0.3l-0.2,0.3c0,0,0.1,0.2,0.2,0.3c0.4,0.7,1.2,2,2,3.1c0.4,0.6,0.9,1.1,1.3,1.5c0.5,0.4,0.9,0.7,1.5,0.8
		c0.4,0,0.7-0.2,1-0.4c0.3-0.3,0.5-0.7,0.6-1.2c1.2-3.6,1.7-7.3,1.7-9.2c0-0.4,0-0.8-0.1-1.1c-0.1-0.4-0.3-0.7-0.5-1.1
		c-0.4-0.6-0.8-1.2-1.3-1.7c-0.4-0.6-0.8-1.1-1-1.6c0-0.1-0.1-0.3-0.1-0.6c0-0.3-0.1-0.7-0.1-1.2c0-2.5,0.6-6.5,0.8-7.8
		c0.1-0.5,0.2-1.2,0.2-1.9c0.1-2.3,0.3-5.6,1.6-8.2l-0.4-0.2l0.4,0.2c0.2-0.3,0.3-0.6,0.4-0.7l0.1-0.1c0,0,0.3,0.2,0.4,0.6
		c0.3,0.5,0.5,1.3,0.6,1.9c0.1,0.3,0.1,0.6,0.2,0.8c0.1,0.2,0.1,0.3,0.1,0.3l0.5-0.1l-0.5-0.1c0,0-0.1,0.5-0.2,1.2
		c-0.2,1.1-0.5,2.8-0.9,4.3c-0.4,1.6-0.8,3.1-1.1,3.8c-0.2,0.5-0.3,1-0.3,1.5c0,1.3,0.4,2.7,0.7,3.9c0.4,1.2,0.7,2.1,0.7,2.1
		l0.1,0.2l2.4,0.8v-0.7c0,0,0,0,0-0.1c0-0.5,0-2.5,0.6-4.6c0.5-2.2,1.6-4.5,3.5-5.9c0.5-0.3,0.8-0.4,0.9-0.4h0.1
		c0,0,0.1,0.1,0.2,0.4c0.1,0.2,0.1,0.6,0.1,1c0,1.7-0.6,4.5-1.6,7.8c-1,3.3-2.3,7-3.8,10.4c-2,4.8-2.5,6.7-2.5,8
		c0,0.4,0.1,0.7,0.1,1c0,0.3,0.1,0.5,0.1,0.8c0,0.4-0.1,1-0.4,2c-0.7,2.2-1.9,3.8-3.4,5.8c-1.5,1.9-3.2,4.2-4.9,7.6
		c-1.2,2.4-1.6,4.6-1.6,6.5c0,1.7,0.4,3,0.9,4c0.3,0.5,0.6,0.9,0.9,1.2c0.4,0.3,0.7,0.5,1.2,0.5h0.1c0.4,0,0.7-0.3,1-0.6
		c0.5-0.5,1-1.4,1.5-2.3c0.7-1.4,1.5-3.1,2.2-4.5c0.3-0.7,0.6-1.3,0.9-1.6c0.1-0.2,0.2-0.3,0.3-0.4l0.1-0.1l-0.1-0.2v0.2h0.1
		l-0.1-0.2v0.2c0.4,0,0.7-0.1,1-0.2c0.3-0.1,0.6-0.2,0.8-0.2c0.3,0,0.4,0.1,0.6,0.3c0.2,0.3,0.5,0.8,0.6,1.8c0,0.1,0,0.3,0,0.4
		c0,0.8-0.4,2-1,3.2c-1,1.8-2.6,3.8-4.4,5.5s-3.6,3-5.1,3.7l0.2,0.5l-0.2-0.5c-0.9,0.3-1.5,1-2,1.9c-0.7,1.3-1.2,2.9-1.4,4.5
		c-0.2,1.7-0.3,3.3-0.3,4.7c0,1.7,0.1,2.9,0.1,2.9L300.3-75.4l-0.2-0.5L300.3-75.4z"/>
</g>
</svg>
