<?xml version="1.0" encoding="utf-8"?>
<!-- Generator: Adobe Illustrator 16.0.0, SVG Export Plug-In . SVG Version: 6.00 Build 0)  -->
<!DOCTYPE svg PUBLIC "-//W3C//DTD SVG 1.1//EN" "http://www.w3.org/Graphics/SVG/1.1/DTD/svg11.dtd">
<svg version="1.1" id="Layer_1" xmlns="http://www.w3.org/2000/svg" xmlns:xlink="http://www.w3.org/1999/xlink" x="0px" y="0px"
	 width="127.8px" height="94.1px" viewBox="106 -52.4 127.8 94.1" style="enable-background:new 106 -52.4 127.8 94.1;"
	 xml:space="preserve">
<g>
	<path d="M223.3,3.3c0.2-27.1-6.7-38.3-8.8-41c2.6,0.5,6,3.3,8,5.4c3,3.1,4.8,5.2,8.2,7.9c0.4,0.3,2.3,2.2,2.3,2.2s-0.5-4-0.9-5.1
		c-0.5-1.6-0.7-2.8-1.3-4.4c-0.4-1.2-1-2.3-1.3-3.5c-0.4-1.2-1.1-2.2-1.7-3.3c-1-1.9-2.6-1.9-4.1-2.2c-2.6-0.5-6.1-0.4-8.7-0.4
		c0.9-0.7,1.9-1.2,2.8-1.9c3.2-2.4,6.4-3.9,9.8-5.3c-0.1,0-0.6-0.9-0.7-1c-0.3-0.4-0.7-0.6-1.1-0.8c-0.9-0.5-1.9-0.9-2.9-1.2
		c-1.9-0.6-4.1-0.7-5.9,0.5c-1.6,1.1-2.6,2-3.4,4.1c-0.1,0.3-2,4.8-2,4.8l-1.4,0.1c-0.2-3.7-4.2-8.6-4.2-8.6c-2.6-2.9-6.3-1.1-9,0
		l-3,1.6c0,0,12.4,6.3,12.9,7.7c-1.1,0.6-6.8,0-9.8,1.1c-2.7,1-3.6,4.9-4.9,8c-0.8,2-1.1,3.3-2,5.3c-0.5,1.1-1.2,5-1.2,5
		s2.2-1.4,2.7-1.8c1.4-1.3,3-3.1,4.4-4.4c4.2-3.8,8.3-7.9,12.6-11.2l-2.4,4.6c0,0-4.2,5.7-1.8,14.6c0.5,2.1,1.8,6.8,1.8,6.8l1-8.5
		c0.6-5.2,3.1-14.8,3.1-14.8c4.7,7.4,4.5,30.1,4.3,37C213.6,0.2,227.9,6,223.3,3.3"/>
	<path d="M223.8,3.3c0-0.4,0-0.8,0-1.2c0-26.4-6.8-37.4-8.9-40.2l-0.4,0.3l-0.1,0.5c1.2,0.2,2.6,1,4,2c1.4,1,2.7,2.2,3.7,3.2l0,0
		l0,0c3,3.1,4.8,5.2,8.2,7.9l0,0l0,0c0.1,0,0.3,0.2,0.5,0.4c0.3,0.3,0.8,0.8,1.1,1.1c0.4,0.3,0.6,0.6,0.6,0.6l1,1l-0.2-1.4
		c0,0-0.1-1-0.3-2.2c-0.1-0.6-0.2-1.2-0.3-1.7c-0.1-0.5-0.2-1-0.3-1.3l-0.5,0.2l0.5-0.1c-0.5-1.6-0.7-2.8-1.3-4.4l-0.5,0.2l0.5-0.2
		c-0.4-1.3-1-2.3-1.3-3.5l0,0l0,0c-0.4-1.3-1.2-2.3-1.7-3.4l-0.4,0.2l0.4-0.2c-0.5-1.1-1.3-1.6-2.1-1.9s-1.6-0.4-2.3-0.5l0,0l0,0
		c-1.9-0.4-4.3-0.4-6.4-0.4c-0.9,0-1.7,0-2.4,0v0.5l0.3,0.4c0.8-0.7,1.8-1.2,2.8-1.9l-0.3-0.4l0.3,0.4c3.2-2.4,6.3-3.8,9.7-5.2
		l2.3-1h-2.5v0.5l0.3-0.4c0,0-0.1-0.1-0.3-0.1v0.5l0.3-0.4l-0.2,0.2l0.2-0.2l0,0l-0.2,0.2l0.2-0.2l0,0c-0.1-0.1-0.2-0.3-0.3-0.5
		c-0.1-0.1-0.1-0.2-0.2-0.3l-0.1-0.1l-0.1-0.1l-0.4,0.4l0.4-0.3c-0.4-0.5-0.9-0.7-1.3-0.9l-0.2,0.4l0.2-0.4c-0.9-0.5-2-0.9-3-1.2
		l-0.1,0.5l0.2-0.5c-0.9-0.3-1.8-0.5-2.8-0.5c-1.2,0-2.4,0.3-3.5,1l0,0l0,0c-0.8,0.6-1.5,1.1-2.1,1.8c-0.6,0.7-1.1,1.5-1.5,2.6l0,0
		l0,0c0,0,0,0.1-0.1,0.3c-0.2,0.5-0.7,1.7-1.1,2.6c-0.4,1-0.8,1.9-0.8,1.9l0.5,0.2v-0.5l-1.4,0.1v0.5h0.5c-0.1-2-1.2-4.2-2.2-5.9
		c-1-1.7-2.1-3-2.1-3l0,0l0,0c-1.1-1.3-2.5-1.7-3.9-1.7c-2,0-4.1,1-5.7,1.6l0,0l-3.9,2.1l0.9,0.4c0,0,0.8,0.4,1.9,1
		c1.8,0.9,4.4,2.3,6.6,3.6c1.1,0.7,2.1,1.3,2.9,1.8c0.4,0.3,0.7,0.5,0.9,0.7c0.1,0.1,0.2,0.2,0.2,0.2l0.1,0.1l0,0h0.1h-0.1l0,0h0.1
		h-0.1l0.5-0.2l-0.2-0.4c0,0-0.2,0.1-0.5,0.1c-0.9,0.1-2.5,0.1-4.3,0.2c-1.8,0.1-3.6,0.2-5,0.7l0,0c-0.8,0.3-1.4,0.8-1.9,1.4
		c-1.6,1.8-2.3,4.6-3.3,6.9l0,0l0,0c-0.8,2-1.1,3.3-2,5.3l0,0c-0.1,0.3-0.3,0.8-0.4,1.3c-0.4,1.6-0.8,3.8-0.8,3.8l-0.2,1.1l1-0.6
		c0,0,0.6-0.4,1.2-0.8c0.6-0.4,1.3-0.8,1.6-1.1l0,0l0,0c1.4-1.3,3-3.1,4.4-4.4l-0.3-0.4l0.3,0.4c4.2-3.8,8.3-7.9,12.6-11.2l-0.3-0.4
		l-0.4-0.2l-2.4,4.6l0.4,0.2l-0.4-0.3c0,0.1-2.6,3.6-2.6,9.5c0,1.7,0.2,3.5,0.8,5.6l0.5-0.1l-0.5,0.1c0.5,2.1,1.8,6.8,1.8,6.8
		l0.7,2.5l1.3-11l0,0c0.3-2.6,1.1-6.3,1.8-9.3c0.3-1.5,0.7-2.9,0.9-3.9s0.4-1.6,0.4-1.6l-0.5-0.1l-0.4,0.3c1.8,2.8,2.9,8.2,3.5,14
		c0.6,5.8,0.8,12.1,0.8,16.9c0,2.4,0,4.4-0.1,5.8h0.5l0.2-0.5h-0.1l0,0l0,0h-0.1c0,0-0.1,0-0.2,0l-0.2,0.1c-0.1,0.1-0.1,0.2-0.1,0.3
		c0,0.2,0.1,0.2,0.1,0.3l0.1,0.1l0.1,0.1c0.1,0,0.2,0.1,0.5,0.2c0.9,0.4,2.9,1.2,4.9,1.9c1,0.4,1.9,0.7,2.6,0.9
		c0.4,0.1,0.7,0.2,1,0.3c0.3,0.1,0.5,0.1,0.7,0.1c0.1,0,0.1,0,0.3-0.1c0.1,0,0.1-0.1,0.2-0.2c0.1-0.1,0.1-0.2,0.1-0.3
		c0-0.1,0-0.2-0.1-0.3c-0.1-0.1-0.1-0.2-0.2-0.2c-0.2-0.2-0.5-0.3-0.9-0.6l-0.7,1c0.3,0.2,0.5,0.3,0.7,0.4l0.1,0.1l0.2-0.1l-0.2,0.1
		l0,0l0.2-0.1l-0.2,0.1l0.4-0.2h-0.4c0,0.1,0,0.2,0.1,0.2l0.4-0.2h-0.4h0.5L224,3.7L223.7,4h0.5l-0.4-0.3l0.3,0.3L224,3.5
		c0,0-0.1,0-0.2,0.2l0.3,0.3L224,3.5l0.1,0.2V3.5H224l0.1,0.2V3.5c0,0-0.3,0-0.6-0.1c-1.1-0.3-3.3-1.1-5.2-1.9
		c-0.9-0.4-1.8-0.7-2.5-1c-0.3-0.1-0.6-0.2-0.8-0.3l-0.2-0.1l0,0l-0.1,0.2l0.1-0.2l0,0l-0.1,0.2l0.1-0.2l-0.2,0.4l0.3-0.4l0,0
		l-0.2,0.4l0.3-0.4l-0.3,0.4l0.3-0.4L214.9,0l-0.3,0.4l0.3-0.4l-0.3,0.4l0.4-0.3v0.1l-0.3,0.4l0.4-0.3l-0.4,0.3h0.5
		c0-0.2-0.1-0.2-0.1-0.3l-0.4,0.3h0.5h-0.5l0.4,0.3c0.1-0.1,0.1-0.2,0.1-0.3h-0.5l0.4,0.3l-0.4-0.3l0.1,0.5c0,0,0.1,0,0.3-0.1
		l-0.4-0.3l0.1,0.5l-0.1-0.5v0.5h0.1l-0.1-0.5v0.5V0.6l-0.1,0.5h0.1V0.6l-0.1,0.5l0.1-0.4l-0.1,0.4l0,0l0.1-0.4l-0.1,0.4V1v0.1l0,0
		V1v0.1l0,0l0.7,0.2V0.6c0-1.4,0.1-3.4,0.1-5.9c0-4.8-0.2-11.1-0.8-17c-0.6-5.9-1.7-11.3-3.7-14.4l-0.6-1l-0.3,1.1
		c0,0-2.5,9.6-3.1,14.9l-1,8.5l0.5,0.1l0.5-0.1c0,0-0.3-1.2-0.7-2.6c-0.4-1.4-0.8-3.1-1.1-4.2l0,0l0,0c-0.5-1.9-0.7-3.7-0.7-5.3
		c0-2.8,0.6-5,1.2-6.5c0.3-0.8,0.6-1.4,0.8-1.7c0.1-0.2,0.2-0.3,0.3-0.4l0.1-0.1l0,0l0,0l3.5-6.6l-1.8,1.4
		c-4.3,3.3-8.4,7.4-12.6,11.2l0,0l0,0c-1.4,1.3-3,3.1-4.4,4.4l0.3,0.4l-0.3-0.4c-0.2,0.2-0.9,0.6-1.5,1c-0.6,0.4-1.2,0.7-1.2,0.7
		l0.3,0.4l0.5,0.1c0,0,0.2-1,0.4-2.1c0.1-0.6,0.3-1.1,0.4-1.6c0.1-0.5,0.3-0.9,0.4-1.2l0,0c0.9-2,1.2-3.4,2-5.3l-0.5-0.2l0.5,0.2
		c0.7-1.6,1.2-3.3,1.9-4.8c0.4-0.7,0.7-1.4,1.2-1.9c0.4-0.5,0.9-0.9,1.5-1.1l0,0l0,0c1.4-0.5,3.5-0.6,5.5-0.7c1,0,1.9,0,2.6-0.1
		c0.4,0,0.7-0.1,1-0.1s0.5-0.1,0.8-0.2l0.4-0.2l-0.1-0.4c-0.1-0.2-0.2-0.3-0.3-0.5c-0.3-0.3-0.6-0.6-1.1-0.9
		c-1.7-1.2-4.6-2.8-7.1-4.2c-2.5-1.4-4.6-2.4-4.6-2.4l-0.2,0.4l0.2,0.4l3-1.6l-0.2-0.4l0.2,0.5c1.6-0.7,3.6-1.5,5.3-1.5
		c1.2,0,2.2,0.3,3.1,1.4l0.4-0.3l-0.4,0.3c0,0,0.1,0.1,0.2,0.2c0.4,0.5,1.3,1.8,2.2,3.3s1.7,3.3,1.7,4.8v0.5l2.2-0.2l0.1-0.3
		c0,0,0.5-1.1,1-2.3c0.2-0.6,0.5-1.2,0.7-1.6c0.1-0.2,0.2-0.4,0.2-0.6c0.1-0.2,0.1-0.3,0.1-0.3l-0.5-0.2l0.5,0.2
		c0.4-1,0.8-1.7,1.3-2.3c0.5-0.6,1.1-1.1,1.9-1.6l-0.3-0.4l0.3,0.4c0.9-0.6,1.9-0.8,3-0.8c0.8,0,1.7,0.2,2.5,0.4l0,0l0,0
		c1,0.3,1.9,0.7,2.8,1.2l0,0l0,0c0.4,0.2,0.7,0.4,0.9,0.7l0,0l0,0l0.2-0.2l-0.2,0.1l0,0l0.2-0.2l-0.2,0.1c0,0,0.1,0.1,0.1,0.2
		c0.1,0.1,0.2,0.3,0.3,0.5l0.2,0.2l0.1,0.1l0.1,0.1c0,0,0.1,0.1,0.3,0.1v-0.5l-0.2-0.5c-3.4,1.4-6.7,2.9-9.9,5.4l0,0l0,0
		c-0.8,0.7-1.8,1.2-2.8,1.9l-1.1,0.9h1.5c0.7,0,1.6,0,2.4,0c2.1,0,4.4,0.1,6.2,0.4l0,0c0.8,0.2,1.5,0.2,2.2,0.5
		c0.6,0.2,1.1,0.6,1.6,1.5l0,0l0,0c0.6,1.1,1.3,2.1,1.7,3.2l0.5-0.2l-0.5,0.1c0.3,1.3,0.9,2.4,1.3,3.5l0,0l0,0
		c0.6,1.6,0.8,2.7,1.3,4.4l0,0l0,0c0.1,0.2,0.2,0.7,0.3,1.2c0.2,0.8,0.3,1.7,0.4,2.5c0.1,0.8,0.2,1.3,0.2,1.3l0.5-0.1l0.4-0.4
		c0,0-0.5-0.5-1-1c-0.3-0.3-0.5-0.5-0.8-0.7c-0.2-0.2-0.4-0.4-0.6-0.5l-0.3,0.4l0.3-0.4c-3.4-2.7-5.1-4.7-8.2-7.9l0,0
		c-1-1.1-2.4-2.3-3.8-3.4c-1.5-1-3-1.9-4.4-2.2l-1.3-0.3l0.8,1c2,2.6,8.7,13.4,8.7,39.5c0,0.4,0,0.8,0,1.1L223.8,3.3z"/>
	<path d="M122,5.7c12.9,1.5,22-8.1,36.1-3.8c14.2,4.3,22.7,16.7,36.9,9.9c14.2-6.8,18.2-11.9,26-7.3c7.8,4.6,10.1,11.9,10.1,11.9
		s-1.9-15.4-11.4-19c-12.5-4.7-20.4,2.4-27.7,5c-1.3-1.1-2.3-2.4-2.6-4c-1.2-5.2,4.5-15.5,9.3-7.9c0-6.3-5.3-8.2-9.4-7.1
		C180-13.9,176-6.1,177.3,0c-3.8-1.6-6.5-4.2-7.3-7.5c-1.6-6.9,6-20.5,12.3-10.4c0-8.4-7-10.9-12.4-9.4c-9.8,2.8-15.1,9.9-16.1,16.7
		c-3.1-2-5.1-4.9-6-8.5c-2.1-8.9,6.2-25.8,14.4-12.7c0-10.9-9.1-14.1-16.1-12.2c-22.9,6.5-13.8,41.7-26.2,41.3c-0.4,0-0.7,0-1.1,0
		c-0.6-0.3-1.3-0.6-2-1c-7.1-4-9.9-11.6-9.9-11.6S109.1,4.2,122,5.7z"/>
	<path d="M122,5.7l-0.1,0.5c1,0.1,1.9,0.2,2.9,0.2c4.7,0,8.9-1.3,13.1-2.6c4.2-1.3,8.3-2.5,12.9-2.5c2.3,0,4.7,0.3,7.2,1.1l0,0
		c5.5,1.7,10.2,4.6,14.8,7.2c4.6,2.6,9,4.7,14,4.7c2.6,0,5.4-0.6,8.4-2c5.2-2.5,9.1-4.8,12.2-6.4c3.1-1.6,5.5-2.6,7.9-2.6
		c1.7,0,3.4,0.5,5.4,1.7c3.8,2.3,6.3,5.2,7.8,7.5c0.8,1.2,1.3,2.2,1.6,2.9c0.2,0.4,0.3,0.7,0.4,0.9c0,0.1,0.1,0.2,0.1,0.2v0.1l1-0.2
		c0,0-0.5-3.9-2.2-8.3c-0.8-2.2-2-4.5-3.5-6.5c-1.6-2-3.5-3.7-6-4.6l0,0c-3-1.1-5.8-1.6-8.4-1.6c-4.1,0-7.7,1.2-10.9,2.6
		c-3.2,1.4-6.1,3-8.8,4l0.2,0.5l0.3-0.4c-1.3-1.1-2.2-2.3-2.4-3.7l0,0l0,0c-0.1-0.4-0.1-0.9-0.1-1.4c0-1.8,0.6-4,1.6-5.7
		c0.5-0.8,1.1-1.6,1.7-2.1c0.6-0.5,1.3-0.8,1.9-0.8c0.5,0,1,0.2,1.6,0.5c0.6,0.4,1.1,1,1.7,1.9l0.9,1.5v-1.7c0-2.7-1-4.7-2.4-6
		c-1.5-1.3-3.4-1.9-5.2-1.9c-0.8,0-1.6,0.1-2.4,0.3l0,0l0,0c-8.3,2.4-12.6,8.9-12.6,14.8c0,0.8,0.1,1.6,0.2,2.4l0.5-0.1l0.2-0.5
		c-3.7-1.6-6.3-4.1-7-7.2l0,0c-0.1-0.6-0.2-1.2-0.2-1.9c0-2.5,0.9-5.4,2.2-7.7c0.7-1.1,1.5-2.1,2.3-2.8s1.7-1,2.6-1
		c0.7,0,1.4,0.2,2.2,0.7s1.5,1.4,2.3,2.6l0.9,1.5v-1.7c0-3.6-1.2-6.2-3.1-7.9c-1.9-1.7-4.3-2.5-6.8-2.5c-1.1,0-2.1,0.1-3.2,0.4l0,0
		l0,0c-10,2.8-15.4,10.1-16.5,17.1l0.5,0.1l0.3-0.4c-3-1.9-4.9-4.7-5.8-8.2l-0.5,0.1l0.5-0.1c-0.2-0.9-0.3-1.9-0.3-3
		c0-3.1,0.9-6.7,2.4-9.4c0.7-1.4,1.6-2.5,2.6-3.3s2-1.2,3-1.2c0.9,0,1.8,0.3,2.8,1c1,0.7,2,1.9,3.1,3.5l0.9,1.5v-1.7
		c0-4.6-1.6-7.9-4-10.1c-2.4-2.2-5.6-3.1-8.7-3.1c-1.4,0-2.7,0.2-4,0.5l0,0l0,0c-5.8,1.6-9.7,5.1-12.3,9.4
		c-3.9,6.4-5.1,14.5-6.6,20.9c-0.7,3.2-1.5,6-2.5,8c-0.5,1-1.2,1.7-1.9,2.2c-0.7,0.5-1.6,0.8-2.6,0.8h-0.2l0,0l0,0
		c-0.4,0-0.7,0-1.1,0v0.5l0.2-0.4c-0.6-0.3-1.3-0.6-2-1l0,0l0,0c-3.5-1.9-5.9-4.8-7.4-7.1c-0.8-1.2-1.3-2.2-1.7-3
		c-0.2-0.4-0.3-0.7-0.4-0.9c0-0.1-0.1-0.2-0.1-0.2v-0.1l-1.4-3.9l0.5,4.1c0,0,0.6,4.9,2.8,10.1c1.1,2.6,2.6,5.2,4.7,7.3
		c2.1,2.1,4.7,3.7,8.1,4.1L122,5.7l0.1-0.5c-3.1-0.4-5.5-1.8-7.5-3.8c-2.9-3-4.7-7.2-5.8-10.6c-0.5-1.7-0.9-3.3-1.1-4.4
		c-0.1-0.6-0.2-1-0.2-1.3c0-0.3-0.1-0.5-0.1-0.5l-0.5,0.1l-0.5,0.2c0,0,2.8,7.7,10.1,11.9l0,0c0.7,0.4,1.4,0.7,2,1l0.1,0.1h0.1
		c0.4,0,0.7,0,1.1,0v-0.5v0.5h0.2c1.6,0,3-0.6,4-1.7c1.8-1.8,2.8-4.9,3.7-8.5c1.3-5.4,2.3-12.2,4.7-18.1c2.5-5.9,6.4-10.9,13.7-13
		l-0.1-0.5l0.1,0.5c1.2-0.3,2.5-0.5,3.7-0.5c2.9,0,5.9,0.9,8.1,2.9c2.2,2,3.7,5,3.7,9.3h0.5l0.4-0.3c-1.1-1.8-2.2-3-3.3-3.8
		c-1.1-0.8-2.3-1.2-3.4-1.2c-1.3,0-2.6,0.6-3.7,1.5c-1.6,1.4-2.9,3.5-3.9,5.9c-0.9,2.4-1.5,5.1-1.5,7.6c0,1.1,0.1,2.2,0.3,3.2l0,0
		l0,0c0.9,3.7,3,6.7,6.2,8.8l0.7,0.4l0.1-0.8c1-6.6,6.1-13.5,15.7-16.3l0,0c0.9-0.3,1.9-0.4,2.9-0.4c2.2,0,4.5,0.7,6.1,2.2
		c1.6,1.5,2.8,3.8,2.8,7.1h0.5l0.4-0.3c-0.8-1.3-1.7-2.3-2.6-2.9c-0.9-0.6-1.8-0.9-2.7-0.9c-1.2,0-2.3,0.5-3.2,1.3
		c-1.5,1.2-2.7,3-3.5,5c-0.9,2-1.4,4.2-1.4,6.2c0,0.8,0.1,1.5,0.2,2.2l0,0l0,0c0.9,3.5,3.7,6.2,7.6,7.8l0.9,0.4l-0.2-0.9
		c-0.2-0.7-0.2-1.5-0.2-2.2c0-5.4,3.9-11.5,11.9-13.8l-0.1-0.5l0.1,0.5c0.7-0.2,1.4-0.3,2.1-0.3c1.7,0,3.3,0.5,4.6,1.6
		c1.2,1.1,2.1,2.8,2.1,5.3h0.5l0.4-0.3c-0.6-1-1.3-1.7-2-2.2c-0.7-0.5-1.4-0.7-2.1-0.7c-0.9,0-1.8,0.4-2.5,1c-1.1,0.9-2,2.3-2.7,3.8
		s-1,3.2-1,4.8c0,0.6,0.1,1.1,0.2,1.7l0.5-0.1l-0.5,0.1c0.3,1.8,1.4,3.1,2.8,4.3l0.2,0.2l0.3-0.1c2.8-1,5.7-2.7,8.9-4
		c3.1-1.4,6.6-2.5,10.5-2.5c2.5,0,5.1,0.4,8,1.5l0,0c2.3,0.9,4.1,2.4,5.6,4.3c2.2,2.8,3.6,6.4,4.4,9.3c0.4,1.4,0.7,2.7,0.9,3.6
		c0.1,0.4,0.1,0.8,0.2,1c0,0.2,0.1,0.4,0.1,0.4l0.5-0.1l0.5-0.2c0-0.1-2.4-7.5-10.3-12.2c-2.1-1.3-4-1.8-5.9-1.8
		c-2.6,0-5.2,1.1-8.3,2.7c-3.2,1.7-7,3.9-12.2,6.4c-2.9,1.4-5.5,1.9-8,1.9c-4.7,0-9-2.1-13.5-4.6s-9.3-5.5-15-7.3l0,0
		c-2.7-0.8-5.2-1.1-7.5-1.1c-4.7,0-9,1.3-13.1,2.6c-4.2,1.3-8.3,2.5-12.8,2.5c-0.9,0-1.8,0-2.7-0.2L122,5.7z"/>
	<path d="M216.3,8.5c-8.1,0-17.7,12.6-32.9,12.6C168.3,21.2,163.2,6,150.6,6c-12.6,0-17.7,7.3-27.8,7.6C112.7,13.8,107.6,6,107.6,6
		s0.8,9.1,5.6,13.4c6.4,5.8,23-8.3,37.7-8.3c14.7,0,16.7,17.9,30.6,17.9c13.9,0,27.6-15.4,34.9-15.4c7.3,0,12.6,7.6,12.6,7.6
		S224.4,8.5,216.3,8.5z"/>
	<path d="M216.3,8.5V8c-2.2,0-4.3,0.8-6.7,2c-6.9,3.6-15.1,10.6-26.2,10.6l0,0h-0.1c-7.3,0-12.2-3.7-16.9-7.4
		c-2.4-1.9-4.7-3.8-7.2-5.2c-2.5-1.4-5.3-2.4-8.5-2.4c-6.4,0-10.9,1.9-15,3.7c-4.1,1.9-7.8,3.7-12.8,3.9v0.5v-0.5
		c-0.1,0-0.2,0-0.4,0c-4.8,0-8.4-1.8-10.8-3.7c-1.2-0.9-2.1-1.9-2.7-2.5c-0.3-0.3-0.5-0.6-0.7-0.8c-0.1-0.1-0.1-0.2-0.2-0.2V5.9l0,0
		L107,4.2l0.2,2c0,0,0.2,2.3,1,5.2c0.8,2.9,2.2,6.3,4.7,8.5l0,0c1.2,1.1,2.7,1.5,4.4,1.5c2.1,0,4.4-0.6,7-1.5
		c3.9-1.4,8.3-3.4,12.8-5.1c4.6-1.7,9.3-3,13.7-3c3.6,0,6.3,1.1,8.7,2.7c3.6,2.4,6.4,6.2,9.6,9.4s6.9,5.8,12.3,5.8
		c7.1,0,14.1-3.9,20.2-7.8c3-1.9,5.9-3.9,8.4-5.3c2.5-1.4,4.7-2.3,6.3-2.3c3.5,0,6.5,1.8,8.7,3.7c1.1,0.9,2,1.9,2.6,2.6
		c0.3,0.3,0.5,0.6,0.7,0.8c0.1,0.1,0.1,0.2,0.2,0.2l0.1,0.1l2.2,3.1l-1.3-3.6c0,0-1.2-3.2-3.4-6.5c-1.1-1.6-2.5-3.2-4.1-4.5
		c-1.6-1.2-3.5-2.1-5.7-2.1V8.5V9c1.9,0,3.6,0.7,5.1,1.9c2.3,1.7,4.1,4.3,5.3,6.5c0.6,1.1,1.1,2.1,1.4,2.8c0.2,0.4,0.3,0.6,0.4,0.8
		c0.1,0.2,0.1,0.3,0.1,0.3l0.5-0.2l0.4-0.3c0,0-1.4-2-3.6-3.9c-2.3-1.9-5.5-3.9-9.4-3.9c-2,0-4.3,1-6.8,2.5
		c-3.8,2.2-8.3,5.4-13.1,8.1c-4.8,2.7-9.9,4.8-15,4.8c-3.4,0-6-1.1-8.3-2.7c-3.5-2.4-6.2-6.2-9.5-9.4c-3.3-3.2-7.1-5.8-12.8-5.8
		c-6.2,0-12.7,2.5-18.6,4.9c-2.9,1.2-5.8,2.4-8.3,3.3s-4.8,1.5-6.7,1.5c-1.5,0-2.8-0.4-3.8-1.3l0,0l0,0c-2.3-2-3.7-5.3-4.5-8.1
		c-0.4-1.4-0.6-2.6-0.8-3.5c-0.1-0.5-0.1-0.8-0.2-1.1c0-0.3,0-0.4,0-0.4h-0.5l-0.4,0.3c0,0,1.3,2,3.8,3.9c2.5,1.9,6.4,3.9,11.4,3.9
		c0.1,0,0.3,0,0.4,0l0,0l0,0c5.2-0.2,9.1-2.1,13.2-4c4.1-1.9,8.4-3.6,14.6-3.6c3,0,5.6,0.9,8,2.3c3.6,2.1,6.9,5.3,10.7,7.9
		c3.8,2.7,8.1,4.9,13.9,4.9h0.2l0,0c7.7,0,14-3.2,19.4-6.4c2.7-1.6,5.1-3.2,7.3-4.3c2.2-1.2,4.3-1.9,6.2-1.9V8.5L216.3,8.5z"/>
	<path d="M181.7,36.6c-9.4-0.2-22.7-18.2-33.6-17.9C137.2,19,124.5,29,118.7,29c-5.8,0-8.6-2.5-8.6-2.5s0.7,7.3,7.6,7.3
		c7.3,0,19.1-10.3,30.3-10.1c15.7,0.3,20.2,18,33.9,17.7c13.4-0.3,24.3-15.2,24.3-15.2S191.5,36.8,181.7,36.6z"/>
	<path d="M181.7,36.6v-0.5c-2.2,0-4.7-1.1-7.4-2.8c-4-2.5-8.4-6.3-12.8-9.4c-4.4-3.1-8.9-5.7-13.1-5.7c-0.1,0-0.2,0-0.3,0
		c-5.6,0.2-11.5,2.8-16.8,5.3c-2.6,1.3-5.1,2.5-7.3,3.5c-2.2,0.9-4,1.5-5.3,1.5c-2.8,0-4.9-0.6-6.3-1.2c-0.7-0.3-1.2-0.6-1.5-0.8
		c-0.2-0.1-0.3-0.2-0.4-0.3l-0.1-0.1l0,0l0,0l-1-0.9l0.1,1.3c0,0,0.2,1.9,1.3,3.8c0.5,1,1.3,1.9,2.4,2.7c1.1,0.7,2.6,1.2,4.4,1.2
		c1.9,0,4.1-0.7,6.4-1.6c3.5-1.4,7.3-3.6,11.4-5.3c4-1.8,8.2-3.2,12.3-3.2c0.1,0,0.2,0,0.3,0l0,0c3.8,0.1,6.9,1.2,9.7,2.8
		c4.2,2.5,7.5,6.1,11.1,9.2c3.6,3.1,7.5,5.6,12.7,5.6c0.1,0,0.2,0,0.4,0c6.9-0.2,13-4,17.5-7.8c4.4-3.8,7.2-7.6,7.2-7.6l1.9-2.5
		l-2.6,1.8c0,0-0.2,0.2-0.6,0.4c-1.4,1-5.2,3.5-9.6,5.7c-4.4,2.2-9.6,4.2-13.7,4.2h-0.3V36.6v0.5c0.1,0,0.2,0,0.3,0
		c5.1,0,11.2-2.6,16-5.3c4.9-2.6,8.5-5.2,8.5-5.2l-0.3-0.4l-0.4-0.3c0,0,0,0.1-0.1,0.2c-0.6,0.8-3.5,4.5-7.8,7.9
		c-4.3,3.5-9.9,6.8-16,6.9c-0.1,0-0.2,0-0.3,0c-3.2,0-5.9-1-8.5-2.6c-3.8-2.4-7-6.1-10.9-9.2c-3.8-3.1-8.2-5.7-14.2-5.8l0,0
		c-0.1,0-0.2,0-0.3,0c-5.7,0-11.4,2.6-16.7,5.1c-2.6,1.3-5.1,2.5-7.3,3.5c-2.3,0.9-4.3,1.5-6,1.5c-1.6,0-2.9-0.4-3.8-1.1
		c-1.4-0.9-2.3-2.4-2.7-3.6c-0.2-0.6-0.4-1.2-0.5-1.6c0-0.2-0.1-0.4-0.1-0.5v-0.1l0,0h-0.5l-0.3,0.4c0.1,0.1,3,2.6,8.9,2.6
		c1.6,0,3.5-0.7,5.7-1.6c3.3-1.4,7.2-3.6,11.3-5.3c4.1-1.8,8.4-3.2,12.4-3.3h0.3c2.6,0,5.4,1.1,8.2,2.7c4.3,2.5,8.8,6.2,13,9.4
		c4.3,3.1,8.3,5.8,12.1,5.9V36.6z"/>
</g>
</svg>
