<?xml version="1.0" encoding="utf-8"?>
<!-- Generator: Adobe Illustrator 16.0.0, SVG Export Plug-In . SVG Version: 6.00 Build 0)  -->
<!DOCTYPE svg PUBLIC "-//W3C//DTD SVG 1.1//EN" "http://www.w3.org/Graphics/SVG/1.1/DTD/svg11.dtd">
<svg version="1.1" id="Layer_1" xmlns="http://www.w3.org/2000/svg" xmlns:xlink="http://www.w3.org/1999/xlink" x="0px" y="0px"
	 width="118.2px" height="122.2px" viewBox="110.3 -73.1 118.2 122.2" style="enable-background:new 110.3 -73.1 118.2 122.2;"
	 xml:space="preserve">
<style type="text/css">
<![CDATA[
	.st0{fill:#FF00FF;}
	.st1{fill:#333333;}
]]>
</style>
<g>
	<path class="st1" d="M227.9,49.1l-49-19l14.9-12.4c-18.2-29.7-27.3-57-10.6-90.8c-0.3,30.1,9.3,52,30.4,74.3l14.9-12.4L227.9,49.1z
		"/>
	<path class="st0" d="M227.9,49.1l0.2-0.5l-48.2-18.7l14.6-12.1l-0.2-0.4C182.7-1.3,174.9-19.1,174.9-38c0-11,2.6-22.5,8.7-34.8
		l-0.4-0.2l-0.5,0c0,0.5,0,0.9,0,1.4c0,29.5,9.7,51.3,30.5,73.3l0.3,0.3l14.4-12l-0.6,59.2L227.9,49.1l0.2-0.5L227.9,49.1l0.5,0
		l0.6-61.4L213.3,0.8l0.3,0.4l0.4-0.3c-20.7-21.9-30.3-43.3-30.3-72.6c0-0.4,0-0.9,0-1.4l0-2.2l-1,2c-6.2,12.5-8.8,24.1-8.8,35.3
		c0,19.3,7.9,37.2,19.5,56l0.4-0.3l-0.3-0.4l-15.6,12.9l50.5,19.6l0-0.7L227.9,49.1z"/>
	<path class="st1" d="M110.3-11.2l14.9,12.4c21.1-22.3,30.7-44.2,30.4-74.3c16.7,33.9,7.6,61.1-10.6,90.8l14.9,12.4l-49,19
		L110.3-11.2z"/>
	<path class="st0" d="M110.3-11.2l-0.3,0.4l15.3,12.7l0.3-0.3c20.8-22,30.6-43.8,30.5-73.3c0-0.5,0-0.9,0-1.4l-0.5,0l-0.4,0.2
		c6.1,12.4,8.7,23.9,8.7,34.9c0,19-7.8,36.7-19.3,55.4l-0.2,0.4l14.6,12.1l-47.5,18.4l-0.6-59.6L110.3-11.2l-0.3,0.4L110.3-11.2
		l-0.5,0l0.6,61l50.5-19.6l-15.6-12.9l-0.3,0.4l0.4,0.3c11.5-18.8,19.5-36.7,19.5-56c0-11.2-2.7-22.8-8.8-35.3l-1-2l0,2.2
		c0,0.5,0,0.9,0,1.4c0,29.3-9.6,50.7-30.3,72.6l0.4,0.3l0.3-0.4l-15.7-13.1l0,1.1L110.3-11.2z"/>
</g>
</svg>
