<?xml version="1.0" encoding="utf-8"?>
<!-- Generator: Adobe Illustrator 16.0.0, SVG Export Plug-In . SVG Version: 6.00 Build 0)  -->
<!DOCTYPE svg PUBLIC "-//W3C//DTD SVG 1.1//EN" "http://www.w3.org/Graphics/SVG/1.1/DTD/svg11.dtd">
<svg version="1.1" id="Layer_1" xmlns="http://www.w3.org/2000/svg" xmlns:xlink="http://www.w3.org/1999/xlink" x="0px" y="0px"
	 width="119.2px" height="125.1px" viewBox="109.8 -75.3 119.2 125.1" style="enable-background:new 109.8 -75.3 119.2 125.1;"
	 xml:space="preserve">
<g>
	<path d="M227.9,49.1l-49-19l14.9-12.4c-18.2-29.7-27.3-57-10.6-90.8c-0.3,30.1,9.3,52,30.4,74.3l14.9-12.4L227.9,49.1z"/>
	<path d="M227.9,49.1l0.2-0.5l-48.2-18.7l14.6-12.1l-0.2-0.4C182.7-1.3,174.9-19.1,174.9-38c0-11,2.6-22.5,8.7-34.8l-0.4-0.2h-0.5
		c0,0.5,0,0.9,0,1.4c0,29.5,9.7,51.3,30.5,73.3l0.3,0.3l14.4-12l-0.6,59.2L227.9,49.1l0.2-0.5L227.9,49.1h0.5l0.6-61.4L213.3,0.8
		l0.3,0.4l0.4-0.3c-20.7-21.9-30.3-43.3-30.3-72.6c0-0.4,0-0.9,0-1.4v-2.2l-1,2c-6.2,12.5-8.8,24.1-8.8,35.3
		c0,19.3,7.9,37.2,19.5,56l0.4-0.3l-0.3-0.4l-15.6,12.9l50.5,19.6v-0.7H227.9z"/>
	<path d="M110.3-11.2l14.9,12.4c21.1-22.3,30.7-44.2,30.4-74.3c16.7,33.9,7.6,61.1-10.6,90.8l14.9,12.4l-49,19L110.3-11.2z"/>
	<path d="M110.3-11.2l-0.3,0.4l15.3,12.7l0.3-0.3c20.8-22,30.6-43.8,30.5-73.3c0-0.5,0-0.9,0-1.4h-0.5l-0.4,0.2
		c6.1,12.4,8.7,23.9,8.7,34.9c0,19-7.8,36.7-19.3,55.4l-0.2,0.4L159,29.9l-47.5,18.4l-0.6-59.6L110.3-11.2l-0.3,0.4L110.3-11.2h-0.5
		l0.6,61l50.5-19.6l-15.6-12.9l-0.3,0.4l0.4,0.3c11.5-18.8,19.5-36.7,19.5-56c0-11.2-2.7-22.8-8.8-35.3l-1-2v2.2c0,0.5,0,0.9,0,1.4
		c0,29.3-9.6,50.7-30.3,72.6l0.4,0.3l0.3-0.4l-15.7-13.1v1.1H110.3z"/>
</g>
</svg>
