<?xml version="1.0" encoding="utf-8"?>
<!-- Generator: Adobe Illustrator 16.0.0, SVG Export Plug-In . SVG Version: 6.00 Build 0)  -->
<!DOCTYPE svg PUBLIC "-//W3C//DTD SVG 1.1//EN" "http://www.w3.org/Graphics/SVG/1.1/DTD/svg11.dtd">
<svg version="1.1" id="Layer_1" xmlns="http://www.w3.org/2000/svg" xmlns:xlink="http://www.w3.org/1999/xlink" x="0px" y="0px"
	 width="118.8px" height="75.1px" viewBox="107.4 -46.4 118.8 75.1" style="enable-background:new 107.4 -46.4 118.8 75.1;"
	 xml:space="preserve">
<g>
	<path d="M108.2-8.9L152-45.4v21.9c29.2,7.3,51.1,3.7,73.1-14.6C210.5-1.6,184.9,5.7,152,5.7v21.9L108.2-8.9z"/>
	<path d="M108.2-8.9l0.3,0.4l43-35.8v21.2l0.4,0.1c9.3,2.3,17.9,3.6,25.9,3.6c17.4,0,32.5-5.7,47.6-18.3l-0.3-0.4l-0.5-0.2
		c-7.3,18.2-17.2,29-29.5,35.3C183,3.4,168.4,5.2,152,5.2h-0.5v21.3l-43-35.8L108.2-8.9l0.3,0.4L108.2-8.9l-0.3,0.4l44.6,37.2v-23
		H152v0.5c16.5,0,31.2-1.8,43.6-8.3c12.5-6.4,22.6-17.5,29.9-35.8l0.7-1.8l-1.5,1.3c-15,12.4-29.8,18-47,18c-8,0-16.5-1.2-25.7-3.5
		l-0.1,0.5h0.5v-23l-45,37.5l0.5,0.4L108.2-8.9z"/>
</g>
</svg>
