<?xml version="1.0" encoding="utf-8"?>
<!-- Generator: Adobe Illustrator 16.0.0, SVG Export Plug-In . SVG Version: 6.00 Build 0)  -->
<!DOCTYPE svg PUBLIC "-//W3C//DTD SVG 1.1//EN" "http://www.w3.org/Graphics/SVG/1.1/DTD/svg11.dtd">
<svg version="1.1" id="Layer_1" xmlns="http://www.w3.org/2000/svg" xmlns:xlink="http://www.w3.org/1999/xlink" x="0px" y="0px"
	 width="71.5px" height="59px" viewBox="102.9 -68.4 71.5 59" enable-background="new 102.9 -68.4 71.5 59" xml:space="preserve">
<g>
	<path fill="#333333" d="M173.4-66.1c2.1,1.9,1.1,5.3-3.9,7.8l-51.4,25c-2.2,1.1-4.8,0.8-6.8-0.7l-7.8-6c-0.6-0.5-0.8-1.4-0.2-2
		l2-2.6c0.5-0.6,1.3-0.9,2.1-0.6l8.8,2.9l16.9-9.8l-16.9-8.4c-0.3-0.2-0.6-0.4-0.6-0.8c0-0.4,0-0.8,0.2-1l2.6-3.4
		c0.4-0.6,1.1-0.8,1.8-0.7l29.2,4.5c0,0,7.8-3.5,11.8-5.4C166.2-69.5,171.1-68.2,173.4-66.1z M154.7-43.8c-9.5,0-17.2,7.7-17.2,17.2
		s7.8,17.2,17.2,17.2c9.4,0,17.2-7.7,17.2-17.2S164.2-43.8,154.7-43.8z M149.2-15.1l0.1,0.3c-4.5-2-7.6-6.6-7.6-11.8
		c0-1.3,0.2-2.5,0.6-3.7l1.1,2.6l2.2,2.5l1.5,0.6l0.5,1l-0.1,2.9l2.1,1.9l-0.8,0.9L149.2-15.1z M160.9-33.4l0.3,1.5l-2.6,1.7
		l-0.3,2.9l1.3,1.1l0.2,2.1l1.4,1.4l0.7,2.8l-1.9,1.8l1.4,2.3c-2,1.3-4.4,2.1-7,2.1c-0.9,0-1.8-0.1-2.6-0.2l1.4-1.1l-0.1-1.1L155-17
		l0.5-1.6l0.8-1l-0.3-0.9l-2-0.9l-1.5-2.4l-3.7-1.1l-0.2-1.2l-1.9-1.4l0.2-1.2l1.6-0.2l0.8,0.8l0.9-0.6l-0.4-0.8l3-2.2v-1.1l1.7-1.5
		l-1.6-2.1l1.3-1.8l-0.3-1.1c0.2,0,0.4,0,0.6,0c3.2,0,6.2,1.2,8.4,3.2l-1.2,0.8l-1.4-0.2l-0.3,1.6L160.9-33.4z"/>
</g>
</svg>
