<?xml version="1.0" encoding="utf-8"?>
<!-- Generator: Adobe Illustrator 16.0.0, SVG Export Plug-In . SVG Version: 6.00 Build 0)  -->
<!DOCTYPE svg PUBLIC "-//W3C//DTD SVG 1.1//EN" "http://www.w3.org/Graphics/SVG/1.1/DTD/svg11.dtd">
<svg version="1.1" id="Layer_1" xmlns="http://www.w3.org/2000/svg" xmlns:xlink="http://www.w3.org/1999/xlink" x="0px" y="0px"
	 width="382.2px" height="399.6px" viewBox="205.7 107.5 382.2 399.6" style="enable-background:new 205.7 107.5 382.2 399.6;"
	 xml:space="preserve">
<g>
	<path d="M262.5,125.8c11.1,0,21,4.6,28.3,11.9c7.3,7.3,11.9,17.2,11.9,28.3s-4.6,21-11.9,28.3c-7.3,7.3-17.2,11.9-28.3,11.9
		c-11.1,0-21-4.6-28.3-11.9c-7.3-7.3-11.9-17.2-11.9-28.3s4.6-21,11.9-28.3C241.5,130.4,251.4,125.8,262.5,125.8z M279.3,149.2
		c-4.2-4.2-10.3-6.9-16.8-6.9s-12.6,2.7-16.8,6.9c-4.2,4.2-6.9,10.3-6.9,16.8s2.7,12.6,6.9,16.8c4.2,4.2,10.3,6.9,16.8,6.9
		s12.6-2.7,16.8-6.9c4.2-4.2,6.9-10.3,6.9-16.8S283.5,153.4,279.3,149.2z"/>
	<path d="M514.2,302.6c13.8,0,26,5.7,35.2,14.5c9.2,9.2,14.5,21.4,14.5,35.2c0,13.8-5.7,26-14.5,35.2c-8.8,9.2-21.4,14.5-35.2,14.5
		s-26-5.7-35.2-14.5c-9.2-9.2-14.5-21.4-14.5-35.2c0-13.8,5.7-26,14.5-35.2C487.8,307.9,500.8,302.6,514.2,302.6z M537.9,329
		c-6.1-6.1-14.5-9.9-23.7-9.9s-17.6,3.8-23.7,9.9s-9.9,14.5-9.9,23.7c0,9.2,3.8,17.6,9.9,23.7c6.1,6.1,14.5,9.9,23.7,9.9
		s17.6-3.8,23.7-9.9c6.1-6.1,9.9-14.5,9.9-23.7C547.9,343.1,544,334.7,537.9,329z"/>
	<path d="M216.6,129.3c5.4-6.5,11.9-11.9,19.5-15.7c7.3-3.8,15.7-5.7,24.5-6.1c0.8,0,1.9,0,2.7,0c1.1,0,1.9,0,2.7,0
		c8.8,0.4,16.8,2.3,24.5,6.1c7.6,3.8,14.2,9.2,19.5,15.7c13.4,16.8,13,43.2,5.7,69.6c-9.2,33.3-29.5,68.1-45.5,84.5
		c-1.1,1.1-2.3,2.3-3.8,2.7c-1.1,0.4-2.7,0.8-3.8,0.4c-1.1,0-2.7-0.4-3.4-0.8c-0.8-0.4-1.1-0.8-1.9-1.1c-0.4-0.4-0.8-0.8-1.1-1.1
		c-16.1-16.4-36.3-51.3-45.5-84.5C203.6,172.1,202.8,146.1,216.6,129.3z M243.4,127.8c-5.4,2.7-10.3,6.9-14.2,11.5
		c-9.9,12.2-8.8,33.3-2.7,55.1c7.7,27.5,23.3,56.2,37.1,72.3c13.8-16.4,29.5-44.8,37.1-72.3c6.1-22.2,6.9-42.8-2.7-55.1
		c-3.8-5-8.8-8.8-14.2-11.5c-5.4-2.7-11.1-4.2-17.6-4.6c-0.8,0-1.5,0-2.3,0c-0.8,0-1.5,0-2.3,0C254.9,123.5,248.7,125.1,243.4,127.8
		z M264,277.3L264,277.3z M264,277.3L264,277.3l5.7-1.9L264,277.3z"/>
	<path d="M456.4,306.4c6.5-8.4,14.9-15.3,24.9-19.9c9.2-4.6,19.9-7.3,30.6-7.7c1.1,0,2.3,0,3.8,0c1.1,0,2.7,0,3.4,0
		c11.1,0.4,21.4,3.1,30.6,7.7c9.6,5,18,11.5,24.5,19.9c17.2,21.4,16.4,54.3,7.3,88.4c-11.9,42.8-37.9,87.6-58.5,108.6
		c-1.1,1.5-2.7,2.3-4.2,3.1c-1.1,0.4-2.7,0.8-3.8,0.4c-1.1,0-2.7-0.4-3.8-1.1c-0.8-0.4-1.1-0.8-1.5-1.1c-0.8-0.4-1.1-1.1-1.5-1.5
		c-21-21-46.7-65.8-58.5-108.6C440,360.7,439.6,327.4,456.4,306.4z M488.6,300.6c-7.7,3.8-14.2,9.2-19.5,15.7
		c-13.4,16.4-12.2,44.8-4.2,73.8c10.3,37.5,31.7,76.1,50.5,97.2c18.4-21,40.2-59.7,50.5-97.2c8-29.5,9.2-57.4-4.2-73.8
		c-5.4-6.5-11.9-11.9-19.1-15.7c-7.3-3.4-15.3-5.7-23.7-6.1c-1.1,0-2.3,0-3.1,0c-1.1,0-1.9,0-3.1,0
		C503.9,294.9,495.8,297.2,488.6,300.6z M516.1,497.2L516.1,497.2h-0.4H516.1z M516.1,497.2L516.1,497.2l5.4-1.9L516.1,497.2z"/>
	<path d="M264,270.4c-4.6,0-8,3.8-8,8.4s3.8,8,8.4,8c6.9,0,14.9-0.8,23.7-1.9c27.5-2.7,63.1-6.1,67.3,6.9
		c3.1,9.2-18.7,17.6-37.9,24.5c-19.9,7.3-37.9,14.2-37.1,27.9c1.1,15.3,25.2,16.1,53.6,16.8c27.5,0.8,60.1,1.5,71.1,12.6
		c3.4,3.4,3.1,6.1,0.8,8.4c-5.4,5.4-16.1,10.7-28.3,16.4c-28.3,13.8-61.6,29.8-55.5,61.2c2.7,15.3,27.9,25.2,65,31.7
		c34.4,6.1,79.6,10.7,126.2,14.5c4.6,0.4,8.4-3.1,8.8-7.6c0.4-4.6-3.1-8.4-7.6-8.8c-46.3-3.8-91-8-124.7-14.2
		c-30.6-5.7-50.9-11.9-52-18.7c-3.4-19.1,23.3-32.1,46.7-43.6c13.4-6.5,25.6-12.2,32.5-19.5c9.6-9.6,11.1-19.5-0.8-31.4
		c-15.7-15.7-51.6-16.8-82.2-17.6c-20.7-0.8-37.9-1.1-37.9-1.5c0-1.5,12.6-6.1,26.4-11.5c26-9.9,55.8-21,47.8-45.1
		c-8.4-25.2-50.9-21.4-84.2-18C277.8,269.3,270.2,270,264,270.4z"/>
</g>
</svg>
