<?xml version="1.0" encoding="utf-8"?>
<!-- Generator: Adobe Illustrator 16.0.0, SVG Export Plug-In . SVG Version: 6.00 Build 0)  -->
<!DOCTYPE svg PUBLIC "-//W3C//DTD SVG 1.1//EN" "http://www.w3.org/Graphics/SVG/1.1/DTD/svg11.dtd">
<svg version="1.1" id="Layer_1" xmlns="http://www.w3.org/2000/svg" xmlns:xlink="http://www.w3.org/1999/xlink" x="0px" y="0px"
	 width="120.4px" height="115.5px" viewBox="63.8 -17.6 120.4 115.5" style="enable-background:new 63.8 -17.6 120.4 115.5;"
	 xml:space="preserve">
<g>
	<path d="M143.2,96.5c0,0.1,0.1,0.2,0.1,0.3C143.2,96.7,143.2,96.6,143.2,96.5z"/>
	<path d="M143.2,96.5h-0.5c0,0.2,0.1,0.3,0.1,0.4l0.1-0.1h-0.1l0.1-0.1h-0.1l0.3-0.1h-0.3v0.1l0.3-0.1h-0.3h0.5l0.4-0.4l-0.1,0.1
		h0.2v-0.1l-0.1,0.1h0.2h-0.1h0.1h-0.1h0.1h-1h0.3h-0.5c0,0,0,0.1,0,0.3c0,0.1,0.1,0.3,0.2,0.4l0.9,0.9v-1.2c0-0.2-0.1-0.3-0.1-0.4
		l-0.3,0.1h0.3v-0.1l-0.3,0.1h0.3h-1L143.2,96.5L143.2,96.5z"/>
	<path d="M64.5,56.6C68,66.2,75.6,75.7,87.4,85c25.6,3.1,51,1.9,76.2-3.5c11.7-10.3,18.4-20.5,20-30.3
		C144.2,57.8,104.5,59.6,64.5,56.6z"/>
	<path d="M64.5,56.6L64,56.8c3.5,9.7,11.2,19.3,23.1,28.6l0.1,0.1h0.1c9.3,1.1,18.5,1.7,27.8,1.7c16.3,0,32.5-1.7,48.6-5.2h0.1
		l0.1-0.1c11.7-10.3,18.5-20.6,20.2-30.6l0.1-0.7l-0.7,0.1c-27.1,4.5-54.3,6.8-81.7,6.8c-12.4,0-24.8-0.5-37.3-1.4L63.8,56l0.3,0.7
		L64.5,56.6v0.5c12.5,0.9,24.9,1.4,37.4,1.4c27.4,0,54.7-2.3,81.8-6.8l-0.1-0.5l-0.5-0.1c-1.6,9.6-8.2,19.8-19.8,30l0.3,0.4
		l-0.1-0.5c-16,3.4-32.2,5.2-48.4,5.2c-9.2,0-18.4-0.6-27.7-1.7V85l0.3-0.4C76,75.3,68.4,65.9,65,56.4L64.5,56.6v0.5V56.6z"/>
	<path d="M108.3-17c-2.7,0.6-26,73.2-26,73.2s24.3-23,39.4-10.1C136.1,58.5,111-17.6,108.3-17z"/>
	<path d="M108.3-17l-0.1-0.5c-0.2,0-0.3,0.1-0.4,0.2c-0.2,0.1-0.3,0.3-0.5,0.6c-0.6,0.9-1.4,2.7-2.4,5.1C98,5.5,81.8,56,81.8,56
		l-0.6,1.9l1.4-1.3c0,0,0.1-0.1,0.2-0.2c0.8-0.8,4.7-4.2,9.9-7.5c5.2-3.3,11.8-6.3,18.1-6.3c3.7,0,7.4,1.1,10.6,3.8
		c1.1,1,2,1.5,2.9,1.5c0.4,0,0.8-0.1,1.1-0.4c0.5-0.4,0.7-1,0.9-1.7c0.2-0.7,0.3-1.6,0.3-2.7c0-3.7-1-9.3-2.5-15.6
		c-2.2-9.5-5.7-20.7-8.7-29.5c-1.5-4.4-3-8.2-4.2-11c-0.6-1.4-1.1-2.5-1.5-3.2c-0.2-0.4-0.4-0.7-0.6-0.9c-0.1-0.1-0.2-0.2-0.3-0.3
		s-0.3-0.2-0.5-0.2h-0.1L108.3-17l0.1,0.5l-0.1-0.3v0.4h0.1l-0.1-0.3v0.4v-0.3l-0.1,0.2h0.1v-0.3l-0.1,0.2c0,0,0.2,0.2,0.5,0.6
		c0.9,1.5,2.5,5.2,4.2,10c2.7,7.2,5.8,17,8.3,26.3c2.5,9.2,4.4,17.9,4.3,22.8c0,1.3-0.1,2.3-0.4,3c-0.1,0.3-0.3,0.5-0.4,0.6
		c-0.1,0.1-0.3,0.2-0.5,0.2c-0.4,0-1.2-0.3-2.3-1.2c-3.4-2.9-7.3-4.1-11.2-4c-7,0-14.2,3.6-19.7,7.1S81.8,56,81.8,56l0.3,0.4
		l0.5,0.2c0,0,0.4-1.1,1-3.1c2.2-7,7.9-24.3,13.3-40c2.7-7.9,5.3-15.3,7.4-20.8c1-2.7,2-5,2.7-6.6c0.4-0.8,0.7-1.4,0.9-1.8
		c0.1-0.2,0.2-0.4,0.3-0.4l0.1-0.1l-0.1-0.2v0.2h0.1l-0.1-0.2v0.2L108.3-17z"/>
	<path d="M124-9c-3.7,0.4,6.2,63.1,6.2,63.1s29.6-16.8,41.2-11C183.1,48.9,127.8-9.4,124-9z"/>
	<path d="M124-9l-0.1-0.5c-0.2,0-0.4,0.1-0.5,0.2c-0.2,0.2-0.3,0.4-0.4,0.7c-0.3,0.8-0.4,2.1-0.4,3.9c0,7.2,1.8,21.9,3.5,34.8
		c1.8,12.9,3.5,24,3.5,24l0.1,0.7l0.6-0.4c0,0,0.3-0.2,0.9-0.5c2.1-1.2,7.7-4.1,14.2-6.7c6.5-2.6,13.9-4.9,19.7-4.9
		c2.3,0,4.3,0.4,5.9,1.2c0.6,0.3,1,0.5,1.4,0.5c0.2,0,0.5-0.1,0.7-0.2c0.2-0.2,0.2-0.4,0.2-0.6c0-0.5-0.2-1-0.6-1.6
		c-0.7-1.2-1.8-2.9-3.4-4.9C164,29.6,153.5,18.1,144,8.3c-4.8-4.9-9.3-9.3-12.8-12.5c-1.8-1.6-3.3-2.9-4.5-3.8
		c-0.6-0.5-1.1-0.8-1.5-1.1c-0.2-0.1-0.4-0.2-0.6-0.3s-0.4-0.1-0.6-0.1h-0.1L124-9l0.1,0.5v-0.1v0.1v-0.1v0.1c0.1,0,0.5,0.2,1.1,0.6
		c2.1,1.4,6.1,5,10.9,9.8c7.3,7.1,16.4,16.7,23.7,24.9c3.7,4.1,6.9,7.9,9.1,10.8c1.1,1.5,2,2.7,2.7,3.7c0.3,0.5,0.5,0.9,0.7,1.2
		s0.2,0.6,0.2,0.7h0.1h-0.1h0.1h-0.1l0.2,0.1l-0.1-0.2l-0.1,0.1l0.2,0.1l-0.1-0.2v0.1v-0.1v0.1v-0.1c-0.1,0-0.5-0.1-1-0.4
		c-1.8-0.9-4-1.3-6.4-1.3c-6.9,0-15.7,3.1-22.8,6.1c-7.1,3.1-12.5,6.1-12.5,6.1l0.2,0.4l0.5-0.1c0,0-0.1-0.7-0.3-1.9
		c-0.7-4.4-2.4-15.4-3.9-27c-1.5-11.5-2.9-23.6-2.9-29.8c0-1.3,0.1-2.4,0.2-3.1c0.1-0.3,0.1-0.6,0.2-0.7l0.1-0.1v0.1v0.1h0.1
		L124-8.6v0.1V-9z"/>
</g>
</svg>
