<?xml version="1.0" encoding="utf-8"?>
<!-- Generator: Adobe Illustrator 16.0.0, SVG Export Plug-In . SVG Version: 6.00 Build 0)  -->
<!DOCTYPE svg PUBLIC "-//W3C//DTD SVG 1.1//EN" "http://www.w3.org/Graphics/SVG/1.1/DTD/svg11.dtd">
<svg version="1.1" id="Layer_1" xmlns="http://www.w3.org/2000/svg" xmlns:xlink="http://www.w3.org/1999/xlink" x="0px" y="0px"
	 width="121.2px" height="67.7px" viewBox="55.2 3.3 121.2 67.7" style="enable-background:new 55.2 3.3 121.2 67.7;"
	 xml:space="preserve">
<g>
	<path d="M96.7,66.7L96.7,66.7z M83.3,70.3L83.3,70.3z M117.5,29.4c3.2-3.2,8-8,19.3-3.2l25.5-4.3c0.2-2,1.3-5.8,5.6-5.8
		c4.8,0,5.6,3.3,5.8,4.3l2.1,4.3c0.2,0.5,0.2,1.1-0.2,1.4c-3.5,3.5-9.1,4.5-15.4,5.7c-7.8,1.4-16.7,3.1-23.1,10l34.8-0.6
		c0.7,0,1.3,0.6,1.3,1.3c0,0.1,0,0.2-0.1,0.3c-0.7,2.6-2.1,4.5-4.3,5.8c-2,1.3-4.4,2.1-7.3,2.7c-4.1,0.8-9,0.9-14.1,1.1
		c-3.5,0.2-7,0.2-10.6,0.6c1.5,1.6,3.2,2.8,5,3.8c2.5,1.3,5.4,2.3,8.4,2.9c0.7,0.2,1.1,0.8,1,1.5c-0.1,0.5-0.4,0.8-0.9,0.9
		l-12.8,4.6c-0.2,0.1-0.6,0.1-0.8,0l-0.6-0.2c-4.7-1.2-6.8-1.7-8.1-3.2c-1.1-1.2-1.4-2.7-2-5.3c-0.2-0.9-0.4-1.8-0.7-2.9
		c-3.9,1.5-12,3.1-19.5,3.2c-5.7,0-11.2-0.8-14.7-3.2l-4.3,2c0.9,1.5,2,2.8,3.4,3.9c1.8,1.3,4,2.4,6.5,3.3c0.6,0.2,1,0.9,0.8,1.6
		c-0.2,0.4-0.5,0.7-0.9,0.8l-12.5,3.7c-0.3,0.1-0.6,0.1-0.9-0.1c-3.9-2.1-6.4-4.4-7.2-7.5c-0.7-2.5-0.2-5.4,1.3-9.1
		c-3.7,0.6-6.9,0.6-9.6-0.2c-3.5-0.9-6.3-2.8-8.7-5.8c-1.9-2.4-2.8-4.7-3.2-7.2c-0.4-3.4,0.6-6.8,2.7-10c2-3.2,4.9-6.1,8.4-9
		c11.5-9.1,29.8-16.2,42.6-17.8c0.7-0.1,1.3,0.4,1.4,1.1c0.1,0.7-0.4,1.3-1.1,1.4c-5.3,1-18.8,8.1-29.3,15.7
		c-7.6,5.5-13.6,11.2-13.3,14.7c0,0.1,0,0.2,0,0.2c0.1,0.3,0.3,0.6,0.7,0.8c0.6,0.3,1.5,0.4,2.8,0.3c0.8-0.1,1.6-0.2,2.6-0.4
		c1.4-0.8,11.7-6.1,22.8-5.2c6.5,0.6,10.1-0.3,12.8-0.9c2.3-0.6,4-0.9,6.1-0.5c0.5,0.1,1.3-0.7,2.3-1.7L117.5,29.4z M127.1,33
		c1.4,0,2.5,1.1,2.5,2.5c0,1.4-1.1,2.5-2.5,2.5s-2.5-1.1-2.5-2.5C124.6,34.1,125.7,33,127.1,33z"/>
	<path d="M117.5,29.4l0.4,0.4c1.1-1.1,2.4-2.4,4-3.4s3.7-1.7,6.3-1.7c2.3,0,5.1,0.6,8.4,2l0.1,0.1l26-4.4V22
		c0.1-0.9,0.4-2.3,1.2-3.4s1.9-1.9,3.9-1.9c2.3,0,3.5,0.8,4.2,1.6c0.7,0.8,1,1.8,1.1,2.3v0.1l2.1,4.4l0.4-0.2l-0.5,0.2
		c0.1,0.2,0.1,0.3,0.1,0.5c0,0.2-0.1,0.3-0.1,0.4c-1.7,1.7-3.9,2.8-6.4,3.6c-2.6,0.8-5.5,1.4-8.7,2l0.1,0.5l-0.1-0.5
		c-7.8,1.4-16.8,3.1-23.4,10.2l-0.8,0.9l36-0.6v-0.5v0.5c0.2,0,0.4,0.1,0.6,0.2c0.2,0.2,0.2,0.4,0.2,0.6h0.1h-0.1h0.1h-0.1h0.2
		l-0.1-0.1v0.1h0.2l-0.1-0.1l-0.1,0.1V43c-0.7,2.5-2,4.3-4.1,5.5c-1.9,1.3-4.3,2-7.1,2.6l0.1,0.5l-0.1-0.5c-4,0.8-8.9,0.9-14,1.1
		c-3.5,0.2-7,0.2-10.6,0.6l-1,0.1l0.7,0.7c1.5,1.6,3.3,2.9,5.1,3.9c2.5,1.3,5.5,2.3,8.5,2.9l0.1-0.5l-0.1,0.5
		c0.4,0.1,0.6,0.4,0.7,0.8v0.1l0.5,0.1l-0.5-0.1c0,0.2-0.1,0.3-0.2,0.3c-0.1,0.1-0.2,0.1-0.3,0.2l-12.9,4.6h-0.2h-0.1l-0.6-0.2
		c-2.4-0.6-4-1-5.3-1.5c-1.2-0.5-2-0.9-2.6-1.6c-0.5-0.5-0.8-1.1-1.1-1.9c-0.3-0.8-0.5-1.8-0.8-3.1c-0.2-0.9-0.4-1.8-0.7-2.9
		l-0.1-0.5l-0.5,0.2c-3.8,1.5-11.9,3.1-19.3,3.2v0.5v-0.5c-5.7,0-11.1-0.8-14.4-3.1l-0.2-0.2l-5.1,2.4l0.3,0.5
		c0.9,1.5,2.1,2.9,3.5,4c1.8,1.3,4.1,2.5,6.6,3.4c0.3,0.1,0.5,0.4,0.5,0.8v0.2l0.5,0.1L97.5,66c-0.2,0.3-0.4,0.5-0.6,0.5l-12.5,3.7
		h-0.2c-0.1,0-0.1,0-0.2-0.1c-1.9-1-3.5-2.1-4.6-3.3c-1.2-1.2-1.9-2.4-2.3-3.9c-0.2-0.7-0.3-1.4-0.3-2.2c0-1.8,0.5-4,1.6-6.5
		l0.3-0.8l-0.9,0.1c-1.7,0.3-3.3,0.4-4.7,0.4c-1.7,0-3.2-0.2-4.6-0.6c-3.4-0.9-6.1-2.7-8.4-5.6c-1.8-2.3-2.7-4.5-3.1-7l-0.5,0.1
		l0.5-0.1c-0.1-0.5-0.1-0.9-0.1-1.4c0-2.8,1-5.6,2.7-8.2c2-3.1,4.8-6,8.3-8.9l-0.3-0.4l0.3,0.4c11.4-9,29.7-16.1,42.4-17.7h0.1
		c0.4,0,0.7,0.3,0.7,0.7v0.1c0,0.4-0.3,0.7-0.7,0.7c-2.8,0.5-7.5,2.6-12.8,5.4c-5.4,2.9-11.4,6.5-16.7,10.4c-3.7,2.7-7.1,5.4-9.5,8
		c-1.2,1.3-2.2,2.5-2.9,3.6c-0.7,1.1-1.1,2.2-1.1,3.2c0,0.1,0,0.2,0,0.3h0.5h-0.5c0,0.1,0,0.2,0,0.2v0.1v0.1c0.1,0.4,0.4,0.8,1,1.1
		c0.6,0.3,1.2,0.4,2.1,0.4c0.3,0,0.6,0,0.9,0c0.8-0.1,1.6-0.2,2.6-0.4h0.1h0.1c1.2-0.7,10.1-5.2,20-5.2c0.8,0,1.7,0,2.5,0.1v-0.5
		v0.5c1.5,0.1,2.9,0.2,4.1,0.2c4.1,0,6.8-0.7,8.8-1.1c1.6-0.4,2.8-0.7,4.1-0.7c0.6,0,1.2,0.1,1.8,0.2h0.2c0.3,0,0.5-0.1,0.7-0.2
		c0.6-0.3,1.2-1,1.9-1.7l-0.4-0.4l-0.4,0.4l0.2,0.2l0.4,0.4l0.4-0.4L117.5,29.4l0.4-0.4l-0.2-0.2l-0.4-0.4l-0.4,0.4
		c-0.5,0.5-0.9,0.9-1.2,1.2c-0.2,0.1-0.3,0.2-0.4,0.3c-0.1,0.1-0.2,0.1-0.2,0.1v0.1v0.1c-0.7-0.1-1.3-0.2-2-0.2
		c-1.4,0-2.7,0.3-4.3,0.7l0.1,0.5l-0.1-0.5c-2.1,0.5-4.6,1.1-8.6,1.1c-1.2,0-2.5-0.1-4-0.2c-0.9-0.1-1.7-0.1-2.6-0.1
		c-10.2,0-19.1,4.6-20.5,5.4l0.2,0.4L73.2,37c-1,0.2-1.8,0.3-2.6,0.4l0.1,0.5v-0.5c-0.3,0-0.6,0-0.9,0c-0.8,0-1.3-0.1-1.7-0.3
		c-0.3-0.1-0.4-0.3-0.4-0.5l-0.5,0.2h0.5c0,0,0-0.1,0-0.2v-0.2c0-0.7,0.3-1.7,1-2.7c1.9-3.2,6.6-7.3,12.1-11.3
		C86,18.5,92,14.9,97.3,12c5.3-2.8,10-4.9,12.6-5.3l-0.1-0.5l0.1,0.5c0.9-0.1,1.5-0.8,1.5-1.7V4.8c-0.1-0.9-0.8-1.5-1.7-1.5h-0.2
		l0.1,0.5l-0.1-0.5C96.6,4.9,78.3,12,66.7,21.2c-3.5,2.9-6.5,5.9-8.5,9.1l0.4,0.3l-0.4-0.3c-2,2.7-3,5.7-3,8.7c0,0.5,0,1,0.1,1.5
		c0.4,2.6,1.4,5,3.3,7.4c2.5,3.1,5.4,5,9,6l0.1-0.5L67.6,54c1.5,0.4,3.1,0.6,4.9,0.6c1.5,0,3.2-0.2,4.9-0.4l-0.1-0.5l-0.5-0.2
		c-1.1,2.6-1.6,4.9-1.6,6.9c0,0.9,0.1,1.7,0.3,2.5l0.5-0.1l-0.5,0.1c0.4,1.6,1.3,3.1,2.6,4.4c1.3,1.3,2.9,2.4,4.9,3.5l0.2-0.4
		l-0.3,0.4c0.2,0.2,0.5,0.3,0.8,0.2c0.2,0,0.4,0,0.5-0.1L84,70.4l0.1,0.5l12.5-3.7l-0.1-0.5l0.1,0.5c0.6-0.1,1-0.6,1.2-1.1
		c0-0.2,0.1-0.3,0.1-0.5c0-0.8-0.5-1.5-1.2-1.7l-0.2,0.5l0.2-0.5c-2.5-0.9-4.6-2-6.4-3.2L90.2,61l0.3-0.4c-1.3-1.1-2.4-2.3-3.3-3.8
		l-0.4,0.3l0.2,0.5l4.3-2l-0.2-0.5l-0.3,0.4c3.7,2.5,9.2,3.3,15,3.3c7.6-0.1,15.7-1.7,19.7-3.2l-0.2-0.5l-0.5,0.1
		c0.3,1.1,0.5,2,0.7,2.9c0.3,1.3,0.5,2.3,0.8,3.2c0.3,0.9,0.7,1.6,1.3,2.3l0.4-0.3l-0.4,0.3c0.7,0.8,1.7,1.4,3,1.9
		c1.3,0.5,3,0.9,5.4,1.5l0.1-0.5l-0.2,0.5l0.6,0.2l0.2-0.5l-0.2,0.4c0.2,0.1,0.4,0.1,0.6,0.1c0.2,0,0.4,0,0.6-0.1l-0.2-0.4l0.2,0.5
		l12.8-4.6l-0.2-0.5l0.1,0.5c0.3-0.1,0.6-0.2,0.9-0.4c0.2-0.2,0.4-0.5,0.4-0.9c0-0.1,0-0.2,0-0.3c0-0.8-0.6-1.5-1.4-1.8
		c-3-0.6-5.8-1.6-8.3-2.9l-0.2,0.4l0.2-0.4c-1.8-1-3.4-2.2-4.9-3.7l-0.4,0.3l0.1,0.5c3.6-0.4,7.1-0.4,10.6-0.6v-0.5v0.5
		c5.1-0.2,10-0.3,14.2-1.1c2.9-0.6,5.4-1.4,7.5-2.8l-0.3-0.4l0.3,0.4c2.3-1.4,3.8-3.4,4.5-6.1l-0.5-0.1l0.4,0.4
		c0.1-0.1,0.2-0.3,0.2-0.4c0-0.1,0-0.2,0-0.3c0-1-0.8-1.8-1.8-1.8l-34.8,0.6v0.5l0.4,0.3c6.3-6.8,15-8.5,22.8-9.8
		c3.1-0.6,6.1-1.2,8.8-2c2.7-0.9,5-2,6.9-3.8l-0.4-0.4l0.3,0.4c0.4-0.3,0.5-0.8,0.5-1.2c0-0.3-0.1-0.6-0.2-0.8l-2.1-4.3l-0.4,0.2
		l0.5-0.1c-0.1-0.5-0.4-1.7-1.3-2.8s-2.5-2-5-1.9c-2.3,0-3.8,1.1-4.7,2.4c-0.9,1.3-1.2,2.8-1.3,3.9h0.5l-0.1-0.5l-25.5,4.3l0.1,0.5
		l0.2-0.5c-3.5-1.5-6.4-2.1-8.8-2.1c-2.8,0-5,0.8-6.8,1.9c-1.8,1.1-3.1,2.4-4.2,3.5L117.5,29.4l0.4-0.4L117.5,29.4z M127.1,33v0.5
		c1.1,0,2,0.9,2,2c0,1.1-0.9,2-2,2s-2-0.9-2-2c0-1.1,0.9-2,2-2V33v-0.5c-0.8,0-1.6,0.3-2.1,0.9c-0.5,0.5-0.9,1.3-0.9,2.1
		c0,0.8,0.3,1.6,0.9,2.1c0.5,0.5,1.3,0.9,2.1,0.9c0.8,0,1.6-0.3,2.1-0.9c0.5-0.5,0.9-1.3,0.9-2.1c0-0.8-0.3-1.6-0.9-2.1
		c-0.5-0.5-1.3-0.9-2.1-0.9V33z"/>
</g>
</svg>
