<?xml version="1.0" encoding="utf-8"?>
<!-- Generator: Adobe Illustrator 16.0.0, SVG Export Plug-In . SVG Version: 6.00 Build 0)  -->
<!DOCTYPE svg PUBLIC "-//W3C//DTD SVG 1.1//EN" "http://www.w3.org/Graphics/SVG/1.1/DTD/svg11.dtd">
<svg version="1.1" id="Layer_1" xmlns="http://www.w3.org/2000/svg" xmlns:xlink="http://www.w3.org/1999/xlink" x="0px" y="0px"
	 width="121.7px" height="87.9px" viewBox="63.6 -1.6 121.7 87.9" style="enable-background:new 63.6 -1.6 121.7 87.9;"
	 xml:space="preserve">
<g>
	<path d="M164.7,48.5c-1.1,0.3-2.2,0.3-3.3,0.1c-0.8-0.2-1.7-0.5-2.4-1c-0.1-0.1-0.2-0.2-0.3-0.3s-0.1-0.2-0.1-0.4
		c-0.1-1.3,0.5-2.6,1.3-3.6c1.3,0.1,2.6,0.3,3.9,0.6c0.2,0.1,0.4,0.1,0.6,0.2c0.2,0.1,0.3,0.3,0.4,0.4c0.4,0.5,0.8,1,1.1,1.6
		c0.2,0.4,0.4,0.8,0.3,1.3s-0.6,0.7-1,0.9C165.1,48.4,164.9,48.5,164.7,48.5z"/>
	<path d="M164.7,48.5l-0.1-0.5c-0.6,0.2-1.1,0.2-1.7,0.2c-0.5,0-0.9,0-1.4-0.1l-0.1,0.5l0.1-0.5c-0.8-0.2-1.6-0.5-2.2-0.9l-0.3,0.4
		l0.4-0.4c-0.1-0.1-0.2-0.2-0.3-0.3L159,47h0.2v-0.1l-0.1,0.1h0.2v-0.1v-0.2c0-1,0.5-2.1,1.2-3l-0.4-0.3v0.5
		c1.3,0.1,2.5,0.3,3.8,0.6L164,44l-0.2,0.4c0.2,0.1,0.3,0.1,0.4,0.1s0.2,0,0.2,0.1l0.1,0.1c0,0,0.1,0.1,0.2,0.2l0.4-0.4l-0.4,0.3
		c0.4,0.5,0.8,1,1,1.5c0.2,0.3,0.3,0.6,0.3,0.8v0.2c0,0.1-0.1,0.2-0.2,0.3c-0.1,0.1-0.3,0.2-0.5,0.3h-0.1l-0.1,0.1l-0.1,0.1h-0.1
		h-0.1L164.7,48.5V49c0.4,0,0.6-0.1,0.9-0.3l-0.4-0.4l0.2,0.4c0.2-0.1,0.4-0.2,0.7-0.4c0.2-0.2,0.5-0.5,0.6-0.9c0-0.1,0-0.2,0-0.4
		c0-0.5-0.2-0.9-0.4-1.3c-0.3-0.7-0.8-1.2-1.2-1.7c-0.1-0.1-0.2-0.3-0.5-0.5c-0.2-0.1-0.3-0.1-0.4-0.1s-0.2,0-0.2-0.1h-0.1h-0.1
		c-1.3-0.3-2.6-0.5-4-0.6h-0.3l-0.2,0.2c-0.8,1-1.4,2.3-1.4,3.6c0,0.1,0,0.2,0,0.3h0.5h-0.5c0,0.1,0,0.2,0,0.3s0.1,0.3,0.2,0.4
		c0.1,0.1,0.2,0.2,0.3,0.3c0.8,0.6,1.7,0.9,2.6,1.1c0.5,0.1,1,0.1,1.6,0.1c0.6,0,1.3-0.1,1.9-0.3L164.7,48.5V49V48.5z"/>
	<path d="M164.7,48.5l-0.1-0.5c-0.6,0.2-1.1,0.2-1.7,0.2c-0.5,0-0.9,0-1.4-0.1l-0.1,0.5l0.1-0.5c-0.8-0.2-1.6-0.5-2.2-0.9l-0.3,0.4
		l0.4-0.4c-0.1-0.1-0.2-0.2-0.3-0.3L159,47h0.2v-0.1l-0.1,0.1h0.2v-0.1v-0.2c0-1,0.5-2.1,1.2-3l-0.4-0.3v0.5
		c1.3,0.1,2.5,0.3,3.8,0.6L164,44l-0.2,0.4c0.2,0.1,0.3,0.1,0.4,0.1s0.2,0,0.2,0.1l0.1,0.1c0,0,0.1,0.1,0.2,0.2l0.4-0.4l-0.4,0.3
		c0.4,0.5,0.8,1,1,1.5c0.2,0.3,0.3,0.6,0.3,0.8v0.2c0,0.1-0.1,0.2-0.2,0.3c-0.1,0.1-0.3,0.2-0.5,0.3h-0.1l-0.1,0.1l-0.1,0.1h-0.1
		h-0.1L164.7,48.5V49c0.4,0,0.6-0.1,0.9-0.3l-0.4-0.4l0.2,0.4c0.2-0.1,0.4-0.2,0.7-0.4c0.2-0.2,0.5-0.5,0.6-0.9c0-0.1,0-0.2,0-0.4
		c0-0.5-0.2-0.9-0.4-1.3c-0.3-0.7-0.8-1.2-1.2-1.7c-0.1-0.1-0.2-0.3-0.5-0.5c-0.2-0.1-0.3-0.1-0.4-0.1s-0.2,0-0.2-0.1h-0.1h-0.1
		c-1.3-0.3-2.6-0.5-4-0.6h-0.3l-0.2,0.2c-0.8,1-1.4,2.3-1.4,3.6c0,0.1,0,0.2,0,0.3h0.5h-0.5c0,0.1,0,0.2,0,0.3s0.1,0.3,0.2,0.4
		c0.1,0.1,0.2,0.2,0.3,0.3c0.8,0.6,1.7,0.9,2.6,1.1c0.5,0.1,1,0.1,1.6,0.1c0.6,0,1.3-0.1,1.9-0.3L164.7,48.5V49V48.5z"/>
	<path d="M170.8,44.4c-1.5-1.4-1.4,2.4-1,4c0.2,2.2,1.3,4.2,3.1,6.2l3.8,0.8c0,0,4.1,2.4,5.3,1s2.4-5,2.4-5
		c-0.1-2.6-1.3-4.5-3.6-5.6c-3.2-1.5-11.3-2-10.7-1.7"/>
	<path d="M171.1,44c-0.3-0.2-0.6-0.4-0.9-0.4s-0.6,0.2-0.7,0.3c-0.2,0.3-0.3,0.6-0.4,1c-0.1,0.4-0.1,0.8-0.1,1.2
		c0,0.9,0.1,1.8,0.3,2.4l0.5-0.1h-0.5c0.2,2.3,1.4,4.4,3.2,6.5l0.1,0.1l4,0.8l0.1-0.5l-0.3,0.4c0,0,0.6,0.4,1.5,0.7
		c0.9,0.4,1.9,0.8,2.9,0.8c0.3,0,0.6,0,0.8-0.1c0.3-0.1,0.5-0.3,0.7-0.5c0.7-0.8,1.3-2.1,1.7-3.2c0.5-1.1,0.8-2,0.8-2v-0.1v-0.1
		c-0.1-1.4-0.4-2.6-1.1-3.6s-1.6-1.8-2.8-2.4c-1.4-0.7-3.5-1.1-5.6-1.4c-2-0.3-3.9-0.4-4.9-0.4c-0.2,0-0.3,0-0.4,0h-0.2l-0.2,0.1
		l-0.1,0.1c0,0.1-0.1,0.2-0.1,0.3c0,0.2,0.1,0.3,0.2,0.4l0.1,0.1l0.4-0.9l-0.2,0.4l0.3-0.3l-0.1-0.1l-0.2,0.4l0.3-0.3l-0.3,0.4h0.5
		c0-0.2-0.1-0.3-0.2-0.4l-0.3,0.4h0.5h-0.5l0.4,0.3c0-0.1,0.1-0.2,0.1-0.3h-0.5l0.4,0.3l-0.4-0.3l0.2,0.4c0,0,0.1,0,0.2-0.2
		l-0.4-0.3l0.2,0.4l-0.1-0.2v0.3h0.1l-0.1-0.2v0.3c0,0,0.2,0,0.3,0c0.8,0,2.7,0.1,4.7,0.4c2,0.3,4.1,0.7,5.3,1.3
		c1.1,0.5,1.9,1.2,2.4,2.1s0.8,1.9,0.9,3.1h0.5l-0.5-0.2c0,0-0.1,0.2-0.2,0.6c-0.2,0.5-0.5,1.4-0.9,2.2c-0.4,0.8-0.8,1.6-1.2,2.1
		c-0.1,0.1-0.2,0.1-0.3,0.2c-0.1,0-0.3,0.1-0.5,0.1c-0.7,0-1.7-0.3-2.5-0.7c-0.4-0.2-0.7-0.3-1-0.5c-0.1-0.1-0.2-0.1-0.3-0.2h0.3
		h-0.1l-3.9-0.8l-0.1,0.5l0.4-0.3c-1.8-2-2.8-3.9-3-5.9c-0.1-0.5-0.2-1.4-0.2-2.2c0-0.5,0-1,0.1-1.3c0-0.1,0.1-0.2,0.1-0.3l-0.1-0.1
		v0.1h0.1l-0.1-0.1v0.1c0,0,0.1,0,0.2,0.2L171.1,44z"/>
	<path d="M171.1,44c-0.3-0.2-0.6-0.4-0.9-0.4s-0.6,0.2-0.7,0.3c-0.2,0.3-0.3,0.6-0.4,1c-0.1,0.4-0.1,0.8-0.1,1.2
		c0,0.9,0.1,1.8,0.3,2.4l0.5-0.1h-0.5c0.2,2.3,1.4,4.4,3.2,6.5l0.1,0.1l4,0.8l0.1-0.5l-0.3,0.4c0,0,0.6,0.4,1.5,0.7
		c0.9,0.4,1.9,0.8,2.9,0.8c0.3,0,0.6,0,0.8-0.1c0.3-0.1,0.5-0.3,0.7-0.5c0.7-0.8,1.3-2.1,1.7-3.2c0.5-1.1,0.8-2,0.8-2v-0.1v-0.1
		c-0.1-1.4-0.4-2.6-1.1-3.6s-1.6-1.8-2.8-2.4c-1.4-0.7-3.5-1.1-5.6-1.4c-2-0.3-3.9-0.4-4.9-0.4c-0.2,0-0.3,0-0.4,0h-0.2l-0.2,0.1
		l-0.1,0.1c0,0.1-0.1,0.2-0.1,0.3c0,0.2,0.1,0.3,0.2,0.4l0.1,0.1l0.4-0.9l-0.2,0.4l0.3-0.3l-0.1-0.1l-0.2,0.4l0.3-0.3l-0.3,0.4h0.5
		c0-0.2-0.1-0.3-0.2-0.4l-0.3,0.4h0.5h-0.5l0.4,0.3c0-0.1,0.1-0.2,0.1-0.3h-0.5l0.4,0.3l-0.4-0.3l0.2,0.4c0,0,0.1,0,0.2-0.2
		l-0.4-0.3l0.2,0.4l-0.1-0.2v0.3h0.1l-0.1-0.2v0.3c0,0,0.2,0,0.3,0c0.8,0,2.7,0.1,4.7,0.4c2,0.3,4.1,0.7,5.3,1.3
		c1.1,0.5,1.9,1.2,2.4,2.1s0.8,1.9,0.9,3.1h0.5l-0.5-0.2c0,0-0.1,0.2-0.2,0.6c-0.2,0.5-0.5,1.4-0.9,2.2c-0.4,0.8-0.8,1.6-1.2,2.1
		c-0.1,0.1-0.2,0.1-0.3,0.2c-0.1,0-0.3,0.1-0.5,0.1c-0.7,0-1.7-0.3-2.5-0.7c-0.4-0.2-0.7-0.3-1-0.5c-0.1-0.1-0.2-0.1-0.3-0.2h0.3
		h-0.1l-3.9-0.8l-0.1,0.5l0.4-0.3c-1.8-2-2.8-3.9-3-5.9c-0.1-0.5-0.2-1.4-0.2-2.2c0-0.5,0-1,0.1-1.3c0-0.1,0.1-0.2,0.1-0.3l-0.1-0.1
		v0.1h0.1l-0.1-0.1v0.1c0,0,0.1,0,0.2,0.2L171.1,44z"/>
	<path d="M161.2,62.3l-3.3-4.8l3.6-4.6c2.8-1.8,5.4-3.1,5.5,2l-0.2,5.8L161.2,62.3z"/>
	<path d="M161.2,62.3l0.4-0.3l-3.1-4.5l3.4-4.3l-0.4-0.3l0.3,0.4c0.7-0.4,1.3-0.8,1.9-1.1c0.6-0.3,1.1-0.4,1.5-0.4
		c0.2,0,0.4,0,0.5,0.1c0.2,0.1,0.4,0.3,0.6,0.8c0.2,0.5,0.3,1.2,0.3,2.2h0.5h-0.5l-0.2,5.4l-5.2,1.5V62.3l0.4-0.3L161.2,62.3
		l0.1,0.5l5.9-1.7l0.2-6.2c0-1.4-0.2-2.4-0.6-3c-0.2-0.3-0.5-0.6-0.8-0.8s-0.7-0.2-1-0.2c-0.6,0-1.2,0.2-1.9,0.5
		c-0.6,0.3-1.3,0.7-2,1.1H161l-3.9,5l3.7,5.4l0.3-0.1L161.2,62.3z"/>
	<path d="M161.2,62.3l0.4-0.3l-3.1-4.5l3.4-4.3l-0.4-0.3l0.3,0.4c0.7-0.4,1.3-0.8,1.9-1.1c0.6-0.3,1.1-0.4,1.5-0.4
		c0.2,0,0.4,0,0.5,0.1c0.2,0.1,0.4,0.3,0.6,0.8c0.2,0.5,0.3,1.2,0.3,2.2h0.5h-0.5l-0.2,5.4l-5.2,1.5V62.3l0.4-0.3L161.2,62.3
		l0.1,0.5l5.9-1.7l0.2-6.2c0-1.4-0.2-2.4-0.6-3c-0.2-0.3-0.5-0.6-0.8-0.8s-0.7-0.2-1-0.2c-0.6,0-1.2,0.2-1.9,0.5
		c-0.6,0.3-1.3,0.7-2,1.1H161l-3.9,5l3.7,5.4l0.3-0.1L161.2,62.3z"/>
	<path d="M179.4,65.9c-2,0.6-4.3,1.3-6.1,0.4c-1.5-0.8-3-1.1-4.2-1.5c-0.2-0.1-0.4-0.3-0.5-0.5c-0.1-0.2-0.1-0.4-0.1-0.6
		c-0.1-2.1,2.4-6.2,2.5-6c0.1,0.1,5.2-0.3,7.1,0.7c0.3,0.2,0.8,0.2,1.1,0.4c0.3,0.2,0.9,0.4,0.7,0.7c-0.7,1.5-0.3,2.5,2,2.6
		c0.7,0,0.7,1.3,0.5,2c-0.3,0.8-1.1,1.2-1.9,1.6C180,65.7,179.7,65.8,179.4,65.9z"/>
	<path d="M179.4,65.9l-0.1-0.5c-1.3,0.4-2.7,0.8-4,0.8c-0.6,0-1.2-0.1-1.8-0.4l-0.2,0.4l0.2-0.4c-1.6-0.8-3.1-1.1-4.3-1.5l-0.2,0.5
		l0.2-0.4l-0.3-0.3c0-0.1,0-0.2,0-0.4v-0.1c0-0.4,0.1-1,0.3-1.6c0.3-0.9,0.8-1.9,1.2-2.7c0.2-0.4,0.4-0.7,0.5-0.9
		c0.1-0.1,0.1-0.2,0.2-0.2l-0.2-0.2l0.2,0.3l-0.2-0.2l0.2,0.3l-0.2-0.4v0.5c0.2,0,0.2-0.1,0.2-0.1l-0.2-0.4v0.5V58l-0.3,0.4l0.3,0.1
		V58l-0.3,0.4l0.3-0.4l-0.4,0.2l0.2,0.2L171,58l-0.4,0.2v0.1l0.1,0.1c0.1,0.1,0.2,0.1,0.2,0.1h0.1c0.1,0,0.2,0,0.3,0
		c0.3,0,0.9,0,1.6,0c0.8,0,1.8,0,2.7,0.1c0.9,0.1,1.7,0.3,2.2,0.5l0.2-0.4l-0.3,0.4c0.3,0.2,0.5,0.2,0.7,0.3c0.2,0,0.4,0.1,0.4,0.1
		c0.2,0.1,0.4,0.2,0.5,0.3l0.1,0.1l0.1-0.1l-0.1,0.1l0.1-0.1l-0.1,0.1l0.3-0.1h-0.3v0.1l0.3-0.1h-0.3h0.3l-0.2-0.2v0.2h0.3l-0.2-0.2
		c-0.2,0.5-0.4,0.9-0.4,1.4c0,0.3,0.1,0.6,0.2,0.8c0.2,0.4,0.5,0.7,1,0.8c0.4,0.2,1,0.3,1.6,0.3c0,0,0.1,0.1,0.1,0.2
		s0.1,0.3,0.1,0.5c0,0.3,0,0.5-0.1,0.7l0.5,0.1l-0.5-0.2c-0.1,0.3-0.3,0.5-0.6,0.7c-0.3,0.2-0.7,0.4-1.1,0.6l0.2,0.4v-0.5
		c-0.6,0-1,0.1-1.3,0.2L179.4,65.9l-0.1-0.5L179.4,65.9l0.2,0.5c0.3-0.1,0.5-0.2,0.9-0.2h0.1l0.1-0.1c0.4-0.2,0.8-0.4,1.2-0.7
		c0.4-0.3,0.7-0.7,0.9-1.2c0.1-0.3,0.1-0.6,0.1-1c0-0.3,0-0.7-0.2-1c-0.1-0.2-0.2-0.3-0.3-0.4c-0.2-0.1-0.4-0.2-0.6-0.2v0.5v-0.5
		c-0.8,0-1.3-0.2-1.5-0.3c-0.1-0.1-0.2-0.2-0.2-0.3c0-0.1-0.1-0.2-0.1-0.3c0-0.2,0.1-0.6,0.3-1l-0.5-0.2l0.4,0.3
		c0.1-0.1,0.1-0.2,0.1-0.4c0-0.2-0.1-0.4-0.2-0.5c-0.2-0.2-0.3-0.2-0.4-0.3s-0.3-0.1-0.3-0.2c-0.3-0.2-0.5-0.2-0.7-0.3
		c-0.2,0-0.4-0.1-0.4-0.1c-0.7-0.4-1.6-0.5-2.6-0.6s-2-0.1-2.8-0.1c-0.7,0-1.3,0-1.6,0h-0.2v0.2v-0.2v0.2v-0.2l-0.1,0.5l0.3-0.3
		c-0.2-0.1-0.2-0.1-0.2-0.1l-0.1,0.5l0.3-0.3l-0.4,0.4l0.4-0.2c0-0.1-0.1-0.1-0.2-0.2l-0.3-0.1c-0.2,0-0.3,0.1-0.3,0.1l-0.2,0.2
		c-0.2,0.2-0.4,0.5-0.6,1c-0.4,0.7-0.8,1.5-1.2,2.5c-0.4,0.9-0.7,1.9-0.7,2.7v0.1h0.5H168c0,0.2,0,0.5,0.2,0.8
		c0.2,0.3,0.4,0.6,0.7,0.7c1.2,0.4,2.7,0.7,4.1,1.5c0.7,0.4,1.5,0.5,2.2,0.5c1.5,0,2.9-0.5,4.2-0.9V65.9z"/>
	<path d="M179.4,65.9l-0.1-0.5c-1.3,0.4-2.7,0.8-4,0.8c-0.6,0-1.2-0.1-1.8-0.4l-0.2,0.4l0.2-0.4c-1.6-0.8-3.1-1.1-4.3-1.5l-0.2,0.5
		l0.2-0.4l-0.3-0.3c0-0.1,0-0.2,0-0.4v-0.1c0-0.4,0.1-1,0.3-1.6c0.3-0.9,0.8-1.9,1.2-2.7c0.2-0.4,0.4-0.7,0.5-0.9
		c0.1-0.1,0.1-0.2,0.2-0.2l-0.2-0.2l0.2,0.3l-0.2-0.2l0.2,0.3l-0.2-0.4v0.5c0.2,0,0.2-0.1,0.2-0.1l-0.2-0.4v0.5V58l-0.3,0.4l0.3,0.1
		V58l-0.3,0.4l0.3-0.4l-0.4,0.2l0.2,0.2L171,58l-0.4,0.2v0.1l0.1,0.1c0.1,0.1,0.2,0.1,0.2,0.1h0.1c0.1,0,0.2,0,0.3,0
		c0.3,0,0.9,0,1.6,0c0.8,0,1.8,0,2.7,0.1c0.9,0.1,1.7,0.3,2.2,0.5l0.2-0.4l-0.3,0.4c0.3,0.2,0.5,0.2,0.7,0.3c0.2,0,0.4,0.1,0.4,0.1
		c0.2,0.1,0.4,0.2,0.5,0.3l0.1,0.1l0.1-0.1l-0.1,0.1l0.1-0.1l-0.1,0.1l0.3-0.1h-0.3v0.1l0.3-0.1h-0.3h0.3l-0.2-0.2v0.2h0.3l-0.2-0.2
		c-0.2,0.5-0.4,0.9-0.4,1.4c0,0.3,0.1,0.6,0.2,0.8c0.2,0.4,0.5,0.7,1,0.8c0.4,0.2,1,0.3,1.6,0.3c0,0,0.1,0.1,0.1,0.2
		s0.1,0.3,0.1,0.5c0,0.3,0,0.5-0.1,0.7l0.5,0.1l-0.5-0.2c-0.1,0.3-0.3,0.5-0.6,0.7c-0.3,0.2-0.7,0.4-1.1,0.6l0.2,0.4v-0.5
		c-0.6,0-1,0.1-1.3,0.2L179.4,65.9l-0.1-0.5L179.4,65.9l0.2,0.5c0.3-0.1,0.5-0.2,0.9-0.2h0.1l0.1-0.1c0.4-0.2,0.8-0.4,1.2-0.7
		c0.4-0.3,0.7-0.7,0.9-1.2c0.1-0.3,0.1-0.6,0.1-1c0-0.3,0-0.7-0.2-1c-0.1-0.2-0.2-0.3-0.3-0.4c-0.2-0.1-0.4-0.2-0.6-0.2v0.5v-0.5
		c-0.8,0-1.3-0.2-1.5-0.3c-0.1-0.1-0.2-0.2-0.2-0.3c0-0.1-0.1-0.2-0.1-0.3c0-0.2,0.1-0.6,0.3-1l-0.5-0.2l0.4,0.3
		c0.1-0.1,0.1-0.2,0.1-0.4c0-0.2-0.1-0.4-0.2-0.5c-0.2-0.2-0.3-0.2-0.4-0.3s-0.3-0.1-0.3-0.2c-0.3-0.2-0.5-0.2-0.7-0.3
		c-0.2,0-0.4-0.1-0.4-0.1c-0.7-0.4-1.6-0.5-2.6-0.6s-2-0.1-2.8-0.1c-0.7,0-1.3,0-1.6,0h-0.2v0.2v-0.2v0.2v-0.2l-0.1,0.5l0.3-0.3
		c-0.2-0.1-0.2-0.1-0.2-0.1l-0.1,0.5l0.3-0.3l-0.4,0.4l0.4-0.2c0-0.1-0.1-0.1-0.2-0.2l-0.3-0.1c-0.2,0-0.3,0.1-0.3,0.1l-0.2,0.2
		c-0.2,0.2-0.4,0.5-0.6,1c-0.4,0.7-0.8,1.5-1.2,2.5c-0.4,0.9-0.7,1.9-0.7,2.7v0.1h0.5H168c0,0.2,0,0.5,0.2,0.8
		c0.2,0.3,0.4,0.6,0.7,0.7c1.2,0.4,2.7,0.7,4.1,1.5c0.7,0.4,1.5,0.5,2.2,0.5c1.5,0,2.9-0.5,4.2-0.9V65.9z"/>
	<path d="M135.2-0.4c-18.8-3.1-36,4.7-48.6,18.5c-8.9,9.8-15.5,21.6-20.3,33.8c-0.7,1.9-1.4,3.7-2,5.6h83.6
		c-8.7,0-17.7-2.6-23.4-9.5c-4.2-5.1-6.1-12.1-4.7-18.6c1.8-8.3,8.8-13.7,17.4-13.4c8.3,0.3,13.6,7,16.1,14.2c0.6,1.6,1.1,3.3,1.4,5
		C154.7,35.1,171.4,7.9,135.2-0.4"/>
	<path d="M135.3-0.9c-2.8-0.5-5.5-0.7-8.3-0.7c-15.7,0-30,7.5-40.8,19.3c-9,9.9-15.6,21.7-20.4,34c-0.7,1.9-1.4,3.7-2,5.6L63.6,58
		h84.3v-1c-8.6,0-17.5-2.6-23-9.3c-3.2-3.9-5-8.9-5-14c0-1.4,0.1-2.8,0.4-4.2c1.7-7.9,8.2-13,16.2-13c0.2,0,0.4,0,0.7,0
		c4,0.1,7.3,1.8,9.9,4.4c2.6,2.5,4.5,6,5.8,9.5c0.6,1.6,1.1,3.2,1.4,4.9l1-0.1h-0.5l0.5,0.1c0,0,0,0,0-0.1h-0.5l0.5,0.1l-0.4-0.1
		l0.4,0.2v-0.1l-0.4-0.1l0.4,0.2c0.1-0.1,0.3-0.6,0.7-1.3c1.1-2.3,3.2-7.1,3.2-12.6c0-4.1-1.2-8.6-4.7-12.6
		C150.7,4.8,144.8,1.3,135.3-0.9l-0.2,1c9.3,2.1,15.1,5.5,18.5,9.3c3.4,3.8,4.5,8,4.5,12c0,3.6-0.9,7-1.9,9.5
		c-0.5,1.2-0.9,2.2-1.3,2.9c-0.2,0.4-0.3,0.6-0.4,0.8c-0.1,0.1-0.1,0.2-0.1,0.2v0.1c0,0,0,0,0,0.1h0.5l0.5-0.1
		c-0.3-1.7-0.8-3.5-1.4-5.1l-0.5,0.2l0.5-0.2c-1.3-3.7-3.3-7.2-6-9.9c-2.7-2.7-6.3-4.5-10.6-4.7c-0.2,0-0.5,0-0.7,0
		c-8.5,0-15.4,5.5-17.2,13.8c-0.3,1.5-0.5,2.9-0.5,4.4c0,5.3,1.9,10.5,5.3,14.6c5.8,7.1,15,9.7,23.8,9.7v-1H64.3v0.5l0.5,0.2
		c0.6-1.9,1.3-3.7,2-5.6l-0.5-0.2l0.5,0.2C71.5,39.9,78.1,28.2,87,18.4c10.7-11.7,24.6-19,40-19c2.7,0,5.4,0.2,8.1,0.7L135.3-0.9z"
		/>
	<path d="M164.6,79.9c1-0.5,2.2-0.7,3.3-0.7c0.9,0,1.7,0.2,2.5,0.6c0.1,0.1,0.2,0.1,0.3,0.3c0.1,0.1,0.1,0.2,0.1,0.4
		c0.3,1.3-0.1,2.7-0.6,3.8c-1.3,0.1-2.6,0.2-3.9,0.1c-0.2,0-0.4,0-0.6-0.1s-0.3-0.2-0.5-0.4c-0.5-0.4-1-0.9-1.4-1.4
		c-0.3-0.3-0.5-0.8-0.5-1.2c0.1-0.5,0.5-0.8,0.9-1.1C164.2,80.1,164.4,80,164.6,79.9z"/>
	<path d="M164.6,79.9l0.2,0.4c0.9-0.5,2-0.6,3.1-0.6c0.8,0,1.5,0.2,2.3,0.5l0.2-0.4l-0.4,0.4c0.1,0.1,0.2,0.2,0.2,0.2v0.1l0.1,0.1
		l0.1-0.1h-0.2v0.1l0.1-0.1h-0.2v0.1v0.1v0.1c0.1,0.3,0.1,0.5,0.1,0.8c0,0.9-0.3,1.9-0.7,2.6l0.5,0.2v-0.5c-0.9,0.1-1.8,0.1-2.7,0.1
		c-0.4,0-0.7,0-1.1,0c-0.2,0-0.3,0-0.4,0l-0.2-0.1c0,0-0.1-0.1-0.2-0.2c-0.5-0.4-0.9-0.9-1.3-1.3c-0.2-0.2-0.4-0.6-0.4-0.8h-0.5
		l0.5,0.1c0-0.1,0.1-0.3,0.2-0.4s0.3-0.3,0.5-0.4l0.2-0.1v-0.3h-0.4l0.3,0.3c0,0,0.1-0.1,0.1-0.3h-0.4l0.3,0.3l-0.1-0.1l0.1,0.1
		l-0.1-0.1l0.1,0.1c0,0,0.1-0.1,0.2-0.1L164.6,79.9l-0.2-0.4c-0.1,0.1-0.2,0.1-0.3,0.2l-0.2,0.2c-0.1,0.1-0.2,0.2-0.2,0.4h0.5
		l-0.3-0.4c-0.2,0.2-0.4,0.3-0.6,0.5c-0.2,0.2-0.4,0.5-0.5,0.9c0,0.6,0.2,1.1,0.6,1.6l0.4-0.4l-0.4,0.3c0.4,0.5,0.9,1.1,1.5,1.5
		l0.3-0.4l-0.4,0.4c0.1,0.1,0.2,0.2,0.3,0.3c0.1,0.1,0.2,0.2,0.3,0.2c0.3,0.2,0.6,0.2,0.8,0.2v-0.5V85c0.4,0,0.8,0,1.2,0
		c0.9,0,1.9-0.1,2.8-0.1h0.3l0.1-0.3c0.4-0.9,0.7-1.9,0.7-3.1c0-0.4,0-0.7-0.1-1.1l-0.5,0.1h0.5c0-0.1,0-0.2,0-0.3
		c0-0.1-0.1-0.3-0.2-0.4l-0.4,0.4L171,80c-0.1-0.2-0.2-0.3-0.3-0.4l-0.1-0.1l-0.1-0.1h-0.1c-0.9-0.4-1.8-0.7-2.7-0.7
		c-1.2,0-2.4,0.2-3.5,0.8L164.6,79.9z"/>
	<path d="M164.6,79.9l0.2,0.4c0.9-0.5,2-0.6,3.1-0.6c0.8,0,1.5,0.2,2.3,0.5l0.2-0.4l-0.4,0.4c0.1,0.1,0.2,0.2,0.2,0.2v0.1l0.1,0.1
		l0.1-0.1h-0.2v0.1l0.1-0.1h-0.2v0.1v0.1v0.1c0.1,0.3,0.1,0.5,0.1,0.8c0,0.9-0.3,1.9-0.7,2.6l0.5,0.2v-0.5c-0.9,0.1-1.8,0.1-2.7,0.1
		c-0.4,0-0.7,0-1.1,0c-0.2,0-0.3,0-0.4,0l-0.2-0.1c0,0-0.1-0.1-0.2-0.2c-0.5-0.4-0.9-0.9-1.3-1.3c-0.2-0.2-0.4-0.6-0.4-0.8h-0.5
		l0.5,0.1c0-0.1,0.1-0.3,0.2-0.4s0.3-0.3,0.5-0.4l0.2-0.1v-0.3h-0.4l0.3,0.3c0,0,0.1-0.1,0.1-0.3h-0.4l0.3,0.3l-0.1-0.1l0.1,0.1
		l-0.1-0.1l0.1,0.1c0,0,0.1-0.1,0.2-0.1L164.6,79.9l-0.2-0.4c-0.1,0.1-0.2,0.1-0.3,0.2l-0.2,0.2c-0.1,0.1-0.2,0.2-0.2,0.4h0.5
		l-0.3-0.4c-0.2,0.2-0.4,0.3-0.6,0.5c-0.2,0.2-0.4,0.5-0.5,0.9c0,0.6,0.2,1.1,0.6,1.6l0.4-0.4l-0.4,0.3c0.4,0.5,0.9,1.1,1.5,1.5
		l0.3-0.4l-0.4,0.4c0.1,0.1,0.2,0.2,0.3,0.3c0.1,0.1,0.2,0.2,0.3,0.2c0.3,0.2,0.6,0.2,0.8,0.2v-0.5V85c0.4,0,0.8,0,1.2,0
		c0.9,0,1.9-0.1,2.8-0.1h0.3l0.1-0.3c0.4-0.9,0.7-1.9,0.7-3.1c0-0.4,0-0.7-0.1-1.1l-0.5,0.1h0.5c0-0.1,0-0.2,0-0.3
		c0-0.1-0.1-0.3-0.2-0.4l-0.4,0.4L171,80c-0.1-0.2-0.2-0.3-0.3-0.4l-0.1-0.1l-0.1-0.1h-0.1c-0.9-0.4-1.8-0.7-2.7-0.7
		c-1.2,0-2.4,0.2-3.5,0.8L164.6,79.9z"/>
	<path d="M159.3,85c1.7,1.1,1-2.6,0.3-4.1c-0.6-2.1-2-4-4.1-5.6l-3.9-0.1c0,0-4.4-1.7-5.4-0.1c-1,1.5-1.6,5.3-1.6,5.3
		c0.6,2.6,2.1,4.2,4.4,4.9c3.4,1,11.4,0.1,10.8-0.1"/>
	<path d="M159,85.4c0.3,0.2,0.5,0.3,0.8,0.3c0.2,0,0.4-0.1,0.5-0.2c0.2-0.2,0.3-0.4,0.4-0.6c0.1-0.2,0.1-0.5,0.1-0.7
		c0-1.1-0.4-2.6-0.8-3.5l-0.5,0.2l0.5-0.1c-0.6-2.2-2.1-4.2-4.3-5.9l-0.1-0.1l-4.1-0.1v0.5l0.2-0.5c0,0-2.1-0.8-3.8-0.8
		c-0.4,0-0.8,0-1.2,0.2c-0.4,0.1-0.7,0.4-1,0.7l0.4,0.3l-0.4-0.3c-0.6,0.9-1,2.2-1.2,3.4c-0.3,1.2-0.4,2.1-0.4,2.1v0.1v0.1
		c0.3,1.4,0.9,2.5,1.7,3.4c0.8,0.9,1.8,1.5,3.1,1.9s3,0.5,4.7,0.5c1.6,0,3.1-0.1,4.3-0.2c0.6-0.1,1.1-0.1,1.4-0.2
		c0.2,0,0.3-0.1,0.4-0.1l0.2-0.1l0.1-0.1l0.1-0.1c0-0.1,0.1-0.2,0.1-0.3c0-0.1,0-0.2-0.1-0.3c-0.1-0.1-0.1-0.1-0.2-0.2l-0.1-0.1
		l-0.3,0.9l0.1-0.4l-0.3,0.3l0.1,0.1l0.1-0.4l-0.3,0.3l0.3-0.4l-0.4,0.3l0.1,0.1l0.3-0.4l-0.4,0.3l0.4-0.3H159c0,0.1,0,0.2,0.1,0.3
		l0.4-0.3H159h0.5l-0.4-0.3c0,0.1-0.1,0.1-0.1,0.3h0.5l-0.4-0.3l0.4,0.2l-0.2-0.4c0,0-0.1,0-0.1,0.2l0.4,0.2l-0.2-0.4l0.1,0.2
		l-0.1-0.3l0.1,0.2l-0.1-0.3c-0.1,0-0.4,0.1-0.7,0.1c-1.1,0.2-3.2,0.3-5.3,0.3c-1.7,0-3.4-0.1-4.5-0.4c-1.1-0.3-1.9-0.9-2.6-1.6
		c-0.7-0.7-1.2-1.7-1.4-2.9l-0.5,0.1l0.5,0.1c0,0,0-0.2,0.1-0.6c0.1-0.6,0.3-1.4,0.5-2.3s0.6-1.7,0.9-2.2c0.1-0.1,0.2-0.2,0.5-0.3
		c0.2-0.1,0.5-0.1,0.9-0.1c0.7,0,1.6,0.2,2.3,0.4c0.3,0.1,0.6,0.2,0.8,0.3c0.1,0,0.2,0.1,0.2,0.1h0.1h0.1l4,0.1v-0.5l-0.3,0.4
		c2,1.6,3.4,3.4,3.9,5.3c0.3,0.7,0.7,2.2,0.7,3c0,0.3,0,0.5-0.1,0.5l0.1,0.1v-0.1h-0.1l0.1,0.1v-0.1h-0.1l-0.2-0.1L159,85.4z"/>
	<path d="M159,85.4c0.3,0.2,0.5,0.3,0.8,0.3c0.2,0,0.4-0.1,0.5-0.2c0.2-0.2,0.3-0.4,0.4-0.6c0.1-0.2,0.1-0.5,0.1-0.7
		c0-1.1-0.4-2.6-0.8-3.5l-0.5,0.2l0.5-0.1c-0.6-2.2-2.1-4.2-4.3-5.9l-0.1-0.1l-4.1-0.1v0.5l0.2-0.5c0,0-2.1-0.8-3.8-0.8
		c-0.4,0-0.8,0-1.2,0.2c-0.4,0.1-0.7,0.4-1,0.7l0.4,0.3l-0.4-0.3c-0.6,0.9-1,2.2-1.2,3.4c-0.3,1.2-0.4,2.1-0.4,2.1v0.1v0.1
		c0.3,1.4,0.9,2.5,1.7,3.4c0.8,0.9,1.8,1.5,3.1,1.9s3,0.5,4.7,0.5c1.6,0,3.1-0.1,4.3-0.2c0.6-0.1,1.1-0.1,1.4-0.2
		c0.2,0,0.3-0.1,0.4-0.1l0.2-0.1l0.1-0.1l0.1-0.1c0-0.1,0.1-0.2,0.1-0.3c0-0.1,0-0.2-0.1-0.3c-0.1-0.1-0.1-0.1-0.2-0.2l-0.1-0.1
		l-0.3,0.9l0.1-0.4l-0.3,0.3l0.1,0.1l0.1-0.4l-0.3,0.3l0.3-0.4l-0.4,0.3l0.1,0.1l0.3-0.4l-0.4,0.3l0.4-0.3H159c0,0.1,0,0.2,0.1,0.3
		l0.4-0.3H159h0.5l-0.4-0.3c0,0.1-0.1,0.1-0.1,0.3h0.5l-0.4-0.3l0.4,0.2l-0.2-0.4c0,0-0.1,0-0.1,0.2l0.4,0.2l-0.2-0.4l0.1,0.2
		l-0.1-0.3l0.1,0.2l-0.1-0.3c-0.1,0-0.4,0.1-0.7,0.1c-1.1,0.2-3.2,0.3-5.3,0.3c-1.7,0-3.4-0.1-4.5-0.4c-1.1-0.3-1.9-0.9-2.6-1.6
		c-0.7-0.7-1.2-1.7-1.4-2.9l-0.5,0.1l0.5,0.1c0,0,0-0.2,0.1-0.6c0.1-0.6,0.3-1.4,0.5-2.3s0.6-1.7,0.9-2.2c0.1-0.1,0.2-0.2,0.5-0.3
		c0.2-0.1,0.5-0.1,0.9-0.1c0.7,0,1.6,0.2,2.3,0.4c0.3,0.1,0.6,0.2,0.8,0.3c0.1,0,0.2,0.1,0.2,0.1h0.1h0.1l4,0.1v-0.5l-0.3,0.4
		c2,1.6,3.4,3.4,3.9,5.3c0.3,0.7,0.7,2.2,0.7,3c0,0.3,0,0.5-0.1,0.5l0.1,0.1v-0.1h-0.1l0.1,0.1v-0.1h-0.1l-0.2-0.1L159,85.4z"/>
	<path d="M165.7,65.8l4,4.2l-2.7,5.1c-2.4,2.3-4.8,4-5.7-1l-0.8-5.8L165.7,65.8z"/>
	<path d="M165.7,65.8l-0.4,0.3l3.8,3.9l-2.5,4.8L167,75l-0.3-0.4c-0.6,0.6-1.2,1.1-1.8,1.5c-0.6,0.4-1.1,0.6-1.4,0.6
		c-0.2,0-0.3,0-0.4-0.1c-0.2-0.1-0.4-0.3-0.6-0.8c-0.2-0.4-0.4-1.1-0.6-1.9l-0.5,0.1l0.5-0.1l-0.8-5.4l4.9-2.3L165.7,65.8l-0.4,0.3
		L165.7,65.8l-0.2-0.5L160,68l0.9,6.2c0.2,1.2,0.5,2.1,1,2.7c0.2,0.3,0.5,0.5,0.8,0.7s0.6,0.2,0.9,0.2c0.7,0,1.3-0.3,2-0.8
		c0.6-0.4,1.3-1,1.9-1.6l0.1-0.1l2.9-5.5l-4.5-4.7l-0.3,0.2V65.8z"/>
	<path d="M165.7,65.8l-0.4,0.3l3.8,3.9l-2.5,4.8L167,75l-0.3-0.4c-0.6,0.6-1.2,1.1-1.8,1.5c-0.6,0.4-1.1,0.6-1.4,0.6
		c-0.2,0-0.3,0-0.4-0.1c-0.2-0.1-0.4-0.3-0.6-0.8c-0.2-0.4-0.4-1.1-0.6-1.9l-0.5,0.1l0.5-0.1l-0.8-5.4l4.9-2.3L165.7,65.8l-0.4,0.3
		L165.7,65.8l-0.2-0.5L160,68l0.9,6.2c0.2,1.2,0.5,2.1,1,2.7c0.2,0.3,0.5,0.5,0.8,0.7s0.6,0.2,0.9,0.2c0.7,0,1.3-0.3,2-0.8
		c0.6-0.4,1.3-1,1.9-1.6l0.1-0.1l2.9-5.5l-4.5-4.7l-0.3,0.2V65.8z"/>
	<path d="M147.2,65.3c1.9-0.9,4-2,6-1.4c1.6,0.5,3.1,0.6,4.4,0.8c0.2,0,0.4,0.2,0.6,0.4c0.1,0.2,0.2,0.4,0.2,0.6
		c0.5,2.1-1.4,6.5-1.5,6.4c-0.1-0.1-5.1,1.2-7.1,0.5c-0.4-0.1-0.8,0-1.2-0.2c-0.3-0.1-0.9-0.2-0.8-0.6c0.5-1.6-0.1-2.5-2.4-2.2
		c-0.7,0.1-0.9-1.2-0.8-1.9c0.1-0.8,0.9-1.4,1.6-1.9C146.6,65.6,146.9,65.4,147.2,65.3z"/>
	<path d="M147.2,65.3l0.2,0.5c1.5-0.7,3.1-1.5,4.6-1.5c0.4,0,0.7,0,1.1,0.1l0.1-0.5l-0.1,0.5c1.7,0.5,3.2,0.6,4.5,0.8v-0.1l-0.1,0.1
		h0.1v-0.1l-0.1,0.1c0,0,0.2,0.1,0.3,0.3l0.4-0.4l-0.4,0.2c0.1,0.2,0.2,0.3,0.1,0.4v0.1v0.1c0,0.2,0.1,0.4,0.1,0.7
		c0,1-0.3,2.4-0.7,3.5c-0.2,0.5-0.4,1-0.5,1.4c-0.1,0.2-0.1,0.3-0.2,0.4V72l0.2,0.2l-0.2-0.2l0.2,0.2l-0.2-0.2l0.3,0.3l-0.2-0.4
		l-0.1,0.1l0.3,0.3l-0.2-0.4l0.3,0.4v-0.5c-0.1,0-0.2,0-0.3,0.1l0.3,0.4v-0.5v0.5l0.4-0.3c-0.1-0.1-0.2-0.2-0.4-0.2v0.5l0.4-0.3
		c-0.1-0.1-0.2-0.1-0.3-0.1H157c-0.1,0-0.2,0-0.3,0c-0.4,0.1-1.2,0.2-2.2,0.4c-0.9,0.2-2,0.3-2.9,0.3c-0.6,0-1.1-0.1-1.5-0.2
		c-0.3-0.1-0.5-0.1-0.7-0.1s-0.3,0-0.4-0.1c-0.2-0.1-0.4-0.1-0.5-0.1h-0.1l-0.1,0.1h0.2l-0.1-0.1l-0.1,0.1h0.2h-0.1h0.1h-0.1h0.1
		l-0.5-0.1l0.5,0.1c0.1-0.4,0.2-0.7,0.2-1.1c0-0.5-0.2-1-0.6-1.4c-0.4-0.3-1-0.5-1.7-0.5c-0.3,0-0.6,0-0.9,0.1c0,0-0.1-0.1-0.2-0.3
		c-0.1-0.2-0.1-0.5-0.1-0.7c0-0.1,0-0.2,0-0.3c0-0.2,0.2-0.5,0.4-0.8c0.3-0.3,0.6-0.5,1-0.8l-0.3-0.4l0.2,0.4
		c0.4-0.2,0.7-0.4,0.9-0.5L147.2,65.3l-0.2-0.5c-0.4,0.1-0.7,0.3-1.1,0.5c-0.4,0.3-0.8,0.5-1.1,0.9c-0.3,0.4-0.6,0.8-0.7,1.3
		l0.5,0.1l-0.5-0.1c0,0.1,0,0.3,0,0.4c0,0.4,0.1,0.8,0.2,1.2c0.1,0.2,0.2,0.4,0.4,0.5c0.2,0.2,0.4,0.3,0.7,0.3h0.1l-0.1-0.5l0.1,0.5
		c0.3,0,0.5-0.1,0.7-0.1c0.6,0,0.9,0.1,1,0.2c0.1,0.1,0.2,0.3,0.2,0.6c0,0.2,0,0.5-0.1,0.8v0.2c0,0.2,0.1,0.4,0.2,0.6
		c0.2,0.2,0.4,0.3,0.5,0.3c0.2,0.1,0.3,0.1,0.4,0.1l0.2-0.5l-0.2,0.4c0.3,0.1,0.6,0.2,0.8,0.2s0.4,0,0.5,0l0.1-0.5l-0.2,0.5
		c0.5,0.2,1.1,0.2,1.8,0.2c1.1,0,2.4-0.2,3.5-0.4c0.5-0.1,1-0.2,1.4-0.2c0.2,0,0.3-0.1,0.4-0.1h0.1V72v0.2V72v0.2v-0.4l-0.1,0.4h0.1
		v-0.4l-0.1,0.4l0.1-0.5l-0.3,0.3c0.1,0.1,0.2,0.1,0.3,0.1l0.1-0.5l-0.3,0.3l0.4-0.4l-0.4,0.3c0.1,0.1,0.2,0.2,0.4,0.2
		c0.1,0,0.2-0.1,0.3-0.1c0.1-0.1,0.1-0.1,0.1-0.1c0.1-0.1,0.1-0.2,0.2-0.3c0.2-0.5,0.6-1.3,0.9-2.4c0.3-1,0.6-2.2,0.6-3.2
		c0-0.3,0-0.6-0.1-0.9l-0.5,0.1h0.5c0-0.4-0.2-0.6-0.3-0.8v-0.1l-0.1-0.1c-0.1-0.1-0.2-0.2-0.4-0.3c-0.1-0.1-0.3-0.2-0.6-0.2v0.5
		l0.1-0.5c-1.3-0.2-2.8-0.3-4.3-0.8c-0.4-0.1-0.9-0.2-1.3-0.2c-1.8,0-3.5,0.9-5,1.6L147.2,65.3l-0.2-0.5L147.2,65.3z"/>
	<path d="M147.2,65.3l0.2,0.5c1.5-0.7,3.1-1.5,4.6-1.5c0.4,0,0.7,0,1.1,0.1l0.1-0.5l-0.1,0.5c1.7,0.5,3.2,0.6,4.5,0.8v-0.1l-0.1,0.1
		h0.1v-0.1l-0.1,0.1c0,0,0.2,0.1,0.3,0.3l0.4-0.4l-0.4,0.2c0.1,0.2,0.2,0.3,0.1,0.4v0.1v0.1c0,0.2,0.1,0.4,0.1,0.7
		c0,1-0.3,2.4-0.7,3.5c-0.2,0.5-0.4,1-0.5,1.4c-0.1,0.2-0.1,0.3-0.2,0.4V72l0.2,0.2l-0.2-0.2l0.2,0.2l-0.2-0.2l0.3,0.3l-0.2-0.4
		l-0.1,0.1l0.3,0.3l-0.2-0.4l0.3,0.4v-0.5c-0.1,0-0.2,0-0.3,0.1l0.3,0.4v-0.5v0.5l0.4-0.3c-0.1-0.1-0.2-0.2-0.4-0.2v0.5l0.4-0.3
		c-0.1-0.1-0.2-0.1-0.3-0.1H157c-0.1,0-0.2,0-0.3,0c-0.4,0.1-1.2,0.2-2.2,0.4c-0.9,0.2-2,0.3-2.9,0.3c-0.6,0-1.1-0.1-1.5-0.2
		c-0.3-0.1-0.5-0.1-0.7-0.1s-0.3,0-0.4-0.1c-0.2-0.1-0.4-0.1-0.5-0.1h-0.1l-0.1,0.1h0.2l-0.1-0.1l-0.1,0.1h0.2h-0.1h0.1h-0.1h0.1
		l-0.5-0.1l0.5,0.1c0.1-0.4,0.2-0.7,0.2-1.1c0-0.5-0.2-1-0.6-1.4c-0.4-0.3-1-0.5-1.7-0.5c-0.3,0-0.6,0-0.9,0.1c0,0-0.1-0.1-0.2-0.3
		c-0.1-0.2-0.1-0.5-0.1-0.7c0-0.1,0-0.2,0-0.3c0-0.2,0.2-0.5,0.4-0.8c0.3-0.3,0.6-0.5,1-0.8l-0.3-0.4l0.2,0.4
		c0.4-0.2,0.7-0.4,0.9-0.5L147.2,65.3l-0.2-0.5c-0.4,0.1-0.7,0.3-1.1,0.5c-0.4,0.3-0.8,0.5-1.1,0.9c-0.3,0.4-0.6,0.8-0.7,1.3
		l0.5,0.1l-0.5-0.1c0,0.1,0,0.3,0,0.4c0,0.4,0.1,0.8,0.2,1.2c0.1,0.2,0.2,0.4,0.4,0.5c0.2,0.2,0.4,0.3,0.7,0.3h0.1l-0.1-0.5l0.1,0.5
		c0.3,0,0.5-0.1,0.7-0.1c0.6,0,0.9,0.1,1,0.2c0.1,0.1,0.2,0.3,0.2,0.6c0,0.2,0,0.5-0.1,0.8v0.2c0,0.2,0.1,0.4,0.2,0.6
		c0.2,0.2,0.4,0.3,0.5,0.3c0.2,0.1,0.3,0.1,0.4,0.1l0.2-0.5l-0.2,0.4c0.3,0.1,0.6,0.2,0.8,0.2s0.4,0,0.5,0l0.1-0.5l-0.2,0.5
		c0.5,0.2,1.1,0.2,1.8,0.2c1.1,0,2.4-0.2,3.5-0.4c0.5-0.1,1-0.2,1.4-0.2c0.2,0,0.3-0.1,0.4-0.1h0.1V72v0.2V72v0.2v-0.4l-0.1,0.4h0.1
		v-0.4l-0.1,0.4l0.1-0.5l-0.3,0.3c0.1,0.1,0.2,0.1,0.3,0.1l0.1-0.5l-0.3,0.3l0.4-0.4l-0.4,0.3c0.1,0.1,0.2,0.2,0.4,0.2
		c0.1,0,0.2-0.1,0.3-0.1c0.1-0.1,0.1-0.1,0.1-0.1c0.1-0.1,0.1-0.2,0.2-0.3c0.2-0.5,0.6-1.3,0.9-2.4c0.3-1,0.6-2.2,0.6-3.2
		c0-0.3,0-0.6-0.1-0.9l-0.5,0.1h0.5c0-0.4-0.2-0.6-0.3-0.8v-0.1l-0.1-0.1c-0.1-0.1-0.2-0.2-0.4-0.3c-0.1-0.1-0.3-0.2-0.6-0.2v0.5
		l0.1-0.5c-1.3-0.2-2.8-0.3-4.3-0.8c-0.4-0.1-0.9-0.2-1.3-0.2c-1.8,0-3.5,0.9-5,1.6L147.2,65.3l-0.2-0.5L147.2,65.3z"/>
	<path d="M173.4,71.5c1.9-0.9,4-2,6-1.4c1.6,0.5,3.1,0.6,4.4,0.8c0.2,0,0.4,0.2,0.6,0.4c0.1,0.2,0.2,0.4,0.2,0.6
		c0.5,2.1-1.4,6.5-1.5,6.4c-0.1-0.1-5.1,1.2-7.1,0.5c-0.4-0.1-0.8,0-1.2-0.2c-0.3-0.1-0.9-0.2-0.8-0.6c0.5-1.6-0.1-2.5-2.4-2.2
		c-0.7,0.1-0.9-1.2-0.8-1.9c0.1-0.8,0.9-1.4,1.6-1.9C172.9,71.8,173.2,71.6,173.4,71.5z"/>
	<path d="M173.4,71.5l0.2,0.5c1.5-0.7,3.1-1.5,4.6-1.5c0.4,0,0.7,0,1.1,0.2l0.1-0.5l-0.1,0.5c1.7,0.5,3.2,0.6,4.5,0.8v-0.1v0.1v-0.1
		v0.1c0,0,0.2,0.1,0.3,0.3l0.4-0.4l-0.4,0.2c0.1,0.2,0.2,0.3,0.1,0.4v0.1c0,0.2,0.1,0.4,0.1,0.7c0,1-0.3,2.4-0.7,3.5
		c-0.2,0.5-0.4,1-0.5,1.4c-0.1,0.2-0.1,0.3-0.2,0.4v0.1l0.2,0.2l-0.2-0.2l0.2,0.2l-0.2-0.2l0.3,0.3l-0.2-0.4l-0.1,0.1l0.3,0.3
		l-0.2-0.4l0.3,0.4V78c-0.1,0-0.2,0.1-0.3,0.1l0.3,0.4V78v0.5l0.4-0.3c-0.1-0.1-0.2-0.2-0.4-0.2v0.5l0.4-0.3
		c-0.1-0.1-0.2-0.1-0.3-0.1h-0.1c-0.1,0-0.2,0-0.3,0c-0.4,0.1-1.2,0.2-2.2,0.4c-0.9,0.2-2,0.3-2.9,0.3c-0.6,0-1.1-0.1-1.5-0.2
		c-0.3-0.1-0.5-0.1-0.7-0.1s-0.3,0-0.4-0.1c-0.2-0.1-0.4-0.1-0.5-0.2h-0.1l-0.1,0.1h0.2l-0.1-0.1l-0.1,0.1h0.2h-0.1h0.1h-0.1h0.1
		L174,78l0.5,0.1c0.1-0.4,0.2-0.7,0.2-1.1c0-0.5-0.2-1-0.6-1.4c-0.4-0.3-1-0.5-1.7-0.5c-0.3,0-0.6,0-0.9,0.1c0,0-0.1-0.1-0.2-0.3
		c-0.1-0.2-0.1-0.5-0.1-0.7c0-0.1,0-0.2,0-0.3c0-0.2,0.2-0.5,0.4-0.8c0.3-0.3,0.6-0.5,1-0.8l-0.3-0.4l0.2,0.5c0.5-0.2,0.9-0.4,1-0.5
		L173.4,71.5l0.2,0.5L173.4,71.5l-0.2-0.4c-0.2,0.1-0.5,0.3-1,0.5h-0.1c-0.4,0.3-0.8,0.5-1.1,0.9c-0.3,0.4-0.6,0.8-0.7,1.3l0.5,0.1
		l-0.5-0.1c0,0.1,0,0.3,0,0.4c0,0.4,0.1,0.8,0.2,1.2c0.1,0.2,0.2,0.4,0.4,0.5c0.2,0.2,0.4,0.3,0.7,0.3h0.1l-0.1-0.5l0.1,0.5
		c0.3,0,0.5-0.1,0.7-0.1c0.6,0,0.9,0.1,1,0.2c0.1,0.1,0.2,0.3,0.2,0.6c0,0.2,0,0.5-0.1,0.8v0.2c0,0.2,0.1,0.4,0.2,0.6
		c0.2,0.2,0.4,0.3,0.5,0.3c0.2,0.1,0.3,0.1,0.4,0.1l0.2-0.5l-0.2,0.4c0.3,0.1,0.6,0.2,0.8,0.2s0.4,0,0.5,0l0.1-0.5l-0.2,0.5
		c0.5,0.2,1.1,0.2,1.8,0.2c1.1,0,2.4-0.2,3.5-0.4c0.5-0.1,1-0.2,1.4-0.2c0.2,0,0.3-0.1,0.4-0.1h0.1v-0.2v0.2v-0.2v0.2v-0.4l-0.1,0.4
		h0.1v-0.4l-0.1,0.4L183,78l-0.3,0.3c0.1,0.1,0.2,0.1,0.3,0.1l0.1-0.5l-0.3,0.3l0.4-0.4l-0.4,0.3c0.1,0.1,0.2,0.2,0.4,0.2
		c0.1,0,0.2-0.1,0.3-0.1c0.1-0.1,0.1-0.1,0.1-0.1c0.1-0.1,0.1-0.2,0.2-0.3c0.2-0.5,0.6-1.3,0.9-2.4c0.3-1,0.6-2.2,0.6-3.2
		c0-0.3,0-0.6-0.1-0.9l-0.5,0.1h0.5c0-0.4-0.2-0.6-0.3-0.8v-0.1l-0.1-0.1c-0.1-0.1-0.2-0.2-0.4-0.3c-0.1-0.1-0.3-0.2-0.6-0.2v0.5
		l0.1-0.5c-1.3-0.2-2.8-0.3-4.3-0.8c-0.4-0.1-0.9-0.2-1.3-0.2c-1.8,0-3.5,0.9-5,1.6L173.4,71.5z"/>
	<path d="M173.4,71.5l0.2,0.5c1.5-0.7,3.1-1.5,4.6-1.5c0.4,0,0.7,0,1.1,0.2l0.1-0.5l-0.1,0.5c1.7,0.5,3.2,0.6,4.5,0.8v-0.1v0.1v-0.1
		v0.1c0,0,0.2,0.1,0.3,0.3l0.4-0.4l-0.4,0.2c0.1,0.2,0.2,0.3,0.1,0.4v0.1c0,0.2,0.1,0.4,0.1,0.7c0,1-0.3,2.4-0.7,3.5
		c-0.2,0.5-0.4,1-0.5,1.4c-0.1,0.2-0.1,0.3-0.2,0.4v0.1l0.2,0.2l-0.2-0.2l0.2,0.2l-0.2-0.2l0.3,0.3l-0.2-0.4l-0.1,0.1l0.3,0.3
		l-0.2-0.4l0.3,0.4V78c-0.1,0-0.2,0.1-0.3,0.1l0.3,0.4V78v0.5l0.4-0.3c-0.1-0.1-0.2-0.2-0.4-0.2v0.5l0.4-0.3
		c-0.1-0.1-0.2-0.1-0.3-0.1h-0.1c-0.1,0-0.2,0-0.3,0c-0.4,0.1-1.2,0.2-2.2,0.4c-0.9,0.2-2,0.3-2.9,0.3c-0.6,0-1.1-0.1-1.5-0.2
		c-0.3-0.1-0.5-0.1-0.7-0.1s-0.3,0-0.4-0.1c-0.2-0.1-0.4-0.1-0.5-0.2h-0.1l-0.1,0.1h0.2l-0.1-0.1l-0.1,0.1h0.2h-0.1h0.1h-0.1h0.1
		L174,78l0.5,0.1c0.1-0.4,0.2-0.7,0.2-1.1c0-0.5-0.2-1-0.6-1.4c-0.4-0.3-1-0.5-1.7-0.5c-0.3,0-0.6,0-0.9,0.1c0,0-0.1-0.1-0.2-0.3
		c-0.1-0.2-0.1-0.5-0.1-0.7c0-0.1,0-0.2,0-0.3c0-0.2,0.2-0.5,0.4-0.8c0.3-0.3,0.6-0.5,1-0.8l-0.3-0.4l0.2,0.5c0.5-0.2,0.9-0.4,1-0.5
		L173.4,71.5l0.2,0.5L173.4,71.5l-0.2-0.4c-0.2,0.1-0.5,0.3-1,0.5h-0.1c-0.4,0.3-0.8,0.5-1.1,0.9c-0.3,0.4-0.6,0.8-0.7,1.3l0.5,0.1
		l-0.5-0.1c0,0.1,0,0.3,0,0.4c0,0.4,0.1,0.8,0.2,1.2c0.1,0.2,0.2,0.4,0.4,0.5c0.2,0.2,0.4,0.3,0.7,0.3h0.1l-0.1-0.5l0.1,0.5
		c0.3,0,0.5-0.1,0.7-0.1c0.6,0,0.9,0.1,1,0.2c0.1,0.1,0.2,0.3,0.2,0.6c0,0.2,0,0.5-0.1,0.8v0.2c0,0.2,0.1,0.4,0.2,0.6
		c0.2,0.2,0.4,0.3,0.5,0.3c0.2,0.1,0.3,0.1,0.4,0.1l0.2-0.5l-0.2,0.4c0.3,0.1,0.6,0.2,0.8,0.2s0.4,0,0.5,0l0.1-0.5l-0.2,0.5
		c0.5,0.2,1.1,0.2,1.8,0.2c1.1,0,2.4-0.2,3.5-0.4c0.5-0.1,1-0.2,1.4-0.2c0.2,0,0.3-0.1,0.4-0.1h0.1v-0.2v0.2v-0.2v0.2v-0.4l-0.1,0.4
		h0.1v-0.4l-0.1,0.4L183,78l-0.3,0.3c0.1,0.1,0.2,0.1,0.3,0.1l0.1-0.5l-0.3,0.3l0.4-0.4l-0.4,0.3c0.1,0.1,0.2,0.2,0.4,0.2
		c0.1,0,0.2-0.1,0.3-0.1c0.1-0.1,0.1-0.1,0.1-0.1c0.1-0.1,0.1-0.2,0.2-0.3c0.2-0.5,0.6-1.3,0.9-2.4c0.3-1,0.6-2.2,0.6-3.2
		c0-0.3,0-0.6-0.1-0.9l-0.5,0.1h0.5c0-0.4-0.2-0.6-0.3-0.8v-0.1l-0.1-0.1c-0.1-0.1-0.2-0.2-0.4-0.3c-0.1-0.1-0.3-0.2-0.6-0.2v0.5
		l0.1-0.5c-1.3-0.2-2.8-0.3-4.3-0.8c-0.4-0.1-0.9-0.2-1.3-0.2c-1.8,0-3.5,0.9-5,1.6L173.4,71.5z"/>
</g>
</svg>
