<?xml version="1.0" encoding="utf-8"?>
<!-- Generator: Adobe Illustrator 16.0.0, SVG Export Plug-In . SVG Version: 6.00 Build 0)  -->
<!DOCTYPE svg PUBLIC "-//W3C//DTD SVG 1.1//EN" "http://www.w3.org/Graphics/SVG/1.1/DTD/svg11.dtd">
<svg version="1.1" id="Layer_1" xmlns="http://www.w3.org/2000/svg" xmlns:xlink="http://www.w3.org/1999/xlink" x="0px" y="0px"
	 width="112.6px" height="118px" viewBox="67.5 -25.3 112.6 118" style="enable-background:new 67.5 -25.3 112.6 118;"
	 xml:space="preserve">
<g>
	<path d="M82-5.7H68v9.3h14V-5.7z M140,61.8l-2.4-4l8.9-5.3V38.2l-39.7,23.6l-2.4-4l14.9-8.8V31.6H86.7v18.7H82v-42H68v83.9h111.6
		v-54L140,61.8z M128.6,75.1h-9.3v-9.3h9.3V75.1z M161.3,75.1H152v-9.3h9.3V75.1z M76.2-10.2c1,0,1.8-0.5,2.2-1.3
		c0.7,0.3,1.4,0.5,2.1,0.5c2.2,0,4.1-1.4,4.8-3.4c0.1,0,0.3,0,0.4,0.1c0.8,3.4,3.9,5.9,7.5,5.9c2.1,0,4-0.8,5.4-2.2
		c0.9,1.3,2.5,2.2,4.2,2.2s3.2-0.8,4.1-2.1c0.6,0.2,1.2,0.4,1.9,0.4c2.8,0,5.2-2.3,5.2-5.2c0-2.8-2.3-5.1-5.2-5.1
		c-1.7,0-3.2,0.8-4.1,2.1c-0.6-0.2-1.2-0.4-1.9-0.4c-0.8,0-1.5,0.2-2.2,0.5c-0.9-3.3-3.9-5.7-7.4-5.7c-1.2,0-2.3,0.3-3.2,0.7
		c-0.9-0.9-2.2-1.5-3.6-1.5c-2.2,0-4.1,1.4-4.8,3.4c-0.4-0.1-0.7-0.1-1.1-0.1c-2.8,0-5.2,2.3-5.2,5.1c0,0.3,0,0.6,0.1,1
		c-1.1,0.3-1.9,1.3-1.9,2.5C73.6-11.4,74.8-10.2,76.2-10.2z M103.9,17.7c-2.5,0.5-4.2,2.9-3.7,5.4s2.9,4.2,5.4,3.7s4.2-2.9,3.7-5.4
		C108.9,18.9,106.4,17.2,103.9,17.7z M109.6,14.6c0.9,5.1,5.8,8.4,10.9,7.4c0.9-0.2,1.7-0.4,2.4-0.8c3.5,2.7,8.1,3.9,12.8,3
		c3.6-0.7,6.6-2.5,8.9-4.9c2.1,2.2,5.2,3.3,8.4,2.7c5.1-0.9,8.4-5.8,7.4-10.9c-0.9-5.1-5.8-8.4-10.9-7.4c-0.4,0.1-0.8,0.2-1.2,0.3
		C146.1-4.2,138-9.4,129.5-7.8c-6.3,1.2-11,5.8-12.7,11.5C112,4.7,108.6,9.6,109.6,14.6z"/>
	<path d="M82-5.7v-0.5H67.5V4.1h15V-6.2H82V-5.7h-0.5v8.8h-13v-8.3H82V-5.7h-0.5H82z M140,61.8l0.4-0.3l-2.1-3.6l8.7-5.2V37.3
		l-40,23.8l-1.9-3.1l14.7-8.7V31.1H86.2v18.7h-3.7v-42h-15v84.9h112.6V37.3l-40.4,24L140,61.8l0.4-0.3L140,61.8l0.3,0.4l38.8-23.1
		v52.6H68.5V8.8h13v42h5.7V32.1h31.6v16.6l-15.1,8.9l2.9,4.9L146,39.1v13.1l-9.1,5.4l2.9,4.9l0.4-0.3L140,61.8z M128.6,75.1v-0.5
		h-8.8v-8.3h8.3v8.8H128.6v-0.5V75.1h0.5v-9.8h-10.3v10.3h10.3v-0.5H128.6z M161.3,75.1v-0.5h-8.8v-8.3h8.3v8.8H161.3v-0.5V75.1h0.5
		v-9.8h-10.3v10.3h10.3v-0.5H161.3z M76.2-10.2v0.5c1.2,0,2.2-0.6,2.6-1.6l-0.4-0.2L78.2-11c0.7,0.3,1.5,0.5,2.3,0.5
		c2.4,0,4.5-1.5,5.3-3.7l-0.5-0.2v0.5h0.1v-0.2L85.3-14l0.1,0.1v-0.2L85.3-14l0.4-0.4l-0.5,0.1c0.9,3.6,4.2,6.3,8,6.3
		c2.2,0,4.3-0.9,5.8-2.3l-0.4-0.4l-0.4,0.3c1,1.4,2.7,2.4,4.6,2.4s3.5-0.9,4.5-2.3l-0.4-0.3l-0.2,0.5c0.6,0.2,1.3,0.4,2.1,0.4
		c3.1,0,5.7-2.5,5.7-5.7c0-1.5-0.6-2.9-1.7-4c-1-1-2.5-1.6-4-1.6c-1.9,0-3.5,0.9-4.5,2.3l0.4,0.3l0.2-0.5c-0.6-0.2-1.3-0.4-2.1-0.4
		c-0.9,0-1.7,0.2-2.4,0.5l0.2,0.5l0.5-0.1c-1-3.5-4.1-6.1-7.9-6.1c-1.3,0-2.5,0.3-3.4,0.7l0.2,0.5l0.4-0.4c-1-1-2.4-1.6-4-1.6
		c-2.4,0-4.5,1.5-5.3,3.7l0.5,0.2l0.1-0.5C81.2-22,80.9-22,80.5-22c-3.1,0-5.7,2.5-5.7,5.6c0,0.3,0,0.7,0.1,1.1l0.5-0.1l-0.1-0.5
		c-1.3,0.4-2.3,1.6-2.3,3c0.1,1.7,1.5,3.1,3.2,3.1V-10.2v-0.5c-1.1,0-2.1-1-2.2-2.1h-0.5H74c0-1,0.6-1.8,1.5-2l0.5-0.1l-0.1-0.5
		c-0.1-0.3-0.1-0.6-0.1-0.9c0-1.3,0.5-2.4,1.4-3.2c0.9-0.8,2-1.4,3.3-1.4c0.4,0,0.6,0,1,0.1l0.4,0.1l0.2-0.4
		c0.6-1.8,2.3-3.1,4.3-3.1c1.3,0,2.4,0.5,3.2,1.4l0.2,0.2l0.3-0.1c0.8-0.4,1.9-0.7,3-0.7c3.3,0,6.1,2.2,6.9,5.3l0.2,0.6l0.5-0.2
		c0.7-0.3,1.3-0.5,2-0.5c0.6,0,1.1,0.2,1.7,0.4l0.4,0.1L105-18c0.8-1.2,2.1-1.9,3.7-1.9c2.6,0,4.7,2.1,4.7,4.6
		c0,1.3-0.5,2.5-1.4,3.3c-0.9,0.8-2,1.4-3.3,1.4c-0.6,0-1.1-0.2-1.7-0.4l-0.4-0.1l-0.2,0.3c-0.8,1.2-2.1,1.9-3.7,1.9
		c-1.5,0-3-0.8-3.8-2l-0.3-0.5L98.2-11c-1.3,1.3-3.1,2.1-5,2.1c-3.4,0-6.3-2.3-7-5.5v-0.1l-0.1-0.1c-0.2-0.2-0.3-0.2-0.5-0.2
		c-0.1,0-0.2,0-0.3,0h-0.4l-0.1,0.3c-0.6,1.8-2.3,3.1-4.3,3.1c-0.6,0-1.2-0.2-1.9-0.5l-0.4-0.2L78-11.7c-0.3,0.6-0.9,1-1.8,1V-10.2z
		 M103.9,17.7l-0.1-0.5c-2.4,0.5-4.2,2.6-4.2,5c0,0.3,0,0.6,0.1,1c0.5,2.4,2.6,4.2,5,4.2c0.3,0,0.6,0,1-0.1c2.4-0.5,4.2-2.6,4.2-5
		c0-0.3,0-0.6-0.1-1l-0.5,0.1l0.5-0.1c-0.4-2.5-2.6-4.2-5-4.2c-0.3,0-0.7,0-1,0.1L103.9,17.7l0.1,0.5c0.3-0.1,0.5-0.1,0.8-0.1
		c1.9,0,3.7,1.4,4,3.4c0.1,0.3,0.1,0.5,0.1,0.8c0,1.9-1.4,3.6-3.4,4c-0.3,0.1-0.5,0.1-0.8,0.1c-1.9,0-3.6-1.4-4-3.4
		c-0.1-0.3-0.1-0.5-0.1-0.8c0-1.9,1.4-3.6,3.4-4L103.9,17.7z M109.6,14.6l-0.5,0.1c0.8,4.7,4.9,8,9.6,8c0.6,0,1.3-0.1,1.9-0.2
		c0.9-0.2,1.8-0.4,2.5-0.9l-0.2-0.4l-0.3,0.4c2.8,2.2,6.3,3.4,10,3.4c1.1,0,2.1-0.1,3.2-0.3c3.7-0.7,6.8-2.6,9.2-5l-0.4-0.3
		l-0.4,0.3c1.8,1.9,4.3,3,7,3c0.6,0,1.2-0.1,1.8-0.2V22l0.1,0.5c4.7-0.8,8-4.9,8-9.6c0-0.6-0.1-1.3-0.2-1.9l-0.5,0.1l0.5-0.1
		c-0.8-4.7-4.9-8-9.6-8c-0.6,0-1.3,0.1-1.9,0.2c-0.4,0.1-0.8,0.2-1.2,0.3l0.1,0.5l0.5-0.1c-2-7.4-8.7-12.5-16.2-12.5
		c-1,0-2.1,0.1-3.2,0.3c-6.5,1.2-11.3,6-13.1,11.8l0.5,0.1l-0.1-0.5c-4.5,0.9-7.8,5-7.8,9.6c0,0.6,0.1,1.2,0.2,1.9H109.6l-0.5,0.1
		L109.6,14.6l0.5-0.1c-0.1-0.6-0.2-1.1-0.2-1.7c0-4.1,3-7.8,7-8.6l0.3-0.1l0.1-0.3c1.7-5.5,6.2-10,12.3-11.2c1-0.2,2-0.3,3-0.3
		C139.7-7.7,146-3,147.8,4l0.1,0.5l0.5-0.1c0.4-0.1,0.8-0.2,1.2-0.3l-0.1-0.5l0.1,0.5c0.6-0.1,1.2-0.2,1.7-0.2
		c4.2,0,7.8,2.9,8.6,7.2c0.1,0.6,0.2,1.2,0.2,1.7c0,4.2-2.9,7.8-7.2,8.6c-0.6,0.1-1.1,0.2-1.6,0.2c-2.4,0-4.7-1-6.3-2.7l-0.4-0.4
		l-0.4,0.4c-2.2,2.3-5.1,4.1-8.6,4.8c-1,0.2-2,0.3-3,0.3c-3.5,0-6.8-1.2-9.4-3.2l-0.3-0.2l-0.3,0.2c-0.6,0.4-1.4,0.5-2.3,0.7
		l0.1,0.5l-0.1-0.5c-0.6,0.1-1.2,0.2-1.7,0.2c-4.2,0-7.8-2.9-8.6-7.2L109.6,14.6z"/>
</g>
</svg>
