<?xml version="1.0" encoding="utf-8"?>
<!-- Generator: Adobe Illustrator 16.0.0, SVG Export Plug-In . SVG Version: 6.00 Build 0)  -->
<!DOCTYPE svg PUBLIC "-//W3C//DTD SVG 1.1//EN" "http://www.w3.org/Graphics/SVG/1.1/DTD/svg11.dtd">
<svg version="1.1" id="Layer_1" xmlns="http://www.w3.org/2000/svg" xmlns:xlink="http://www.w3.org/1999/xlink" x="0px" y="0px"
	 width="113.6px" height="108.3px" viewBox="68.2 -14 113.6 108.3" style="enable-background:new 68.2 -14 113.6 108.3;"
	 xml:space="preserve">
<g>
	<path d="M70.8-1.4c0.4,0,0.8,0,1-0.4C75.5-4,86.2-10,90.5-10s11.9,5.8,14.4,8.1c0.8,0.6,1.8,0.7,2.5,0.2c3.3-2.2,13-8.1,17.5-8.1
		s14.8,5.8,18.3,8.2c0.8,0.4,1.8,0.4,2.3-0.2c2.7-2.4,10.5-8.1,15.4-8.1c5.1,0,13.4,5.8,16.1,8.1c0.8,0.7,2.1,0.6,2.7-0.2
		c0.8-0.7,0.6-2.1-0.2-2.6c-1.2-0.9-11.3-8.8-18.7-8.8c-6,0-13.8,5.6-16.7,8.1c-3.7-2.2-13.8-8.1-19.3-8.1c-5.4,0-15,5.8-18.5,8.1
		c-2.9-2.4-10.5-8.1-15.9-8.1c-6.2,0-19.3,7.9-20.8,8.8c-0.8,0.2-1.2,1.5-0.6,2.2C69.4-1.8,70.2-1.4,70.8-1.4z"/>
	<path d="M70.8-1.4v0.5c0.2,0,0.4,0,0.7-0.1s0.6-0.3,0.7-0.6l-0.4-0.2l0.3,0.4c1.8-1.1,5.4-3.1,9.1-4.9C83-7.2,84.8-8,86.5-8.6
		c1.6-0.6,3.1-0.9,4-0.9c1,0,2.2,0.3,3.5,0.9c4,1.7,8.7,5.4,10.5,7.1c0.5,0.4,1.2,0.6,1.8,0.6c0.5,0,0.9-0.1,1.3-0.4l-0.3-0.4
		l0.3,0.4c1.6-1.1,4.9-3.1,8.3-4.8c1.7-0.9,3.4-1.7,5-2.2c1.6-0.6,3-0.9,4-0.9s2.5,0.3,4.1,0.9c4.9,1.7,11.3,5.4,13.9,7.2
		c0.4,0.2,0.9,0.3,1.4,0.3c0.6,0,1.2-0.2,1.5-0.7l-0.4-0.3l0.3,0.4c1.3-1.2,3.9-3.2,6.8-4.9c2.9-1.7,6-3.1,8.3-3.1
		c2.4,0,5.7,1.4,8.7,3.1c3,1.7,5.8,3.7,7.1,4.9l0.3-0.4l-0.3,0.4c0.5,0.4,1,0.6,1.6,0.6c0.7,0,1.4-0.3,1.8-0.9L179.7-2l0.3,0.4
		c0.5-0.4,0.7-1,0.7-1.6c0-0.7-0.3-1.4-0.9-1.8l-0.3,0.4l0.3-0.4c-0.6-0.4-3.4-2.7-7.1-4.8c-3.6-2.1-8.1-4.1-11.9-4.1
		c-3.2,0-6.7,1.4-9.8,3.2c-3.1,1.7-5.8,3.8-7.3,5l0.3,0.4l0.3-0.4c-1.9-1.1-5.3-3.1-9-4.9c-3.7-1.8-7.6-3.3-10.5-3.3
		s-6.6,1.5-10.2,3.2c-3.5,1.8-6.8,3.8-8.6,4.9l0.3,0.4l0.3-0.4c-1.5-1.2-4.1-3.3-7.1-5c-3-1.7-6.3-3.2-9.1-3.2
		c-1.7,0-3.7,0.5-5.8,1.3c-6.5,2.4-14.1,7-15.3,7.7l0.3,0.4l-0.1-0.5c-0.4,0.1-0.7,0.4-0.9,0.7c-0.2,0.3-0.3,0.7-0.3,1.1
		c0,0.4,0.1,0.8,0.4,1.2L69-2.4l-0.4,0.3c0.3,0.4,0.6,0.7,1,0.9C70-1,70.4-0.9,70.8-0.9V-1.4v-0.5c-0.2,0-0.5-0.1-0.7-0.2
		c-0.3-0.1-0.5-0.3-0.6-0.6c-0.1-0.1-0.2-0.3-0.2-0.5c0-0.2,0.1-0.4,0.2-0.6c0.1-0.2,0.2-0.3,0.3-0.3h0.1H70
		c0.7-0.4,4.4-2.6,8.6-4.7c2.1-1,4.4-2,6.5-2.8c2.1-0.7,4-1.2,5.5-1.2c2.5,0,5.7,1.4,8.6,3.1c2.9,1.7,5.5,3.7,6.9,4.9l0.3,0.2
		l0.3-0.2c1.7-1.1,5-3.2,8.5-4.9c3.5-1.7,7.2-3.1,9.7-3.1c2.6,0,6.5,1.4,10.1,3.2c3.7,1.7,7.1,3.8,8.9,4.9l0.3,0.2l0.3-0.2
		c1.4-1.2,4.1-3.2,7.1-4.9c3-1.7,6.4-3.1,9.3-3c3.5,0,7.9,1.9,11.4,4c3.6,2.1,6.4,4.3,7,4.7c0.3,0.2,0.5,0.6,0.5,1
		c0,0.3-0.1,0.6-0.3,0.8c-0.2,0.3-0.6,0.5-1,0.5c-0.3,0-0.7-0.1-0.9-0.3c-1.4-1.2-4.1-3.2-7.2-5c-3.1-1.8-6.5-3.2-9.2-3.3
		c-2.6,0-5.8,1.5-8.8,3.2c-2.9,1.7-5.6,3.8-7,5c-0.2,0.2-0.4,0.3-0.8,0.3c-0.3,0-0.6-0.1-0.9-0.2l-0.2,0.4l0.3-0.4
		c-1.8-1.2-5.2-3.3-8.8-5c-1.8-0.9-3.6-1.7-5.3-2.3c-1.7-0.6-3.2-1-4.4-1s-2.7,0.4-4.3,1c-4.9,1.8-10.9,5.5-13.4,7.2
		c-0.2,0.2-0.5,0.2-0.7,0.2c-0.4,0-0.8-0.1-1.2-0.4l-0.3,0.4l0.3-0.4c-1.3-1.2-3.8-3.2-6.6-5c-1.4-0.9-2.8-1.7-4.2-2.3
		c-1.4-0.6-2.7-1-3.9-1s-2.7,0.4-4.4,1C81.5-7.7,74.8-3.9,72-2.2l-0.1,0.1L71.4-2l-0.1,0.1c-0.1,0-0.2,0-0.4,0L70.8-1.4L70.8-1.4z"
		/>
	<path d="M143,47.7l-16.5,16.8V5.6l15,17.1c0.4,0.5,0.9,0.6,1.5,0.6c0.4,0,0.7-0.2,1.1-0.3c0.7-0.5,1.1-1.4,0.4-2.1l-18.4-21
		c0,0,0,0-0.2,0c-0.2-0.2-0.2-0.2-0.4-0.3l-0.2-0.2c-0.2,0-0.4-0.2-0.6-0.2h-0.2c-0.4,0-0.9,0.2-1.3,0.5c0,0,0,0-0.2,0.2l-20,20.5
		c-0.6,0.6-0.6,1.7,0.4,2.1c0.7,0.5,2.1,0.5,2.6-0.3l16.7-17.1v59.4l-15.4-17.4c-0.6-0.6-1.7-0.9-2.6-0.3c-0.7,0.5-1.1,1.4-0.4,2.1
		l18.6,21c0.4,0.5,0.9,0.6,1.5,0.6c0.6,0,1.1-0.2,1.5-0.6L146,49.5c0.6-0.6,0.6-1.7-0.4-2.1C144.8,46.9,143.5,47,143,47.7z"/>
	<path d="M143,47.7l-0.4-0.4l-15.6,16V6.9L141.1,23l0.4-0.3l-0.4,0.3c0.3,0.3,0.6,0.5,0.9,0.6s0.7,0.1,1,0.1s0.5-0.1,0.7-0.1
		c0.2-0.1,0.4-0.1,0.5-0.2h0.1l0.1-0.1c0.5-0.4,1-1,1-1.7c0-0.4-0.2-0.8-0.5-1.2l-0.4,0.4l0.4-0.3L126.3-0.6h-0.2c0,0,0,0-0.2,0v0.5
		l0.4-0.4c-0.1-0.1-0.2-0.2-0.3-0.2c-0.1-0.1-0.2-0.1-0.3-0.2l-0.2,0.4l0.4-0.4L125.7-1l-0.1-0.1h-0.2V-1v-0.1V-1v-0.1
		c0,0-0.1,0-0.2-0.1c-0.1,0-0.2-0.1-0.4-0.1h-0.2c-0.6,0-1.1,0.2-1.6,0.6c0,0,0,0-0.2,0.2l-20,20.5l0.4,0.3l-0.4-0.4
		c-0.4,0.4-0.6,0.8-0.6,1.3c0,0.3,0.1,0.6,0.3,0.9c0.2,0.3,0.5,0.5,0.8,0.7l0.2-0.5l-0.3,0.4c0.4,0.3,1,0.4,1.5,0.4
		c0.3,0,0.7-0.1,1-0.2c0.3-0.1,0.6-0.4,0.8-0.7l-0.4-0.3l0.4,0.3L122.3,6v56.9l-14.5-16.4c-0.5-0.5-1.1-0.8-1.9-0.8
		c-0.5,0-0.9,0.1-1.4,0.4c-0.5,0.4-1,1-1,1.7c0,0.4,0.2,0.8,0.5,1.2l0.4-0.4l-0.4,0.3l18.6,21l0.4-0.3l-0.4,0.3
		c0.3,0.3,0.6,0.5,0.9,0.6c0.3,0.1,0.7,0.1,1,0.1c0.7,0,1.4-0.3,1.9-0.7l20.1-20.4c0.4-0.4,0.6-0.8,0.6-1.3c0-0.3-0.1-0.6-0.3-0.9
		c-0.2-0.3-0.5-0.5-0.8-0.7l-0.2,0.5l0.3-0.4c-0.4-0.3-0.9-0.4-1.4-0.4c-0.7,0-1.4,0.2-1.8,0.8L143,47.7l-0.4-0.4L143,47.7l0.4,0.3
		c0.1-0.2,0.6-0.4,1-0.4c0.3,0,0.7,0.1,0.9,0.2c0.2,0.1,0.3,0.2,0.4,0.3c0.1,0.1,0.1,0.2,0.1,0.4s-0.1,0.5-0.3,0.6l-20.1,20.4
		c-0.3,0.3-0.7,0.4-1.1,0.5c-0.3,0-0.5,0-0.7-0.1s-0.3-0.1-0.5-0.3l-18.6-21c-0.2-0.2-0.2-0.3-0.2-0.5c0-0.3,0.2-0.6,0.6-0.9
		l-0.3-0.4l0.3,0.4c0.3-0.2,0.5-0.2,0.8-0.2c0.4,0,0.9,0.2,1.2,0.5l0.4-0.4l-0.4,0.3l16.3,18.4V3.9l-17.6,18
		c-0.1,0.1-0.2,0.2-0.4,0.3c-0.2,0.1-0.4,0.1-0.6,0.1c-0.4,0-0.7-0.1-0.9-0.3h-0.1c-0.2-0.1-0.3-0.2-0.4-0.3
		c-0.1-0.1-0.1-0.2-0.1-0.4c0-0.2,0.1-0.5,0.3-0.6l20-20.5L123-0.1l0.4,0.4c0.2-0.2,0.2-0.2,0.2-0.2l-0.4-0.4l0.3,0.4
		c0.3-0.2,0.8-0.4,1-0.4h0.2v-0.2v0.1v-0.2v0.1c0,0,0.1,0,0.2,0.1c0.1,0,0.2,0.1,0.4,0.1v-0.5l-0.4,0.4l0.2,0.2l0.1,0.1h0.1
		c0.1,0.1,0.1,0.1,0.1,0.1s0,0,0.1,0.1l0.1,0.1h0.2c0.2,0,0.2,0,0.2,0v-0.5L125.6,0L144,21c0.2,0.2,0.2,0.3,0.2,0.5
		c0,0.3-0.2,0.6-0.6,0.9l0.3,0.4l-0.1-0.5c-0.2,0.1-0.4,0.1-0.6,0.2c-0.2,0.1-0.3,0.1-0.4,0.1c-0.3,0-0.5,0-0.7-0.1
		s-0.3-0.1-0.4-0.3L126,4.3v61.5L143.4,48L143,47.7z"/>
	<path d="M179.4,10.1h-22.5c-1.1,0-1.9,0.7-1.9,1.9s0.7,1.9,1.9,1.9h22.5c1.1,0,1.9-0.7,1.9-1.9S180.5,10.1,179.4,10.1z"/>
	<path d="M179.4,10.1V9.6h-22.5c-0.7,0-1.3,0.2-1.7,0.6c-0.4,0.4-0.7,1.1-0.7,1.8s0.2,1.3,0.6,1.8c0.4,0.4,1.1,0.6,1.8,0.6h22.5
		c0.7,0,1.3-0.2,1.7-0.6c0.4-0.4,0.7-1.1,0.7-1.8s-0.2-1.3-0.7-1.8c-0.4-0.4-1.1-0.6-1.7-0.6V10.1v0.5c0.4,0,0.8,0.1,1,0.4
		c0.2,0.2,0.4,0.5,0.4,1s-0.2,0.8-0.4,1c-0.2,0.2-0.6,0.4-1,0.4h-22.5c-0.5,0-0.8-0.1-1-0.4c-0.2-0.2-0.4-0.5-0.4-1s0.2-0.8,0.4-1
		c0.2-0.2,0.6-0.4,1-0.4h22.5V10.1z"/>
	<path d="M179.4,32.9h-22.5c-1.1,0-1.9,0.7-1.9,1.9c0,1.1,0.7,1.9,1.9,1.9h22.5c1.1,0,1.9-0.7,1.9-1.9
		C181.2,33.7,180.5,32.9,179.4,32.9z"/>
	<path d="M179.4,32.9v-0.5h-22.5c-0.7,0-1.3,0.2-1.7,0.6c-0.4,0.4-0.7,1.1-0.7,1.8c0,0.7,0.2,1.3,0.6,1.7c0.4,0.4,1.1,0.7,1.8,0.7
		h22.5c0.7,0,1.3-0.2,1.7-0.6c0.4-0.4,0.7-1.1,0.7-1.8c-0.1-0.6-0.3-1.2-0.7-1.7c-0.4-0.4-1-0.7-1.7-0.7V32.9v0.5
		c0.4,0,0.7,0.1,1,0.4c0.2,0.2,0.4,0.6,0.4,1.1h0.5h-0.5c0,0.5-0.2,0.8-0.4,1c-0.2,0.2-0.6,0.4-1,0.4h-22.5c-0.5,0-0.8-0.2-1-0.4
		c-0.2-0.2-0.4-0.6-0.4-1c0-0.5,0.2-0.8,0.4-1c0.2-0.2,0.6-0.4,1-0.4h22.5V32.9z"/>
	<path d="M93.1,10.1H70.6c-1.1,0-1.9,0.7-1.9,1.9s0.7,1.9,1.9,1.9h22.5c1.1,0,1.9-0.7,1.9-1.9S94.3,10.1,93.1,10.1z"/>
	<path d="M93.1,10.1V9.6H70.6c-0.7,0-1.3,0.2-1.7,0.6c-0.4,0.4-0.7,1.1-0.7,1.8s0.2,1.3,0.6,1.8c0.4,0.4,1.1,0.6,1.8,0.6h22.5
		c0.7,0,1.3-0.2,1.7-0.6c0.4-0.4,0.7-1.1,0.7-1.8s-0.2-1.3-0.6-1.8c-0.4-0.4-1.1-0.6-1.8-0.6V10.1v0.5c0.5,0,0.8,0.1,1,0.4
		c0.2,0.2,0.4,0.5,0.4,1s-0.2,0.8-0.4,1s-0.6,0.4-1,0.4H70.6c-0.5,0-0.8-0.1-1-0.4c-0.2-0.2-0.4-0.5-0.4-1s0.2-0.8,0.4-1
		s0.6-0.4,1-0.4h22.5V10.1z"/>
	<path d="M93.1,32.9H70.6c-1.1,0-1.9,0.7-1.9,1.9c0,1.1,0.7,1.9,1.9,1.9h22.5c1.1,0,1.9-0.7,1.9-1.9C95,33.7,94.3,32.9,93.1,32.9z"
		/>
	<path d="M93.1,32.9v-0.5H70.6c-0.7,0-1.3,0.2-1.7,0.6c-0.4,0.4-0.7,1.1-0.7,1.8c0,0.7,0.2,1.3,0.6,1.7s1.1,0.7,1.8,0.7h22.5
		c0.7,0,1.3-0.2,1.7-0.6s0.7-1.1,0.7-1.8c0-0.7-0.2-1.3-0.6-1.7c-0.4-0.4-1.1-0.7-1.8-0.7V32.9v0.5c0.5,0,0.8,0.2,1,0.4
		c0.2,0.2,0.4,0.6,0.4,1c0,0.5-0.2,0.8-0.4,1c-0.2,0.2-0.6,0.4-1,0.4H70.6c-0.5,0-0.8-0.2-1-0.4c-0.2-0.2-0.4-0.6-0.4-1
		c0-0.5,0.2-0.8,0.4-1c0.2-0.2,0.6-0.4,1-0.4h22.5V32.9z"/>
	<path d="M172.5,93.8h-95c-4.8,0-8.7-3.9-8.7-8.7c0-4.8,3.9-8.7,8.7-8.7h95c4.8,0,8.8,3.9,8.8,8.7C181.2,89.8,177.3,93.8,172.5,93.8
		z"/>
	<path d="M172.5,93.8v-0.5h-95c-2.3,0-4.3-0.9-5.8-2.4s-2.4-3.5-2.4-5.8c0-2.3,0.9-4.3,2.4-5.8s3.5-2.4,5.8-2.4h95
		c2.3,0,4.3,0.9,5.8,2.4s2.5,3.5,2.5,5.8h0.5h-0.5c-0.1,4.4-3.8,8.2-8.3,8.2V93.8v0.5c5.1,0,9.2-4.2,9.3-9.2c0-5.1-4.2-9.2-9.3-9.2
		h-95c-5.1,0-9.2,4.1-9.2,9.2s4.1,9.2,9.2,9.2h95V93.8z"/>
	<path d="M179.4,56.4h-22.5c-1.1,0-1.9,0.7-1.9,1.9c0,1.1,0.7,1.9,1.9,1.9h22.5c1.1,0,1.9-0.7,1.9-1.9
		C181.2,57.1,180.5,56.4,179.4,56.4z"/>
	<path d="M179.4,56.4v-0.5h-22.5c-0.7,0-1.3,0.2-1.7,0.6c-0.4,0.4-0.7,1.1-0.7,1.8c0,0.7,0.2,1.3,0.6,1.7c0.4,0.4,1.1,0.7,1.8,0.7
		h22.5c0.7,0,1.3-0.2,1.7-0.6c0.4-0.4,0.7-1.1,0.7-1.8c-0.1-0.7-0.3-1.3-0.7-1.7c-0.4-0.4-1-0.6-1.7-0.6V56.4v0.5
		c0.4,0,0.7,0.1,1,0.4c0.2,0.2,0.4,0.6,0.4,1.1h0.5h-0.5c0,0.5-0.2,0.8-0.4,1c-0.2,0.2-0.6,0.4-1,0.4h-22.5c-0.5,0-0.8-0.2-1-0.4
		c-0.2-0.2-0.4-0.6-0.4-1c0-0.5,0.2-0.8,0.4-1c0.2-0.2,0.6-0.4,1-0.4h22.5V56.4z"/>
	<path d="M93.1,56.4H70.6c-1.1,0-1.9,0.7-1.9,1.9c0,1.1,0.7,1.9,1.9,1.9h22.5c1.1,0,1.9-0.7,1.9-1.9C95,57.1,94.3,56.4,93.1,56.4z"
		/>
	<path d="M93.1,56.4v-0.5H70.6c-0.7,0-1.3,0.2-1.7,0.6c-0.4,0.4-0.7,1.1-0.7,1.8c0,0.7,0.2,1.3,0.6,1.7c0.4,0.4,1.1,0.7,1.8,0.7
		h22.5c0.7,0,1.3-0.2,1.7-0.6s0.7-1.1,0.7-1.8c0-0.7-0.2-1.3-0.6-1.8c-0.4-0.4-1.1-0.6-1.8-0.6V56.4v0.5c0.5,0,0.8,0.1,1,0.4
		c0.2,0.2,0.4,0.5,0.4,1s-0.2,0.8-0.4,1c-0.2,0.2-0.6,0.4-1,0.4H70.6c-0.5,0-0.8-0.2-1-0.4c-0.2-0.2-0.4-0.6-0.4-1
		c0-0.5,0.2-0.8,0.4-1c0.2-0.2,0.6-0.4,1-0.4h22.5V56.4z"/>
</g>
</svg>
