<?xml version="1.0" encoding="utf-8"?>
<!-- Generator: Adobe Illustrator 16.0.0, SVG Export Plug-In . SVG Version: 6.00 Build 0)  -->
<!DOCTYPE svg PUBLIC "-//W3C//DTD SVG 1.1//EN" "http://www.w3.org/Graphics/SVG/1.1/DTD/svg11.dtd">
<svg version="1.1" id="Layer_1" xmlns="http://www.w3.org/2000/svg" xmlns:xlink="http://www.w3.org/1999/xlink" x="0px" y="0px"
	 width="124.2px" height="120.3px" viewBox="62.6 -25.1 124.2 120.3" style="enable-background:new 62.6 -25.1 124.2 120.3;"
	 xml:space="preserve">
<g>
	<path d="M70.2,56.9l3.4-24.5c0.8-5.8,1.6-8.7,5.1-11.7L88.9,12c1.8-1.5,1.7-3.4,0.7-4.7c-2.8-3.5-3.1-4-4.2-9.7
		c-0.6-3.1-1.2-6.8-1-9.1c0.7-7.2,4.8-13.2,14.9-13.2c10.1,0,14.2,6.1,14.9,13.2c0.2,2.3-0.4,6-1,9.1c-1.1,5.7-1.4,6.3-4.2,9.7
		c-1,1.2-1.1,3.2,0.7,4.7l5.5,4.7l-5.8,13.2l-0.2-0.1c-1.4-0.7-2.8-1.5-4.5-0.9c-1.9,0.7-2.9,1.9-3.9,3.2c-0.6,0.7-1.1,1.4-1.8,1.8
		c-3.6,2.5-7.4,4.6-11.3,6.7l-0.5,0.3L84,47.1c1.8-1.1,3.7-2.1,5.6-3.1c3.9-2.2,7.9-4.4,11.6-6.9c1.1-0.8,1.9-1.7,2.6-2.6
		c0.7-0.8,1.4-1.7,2.2-2c0.1,0,0.8,0.3,1.4,0.6c0.8,0.4,1.6,0.8,2.5,1c1.2,0.2,2.1-0.1,3.1-0.5c0.5-0.2,1-0.3,1-0.3
		c0.7,1.1,1.1,2.6,1.1,4.2c-3.1,1.8-6.1,3.8-8.9,5.8c-0.7,0.4-1.4,0.9-2.1,1.5c-0.2,0.2-0.5,0.4-0.7,0.6c-2,1.6-3.9,3.2-5.4,4.6
		c-5.1,1-10.3,1.8-15.5,3C79.2,53.8,74.4,54.9,70.2,56.9z M118.4,6.9c2.4,0,4.7,0.9,5.9,3.1c0.4,0.7,0.6,1.6,0.6,2.6
		c0,1.6-0.6,3.5-2,5.6l-7,10.1l6.5-5.1c1.6,2.3,2.2,5,2.8,9.2l0.1,0.6c-2,0.6-4.2,1.6-6.3,2.6c-0.2-1.5-0.8-3-1.5-4.2
		c-0.8-1.3-1.6-1.8-2.5-1.9c-0.3,0-0.6,0-0.9,0c-0.1,0-0.2,0-0.3,0h-0.1h-0.1h-0.1c-0.5,0.2-1.1,0.4-1.3,0.3h-0.1l9.8-14.1
		c1-1.4,1.4-2.5,1.4-3.4c0-1.4-1.4-1.8-2.6-1.8L118.4,6.9z M99.4-1C96-1,90.3-1.5,89.1-5c-0.7-2.1-0.2-5,1.3-5.4c2.1-0.6,3.8,1,9,1
		c5.2,0,6.8-1.6,9-1c1.5,0.4,2,3.3,1.3,5.4C108.5-1.5,102.8-1,99.4-1z"/>
	<path d="M70.2,56.9l0.5,0.1l3.4-24.5c0.4-2.9,0.8-5,1.5-6.8c0.7-1.8,1.7-3.1,3.4-4.6l10.2-8.7L88.9,12l0.3,0.4
		c1.1-0.9,1.6-2,1.6-3.1c0-0.9-0.3-1.7-0.8-2.3c-1.4-1.8-2.1-2.7-2.7-3.9c-0.5-1.2-0.9-2.7-1.4-5.6c-0.5-2.7-1-5.8-1-8
		c0-0.3,0-0.7,0-1c0.3-3.5,1.5-6.7,3.8-9s5.7-3.7,10.6-3.8c5,0,8.3,1.5,10.6,3.8c2.3,2.3,3.4,5.5,3.8,9h0.5h-0.5c0,0.3,0,0.6,0,1
		c0,2.2-0.5,5.3-1,8c-0.5,2.8-0.9,4.4-1.4,5.6c-0.5,1.2-1.3,2.2-2.7,3.9c-0.5,0.6-0.8,1.4-0.8,2.3c0,1.1,0.5,2.2,1.6,3.1l0.3-0.4
		l-0.3,0.4l5.2,4.5l-5.7,12.9l0.5,0.2l0.2-0.4l-0.2-0.1c-1-0.5-2.2-1.2-3.5-1.2c-0.4,0-0.9,0.1-1.4,0.2c-2,0.7-3.1,2.1-4.1,3.4
		l0.4,0.3l-0.4-0.3c-0.6,0.7-1.1,1.4-1.7,1.7c-3.6,2.5-7.4,4.6-11.3,6.7l-0.5,0.3l-0.1,0.1l-4.1,7.9l1.5-0.9
		c1.8-1.1,3.7-2.1,5.6-3.1c3.9-2.2,7.9-4.4,11.6-6.9c1.2-0.8,2-1.8,2.7-2.7l-0.4-0.3l0.4,0.3c0.4-0.4,0.7-0.8,1-1.2
		c0.3-0.3,0.7-0.6,1-0.7l-0.2-0.5V33v-0.4l-0.1,0.4h0.1v-0.4l-0.1,0.4c0.1,0,0.3,0.1,0.5,0.2s0.5,0.2,0.8,0.4c0.8,0.4,1.6,0.8,2.6,1
		c0.3,0,0.6,0.1,0.8,0.1c1,0,1.7-0.3,2.5-0.6c0.2-0.1,0.5-0.2,0.6-0.2l0.2-0.1h0.1l-0.1-0.5l-0.4,0.3c0.6,1,1,2.4,1,3.9h0.5
		l-0.3-0.4c-3.1,1.8-6.1,3.8-8.9,5.8l0.3,0.4l-0.2-0.4c-0.7,0.4-1.5,0.9-2.2,1.6c-0.1,0.1-0.4,0.3-0.7,0.6l0.4,0.4l-0.3-0.4
		c-2,1.6-3.9,3.2-5.4,4.6L98,50l-0.1-0.5c-5.1,1-10.3,1.8-15.5,3c-3.3,0.8-8.1,1.9-12.4,3.9L70.2,56.9l0.5,0.1L70.2,56.9l0.2,0.5
		c4.1-2,8.9-3.1,12.2-3.9L82.5,53l0.1,0.5c5.2-1.2,10.4-2,15.5-3h0.1l0.1-0.1c1.5-1.4,3.4-3,5.4-4.6c0.1-0.1,0.4-0.3,0.7-0.6
		l-0.4-0.4l0.3,0.4c0.7-0.6,1.4-1.1,2-1.4c2.8-2,5.8-4,8.9-5.8l0.2-0.1v-0.3c0-1.7-0.4-3.3-1.2-4.5l-0.2-0.3l-0.3,0.1
		c0,0-0.5,0.1-1.1,0.3c-0.8,0.3-1.4,0.5-2.2,0.5c-0.2,0-0.4,0-0.7-0.1l-0.1,0.5l0.1-0.5c-0.8-0.2-1.6-0.6-2.4-1
		c-0.3-0.2-0.6-0.3-0.9-0.4c-0.1-0.1-0.3-0.1-0.4-0.1h-0.1c-0.1,0-0.1,0-0.2,0h-0.1h-0.1c-0.5,0.2-0.9,0.5-1.3,0.9
		c-0.4,0.4-0.7,0.8-1.1,1.2c-0.7,0.9-1.5,1.7-2.5,2.5l0.3,0.4l-0.3-0.4c-3.7,2.5-7.7,4.7-11.6,6.9l0.2,0.4L89,43.6
		c-1.9,1-3.8,2-5.6,3.1l0.3,0.4l0.4,0.2l3.1-6.1L88,41l-0.3-0.4l0.2,0.4c3.9-2.1,7.7-4.2,11.3-6.7L99,33.9l0.2,0.4
		c0.8-0.5,1.3-1.2,1.9-1.9c1-1.3,1.9-2.4,3.7-3l-0.2-0.5l0.2,0.5c0.4-0.1,0.7-0.2,1-0.2c1,0,2,0.5,3.1,1.1l0.2,0.1l0.5,0.2l6.2-14
		l-5.8-4.9c-0.9-0.8-1.2-1.6-1.2-2.4c0-0.6,0.2-1.2,0.6-1.6c1.4-1.7,2.2-2.7,2.8-4.1c0.6-1.4,0.9-3,1.5-5.8c0.5-2.7,1-5.8,1-8.2
		c0-0.4,0-0.7,0-1c-0.4-3.6-1.6-7-4.1-9.6c-2.5-2.5-6.2-4.1-11.3-4.1c-5.1,0-8.9,1.5-11.3,4c-2.5,2.5-3.7,5.9-4.1,9.6
		c0,0.3,0,0.7,0,1c0,2.4,0.5,5.5,1,8.2c0.6,2.9,0.9,4.4,1.5,5.8c0.6,1.3,1.4,2.4,2.8,4.1l0.4-0.3l-0.4,0.3c0.4,0.5,0.6,1.1,0.6,1.7
		c0,0.8-0.3,1.5-1.2,2.3l-10.2,8.7c-1.8,1.5-2.9,3.1-3.7,5c-0.8,1.9-1.2,4.1-1.6,7l-3.5,25.4l0.8-0.4L70.2,56.9z M118.4,6.9v0.5
		c1.1,0,2.2,0.2,3.2,0.7c0.9,0.5,1.7,1.2,2.3,2.2c0.3,0.6,0.5,1.4,0.5,2.4c0,1.5-0.6,3.3-1.9,5.3l0.4,0.3l-0.4-0.3l-8.9,12.8
		l9.1-7.1l-0.3-0.4l-0.4,0.3c1.5,2.2,2.1,4.8,2.7,9l0.1,0.6l0.5-0.1l-0.1-0.5c-2,0.6-4.3,1.6-6.4,2.6l0.2,0.5l0.5-0.1
		c-0.2-1.6-0.8-3.1-1.6-4.4c-0.4-0.7-0.9-1.2-1.3-1.5c-0.5-0.4-1-0.5-1.5-0.6c-0.3,0-0.6,0-0.9,0c-0.1,0-0.2,0-0.3,0h-0.1h-0.1h-0.1
		h-0.1h-0.1c-0.2,0.1-0.4,0.2-0.6,0.2c-0.2,0.1-0.3,0.1-0.4,0.1v0.2l0.1-0.2h-0.1v0.2l0.1-0.2l-0.1-0.1h-0.2v0.5l0.4,0.3l9.8-14.1
		l-0.4-0.3l0.4,0.3c1-1.4,1.5-2.6,1.5-3.7c0-0.4-0.1-0.8-0.3-1.1c-0.3-0.5-0.8-0.8-1.3-0.9c-0.5-0.2-1-0.2-1.5-0.2v0.5l0.4-0.3
		l-2.3-3.6L118.4,6.9v0.5V6.9L118,7.2l2.4,3.8h0.3c0.5,0,1.1,0.1,1.5,0.3c0.2,0.1,0.3,0.2,0.4,0.4c0.1,0.2,0.2,0.3,0.2,0.6
		c0,0.7-0.3,1.8-1.3,3.1l-10.3,14.9h1.1v-0.5l-0.2,0.4c0.1,0.1,0.3,0.1,0.4,0.1c0.2,0,0.4-0.1,0.7-0.1c0.2-0.1,0.5-0.2,0.7-0.2
		l-0.2-0.5V30h0.1h0.1h0.1c0.1,0,0.2,0,0.3,0c0.3,0,0.6,0,0.9,0v-0.5l-0.1,0.5c0.4,0,0.7,0.2,1,0.4c0.3,0.2,0.7,0.6,1.1,1.3l0.4-0.3
		l-0.4,0.3c0.7,1.2,1.2,2.6,1.4,4l0.1,0.7l0.6-0.3c2.1-1,4.3-2,6.2-2.6l0.4-0.1l-0.2-1l-0.5,0.1l0.5-0.1c-0.6-4.2-1.2-7-2.9-9.4
		l-0.3-0.4l-4.3,3.4l5.1-7.4c1.4-2.2,2.1-4.2,2.1-5.9c0-1.1-0.2-2-0.7-2.8l-0.4,0.2l0.4-0.2c-0.6-1.2-1.6-2-2.7-2.6
		c-1.1-0.5-2.4-0.8-3.6-0.8h-0.9l0.5,0.8L118.4,6.9z M99.4-1v-0.5c-1.7,0-3.9-0.1-5.8-0.7c-1-0.3-1.8-0.6-2.5-1.1
		c-0.7-0.5-1.2-1.1-1.5-1.9c-0.2-0.6-0.3-1.2-0.3-1.9s0.1-1.5,0.4-2c0.2-0.5,0.6-0.8,0.9-0.9c0.3-0.1,0.6-0.1,0.8-0.1
		c0.8,0,1.7,0.3,2.9,0.6c1.3,0.3,2.9,0.6,5.1,0.6c2.2,0,3.8-0.3,5.1-0.6c1.2-0.3,2.1-0.6,2.9-0.6c0.3,0,0.6,0,0.9,0.1
		c0.3,0.1,0.6,0.4,0.9,0.9c0.2,0.5,0.4,1.2,0.4,2c0,0.6-0.1,1.3-0.3,1.9c-0.3,0.8-0.8,1.4-1.5,1.9c-2.1,1.5-5.9,1.8-8.4,1.8V-1v0.5
		c1.7,0,4-0.1,6.1-0.7c1-0.3,2-0.7,2.8-1.3c0.8-0.6,1.5-1.4,1.8-2.3c0.2-0.7,0.3-1.4,0.3-2.2c0-0.9-0.1-1.7-0.5-2.4
		c-0.3-0.7-0.8-1.3-1.5-1.5c-0.4-0.1-0.8-0.2-1.1-0.2c-1,0-1.9,0.3-3.1,0.6s-2.7,0.6-4.9,0.6c-2.1,0-3.7-0.3-4.9-0.6
		c-1.2-0.3-2.1-0.6-3.1-0.6c-0.4,0-0.7,0-1.1,0.2l0.1,0.5l-0.1-0.5c-0.7,0.2-1.2,0.8-1.5,1.5c-0.3,0.7-0.5,1.5-0.5,2.4
		c0,0.7,0.1,1.5,0.3,2.2c0.3,1,1,1.8,1.8,2.3c2.5,1.7,6.4,2,9,2V-1H99.4z"/>
	<path d="M168.3,42.4c-5.9-0.4-11.7-0.6-17.6-0.6l0.8,13.1c6.1,0,12.1,0.1,17.5,0.3c3.5,0.1,4-1.9,3.4-4.8c-0.5-2.1-1.2-4.3-2.1-6.4
		C169.8,42.7,169.2,42.5,168.3,42.4z M145.7,54.9l-0.8-13.1c-4.5,0.1-9.1,0.3-13.9,0.6c-2.8,0.2-6.9,2.1-11.2,4.7
		c-2.6,1.5-5.2,3.3-7.5,5c-1.7,1.2-1.2,3.7,1.2,3.6C123.7,55.1,134.9,54.9,145.7,54.9z M73,86.6h1.4c-0.3-1.2-0.5-2.5-0.5-3.9
		c0-8.8,7.1-15.9,15.9-15.9s15.9,7.1,15.9,15.9c0,1.3-0.2,2.6-0.5,3.8c13.6,0,27,0,40.5,0c-0.3-1.2-0.5-2.5-0.5-3.8
		c0-8.8,7.1-15.9,15.9-15.9c8.8,0,15.9,7.1,15.9,15.9c0,1.3-0.2,2.6-0.5,3.9h1.8c3.5,0,8.2,0.2,8.2-5c0-1.1,0-2.3,0-3.4
		c0-1.7-0.7-3.2-2-4.4l-0.9-0.8c0-3.4-0.1-6.5-0.3-9.5h-3.1c-1.1,0-1.7-0.9-1.9-1.9l-0.5-1.9c-0.3-1,0.9-1.9,1.9-1.9h2.9
		c-0.9-5.7-2.8-11.1-6.2-17c-1.2-2.1-2.9-3.6-5.4-3.8c-13.7-1-26.8-1.1-40.6-0.1c-8.7,0.6-24.3,12-30.2,18c-6.1,1-32,4.4-33.6,11.2
		c0,0.1-0.1,0.3-0.1,0.4h5.7c-0.5,2.1-1.9,4.1-4.5,4.3L65.9,71c-0.1,1.3-0.2,2.5-0.5,3.7c-1.5,0.7-2.4,1.8-2.4,3.5v2.5
		C63.3,85.9,68.7,86.6,73,86.6z M89.8,70.7c6.7,0,12,5.4,12,12c0,6.7-5.4,12-12,12c-6.7,0-12-5.4-12-12C77.8,76,83.2,70.7,89.8,70.7
		z M93.6,79c-1-1-2.3-1.6-3.7-1.6c-1.5,0-2.8,0.6-3.7,1.6c-1,1-1.6,2.3-1.6,3.7c0,1.5,0.6,2.8,1.6,3.7c1,1,2.3,1.6,3.7,1.6
		c1.5,0,2.8-0.6,3.7-1.6c1-1,1.6-2.3,1.6-3.7C95.1,81.2,94.5,79.9,93.6,79z M161.2,70.7c6.7,0,12,5.4,12,12c0,6.7-5.4,12-12,12
		c-6.7,0-12-5.4-12-12C149.2,76,154.6,70.7,161.2,70.7z M165,79c-1-1-2.3-1.6-3.7-1.6c-1.5,0-2.8,0.6-3.7,1.6c-1,1-1.6,2.3-1.6,3.7
		c0,1.5,0.6,2.8,1.6,3.7c1,1,2.3,1.6,3.7,1.6c1.5,0,2.8-0.6,3.7-1.6c1-1,1.6-2.3,1.6-3.7C166.5,81.2,165.9,79.9,165,79z"/>
	<path d="M168.3,42.4v-0.5c-5.9-0.4-11.7-0.6-17.6-0.6h-0.5l0.9,14.1h0.5c6.1,0,12.1,0.1,17.5,0.3h0.3c1.3,0,2.3-0.3,3-0.9
		c0.7-0.6,0.9-1.5,0.9-2.5c0-0.6-0.1-1.2-0.2-1.9c-0.5-2.1-1.2-4.4-2.1-6.5l-0.5,0.2l0.5-0.2c-0.3-0.7-0.6-1.2-1-1.5
		s-0.9-0.4-1.4-0.4L168.3,42.4l-0.1,0.5c0.4,0,0.7,0.1,0.9,0.3c0.2,0.1,0.4,0.4,0.7,1c0.9,2.1,1.6,4.2,2.1,6.3l0.5-0.1l-0.5,0.1
		c0.1,0.6,0.2,1.2,0.2,1.7c0,0.8-0.2,1.4-0.6,1.8c-0.4,0.4-1.1,0.7-2.3,0.7H169c-5.4-0.2-11.4-0.3-17.5-0.3v0.5h0.5l-0.8-13.1h-0.5
		v0.5c5.9,0,11.7,0.2,17.6,0.6V42.4l-0.1,0.5L168.3,42.4z M145.7,54.9h0.5l-0.8-13.6h-0.5c-4.5,0.1-9.1,0.3-13.9,0.6
		c-1.5,0.1-3.3,0.7-5.2,1.5c-1.9,0.8-4.1,2-6.2,3.3l0.3,0.4l-0.2-0.4c-2.6,1.5-5.2,3.3-7.5,5l0.3,0.4l-0.3-0.4
		c-0.8,0.6-1.2,1.4-1.2,2.2c0,0.6,0.2,1.2,0.7,1.6c0.4,0.4,1.1,0.7,1.9,0.7h0.2c10.2-0.6,21.4-0.8,32.2-0.8h0.5v-0.5H145.7v-0.5
		c-10.8,0-22,0.2-32.2,0.8v0.5v-0.5h-0.1c-0.6,0-1-0.2-1.2-0.4c-0.2-0.2-0.4-0.5-0.4-0.9c0-0.5,0.2-1,0.8-1.4c2.3-1.7,4.9-3.5,7.5-5
		c2.1-1.3,4.2-2.4,6.1-3.2c1.9-0.8,3.6-1.3,4.9-1.4c4.8-0.3,9.4-0.5,13.9-0.6v-0.5h-0.5l0.8,13.1H145.7v-0.5V54.9z M73,86.6v0.5h2
		l-0.2-0.6c-0.3-1.2-0.5-2.4-0.5-3.8c0-8.5,6.9-15.4,15.4-15.4s15.4,6.9,15.4,15.4c0,1.2-0.2,2.5-0.5,3.7l-0.2,0.6h0.6
		c13.6,0,27,0,40.5,0h0.6l-0.2-0.6c-0.3-1.2-0.5-2.4-0.5-3.7c0-8.5,6.9-15.4,15.4-15.4s15.4,6.9,15.4,15.4c0,1.2-0.2,2.5-0.5,3.8
		l-0.1,0.6h2.4c0.2,0,0.5,0,0.8,0c1.7,0,3.6,0,5.2-0.7c0.8-0.4,1.5-0.9,2-1.7s0.8-1.8,0.8-3.1c0-1.1,0-2.3,0-3.4
		c0-1.8-0.8-3.5-2.2-4.8l-0.9-0.8l-0.3,0.4h0.5c0-3.4-0.1-6.5-0.3-9.5V63H180c-0.4,0-0.7-0.1-0.9-0.4c-0.2-0.3-0.4-0.7-0.5-1.1
		l-0.5-1.9v-0.2c0-0.2,0.1-0.5,0.4-0.7s0.7-0.4,1-0.4h3.5l-0.1-0.6c-0.9-5.8-2.8-11.2-6.3-17.2c-0.6-1.1-1.4-2-2.3-2.8
		c-1-0.7-2.1-1.2-3.4-1.3c-7.2-0.5-14.2-0.8-21.3-0.8c-6.4,0-12.8,0.2-19.4,0.7c-2.3,0.2-4.9,1-7.7,2.3
		c-8.4,3.8-18.3,11.3-22.8,15.9l0.4,0.4l-0.1-0.5c-3,0.5-11.1,1.6-18.5,3.4c-3.7,0.9-7.3,2-10.1,3.3c-1.4,0.7-2.6,1.4-3.5,2.2
		C67,64.1,66.3,65,66.1,66v0.1v0.1h0.3h-0.3h0.3h-0.3v0.1c0,0.1-0.1,0.1-0.1,0.3V67h6.2v-0.5l-0.5-0.1c-0.2,1-0.7,1.9-1.3,2.6
		c-0.7,0.7-1.5,1.2-2.7,1.3l-2.2,0.2v0.4c-0.1,1.3-0.2,2.5-0.5,3.6l0.5,0.1l-0.2-0.5c-0.8,0.4-1.5,0.9-2,1.5
		c-0.5,0.7-0.7,1.5-0.7,2.4v2.5c0.1,1.4,0.5,2.5,1.2,3.4c1,1.3,2.6,2.1,4.2,2.5c1.7,0.4,3.5,0.5,5.1,0.5L73,86.6l0.1-0.5
		c-2.1,0-4.5-0.2-6.3-1c-0.9-0.4-1.7-0.9-2.2-1.6c-0.6-0.7-0.9-1.6-1-2.8h-0.5h0.5v-2.5c0-0.8,0.2-1.3,0.5-1.8
		c0.3-0.5,0.9-0.9,1.6-1.2l0.2-0.1l0.1-0.2c0.3-1.3,0.4-2.5,0.5-3.8H66l0.1,0.5l1.8-0.2l-0.1-0.5v0.5c1.4-0.1,2.6-0.7,3.4-1.6
		c0.8-0.9,1.3-2,1.6-3.1l0.1-0.6h-6.3v0.5H67h-0.3H67h-0.3H67v-0.1c0-0.1,0.1-0.1,0.1-0.3h-0.5l0.5,0.1c0.2-0.7,0.7-1.4,1.5-2.1
		c1.4-1.2,3.8-2.4,6.7-3.4c8.5-3,21-4.7,25-5.3h0.2l0.1-0.1c2.9-3,8.3-7.3,14-11c2.8-1.8,5.8-3.5,8.5-4.7c2.7-1.2,5.3-2,7.4-2.2
		c6.5-0.5,12.9-0.7,19.3-0.7c7,0,14,0.3,21.2,0.8c1.2,0.1,2.1,0.5,2.9,1.1c0.8,0.6,1.5,1.5,2.1,2.5c3.4,5.9,5.2,11.2,6.1,16.8
		l0.5-0.1v-0.5h-2.9c-0.6,0-1.2,0.2-1.6,0.6c-0.5,0.3-0.8,0.9-0.8,1.5c0,0.2,0,0.3,0.1,0.5l0.5-0.1l-0.5,0.1l0.5,1.9l0.5-0.1
		l-0.5,0.1c0.1,0.6,0.3,1.1,0.7,1.6c0.4,0.4,1,0.7,1.7,0.7h3.1v-0.5h-0.5c0.2,3,0.3,6.1,0.3,9.5v0.2l1.1,0.9l0.3-0.4l-0.3,0.4
		c1.2,1.1,1.8,2.5,1.8,4c0,1.1,0,2.3,0,3.4s-0.2,2-0.6,2.6c-0.6,0.9-1.5,1.4-2.6,1.7c-1.1,0.3-2.5,0.3-3.7,0.3c-0.3,0-0.5,0-0.8,0
		h-1.8v0.5l0.5,0.1c0.3-1.3,0.5-2.7,0.5-4c0-4.5-1.8-8.6-4.8-11.6s-7.1-4.8-11.6-4.8s-8.6,1.8-11.6,4.8s-4.8,7.1-4.8,11.6
		c0,1.4,0.2,2.7,0.5,3.9l0.5-0.1V86c-13.5,0-26.9,0-40.5,0v0.5l0.5,0.1c0.3-1.2,0.5-2.6,0.5-3.9c0-4.5-1.8-8.6-4.8-11.6
		s-7.1-4.8-11.6-4.8s-8.6,1.8-11.6,4.8s-4.8,7.1-4.8,11.6c0,1.4,0.2,2.8,0.5,4l0.5-0.1v-0.5H73V86.6z M89.8,70.7v0.5
		c6.4,0,11.5,5.2,11.5,11.5c0,6.4-5.2,11.5-11.5,11.5c-6.4,0-11.5-5.2-11.5-11.5c0-6.4,5.2-11.5,11.5-11.5V70.7v-0.5
		c-3.4,0-6.6,1.4-8.8,3.6c-2.3,2.3-3.7,5.4-3.7,8.9c0,3.4,1.4,6.6,3.6,8.8c2.3,2.3,5.4,3.7,8.9,3.7c3.4,0,6.6-1.4,8.8-3.6
		c2.2-2.2,3.7-5.4,3.7-8.9c0-3.4-1.4-6.6-3.6-8.8c-2.3-2.3-5.4-3.7-8.9-3.7V70.7z M93.6,79l0.4-0.4c-1.1-1.1-2.5-1.7-4.1-1.7
		c-1.6,0-3.1,0.7-4.1,1.8l0.4,0.3l-0.4-0.4c-1.1,1.1-1.7,2.5-1.7,4.1s0.7,3.1,1.8,4.1l0.3-0.4l-0.4,0.4c1.1,1.1,2.5,1.7,4.1,1.7
		c1.6,0,3.1-0.7,4.1-1.8l-0.4-0.3l0.4,0.4c1.1-1.1,1.7-2.5,1.7-4.1c-0.1-1.6-0.8-3-1.7-4L93.6,79l-0.4,0.4c0.8,0.8,1.4,2,1.5,3.4
		h0.5h-0.5c0,1.3-0.5,2.4-1.5,3.3c-0.8,0.9-2,1.4-3.3,1.4c-1.3,0-2.4-0.5-3.3-1.5c-0.9-0.8-1.4-2-1.4-3.3s0.5-2.4,1.5-3.3
		c0.8-0.9,2-1.4,3.3-1.4s2.4,0.5,3.3,1.5L93.6,79z M161.2,70.7v0.5c6.4,0,11.5,5.2,11.5,11.5c0,6.4-5.2,11.5-11.5,11.5
		c-6.4,0-11.5-5.2-11.5-11.5c0-6.4,5.2-11.5,11.5-11.5V70.7v-0.5c-3.4,0-6.6,1.4-8.8,3.6c-2.2,2.2-3.7,5.4-3.7,8.9
		c0,3.4,1.4,6.6,3.6,8.8c2.3,2.3,5.4,3.7,8.9,3.7c3.4,0,6.6-1.4,8.8-3.6c2.3-2.3,3.7-5.4,3.7-8.9c0-3.4-1.4-6.6-3.6-8.8
		c-2.3-2.3-5.4-3.7-8.9-3.7V70.7z M165,79l0.4-0.4c-1.1-1.1-2.5-1.7-4.1-1.7c-1.6,0-3.1,0.7-4.1,1.8l0.4,0.3l-0.4-0.4
		c-1.1,1.1-1.7,2.5-1.7,4.1s0.7,3.1,1.8,4.1l0.3-0.4l-0.4,0.4c1.1,1.1,2.5,1.7,4.1,1.7c1.6,0,3.1-0.7,4.1-1.8l-0.4-0.3l0.4,0.4
		c1.1-1.1,1.7-2.5,1.7-4.1c-0.1-1.6-0.8-3-1.7-4L165,79l-0.4,0.4c0.8,0.8,1.4,2,1.5,3.4h0.5h-0.5c0,1.3-0.5,2.4-1.5,3.3
		c-0.8,0.9-2,1.4-3.3,1.4S158.9,87,158,86c-0.9-0.8-1.4-2-1.4-3.3s0.5-2.4,1.5-3.3c0.8-0.9,2-1.4,3.3-1.4c1.3,0,2.4,0.5,3.3,1.5
		L165,79z"/>
</g>
</svg>
