<?xml version="1.0" encoding="utf-8"?>
<!-- Generator: Adobe Illustrator 16.0.0, SVG Export Plug-In . SVG Version: 6.00 Build 0)  -->
<!DOCTYPE svg PUBLIC "-//W3C//DTD SVG 1.1//EN" "http://www.w3.org/Graphics/SVG/1.1/DTD/svg11.dtd">
<svg version="1.1" id="Layer_1" xmlns="http://www.w3.org/2000/svg" xmlns:xlink="http://www.w3.org/1999/xlink" x="0px" y="0px"
	 width="118.4px" height="124px" viewBox="65.8 -25.9 118.4 124" style="enable-background:new 65.8 -25.9 118.4 124;"
	 xml:space="preserve">
<g>
	<path d="M143.2,96.5c0,0.1,0.1,0.2,0.1,0.3C143.2,96.7,143.2,96.6,143.2,96.5z"/>
	<path d="M143.2,96.5h-0.5c0,0.2,0.1,0.3,0.1,0.4l0.3-0.1h-0.3v0.1l0.3-0.1h-0.3h0.5l0.4-0.4l-0.1,0.1h0.2v-0.1l-0.1,0.1h0.2h-0.1
		h0.1h-0.1h0.1h-1H143.2h-0.5c0,0,0,0.1,0,0.3c0,0.1,0.1,0.3,0.2,0.4l0.9,0.9v-1.2c0-0.2-0.1-0.3-0.1-0.4l-0.3,0.1h0.3v-0.1
		l-0.3,0.1h0.3h-1L143.2,96.5L143.2,96.5z"/>
	<path d="M137.6,61.3c0,2.9-1.2,5.8-3.4,7.7c-2.1,1.9-5,3-6,5.6c-0.2,0.5-0.2,1.2,0.2,1.5c0.4,0.3,1.1,0,1.4-0.4
		c0.4-0.4,0.6-0.9,1-1.3c1.3-1,3.2,0.5,3.4,2.1c0.1,1.6-0.9,3.1-1.8,4.4c-2.4,3.7-4,7.9-4.7,12.3l-0.7,0.2c-1.3-1.5-2.4-3-3.6-4.5
		c-1.4-1.8-2.8-3.6-4.3-5.3c-0.5-0.6-0.9-1.3-0.9-2c0.1-1.5,2-1.9,3.5-2s3.4-0.8,3.1-2.3c-0.1-0.8-0.9-1.3-1.5-1.8
		c-2-1.5-3.7-3.6-4.7-5.8c-0.4-0.9-0.8-1.9-0.6-2.8s1.1-1.8,2.1-1.7c0.6,0.1,1.1,0.6,1.7,0.4c0.7-0.2,0.8-1.2,0.6-2
		c-0.5-2.4-1.5-4.7-3-6.6c-0.8-0.9-1.6-1.8-2.1-2.9s-0.4-2.6,0.6-3.3c0.9-0.8,2.5-0.6,3.3-1.4c1.3-1.1,0.4-3.3-1-4.3
		c-1.4-1-3.2-1.5-4.1-2.9c-1-1.4-1-3.5,0.1-4.8c1.1-1.3,2.9-1.9,3.4-3.5c0.4-1.3-0.4-2.6-1.4-3.5S116,29,115,28.1
		c-2.4-2-3.3-5.6-2.1-8.5c1.1-2.7,3.8-4.7,4.3-7.6c0.2-1,0.1-2.1,0.5-3.1c0.4-1,1.3-1.9,2.3-1.6c1,0.3,1.3,1.5,1.3,2.5s-0.4,2.1,0,3
		c0.4,1.3,1.7,2.2,3.1,2.4c1.3,0.2,2.7-0.1,4.1-0.5c-0.4,3.5-3.7,5.9-5.1,9.2c-0.4,0.9-0.6,2-0.4,3c0.3,1,1.1,1.9,2.2,1.9
		c1.6,0,2.7-1.9,4.3-2.1c1.4-0.2,2.6,1.3,2.8,2.7s-0.4,2.8-0.9,4.2c-1.3,3.6-2.3,7.2-3.1,10.9c-0.1,0.6-0.2,1.2,0.2,1.7
		c0.6,0.7,1.7,0.3,2.4-0.4c0.6-0.6,1.2-1.5,2.1-1.7c1-0.2,2,0.5,2.4,1.4c0.4,0.9,0.2,2-0.1,3c-0.8,2.5-2.4,4.6-3.8,6.9
		c-1.3,2.3-2.3,4.9-1.6,7.5c1.7-1.1,3.5-2.2,5.3-3.3c0.3-0.2,0.6-0.4,1-0.4C137,58.9,137.6,60.2,137.6,61.3z"/>
	<path d="M137.6,61.3h-0.5c0,2.8-1.1,5.5-3.2,7.3c-1,0.9-2.2,1.7-3.4,2.5c-1.1,0.9-2.2,1.8-2.8,3.3l0.5,0.2l-0.5-0.2
		c-0.1,0.3-0.2,0.6-0.2,0.9c0,0.4,0.1,0.9,0.5,1.2c0.2,0.2,0.5,0.2,0.7,0.2c0.3,0,0.6-0.1,0.8-0.2c0.2-0.1,0.4-0.3,0.6-0.5l-0.4-0.3
		l0.4,0.4c0.5-0.5,0.7-1,1-1.3l-0.4-0.4l0.3,0.4c0.2-0.2,0.4-0.2,0.6-0.2c0.4,0,0.9,0.2,1.2,0.6c0.4,0.4,0.7,0.9,0.7,1.4l0.5-0.1
		h-0.5v0.2c0,1.3-0.9,2.7-1.7,3.9c-2.4,3.8-4.1,8-4.8,12.5l0.5,0.1l-0.1-0.5l-0.7,0.2l0.1,0.5l0.4-0.3c-1.3-1.5-2.4-3-3.6-4.5
		l-0.4,0.3l0.4-0.3c-1.4-1.8-2.8-3.6-4.3-5.3l-0.4,0.3l0.4-0.3c-0.5-0.6-0.8-1.2-0.8-1.7H118h0.5c0-0.3,0.1-0.5,0.3-0.6
		c0.2-0.3,0.6-0.5,1.1-0.6s1.1-0.2,1.6-0.3c0.8-0.1,1.6-0.2,2.3-0.6c0.3-0.2,0.7-0.4,0.9-0.7c0.2-0.3,0.4-0.7,0.4-1.1
		c0-0.1,0-0.3,0-0.4l-0.5,0.1l0.5-0.1c-0.1-0.6-0.4-1-0.7-1.3c-0.3-0.3-0.7-0.6-1-0.8c-1.9-1.4-3.6-3.5-4.5-5.6
		c-0.3-0.7-0.6-1.5-0.6-2.1c0-0.1,0-0.3,0-0.4c0.1-0.3,0.3-0.7,0.5-0.9c0.3-0.3,0.6-0.4,0.9-0.4h0.1v-0.5l-0.1,0.5
		c0.2,0,0.4,0.1,0.6,0.2c0.2,0.1,0.5,0.2,0.9,0.2c0.1,0,0.3,0,0.4-0.1l-0.2-0.5l0.1,0.5c0.4-0.1,0.7-0.4,0.8-0.7
		c0.2-0.3,0.2-0.7,0.2-1s0-0.6-0.1-0.8l-0.5,0.1l0.5-0.1c-0.5-2.5-1.5-4.8-3.1-6.8c-0.8-0.9-1.6-1.8-2-2.8c-0.2-0.4-0.2-0.8-0.2-1.2
		c0-0.7,0.2-1.2,0.7-1.5c0.3-0.3,0.9-0.4,1.5-0.6c0.6-0.2,1.3-0.3,1.8-0.8l-0.4-0.4l0.3,0.4c0.6-0.5,0.8-1.1,0.8-1.8
		c0-1.3-0.8-2.5-1.8-3.3c-0.8-0.5-1.6-0.9-2.3-1.3s-1.3-0.8-1.7-1.4s-0.6-1.3-0.6-2.1s0.2-1.5,0.7-2.1s1.2-1,1.9-1.6
		c0.7-0.5,1.3-1.2,1.6-2.1c0.1-0.3,0.1-0.6,0.1-0.8c0-1.3-0.8-2.4-1.7-3.2c-1.1-1-2.3-1.5-3.2-2.3c-1.6-1.3-2.5-3.4-2.4-5.4
		c0-0.9,0.2-1.7,0.5-2.5c0.5-1.3,1.4-2.4,2.3-3.6c0.9-1.2,1.7-2.5,2-4.1l-0.5-0.1l0.5,0.1c0.2-1.1,0.1-2.2,0.5-3
		c0.1-0.4,0.4-0.7,0.6-1c0.3-0.2,0.5-0.4,0.8-0.4h0.2c0.3,0.1,0.5,0.3,0.7,0.7c0.2,0.4,0.2,0.9,0.2,1.3c0,0.6-0.2,1.3-0.2,2
		c0,0.4,0,0.8,0.2,1.2l0.5-0.2l-0.5,0.1c0.5,1.5,2,2.5,3.5,2.7l0.1-0.5l-0.1,0.5c0.3,0,0.6,0.1,0.9,0.1c1.1,0,2.3-0.3,3.4-0.6
		l-0.1-0.5l-0.5-0.1c-0.2,1.6-1,3-2.1,4.4c-1,1.4-2.2,2.9-3,4.6l0.5,0.2l-0.5-0.2c-0.3,0.7-0.5,1.5-0.5,2.4c0,0.3,0,0.6,0.1,0.9
		c0.2,0.6,0.5,1.1,0.9,1.5c0.4,0.4,1.1,0.7,1.7,0.7c0.5,0,1-0.2,1.3-0.4c0.6-0.3,1.1-0.7,1.6-1.1s1-0.6,1.4-0.7h0.2
		c0.5,0,0.9,0.3,1.3,0.7c0.4,0.4,0.7,1,0.7,1.6c0,0.2,0,0.3,0,0.5c0,1.1-0.5,2.2-0.9,3.5c-1.3,3.6-2.3,7.2-3.1,11
		c0,0.3-0.1,0.6-0.1,0.9c0,0.4,0.1,0.8,0.4,1.2c0.3,0.4,0.8,0.5,1.2,0.5c0.7,0,1.4-0.4,1.9-0.9c0.3-0.3,0.6-0.7,0.9-1
		c0.3-0.3,0.6-0.5,0.9-0.6l-0.1-0.5l0.1,0.5h0.2c0.6,0,1.3,0.5,1.6,1.1c0.1,0.3,0.2,0.6,0.2,1c0,0.5-0.1,1.1-0.3,1.7l0.5,0.1
		l-0.5-0.2c-0.8,2.4-2.3,4.5-3.8,6.8c-1,1.8-1.9,3.8-1.9,6c0,0.6,0.1,1.3,0.2,1.9l0.2,0.7l0.6-0.4c1.7-1.1,3.5-2.2,5.3-3.3
		c0.3-0.2,0.5-0.3,0.7-0.3h0.1h0.1h0.1l0.1,0.1c0.1,0.1,0.3,0.3,0.4,0.6c0.1,0.3,0.2,0.6,0.2,0.9h1.4h0.5c0-0.6-0.1-1.2-0.4-1.7
		c-0.1-0.2-0.3-0.5-0.5-0.7c-0.2-0.2-0.5-0.3-0.8-0.3c-0.1,0-0.3,0-0.4,0.1l0.2,0.5v-0.5c-0.6,0-1,0.3-1.3,0.5l0.3,0.4l-0.3-0.4
		c-1.8,1.1-3.6,2.2-5.3,3.3l0.3,0.4l0.5-0.1c-0.1-0.5-0.2-1.1-0.2-1.6c0-1.9,0.8-3.7,1.8-5.5l-0.4-0.2l0.4,0.3c1.4-2.3,3-4.4,3.8-7
		c0.2-0.6,0.3-1.3,0.3-2c0-0.5-0.1-0.9-0.3-1.4c-0.4-1-1.4-1.7-2.5-1.7c-0.1,0-0.3,0-0.4,0c-0.6,0.1-1,0.5-1.4,0.8
		c-0.4,0.4-0.7,0.7-0.9,1c-0.4,0.4-0.9,0.6-1.2,0.6c-0.2,0-0.3-0.1-0.4-0.2l-0.4,0.3l0.4-0.3c-0.1-0.2-0.2-0.3-0.2-0.6
		c0-0.2,0-0.4,0.1-0.7l-0.5-0.1l0.5,0.1c0.8-3.7,1.8-7.3,3.1-10.8c0.4-1.2,1-2.4,1-3.8c0-0.2,0-0.4,0-0.6c-0.1-0.8-0.5-1.5-1-2.1
		s-1.2-1-2.1-1c-0.1,0-0.2,0-0.3,0l0.1,0.5l-0.1-0.5c-1,0.1-1.7,0.7-2.4,1.2c-0.3,0.2-0.7,0.5-1,0.6c-0.3,0.2-0.6,0.2-0.9,0.2
		c-0.4,0-0.8-0.2-1.1-0.4c-0.3-0.3-0.5-0.7-0.7-1.1l-0.5,0.1l0.5-0.1c0-0.2-0.1-0.5-0.1-0.7c0-0.7,0.2-1.4,0.4-2
		c0.7-1.6,1.8-3,2.9-4.4c1.1-1.5,2-3,2.3-4.9l0.1-0.7l-0.7,0.2c-1.1,0.3-2.1,0.5-3.1,0.5c-0.3,0-0.5,0-0.8-0.1
		c-1.2-0.2-2.4-1-2.7-2.1c-0.1-0.2-0.1-0.5-0.1-0.8c0-0.6,0.2-1.3,0.2-2c0-0.5-0.1-1.2-0.3-1.7c-0.2-0.5-0.7-1.1-1.3-1.3
		c-0.2-0.1-0.4-0.1-0.5-0.1c-0.6,0-1.1,0.3-1.5,0.6c-0.4,0.4-0.7,0.8-0.9,1.3c-0.4,1.1-0.3,2.3-0.5,3.2c-0.2,1.3-1,2.5-1.8,3.7
		c-0.9,1.2-1.8,2.4-2.4,3.8c-0.4,0.9-0.6,1.9-0.6,2.9c0,2.3,1,4.7,2.8,6.2l0.3-0.4l-0.3,0.4c1.1,1,2.3,1.5,3.2,2.3
		c0.8,0.7,1.3,1.6,1.3,2.4c0,0.2,0,0.4-0.1,0.6c-0.2,0.6-0.7,1.1-1.3,1.6s-1.4,1-2,1.7c-0.7,0.8-1,1.8-1,2.7s0.3,1.9,0.8,2.7
		l0.4-0.3l-0.4,0.3c0.5,0.8,1.3,1.3,2,1.8c0.8,0.4,1.5,0.8,2.2,1.3c0.8,0.6,1.4,1.7,1.4,2.5c0,0.4-0.1,0.8-0.5,1
		c-0.3,0.3-0.8,0.4-1.4,0.6c-0.6,0.2-1.3,0.3-1.9,0.8l0.3,0.4l-0.3-0.4c-0.8,0.6-1.1,1.5-1.1,2.3c0,0.5,0.1,1.1,0.3,1.6
		c0.5,1.2,1.4,2.1,2.2,3l0.4-0.3L119,57c1.4,1.8,2.4,4.1,2.9,6.4c0,0.2,0.1,0.4,0.1,0.6c0,0.2,0,0.5-0.1,0.6s-0.1,0.2-0.2,0.2h-0.1
		c-0.1,0-0.3-0.1-0.5-0.2c-0.2-0.1-0.5-0.2-0.8-0.3h-0.2c-0.6,0-1.2,0.3-1.6,0.7c-0.4,0.4-0.7,0.9-0.8,1.4c0,0.2-0.1,0.4-0.1,0.6
		c0,0.9,0.4,1.8,0.7,2.5c1,2.3,2.8,4.4,4.9,6l0.3-0.4l-0.3,0.4c0.3,0.3,0.7,0.5,0.9,0.8c0.2,0.3,0.4,0.5,0.4,0.7v0.2
		c0,0.2-0.1,0.4-0.2,0.5c-0.2,0.2-0.6,0.5-1,0.7c-0.5,0.2-1,0.3-1.5,0.3c-0.8,0.1-1.7,0.2-2.4,0.5c-0.4,0.2-0.7,0.4-1,0.7
		c-0.3,0.3-0.5,0.7-0.5,1.2c0,0.9,0.5,1.7,1,2.3c1.5,1.7,2.9,3.5,4.3,5.3c1.2,1.5,2.3,3,3.6,4.5l0.2,0.2l1-0.3l0.3-0.1l0.1-0.3
		c0.7-4.3,2.3-8.5,4.6-12.1l-0.4-0.3l0.4,0.3c0.9-1.2,1.9-2.7,1.9-4.5v-0.3c-0.1-0.8-0.5-1.4-1-2c-0.5-0.5-1.2-0.9-1.9-0.9
		c-0.4,0-0.9,0.1-1.2,0.4c-0.5,0.5-0.7,1-1,1.3c-0.1,0.1-0.2,0.2-0.3,0.2c-0.1,0.1-0.2,0.1-0.3,0.1h-0.1c-0.1,0-0.1-0.2-0.1-0.4
		c0-0.2,0-0.4,0.1-0.5c0.4-1.2,1.3-2,2.4-2.8c1.1-0.8,2.3-1.6,3.4-2.6l-0.3-0.4l0.3,0.4c2.3-2,3.6-5,3.6-8.1h-0.9V61.3z"/>
	<path d="M147.3,50.2c2.3-1.8,2.1-5.1,0.5-7.4c-0.2-0.2,0-0.8-0.2-1c-1.3-2.1-2.3-4.6-1.5-6.9c1-2.1,3.6-1,4.9,0.5
		c1,1.5,1.8,2.8,3.6,3.3c1,0.2,2.1-0.2,2.6-1c1-1.8,0.5-4.1-0.5-5.9c-0.8-1.8-1.3-3.6-1-5.4c0.5-1.8,2.6-2.1,3.8-1
		c1.5,1,2.6,2.8,4.3,3.3c1,0.2,2.1-0.2,3.1-0.8c1.8-1.5,3.6-3.3,5.6-4.3c3.1-1.3,7.2-0.5,9.2,2.3c1.5,4.9-5.1,4.9-8.2,6.1
		c-1.5,0.8-3.3,1.5-3.8,3.6c0,0.8,1,1,1.5,1c1.5,0,2.8,0.2,4.1,0.8c1.3,0.8,2.6,1.8,2.3,3.6c-1,4.9-6.4,3.3-10,3.6
		c-1.5,0.2-3.3,1-3.6,2.6c0,0.8,0.5,2.1,1.5,2.1c0.8,0,1.3-0.8,2.1-1c1.5-0.2,1.8,1.8,1.5,2.8c-1.8,4.1-6.9,2.6-10.5,2.8
		c-1.3,0.2-2.3,1-3.1,2.1c-0.5,1-0.5,2.6,0.2,3.3c1.5,1,3.3,0.2,4.9,1.3c1,1,1.8,2.3,1.3,3.6c-1.5,3.3-5.6,2.8-8.4,4.1
		c-2.1,1-2.8,3.6-2.8,5.6c0,1.3,1.3,2.3,1.5,3.6c0.2,1.5-0.5,2.8-1.8,3.6c-0.5,0.2-0.8,0.5-1.3,0.8c-1.5,0.8-3.6,0.5-4.6,2.1
		c-1.8,3.6-2.8,7.2-5.7,9.9h-0.1c-0.8-4-1.6-8.9,1.5-12.2c1.5-1.5,3.8-1.8,5.4-3.6c1-1.5,0.2-3.3-1-4.3c-1-0.8-2.3-1.3-3.6-1.8
		c-2.1-0.8-3.8-2.1-4.1-4.3c0-0.8,0.2-1.5,1-1.8c1.8-0.2,3.6,1,5.4,0c2.1-1.5,4.1-4.3,1.5-6.4c-3.8-2.6-7.4-6.1-6.1-10.7
		c0.2-1.3,2.1-1.5,3.3-0.8C143.8,48.9,145.3,50.5,147.3,50.2z"/>
	<path d="M147.3,50.2l0.3,0.4c1.3-1,1.9-2.5,1.9-4.1c0-1.4-0.5-2.8-1.3-4l-0.2,0.2l0.2-0.1l-0.1-0.1l-0.2,0.2l0.2-0.1H148h0.1H148
		h0.1c0,0,0-0.1,0-0.2s0-0.2,0-0.4c0-0.1-0.1-0.3-0.2-0.5l-0.4,0.4l0.4-0.3c-1-1.5-1.7-3.3-1.7-4.9c0-0.5,0.1-1.1,0.3-1.6l-0.5-0.2
		l0.5,0.2c0.2-0.3,0.4-0.6,0.6-0.7c0.2-0.1,0.5-0.2,0.7-0.2c0.4,0,0.9,0.2,1.4,0.4c0.5,0.3,1,0.7,1.3,1.1l0.4-0.3l-0.4,0.3
		c0.5,0.7,1,1.5,1.6,2.1c0.6,0.6,1.3,1.1,2.3,1.4c0.2,0,0.4,0.1,0.6,0.1c1,0,2-0.4,2.5-1.3c0.4-0.8,0.6-1.6,0.6-2.5
		c0-1.4-0.5-2.7-1.1-3.9l-0.4,0.2l0.5-0.2c-0.6-1.4-1-2.8-1-4.1c0-0.3,0-0.7,0.1-1l-0.5-0.1l0.5,0.1c0.1-0.4,0.4-0.8,0.6-1
		c0.3-0.2,0.6-0.3,1-0.3c0.5,0,0.9,0.2,1.3,0.5c0.7,0.5,1.3,1.1,2,1.8c0.7,0.6,1.4,1.3,2.4,1.6c0.2,0,0.4,0.1,0.6,0.1
		c1,0,2-0.4,2.8-0.9c1.8-1.5,3.6-3.3,5.5-4.2l-0.2-0.4l0.2,0.5c0.9-0.4,1.9-0.6,2.9-0.6c2.2,0,4.4,0.9,5.7,2.7l0.4-0.3l-0.5,0.1
		c0.1,0.4,0.2,0.8,0.2,1.2c0,0.8-0.3,1.3-0.8,1.7c-0.7,0.7-2,1.2-3.4,1.5c-1.4,0.4-2.8,0.6-3.9,1.1c-0.7,0.4-1.6,0.8-2.3,1.4
		c-0.8,0.6-1.4,1.4-1.7,2.6v0.1v0.1c0,0.3,0.1,0.6,0.3,0.8c0.2,0.3,0.6,0.5,0.9,0.6c0.3,0.1,0.6,0.1,0.8,0.1c1.5,0,2.7,0.2,3.9,0.8
		l0.2-0.5l-0.3,0.4c0.6,0.4,1.1,0.7,1.5,1.2c0.4,0.4,0.6,0.9,0.6,1.5c0,0.1,0,0.3,0,0.4l0.5,0.1l-0.5-0.1c-0.3,1.5-1,2.2-1.9,2.7
		s-2.1,0.6-3.4,0.6c-1,0-2-0.1-3-0.1c-0.4,0-0.8,0-1.2,0c-0.8,0.1-1.7,0.4-2.5,0.8c-0.8,0.5-1.4,1.2-1.6,2.2c0,0.5,0.1,1.1,0.4,1.6
		c0.2,0.3,0.3,0.5,0.6,0.7c0.3,0.2,0.6,0.3,0.9,0.3c0.6,0,1-0.3,1.3-0.5c0.3-0.2,0.6-0.4,0.9-0.5l-0.1-0.5l0.1,0.5h0.1
		c0.2,0,0.3,0,0.4,0.1c0.1,0.1,0.3,0.3,0.4,0.5c0.1,0.3,0.1,0.6,0.1,0.9c0,0.2,0,0.5-0.1,0.6l0.5,0.1l-0.5-0.2
		c-0.5,1.1-1.2,1.7-2.1,2.1c-0.9,0.4-2,0.5-3.2,0.5c-1.3,0-2.7-0.1-3.9-0.1c-0.3,0-0.5,0-0.8,0c-1.5,0.2-2.6,1.1-3.4,2.3
		c-0.3,0.5-0.4,1.2-0.4,1.8c0,0.8,0.2,1.5,0.7,2c0.9,0.6,1.8,0.6,2.7,0.7c0.8,0.1,1.6,0.1,2.2,0.6l0.3-0.4l-0.4,0.4
		c0.8,0.7,1.3,1.6,1.3,2.4c0,0.2,0,0.4-0.1,0.6l0.5,0.2l-0.5-0.2c-0.3,0.7-0.8,1.2-1.4,1.6c-0.9,0.6-2,0.9-3.2,1.2
		c-1.2,0.3-2.5,0.5-3.6,1c-1.2,0.6-2,1.6-2.4,2.7c-0.5,1.1-0.7,2.3-0.7,3.4c0,0.8,0.4,1.5,0.7,2.1c0.4,0.6,0.7,1.1,0.8,1.6l0.5-0.1
		l-0.5,0.1c0,0.1,0,0.3,0,0.4c0,1.1-0.6,2-1.6,2.7l0.3,0.4l-0.2-0.5c-0.3,0.1-0.5,0.3-0.7,0.4c-0.2,0.1-0.4,0.3-0.6,0.4l0.3,0.4
		l-0.2-0.4c-0.6,0.3-1.5,0.5-2.4,0.7c-0.4,0.1-0.9,0.3-1.3,0.5s-0.8,0.6-1.1,1.1c-1.8,3.7-2.8,7.2-5.6,9.8l0.3,0.4v-0.5h-0.1v0.5
		l0.5-0.1c-0.4-1.8-0.7-3.8-0.7-5.7c0-2.3,0.5-4.4,2.1-6.1l-0.4-0.3l0.4,0.4c0.7-0.7,1.6-1.1,2.5-1.6c1-0.5,2-1,2.9-2
		c0.4-0.6,0.5-1.2,0.5-1.8c0-1.3-0.7-2.4-1.6-3.2c-1.1-0.9-2.4-1.4-3.7-1.9c-1-0.4-1.9-0.9-2.6-1.5c-0.7-0.6-1.1-1.4-1.2-2.4
		l-0.5,0.1h0.5c0-0.4,0-0.7,0.2-0.9c0.1-0.2,0.2-0.3,0.5-0.5l-0.2-0.5l0.1,0.5c0.1,0,0.2,0,0.4,0c1,0,2.1,0.4,3.3,0.4
		c0.6,0,1.2-0.1,1.9-0.5c0.7-0.5,1.5-1.2,2-2c0.5-0.8,0.9-1.6,0.9-2.6c0-0.9-0.4-1.9-1.4-2.7c-1.6-1.1-3.2-2.4-4.3-3.8
		c-1.1-1.4-1.9-2.9-1.9-4.6c0-0.6,0.1-1.1,0.3-1.8c0-0.3,0.2-0.4,0.4-0.6c0.2-0.1,0.5-0.2,0.9-0.2c0.4,0,0.9,0.1,1.3,0.3
		c0.8,0.4,1.5,0.9,2.3,1.4c0.8,0.5,1.7,0.9,2.7,0.9c0.2,0,0.4,0,0.6,0h0.1l0.1-0.1L147.3,50.2l-0.1-0.5c-0.1,0-0.3,0-0.4,0
		c-0.7,0-1.4-0.3-2.2-0.7c-0.7-0.4-1.5-1-2.4-1.4L142,48l0.3-0.4c-0.5-0.3-1.2-0.5-1.8-0.5c-0.5,0-1,0.1-1.4,0.4
		c-0.4,0.3-0.8,0.7-0.8,1.3l0.5,0.1l-0.5-0.1c-0.2,0.7-0.3,1.4-0.3,2c0,2,0.8,3.7,2.1,5.3c1.2,1.5,2.9,2.8,4.5,4l0.3-0.4l-0.3,0.4
		c0.8,0.6,1,1.3,1,1.9c0,0.6-0.3,1.3-0.8,2c-0.5,0.7-1.1,1.3-1.8,1.7l0.3,0.4l-0.2-0.4c-0.5,0.3-0.9,0.3-1.4,0.3
		c-1,0-2.1-0.4-3.3-0.4c-0.2,0-0.3,0-0.5,0h-0.1h-0.1c-0.5,0.2-0.9,0.5-1.1,1c-0.2,0.4-0.2,0.9-0.2,1.3c0.2,1.2,0.7,2.2,1.5,3
		c0.8,0.8,1.8,1.3,2.9,1.7c1.3,0.5,2.6,1,3.5,1.7l0.3-0.4l-0.3,0.4c0.7,0.6,1.3,1.6,1.3,2.4c0,0.4-0.1,0.8-0.4,1.2l0.4,0.3l-0.4-0.3
		c-0.7,0.8-1.6,1.3-2.6,1.8s-2,1-2.8,1.8c-1.8,1.9-2.4,4.4-2.4,6.8c0,2,0.4,4,0.7,5.9l0.1,0.4h0.5h0.2l0.1-0.1c3-2.8,4-6.5,5.8-10
		l-0.4-0.2l0.4,0.3c0.2-0.3,0.5-0.5,0.8-0.7c0.5-0.3,1-0.4,1.7-0.6c0.6-0.1,1.3-0.3,2-0.6c0.3-0.2,0.5-0.3,0.7-0.5
		c0.2-0.1,0.4-0.2,0.6-0.3c1.3-0.8,2.1-2.1,2.1-3.5c0-0.2,0-0.4,0-0.6c-0.1-0.8-0.6-1.4-0.9-2c-0.3-0.6-0.6-1.1-0.6-1.5
		c0-0.9,0.2-2,0.6-3c0.4-0.9,1-1.7,1.9-2.2l-0.2-0.5l0.2,0.5c1.3-0.6,3-0.8,4.6-1.3c0.8-0.2,1.6-0.5,2.3-1c0.7-0.5,1.3-1.1,1.7-2.1
		c0.1-0.3,0.2-0.7,0.2-1c0-1.2-0.8-2.3-1.6-3.1c-0.9-0.6-1.9-0.7-2.7-0.8c-0.8-0.1-1.6-0.1-2.2-0.5l-0.3,0.4l0.4-0.4
		c-0.2-0.2-0.4-0.8-0.4-1.3s0.1-1,0.3-1.4l-0.4-0.2l0.4,0.3c0.8-1,1.6-1.7,2.8-1.9l-0.1-0.5v0.5c0.2,0,0.5,0,0.7,0
		c1.2,0,2.6,0.1,3.9,0.1c1.2,0,2.5-0.1,3.6-0.6c1.1-0.5,2.1-1.3,2.7-2.6c0.1-0.3,0.1-0.6,0.1-0.9c0-0.5-0.1-1.1-0.4-1.6
		c-0.1-0.2-0.3-0.5-0.6-0.6c-0.3-0.2-0.6-0.3-0.9-0.3c-0.1,0-0.2,0-0.3,0c-0.5,0.1-0.9,0.4-1.2,0.6c-0.3,0.2-0.5,0.3-0.8,0.3
		c-0.1,0-0.2,0-0.4-0.1c-0.2-0.1-0.3-0.4-0.5-0.7c-0.1-0.3-0.2-0.6-0.2-0.8H164l0.5,0.1c0.1-0.6,0.5-1.1,1.1-1.5
		c0.6-0.4,1.4-0.6,2.1-0.7l-0.1-0.5v0.5c0.3,0,0.7,0,1.1,0c0.9,0,2,0.1,3,0.1c1.4,0,2.7-0.1,3.9-0.7c1.2-0.6,2.1-1.6,2.4-3.4
		c0-0.2,0.1-0.4,0.1-0.6c0-0.9-0.4-1.6-0.9-2.2c-0.5-0.6-1.1-1-1.7-1.4c-1.4-0.6-2.8-0.8-4.3-0.8c-0.2,0-0.5,0-0.7-0.2
		c-0.1-0.1-0.2-0.1-0.2-0.2s-0.1-0.1-0.1-0.2h-0.5l0.5,0.1c0.2-0.9,0.7-1.5,1.3-2s1.4-0.9,2.2-1.3l-0.2-0.4l0.2,0.5
		c1.3-0.5,3.4-0.8,5.2-1.4c0.9-0.3,1.8-0.7,2.4-1.3c0.7-0.6,1.1-1.4,1.1-2.5c0-0.5-0.1-0.9-0.2-1.5V26v-0.1c-1.5-2.1-4-3.1-6.5-3.1
		c-1.1,0-2.3,0.2-3.3,0.6c-2.1,1.1-3.9,2.9-5.7,4.4l0.3,0.4l-0.3-0.4c-0.8,0.5-1.6,0.8-2.3,0.8c-0.2,0-0.3,0-0.4,0l-0.1,0.5l0.1-0.5
		c-0.7-0.2-1.4-0.7-2-1.3c-0.7-0.6-1.3-1.3-2.1-1.9l-0.3,0.4l0.3-0.4c-0.6-0.5-1.3-0.8-2-0.8c-0.6,0-1.1,0.2-1.6,0.5
		c-0.5,0.3-0.8,0.9-1,1.5c-0.1,0.4-0.1,0.8-0.1,1.2c0,1.5,0.5,3.1,1.1,4.5c0.6,1.1,1,2.3,1,3.4c0,0.7-0.1,1.4-0.5,2l0.4,0.2
		l-0.4-0.3c-0.3,0.5-1,0.8-1.7,0.8c-0.1,0-0.3,0-0.4,0l-0.1,0.5l0.1-0.5c-0.8-0.2-1.4-0.6-1.9-1.1s-0.9-1.2-1.4-2
		c-0.4-0.5-1-0.9-1.6-1.3c-0.6-0.3-1.3-0.6-1.9-0.6c-0.4,0-0.9,0.1-1.3,0.3c-0.4,0.2-0.7,0.6-1,1.1c-0.2,0.6-0.3,1.3-0.3,1.9
		c0,1.9,0.9,3.8,1.9,5.4l0.2-0.2l-0.2,0.1l0.1,0.1l0.2-0.2l-0.2,0.1c0,0,0,0.1,0,0.2c0,0.1,0,0.2,0,0.4c0,0.1,0.1,0.3,0.2,0.5
		l0.4-0.4l-0.4,0.3c0.7,1,1.1,2.3,1.1,3.4c0,1.3-0.5,2.4-1.5,3.3L147.3,50.2l-0.1-0.5L147.3,50.2z"/>
	<path d="M80,63c-0.2-0.8,0-1.5,0.5-2.1c1.5-1.3,4.9-2.6,3.3-4.9c-2.3-1-4.9-0.2-7.4-0.5c-1.3-0.2-2.1-1.3-2.6-2.3
		c0-0.3,0-0.6,0-0.9c0.1-1.3,0.8-2.6,1.8-3.2c1.3-0.5,2.6-1,3.8-0.8c1.8,0.2,3.3,1.5,4.1,3.3c0.5,0.8,1.5,1,2.3,0.8
		c1.5-0.2,0.8-2.6,1.5-3.8c1-1.5,3.6-1,5.1-0.5c1.5,0.8,2.1,2.6,1.3,4.1c-1.1,2.5-1.1,5.7,0.9,7.8c-0.1,0,0,0.2,0.9,0.8
		c0.5-2.7,3.6-4.5,6.1-3.4c1.8,0.8,2.3,3.3,1.5,4.9c-0.8,2.1-4.6,4.6-1.8,6.1c2.8,1.8,4.6-1.8,7.2-2.6c1.3-0.2,2.8-0.2,3.3,1
		c0.2,0.8,0.2,1.8,0,2.6c-1,2.3-3.3,4.1-3.6,6.6c-0.2,1,1,1.8,2.1,1.8c2.3,0,5.1-2.1,6.6,0.5c0.8,1.3,0.2,2.6-0.2,3.8
		c-1.5,2.6-4.6,5.1-2.8,8.2c0.2,0.5,0.5,0.8,0.8,1.3c0.6,0.9,1.2,1.4,1.4,2.3c-2.1,0.3-3.4-0.8-5-1.8c-1.8-1.5-3.1-3.3-5.1-4.3
		c-3.1-1.5-6.1-0.2-9.4-1c-2.1-0.5-1.8-2.6-1-3.8c1.8-2.1,5.1-2.1,6.1-4.6c0.2-1.3-0.5-2.8-1.8-2.8c-2.6,0.5-4.6,3.3-7.2,1.8
		c-1-0.5-1-1.8-0.5-2.6c1-1,2.6-1.3,3.8-2.1c0.5-0.5,1.3-0.8,1.5-1.3c0.5-1,0.2-2.1-0.8-2.8c-1-0.5-2.3-0.5-3.1,0
		c-2.8,1.5-5.6,4.1-8.9,2.3c-0.8-0.5-1.3-1.3-1.5-2.1C83,68,83.4,67.5,84,67.3c1.5-0.5,3.3,0,4.3-1.3c0.8-1.3,0.2-3.1-1.3-3.3
		c-1.5,0-2.8,0.8-4.1,1.3C82,64.3,80.5,64,80,63z"/>
	<path d="M80,63l0.5-0.1c0-0.2-0.1-0.3-0.1-0.5c0-0.4,0.2-0.8,0.5-1.2l-0.4-0.3l0.3,0.4c0.6-0.5,1.5-1,2.3-1.6
		c0.4-0.3,0.8-0.7,1.1-1.1s0.5-0.9,0.5-1.4s-0.2-1-0.5-1.5l-0.1-0.1L84,55.5c-1.1-0.5-2.2-0.6-3.2-0.6s-2,0.1-3,0.1
		c-0.4,0-0.9,0-1.3-0.1l-0.1,0.5l0.1-0.5c-0.5-0.1-1-0.3-1.3-0.7c-0.4-0.4-0.7-0.8-0.9-1.3l-0.4,0.2h0.5c0-0.3,0-0.6,0-0.9h-0.5h0.5
		c0.1-1.2,0.7-2.3,1.6-2.8L75.7,49l0.2,0.5c1.1-0.4,2.2-0.8,3.1-0.8c0.2,0,0.3,0,0.5,0c1.6,0.2,3,1.3,3.7,3c0.5,0.8,1.4,1.1,2.1,1.1
		c0.2,0,0.5,0,0.7-0.1l-0.1-0.5l0.1,0.5c0.5-0.1,0.9-0.4,1.1-0.8c0.3-0.6,0.3-1.2,0.4-1.8s0.1-1.2,0.3-1.5l-0.4-0.3l0.4,0.3
		c0.2-0.3,0.4-0.5,0.8-0.6c0.3-0.1,0.7-0.2,1.2-0.2c0.9,0,1.9,0.2,2.6,0.5l0.2-0.5l-0.2,0.4c0.9,0.5,1.4,1.3,1.4,2.3
		c0,0.4-0.1,0.8-0.3,1.2c-0.5,1.1-0.8,2.4-0.8,3.6c0,1.7,0.5,3.4,1.8,4.7l0.4-0.3v-0.5c-0.1,0-0.2,0-0.3,0.1
		c-0.1,0.1-0.2,0.3-0.2,0.4c0,0.1,0,0.2,0.1,0.3c0.1,0.2,0.2,0.3,0.4,0.4c0.2,0.1,0.4,0.3,0.7,0.5l0.6,0.4l0.1-0.7
		c0.3-1.9,2.2-3.3,4-3.3c0.5,0,0.9,0.1,1.4,0.3c0.5,0.2,0.9,0.6,1.2,1.1c0.3,0.5,0.4,1.1,0.4,1.7c0,0.5-0.1,1-0.3,1.4
		c-0.2,0.6-0.9,1.5-1.6,2.3c-0.3,0.4-0.6,0.8-0.9,1.3c-0.2,0.4-0.4,0.9-0.4,1.4c0,0.3,0.1,0.7,0.3,1c0.2,0.3,0.5,0.6,1,0.8l0.2-0.4
		l-0.3,0.4c0.6,0.4,1.2,0.6,1.8,0.6c0.6,0,1.2-0.2,1.7-0.5c0.8-0.4,1.4-1,2.1-1.5c0.7-0.5,1.3-1,2-1.2l-0.1-0.5l0.1,0.5
		c0.4-0.1,0.7-0.1,1.1-0.1s0.8,0.1,1.1,0.2c0.3,0.1,0.5,0.3,0.6,0.6l0.5-0.2l-0.5,0.1c0.1,0.4,0.1,0.8,0.1,1.2c0,0.4,0,0.8-0.1,1.2
		l0.5,0.1l-0.5-0.2c-0.5,1.1-1.3,2.1-2,3.1c-0.7,1.1-1.5,2.2-1.6,3.6l0.5,0.1l-0.5-0.1c0,0.1,0,0.2,0,0.3c0,0.7,0.4,1.2,0.9,1.5
		s1.1,0.5,1.7,0.5c0.8,0,1.6-0.2,2.3-0.4c0.8-0.2,1.5-0.4,2.1-0.4c0.4,0,0.7,0.1,1,0.2c0.3,0.2,0.5,0.4,0.8,0.8
		c0.2,0.4,0.3,0.8,0.3,1.1c0,0.7-0.3,1.5-0.6,2.2l0.5,0.2l-0.4-0.2c-0.6,1-1.4,2-2.1,3c-0.7,1.1-1.3,2.2-1.3,3.5
		c0,0.7,0.2,1.4,0.6,2.2l0.4-0.3l-0.5,0.2c0.1,0.3,0.3,0.5,0.4,0.7c0.1,0.2,0.3,0.4,0.4,0.6c0.3,0.5,0.6,0.8,0.9,1.2
		c0.2,0.3,0.4,0.6,0.5,1l0.5-0.1l-0.1-0.5c-0.2,0-0.4,0-0.6,0c-0.8,0-1.4-0.2-2-0.5c-0.6-0.3-1.3-0.8-2-1.2l-0.3,0.4l0.3-0.4
		c-1.7-1.4-3.1-3.3-5.2-4.4c-1.4-0.7-2.8-0.8-4.2-0.8c-0.9,0-1.8,0.1-2.7,0.1c-0.9,0-1.8-0.1-2.6-0.3c-0.5-0.1-0.8-0.3-1-0.6
		c-0.2-0.2-0.3-0.5-0.3-0.9c0-0.5,0.2-1.2,0.5-1.6L95.6,83l0.4,0.3c0.8-0.9,2-1.4,3.2-2c0.6-0.3,1.2-0.6,1.7-1c0.5-0.4,1-1,1.3-1.7
		v-0.1v-0.1c0-0.2,0-0.3,0-0.5c0-0.7-0.2-1.4-0.6-1.9c-0.4-0.5-1-1-1.8-0.9c-1.1,0.2-2.1,0.8-3,1.3c-0.9,0.5-1.7,0.9-2.5,0.9
		c-0.4,0-0.8-0.1-1.3-0.4c-0.2-0.1-0.3-0.2-0.4-0.4c-0.1-0.2-0.1-0.4-0.1-0.6c0-0.3,0.1-0.6,0.3-0.9l-0.4-0.3l0.4,0.4
		c0.4-0.4,1-0.7,1.7-1c0.7-0.3,1.4-0.6,2-1c0.2-0.2,0.5-0.4,0.8-0.6c0.3-0.2,0.6-0.4,0.8-0.9l-0.5-0.2l0.4,0.2
		c0.2-0.4,0.3-0.8,0.3-1.2c0-0.9-0.5-1.7-1.3-2.2c-0.6-0.3-1.2-0.4-1.8-0.4c-0.6,0-1.2,0.1-1.7,0.5l0.3,0.4l-0.2-0.4
		c-1.1,0.6-2.2,1.3-3.2,1.9c-1.1,0.6-2.1,1-3.1,1c-0.7,0-1.3-0.2-2.1-0.5L85,71.1l0.3-0.4c-0.7-0.4-1.1-1.1-1.3-1.8
		c0-0.1,0-0.2,0-0.3c0-0.2,0-0.3,0.1-0.4c0.1-0.1,0.2-0.2,0.4-0.2c0.6-0.2,1.4-0.2,2.2-0.3c0.4-0.1,0.8-0.1,1.2-0.3
		c0.4-0.2,0.8-0.4,1.1-0.8c0.3-0.5,0.4-1,0.4-1.5c0-0.6-0.2-1.2-0.5-1.6c-0.4-0.5-0.9-0.8-1.6-0.9c-1.7,0-3,0.9-4.3,1.3l0.2,0.5
		L83,63.9C82.8,64,82.6,64,82.4,64c-0.3,0-0.7-0.1-1-0.2c-0.3-0.1-0.5-0.4-0.7-0.6L80,63l0.5-0.1L80,63l-0.4,0.2
		c0.3,0.5,0.7,0.8,1.1,1.1c0.5,0.2,1,0.3,1.5,0.3c0.3,0,0.6,0,0.9-0.1c1.4-0.5,2.6-1.3,3.9-1.3v-0.5l-0.1,0.5
		c0.4,0.1,0.7,0.2,0.9,0.5c0.2,0.3,0.3,0.6,0.3,1c0,0.3-0.1,0.7-0.3,1l0.4,0.3l-0.4-0.3c-0.2,0.3-0.4,0.4-0.7,0.5
		c-0.4,0.2-0.9,0.2-1.5,0.3c-0.6,0.1-1.2,0.1-1.9,0.3c-0.3,0.1-0.6,0.3-0.8,0.6c-0.2,0.3-0.4,0.6-0.4,1c0,0.2,0,0.3,0.1,0.5
		c0.2,0.9,0.8,1.8,1.7,2.4c0.9,0.5,1.7,0.7,2.5,0.7c1.3,0,2.5-0.5,3.6-1.1c1.1-0.6,2.2-1.3,3.2-1.9c0.3-0.2,0.7-0.3,1.2-0.3
		s1,0.1,1.4,0.3l0.2-0.4V69c0.6,0.4,0.8,0.9,0.8,1.4c0,0.2-0.1,0.5-0.2,0.7c0,0.1-0.2,0.2-0.5,0.4c-0.3,0.2-0.6,0.4-0.9,0.7l0.4,0.4
		l-0.3-0.4c-0.5,0.4-1.2,0.6-1.9,0.9c-0.7,0.3-1.4,0.7-2,1.2c-0.3,0.4-0.4,0.9-0.4,1.4c0,0.4,0.1,0.7,0.3,1.1
		c0.2,0.3,0.5,0.6,0.9,0.8l0.2-0.4l-0.2,0.4c0.6,0.4,1.2,0.5,1.8,0.5c1.1,0,2.1-0.5,3-1c0.9-0.5,1.8-1,2.7-1.2l-0.1-0.5v0.5
		c0.4,0,0.7,0.2,0.9,0.5c0.2,0.3,0.4,0.8,0.4,1.3c0,0.1,0,0.2,0,0.4l0.5,0.1l-0.5-0.2c-0.2,0.5-0.5,0.9-1,1.3
		c-0.6,0.5-1.5,0.9-2.4,1.3c-0.9,0.4-1.9,1-2.6,1.8c-0.4,0.6-0.7,1.4-0.7,2.2c0,0.5,0.1,1,0.5,1.5c0.3,0.4,0.9,0.8,1.5,0.9
		c1,0.2,2,0.3,2.9,0.3s1.8-0.1,2.7-0.1c1.3,0,2.5,0.1,3.7,0.7l0.2-0.5l-0.2,0.4c1.9,0.9,3.1,2.7,5,4.2c0.7,0.4,1.4,0.9,2.1,1.3
		c0.7,0.4,1.5,0.6,2.5,0.6c0.2,0,0.5,0,0.8-0.1l0.5-0.1l-0.1-0.5c-0.1-0.5-0.4-1-0.6-1.3c-0.3-0.4-0.6-0.7-0.8-1.1l-0.4,0.3l0.4-0.3
		c-0.2-0.3-0.3-0.5-0.5-0.7c-0.1-0.2-0.2-0.4-0.3-0.6c-0.3-0.6-0.5-1.1-0.5-1.7c0-1,0.5-1.9,1.1-2.9c0.7-1,1.5-2,2.1-3.1
		c0.2-0.7,0.6-1.6,0.6-2.6c0-0.5-0.1-1.1-0.5-1.7l-0.4,0.3l0.4-0.2c-0.3-0.6-0.7-1-1.2-1.2s-1-0.3-1.4-0.3c-0.8,0-1.6,0.2-2.3,0.4
		c-0.8,0.2-1.5,0.4-2.1,0.4c-0.4,0-0.8-0.1-1.2-0.4c-0.3-0.2-0.5-0.5-0.5-0.7v-0.1c0.1-1.1,0.7-2.1,1.5-3.1c0.7-1,1.6-2.1,2.1-3.3
		c0.1-0.4,0.2-0.9,0.2-1.4s-0.1-1-0.2-1.4c-0.2-0.5-0.6-0.9-1.1-1.1s-1-0.3-1.5-0.3c-0.4,0-0.8,0-1.2,0.1c-1.2,0.4-2.1,1.2-3,1.9
		c-0.4,0.3-0.9,0.7-1.3,0.9c-0.4,0.2-0.8,0.3-1.2,0.3c-0.4,0-0.8-0.1-1.3-0.4c-0.3-0.2-0.5-0.3-0.6-0.5c-0.1-0.1-0.1-0.3-0.1-0.4
		c0-0.2,0.1-0.5,0.3-0.9c0.3-0.5,0.8-1.1,1.3-1.7s1-1.3,1.2-1.9l-0.5-0.2l0.4,0.2c0.3-0.6,0.4-1.2,0.4-1.9c0-0.7-0.2-1.5-0.5-2.1
		c-0.4-0.7-0.9-1.2-1.6-1.6c-0.6-0.3-1.2-0.4-1.8-0.4c-2.3,0-4.6,1.7-5,4.1l0.5,0.1l0.3-0.4c-0.4-0.2-0.6-0.4-0.7-0.5H95l-0.2,0.1
		l0.2-0.1l-0.2,0.1l0.2-0.1L94.6,60H95c0-0.1,0-0.2,0-0.2L94.6,60H95h-0.5l0.3,0.4c0.1-0.1,0.2-0.3,0.2-0.4h-0.5l0.3,0.4L94.6,60
		v0.5c0.1,0,0.1,0,0.3-0.1L94.6,60v0.5h1.2L95,59.7c-1-1.1-1.5-2.5-1.5-4c0-1.1,0.3-2.2,0.7-3.2l-0.5-0.2l0.4,0.2
		c0.3-0.5,0.4-1.1,0.4-1.6c0-1.3-0.7-2.5-1.9-3.1c-0.8-0.3-1.8-0.5-2.9-0.5c-0.5,0-1,0.1-1.5,0.3c-0.5,0.2-0.9,0.5-1.2,1
		c-0.4,0.8-0.4,1.7-0.5,2.5c0,0.4-0.1,0.7-0.2,0.8c-0.1,0.2-0.2,0.2-0.4,0.3c-0.1,0-0.3,0.1-0.5,0.1c-0.5,0-1-0.2-1.3-0.6L83.7,52
		l0.5-0.2c-0.9-1.9-2.5-3.4-4.5-3.6l-0.1,0.5l0.1-0.5c-0.2,0-0.4-0.1-0.6-0.1c-1.2,0-2.3,0.5-3.4,0.9c-1.2,0.7-1.9,2.1-2,3.6
		c0,0.3,0,0.6,0,0.9v0.1l0.1,0.1c0.3,0.5,0.6,1.1,1.1,1.6s1.1,0.9,1.9,1c0.5,0.1,0.9,0.1,1.4,0.1c1,0,2.1-0.1,3-0.1
		c1,0,2,0.1,2.8,0.5l0.2-0.5l-0.4,0.3c0.2,0.4,0.3,0.6,0.3,0.9S84,58,83.8,58.3c-0.3,0.4-0.9,0.9-1.5,1.3c-0.6,0.4-1.3,0.8-1.8,1.3
		c-0.4,0.5-0.7,1.1-0.7,1.8c0,0.2,0,0.5,0.1,0.7v0.1L80,63z"/>
	<path d="M183.5-18c-1.6-1.2-3.6-2.7-6.2-3.9c-2.6-1.2-5.6-2.1-9.1-2.2l-0.1,3l0.1-3c-0.4,0-0.7,0-1.1,0c-3.3,0-6.2,0.8-8.7,2
		c-1.9,0.9-3.5,1.9-5,3c-2.3,1.6-4.3,3.1-6.4,4.2s-4.1,1.8-6.7,1.9h-0.2c-2.5,0-4.3-0.6-6.1-1.6c-1.3-0.7-2.6-1.7-3.9-2.8
		c-2-1.6-4.1-3.6-6.8-5.2c-1.3-0.8-2.8-1.5-4.5-2s-3.5-0.8-5.5-0.8h-0.2c-3.4,0-6.3,0.9-8.8,2.1c-1.9,0.9-3.5,2-5,3.1
		C97-18.6,95-17,92.9-15.9c-2.2,1.1-4.4,1.8-7.3,1.9h-0.2c-3.1,0-5.9-0.8-8.5-2c-2.6-1.2-4.8-2.8-6.7-4.3l-3.7,4.7
		c2.1,1.7,4.7,3.5,7.9,5c3.2,1.5,6.9,2.5,11,2.5c0.1,0,0.2,0,0.3,0c3.5,0,6.5-0.9,9.1-2.1c1.9-0.9,3.6-2,5.1-3.1
		c2.3-1.6,4.3-3.2,6.4-4.3c2.1-1.1,4.1-1.8,6.9-1.8h0.1c2.5,0,4.4,0.6,6.2,1.6c1.3,0.7,2.6,1.7,4,2.8c2,1.6,4.1,3.6,6.7,5.2
		c1.3,0.8,2.8,1.5,4.4,2c1.6,0.5,3.5,0.8,5.4,0.8c0.1,0,0.2,0,0.3,0c3.3-0.1,6.1-0.9,8.6-2.1c1.8-0.9,3.4-1.9,5-3
		c2.3-1.6,4.3-3.1,6.4-4.2c2.1-1.1,4.2-1.7,6.8-1.8c0.2,0,0.5,0,0.8,0c2.5,0.1,4.8,0.8,6.7,1.7c2,0.9,3.7,2.1,5,3.2L183.5-18z"/>
	<path d="M183.5-18l0.3-0.4c-1.6-1.2-3.6-2.7-6.3-4c-2.6-1.2-5.7-2.1-9.3-2.2h-0.5l-0.1,3.5h1l0.1-3.5h-0.5c-0.4,0-0.7,0-1.1,0
		c-3.4,0-6.4,0.8-8.9,2c-1.9,0.9-3.6,1.9-5.1,3l0.3,0.4l-0.3-0.4c-2.3,1.6-4.3,3.1-6.3,4.2c-2.1,1.1-4,1.7-6.5,1.8v0.5v-0.5h-0.2
		c-2.4,0-4.1-0.6-5.9-1.5c-1.2-0.7-2.5-1.7-3.8-2.7c-2-1.6-4.1-3.6-6.9-5.2l-0.3,0.4l0.3-0.4c-1.3-0.8-2.9-1.5-4.6-2.1
		c-1.7-0.5-3.6-0.8-5.6-0.8h-0.2c-3.5,0-6.5,0.9-9,2.1c-1.9,0.9-3.6,2-5.1,3.1l0.3,0.4L99-20.6c-2.3,1.6-4.3,3.2-6.3,4.3l0.2,0.4
		l-0.2-0.4c-2.2,1.1-4.3,1.7-7.1,1.8v0.5v-0.5h-0.2c-3,0-5.7-0.8-8.3-2c-2.5-1.2-4.7-2.7-6.6-4.2L70.1-21l-4.3,5.5l0.4,0.3
		c2.1,1.7,4.8,3.5,8,5.1c3.3,1.5,7,2.5,11.2,2.5c0.1,0,0.2,0,0.3,0c3.6,0,6.7-0.9,9.3-2.1c1.9-0.9,3.7-2,5.2-3.1l-0.3-0.4l0.3,0.4
		c2.3-1.6,4.3-3.2,6.3-4.3c2.1-1.1,4-1.7,6.7-1.7h0.1c2.4,0,4.2,0.6,6,1.5c1.2,0.7,2.5,1.7,3.9,2.8c2,1.6,4.1,3.6,6.8,5.2
		c1.3,0.8,2.9,1.5,4.5,2.1c1.7,0.5,3.6,0.8,5.5,0.8c0.1,0,0.2,0,0.3,0c3.4-0.1,6.2-0.9,8.8-2.1c1.8-0.9,3.4-1.9,5.1-3
		c2.3-1.6,4.3-3.1,6.3-4.2c2-1.1,4.1-1.6,6.6-1.7v-0.5v0.5c0.2,0,0.5,0,0.8,0v-0.5v0.5c2.4,0.1,4.7,0.8,6.5,1.7
		c1.9,0.9,3.6,2,4.9,3.1l0.4,0.3l4.5-5.6l-0.4-0.3L183.5-18l-0.4-0.3l-3.9,4.8l0.4,0.3l0.3-0.4c-1.3-1.1-3.1-2.3-5.1-3.3l-0.2,0.5
		l0.2-0.5c-2-0.9-4.3-1.6-6.9-1.7c-0.3,0-0.6,0-0.8,0c-2.7,0.1-4.9,0.7-7,1.9c-2.1,1.1-4.2,2.6-6.5,4.2c-1.6,1.1-3.2,2.1-4.9,3
		l0.2,0.4l-0.2-0.5c-2.4,1.2-5.2,2-8.4,2.1V-7v-0.5c-0.1,0-0.2,0-0.3,0c-1.8,0-3.7-0.3-5.2-0.8c-1.6-0.5-3-1.2-4.3-1.9
		c-2.5-1.6-4.6-3.5-6.6-5.2c-1.4-1.1-2.7-2.1-4.1-2.8l-0.2,0.4l0.2-0.4c-1.9-1-3.9-1.7-6.4-1.7h-0.1c-2.9,0-5,0.7-7.1,1.9
		c-2.2,1.1-4.2,2.7-6.5,4.3c-1.5,1.1-3.2,2.2-5,3.1c-2.6,1.2-5.5,2.1-8.9,2.1c-0.1,0-0.2,0-0.3,0c-4,0-7.6-1-10.8-2.5
		s-5.7-3.3-7.8-4.9l-0.3,0.4l0.4,0.3l3.7-4.7l-0.4-0.3L70-19.8c1.9,1.5,4.1,3.1,6.8,4.4c2.6,1.2,5.5,2,8.7,2h0.2
		c3-0.1,5.3-0.8,7.5-2c2.2-1.1,4.2-2.7,6.5-4.3c1.5-1.1,3.1-2.2,4.9-3.1c2.5-1.2,5.3-2.1,8.6-2.1h0.2c2,0,3.7,0.3,5.4,0.8
		s3.1,1.2,4.4,1.9c2.6,1.6,4.7,3.5,6.7,5.2l0.3-0.4l-0.3,0.4c1.3,1.1,2.6,2.1,4,2.9l0.2-0.4l-0.2,0.4c1.8,1,3.8,1.7,6.3,1.7h0.2
		c2.7-0.1,4.8-0.8,6.9-2c2.2-1.1,4.2-2.6,6.5-4.2c1.5-1.1,3-2.1,4.9-3c2.4-1.2,5.3-2,8.5-2c0.4,0,0.7,0,1.1,0v-0.5h-0.5l-0.1,3h1
		l0.1-3h-0.5v0.5c3.4,0.1,6.4,1,8.9,2.2c2.5,1.2,4.5,2.6,6.1,3.8L183.5-18l-0.4-0.3L183.5-18z"/>
	<path d="M183.5,2.9c-1.6-1.2-3.6-2.7-6.2-3.9c-2.6-1.2-5.6-2.1-9.1-2.2l-0.1,3l0.1-3c-0.4,0-0.7,0-1.1,0c-3.3,0-6.2,0.8-8.7,2
		c-1.9,0.9-3.5,1.9-5,3c-2.3,1.6-4.3,3.1-6.4,4.2c-2,1-4,1.7-6.7,1.8h-0.2c-2.5,0-4.3-0.6-6.1-1.6c-1.3-0.7-2.6-1.7-3.9-2.8
		c-2-1.6-4.1-3.6-6.7-5.2c-1.3-0.8-2.8-1.5-4.5-2c-1.7-0.5-3.5-0.8-5.5-0.8h-0.2c-3.4,0-6.3,0.9-8.7,2.1c-1.9,0.9-3.5,2-5,3
		c-2.3,1.6-4.3,3.2-6.4,4.3c-2.2,1.1-4.4,1.9-7.3,1.9h-0.2c-3.1,0-5.9-0.8-8.5-2c-2.6-1.2-4.9-2.8-6.7-4.3l-3.7,4.7
		c2.1,1.7,4.8,3.5,8,5s6.9,2.5,11,2.5c0.1,0,0.2,0,0.3,0c3.5-0.1,6.5-0.9,9.1-2.1c1.9-0.9,3.6-2,5.1-3.1c2.3-1.6,4.3-3.2,6.4-4.3
		c2.1-1.1,4.1-1.8,6.9-1.8h0.1c2.5,0,4.4,0.6,6.1,1.6c1.3,0.7,2.6,1.7,3.9,2.8c2,1.6,4.1,3.6,6.7,5.2c1.3,0.8,2.8,1.5,4.4,2
		c1.6,0.5,3.5,0.8,5.4,0.8c0.1,0,0.2,0,0.3,0c3.3-0.1,6.1-0.9,8.6-2.1c1.8-0.9,3.4-1.9,5-3c2.3-1.6,4.3-3.1,6.4-4.2
		c2.1-1.1,4.2-1.7,6.8-1.8c0.2,0,0.5,0,0.8,0c2.5,0.1,4.8,0.8,6.7,1.7c2,0.9,3.7,2.1,5,3.2L183.5,2.9z"/>
	<path d="M183.5,2.9l0.3-0.4c-1.6-1.2-3.6-2.7-6.3-4c-2.6-1.2-5.7-2.1-9.3-2.2h-0.5l-0.1,3.5h1l0.1-3.5h-0.5c-0.4,0-0.7,0-1.1,0
		c-3.4,0-6.4,0.8-8.9,2c-1.9,0.9-3.6,1.9-5.1,3l0.3,0.4l-0.3-0.4c-2.3,1.6-4.3,3.1-6.3,4.2L147,6l-0.2-0.4c-2,1-3.9,1.6-6.5,1.7v0.5
		V7.3h-0.2c-2.4,0-4.1-0.6-5.9-1.5c-1.2-0.7-2.5-1.7-3.8-2.7c-2-1.6-4.1-3.6-6.8-5.2c-1.3-0.8-2.9-1.5-4.6-2.1
		c-1.7-0.5-3.6-0.8-5.6-0.8h-0.2c-3.5,0-6.5,0.9-8.9,2.2l0.2,0.4L104.3-3c-1.9,0.9-3.6,2-5.1,3c-2.3,1.6-4.3,3.2-6.3,4.3l0.2,0.4
		l-0.2-0.4c-2.2,1.1-4.3,1.8-7.1,1.8h-0.2c-3,0-5.7-0.8-8.3-2c-2.5-1.2-4.8-2.8-6.6-4.2l-0.4-0.3L66,5.2l0.4,0.3
		c2.1,1.7,4.9,3.5,8.1,5.1c3.3,1.5,7,2.5,11.2,2.5c0.1,0,0.2,0,0.3,0c3.6-0.1,6.6-0.9,9.3-2.1c1.9-0.9,3.7-2,5.2-3.1l-0.3-0.4
		l0.3,0.4c2.3-1.6,4.3-3.2,6.3-4.3c2.1-1.1,4-1.7,6.7-1.7h0.1c2.4,0,4.2,0.6,5.8,1.5c1.2,0.7,2.5,1.7,3.8,2.7c2,1.6,4.1,3.6,6.8,5.2
		c1.3,0.8,2.9,1.5,4.5,2.1c1.7,0.5,3.6,0.8,5.5,0.8c0.1,0,0.2,0,0.3,0c3.4-0.1,6.2-0.9,8.8-2.1c1.8-0.9,3.4-1.9,5.1-3
		c2.3-1.6,4.3-3.1,6.3-4.2s4.1-1.6,6.6-1.7V2.7v0.5c0.2,0,0.5,0,0.8,0V2.6v0.5c2.4,0.1,4.7,0.8,6.5,1.7c1.9,0.9,3.6,2,4.9,3.1
		l0.4,0.3l4.5-5.4l-0.4-0.3L183.5,2.9l-0.4-0.3l-3.8,4.6l0.4,0.3l0.3-0.4c-1.3-1.1-3.1-2.3-5.1-3.3l-0.2,0.5l0.2-0.5
		c-2-0.9-4.3-1.6-6.9-1.7c-0.3,0-0.6,0-0.8,0c-2.7,0.1-4.9,0.7-7,1.9c-2.2,1.1-4.2,2.6-6.5,4.2c-1.6,1.1-3.2,2.1-4.9,3l0.2,0.4
		l-0.2-0.5c-2.4,1.2-5.2,2-8.4,2.1v0.5v-0.5c-0.1,0-0.2,0-0.3,0c-1.8,0-3.7-0.3-5.3-0.8c-1.6-0.5-3-1.2-4.3-1.9
		c-2.5-1.6-4.6-3.5-6.6-5.2l-0.3,0.4l0.3-0.4c-1.3-1.1-2.6-2.1-4-2.9l-0.2,0.4l0.3-0.4c-1.8-1-3.8-1.7-6.4-1.7h-0.1
		c-2.9,0-5,0.7-7.1,1.9c-2.2,1.1-4.2,2.7-6.5,4.3c-1.5,1.1-3.2,2.2-5,3.1l0.2,0.5L94.9,10c-2.5,1.2-5.5,2-8.9,2.1v0.5v-0.5
		c-0.1,0-0.2,0-0.3,0c-4,0-7.6-1-10.8-2.5c-3.2-1.5-5.8-3.3-7.9-4.9l-0.3,0.4l0.4,0.3l3.7-4.7l-0.4-0.3l-0.3,0.4
		c1.8,1.5,4.2,3.1,6.8,4.4c2.6,1.2,5.5,2,8.7,2h0.2c3,0,5.3-0.8,7.5-2c2.2-1.1,4.2-2.7,6.5-4.3l-0.3-0.4l0.3,0.4
		c1.5-1,3.1-2.1,4.9-3c2.3-1.2,5.2-2,8.5-2h0.2c2,0,3.7,0.3,5.4,0.8s3.1,1.2,4.4,1.9c2.5,1.6,4.6,3.5,6.6,5.2l0.3-0.4l-0.3,0.4
		c1.3,1.1,2.6,2.1,4,2.9l0.2-0.4l-0.2,0.4c1.8,1,3.8,1.7,6.3,1.7h0.2c2.8-0.1,4.9-0.8,6.9-1.9c2.2-1.1,4.2-2.6,6.5-4.2
		c1.5-1.1,3-2.1,4.9-3c2.4-1.2,5.3-2,8.5-2c0.4,0,0.7,0,1.1,0v-0.5h-0.5l-0.1,3h1l0.1-3h-0.5v0.5c3.4,0.1,6.4,1,8.9,2.2
		s4.5,2.6,6.1,3.8L183.5,2.9l-0.4-0.3L183.5,2.9z"/>
</g>
</svg>
