<?xml version="1.0" encoding="utf-8"?>
<!-- Generator: Adobe Illustrator 16.0.0, SVG Export Plug-In . SVG Version: 6.00 Build 0)  -->
<!DOCTYPE svg PUBLIC "-//W3C//DTD SVG 1.1//EN" "http://www.w3.org/Graphics/SVG/1.1/DTD/svg11.dtd">
<svg version="1.1" id="Layer_1" xmlns="http://www.w3.org/2000/svg" xmlns:xlink="http://www.w3.org/1999/xlink" x="0px" y="0px"
	 width="117px" height="98.2px" viewBox="67.1 -8.7 117 98.2" style="enable-background:new 67.1 -8.7 117 98.2;"
	 xml:space="preserve">
<style type="text/css">
<![CDATA[
	.st0{fill:#FF00FF;}
	.st1{fill:#FF9999;}
]]>
</style>
<g>
	<path class="st1" d="M180.8,3.4c-6.8,0-9.8-9.7-9.8-9.8c-0.4-1.3-1.5-2.2-2.8-2.3c-1.3-0.1-2.5,0.6-3.1,1.8
		c-1.3,2.7-6.2,10.3-11.2,10.3s-9.3-7.3-10.6-10.1c-0.5-1.1-1.5-1.8-2.7-1.9c-1.2-0.1-2.3,0.5-2.9,1.5c-2.5,4.2-7.9,10.5-11.4,10.5
		c-3.7,0-8.4-6.9-10.1-10.3c-0.5-1-1.6-1.7-2.8-1.7c-1.2,0-2.3,0.6-2.8,1.6C109.1-4.3,103.7,3.4,99,3.4c-4.4,0-8.7-7.5-9.9-10.1
		c-0.5-1.2-1.7-1.9-3-1.9c-1.3,0-2.4,0.8-2.9,2c-0.2,0.4-3.9,10-12.9,10c-1.8,0-3.2,1.4-3.2,3.2c0,1.8,1.4,3.2,3.2,3.2
		c7.9,0,13-4.7,15.8-8.7c2.7,4,7.1,8.7,12.8,8.7c6,0,11.1-5.3,14.2-9.3c2.8,4.1,7.5,9.3,13.1,9.3c5.6,0,10.7-5.2,13.9-9.2
		c2.7,4.1,7.4,9.2,13.8,9.2c6,0,10.8-4.6,13.7-8.5c2.4,4,6.6,8.5,13.3,8.5c1.8,0,3.2-1.4,3.2-3.2C184.1,4.8,182.6,3.4,180.8,3.4z"/>
	<path class="st0" d="M180.8,3.4V2.9c-1.6,0-2.9-0.6-4.1-1.4c-1.8-1.3-3.1-3.3-3.9-5c-0.4-0.8-0.8-1.6-1-2.2
		c-0.1-0.3-0.2-0.5-0.2-0.7l-0.1-0.2l0,0l-0.1,0l0.1,0l0,0l-0.1,0l0.1,0L171-6.4h0.5c0-0.1,0-0.1,0-0.1L171-6.4h0.5v-0.1l0-0.1
		c-0.5-1.5-1.7-2.5-3.2-2.7c-0.1,0-0.2,0-0.3,0c-1.4,0-2.7,0.8-3.3,2.1l0,0l0,0c-0.6,1.3-2.2,3.9-4.1,6c-1,1.1-2.1,2.1-3.2,2.8
		c-1.1,0.7-2.3,1.2-3.4,1.2c-1.1,0-2.2-0.4-3.3-1.1c-3.2-2.1-5.9-6.7-6.8-8.7l0,0c-0.6-1.3-1.7-2.1-3.1-2.2c-0.1,0-0.2,0-0.3,0
		c-1.3,0-2.4,0.7-3.1,1.8l0,0c-1.2,2.1-3.2,4.7-5.2,6.7c-1,1-2.1,1.9-3.1,2.6c-1,0.6-1.9,1-2.6,1c-0.8,0-1.7-0.4-2.6-1
		c-2.8-2-5.8-6.5-7-9c-0.6-1.2-1.9-2-3.2-2c-1.4,0-2.6,0.7-3.2,1.9l0.4,0.2l-0.4-0.2c-0.7,1.3-2.4,3.9-4.5,6.1
		c-1,1.1-2.2,2.1-3.3,2.9c-1.1,0.7-2.3,1.2-3.3,1.2c-1,0-2-0.4-2.9-1.1c-3-2.1-5.6-6.8-6.5-8.7l-0.5,0.2l0.5-0.2
		c-0.6-1.4-2-2.2-3.5-2.2c-1.5,0-2.8,0.9-3.4,2.3l0.5,0.2l-0.4-0.2c0,0.1,0,0.1-0.1,0.2c-0.3,0.7-1.4,3.1-3.4,5.3
		c-2,2.2-4.9,4.2-9,4.2c-1,0-2,0.4-2.6,1.1c-0.7,0.7-1.1,1.6-1.1,2.6c0,1,0.4,2,1.1,2.6c0.7,0.7,1.6,1.1,2.6,1.1
		c4.1,0,7.4-1.2,10.1-2.9c2.7-1.7,4.7-3.9,6.1-6l-0.4-0.3l-0.4,0.3c1.4,2,3.2,4.2,5.4,6c2.2,1.7,4.8,3,7.8,3c3.2,0,6-1.4,8.5-3.3
		c2.5-1.9,4.5-4.2,6.1-6.2l-0.4-0.3l-0.4,0.3c1.4,2.1,3.3,4.4,5.6,6.3c2.3,1.9,5,3.2,7.9,3.2c3,0,5.7-1.4,8.2-3.2
		c2.4-1.8,4.5-4.2,6.1-6.2l-0.4-0.3l-0.4,0.3c1.4,2.1,3.3,4.4,5.6,6.3c2.4,1.8,5.3,3.2,8.6,3.2c3.1,0,5.9-1.2,8.3-2.9
		c2.4-1.7,4.3-3.8,5.8-5.8l-0.4-0.3l-0.4,0.3c1.2,2,2.9,4.2,5.2,5.9c2.3,1.7,5.1,2.9,8.6,2.8c1,0,2-0.4,2.6-1.1
		c0.7-0.7,1.1-1.6,1.1-2.6c0-1-0.4-2-1.1-2.6c-0.7-0.7-1.6-1.1-2.7-1.1V3.4v0.5c0.8,0,1.5,0.3,2,0.8c0.5,0.5,0.8,1.2,0.8,1.9
		c0,1.5-1.2,2.7-2.7,2.7c-3.2,0-5.8-1.1-8-2.7C170.8,5.1,169.2,3,168,1l-0.4-0.6L167.2,1c-1.4,1.9-3.3,4-5.6,5.6
		c-2.3,1.6-4.9,2.7-7.7,2.7c-3.1,0-5.7-1.2-8-3c-2.3-1.7-4.1-4-5.4-6l-0.4-0.6l-0.4,0.5c-1.6,2-3.6,4.3-6,6c-2.3,1.8-4.9,3-7.5,3
		c-2.6,0-5.1-1.2-7.3-3c-2.2-1.8-4-4.1-5.4-6.1l-0.4-0.6l-0.4,0.5c-1.5,2-3.6,4.3-5.9,6.1c-2.4,1.8-5,3.1-7.9,3
		c-2.7,0-5.1-1.1-7.2-2.7c-2.1-1.6-3.8-3.8-5.2-5.7l-0.4-0.6l-0.4,0.6c-1.4,2-3.3,4.1-5.8,5.7c-2.5,1.6-5.7,2.8-9.5,2.8
		c-1.5,0-2.7-1.2-2.7-2.7c0-1.5,1.2-2.7,2.7-2.7c4.7,0,8-2.5,10.1-5c1.1-1.3,1.8-2.5,2.4-3.5c0.3-0.5,0.5-0.9,0.6-1.2
		c0.1-0.2,0.1-0.3,0.2-0.4l0-0.1l0,0l0,0l0,0l0,0c0.4-1,1.3-1.7,2.4-1.7c1.1,0,2.1,0.6,2.5,1.6l0,0l0,0c0.6,1.3,2,3.9,3.8,6.1
		c0.9,1.1,1.9,2.2,3,3c1.1,0.8,2.3,1.3,3.5,1.3c1.3,0,2.6-0.5,3.9-1.3c3.7-2.4,7-7.2,8.2-9.3l0,0l0,0c0.4-0.8,1.3-1.3,2.4-1.3
		c1,0,1.9,0.6,2.4,1.4c0.9,1.7,2.5,4.3,4.4,6.5c0.9,1.1,2,2.1,3,2.8c1,0.7,2.1,1.2,3.2,1.2c1,0,2.1-0.4,3.2-1.1
		c3.2-2.1,6.7-6.4,8.7-9.6l0,0c0.5-0.8,1.3-1.3,2.2-1.3l0.2,0c1,0.1,1.9,0.7,2.3,1.6l0,0l0,0c0.7,1.4,2.1,4,4,6.2
		c1,1.1,2,2.1,3.2,2.9c1.2,0.8,2.5,1.3,3.9,1.3c1.4,0,2.7-0.5,3.9-1.3c3.7-2.4,6.7-7.2,7.7-9.3l-0.5-0.2l0.4,0.2
		c0.5-1,1.4-1.5,2.4-1.5l0.2,0c1.1,0.1,2,0.8,2.4,1.9l0.5-0.1h-0.5l0,0.1l0,0.1c0.1,0.4,0.9,2.9,2.6,5.3c0.8,1.2,1.9,2.4,3.1,3.3
		c1.3,0.9,2.8,1.5,4.5,1.5V3.4z"/>
	<path class="st1" d="M71.8,48.1h74.5c7,0,12.6-5.7,12.6-12.6s-5.7-12.6-12.6-12.6c-1.8,0-3.2,1.4-3.2,3.2c0,1.8,1.4,3.2,3.2,3.2
		c3.5,0,6.3,2.8,6.3,6.3s-2.8,6.3-6.3,6.3H71.8c-1.8,0-3.2,1.4-3.2,3.2C68.6,46.7,70,48.1,71.8,48.1z"/>
	<path class="st0" d="M71.8,48.1v0.5h74.5c7.3,0,13.1-5.9,13.1-13.1c0-7.2-5.9-13.1-13.1-13.1c-1,0-2,0.4-2.6,1.1
		c-0.7,0.7-1.1,1.6-1.1,2.6c0,1,0.4,2,1.1,2.6c0.7,0.7,1.6,1.1,2.6,1.1c3.2,0,5.8,2.6,5.8,5.8c0,3.2-2.6,5.8-5.8,5.8H71.8
		c-1,0-2,0.4-2.6,1.1c-0.7,0.7-1.1,1.6-1.1,2.6c0,1.9,1.6,3.5,3.7,3.5V48.1v-0.5c-0.8,0-1.4-0.3-1.9-0.8c-0.5-0.5-0.8-1.1-0.8-1.7
		c0-1.5,1.2-2.7,2.7-2.7h74.5c1.9,0,3.6-0.8,4.8-2c1.2-1.2,2-2.9,2-4.8s-0.8-3.6-2-4.8c-1.2-1.2-2.9-2-4.8-2c-1.5,0-2.7-1.2-2.7-2.7
		c0-1.5,1.2-2.7,2.7-2.7c3.3,0,6.3,1.4,8.5,3.6c2.2,2.2,3.6,5.2,3.6,8.5c0,3.3-1.3,6.3-3.5,8.5c-2.2,2.2-5.2,3.6-8.6,3.6H71.8V48.1z
		"/>
	<path class="st1" d="M71.8,70.5h58.6c3.5,0,6.3,2.8,6.3,6.3s-2.8,6.3-6.3,6.3c-1.8,0-3.2,1.4-3.2,3.2c0,1.8,1.4,3.2,3.2,3.2
		c7,0,12.6-5.7,12.6-12.6s-5.7-12.6-12.6-12.6H71.8c-1.8,0-3.2,1.4-3.2,3.2C68.6,69.3,70,70.5,71.8,70.5z"/>
	<path class="st0" d="M71.8,70.5V71h58.6c3.2,0,5.8,2.6,5.8,5.8c0,3.2-2.6,5.8-5.8,5.8c-1,0-2,0.4-2.6,1.1c-0.7,0.7-1.1,1.6-1.1,2.6
		c0,1,0.4,2,1.1,2.6c0.7,0.7,1.6,1.1,2.6,1.1c7.3,0,13.1-5.9,13.1-13.1c0-7.2-5.9-13.1-13.1-13.1H71.8c-1,0-2,0.4-2.6,1.1
		s-1.1,1.6-1.1,2.6c0,1,0.4,1.9,1.1,2.5c0.7,0.6,1.6,1,2.6,1V70.5V70c-0.8,0-1.5-0.3-1.9-0.7c-0.5-0.4-0.8-1-0.8-1.8
		c0-1.5,1.2-2.7,2.7-2.7h58.6c3.3,0,6.3,1.4,8.5,3.6c2.2,2.2,3.6,5.2,3.6,8.5c0,3.3-1.3,6.3-3.5,8.5c-2.2,2.2-5.2,3.6-8.6,3.6
		c-1.5,0-2.7-1.2-2.7-2.7c0-1.5,1.2-2.7,2.7-2.7c1.9,0,3.6-0.8,4.8-2c1.2-1.2,2-2.9,2-4.8s-0.8-3.6-2-4.8c-1.2-1.2-2.9-2-4.8-2H71.8
		V70.5z"/>
	<path class="st1" d="M71.8,59h92.1c3.5,0,6.3,2.8,6.3,6.3s-2.8,6.3-6.3,6.3c-1.8,0-3.2,1.4-3.2,3.2c0,1.8,1.4,3.2,3.2,3.2
		c7,0,12.6-5.7,12.6-12.6c0-7-5.7-12.6-12.6-12.6H71.8c-1.8,0-3.2,1.4-3.2,3.2C68.6,57.8,70,59,71.8,59z"/>
	<path class="st0" d="M71.8,59v0.5h92.1c3.2,0,5.8,2.6,5.8,5.8c0,3.2-2.6,5.8-5.8,5.8c-1,0-2,0.4-2.6,1.1c-0.7,0.7-1.1,1.6-1.1,2.6
		c0,1,0.4,2,1.1,2.6c0.7,0.7,1.6,1.1,2.6,1.1c7.3,0,13.1-5.9,13.1-13.1c0-7.3-5.9-13.1-13.1-13.1H71.8c-1,0-2,0.4-2.6,1.1
		S68.1,55,68.1,56c0,1,0.4,1.9,1.1,2.5c0.7,0.6,1.6,1,2.6,1V59v-0.5c-0.8,0-1.5-0.3-1.9-0.7c-0.5-0.4-0.8-1-0.8-1.8
		c0-1.5,1.2-2.7,2.7-2.7h92.1c3.3,0,6.3,1.3,8.5,3.5s3.6,5.2,3.6,8.6c0,3.3-1.3,6.3-3.5,8.5c-2.2,2.2-5.2,3.6-8.6,3.6
		c-1.5,0-2.7-1.2-2.7-2.7c0-1.5,1.2-2.7,2.7-2.7c1.9,0,3.6-0.8,4.8-2c1.2-1.2,2-2.9,2-4.8s-0.8-3.6-2-4.8c-1.2-1.2-2.9-2-4.8-2H71.8
		V59z"/>
</g>
</svg>
