<?xml version="1.0" encoding="utf-8"?>
<!-- Generator: Adobe Illustrator 16.0.0, SVG Export Plug-In . SVG Version: 6.00 Build 0)  -->
<!DOCTYPE svg PUBLIC "-//W3C//DTD SVG 1.1//EN" "http://www.w3.org/Graphics/SVG/1.1/DTD/svg11.dtd">
<svg version="1.1" id="Layer_1" xmlns="http://www.w3.org/2000/svg" xmlns:xlink="http://www.w3.org/1999/xlink" x="0px" y="0px"
	 width="113.9px" height="108.6px" viewBox="66.2 -17.8 113.9 108.6" style="enable-background:new 66.2 -17.8 113.9 108.6;"
	 xml:space="preserve">
<g>
	<polygon points="125.3,42.3 117.6,48.1 116.2,62 120.2,80.1 134.6,90 137.5,81.9 132.5,62.9 129.1,52.6 129.6,45.1 	"/>
	<polygon points="125.3,42.3 125,41.9 117.1,47.8 115.7,62 119.8,80.4 134.9,90.8 138,81.9 133,62.8 129.6,52.5 130.1,44.8 
		125.3,41.7 125,41.9 125.3,42.3 125,42.7 129.1,45.4 128.6,52.7 132,63 137,81.9 134.3,89.2 120.6,79.8 116.7,62 118.1,48.4 
		125.6,42.7 125.3,42.3 125,42.7 	"/>
	<polygon points="138.9,71.9 148.8,78.3 165.1,69.5 179.6,51.6 175.6,35.8 150.8,18.6 131.8,15 135.1,21 135.1,44.6 131.8,53.4 
		133.7,54.1 144,33.9 136.1,54.4 141.2,56.7 152,35.8 143.4,57.4 151.2,60.3 164.1,41.6 153.9,61 	"/>
	<polygon points="138.9,71.9 138.6,72.3 148.8,78.9 165.4,69.9 180.1,51.7 176,35.5 151,18.1 130.9,14.3 134.6,21.1 134.6,44.5 
		131.2,53.7 133.9,54.7 140.1,42.7 135.5,54.7 141.4,57.4 147.8,45.1 142.7,57.7 151.4,60.9 159.8,48.7 153.5,60.7 138,71.9 
		138.6,72.3 138.9,71.9 139.2,72.3 154.3,61.3 164.5,41.8 163.7,41.3 151,59.7 144.1,57.1 152.5,36 151.6,35.6 141,56.1 136.7,54.1 
		144.5,34.1 143.6,33.7 133.5,53.5 132.4,53.1 135.6,44.7 135.6,20.9 132.7,15.7 150.6,19.1 175.2,36.1 179.1,51.5 164.8,69.1 
		148.8,77.7 139.2,71.5 138.9,71.9 139.2,72.3 	"/>
	<polygon points="90.9,44.1 102.2,59.4 91.7,63.3 68.1,56 91.6,50.6 	"/>
	<polygon points="90.9,44.1 90.5,44.4 101.4,59.2 91.7,62.8 70,56.1 92.1,51 91.4,44 90.9,44.1 90.5,44.4 90.9,44.1 90.4,44.2 
		91.1,50.2 66.2,55.9 91.7,63.8 103,59.6 90.2,42.3 90.4,44.2 	"/>
	<path d="M122.9,2.6L121-5.3l2.5-1.8h-3l-2.7-5.1l-5.1-5.1h-8.2l-6.1,5.4l-1.2,4.7h-3.3l2.4,1.6l-8.5,35.4l3.3,12.4l13.4,17.2h10.3
		l1.4-12.1l9.5-7.7l5.6,4.4l-0.8,8.7l3.1-8.2V21.2L122.9,2.6z M100.1-5.5c-1-0.3-1.7-1.2-1.7-2.3c0-1.3,1.1-2.4,2.4-2.4
		c0.7,0,1.4,0.3,1.8,0.8L100.1-5.5z M110.5-0.5h-3.8L108-2v-3.7l-2.7-1.5l3.3-3l3.3,3l-2.6,1.4V-2L110.5-0.5z M116.8-5.5l-2.5-3.8
		c0.4-0.5,1.1-0.8,1.8-0.8c1.3,0,2.4,1.1,2.4,2.4C118.5-6.7,117.8-5.8,116.8-5.5z"/>
	<path d="M122.9,2.6l0.5-0.1l-1.8-7.6l3.5-2.5h-4.2l-2.6-4.9l-5.3-5.3h-8.6L98-12.2l-1.1,4.5h-4.6l3.5,2.3l-8.4,35.2l3.4,12.6
		l13.6,17.5h11l1.4-12.3l9-7.3l5.1,4l-1.1,12.1l4.4-11.7V21.1L123.3,2.4L122.9,2.6l0.5-0.1L122.9,2.6l-0.4,0.2l10.6,18.5v23.1
		l-1.8,4.7l0.5-5.3l-6.1-4.8l-10,8.1L114.3,59h-9.6L91.6,42l-3.2-12.2L97-5.8l-1.3-0.9h2l1.3-4.9l5.8-5.2h7.8l4.9,4.9l2.8,5.3h1.8
		l-1.5,1.1l2,8.3v0.1L122.9,2.6z M100.1-5.5l0.1-0.5c-0.8-0.2-1.3-0.9-1.3-1.8c0-0.5,0.2-1,0.6-1.3c0.4-0.4,0.8-0.6,1.3-0.6
		c0.6,0,1.1,0.3,1.4,0.6l0.4-0.3l-0.4-0.3l-2.5,3.9L100.1-5.5l0.1-0.5L100.1-5.5l0.4,0.3l2.7-4.2L103-9.7c-0.5-0.6-1.3-1-2.2-1
		c-1.6,0-2.9,1.3-2.9,2.9c0,1.3,0.9,2.4,2.1,2.8l0.4,0.1l0.2-0.3L100.1-5.5z M110.5-0.5V-1h-2.7l0.6-0.7l0.1-0.1V-6l-2.3-1.3
		l2.4-2.2l2.4,2.2l-2.2,1.2v4.3l1.3,1.6L110.5-0.5V-1V-0.5l0.4-0.3l-1.1-1.4v-3.3l3-1.6l-4.2-3.8l-4.2,3.8l3.1,1.7v3.2L105.6,0h5.9
		l-0.6-0.8L110.5-0.5z M116.8-5.5l0.4-0.3l-2.5-3.8l-0.4,0.3l0.4,0.3c0.3-0.4,0.9-0.6,1.4-0.6s1,0.2,1.3,0.6
		c0.4,0.4,0.6,0.8,0.6,1.3c0,0.8-0.5,1.5-1.3,1.7L116.8-5.5l0.4-0.3L116.8-5.5l0.1,0.5c1.2-0.4,2.1-1.4,2.1-2.7
		c0-1.6-1.3-2.9-2.9-2.9c-0.8,0-1.7,0.3-2.2,1l-0.2,0.3l2.9,4.4L117-5L116.8-5.5z"/>
</g>
</svg>
