<?xml version="1.0" encoding="utf-8"?>
<!-- Generator: Adobe Illustrator 16.0.0, SVG Export Plug-In . SVG Version: 6.00 Build 0)  -->
<!DOCTYPE svg PUBLIC "-//W3C//DTD SVG 1.1//EN" "http://www.w3.org/Graphics/SVG/1.1/DTD/svg11.dtd">
<svg version="1.1" id="Layer_1" xmlns="http://www.w3.org/2000/svg" xmlns:xlink="http://www.w3.org/1999/xlink" x="0px" y="0px"
	 width="117px" height="113px" viewBox="66.8 -19.2 117 113" style="enable-background:new 66.8 -19.2 117 113;"
	 xml:space="preserve">
<style type="text/css">
<![CDATA[
	.st0{fill:#FF00FF;}
	.st1{fill:#FF9999;}
]]>
</style>
<g>
	<path class="st1" d="M183.8,62c-1.6-1.2-3.6-2.7-6.2-3.9c-2.6-1.2-5.6-2.1-9.1-2.2l-0.1,3l0.1-3c-0.4,0-0.7,0-1.1,0
		c-3.3,0-6.2,0.8-8.7,2c-1.9,0.9-3.5,1.9-5,3c-2.3,1.6-4.3,3.1-6.4,4.2c-2.1,1.1-4.1,1.8-6.7,1.9h-0.2c-2.5,0-4.3-0.6-6.1-1.6
		c-1.3-0.7-2.6-1.7-3.9-2.8c-2-1.6-4.1-3.6-6.8-5.2c-1.3-0.8-2.8-1.5-4.5-2c-1.7-0.5-3.5-0.8-5.5-0.8h-0.2c-3.4,0-6.3,0.9-8.8,2.1
		c-1.9,0.9-3.5,2-5,3.1c-2.3,1.6-4.3,3.2-6.4,4.3c-2.2,1.1-4.4,1.8-7.3,1.9h-0.2c-3.1,0-5.9-0.8-8.5-2c-2.6-1.2-4.9-2.8-6.7-4.3
		l-3.7,4.7c2.1,1.7,4.8,3.5,8,5s6.9,2.5,11,2.5c0.1,0,0.2,0,0.3,0c3.5,0,6.5-0.9,9.1-2.1c1.9-0.9,3.6-2,5.1-3.1
		c2.3-1.6,4.3-3.2,6.4-4.3c2.1-1.1,4.1-1.8,6.9-1.8h0.1c2.5,0,4.4,0.6,6.2,1.6c1.3,0.7,2.6,1.7,4,2.8c2,1.6,4.1,3.6,6.7,5.2
		c1.3,0.8,2.8,1.5,4.4,2s3.5,0.8,5.4,0.8c0.1,0,0.2,0,0.3,0c3.3-0.1,6.1-0.9,8.6-2.1c1.8-0.9,3.4-1.9,5-3c2.3-1.6,4.3-3.1,6.4-4.2
		c2.1-1.1,4.2-1.7,6.8-1.8c0.2,0,0.5,0,0.8,0c2.5,0.1,4.8,0.8,6.7,1.7c2,0.9,3.7,2.1,5,3.2L183.8,62z"/>
	<path class="st0" d="M183.8,62l0.3-0.4c-1.6-1.2-3.6-2.7-6.3-4c-2.6-1.2-5.7-2.1-9.3-2.2l-0.5,0l-0.1,3.5l1,0l0.1-3.5h-0.5
		c-0.4,0-0.7,0-1.1,0c-3.4,0-6.4,0.8-8.9,2l0,0c-1.9,0.9-3.6,1.9-5.1,3l0.3,0.4l-0.3-0.4c-2.3,1.6-4.3,3.1-6.3,4.2
		c-2.1,1.1-4,1.7-6.5,1.8l0,0.5v-0.5h-0.2c-2.4,0-4.1-0.6-5.9-1.5l0,0l0,0c-1.2-0.7-2.5-1.7-3.8-2.7l0,0l0,0c-2-1.6-4.1-3.6-6.9-5.2
		l-0.3,0.4l0.3-0.4c-1.3-0.8-2.9-1.5-4.6-2.1c-1.7-0.5-3.6-0.8-5.6-0.8h-0.2c-3.5,0-6.5,0.9-9,2.1l0,0c-1.9,0.9-3.6,2-5.1,3.1
		l0.3,0.4l-0.3-0.4C97,61,95,62.6,93,63.7l0.2,0.4L93,63.7c-2.2,1.1-4.3,1.7-7.1,1.8l0,0.5v-0.5h-0.2c-3,0-5.7-0.8-8.3-2
		c-2.5-1.2-4.8-2.8-6.6-4.2L70.4,59l-4.3,5.5l0.4,0.3c2.1,1.7,4.9,3.5,8.1,5.1c3.3,1.5,7,2.5,11.2,2.5c0.1,0,0.2,0,0.3,0
		c3.6,0,6.7-0.9,9.3-2.1l0,0l0,0c1.9-0.9,3.7-2,5.2-3.1l-0.3-0.4l0.3,0.4c2.3-1.6,4.3-3.2,6.3-4.3c2.1-1.1,4-1.7,6.7-1.7h0.1
		c2.4,0,4.2,0.6,6,1.5l0,0l0,0c1.2,0.7,2.5,1.7,3.9,2.8l0,0c2,1.6,4.1,3.6,6.8,5.2l0,0c1.3,0.8,2.9,1.5,4.5,2.1
		c1.7,0.5,3.6,0.8,5.5,0.8c0.1,0,0.2,0,0.3,0h0h0c3.4-0.1,6.2-0.9,8.8-2.1l0,0l0,0c1.8-0.9,3.4-1.9,5.1-3l0,0l0,0
		c2.3-1.6,4.3-3.1,6.3-4.2c2-1.1,4.1-1.6,6.6-1.7l0-0.5v0.5c0.2,0,0.5,0,0.8,0v-0.5l0,0.5c2.4,0.1,4.7,0.8,6.5,1.7l0,0l0,0
		c1.9,0.9,3.6,2,4.9,3.1l0.4,0.3l4.4-5.6l-0.4-0.3L183.8,62l-0.4-0.3l-3.8,4.8l0.4,0.3l0.3-0.4c-1.3-1.1-3.1-2.3-5.1-3.3l-0.2,0.5
		l0.2-0.5c-2-0.9-4.3-1.6-6.9-1.7h0h0c-0.3,0-0.6,0-0.8,0h0h0c-2.7,0.1-4.9,0.7-7,1.9c-2.2,1.1-4.2,2.6-6.5,4.2l0,0
		c-1.6,1.1-3.2,2.1-4.9,3l0.2,0.4l-0.2-0.5c-2.4,1.2-5.2,2-8.4,2.1l0,0.5v-0.5c-0.1,0-0.2,0-0.3,0c-1.8,0-3.7-0.3-5.3-0.8
		c-1.6-0.5-3-1.2-4.3-1.9l0,0l0,0c-2.5-1.6-4.6-3.5-6.6-5.2l0,0l0,0c-1.4-1.1-2.7-2.1-4.1-2.8l-0.2,0.4l0.2-0.4
		c-1.9-1-3.9-1.7-6.4-1.7h-0.1c-2.9,0-5,0.7-7.1,1.9c-2.2,1.1-4.2,2.7-6.5,4.3l0,0l0,0c-1.5,1.1-3.2,2.2-5,3.1l0,0
		c-2.6,1.2-5.5,2.1-8.9,2.1c-0.1,0-0.2,0-0.3,0c-4,0-7.6-1-10.8-2.5c-3.2-1.5-5.8-3.3-7.9-4.9l-0.3,0.4l0.4,0.3l3.7-4.7l-0.4-0.3
		l-0.3,0.4c1.8,1.5,4.2,3.1,6.8,4.4c2.6,1.2,5.5,2,8.7,2h0.2h0h0c3-0.1,5.3-0.8,7.5-2l0,0l0,0c2.2-1.1,4.2-2.7,6.5-4.3l0,0l0,0
		c1.5-1.1,3.1-2.2,4.9-3.1l0,0h0c2.5-1.2,5.3-2.1,8.6-2.1h0.2c2,0,3.7,0.3,5.4,0.8c1.7,0.5,3.1,1.2,4.4,1.9l0,0l0,0
		c2.6,1.6,4.7,3.5,6.7,5.2l0.3-0.4l-0.3,0.4c1.3,1.1,2.6,2.1,4,2.9l0.2-0.4l-0.2,0.4c1.8,1,3.8,1.7,6.3,1.7h0.2h0h0
		c2.7-0.1,4.8-0.8,6.9-2c2.2-1.1,4.2-2.6,6.5-4.2l0,0l0,0c1.5-1.1,3-2.1,4.9-3l0,0h0c2.4-1.2,5.3-2,8.5-2c0.4,0,0.7,0,1.1,0v-0.5
		l-0.5,0l-0.1,3l1,0l0.1-3l-0.5,0l0,0.5c3.4,0.1,6.4,1,8.9,2.2c2.5,1.2,4.5,2.6,6.1,3.8L183.8,62l-0.4-0.3L183.8,62z"/>
	<path class="st1" d="M183.8,82.9c-1.6-1.2-3.6-2.7-6.2-3.9c-2.6-1.2-5.6-2.1-9.1-2.2l-0.1,3l0.1-3c-0.4,0-0.7,0-1.1,0
		c-3.3,0-6.2,0.8-8.7,2c-1.9,0.9-3.5,1.9-5,3c-2.3,1.6-4.3,3.1-6.4,4.2c-2.1,1.1-4.1,1.8-6.7,1.9h-0.2c-2.5,0-4.3-0.6-6.1-1.6
		c-1.3-0.7-2.6-1.7-3.9-2.8c-2-1.6-4.1-3.6-6.8-5.2c-1.3-0.8-2.8-1.5-4.5-2c-1.7-0.5-3.5-0.8-5.5-0.8h-0.2c-3.4,0-6.3,0.9-8.7,2.1
		c-1.9,0.9-3.5,2-5,3c-2.3,1.6-4.3,3.2-6.4,4.3c-2.2,1.1-4.4,1.9-7.3,1.9h-0.2c-3.1,0-5.9-0.8-8.5-2c-2.6-1.2-4.9-2.8-6.7-4.3
		l-3.7,4.7c2.1,1.7,4.8,3.5,8,5c3.2,1.5,6.9,2.5,11,2.5c0.1,0,0.2,0,0.3,0c3.5-0.1,6.5-0.9,9.1-2.1c1.9-0.9,3.6-2,5.1-3.1
		c2.3-1.6,4.3-3.2,6.4-4.3c2.1-1.1,4.1-1.8,6.9-1.8h0.1c2.5,0,4.4,0.6,6.2,1.6c1.3,0.7,2.6,1.7,4,2.8c2,1.6,4.1,3.6,6.7,5.2
		c1.3,0.8,2.8,1.5,4.4,2c1.6,0.5,3.5,0.8,5.4,0.8c0.1,0,0.2,0,0.3,0c3.3-0.1,6.1-0.9,8.6-2.1c1.8-0.9,3.4-1.9,5-3
		c2.3-1.6,4.3-3.1,6.4-4.2c2.1-1.1,4.2-1.7,6.8-1.8c0.2,0,0.5,0,0.8,0c2.5,0.1,4.8,0.8,6.7,1.7c2,0.9,3.7,2.1,5,3.2L183.8,82.9z"/>
	<path class="st0" d="M183.8,82.9l0.3-0.4c-1.6-1.2-3.6-2.7-6.3-4c-2.6-1.2-5.7-2.1-9.3-2.2l-0.5,0l-0.1,3.5l1,0l0.1-3.5h-0.5
		c-0.4,0-0.7,0-1.1,0c-3.4,0-6.4,0.8-8.9,2l0,0c-1.9,0.9-3.6,1.9-5.1,3l0.3,0.4l-0.3-0.4c-2.3,1.6-4.3,3.1-6.3,4.2
		c-2.1,1.1-4,1.7-6.5,1.8l0,0.5v-0.5h-0.2c-2.4,0-4.1-0.6-5.9-1.5l0,0l0,0c-1.2-0.7-2.5-1.7-3.8-2.7l0,0l0,0c-2-1.6-4.1-3.6-6.9-5.2
		l-0.3,0.4l0.3-0.4c-1.3-0.8-2.9-1.5-4.6-2.1c-1.7-0.5-3.6-0.8-5.6-0.8h-0.2c-3.5,0-6.5,0.9-8.9,2.2l0.2,0.4l-0.2-0.5
		c-1.9,0.9-3.6,2-5.1,3l0,0l0,0c-2.3,1.6-4.3,3.2-6.3,4.3l0.2,0.4l-0.2-0.4c-2.2,1.1-4.3,1.8-7.1,1.8h-0.2c-3,0-5.7-0.8-8.3-2
		c-2.5-1.2-4.8-2.8-6.6-4.2l-0.4-0.3l-4.3,5.5l0.4,0.3c2.1,1.7,4.9,3.5,8.1,5.1c3.3,1.5,7,2.5,11.2,2.5c0.1,0,0.2,0,0.3,0h0h0
		c3.6-0.1,6.6-0.9,9.3-2.1l0,0l0,0c1.9-0.9,3.7-2,5.2-3.1l-0.3-0.4l0.3,0.4c2.3-1.6,4.3-3.2,6.3-4.3c2.1-1.1,4-1.7,6.7-1.7h0.1
		c2.4,0,4.2,0.6,6,1.5l0,0l0,0c1.2,0.7,2.5,1.7,3.9,2.8l0,0c2,1.6,4.1,3.6,6.8,5.2c1.3,0.8,2.9,1.5,4.5,2.1c1.7,0.5,3.6,0.8,5.5,0.8
		c0.1,0,0.2,0,0.3,0h0h0c3.4-0.1,6.2-0.9,8.8-2.1l0,0l0,0c1.8-0.9,3.4-1.9,5.1-3l0,0v0c2.3-1.6,4.3-3.1,6.3-4.2
		c2-1.1,4.1-1.6,6.6-1.7l0-0.5v0.5c0.2,0,0.5,0,0.8,0v-0.5l0,0.5c2.4,0.1,4.7,0.8,6.5,1.7l0,0l0,0c1.9,0.9,3.6,2,4.9,3.1l0.4,0.3
		l4.3-5.5l-0.4-0.3L183.8,82.9l-0.4-0.3l-3.7,4.7l0.4,0.3l0.3-0.4c-1.3-1.1-3.1-2.3-5.1-3.3l-0.2,0.5l0.2-0.5
		c-1.9-0.9-4.3-1.6-6.9-1.7h0h0c-0.3,0-0.6,0-0.8,0h0h0c-2.7,0.1-4.9,0.7-7,1.9c-2.2,1.1-4.2,2.6-6.5,4.2l0,0
		c-1.6,1.1-3.2,2.1-4.9,3l0.2,0.4l-0.2-0.5c-2.4,1.2-5.2,2-8.4,2.1l0,0.5v-0.5c-0.1,0-0.2,0-0.3,0c-1.8,0-3.7-0.3-5.3-0.8
		c-1.6-0.5-3-1.2-4.3-1.9c-2.5-1.6-4.6-3.5-6.6-5.2l0,0l0,0c-1.4-1.1-2.7-2.1-4.1-2.8L120,83l0.2-0.4c-1.9-1-3.9-1.7-6.4-1.7h-0.1
		c-2.9,0-5,0.7-7.1,1.9c-2.2,1.1-4.2,2.7-6.5,4.3l0,0l0,0c-1.5,1.1-3.2,2.2-5,3.1l0,0c-2.5,1.2-5.5,2-8.9,2.1l0,0.5v-0.5
		c-0.1,0-0.2,0-0.3,0c-4,0-7.6-1-10.8-2.5c-3.2-1.5-5.8-3.3-7.9-4.9l-0.3,0.4l0.4,0.3l3.7-4.7l-0.4-0.3l-0.3,0.4
		c1.8,1.5,4.2,3.1,6.8,4.4c2.6,1.2,5.5,2,8.7,2H86c3,0,5.3-0.8,7.5-2l0,0l0,0c2.2-1.1,4.2-2.7,6.5-4.3l-0.3-0.4L100,81
		c1.5-1,3.1-2.1,4.9-3l0,0l0,0c2.3-1.2,5.2-2,8.5-2h0.2c2,0,3.7,0.3,5.4,0.8c1.7,0.5,3.1,1.2,4.4,1.9l0,0l0,0
		c2.6,1.6,4.7,3.5,6.7,5.2l0.3-0.4l-0.3,0.4c1.3,1.1,2.6,2.1,4,2.9l0.2-0.4l-0.2,0.4c1.8,1,3.8,1.7,6.3,1.7h0.2h0h0
		c2.7-0.1,4.8-0.8,6.9-2c2.2-1.1,4.2-2.6,6.5-4.2l0,0l0,0c1.5-1.1,3-2.1,4.9-3l0,0h0c2.4-1.2,5.3-2,8.5-2c0.4,0,0.7,0,1.1,0v-0.5
		l-0.5,0l-0.1,3l1,0l0.1-3l-0.5,0l0,0.5c3.4,0.1,6.4,1,8.9,2.2c2.5,1.2,4.5,2.6,6.1,3.8L183.8,82.9l-0.4-0.3L183.8,82.9z"/>
	<path class="st1" d="M93.2,55c1.5-15,5.6-29.8,4.5-45.1c4.1,0.7,8.1,1.4,12.2,2c-4.1-2.3-8.3-4.5-12.4-6.8
		c-1.1-8.1-2.2-16.2-3.3-24.3C128.3,1.3,150,26.3,164.3,55C139.7,51.5,115.9,51.2,93.2,55z"/>
	<path class="st0" d="M93.2,55l0.5,0c1.3-13.2,4.7-26.3,4.7-39.9c0-1.8-0.1-3.5-0.2-5.3l-0.5,0l-0.1,0.5c4.1,0.7,8.1,1.4,12.2,2
		l2.7,0.4l-2.4-1.3C106,9.2,101.8,7,97.7,4.7l-0.2,0.4L98,5c-1.1-8.1-2.2-16.2-3.3-24.3l-0.5,0.1l-0.3,0.4
		c34,20.5,55.6,45.4,69.9,74l0.4-0.2l0.1-0.5c-12.6-1.8-24.9-2.7-37.1-2.7c-11.6,0-23,0.9-34.2,2.7L93.2,55l0.5,0L93.2,55l0.1,0.5
		c11.1-1.9,22.4-2.7,34-2.7c12.1,0,24.4,1,36.9,2.7l0.9,0.1l-0.4-0.9C150.4,26,128.6,0.9,94.5-19.6l-0.9-0.5l0.1,1
		C94.8-11,95.9-2.9,97,5.2l0,0.2l0.2,0.1c4.1,2.3,8.3,4.5,12.4,6.8l0.2-0.4l0.1-0.5c-4.1-0.6-8.1-1.3-12.2-2l-0.6-0.1l0,0.6
		c0.1,1.8,0.2,3.5,0.2,5.3c0,13.4-3.3,26.4-4.7,39.8l-0.1,0.7l0.6-0.1L93.2,55z"/>
	<path class="st1" d="M183.8,39.4c-1.6-1.2-3.6-2.7-6.2-3.9c-2.6-1.2-5.6-2.1-9.1-2.2l-0.1,3l0.1-3c-0.4,0-0.7,0-1.1,0
		c-3.3,0-6.2,0.8-8.7,2c-1.9,0.9-3.5,1.9-5,3c-2.3,1.6-4.3,3.1-6.4,4.2c-2.1,1.1-4.1,1.8-6.7,1.9h-0.2c-2.5,0-4.3-0.6-6.1-1.6
		c-1.3-0.7-2.6-1.7-3.9-2.8c-2-1.6-4.1-3.6-6.8-5.2c-1.3-0.8-2.8-1.5-4.5-2c-1.7-0.5-3.5-0.8-5.5-0.8h-0.2c-3.4,0-6.3,0.9-8.8,2.1
		c-1.9,0.9-3.5,2-5,3.1c-2.3,1.6-4.3,3.2-6.4,4.3c-2.2,1.1-4.4,1.8-7.3,1.9h-0.2c-3.1,0-5.9-0.8-8.5-2c-2.6-1.2-4.9-2.8-6.7-4.3
		l-3.7,4.7c2.1,1.7,4.8,3.5,8,5s6.9,2.5,11,2.5c0.1,0,0.2,0,0.3,0c3.5,0,6.5-0.9,9.1-2.1c1.9-0.9,3.6-2,5.1-3.1
		c2.3-1.6,4.3-3.2,6.4-4.3c2.1-1.1,4.1-1.8,6.9-1.8h0.1c2.5,0,4.4,0.6,6.2,1.6c1.3,0.7,2.6,1.7,4,2.8c2,1.6,4.1,3.6,6.7,5.2
		c1.3,0.8,2.8,1.5,4.4,2s3.5,0.8,5.4,0.8c0.1,0,0.2,0,0.3,0c3.3-0.1,6.1-0.9,8.6-2.1c1.8-0.9,3.4-1.9,5-3c2.3-1.6,4.3-3.1,6.4-4.2
		c2.1-1.1,4.2-1.7,6.8-1.8c0.2,0,0.5,0,0.8,0c2.5,0.1,4.8,0.8,6.7,1.7c2,0.9,3.7,2.1,5,3.2L183.8,39.4z"/>
	<path class="st0" d="M183.8,39.4l0.3-0.4c-1.6-1.2-3.6-2.7-6.3-4c-2.6-1.2-5.7-2.1-9.3-2.2l-0.5,0l-0.1,3.5l1,0l0.1-3.5h-0.5
		c-0.4,0-0.7,0-1.1,0c-3.4,0-6.4,0.8-8.9,2l0,0c-1.9,0.9-3.6,1.9-5.1,3l0.3,0.4l-0.3-0.4c-2.3,1.6-4.3,3.1-6.3,4.2
		c-2.1,1.1-4,1.7-6.5,1.8l0,0.5v-0.5h-0.2c-2.4,0-4.1-0.6-5.9-1.5l0,0l0,0c-1.2-0.7-2.5-1.7-3.8-2.7l0,0l0,0c-2-1.6-4.1-3.6-6.9-5.2
		l-0.3,0.4l0.3-0.4c-1.3-0.8-2.9-1.5-4.6-2.1c-1.7-0.5-3.6-0.8-5.6-0.8h-0.2c-3.5,0-6.5,0.9-9,2.1l0,0c-1.9,0.9-3.6,2-5.1,3.1
		l0.3,0.4l-0.3-0.4C97,38.4,95,40,93,41.1l0.2,0.4L93,41.1c-2.2,1.1-4.3,1.7-7.1,1.8l0,0.5v-0.5h-0.2c-3,0-5.7-0.8-8.3-2
		c-2.5-1.2-4.8-2.8-6.6-4.2l-0.4-0.3l-4.3,5.5l0.4,0.3c2.1,1.7,4.9,3.5,8.1,5.1c3.3,1.5,7,2.5,11.2,2.5c0.1,0,0.2,0,0.3,0
		c3.6,0,6.7-0.9,9.3-2.1l0,0l0,0c1.9-0.9,3.7-2,5.2-3.1l-0.3-0.4l0.3,0.4c2.3-1.6,4.3-3.2,6.3-4.3c2.1-1.1,4-1.7,6.7-1.7h0.1
		c2.4,0,4.2,0.6,6,1.5l0,0l0,0c1.2,0.7,2.5,1.7,3.9,2.8l0,0c2,1.6,4.1,3.6,6.8,5.2c1.3,0.8,2.9,1.5,4.5,2.1c1.7,0.5,3.6,0.8,5.5,0.8
		c0.1,0,0.2,0,0.3,0h0h0c3.4-0.1,6.2-0.9,8.8-2.1l0,0l0,0c1.8-0.9,3.4-1.9,5.1-3l0,0l0,0c2.3-1.6,4.3-3.1,6.3-4.2
		c2-1.1,4.1-1.6,6.6-1.7l0-0.5v0.5c0.2,0,0.5,0,0.8,0v-0.5l0,0.5c2.4,0.1,4.7,0.8,6.5,1.7l0,0l0,0c1.9,0.9,3.6,2,4.9,3.1l0.4,0.3
		l4.4-5.6l-0.4-0.3L183.8,39.4l-0.4-0.3l-3.8,4.8l0.4,0.3l0.3-0.4c-1.3-1.1-3.1-2.3-5.1-3.3L175,41l0.2-0.5c-2-0.9-4.3-1.6-6.9-1.7
		l0,0h0c-0.3,0-0.6,0-0.8,0h0l0,0c-2.7,0.1-4.9,0.7-7,1.9c-2.2,1.1-4.2,2.6-6.5,4.2l0,0c-1.6,1.1-3.2,2.1-4.9,3l0.2,0.4l-0.2-0.5
		c-2.4,1.2-5.2,2-8.4,2.1l0,0.5v-0.5c-0.1,0-0.2,0-0.3,0c-1.8,0-3.7-0.3-5.3-0.8c-1.6-0.5-3-1.2-4.3-1.9c-2.5-1.6-4.6-3.5-6.6-5.2
		l0,0l0,0c-1.4-1.1-2.7-2.1-4.1-2.8l-0.2,0.4l0.2-0.4c-1.9-1-3.9-1.7-6.4-1.7h-0.1c-2.9,0-5,0.7-7.1,1.9c-2.2,1.1-4.2,2.7-6.5,4.3
		l0,0l0,0c-1.5,1.1-3.2,2.2-5,3.1l0.2,0.5L95,46.7c-2.6,1.2-5.5,2.1-8.9,2.1c-0.1,0-0.2,0-0.3,0c-4,0-7.6-1-10.8-2.5
		c-3.2-1.5-5.8-3.3-7.9-4.9l-0.3,0.4l0.4,0.3l3.7-4.7l-0.4-0.3l-0.3,0.4c1.8,1.5,4.2,3.1,6.8,4.4c2.6,1.2,5.5,2,8.7,2h0.2h0l0,0
		c3-0.1,5.3-0.8,7.5-2l0,0l0,0c2.2-1.1,4.2-2.7,6.5-4.3l0,0l0,0c1.5-1.1,3.1-2.2,4.9-3.1l0,0l0,0c2.5-1.2,5.3-2.1,8.6-2.1h0.2
		c2,0,3.7,0.3,5.4,0.8c1.7,0.5,3.1,1.2,4.4,1.9l0,0l0,0c2.6,1.6,4.7,3.5,6.7,5.2l0.3-0.4l-0.3,0.4c1.3,1.1,2.6,2.1,4,2.9l0.2-0.4
		l-0.2,0.4c1.8,1,3.8,1.7,6.3,1.7h0.2h0l0,0c2.7-0.1,4.8-0.8,6.9-2c2.2-1.1,4.2-2.6,6.5-4.2l0,0l0,0c1.5-1.1,3-2.1,4.9-3l0,0
		c2.4-1.2,5.3-2,8.5-2c0.4,0,0.7,0,1.1,0v-0.5l-0.5,0l-0.1,3l1,0l0.1-3l-0.5,0l0,0.5c3.4,0.1,6.4,1,8.9,2.2c2.5,1.2,4.5,2.6,6.1,3.8
		L183.8,39.4l-0.4-0.3L183.8,39.4z"/>
</g>
</svg>
