<?xml version="1.0" encoding="utf-8"?>
<!-- Generator: Adobe Illustrator 16.0.0, SVG Export Plug-In . SVG Version: 6.00 Build 0)  -->
<!DOCTYPE svg PUBLIC "-//W3C//DTD SVG 1.1//EN" "http://www.w3.org/Graphics/SVG/1.1/DTD/svg11.dtd">
<svg version="1.1" id="Layer_1" xmlns="http://www.w3.org/2000/svg" xmlns:xlink="http://www.w3.org/1999/xlink" x="0px" y="0px"
	 width="117.5px" height="119.5px" viewBox="65.7 -26.4 117.5 119.5" style="enable-background:new 65.7 -26.4 117.5 119.5;"
	 xml:space="preserve">
<g>
	<path d="M80-2.9c-0.2,0-0.5,0-0.7,0c-1.2-0.5-2-1.7-1.7-3.2c3.5-12.6,8.6-19.7,14.1-19.7c1.5,0,3.7,0.5,5.7,3.2
		c0.5,0.7,1.2,1.5,2.2,1.5c0.7,0,1.7-0.5,2.7-1.7c2-2,3.9-3,5.9-3c1.5,0,3.7,0.5,5.9,3.2c0.5,0.7,1.5,1.5,2.2,1.5s1.7-0.5,2.5-1.5
		c1.7-2,3.7-3,5.9-3c1.5,0,3.7,0.5,5.9,3c1,1,1.7,1.5,2.5,1.5c1,0,1.7-0.7,2.2-1.5c2.2-2.5,4.4-3.2,5.9-3.2c2.2,0,4.2,1,5.9,3
		c1,1,2,1.5,2.7,1.7c0.7,0,1.7-0.7,2.2-1.5c2-2.7,4.2-3.2,5.9-3.2c5.4,0,10.6,7.2,14.1,19.7c0.2,1.2-0.5,2.7-1.7,3
		c-1.2,0.2-2.7-0.5-3-1.7c-3.5-11.8-7.4-16.3-9.4-16.3c-0.5,0-1.2,0.5-2,1.2c-2.2,2.7-4.4,3.2-5.9,3.5c-1.5,0-3.9-0.5-6.4-3.2
		c-0.5-0.7-1.5-1.5-2.5-1.5c-0.7,0-1.5,0.7-2,1.2c-2.2,2.7-4.4,3.2-6.2,3.2c-1.5,0-3.9-0.5-6.2-3.2c-0.5-0.7-1.5-1.5-2.2-1.5
		s-1.7,0.7-2.2,1.5c-2.5,2.7-4.7,3.2-6.2,3.2s-3.7-0.5-6.2-3.2c-0.5-0.5-1.2-1.2-2-1.2c-0.8,0-1.7,0.7-2.5,1.5
		c-2.5,2.7-4.9,3.2-6.4,3.2s-3.7-0.7-5.9-3.5c-0.7-0.7-1.2-1.2-2-1.2c-2,0-6.2,4.2-9.4,16.3C82-3.7,81-2.9,80-2.9z"/>
	<path d="M80-2.9v-0.5c-0.2,0-0.5,0-0.7,0v0.5l0.2-0.5C78.6-3.7,78-4.5,78-5.5c0-0.2,0-0.3,0.1-0.5l-0.5-0.1L78.1-6
		c1.7-6.3,3.9-11.1,6.2-14.4c1.2-1.6,2.4-2.9,3.6-3.7c1.2-0.8,2.5-1.2,3.8-1.2c1.4,0,3.4,0.4,5.3,3l0.4-0.3L97-22.3
		c0.3,0.4,0.6,0.8,1,1.1c0.4,0.3,1,0.6,1.6,0.6c0.9,0,2-0.6,3.1-1.9l-0.4-0.3l0.4,0.4c2-2,3.7-2.9,5.5-2.9c1.4,0,3.4,0.4,5.5,3
		l0.4-0.3l-0.4,0.3c0.3,0.4,0.7,0.8,1.1,1.1c0.5,0.3,0.9,0.6,1.5,0.6c0.5,0,1-0.2,1.5-0.4c0.5-0.3,1-0.7,1.4-1.2l-0.4-0.3l0.4,0.3
		c1.6-1.9,3.5-2.8,5.5-2.8c1.4,0,3.4,0.4,5.5,2.8c0.5,0.5,1,0.9,1.4,1.2c0.5,0.3,0.9,0.5,1.4,0.5c0.6,0,1.2-0.2,1.6-0.6
		c0.4-0.3,0.8-0.8,1-1.2l-0.4-0.3l0.4,0.3c2.1-2.4,4.2-3,5.5-3c2,0,3.9,0.9,5.5,2.8c1.1,1.1,2.1,1.6,2.9,1.8h0.1h0.1
		c0.5,0,1-0.2,1.5-0.5c0.5-0.3,0.9-0.7,1.2-1.2l-0.4-0.3l0.4,0.3c1-1.3,1.9-2,2.9-2.5c0.9-0.4,1.8-0.5,2.6-0.5
		c1.2,0,2.5,0.4,3.7,1.2c1.9,1.2,3.7,3.4,5.4,6.5c1.7,3.1,3.2,7,4.5,11.6l0.5-0.1L171.5-6c0,0.1,0,0.2,0,0.3c0,0.5-0.1,0.9-0.4,1.3
		c-0.2,0.4-0.6,0.7-1,0.8l0.1,0.5l-0.1-0.5c-0.1,0-0.2,0-0.3,0c-0.5,0-0.9-0.1-1.3-0.4c-0.4-0.2-0.7-0.6-0.8-1
		c-1.8-5.9-3.6-10-5.3-12.7c-0.8-1.3-1.7-2.3-2.4-2.9c-0.8-0.6-1.5-1-2.1-1c-0.4,0-0.8,0.2-1.2,0.4c-0.4,0.2-0.8,0.6-1.2,0.9
		c-2.1,2.6-4.1,3-5.6,3.3l0.1,0.5V-17c-1.4,0-3.6-0.4-6-3l-0.4,0.3L144-20c-0.3-0.4-0.7-0.8-1.2-1.1s-1.1-0.6-1.7-0.6
		c-0.5,0-1,0.2-1.4,0.5c-0.4,0.3-0.7,0.6-1,0.8c-1.1,1.3-2.1,2-3.1,2.5c-1,0.4-1.9,0.5-2.7,0.5c-1.4,0-3.6-0.4-5.8-3l-0.4,0.3
		l0.4-0.3c-0.3-0.4-0.7-0.8-1.1-1.1c-0.5-0.3-0.9-0.6-1.5-0.6c-0.5,0-1,0.2-1.5,0.5s-0.9,0.7-1.2,1.2l0.4,0.3l-0.4-0.3
		c-2.4,2.6-4.4,3-5.8,3c-1.4,0-3.4-0.4-5.8-3c-0.3-0.3-0.6-0.6-1-0.8c-0.4-0.3-0.8-0.5-1.4-0.5c-0.5,0-1.1,0.2-1.5,0.5
		c-0.5,0.3-0.9,0.7-1.3,1.1c-2.4,2.6-4.6,3-6,3c-1.3,0-3.4-0.6-5.5-3.3c-0.4-0.3-0.7-0.7-1-0.9c-0.4-0.3-0.8-0.4-1.3-0.4
		c-0.7,0-1.4,0.3-2.2,1c-2.3,1.9-5.3,6.6-7.7,15.7v0.1v0.1c0,0.1,0,0.2,0,0.3c0,0.3-0.1,0.5-0.4,0.7c-0.2,0.2-0.6,0.3-0.9,0.3V-2.9
		v0.5c0.6,0,1.1-0.2,1.5-0.5c0.4-0.3,0.7-0.9,0.7-1.5c0-0.2,0-0.3-0.1-0.5l-0.5,0.1l0.5,0.1c1.6-6,3.4-10,5.1-12.5
		c0.8-1.2,1.6-2.1,2.3-2.7c0.7-0.5,1.2-0.7,1.5-0.7s0.5,0.1,0.8,0.3s0.5,0.5,0.9,0.8l0.4-0.4l-0.4,0.3c2.3,2.9,4.6,3.7,6.3,3.7
		c1.6,0,4.2-0.6,6.8-3.4l-0.4-0.3l0.4,0.4c0.4-0.4,0.8-0.7,1.2-1c0.4-0.2,0.7-0.4,1-0.4c0.2,0,0.5,0.1,0.8,0.3s0.6,0.5,0.8,0.7
		L110-20l-0.4,0.3c2.6,2.8,5,3.4,6.6,3.4c1.6,0,4-0.6,6.6-3.4c0.2-0.3,0.5-0.7,0.9-0.9c0.3-0.2,0.7-0.4,0.9-0.4s0.5,0.1,0.9,0.4
		c0.4,0.3,0.7,0.6,0.9,0.9c2.4,2.8,5,3.4,6.6,3.4c0.9,0,2-0.1,3.2-0.6c1.1-0.5,2.3-1.4,3.4-2.8l-0.4-0.3l0.4,0.4
		c0.2-0.2,0.5-0.5,0.9-0.7c0.3-0.2,0.6-0.3,0.8-0.3c0.4,0,0.8,0.2,1.2,0.4c0.4,0.2,0.7,0.6,0.9,0.9c2.6,2.8,5.2,3.4,6.8,3.4
		c1.5-0.3,3.9-0.9,6.2-3.7l-0.4-0.3l0.3,0.4c0.4-0.3,0.8-0.6,1-0.8c0.3-0.2,0.5-0.3,0.6-0.3c0.3,0,0.8,0.2,1.5,0.8
		c1,0.8,2.2,2.4,3.5,4.9c1.3,2.5,2.6,5.9,3.9,10.3l0.5-0.1l-0.5,0.1c0.2,0.7,0.6,1.2,1.2,1.6c0.6,0.4,1.2,0.5,1.9,0.5
		c0.2,0,0.3,0,0.5,0c0.7-0.2,1.2-0.6,1.6-1.2c0.4-0.6,0.5-1.2,0.5-1.9c0-0.2,0-0.3,0-0.5c-1.8-6.3-4-11.3-6.4-14.7
		c-1.2-1.7-2.5-3.1-3.9-4c-1.4-0.9-2.8-1.4-4.3-1.4c-0.9,0-2,0.1-3,0.6c-1.1,0.5-2.2,1.4-3.3,2.8c-0.2,0.3-0.5,0.7-0.9,0.9
		c-0.3,0.2-0.7,0.4-0.9,0.4v0.5l0.1-0.5c-0.6-0.2-1.5-0.6-2.5-1.6l-0.4,0.4l0.4-0.3c-1.8-2.1-3.9-3.2-6.3-3.2c-1.7,0-4,0.8-6.3,3.4
		c-0.2,0.4-0.5,0.7-0.8,0.9c-0.3,0.2-0.6,0.3-1,0.3c-0.3,0-0.6-0.1-0.9-0.3c-0.3-0.2-0.7-0.6-1.2-1.1l-0.4,0.4l0.4-0.3
		c-2.3-2.6-4.7-3.2-6.3-3.2c-2.4,0-4.5,1.1-6.3,3.2c-0.4,0.5-0.8,0.8-1.1,1c-0.4,0.2-0.7,0.3-1,0.3c-0.2,0-0.5-0.1-0.9-0.4
		s-0.7-0.6-0.9-0.9c-2.3-2.8-4.7-3.4-6.3-3.4c-2.2,0-4.2,1.1-6.3,3.1c-0.9,1.1-1.9,1.5-2.3,1.5c-0.4,0-0.7-0.1-1-0.4
		c-0.3-0.2-0.6-0.6-0.8-0.9c-2.1-2.8-4.5-3.4-6.1-3.4c-1.5,0-2.9,0.5-4.3,1.4c-2.1,1.4-4,3.7-5.7,6.8C80-15,78.4-11,77.1-6.2
		C77.1-6,77-5.7,77-5.5c0,1.4,0.9,2.6,2.1,3h0.1h0.1c0.2,0,0.5,0,0.7,0V-2.9z"/>
	<path d="M77.8,16.8c-0.2,0-0.5,0-0.7,0c-1.2-0.2-2-1.7-1.7-3c2.2-8.1,7.2-21.7,14.8-21.7c1.5,0,3.9,0.5,5.9,3.5
		c0.5,0.7,1.5,1.7,2.2,1.7s1.7-0.5,3-1.7c2-2.2,3.9-3.2,6.2-3.2c1.5,0,3.9,0.5,6.2,3.5c0.5,0.7,1.5,1.7,2.5,1.7
		c0.7,0,1.7-0.5,2.7-1.7c3.7-4.4,8.6-4.4,12.3,0c1,1.2,2,1.7,2.7,1.7c1,0,2-1,2.5-1.7c2.2-3.2,4.4-3.7,5.9-3.7c2.2,0,4.2,1,6.2,3.2
		c1,1.2,2.2,2,3,1.7c1,0,1.7-1,2.2-1.7c2.2-2.7,4.4-3.5,5.9-3.5c7.6,0,12.6,13.6,14.8,21.7c0.2,1.2-0.5,2.7-1.7,3
		c-1.2,0.2-2.7-0.5-3-1.7c-3.7-13.1-7.9-18-10.1-18c-0.7,0-1.5,0.7-2,1.5c-2.2,3-4.4,3.5-5.9,3.7c-2.5,0-4.7-1-6.7-3.5
		c-1-1-1.7-1.7-2.5-1.7s-1.7,0.7-2.2,1.5c-2.2,3-4.7,3.5-6.2,3.5s-3.9-0.5-6.4-3.5c-0.5-0.7-1.5-1.5-2.5-1.5s-1.7,0.7-2.5,1.5
		c-2.5,3-4.9,3.5-6.4,3.5s-3.9-0.7-6.2-3.5c-0.5-0.7-1.5-1.5-2.2-1.5c-0.7,0-1.5,0.5-2.5,1.7C103.2,1,101,2.3,98.8,2
		c-1.5,0-3.9-0.7-5.9-3.7c-0.5-0.7-1.2-1.5-2-1.5c-2,0-6.4,4.7-10.1,18C79.8,16.1,78.8,16.8,77.8,16.8z"/>
	<path d="M77.8,16.8v-0.5c-0.2,0-0.5,0-0.7,0v0.5l0.1-0.5c-0.4-0.1-0.7-0.3-0.9-0.6c-0.3-0.4-0.4-0.8-0.4-1.3c0-0.2,0-0.3,0.1-0.5
		l-0.5-0.1l0.5,0.1c1.1-4,2.9-9.4,5.3-13.8c1.2-2.2,2.6-4.1,4.1-5.4s3.1-2.1,4.9-2.1c1.4,0,3.6,0.4,5.5,3.3c0.3,0.4,0.7,0.8,1.1,1.2
		c0.2,0.2,0.5,0.4,0.7,0.5c0.2,0.1,0.5,0.2,0.8,0.2c0.9,0,2-0.6,3.3-1.8c1-1.1,1.9-1.8,2.8-2.3c0.9-0.5,1.9-0.7,3-0.7
		c1.4,0,3.6,0.4,5.8,3.3l0.4-0.3l-0.4,0.3c0.3,0.4,0.7,0.8,1.2,1.2c0.5,0.4,1.1,0.7,1.7,0.7c0.9,0,2-0.6,3.1-1.9
		c1.8-2.1,3.8-3.1,5.8-3.1s4,1,5.8,3.1c1.1,1.3,2.1,1.9,3.1,1.9c0.7,0,1.3-0.3,1.7-0.7c0.5-0.4,0.9-0.8,1.2-1.2
		c1.1-1.5,2.1-2.4,3-2.9c0.9-0.5,1.8-0.6,2.5-0.6c2,0,3.9,0.9,5.8,3l0.4-0.3l-0.4,0.3c0.5,0.5,0.9,1,1.4,1.4c0.5,0.3,1,0.6,1.6,0.6
		c0.2,0,0.4,0,0.5-0.1l-0.2-0.5v0.5c0.7,0,1.2-0.3,1.6-0.7c0.4-0.4,0.7-0.8,1-1.2l-0.4-0.3l0.4,0.3c2.1-2.6,4.2-3.3,5.5-3.3
		c1.7,0,3.4,0.8,4.9,2.1c2.3,2,4.2,5.3,5.8,8.9c1.6,3.5,2.8,7.3,3.6,10.4l0.5-0.1l-0.5,0.1c0,0.1,0,0.2,0,0.3c0,0.5-0.1,0.9-0.4,1.3
		c-0.2,0.4-0.6,0.7-1,0.8l0.1,0.5l-0.1-0.5c-0.1,0-0.2,0-0.3,0c-0.5,0-0.9-0.1-1.3-0.4c-0.4-0.2-0.7-0.6-0.8-1
		c-1.9-6.6-3.8-11.1-5.7-14c-0.9-1.5-1.8-2.5-2.6-3.2s-1.6-1.1-2.3-1.1c-0.5,0-1,0.2-1.4,0.6c-0.4,0.3-0.8,0.7-1,1.2l0.4,0.3
		l-0.4-0.3c-1.1,1.4-2.1,2.3-3,2.8c-0.9,0.5-1.8,0.7-2.5,0.7l0.1,0.5V1.6c-2.4,0-4.4-0.9-6.3-3.3c-0.5-0.5-0.9-0.9-1.4-1.3
		c-0.4-0.3-0.9-0.6-1.5-0.6c-0.5,0-1.1,0.2-1.5,0.5c-0.4,0.3-0.8,0.7-1.1,1.2l0.4,0.3l-0.4-0.3c-2.1,2.9-4.4,3.3-5.8,3.3
		c-1.4,0-3.6-0.4-6-3.3l-0.4,0.3l0.4-0.3c-0.3-0.4-0.7-0.8-1.2-1.1s-1.1-0.6-1.7-0.6c-0.6,0-1.2,0.2-1.6,0.5
		c-0.5,0.3-0.8,0.7-1.2,1.1c-2.4,2.9-4.6,3.3-6,3.3c-1.3,0-3.6-0.6-5.8-3.3l-0.4,0.3l0.4-0.3c-0.3-0.4-0.7-0.8-1.1-1.1
		c-0.5-0.3-0.9-0.6-1.5-0.6c-0.5,0-0.9,0.2-1.4,0.5c-0.5,0.3-0.9,0.8-1.5,1.4l0.4,0.3L105-1.7c-1,1.1-1.9,1.9-2.9,2.4
		c-0.9,0.6-1.8,0.8-2.7,0.8c-0.2,0-0.4,0-0.6,0c-1.3,0-3.6-0.6-5.5-3.5c-0.3-0.4-0.6-0.8-1-1.1s-0.9-0.6-1.4-0.6
		c-0.7,0-1.4,0.4-2.2,1.1c-2.4,2.1-5.6,7.3-8.4,17.3l0.5,0.1l-0.4-0.3c-0.5,0.6-0.9,1.1-1.4,1.4c-0.4,0.3-0.8,0.4-1.2,0.4V16.8v0.5
		c0.6,0,1.2-0.2,1.8-0.6c0.6-0.4,1.1-0.9,1.6-1.6l0.1-0.1v-0.1C83.1,8.3,85.2,3.8,86.9,1c0.9-1.4,1.7-2.4,2.4-3
		c0.7-0.6,1.3-0.8,1.6-0.8c0.2,0,0.5,0.1,0.8,0.4c0.3,0.2,0.6,0.6,0.8,0.9l0.4-0.3l-0.4,0.3c2.1,3.1,4.7,3.9,6.3,3.9V2l-0.1,0.5
		c0.2,0,0.5,0,0.7,0c1.1,0,2.2-0.4,3.2-1c1.1-0.6,2.1-1.5,3.1-2.6c0.5-0.6,0.9-1,1.3-1.2c0.4-0.2,0.6-0.3,0.9-0.3
		c0.2,0,0.5,0.1,0.9,0.4c0.4,0.3,0.7,0.6,0.9,0.9c2.4,2.9,4.9,3.7,6.6,3.7c1.6,0,4.2-0.6,6.8-3.7l-0.4-0.3l0.4,0.4
		c0.4-0.4,0.8-0.8,1.1-1c0.3-0.2,0.7-0.4,1-0.4c0.4,0,0.8,0.2,1.2,0.4c0.4,0.2,0.7,0.6,0.9,0.9c2.6,3.1,5.2,3.7,6.8,3.7
		c1.6,0,4.3-0.6,6.6-3.7c0.2-0.3,0.5-0.7,0.9-0.9c0.3-0.2,0.7-0.4,0.9-0.4s0.5,0.1,0.9,0.4c0.4,0.3,0.8,0.7,1.3,1.2l0.4-0.4
		l-0.4,0.3c2.1,2.6,4.5,3.7,7.1,3.7c0.8-0.1,1.8-0.3,2.9-0.9c1.1-0.6,2.2-1.5,3.4-3c0.2-0.4,0.5-0.7,0.8-0.9
		c0.3-0.2,0.6-0.3,0.8-0.3c0.4,0,0.9,0.2,1.7,0.8c1.1,0.9,2.4,2.7,3.8,5.4c1.4,2.7,2.8,6.5,4.2,11.4l0.5-0.1l-0.5,0.1
		c0.2,0.7,0.6,1.2,1.2,1.6c0.6,0.4,1.2,0.5,1.9,0.5c0.2,0,0.3,0,0.5,0c0.7-0.2,1.2-0.6,1.6-1.2c0.4-0.6,0.5-1.2,0.5-1.9
		c0-0.2,0-0.3,0-0.5c-1.1-4.1-2.9-9.5-5.4-14c-1.3-2.2-2.7-4.2-4.3-5.7c-1.6-1.5-3.5-2.4-5.5-2.4c-1.7,0-4,0.9-6.3,3.7
		c-0.2,0.4-0.5,0.7-0.8,1s-0.6,0.5-0.9,0.5h-0.1h-0.1h-0.2c-0.2,0-0.6-0.1-1-0.4c-0.4-0.3-0.8-0.7-1.2-1.2c-2.1-2.3-4.2-3.4-6.6-3.4
		c-0.8,0-1.8,0.1-2.9,0.7C138.3-7,137.1-6,136-4.4l0.4,0.3L136-4.4c-0.2,0.3-0.6,0.7-1,1c-0.4,0.3-0.8,0.5-1.1,0.5
		c-0.5,0-1.4-0.4-2.3-1.5c-1.9-2.3-4.2-3.5-6.5-3.5s-4.6,1.2-6.5,3.5c-0.9,1.1-1.9,1.5-2.3,1.5c-0.3,0-0.7-0.2-1.1-0.5
		c-0.4-0.3-0.7-0.7-1-1c-2.4-3.1-5-3.7-6.6-3.7c-1.2,0-2.4,0.3-3.4,0.8c-1.1,0.6-2.1,1.4-3.1,2.5l0.4,0.3L101-4.8
		c-1.3,1.2-2.2,1.6-2.7,1.6c-0.1,0-0.2,0-0.3-0.1c-0.5-0.2-1.1-0.9-1.5-1.4l-0.4,0.3l0.4-0.3c-2.1-3.1-4.7-3.7-6.3-3.7
		c-2.1,0-3.9,0.9-5.5,2.4c-2.4,2.2-4.4,5.6-6.1,9.2c-1.6,3.6-2.8,7.4-3.7,10.5c-0.1,0.2-0.1,0.5-0.1,0.7c0,0.7,0.2,1.3,0.6,1.9
		c0.4,0.5,0.9,0.9,1.6,1.1c0.2,0,0.5,0,0.7,0L77.8,16.8L77.8,16.8z"/>
	<path d="M174.5,38.8c-1,0-2-0.7-2.5-1.7c-3.9-14.8-8.6-20-10.9-20c-0.7,0-1.7,1-2.2,1.7c-2.2,3.2-4.7,3.9-6.2,3.9
		c-2.5,0-4.9-1.2-7.2-3.7c-1-1.2-2-1.7-2.7-1.7c-1,0-1.7,1-2.5,1.7c-2.5,3.2-4.9,3.9-6.4,3.9c-1.7,0-4.2-0.7-6.9-3.9
		c-0.5-0.7-1.5-1.7-2.5-1.7s-2,1-2.5,1.7c-2.5,3.2-4.9,3.9-6.7,3.9c-1.7,0-4.2-0.7-6.4-3.9c-0.5-0.7-1.5-1.7-2.5-1.7
		c-0.7,0-1.7,0.7-2.7,1.7c-2.2,2.7-4.4,3.9-7.2,3.7c-1.7,0-3.9-0.7-6.2-3.9c-0.5-0.7-1.5-1.7-2.2-1.7c-2.2,0-6.9,5.4-10.9,20
		c-0.2,1.2-1.7,2.2-3,1.7c-1.2-0.2-2.2-1.7-1.7-3c2.2-8.9,7.4-23.7,15.5-23.7c1.7,0,3.9,0.7,6.2,3.7c0.5,0.7,1.5,1.7,2.5,2
		c0.7,0,2-0.7,3.2-2c2-2.5,4.2-3.5,6.4-3.5c1.7,0,3.9,0.7,6.4,3.7c1,1.2,2,2,2.7,2c0.7,0,1.7-0.7,3-2c3.9-4.7,8.9-4.7,12.8,0
		c1,1.2,2,2,3,2c0.7,0,1.7-0.7,2.7-2c2.2-3,4.7-3.7,6.4-3.7c2.2,0,4.4,1.2,6.4,3.5c1.2,1.2,2.2,2.2,3.2,2c1,0,2-1.2,2.5-2
		c2.2-3,4.7-3.7,6.2-3.7c8.1,0,13.3,14.8,15.5,23.7c0.2,1.2-0.5,2.7-1.7,3C175,38.8,174.7,38.8,174.5,38.8z"/>
	<path d="M174.5,38.8v-0.5c-0.8,0-1.6-0.6-2.1-1.4l-0.4,0.2l0.5-0.1c-2-7.4-4.1-12.5-6.1-15.7c-1-1.6-1.9-2.8-2.8-3.5
		c-0.9-0.8-1.7-1.2-2.5-1.2c-0.3,0-0.6,0.1-0.8,0.2c-0.7,0.4-1.4,1.1-1.8,1.7c-2.1,3.1-4.4,3.7-5.8,3.7c-2.3,0-4.6-1.1-6.8-3.5
		l-0.4,0.3l0.4-0.3c-1.1-1.3-2.1-1.9-3.1-1.9c-0.7,0-1.2,0.3-1.6,0.7c-0.4,0.4-0.8,0.8-1.2,1.1c-2.4,3.1-4.7,3.7-6,3.7
		c-1.6,0-3.9-0.6-6.5-3.7L127,19l0.4-0.3c-0.3-0.4-0.7-0.8-1.2-1.2c-0.5-0.4-1.1-0.7-1.7-0.7c-0.7,0-1.3,0.3-1.7,0.7
		c-0.5,0.4-0.9,0.8-1.2,1.2L122,19l-0.4-0.3c-1.2,1.6-2.4,2.5-3.4,3c-1.1,0.5-2,0.7-2.9,0.7c-1.6,0-3.9-0.6-6-3.7
		c-0.3-0.4-0.7-0.8-1.2-1.2c-0.5-0.4-1.1-0.7-1.7-0.7c-0.5,0-1,0.2-1.5,0.6c-0.5,0.3-1,0.8-1.5,1.3c-1,1.2-2,2.1-3,2.7
		c-1,0.6-2.1,0.9-3.2,0.9c-0.2,0-0.4,0-0.6,0c-0.8,0-1.7-0.2-2.6-0.7c-1-0.5-2-1.5-3.2-3c-0.3-0.4-0.7-0.8-1.1-1.2
		c-0.2-0.2-0.5-0.4-0.7-0.5c-0.2-0.1-0.5-0.2-0.8-0.2c-0.8,0-1.5,0.4-2.4,1.2c-1.3,1.2-2.8,3.2-4.3,6.3s-3.2,7.3-4.7,12.8
		c-0.1,0.3-0.3,0.7-0.6,1c-0.3,0.3-0.8,0.4-1.2,0.4c-0.2,0-0.4,0-0.5-0.1c-0.3-0.1-0.7-0.3-1-0.6s-0.4-0.8-0.4-1.2
		c0-0.2,0-0.4,0.1-0.5c1.1-4.4,2.9-10.3,5.5-15.1c1.3-2.4,2.7-4.5,4.3-5.9c1.6-1.5,3.3-2.3,5.2-2.3c0.8,0,1.7,0.2,2.6,0.7
		c1,0.5,2,1.4,3.2,2.8l0.4-0.3L94,16.2c0.3,0.4,0.7,0.8,1.1,1.2c0.5,0.4,1,0.8,1.6,0.9h0.1h0.1c0.5,0,1.1-0.2,1.7-0.6
		c0.6-0.4,1.3-0.9,1.9-1.6c1.9-2.4,4-3.3,6-3.3c0.8,0,1.7,0.2,2.7,0.7s2.1,1.4,3.3,2.9c0.5,0.6,1,1.1,1.5,1.5c0.5,0.4,1,0.6,1.5,0.7
		c0.5,0,1-0.2,1.6-0.6c0.5-0.4,1.1-0.9,1.8-1.5c1.9-2.3,4-3.3,6-3.3s4.1,1.1,6,3.3c0.5,0.6,1,1.2,1.6,1.5c0.6,0.4,1.2,0.6,1.8,0.6
		c0.5,0,1-0.2,1.5-0.6c0.5-0.4,1-0.9,1.6-1.6c2.1-2.9,4.4-3.5,6-3.5c2,0,4.1,1.1,6,3.3c0.5,0.5,1.1,1.1,1.6,1.5s1.1,0.7,1.7,0.7
		c0.1,0,0.2,0,0.4,0l-0.1-0.5v0.5c0.7,0,1.3-0.4,1.8-0.8c0.5-0.4,0.9-1,1.1-1.4l-0.4-0.3l0.4,0.3c2.1-2.9,4.4-3.5,5.8-3.5
		c1.9,0,3.6,0.8,5.2,2.3c2.4,2.2,4.5,5.8,6.1,9.7c1.6,3.9,2.9,8,3.7,11.3l0.5-0.1l-0.5,0.1c0,0.1,0,0.2,0,0.3c0,0.5-0.1,0.9-0.4,1.3
		c-0.2,0.4-0.6,0.7-1,0.8l0.1,0.5v-0.5c-0.4,0-0.7,0-0.9,0V38.8v0.5c0.2,0,0.5,0,0.9,0h0.1h0.1c0.7-0.2,1.2-0.6,1.6-1.2
		c0.4-0.6,0.5-1.2,0.5-1.9c0-0.2,0-0.3,0-0.5c-1.1-4.5-3-10.4-5.6-15.3c-1.3-2.4-2.8-4.6-4.5-6.2s-3.7-2.6-5.9-2.6
		c-1.6,0-4.3,0.8-6.6,3.9c-0.2,0.4-0.6,0.8-1,1.2c-0.4,0.4-0.8,0.6-1.1,0.6h-0.2c-0.3,0-0.7-0.2-1.1-0.5c-0.4-0.3-0.9-0.8-1.5-1.4
		l-0.4,0.4l0.4-0.3c-2.1-2.4-4.4-3.7-6.8-3.7c-1.8,0-4.5,0.8-6.8,3.9L137,16l-0.4-0.3c-0.5,0.6-0.9,1.1-1.4,1.4
		c-0.4,0.3-0.8,0.4-0.9,0.4c-0.4,0-0.8-0.1-1.2-0.5c-0.4-0.3-0.9-0.8-1.4-1.4c-2-2.4-4.4-3.7-6.8-3.7c-2.4,0-4.8,1.3-6.8,3.7
		l0.4,0.3l-0.4-0.4c-0.6,0.6-1.2,1.1-1.7,1.4s-0.8,0.4-1,0.4c-0.2,0-0.5-0.1-0.9-0.4c-0.4-0.3-0.9-0.8-1.4-1.4
		c-1.3-1.5-2.5-2.5-3.7-3.1c-1.1-0.6-2.2-0.8-3.1-0.8c-2.4,0-4.7,1.1-6.8,3.7l0.4,0.3l-0.4-0.3c-0.6,0.6-1.2,1.1-1.7,1.4
		s-1,0.4-1.2,0.4v0.5l0.1-0.5c-0.4-0.1-0.9-0.4-1.3-0.8c-0.4-0.3-0.8-0.7-1-1.1c-1.2-1.5-2.4-2.5-3.5-3.1c-1.1-0.6-2.2-0.8-3.1-0.8
		c-2.2,0-4.2,1-5.9,2.6c-2.6,2.4-4.7,6.1-6.4,10c-1.7,3.9-2.9,8.1-3.8,11.5l0.5,0.1L72,35.6c-0.1,0.3-0.2,0.6-0.2,0.9
		c0,0.7,0.3,1.3,0.7,1.8c0.4,0.5,1,0.9,1.6,1l0.1-0.5L74,39.3c0.3,0.1,0.6,0.2,0.9,0.2c0.7,0,1.3-0.3,1.8-0.7c0.5-0.4,0.9-1,1-1.6
		l-0.5-0.1l0.5,0.1c2-7.3,4.2-12.2,6.1-15.3c1-1.6,1.9-2.7,2.6-3.3c0.8-0.7,1.4-1,1.7-0.9c0.1,0,0.2,0,0.3,0.1
		c0.5,0.2,1.1,0.9,1.5,1.4c1.2,1.6,2.4,2.7,3.5,3.3c1.1,0.6,2.2,0.8,3.1,0.8v-0.5v0.5c0.2,0,0.4,0,0.6,0c1.3,0,2.6-0.3,3.7-1
		c1.2-0.7,2.2-1.6,3.3-2.9l-0.4-0.3l0.4,0.4c0.5-0.5,1-0.9,1.4-1.2c0.4-0.3,0.8-0.4,1-0.4c0.3,0,0.7,0.2,1.1,0.5
		c0.4,0.3,0.7,0.7,1,1l0.4-0.3l-0.4,0.3c2.3,3.3,5,4.1,6.8,4.1c1,0,2.1-0.2,3.3-0.8c1.2-0.6,2.5-1.6,3.8-3.3c0.2-0.3,0.6-0.7,1-1
		c0.4-0.3,0.8-0.5,1.1-0.5s0.7,0.2,1.1,0.5c0.4,0.3,0.7,0.7,1,1c2.8,3.3,5.4,4.1,7.3,4.1c1.7,0,4.2-0.8,6.8-4.1l-0.4-0.3l0.3,0.4
		c0.4-0.4,0.8-0.8,1.2-1.1c0.4-0.3,0.7-0.5,1-0.5c0.5,0,1.4,0.4,2.3,1.5c2.4,2.6,4.9,3.9,7.6,3.9c1.7,0,4.3-0.8,6.6-4.1l-0.4-0.3
		l0.4,0.3c0.2-0.3,0.6-0.7,0.9-1c0.2-0.2,0.4-0.3,0.5-0.4c0.2-0.1,0.3-0.1,0.3-0.1c0.4,0,1,0.2,1.8,0.9c2.3,2,5.7,7.7,8.6,18.7
		c0.6,1.1,1.7,2,2.9,2v-0.5H174.5z"/>
	<path d="M177.5,62.9c-1,0-2.2-0.7-2.5-2c-4.2-16.5-9.4-22.4-11.6-22.4c-1,0-1.7,1-2.5,2c-2.2,3.5-4.9,4.2-6.4,4.4
		c-2.7,0-5.2-1.2-7.4-4.2c-1-1.2-2.2-2-3-2c-1,0-2,1.2-2.5,2c-2.5,3.5-5.2,4.2-6.9,4.2c-2.5,0-4.9-1.5-6.9-4.2s-3.5-2.7-5.4,0
		c-2.5,2.7-4.9,4.2-7.4,4.2c-1.7,0-4.2-0.7-6.9-4.2c-0.5-0.7-1.5-2-2.5-2c-0.7,0-1.7,0.7-3,2c-2.2,3-4.7,4.2-7.4,4.2
		c-1.7,0-4.2-1-6.4-4.4c-0.5-1-1.5-2-2.5-2C84,38.5,79,44.4,74.8,61c-0.2,1.2-1.7,2.2-3,1.7c-1.2-0.2-2.2-1.7-1.7-3
		c2.5-9.9,7.9-26.1,16.3-26.1c1.7,0,4.2,0.7,6.4,3.9c1,1.2,2,2.2,2.7,2.2c1,0,2.2-0.7,3.2-2.2c2-2.5,4.4-3.9,6.7-3.9
		c1.7,0,4.2,0.7,6.7,3.9c1,1.5,2,2.2,3,2.2s2-0.7,3-2.2c3.9-5.2,9.4-5.2,13.3,0c1.2,1.5,2.2,2.2,3,2.2c0.7,0,2-0.7,3-2.2
		c2.5-3.2,4.9-3.9,6.7-3.9c2.5,0,4.7,1.2,6.7,3.9c1.2,1.5,2.5,2.5,3.2,2.2c0.7,0,1.7-0.7,2.7-2.2c2.2-3.5,4.7-3.9,6.4-3.9
		c8.4,0,13.8,16.3,16.3,26.1c0.2,1.2-0.5,2.7-1.7,3C177.7,62.9,177.5,62.9,177.5,62.9z"/>
	<path d="M177.5,62.9v-0.5c-0.4,0-0.8-0.1-1.2-0.4s-0.7-0.7-0.8-1.2c-2.1-8.3-4.5-13.9-6.6-17.5c-1.1-1.8-2.1-3.1-3-3.9
		c-0.9-0.8-1.7-1.3-2.5-1.3c-0.7,0-1.2,0.3-1.7,0.8c-0.4,0.4-0.8,0.9-1.2,1.4c-2.1,3.4-4.6,4-6,4.2l0.1,0.5v-0.5c-2.5,0-4.9-1.1-7-4
		c-0.5-0.6-1.1-1.2-1.7-1.5c-0.6-0.4-1.1-0.6-1.7-0.6c-0.7,0-1.3,0.4-1.8,0.8s-0.9,1-1.1,1.4l0.4,0.3l-0.4-0.3c-2.4,3.4-4.9,4-6.5,4
		c-2.3,0-4.6-1.4-6.5-4c-0.5-0.7-1-1.2-1.5-1.6c-0.5-0.4-1.1-0.6-1.6-0.6c-0.6,0-1.1,0.2-1.6,0.6c-0.5,0.4-1,0.9-1.5,1.6l0.4,0.3
		l-0.4-0.3c-1.2,1.3-2.4,2.3-3.6,3c-1.2,0.7-2.3,1-3.4,1c-0.8,0-1.7-0.2-2.8-0.7c-1.1-0.6-2.3-1.6-3.7-3.3l-0.4,0.3l0.4-0.3
		c-0.3-0.4-0.6-0.9-1.1-1.3c-0.5-0.4-1.1-0.9-1.8-0.9c-0.5,0-1,0.2-1.6,0.6c-0.5,0.4-1.1,0.9-1.8,1.5c-2.1,2.9-4.5,4-7,4
		c-1.5,0-3.8-0.9-6-4.2l-0.4,0.3l0.4-0.2c-0.3-0.6-0.7-1.1-1.2-1.5C87.6,38.3,87,38,86.3,38c-0.8,0-1.6,0.5-2.5,1.3
		c-1.4,1.3-2.9,3.6-4.6,7.1c-1.6,3.5-3.3,8.3-4.9,14.5c-0.1,0.3-0.3,0.7-0.6,1c-0.3,0.3-0.8,0.4-1.2,0.4c-0.2,0-0.4,0-0.5-0.1
		c-0.3-0.1-0.7-0.3-1-0.6c-0.3-0.3-0.4-0.8-0.4-1.2c0-0.2,0-0.4,0.1-0.5c1.2-4.9,3.2-11.4,5.9-16.7c1.3-2.6,2.9-4.9,4.5-6.5
		c1.7-1.6,3.5-2.5,5.4-2.5c1.6,0,3.9,0.6,6,3.7c0.5,0.6,1,1.2,1.5,1.6c0.5,0.4,1,0.8,1.6,0.8c1.2,0,2.6-0.8,3.6-2.4l-0.4-0.3
		l0.4,0.3c1.9-2.4,4.2-3.7,6.3-3.7c1.6,0,3.9,0.6,6.3,3.7l0.4-0.3l-0.4,0.3c0.5,0.8,1.1,1.4,1.6,1.8c0.6,0.4,1.2,0.6,1.8,0.6
		c0.6,0,1.2-0.2,1.8-0.6c0.6-0.4,1.1-1,1.6-1.8l-0.4-0.3l0.4,0.3c1.9-2.5,4.1-3.7,6.2-3.7c2.2,0,4.4,1.2,6.2,3.7
		c0.6,0.8,1.2,1.4,1.7,1.8c0.6,0.4,1.1,0.6,1.6,0.6s1.1-0.2,1.7-0.6c0.6-0.4,1.2-1,1.7-1.8l-0.4-0.3l0.4,0.3c1.2-1.6,2.4-2.5,3.4-3
		c1.1-0.5,2-0.7,2.9-0.7c1.2,0,2.2,0.3,3.3,0.9c1,0.6,2,1.5,3,2.8c0.5,0.7,1.1,1.3,1.7,1.7c0.6,0.4,1.1,0.7,1.6,0.7
		c0.2,0,0.3,0,0.5-0.1l-0.2-0.5v0.5c0.5,0,1-0.2,1.5-0.6c0.5-0.4,1-1,1.6-1.8c1.1-1.7,2.2-2.6,3.2-3.1s2-0.6,2.8-0.6
		c1.9,0,3.7,0.9,5.4,2.6c2.5,2.4,4.7,6.4,6.4,10.7s3.1,8.8,4,12.5l0.5-0.1l-0.5,0.1c0,0.1,0,0.2,0,0.3c0,0.5-0.1,0.9-0.4,1.3
		c-0.2,0.4-0.6,0.7-1,0.8l-0.4,0.1v0.4h0.3l-0.2-0.2l-0.1,0.2h0.3l-0.2-0.2l0.3,0.2l-0.1-0.3l-0.2,0.1l0.3,0.2l-0.1-0.3l0.1,0.3
		v-0.3h-0.1l0.1,0.3v-0.3v0.4v0.5c0,0,0.2,0,0.3-0.1c0.1,0,0.2-0.1,0.3-0.2c0.1-0.1,0.1-0.3,0.1-0.4h-0.5l0.1,0.5
		c0.7-0.2,1.2-0.6,1.6-1.2c0.4-0.6,0.5-1.2,0.5-1.9c0-0.2,0-0.3,0-0.5c-1.3-4.9-3.2-11.5-6-16.8c-1.4-2.7-2.9-5.1-4.7-6.8
		s-3.8-2.8-6.1-2.8c-0.9,0-2,0.1-3.2,0.7c-1.2,0.6-2.5,1.6-3.6,3.4l0.4,0.3l-0.4-0.3c-0.5,0.7-0.9,1.2-1.4,1.5
		c-0.4,0.3-0.7,0.4-0.9,0.4h-0.1h-0.1h-0.1c-0.2,0-0.6-0.2-1-0.5c-0.5-0.4-1-0.9-1.5-1.5l-0.4,0.3l0.4-0.3c-1-1.4-2.1-2.4-3.3-3.1
		c-1.2-0.7-2.5-1-3.8-1c-1,0-2.1,0.2-3.3,0.8c-1.2,0.6-2.5,1.6-3.8,3.3c-0.5,0.7-1,1.2-1.5,1.5s-0.9,0.5-1.1,0.5s-0.6-0.1-1.1-0.4
		c-0.4-0.3-1-0.8-1.6-1.6l-0.4,0.3l0.4-0.3c-2-2.7-4.5-4.1-7-4.1s-5,1.4-7.1,4.1c-0.5,0.7-0.9,1.2-1.4,1.5c-0.4,0.3-0.8,0.4-1.2,0.4
		c-0.4,0-0.8-0.1-1.2-0.4c-0.4-0.3-0.9-0.8-1.4-1.5c-2.6-3.3-5.3-4.1-7.1-4.1c-2.5,0-5,1.5-7.1,4.1c-0.9,1.4-2,2-2.8,2
		c-0.1,0-0.5-0.2-0.9-0.5c-0.4-0.4-0.9-0.9-1.4-1.5l-0.4,0.3l0.4-0.3c-2.3-3.3-5-4.1-6.8-4.1c-2.3,0-4.3,1.1-6.1,2.8
		c-2.7,2.6-4.9,6.6-6.6,11c-1.8,4.3-3.1,8.9-4.1,12.7l0.5,0.1l-0.5-0.2c-0.1,0.3-0.2,0.6-0.2,0.9c0,0.7,0.3,1.3,0.7,1.8
		c0.4,0.5,1,0.9,1.6,1l0.1-0.5l-0.2,0.5c0.3,0.1,0.6,0.2,0.9,0.2c0.7,0,1.3-0.3,1.8-0.7s0.9-1,1-1.6L74.8,61l0.5,0.1
		c2.1-8.3,4.4-13.9,6.4-17.3c1-1.7,2-3,2.8-3.7c0.8-0.8,1.5-1.1,1.8-1c0.3,0,0.7,0.2,1.1,0.5c0.4,0.3,0.7,0.8,0.9,1.2
		c2.3,3.5,4.9,4.6,6.8,4.6c2.9,0,5.5-1.3,7.8-4.4l-0.4-0.3l0.4,0.4c0.6-0.6,1.2-1.1,1.7-1.4s0.8-0.4,1-0.4c0.3,0,0.7,0.2,1.1,0.6
		c0.4,0.4,0.8,0.8,1,1.2c1.4,1.8,2.7,2.9,4,3.6c1.2,0.7,2.4,0.8,3.3,0.8c1.4,0,2.7-0.4,4-1.2c1.3-0.7,2.5-1.8,3.8-3.2
		c0.5-0.6,0.9-1.1,1.3-1.4c0.4-0.3,0.7-0.4,1-0.4s0.6,0.1,1,0.4c0.4,0.3,0.8,0.8,1.3,1.4c2.1,2.8,4.6,4.4,7.3,4.4
		c1.8,0,4.7-0.8,7.3-4.4c0.2-0.4,0.6-0.8,1-1.2c0.4-0.4,0.8-0.6,1.1-0.6c0.2,0,0.7,0.1,1.1,0.5c0.5,0.3,1,0.8,1.5,1.4l0.4-0.3
		l-0.4,0.3c2.3,3.1,4.9,4.4,7.8,4.4c1.6-0.2,4.5-1,6.8-4.6l-0.4-0.3l0.4,0.3c0.4-0.5,0.8-1,1.1-1.3c0.4-0.3,0.7-0.5,1-0.5
		c0.3,0,1,0.3,1.8,1c1.2,1.1,2.8,3.3,4.4,6.7c1.6,3.4,3.3,8.1,4.9,14.2L175,61l-0.5,0.1c0.2,0.8,0.6,1.4,1.2,1.8
		c0.5,0.4,1.2,0.6,1.8,0.6V62.9z"/>
	<path d="M69.4,90.1c-0.2,0-0.5,0-0.5,0c-1.2-0.2-2.2-1.7-1.7-3C69.9,76.3,75.8,58,84.5,58c1.7,0,4.4,0.7,6.7,4.4c1,1.5,2,2.5,3,2.5
		s2.2-1,3.7-2.7c4.4-5.7,10.1-5.7,13.8,0c1,1.7,2.2,2.5,3.2,2.5s2.2-1,3.5-2.5c4.2-5.7,9.9-5.7,13.8,0c1.2,1.7,2.5,2.5,3.2,2.5
		c1,0,2-1,3.2-2.5c3.9-5.7,9.6-5.9,13.8,0c1.2,1.7,2.7,2.7,3.7,2.7c0.7,0,2-1,3-2.5c2.5-3.7,4.9-4.4,6.7-4.4
		c8.9,0,14.6,18.3,17.3,29.1c0.2,1.2-0.5,2.7-1.7,3c-1.2,0.2-2.7-0.5-3-1.7c-4.7-18.5-10.1-25.2-12.6-25.2c-1,0-2,1.5-2.7,2.2
		c-2,3-4.2,4.7-6.9,4.7c-2.7,0.2-5.4-1.5-7.6-4.7c-1.2-1.5-2.2-2.5-3.2-2.5s-2.2,1.5-2.7,2.2c-2,3-4.4,4.7-7.2,4.7
		c-2.7,0-5.2-1.5-7.4-4.7c-1-1.5-2.2-2.2-3-2.2c-0.7,0-2,0.7-3,2.2c-2.2,3.2-4.7,4.7-7.4,4.7c-2.7,0-4.9-1.7-7.2-4.7
		c-0.5-0.7-1.7-2.2-2.7-2.2s-2,0.7-3.2,2.5c-2.5,3.2-5.2,4.7-7.6,4.7c-2.7,0-4.9-1.7-6.9-4.7c-0.5-0.7-1.5-2.2-2.5-2.2
		c-2.5,0-7.9,6.7-12.6,25.2C71.6,89.3,70.4,90.1,69.4,90.1z"/>
	<path d="M69.4,90.1v-0.5c-0.2,0-0.5,0-0.5,0v0.5l0.1-0.5c-0.3-0.1-0.7-0.3-1-0.6s-0.4-0.8-0.4-1.2c0-0.2,0-0.4,0.1-0.5
		c1.3-5.4,3.5-12.6,6.4-18.5c1.4-2.9,3.1-5.5,4.8-7.3c1.8-1.8,3.6-2.9,5.6-2.9c0.8,0,1.8,0.2,2.9,0.8c1.1,0.6,2.3,1.6,3.4,3.4
		c0.5,0.8,1,1.4,1.6,1.9c0.5,0.5,1.2,0.8,1.8,0.8c0.7,0,1.3-0.3,2-0.8c0.7-0.5,1.3-1.2,2.1-2.1c2.1-2.8,4.5-4.1,6.8-4.1
		c2.2,0,4.4,1.3,6.2,4l0.4-0.3l-0.4,0.3c0.5,0.9,1.1,1.6,1.7,2c0.6,0.5,1.3,0.7,1.9,0.7c0.7,0,1.3-0.3,1.9-0.8s1.3-1.1,1.9-1.9
		c2-2.8,4.4-4.1,6.6-4.1s4.5,1.3,6.4,4.1c0.6,0.9,1.3,1.6,1.9,2c0.6,0.4,1.2,0.7,1.7,0.7c0.7,0,1.3-0.3,1.8-0.8
		c0.6-0.5,1.1-1.1,1.7-1.9c1.9-2.8,4.2-4.1,6.4-4.1c2.2,0,4.5,1.3,6.5,4.1c0.6,0.9,1.3,1.6,2,2.1c0.7,0.5,1.4,0.8,2.1,0.8
		c0.3,0,0.6-0.1,0.8-0.2c0.8-0.4,1.8-1.3,2.6-2.5c1.2-1.8,2.4-2.8,3.4-3.4c1.1-0.6,2-0.7,2.8-0.7c2,0,3.9,1,5.7,2.9
		c2.7,2.7,4.9,7.2,6.8,12c1.9,4.8,3.3,9.9,4.3,13.9l0.5-0.1l-0.5,0.1c0,0.1,0,0.2,0,0.3c0,0.5-0.1,0.9-0.4,1.3
		c-0.2,0.4-0.6,0.7-1,0.8l0.1,0.5l-0.1-0.5c-0.1,0-0.2,0-0.3,0c-0.5,0-0.9-0.1-1.3-0.4c-0.4-0.2-0.7-0.6-0.8-1
		c-2.4-9.3-4.9-15.6-7.2-19.7c-1.1-2-2.2-3.5-3.2-4.4c-1-1-1.9-1.5-2.7-1.5c-0.4,0-0.7,0.1-1,0.3c-0.4,0.3-0.8,0.7-1.2,1
		c-0.3,0.4-0.6,0.8-0.9,1c-1,1.5-2,2.6-3.1,3.3c-1.1,0.8-2.2,1.1-3.4,1.1c-0.1,0-0.3,0-0.4,0c-1.2,0-2.3-0.4-3.5-1.1
		c-1.1-0.8-2.3-1.9-3.3-3.4c-0.6-0.8-1.2-1.4-1.7-1.9c-0.6-0.5-1.2-0.8-1.8-0.8c-0.8,0-1.4,0.5-1.9,1s-1,1.1-1.2,1.4
		c-1,1.5-2,2.6-3.2,3.3c-1.1,0.8-2.3,1.1-3.6,1.1c-2.5,0-4.8-1.4-7-4.5l-0.4,0.3l0.4-0.3c-0.5-0.8-1.1-1.4-1.7-1.8
		c-0.6-0.4-1.2-0.6-1.7-0.6s-1.1,0.2-1.7,0.6c-0.6,0.4-1.2,1-1.7,1.8l0.4,0.3l-0.4-0.3c-2.2,3.1-4.5,4.5-7,4.5
		c-1.2,0-2.4-0.4-3.5-1.1c-1.1-0.8-2.2-1.9-3.3-3.4l-0.4,0.3l0.4-0.3c-0.3-0.4-0.7-0.9-1.2-1.4s-1.1-1-1.9-1c-0.6,0-1.2,0.2-1.8,0.7
		c-0.6,0.5-1.2,1.1-1.8,2l0.4,0.3l-0.4-0.3c-2.4,3.1-5,4.5-7.2,4.5c-1.2,0-2.4-0.4-3.4-1.1c-1.1-0.8-2.1-1.9-3.1-3.3
		c-0.2-0.3-0.6-0.9-1.1-1.4c-0.2-0.3-0.5-0.5-0.8-0.7c-0.3-0.2-0.6-0.3-1-0.3c-0.9,0-1.7,0.5-2.7,1.5c-1.5,1.4-3.2,4-4.9,7.9
		c-1.8,3.9-3.7,9.2-5.4,16.2l0.5,0.1l-0.5-0.2c-0.1,0.3-0.5,0.7-0.9,1c-0.4,0.3-0.9,0.4-1.2,0.4v0.6v0.5c0.6,0,1.3-0.2,1.8-0.6
		c0.5-0.4,1-0.8,1.3-1.4c2.3-9.2,4.9-15.5,7.1-19.4c1.1-2,2.1-3.3,3-4.2c0.9-0.9,1.6-1.2,2-1.2c0.1,0,0.3,0,0.5,0.2
		c0.6,0.4,1.2,1.3,1.6,1.8l0.4-0.3l-0.4,0.3c1,1.5,2.1,2.8,3.3,3.6c1.2,0.9,2.5,1.3,4,1.3c2.6,0,5.4-1.6,8-4.9
		c0.6-0.9,1.1-1.5,1.6-1.8s0.8-0.5,1.2-0.5c0.2,0,0.7,0.3,1.2,0.7s0.9,1,1.1,1.3c1.2,1.5,2.3,2.7,3.6,3.6c1.2,0.8,2.6,1.3,4,1.3
		c2.9,0,5.6-1.6,7.8-4.9c0.5-0.7,1-1.2,1.5-1.5s0.9-0.5,1.1-0.5c0.3,0,0.7,0.1,1.1,0.4c0.5,0.3,1,0.8,1.4,1.5
		c2.2,3.3,4.9,4.9,7.8,4.9c1.5,0,2.9-0.5,4.2-1.3s2.4-2.1,3.4-3.6l-0.4-0.3l0.4,0.3c0.2-0.3,0.6-0.9,1.1-1.3
		c0.4-0.4,0.9-0.7,1.2-0.7s0.7,0.2,1.2,0.6c0.5,0.4,1,1,1.6,1.7l0.4-0.3l-0.4,0.3c1.1,1.6,2.3,2.8,3.5,3.6c1.3,0.8,2.7,1.3,4,1.3
		c0.2,0,0.3,0,0.5,0v-0.5v0.5c1.5,0,2.8-0.5,4-1.3c1.2-0.8,2.3-2.1,3.3-3.6l-0.4-0.3l0.4,0.4c0.4-0.4,0.8-0.9,1.2-1.4
		c0.2-0.2,0.4-0.4,0.6-0.5c0.2-0.1,0.4-0.2,0.5-0.2c0.4,0,1.1,0.3,2,1.2c1.3,1.3,3,3.8,4.7,7.6c1.8,3.9,3.6,9.1,5.4,16
		c0.2,0.7,0.6,1.2,1.2,1.6c0.6,0.4,1.2,0.5,1.9,0.5c0.2,0,0.3,0,0.5,0c0.7-0.2,1.2-0.6,1.6-1.2c0.4-0.6,0.5-1.2,0.5-1.9
		c0-0.2,0-0.3,0-0.5c-1.4-5.4-3.5-12.7-6.4-18.7c-1.5-3-3.1-5.7-5-7.6s-4-3.2-6.4-3.2c-1,0-2.1,0.2-3.3,0.9s-2.5,1.8-3.8,3.7
		c-0.5,0.7-1,1.3-1.5,1.7c-0.2,0.2-0.5,0.4-0.7,0.4c-0.2,0.1-0.3,0.1-0.4,0.1c-0.3,0-0.9-0.2-1.5-0.6c-0.6-0.4-1.2-1.1-1.8-1.9
		c-2.1-3-4.7-4.6-7.4-4.6s-5.2,1.6-7.3,4.6l0.4,0.3l-0.4-0.3c-0.6,0.7-1.1,1.3-1.6,1.7c-0.5,0.4-0.9,0.6-1.2,0.6
		c-0.2,0-0.6-0.1-1.1-0.5c-0.5-0.4-1.1-1-1.7-1.8l-0.4,0.3l0.4-0.3c-2-2.9-4.6-4.5-7.2-4.5c-2.6,0-5.3,1.5-7.4,4.5l0.4,0.3l-0.4-0.3
		c-0.6,0.7-1.2,1.3-1.8,1.7c-0.5,0.4-1,0.6-1.3,0.6c-0.4,0-0.8-0.1-1.3-0.5c-0.5-0.4-1-0.9-1.5-1.7c-1.9-2.9-4.4-4.5-7.1-4.5
		c-2.6,0-5.3,1.5-7.6,4.5l0.4,0.3l-0.4-0.3c-0.7,0.8-1.4,1.5-2,1.9c-0.6,0.4-1,0.6-1.4,0.6c-0.3,0-0.7-0.2-1.2-0.6
		c-0.4-0.4-0.9-1-1.4-1.7l-0.4,0.3l0.4-0.3c-1.2-1.9-2.5-3.1-3.8-3.8c-1.3-0.7-2.4-0.9-3.4-0.9c-2.4,0-4.5,1.2-6.4,3.2
		c-2.8,2.9-5.1,7.5-7,12.3s-3.4,10-4.4,14l0.5,0.1l-0.5-0.2c-0.1,0.3-0.2,0.6-0.2,0.9c0,0.7,0.3,1.3,0.7,1.8c0.4,0.5,1,0.9,1.6,1
		c0,0,0.3,0,0.5,0v-0.4H69.4z"/>
	<path d="M126.4,90.9V71.3l7,6.7c0.5,0.5,1.3,0.5,1.8,0s0.5-1.3,0-1.8l-9.2-8.9c-0.1-0.1-0.1-0.1-0.2-0.2c0,0-0.1,0-0.1-0.1
		c0,0-0.1,0-0.1-0.1h-0.1h-0.1c-0.1,0-0.2,0-0.3,0c-0.1,0-0.2,0-0.3,0h-0.1h-0.1c0,0-0.1,0-0.1,0.1h-0.1c-0.1,0-0.1,0.1-0.2,0.2
		l-9.2,8.9c-0.5,0.5-0.5,1.3,0,1.8s1.3,0.5,1.8,0l7-6.7v19.6c0,0.7,0.6,1.3,1.3,1.3S126.4,91.6,126.4,90.9z"/>
	<path d="M126.4,90.9h0.5V72.5l6.2,5.9l0.3-0.4l-0.4,0.4c0.3,0.3,0.8,0.5,1.3,0.5s0.9-0.2,1.3-0.5c0.3-0.3,0.5-0.8,0.5-1.3
		s-0.2-0.9-0.5-1.3l-9.2-8.9l-0.3,0.4l0.4-0.4c-0.1-0.1-0.1-0.1-0.2-0.2l-0.1-0.1H126V67l0.2-0.3c-0.1,0-0.1,0-0.2,0V67l0.2-0.3
		l-0.2,0.4l0.3-0.2l-0.2-0.1l-0.2,0.4l0.3-0.2l-0.3,0.2h0.4l-0.1-0.2l-0.3,0.2h0.4v-0.5h-0.5v0.4l0.2-0.3c-0.1,0-0.1,0-0.2,0v0.4
		l0.2-0.3l-0.2,0.4l0.3-0.2l-0.2-0.1l-0.2,0.4l0.3-0.2l-0.3,0.2h0.4l-0.1-0.2l-0.3,0.2h0.4v-0.5h-0.6h-0.1c-0.1,0-0.2,0-0.3,0
		c-0.1,0-0.2,0-0.3,0h-0.1h-0.1c0,0-0.1,0-0.3,0.1c-0.1,0-0.2,0.1-0.2,0.2c-0.1,0.1-0.1,0.2-0.1,0.3h0.5V67h-0.1
		c-0.1,0-0.3,0-0.3,0.1c-0.1,0.1-0.2,0.2-0.2,0.2l0.4,0.4l-0.3-0.4l-9.2,8.9c-0.3,0.3-0.5,0.8-0.5,1.3s0.2,0.9,0.5,1.3
		c0.3,0.3,0.8,0.5,1.3,0.5s0.9-0.2,1.3-0.5l-0.4-0.4l0.3,0.4l6.2-5.9v18.4c0,1,0.8,1.8,1.8,1.8c0.5,0,0.9-0.2,1.2-0.5
		c0.3-0.3,0.6-0.7,0.6-1.2h-0.7h-0.5c0,0.2-0.1,0.4-0.2,0.5c-0.1,0.1-0.3,0.2-0.6,0.2c-0.2,0-0.4-0.1-0.6-0.2
		c-0.2-0.1-0.2-0.4-0.2-0.6V70l-7.8,7.5c-0.2,0.2-0.3,0.2-0.5,0.2s-0.4-0.1-0.5-0.2c-0.2-0.2-0.2-0.3-0.2-0.5s0.1-0.4,0.2-0.5
		l-0.4-0.4l0.3,0.4l9.2-8.9l0.1-0.2v-0.1l-0.3-0.2l0.2,0.3l0.1-0.1l-0.3-0.2l0.2,0.3l-0.2-0.3v0.4l0.2-0.1l-0.2-0.3v0.4h0.1h0.5V67
		h-0.4l0.3,0.2L125,67h-0.4l0.3,0.2l-0.3-0.2l0.1,0.4c0,0,0.1-0.1,0.2-0.2l-0.3-0.2l0.1,0.4l-0.1-0.4v0.4h0.1l-0.1-0.4v0.4h0.1h0.1
		c0.1,0,0.2,0,0.3,0c0.1,0,0.2,0,0.3,0h0.1h0.1v-0.5h-0.5c0,0.1,0,0.2,0.1,0.3c0.1,0.2,0.2,0.2,0.3,0.2h0.2V67h-0.5
		c0,0.1,0,0.2,0.1,0.3c0.1,0.2,0.2,0.2,0.3,0.2h0.2V67l-0.4,0.4c0.1,0.1,0.1,0.1,0.2,0.2l9.2,8.9l0.3-0.4l-0.4,0.4
		c0.2,0.2,0.2,0.3,0.2,0.5s-0.1,0.4-0.2,0.5c-0.2,0.2-0.3,0.2-0.5,0.2c-0.2,0-0.4-0.1-0.5-0.2l-7.8-7.5v20.8h0.5V90.9z"/>
</g>
</svg>
