<?xml version="1.0" encoding="utf-8"?>
<!-- Generator: Adobe Illustrator 16.0.0, SVG Export Plug-In . SVG Version: 6.00 Build 0)  -->
<!DOCTYPE svg PUBLIC "-//W3C//DTD SVG 1.1//EN" "http://www.w3.org/Graphics/SVG/1.1/DTD/svg11.dtd">
<svg version="1.1" id="Layer_1" xmlns="http://www.w3.org/2000/svg" xmlns:xlink="http://www.w3.org/1999/xlink" x="0px" y="0px"
	 width="126.7px" height="124.9px" viewBox="61.7 -26.9 126.7 124.9" style="enable-background:new 61.7 -26.9 126.7 124.9;"
	 xml:space="preserve">
<g>
	<path d="M182.8,88.7c-1.5-1.2-3.5-2.6-5.9-3.7c-2.4-1.1-5.3-2-8.5-2.1v1.5l0.1-1.5c-0.3,0-0.7,0-1,0c-3.1,0-5.7,0.7-8.1,1.8
		c-3.5,1.6-6.3,4-9.2,5.9c-1.4,0.9-2.9,1.7-4.5,2.3c-1.6,0.6-3.2,1-5.2,1h-0.3c-2.7,0-4.9-0.7-6.8-1.7c-2.9-1.6-5.4-4.1-8.4-6.4
		c-1.5-1.1-3.1-2.2-5-3c-1.9-0.8-4.1-1.2-6.5-1.2h-0.2c-3.1,0-5.8,0.8-8.1,1.9c-3.5,1.7-6.2,4.1-9.2,6c-1.5,0.9-3,1.8-4.6,2.4
		c-1.7,0.6-3.5,1-5.6,1h-0.3c-3.3,0-6.4-0.9-9.1-2.1c-2.7-1.3-5.1-2.9-7-4.4l-1.9,2.3c2,1.6,4.6,3.4,7.7,4.8c3,1.4,6.5,2.4,10.4,2.4
		c0.1,0,0.2,0,0.3,0c3.3-0.1,6.1-0.8,8.5-2c3.6-1.7,6.4-4.1,9.3-6c1.4-0.9,2.9-1.8,4.5-2.4c1.6-0.6,3.3-1,5.3-1h0.1
		c2.8,0,4.9,0.7,6.9,1.7c3,1.6,5.4,4.1,8.4,6.4c1.5,1.1,3.1,2.2,5,2.9c1.9,0.8,4,1.2,6.5,1.2c0.1,0,0.2,0,0.3,0c3,0,5.6-0.8,7.9-2
		c3.4-1.7,6.2-4,9.1-5.9c1.4-0.9,2.9-1.7,4.5-2.3c1.6-0.6,3.3-0.9,5.2-0.9c0.3,0,0.6,0,0.8,0c2.8,0.1,5.2,0.8,7.3,1.8
		c2.1,1,3.9,2.2,5.3,3.4L182.8,88.7z"/>
	<path d="M182.8,88.7l0.3-0.4c-1.5-1.2-3.6-2.6-6-3.8c-2.4-1.1-5.4-2-8.7-2.1h-0.5v2h1l0.1-2h-0.5c-0.3,0-0.7,0-1,0
		c-3.2,0-5.9,0.7-8.3,1.8c-3.6,1.6-6.4,4.1-9.3,5.9c-1.4,0.9-2.8,1.7-4.4,2.3c-1.6,0.6-3.1,1-5,1h-0.3c-2.6,0-4.7-0.7-6.6-1.6
		l-0.2,0.4l0.2-0.4c-2.8-1.5-5.3-4-8.3-6.4c-1.5-1.1-3.1-2.2-5.1-3.1c-2-0.8-4.2-1.2-6.7-1.2h-0.2c-3.2,0-6,0.8-8.3,1.9
		c-3.6,1.7-6.3,4.2-9.2,6l0.3,0.4L95.8,89c-1.5,0.9-3,1.8-4.5,2.4l0.2,0.5l-0.2-0.5c-1.7,0.6-3.4,1-5.4,1h-0.3
		c-3.2,0-6.2-0.9-8.9-2.1l-0.2,0.5l0.2-0.5c-2.7-1.3-5-2.9-6.9-4.3l-0.4-0.3l-2.5,3.1l0.4,0.3c2,1.6,4.7,3.4,7.8,4.9l0.2-0.5L75,94
		c3.1,1.4,6.6,2.4,10.6,2.4c0.1,0,0.2,0,0.3,0c3.4-0.1,6.2-0.8,8.7-2.1l-0.2-0.4l0.2,0.5c3.7-1.7,6.5-4.2,9.4-6
		c1.4-0.9,2.9-1.8,4.4-2.4c1.6-0.6,3.2-1,5.1-1h0.1c2.7,0,4.7,0.7,6.7,1.6l0.2-0.4l-0.2,0.4c2.9,1.5,5.3,4,8.3,6.4
		c1.5,1.1,3.1,2.2,5.1,3l0.2-0.5l-0.2,0.5c2,0.8,4.1,1.2,6.7,1.2c0.1,0,0.2,0,0.3,0c3.1,0,5.8-0.8,8.1-2.1l-0.2-0.4l0.2,0.4
		c3.5-1.7,6.3-4.1,9.2-5.9c1.4-0.9,2.8-1.7,4.4-2.3c1.5-0.6,3.2-0.9,5-0.9c0.3,0,0.6,0,0.8,0v-0.5V86c2.7,0.1,5.1,0.8,7.1,1.8
		c2.1,1,3.8,2.2,5.2,3.3l0.4,0.3l2.7-2.8l-0.4-0.3L182.8,88.7l-0.4-0.3l-2,2.1l0.4,0.3l0.3-0.4c-1.4-1.2-3.3-2.5-5.4-3.5
		c-2.2-1-4.6-1.7-7.5-1.8c-0.2,0-0.5,0-0.8,0c-2,0-3.7,0.3-5.4,0.9c-1.6,0.6-3.2,1.4-4.6,2.3c-2.9,1.9-5.7,4.2-9,5.9
		c-2.2,1.2-4.8,1.9-7.7,1.9c-0.1,0-0.2,0-0.3,0c-2.4,0-4.5-0.4-6.3-1.2c-1.8-0.7-3.4-1.7-4.9-2.8l-0.3,0.4l0.3-0.4
		c-3-2.3-5.4-4.8-8.5-6.4c-2-1-4.2-1.8-7.1-1.8h-0.1c-2.1,0-3.8,0.4-5.5,1s-3.2,1.5-4.6,2.4c-2.9,1.9-5.7,4.3-9.2,6
		c-2.3,1.2-5.1,1.8-8.3,1.9v0.5v-0.5c-0.1,0-0.2,0-0.3,0c-3.8,0-7.2-1-10.2-2.4s-5.6-3.2-7.6-4.7l-0.3,0.4l0.4,0.3l1.9-2.3l-0.4-0.3
		l-0.3,0.4c1.9,1.5,4.4,3.1,7.1,4.5c2.7,1.2,5.9,2.1,9.3,2.1h0.3c2.2,0,4-0.4,5.8-1c1.7-0.6,3.2-1.5,4.7-2.4c3-1.9,5.7-4.3,9.2-6
		c2.2-1.1,4.9-1.9,7.9-1.9h0.2c2.3,0,4.5,0.4,6.3,1.2c1.8,0.8,3.4,1.8,4.9,2.9l0.3-0.4l-0.3,0.4c3,2.3,5.5,4.8,8.5,6.4
		c2,1,4.2,1.8,7,1.8h0.3c2.1,0,3.7-0.4,5.4-1c1.6-0.6,3.2-1.4,4.6-2.3c2.9-1.9,5.7-4.3,9.1-5.9c2.4-1.1,4.9-1.8,7.9-1.8
		c0.3,0,0.7,0,1,0v-0.5h-0.5l-0.1,1.5h0.5h0.5v-1.5h-0.5v0.5c3.1,0.1,6,1,8.3,2.1s4.3,2.5,5.8,3.6L182.8,88.7l-0.4-0.3L182.8,88.7z"
		/>
	<path d="M182.8,88.7l0.3-0.4c-1.5-1.2-3.5-2.6-6-3.8c-2.5-1.2-5.4-2-8.7-2.2h-0.5l-0.1,2h1l0.1-2h-0.5c-0.3,0-0.7,0-1,0
		c-3.2,0-5.9,0.8-8.3,1.9c-3.6,1.7-6.4,4.1-9.2,5.9c-1.4,0.9-2.8,1.7-4.4,2.3c-1.5,0.6-3.1,0.9-5,1v1v-1h-0.3
		c-2.7,0-4.7-0.7-6.6-1.7c-2.8-1.5-5.3-4-8.3-6.3c-1.5-1.1-3.2-2.2-5.1-3c-2-0.8-4.2-1.3-6.7-1.3h-0.2c-3.2,0-6,0.8-8.3,2
		c-3.5,1.7-6.3,4.1-9.2,6c-1.4,0.9-2.9,1.7-4.5,2.3s-3.4,1-5.5,1v1v-1h-0.3c-3.2,0-6.2-0.8-8.9-2.1c-2.7-1.2-5-2.9-6.9-4.4l-0.4-0.3
		L67,88.7l0.4,0.3c2.1,1.6,4.7,3.5,7.8,4.9c3.1,1.4,6.7,2.4,10.6,2.4c0.1,0,0.2,0,0.3,0c3.4-0.1,6.2-0.9,8.7-2
		c3.7-1.7,6.5-4.2,9.3-6c1.4-0.9,2.8-1.7,4.4-2.3c1.5-0.6,3.2-0.9,5.1-0.9h0.1c2.7,0,4.8,0.7,6.7,1.7c2.9,1.5,5.3,4,8.3,6.3
		c1.5,1.1,3.2,2.2,5.1,3s4.1,1.3,6.6,1.3c0.1,0,0.2,0,0.3,0v-0.5v0.5c3.1-0.1,5.8-0.9,8.1-2c3.5-1.7,6.3-4.1,9.1-5.9
		c1.4-0.9,2.9-1.7,4.4-2.2c1.5-0.6,3.2-0.9,5.1-0.9c0.3,0,0.5,0,0.8,0v-0.5v0.5v-0.5v0.5c2.7,0.1,5.1,0.8,7.1,1.8
		c2.1,1,3.8,2.2,5.2,3.3l0.4,0.3l2.5-3.1l-0.4-0.3L182.8,88.7l-0.4-0.3l-1.9,2.3l0.4,0.3l0.3-0.4c-1.4-1.1-3.2-2.4-5.4-3.4
		s-4.7-1.8-7.5-1.9v0.5v-0.5c-0.3,0-0.6,0-0.9,0c-2,0-3.8,0.4-5.4,0.9c-1.6,0.6-3.1,1.4-4.6,2.3c-2.9,1.9-5.7,4.2-9,5.8
		c-2.2,1.1-4.8,1.9-7.7,1.9v0.5v-0.5c-0.1,0-0.2,0-0.3,0c-2.4,0-4.4-0.5-6.2-1.2c-1.8-0.7-3.4-1.8-4.9-2.9c-2.9-2.2-5.4-4.8-8.5-6.4
		c-2-1.1-4.3-1.8-7.2-1.8h-0.1c-2.1,0-3.8,0.4-5.4,1c-1.6,0.6-3.1,1.4-4.6,2.4c-2.9,1.9-5.7,4.3-9.2,6c-2.3,1.1-5,1.9-8.3,1.9v0.5
		v-0.5c-0.1,0-0.2,0-0.3,0c-3.8,0-7.2-1-10.2-2.4S70,89.6,67.9,88l-0.3,0.4l0.4,0.3l1.9-2.3l-0.4-0.3l-0.3,0.4
		c1.9,1.5,4.4,3.2,7.1,4.5c2.8,1.3,5.9,2.2,9.4,2.2H86v-1v0.5v0.5c2.2,0,4.1-0.4,5.8-1c1.7-0.6,3.2-1.5,4.7-2.4
		c3-1.9,5.7-4.3,9.1-5.9c2.3-1.1,4.8-1.9,7.9-1.9h0.2c2.4,0,4.5,0.5,6.3,1.2c1.8,0.7,3.4,1.8,4.9,2.9c3,2.2,5.4,4.8,8.5,6.4
		c2,1.1,4.2,1.8,7.1,1.8h0.3v-1v0.5v0.5c2,0,3.7-0.4,5.3-1c1.6-0.6,3.1-1.4,4.5-2.4c2.9-1.9,5.7-4.2,9.1-5.8
		c2.3-1.1,4.8-1.8,7.8-1.8c0.3,0,0.6,0,1,0v-0.5H168l-0.1,1.5h0.5h0.5v-1.5h-0.5v0.5c3.2,0.1,5.9,0.9,8.3,2.1
		c2.4,1.1,4.3,2.5,5.8,3.7L182.8,88.7l-0.4-0.3L182.8,88.7z"/>
	<path d="M182.8,88.7l0.4,0.3l0.3-0.4l0.3-0.4l-0.4-0.3c-1.5-1.2-3.6-2.6-6.1-3.9c-2.6-1.2-5.5-2-8.9-2.2h-0.5h-0.5l-0.1,3h2l0.1-3
		h-1c-0.3,0-0.7,0-1,0c-3.3,0-6.1,0.8-8.5,1.9c-3.7,1.7-6.5,4.2-9.3,5.9c-1.4,0.9-2.8,1.7-4.3,2.3c-1.4,0.6-3,0.9-4.8,1H140v1.5h1
		v-1v-0.5h-0.8c-2.6,0-4.5-0.7-6.4-1.6c-2.7-1.4-5.2-3.9-8.2-6.3c-1.5-1.1-3.2-2.2-5.2-3.1c-2-0.8-4.3-1.3-6.9-1.3h-0.2
		c-3.3,0-6.2,0.8-8.5,2.1l0.2,0.4l-0.2-0.5c-3.6,1.7-6.4,4.2-9.3,6c-1.4,0.9-2.8,1.7-4.4,2.3c-1.6,0.6-3.3,1-5.3,1h-0.5v1.5h1v-1
		v-0.5h-0.8c-3.1,0-6-0.8-8.7-2c-2.6-1.2-4.9-2.8-6.8-4.3l-0.4-0.3L69.2,85l-2.9,3.9l0.8,0.6c2.1,1.6,4.7,3.5,7.9,5
		c3.2,1.4,6.8,2.4,10.8,2.4c0.1,0,0.2,0,0.3,0c3.5-0.1,6.3-0.9,8.9-2c3.8-1.7,6.6-4.3,9.4-6c1.4-0.9,2.8-1.7,4.3-2.3
		c1.4-0.6,3.1-0.9,4.9-0.9h0.1c2.6,0,4.6,0.7,6.5,1.6c2.8,1.4,5.2,3.9,8.2,6.3c1.5,1.1,3.2,2.2,5.2,3.1c2,0.8,4.2,1.3,6.8,1.3
		c0.1,0,0.2,0,0.3,0h0.5v-1h-1v0.5V98h0.5c3.2-0.1,5.9-0.9,8.3-2c3.6-1.7,6.4-4.2,9.2-5.9c1.4-0.9,2.8-1.7,4.3-2.1
		c1.4-0.6,3.1-0.9,4.9-0.9c0.3,0,0.5,0,0.8,0h0.5v-1h-1v0.5h1v-0.5h-1v0.5v0.5h0.5c2.6,0.1,5,0.8,6.9,1.7c2.1,1,3.7,2.2,5.1,3.2
		l0.4,0.3l0.4,0.3l3.1-3.9l-1.2-0.9l-0.5,0.7L182.8,88.7l0.3-0.4l-0.4-0.3l-0.4-0.3l-2.5,3.1l1.2,0.9l0.9-1.2l-0.4-0.3
		c-1.4-1.1-3.2-2.4-5.5-3.5c-2.2-1-4.8-1.8-7.7-1.9h-0.5v1h1v-0.5v-0.5h-0.5c-0.3,0-0.6,0-0.9,0c-2.1,0-3.9,0.4-5.5,0.9
		c-1.6,0.6-3.2,1.4-4.7,2.3c-2.9,1.9-5.7,4.2-8.9,5.8c-2.1,1.1-4.7,1.8-7.5,1.8h-0.5v1h1v-0.5v-0.5h-0.5c-0.1,0-0.2,0-0.3,0
		c-2.3,0-4.3-0.5-6-1.2c-1.7-0.7-3.3-1.7-4.8-2.8l-0.3,0.4l0.3-0.4c-2.9-2.2-5.4-4.8-8.6-6.4l-0.2,0.4l0.2-0.4
		c-2.1-1.1-4.5-1.9-7.4-1.9h-0.1c-2.2,0-3.9,0.4-5.6,1c-1.6,0.6-3.2,1.4-4.7,2.5c-2.9,1.9-5.7,4.3-9.1,6c-2.2,1.1-4.9,1.9-8.1,1.9
		h-0.5v1h1v-0.5v-0.5H86c-0.1,0-0.2,0-0.3,0c-3.7,0-7-1-10-2.4c-2.9-1.4-5.4-3.2-7.5-4.7l-0.4-0.3l-0.9,1.2l1.2,0.9l2.5-3.1
		l-1.2-0.9l-0.9,1.2l0.4,0.3c1.9,1.5,4.4,3.2,7.2,4.6c2.8,1.3,6,2.2,9.6,2.2H86h0.5v-1.5h-1v0.5v0.5v0.5H86c2.3,0,4.2-0.4,6-1
		c1.8-0.6,3.3-1.5,4.8-2.4c3-1.9,5.7-4.3,9-5.9c2.3-1.1,4.7-1.9,7.7-1.9h0.2c2.3,0,4.4,0.5,6.1,1.2c1.7,0.7,3.3,1.7,4.8,2.8
		c3,2.2,5.4,4.8,8.6,6.4l0.2-0.4l-0.2,0.4c2.1,1.1,4.4,1.9,7.3,1.9h0.3h0.5v-1.5h-1v0.5v0.5v0.5h0.5c2.1,0,3.8-0.4,5.5-1
		c1.6-0.6,3.2-1.4,4.6-2.5l-0.3-0.4l0.3,0.4c2.9-1.9,5.7-4.2,9-5.8c2.2-1.1,4.7-1.8,7.6-1.8c0.3,0,0.6,0,1,0h0.5v-1v-0.5h-1h-0.5
		l-0.2,2.5h1h0.5h0.5v-2.5h-1h-0.5v1v0.5h0.5c3.1,0.1,5.7,0.9,8.1,2c2.3,1.1,4.2,2.4,5.7,3.6l0.4,0.3l0.9-1.2l-0.8-0.6l-0.6,0.8
		l0.4,0.3l0.4,0.3l0.3-0.4L182.8,88.7l0.3-0.4l-0.4-0.3l-0.6,0.8l0.4,0.3L182.8,88.7l-0.4-0.3l-0.3,0.4l0.4,0.3L182.8,88.7
		c-1.5-1.2-3.4-2.6-5.9-3.8l-0.2,0.5l0.2-0.4c-2.5-1.2-5.2-2.1-8.5-2.2v0.5h0.5v-0.5h-0.5v1h-0.5v0.5h0.5l0.1-1v-0.5H168v0.5h0.5
		v-0.5c-0.4,0-0.7,0-1,0c-3.1,0-5.7,0.7-8,1.8c-3.5,1.6-6.3,4-9.2,5.8c-1.4,1-2.8,1.8-4.4,2.3c-1.6,0.6-3.2,1-5.1,1v0.5h0.5v-0.5
		v-0.5h-1v1h0.5v-0.5h-0.3c-2.8,0-4.9-0.7-6.9-1.7c-3-1.5-5.4-4.1-8.4-6.4c-1.5-1.1-3.1-2.2-5-3c-1.8-0.7-4-1.2-6.5-1.2h-0.2
		c-3.2,0-5.8,0.8-8.1,1.9c-3.5,1.6-6.2,4.1-9.2,5.9l0.3,0.4l-0.3-0.4c-1.5,0.9-3,1.8-4.6,2.4c-1.7,0.6-3.5,1-5.6,1v0.5h0.5v-0.5
		v-0.5h-1v1H86v-0.5h-0.3c-3.4,0-6.4-0.9-9.2-2.2L76.3,91l0.2-0.5c-2.7-1.3-5.1-3-7-4.4l-0.3,0.4l0.4,0.3l0.3-0.4l-0.4-0.3l-0.3,0.4
		l0.4,0.3l0.3-0.4l-0.4-0.3L67.9,88l-0.3,0.4l0.4,0.3l0.3-0.4L67.9,88l-0.3,0.4c2.1,1.6,4.6,3.4,7.7,4.9c3,1.4,6.5,2.4,10.4,2.4
		c0.1,0,0.2,0,0.3,0v-0.5h-0.5v0.5h1v-0.5H86v0.5c3.4,0,6.2-0.8,8.5-1.9c3.6-1.7,6.4-4.2,9.3-6c1.5-1,2.9-1.8,4.5-2.3
		c1.6-0.6,3.2-1,5.2-1h0.1c2.8,0,5,0.7,7,1.7c3,1.5,5.5,4.1,8.4,6.4c1.5,1.1,3.1,2.2,5,3c1.8,0.7,3.9,1.2,6.4,1.2c0.1,0,0.2,0,0.3,0
		v-0.5h-0.5v0.5h1v-0.5h-0.5v0.5c3,0,5.7-0.8,7.9-2l-0.2-0.4l0.2,0.5c3.4-1.6,6.2-4,9.1-5.8l-0.3-0.4l0.3,0.4c1.5-0.9,3-1.7,4.5-2.3
		l-0.2-0.5l0.1,0.5c1.6-0.5,3.3-0.9,5.2-0.9c0.3,0,0.6,0,0.9,0v-0.5h-0.5v0.5h1v-0.5h-0.5v0.5c2.7,0.1,5.1,0.9,7.3,1.9
		c2.1,1,3.9,2.2,5.3,3.3l0.3-0.4l-0.4-0.3l-0.3,0.4l0.4,0.3l1.6-1.9l0.4,0.3l0.5-0.7l-0.4-0.3l-0.3,0.4l0.4,0.3l0.3-0.4l-0.4-0.3
		l-2.2,2.7l-0.3,0.4l0.3-0.4c-1.4-1.1-3.1-2.3-5.3-3.4l-0.2,0.5l0.2-0.4c-2.1-1-4.5-1.8-7.3-1.9v0.5h0.5V86h-1v0.5h1V86h-1v0.5h0.5
		V86c-0.3,0-0.5,0-0.8,0c-2,0-3.7,0.3-5.3,0.9l0.2,0.5l-0.2-0.5c-1.6,0.5-3.1,1.3-4.5,2.3c-2.8,1.8-5.6,4.2-9,5.9
		c-2.2,1.1-4.9,1.9-7.9,2v0.5h0.5v-0.5h-1v0.5h0.5v-0.5c-0.1,0-0.2,0-0.3,0c-2.4,0-4.6-0.5-6.4-1.3c-1.8-0.8-3.5-1.9-5-2.9l-0.3,0.4
		l0.3-0.4c-3-2.3-5.4-4.8-8.4-6.3c-1.9-1-4.1-1.8-6.9-1.8h-0.1c-2,0-3.7,0.3-5.3,0.9l0.2,0.5l-0.2-0.5c-1.6,0.6-3.1,1.4-4.5,2.3
		c-2.8,1.8-5.6,4.3-9.2,6l0.2,0.5L94.5,94c-2.5,1.1-5.2,1.9-8.5,2v0.5V96c-0.1,0-0.2,0-0.3,0c-3.8,0-7.3-1-10.4-2.4
		c-3-1.4-5.6-3.2-7.7-4.8l2-2.7l-0.4-0.3L69,86l0.4,0.3l0.3-0.4l-0.3,0.4c1.9,1.5,4.2,3.2,7,4.5l0.2-0.5l-0.2,0.5
		c2.8,1.3,5.8,2.1,9.1,2.1h0.3v-0.5h-0.5v1h1v-1h-0.5v0.5c2.2,0,4-0.4,5.7-1c1.6-0.6,3.2-1.4,4.6-2.3c2.9-1.9,5.7-4.3,9.1-6
		c2.2-1.2,5-1.9,8.1-1.9h0.2c2.4,0,4.6,0.5,6.5,1.3l0.2-0.5L120,83c1.8,0.8,3.5,1.9,5,2.9l0.3-0.4l-0.3,0.4c3,2.3,5.5,4.8,8.4,6.3
		c1.9,1,4,1.8,6.8,1.8h0.3v-0.5H140v1h1v-1h-0.5V94c1.9-0.1,3.6-0.4,5.2-1l-0.2-0.5l0.2,0.5c1.6-0.6,3.1-1.4,4.5-2.3
		c2.8-1.8,5.6-4.2,9.1-5.9l-0.2-0.5l0.2,0.5c2.4-1.1,5-1.9,8.1-1.9c0.3,0,0.7,0,1,0h0.5v-0.5h-0.5l-0.1,1.5h-0.5v0.5h0.5l0.1-1.5
		v-0.5v0.5c3.2,0.2,6.1,1,8.5,2.2C179.3,86.1,181.3,87.5,182.8,88.7l0.3-0.4l-0.4-0.3l-0.3,0.4L182.8,88.7l0.3-0.4L182.8,88.7z"/>
	<path d="M74-2.3c-0.4-0.3-0.9-0.3-1.3,0C72.3-1.9,62.2,7,62.2,25.6c0,26.8,3.8,40.3,11.2,40.3c7.4,0,11.2-13.6,11.2-40.3
		C84.6,7,74.5-1.9,74-2.3z M64.2,25.6c0-13.9,6.1-22.2,8.7-25.2v63.5C67.4,63.1,64.2,49.3,64.2,25.6z M73.9,63.9V0.4
		c2.6,2.9,8.7,11.2,8.7,25.2C82.6,49.3,79.4,63.1,73.9,63.9z"/>
	<path d="M74-2.3l0.3-0.4C74-2.9,73.7-3,73.3-3c-0.3,0-0.7,0.1-1,0.3c0,0-0.1,0.1-0.2,0.2C70.7-1.1,61.7,8,61.7,25.6
		c0,13.4,0.9,23.5,2.8,30.3c1,3.4,2.1,6,3.6,7.8c1.5,1.8,3.2,2.7,5.3,2.7c2,0,3.8-0.9,5.3-2.7c2.2-2.7,3.8-7.2,4.8-13.5
		c1.1-6.3,1.6-14.5,1.6-24.6c0-9.4-2.6-16.4-5.2-21c-1.3-2.3-2.6-4.1-3.7-5.3c-1-1.2-1.8-1.8-1.9-2L74-2.3l-0.3,0.4
		c0.1,0.1,0.8,0.7,1.8,1.8c3,3.5,8.6,11.9,8.6,25.7c0,13.3-1,23.4-2.8,30c-0.9,3.3-2.1,5.8-3.4,7.4c-1.3,1.6-2.8,2.4-4.5,2.4
		c-1.7,0-3.2-0.7-4.5-2.3c-2-2.4-3.6-6.8-4.6-13c-1.1-6.3-1.6-14.4-1.6-24.4c0-9.2,2.5-16,5-20.5c1.3-2.3,2.6-4,3.5-5.1
		c0.5-0.6,0.9-1,1.2-1.3c0.2-0.2,0.3-0.3,0.4-0.4C73-1.9,73-1.9,73.1-1.9l-0.4-0.4L73-1.9C73.1-2,73.2-2,73.3-2s0.2,0,0.4,0.1
		L74-2.3l-0.3,0.4L74-2.3z M64.2,25.6h0.5c0-13.7,6-21.9,8.6-24.9l-0.4-0.3h-0.5v63.5h0.5l0.1-0.5c-0.6-0.1-1.2-0.3-1.7-0.8
		c-1-0.8-1.9-2.2-2.7-4.2c-2.5-6-3.8-17.3-3.8-32.8H64.2h-0.5c0,11.9,0.8,21.3,2.3,27.8c0.8,3.3,1.7,5.9,2.8,7.7
		c0.6,0.9,1.2,1.7,1.8,2.2c0.7,0.5,1.4,0.9,2.2,1l0.6,0.1V-0.9l-0.9,1c-2.6,3.1-8.8,11.5-8.8,25.5H64.2z M73.9,63.9h0.5V0.4h-0.5
		l-0.4,0.3c2.5,2.8,8.6,11,8.6,24.9c0,11.8-0.8,21.2-2.3,27.6c-0.7,3.2-1.6,5.7-2.7,7.4c-0.5,0.9-1.1,1.5-1.6,2
		c-0.6,0.5-1.1,0.7-1.7,0.8L73.9,63.9h0.5H73.9l0.1,0.5c0.8-0.1,1.5-0.5,2.2-1c1.2-1,2.2-2.5,3-4.6c2.5-6.3,3.9-17.6,3.9-33.2
		c0-14.2-6.2-22.6-8.8-25.5l-0.9-1v65.4l0.6-0.1L73.9,63.9z"/>
	<path d="M173-26.1c-0.6-0.4-1.3-0.4-1.8,0c-0.6,0.6-14.6,12.9-14.6,38.8c0,37.3,5.3,56,15.6,56c10.3,0,15.6-18.9,15.6-56
		C187.8-13.1,173.7-25.5,173-26.1z M159.4,12.7c0-19.3,8.5-30.9,12.1-35V66C163.8,64.9,159.4,45.7,159.4,12.7z M172.9,66v-88.3
		c3.6,4,12.1,15.6,12.1,35C185,45.7,180.5,64.9,172.9,66z"/>
	<path d="M173-26.1l0.3-0.4c-0.4-0.2-0.8-0.4-1.2-0.4c-0.4,0-0.8,0.1-1.2,0.4c0,0-0.1,0.1-0.3,0.2c-2.1,2-14.5,14.5-14.5,38.9
		c0,18.7,1.3,32.7,4,42.1c1.3,4.7,3,8.3,5,10.7s4.4,3.7,7.2,3.7c2.7,0,5.2-1.3,7.2-3.7c3-3.7,5.2-9.9,6.7-18.7
		c1.5-8.8,2.2-20.2,2.2-34.1c0-26-14.2-38.5-15-39.2L173-26.1l-0.3,0.4c0.6,0.6,14.6,12.8,14.6,38.4c0,18.5-1.3,32.5-3.9,41.8
		c-1.3,4.6-2.9,8.1-4.8,10.4c-1.9,2.3-4,3.3-6.4,3.4c-2.4,0-4.5-1.1-6.4-3.3c-2.8-3.4-5-9.4-6.5-18.1c-1.5-8.7-2.2-20.1-2.2-34
		c0-12.9,3.5-22.3,7-28.6c1.8-3.2,3.6-5.5,4.9-7.2c0.7-0.8,1.3-1.4,1.7-1.9c0.2-0.2,0.4-0.4,0.5-0.5c0.1-0.1,0.2-0.2,0.3-0.3
		l-0.4-0.4l0.3,0.4c0.2-0.1,0.3-0.2,0.5-0.2c0.2,0,0.4,0.1,0.7,0.2L173-26.1l-0.3,0.4L173-26.1z M159.4,12.7h0.5
		c0-19.1,8.4-30.6,12-34.7l-0.4-0.3H171V66h0.5l0.1-0.5c-0.9-0.1-1.7-0.5-2.5-1.1c-1.4-1.1-2.7-3.1-3.8-5.9
		c-3.4-8.4-5.3-24.1-5.3-45.7L159.4,12.7l-0.5,0.1c0,16.5,1.1,29.6,3.2,38.7c1,4.6,2.3,8.1,3.9,10.7c0.8,1.3,1.6,2.3,2.5,3
		c0.9,0.7,1.9,1.2,3,1.4l0.6,0.1v-90.2l-0.9,1C167.5-18.3,159-6.6,159,12.8L159.4,12.7L159.4,12.7z M172.9,66h0.5v-88.3h-0.5
		l-0.4,0.3c3.5,3.9,12,15.4,12,34.7c0,16.5-1.1,29.5-3.2,38.5c-1,4.5-2.3,8-3.7,10.4c-0.7,1.2-1.5,2.1-2.3,2.8
		c-0.8,0.6-1.6,1-2.5,1.1L172.9,66h0.5H172.9l0.1,0.5c1-0.2,2-0.6,2.9-1.4c1.6-1.3,2.9-3.4,4.1-6.3c3.5-8.7,5.5-24.4,5.5-46.1
		c0-19.6-8.6-31.3-12.2-35.3l-0.9-1v90.2l0.6-0.1L172.9,66z"/>
	<path d="M114.4-19.4c-0.5-0.4-1.1-0.4-1.6,0c-0.5,0.5-13.2,11.7-13.2,35c0,33.6,4.8,50.6,14.1,50.6c9.3,0,14.1-17.1,14.1-50.6
		C127.7-7.7,115.1-18.9,114.4-19.4z M102.1,15.6c0-17.4,7.7-27.9,10.9-31.6v79.7C106.2,62.7,102.1,45.4,102.1,15.6z M114.3,63.7V-16
		c3.3,3.6,10.9,14.1,10.9,31.6C125.2,45.4,121.2,62.7,114.3,63.7z"/>
	<path d="M114.4-19.4l0.3-0.4c-0.3-0.3-0.7-0.4-1.1-0.4c-0.4,0-0.8,0.1-1.1,0.4c0,0-0.1,0.1-0.2,0.2c-1.9,1.8-13.1,13.1-13.1,35.1
		c0,16.8,1.2,29.5,3.6,38c1.2,4.3,2.7,7.5,4.5,9.7c1.8,2.2,4,3.4,6.5,3.4s4.7-1.2,6.5-3.4c2.7-3.3,4.7-9,6.1-16.9
		c1.3-8,2-18.2,2-30.8c0-11.7-3.3-20.5-6.5-26.3c-1.6-2.9-3.3-5.1-4.6-6.6c-0.7-0.8-1.2-1.3-1.6-1.7c-0.2-0.2-0.4-0.4-0.5-0.5
		c-0.1-0.1-0.2-0.2-0.3-0.3L114.4-19.4l0.3-0.4L114.4-19.4l-0.3,0.4c0,0,0.1,0.1,0.2,0.2c0.9,0.8,4.2,4,7.2,9.7
		c3,5.7,5.8,13.9,5.8,24.7c0,16.7-1.2,29.3-3.5,37.7c-1.2,4.2-2.6,7.3-4.3,9.4c-1.7,2-3.6,3-5.7,3c-2.2,0-4-1-5.7-3
		c-2.5-3-4.5-8.5-5.9-16.4c-1.3-7.9-2-18.1-2-30.7c0-11.6,3.1-20.1,6.3-25.8c1.6-2.9,3.2-5,4.5-6.5c0.6-0.7,1.2-1.3,1.5-1.7
		c0.2-0.2,0.4-0.3,0.5-0.5c0.1-0.1,0.2-0.2,0.2-0.2l-0.4-0.4l0.3,0.4c0.2-0.1,0.3-0.2,0.5-0.2s0.3,0.1,0.5,0.2L114.4-19.4z
		 M102.1,15.6h0.5c0-17.2,7.6-27.6,10.8-31.3L113-16h-0.5v79.7h0.5l0.1-0.5c-0.7-0.1-1.5-0.4-2.2-1c-1.2-1-2.4-2.8-3.4-5.3
		c-3.1-7.6-4.9-21.7-4.9-41.3H102.1h-0.5c0,14.9,1,26.7,2.9,35c0.9,4.1,2.1,7.3,3.5,9.6c0.7,1.1,1.4,2.1,2.3,2.7
		c0.8,0.7,1.7,1.1,2.7,1.2l0.6,0.1v-81.6l-0.9,1c-3.2,3.8-11,14.4-11,31.9h0.4V15.6z M114.3,63.7h0.5V-16h-0.5l-0.4,0.3
		c3.2,3.5,10.8,13.9,10.8,31.3c0,14.9-1,26.6-2.8,34.7c-0.9,4.1-2.1,7.2-3.4,9.4c-0.7,1.1-1.3,1.9-2.1,2.5c-0.7,0.6-1.4,0.9-2.2,1
		L114.3,63.7h0.5H114.3l0.1,0.5c1-0.1,1.9-0.6,2.7-1.2c1.4-1.2,2.7-3.1,3.7-5.7c3.2-7.8,4.9-22,4.9-41.6c0-17.7-7.7-28.3-11-31.9
		l-0.9-0.9v81.6l0.6-0.1L114.3,63.7z"/>
	<path d="M91.4,15.9c-0.3-0.2-0.6-0.2-0.9,0c-0.3,0.3-7.4,6.5-7.4,19.6c0,18.8,2.7,28.3,7.9,28.3s7.9-9.5,7.9-28.3
		C98.9,22.4,91.8,16.2,91.4,15.9z M84.6,35.5c0-9.8,4.3-15.6,6.1-17.7v44.5C86.8,61.8,84.6,52.1,84.6,35.5z M91.4,62.3V17.8
		c1.8,2,6.1,7.9,6.1,17.7C97.5,52.1,95.2,61.8,91.4,62.3z"/>
	<path d="M91.4,15.9l0.3-0.4c-0.2-0.1-0.5-0.2-0.7-0.2c-0.3,0-0.5,0.1-0.7,0.2L90,15.7c-1.1,1-7.4,7.4-7.4,19.8
		c0,9.4,0.7,16.5,2,21.3c0.7,2.4,1.5,4.2,2.6,5.5c1,1.3,2.4,2,3.8,2c1.5,0,2.8-0.7,3.8-2c1.6-1.9,2.7-5.1,3.5-9.5
		c0.8-4.5,1.1-10.2,1.1-17.3c0-6.6-1.8-11.6-3.7-14.8c-0.9-1.6-1.9-2.9-2.6-3.7c-0.4-0.4-0.7-0.8-0.9-1c-0.2-0.2-0.4-0.4-0.5-0.4
		L91.4,15.9l-0.3,0.4c0,0,0.2,0.1,0.4,0.4c1.6,1.5,6.9,7.6,6.9,18.8c0,9.4-0.7,16.4-2,21.1c-0.6,2.3-1.5,4-2.4,5.1
		c-0.9,1.1-1.9,1.6-3,1.6c-1.1,0-2.1-0.5-3-1.6c-1.4-1.6-2.5-4.7-3.2-9.1s-1.1-10.1-1.1-17.1c0-6.5,1.7-11.2,3.5-14.4
		c0.9-1.6,1.8-2.8,2.5-3.6c0.3-0.4,0.6-0.7,0.9-0.9c0.1-0.1,0.2-0.2,0.3-0.3l0.1-0.1l-0.4-0.4l0.3,0.4l0.2-0.1l0.2,0.1L91.4,15.9
		l-0.3,0.4L91.4,15.9z M84.6,35.5h0.5c0-9.6,4.2-15.3,6-17.4l-0.4-0.3h-0.5v44.5h0.5l0.1-0.5c-0.4-0.1-0.8-0.2-1.1-0.5
		c-0.7-0.5-1.3-1.5-1.9-2.9c-1.7-4.2-2.7-12.1-2.7-22.9H84.6h-0.5c0,8.3,0.5,14.9,1.6,19.5c0.5,2.3,1.2,4.1,2,5.4
		c0.4,0.7,0.8,1.2,1.3,1.6s1,0.6,1.6,0.7l0.6,0.1V16.4l-0.9,1c-1.8,2.1-6.2,8.1-6.2,18h0.5V35.5z M91.4,62.3h0.5V17.8h-0.5L91,18.1
		c1.7,1.9,6,7.7,6,17.4c0,8.3-0.6,14.8-1.6,19.3c-0.5,2.2-1.2,4-1.9,5.2c-0.4,0.6-0.7,1-1.1,1.3c-0.4,0.3-0.7,0.5-1.1,0.5L91.4,62.3
		h0.5H91.4l0.1,0.5c0.6-0.1,1.1-0.3,1.6-0.7c0.8-0.7,1.5-1.8,2.2-3.3C97,54.4,98,46.4,98,35.5c0-10-4.4-16-6.2-18l-0.9-1v46.4
		l0.6-0.1L91.4,62.3z"/>
	<path d="M143.8-13.3c-0.4-0.3-1-0.3-1.4,0c-0.4,0.4-11.5,10.2-11.5,30.5c0,29.3,4.2,44.1,12.2,44.1c8.1,0,12.2-14.9,12.2-44.1
		C155.4-3.1,144.3-12.9,143.8-13.3z M133.1,17.2c0-15.2,6.7-24.3,9.5-27.6V59C136.6,58.2,133.1,43.1,133.1,17.2z M143.7,59.1v-69.4
		c2.8,3.2,9.5,12.2,9.5,27.6C153.2,43.1,149.7,58.2,143.7,59.1z"/>
	<path d="M143.8-13.3l0.3-0.4c-0.3-0.2-0.7-0.3-1-0.3s-0.7,0.1-1,0.3c0,0-0.1,0.1-0.2,0.2C140.3-12,130.4-2,130.4,17.2
		c0,14.7,1,25.7,3.1,33.2c1,3.7,2.3,6.5,3.9,8.5c1.6,1.9,3.5,3,5.7,3s4.1-1,5.7-3c2.4-2.9,4.1-7.8,5.3-14.8
		c1.2-6.9,1.7-15.9,1.7-26.9c0-0.1,0-0.2,0-0.3c0-10.1-2.8-17.7-5.6-22.8c-1.4-2.5-2.9-4.4-4-5.7c-0.6-0.7-1-1.2-1.4-1.5
		c-0.4-0.4-0.6-0.6-0.7-0.6L143.8-13.3l-0.3,0.4c0,0,0.3,0.2,0.6,0.6c2.4,2.3,10.7,11.9,10.7,29.3v0.3c0,14.6-1,25.6-3,32.9
		c-1,3.6-2.3,6.4-3.7,8.1c-1.5,1.8-3.1,2.6-4.9,2.6c-1.8,0-3.4-0.8-4.9-2.6c-2.2-2.6-3.9-7.4-5.1-14.3c-1.2-6.9-1.7-15.8-1.7-26.7
		c0-10.1,2.7-17.5,5.5-22.5c1.4-2.5,2.8-4.4,3.9-5.6c0.5-0.6,1-1.1,1.3-1.5c0.2-0.2,0.3-0.3,0.4-0.4c0.1-0.1,0.2-0.2,0.2-0.2
		l-0.4-0.4l0.3,0.4c0.1-0.1,0.2-0.1,0.4-0.1s0.3,0,0.4,0.1L143.8-13.3l-0.3,0.4L143.8-13.3z M133.1,17.2h0.5c0-15,6.6-24,9.4-27.3
		l-0.4-0.3h-0.5V59h0.5l0.1-0.5c-0.7-0.1-1.3-0.4-1.9-0.9c-1.1-0.9-2.1-2.4-3-4.6c-2.7-6.6-4.2-18.9-4.2-35.9h-0.5h-0.5
		c0,13,0.9,23.2,2.5,30.4c0.8,3.6,1.8,6.4,3,8.4c0.6,1,1.3,1.8,2,2.4c0.7,0.6,1.5,1,2.4,1.1l0.6,0.1v-71.3l-0.9,1
		c-2.8,3.3-9.6,12.6-9.6,27.9h0.5V17.2z M143.7,59.1h0.5v-69.4h-0.5l-0.4,0.3c2.8,3.1,9.4,12,9.4,27.3c0,12.9-0.9,23.1-2.5,30.1
		c-0.8,3.5-1.8,6.3-2.9,8.1c-0.6,0.9-1.2,1.7-1.8,2.2c-0.6,0.5-1.2,0.8-1.9,0.9L143.7,59.1h0.5H143.7l0.1,0.5
		c0.8-0.1,1.6-0.5,2.4-1.1c1.3-1,2.3-2.7,3.3-5c2.8-6.9,4.3-19.2,4.3-36.2c0-15.5-6.8-24.7-9.6-27.9l-0.9-1v71.3l0.6-0.1L143.7,59.1
		z"/>
	<path d="M160.9,34.5c-8.1,0-15.1,5.3-19,13.1c-2.5-1.9-5.4-3-8.5-3c-3.7,0-7,1.5-9.7,4c-3.5-5.5-8.9-9-15-9c-2.4,0-4.6,0.5-6.7,1.5
		c-1.2-1.9-3.3-3.2-5.7-3.2c-3.7,0-6.7,3-6.7,6.7c0,2.4,1.3,4.5,3.2,5.7c-0.8,1.3-1.3,2.7-1.8,4c-0.5,0.3-1,0.7-1.5,1.2
		c-2.4-3.8-6.1-6.2-10.4-6.2c-7.2,0-13.1,7.2-13.1,16c0,3,2,5.3,4.4,5.3h17.5c0.2,0,0.3,0,0.5,0c0.2,0,0.3,0,0.5,0H96h7.6h17.8
		c0.3,0,0.5,0,0.7-0.1c0.2,0,0.5,0.1,0.7,0.1H144c0.3,0,0.7,0,1-0.1c0.4,0.1,0.7,0.1,1.1,0.1h29.6c4.1,0,7.4-4,7.4-9
		C183,46.7,173.1,34.5,160.9,34.5z"/>
	<path d="M160.9,34.5V34c-8.3,0-15.5,5.4-19.4,13.4l0.4,0.2l0.3-0.4c-2.6-2-5.6-3.1-8.8-3.1c-3.8,0-7.3,1.6-10,4.1l0.3,0.4l0.4-0.3
		c-3.6-5.6-9.1-9.2-15.4-9.2c-2.5,0-4.8,0.5-6.9,1.5l0.2,0.5l0.4-0.3c-1.3-2-3.5-3.4-6.1-3.4c-4,0-7.2,3.2-7.2,7.2
		c0,2.6,1.4,4.8,3.4,6.1l0.3-0.4L92.4,50c-0.8,1.4-1.3,2.8-1.8,4.1l0.5,0.2l-0.3-0.4c-0.5,0.3-1.1,0.8-1.6,1.3l0.4,0.4l0.4-0.3
		c-2.5-3.9-6.3-6.4-10.8-6.4c-3.8,0-7.2,1.9-9.6,4.9c-2.5,3-4,7.1-4,11.6c0,1.6,0.5,3,1.4,4.1c0.9,1,2.1,1.7,3.5,1.7H88
		c0.2,0,0.3,0,0.5,0s0.3,0,0.5,0h7h7.6h17.8c0.2,0,0.3,0,0.4,0c0.2,0,0.3-0.1,0.5-0.1l-0.2-0.4V71c0,0,0.1,0,0.3,0
		c0.1,0,0.3,0.1,0.4,0.1H144c0.3,0,0.7,0,1.2-0.1l-0.2-0.5l-0.1,0.5c0.5,0.1,0.8,0.1,1.2,0.1h29.6c2.2,0,4.2-1.1,5.6-2.8
		c1.4-1.7,2.3-4.1,2.3-6.7c-0.1-7.6-2.6-14.4-6.7-19.5c-4.1-5-9.8-8.1-16-8.1V34.5V35c5.9,0,11.3,3,15.3,7.8
		c3.9,4.8,6.4,11.5,6.4,18.8c0,2.4-0.8,4.5-2,6.1c-1.3,1.5-3,2.4-4.9,2.4h-29.6c-0.4,0-0.6,0-1-0.1H145h-0.1
		c-0.2,0.1-0.5,0.1-0.8,0.1h-21.2c0,0-0.1,0-0.3,0c-0.1,0-0.3-0.1-0.4-0.1H122l-0.1,0.1h-0.1c-0.1,0-0.2,0-0.3,0h-17.8H96h-7.1
		c-0.2,0-0.3,0-0.5,0c-0.2,0-0.3,0-0.5,0H70.4c-1,0-2-0.5-2.7-1.3c-0.7-0.9-1.2-2.1-1.2-3.5c0-4.3,1.4-8.2,3.7-11
		c2.3-2.8,5.4-4.5,8.9-4.5c4.1,0,7.6,2.3,10,6l0.3,0.5l0.4-0.4c0.5-0.5,0.9-0.9,1.4-1.1l0.1-0.1l0.1-0.2c0.5-1.3,1-2.7,1.8-3.9
		l0.3-0.4l-0.4-0.3c-1.8-1.1-3-3.1-3-5.3c0-1.7,0.7-3.3,1.8-4.4c1.1-1.1,2.7-1.8,4.4-1.8c2.2,0,4.2,1.2,5.3,3l0.2,0.4l0.4-0.2
		c2-1,4.2-1.5,6.5-1.5c5.9,0,11.1,3.4,14.6,8.8l0.3,0.5L124,49c2.6-2.4,5.8-3.9,9.4-3.9c3,0,5.8,1.1,8.2,2.9l0.5,0.4l0.3-0.5
		C146.2,40.2,153,35,160.9,35V34.5z"/>
	<path d="M160.9,31.9c7.5,0,13.6-6.1,13.6-13.6s-6.1-13.6-13.6-13.6s-13.6,6.1-13.6,13.6S153.4,31.9,160.9,31.9z"/>
	<path d="M160.9,31.9v0.5c7.8,0,14.1-6.3,14.1-14.1c0-7.8-6.3-14.1-14.1-14.1c-7.8,0-14.1,6.3-14.1,14.1c0,7.8,6.3,14.1,14.1,14.1
		V31.9v-0.5c-3.6,0-6.9-1.5-9.3-3.8c-2.4-2.4-3.8-5.6-3.8-9.3c0-3.7,1.5-6.9,3.8-9.3c2.4-2.4,5.6-3.8,9.3-3.8c3.7,0,6.9,1.5,9.3,3.8
		c2.4,2.4,3.8,5.6,3.8,9.3c0,3.7-1.5,6.9-3.8,9.3c-2.4,2.4-5.6,3.8-9.3,3.8V31.9z"/>
	<path d="M108.7,37.5c6.4,0,11.6-5.2,11.6-11.6s-5.2-11.6-11.6-11.6c-6.4,0-11.6,5.2-11.6,11.6S102.3,37.5,108.7,37.5z"/>
	<path d="M108.7,37.5V38c6.7,0,12.1-5.4,12.1-12.1c0-6.7-5.4-12.1-12.1-12.1c-6.7,0-12.1,5.4-12.1,12.1c0,6.7,5.4,12.1,12.1,12.1
		V37.5V37c-3.1,0-5.8-1.2-7.8-3.3c-2-2-3.3-4.8-3.3-7.8s1.2-5.8,3.3-7.8c2-2,4.8-3.3,7.8-3.3c3.1,0,5.8,1.2,7.8,3.3
		c2,2,3.3,4.8,3.3,7.8s-1.2,5.8-3.3,7.8c-2,2-4.8,3.3-7.8,3.3V37.5z"/>
	<circle cx="133.4" cy="33" r="9.8"/>
	<path d="M133.4,23.2v0.5c2.6,0,4.9,1,6.6,2.7c1.7,1.7,2.7,4,2.7,6.6s-1,4.9-2.7,6.6c-1.7,1.7-4,2.7-6.6,2.7c-2.6,0-4.9-1-6.6-2.7
		c-1.7-1.7-2.7-4-2.7-6.6s1-4.9,2.7-6.6c1.7-1.7,4-2.7,6.6-2.7V23.2v-0.5c-5.7,0-10.3,4.6-10.3,10.3s4.6,10.3,10.3,10.3
		c5.7,0,10.3-4.6,10.3-10.3s-4.6-10.3-10.3-10.3V23.2z"/>
	<circle cx="79.2" cy="39.7" r="8"/>
	<path d="M79.2,31.7v0.5c2.1,0,3.9,0.8,5.3,2.2c1.4,1.4,2.2,3.2,2.2,5.3c0,2.1-0.8,3.9-2.2,5.3c-1.4,1.4-3.2,2.2-5.3,2.2
		c-2.1,0-3.9-0.8-5.3-2.2c-1.4-1.4-2.2-3.2-2.2-5.3c0-2.1,0.8-3.9,2.2-5.3c1.4-1.4,3.2-2.2,5.3-2.2V31.7v-0.5
		c-4.7,0-8.5,3.8-8.5,8.5c0,4.7,3.8,8.5,8.5,8.5c4.7,0,8.5-3.8,8.5-8.5c0-4.7-3.8-8.5-8.5-8.5V31.7z"/>
	<path d="M182.1,79.3c-1.5-1.2-3.5-2.6-5.9-3.7c-2.4-1.1-5.3-2-8.5-2.1V75l0.1-1.5c-0.3,0-0.7,0-1,0c-3.1,0-5.7,0.7-8.1,1.8
		c-3.5,1.6-6.3,4-9.2,5.9c-1.4,0.9-2.9,1.7-4.5,2.3c-1.6,0.6-3.2,1-5.2,1h-0.3c-2.7,0-4.9-0.7-6.8-1.7c-2.9-1.6-5.4-4.1-8.4-6.4
		c-1.5-1.1-3.1-2.2-5-2.9c-1.9-0.8-4.1-1.2-6.5-1.2h-0.2c-3.1,0-5.8,0.8-8.1,1.9c-3.5,1.7-6.2,4.1-9.2,6c-1.5,0.9-3,1.8-4.6,2.4
		c-1.7,0.6-3.5,1-5.6,1h-0.3c-3.3,0-6.4-0.9-9.1-2.1c-2.7-1.3-5.1-2.9-7-4.4L67,79.3c2,1.6,4.6,3.4,7.7,4.8c3,1.4,6.5,2.4,10.4,2.4
		c0.1,0,0.2,0,0.3,0c3.3-0.1,6.1-0.8,8.5-2c3.6-1.7,6.4-4.1,9.3-6c1.4-0.9,2.9-1.8,4.5-2.4c1.6-0.6,3.3-0.9,5.3-1h0.1
		c2.8,0,4.9,0.7,6.9,1.7c3,1.6,5.4,4.1,8.4,6.4c1.5,1.1,3.1,2.2,5,2.9c1.9,0.8,4,1.2,6.5,1.2c0.1,0,0.2,0,0.3,0c3,0,5.6-0.8,7.9-2
		c3.4-1.7,6.2-4,9.1-5.9c1.4-0.9,2.9-1.7,4.5-2.3c1.6-0.6,3.3-0.9,5.2-0.9c0.3,0,0.6,0,0.8,0c2.8,0.1,5.2,0.8,7.3,1.8
		c2.1,1,3.9,2.2,5.3,3.4L182.1,79.3z"/>
	<path d="M182.1,79.3l0.3-0.4c-1.5-1.2-3.6-2.6-6-3.8c-2.4-1.1-5.4-2-8.7-2.1h-0.5v2h1l0.1-2h-0.5c-0.3,0-0.7,0-1,0
		c-3.2,0-5.9,0.7-8.3,1.8c-3.6,1.6-6.4,4.1-9.3,5.9c-1.4,0.9-2.8,1.7-4.4,2.3c-1.6,0.6-3.1,1-5,1h-0.3c-2.6,0-4.7-0.7-6.6-1.6
		l-0.2,0.4l0.2-0.4c-2.8-1.5-5.3-4-8.3-6.4c-1.5-1.1-3.1-2.2-5.1-3l-0.2,0.5l0.2-0.5c-2-0.8-4.2-1.2-6.7-1.2h-0.2
		c-3.2,0-6,0.8-8.3,1.9c-3.6,1.7-6.3,4.2-9.2,6l0.3,0.4L95,79.8c-1.5,0.9-3,1.8-4.5,2.4l0.2,0.5l-0.2-0.5c-1.7,0.6-3.4,1-5.4,1h-0.3
		c-3.2,0-6.2-0.9-8.9-2.1l-0.2,0.5l0.2-0.5c-2.7-1.3-5-2.9-6.9-4.3l-0.4-0.3l-2.3,3l0.4,0.3c2,1.6,4.7,3.4,7.8,4.9l0.2-0.5l-0.2,0.5
		c3,1.3,6.6,2.3,10.6,2.3c0.1,0,0.2,0,0.3,0c3.4-0.1,6.2-0.8,8.7-2.1l-0.2-0.4l0.2,0.5c3.7-1.7,6.5-4.2,9.4-6
		c1.4-0.9,2.9-1.8,4.4-2.4s3.2-0.9,5.1-1v-0.5v0.5h0.1c2.7,0,4.7,0.7,6.7,1.6l0.2-0.4l-0.2,0.4c2.9,1.5,5.3,4,8.3,6.4
		c1.5,1.1,3.1,2.2,5.1,3l0.2-0.5l-0.2,0.5c2,0.8,4.1,1.2,6.7,1.2c0.1,0,0.2,0,0.3,0c3.1,0,5.8-0.8,8.1-2.1l-0.2-0.4l0.2,0.4
		c3.5-1.7,6.3-4.1,9.2-5.9c1.4-0.9,2.8-1.7,4.4-2.3c1.5-0.6,3.2-0.9,5-0.9c0.3,0,0.6,0,0.8,0v-0.5v0.5c2.7,0.1,5.1,0.8,7.1,1.8
		c2.1,1,3.8,2.2,5.2,3.3l0.4,0.3l2.5-2.9l-0.4-0.3L182.1,79.3l-0.4-0.3l-1.8,2.1l0.4,0.3l0.3-0.4c-1.4-1.2-3.3-2.5-5.4-3.5
		c-2.2-1-4.6-1.7-7.5-1.8c-0.2,0-0.5,0-0.8,0c-2,0-3.7,0.3-5.4,0.9c-1.6,0.6-3.2,1.4-4.6,2.3c-2.9,1.9-5.7,4.2-9,5.9
		c-2.2,1.2-4.8,1.9-7.7,1.9c-0.1,0-0.2,0-0.3,0c-2.4,0-4.5-0.4-6.3-1.2c-1.8-0.7-3.4-1.7-4.9-2.8l-0.3,0.4l0.3-0.4
		c-3-2.3-5.4-4.8-8.5-6.4c-2-1-4.2-1.8-7.1-1.8H113c-2,0.1-3.8,0.4-5.5,1c-1.7,0.6-3.2,1.5-4.6,2.4c-2.9,1.9-5.7,4.3-9.2,6
		c-2.3,1.2-5.1,1.8-8.3,1.9v0.5V86c-0.1,0-0.2,0-0.3,0c-3.8,0-7.2-1-10.2-2.4s-5.6-3.2-7.6-4.7L67,79.3l0.4,0.3l1.7-2.2l-0.4-0.3
		l-0.3,0.4c1.9,1.5,4.4,3.1,7.1,4.5c2.7,1.2,5.9,2.1,9.3,2.1h0.3c2.2,0,4-0.4,5.8-1c1.7-0.6,3.2-1.5,4.7-2.4c3-1.9,5.7-4.3,9.2-6
		c2.2-1.1,4.9-1.9,7.9-1.9h0.2c2.3,0,4.5,0.4,6.3,1.2c1.8,0.7,3.4,1.7,4.9,2.8l0.3-0.4l-0.3,0.4c3,2.3,5.5,4.8,8.5,6.4
		c2,1,4.2,1.8,7,1.8h0.3c2.1,0,3.7-0.4,5.4-1c1.6-0.6,3.2-1.4,4.6-2.3c2.9-1.9,5.7-4.3,9.1-5.9c2.3-1.1,4.9-1.8,7.9-1.8
		c0.3,0,0.7,0,1,0v-0.5h-0.5l-0.1,1.5h0.5h0.5v-1.5h-0.5V74c3.1,0.1,6,1,8.3,2.1s4.3,2.5,5.8,3.6L182.1,79.3l-0.4-0.3L182.1,79.3z"
		/>
	<path d="M182.1,79.3l0.3-0.4c-1.5-1.2-3.5-2.6-6-3.8s-5.4-2-8.7-2.2h-0.5l-0.1,2h1l0.1-2h-0.5c-0.3,0-0.7,0-1,0
		c-3.2,0-5.9,0.8-8.3,1.9c-3.6,1.7-6.4,4.1-9.2,5.9c-1.4,0.9-2.8,1.7-4.4,2.3c-1.5,0.6-3.1,0.9-5,1v1v-1h-0.3
		c-2.7,0-4.7-0.7-6.6-1.7c-2.8-1.5-5.3-4-8.3-6.3c-1.5-1.1-3.2-2.2-5.1-3c-2-0.8-4.2-1.3-6.7-1.3h-0.2c-3.2,0-6,0.8-8.3,2
		c-3.5,1.7-6.3,4.1-9.2,6c-1.4,0.9-2.9,1.7-4.5,2.3c-1.6,0.6-3.4,1-5.5,1v1v-1H85c-3.2,0-6.2-0.8-8.9-2.1c-2.7-1.2-5-2.9-6.9-4.4
		l-0.4-0.3l-2.5,3.1l0.4,0.3c2.1,1.6,4.7,3.5,7.8,4.9C77.5,86,81.1,87,85,87c0.1,0,0.2,0,0.3,0c3.4-0.1,6.2-0.9,8.7-2
		c3.7-1.7,6.5-4.2,9.3-6c1.4-0.9,2.8-1.7,4.4-2.3c1.5-0.6,3.2-0.9,5.1-0.9h0.1c2.7,0,4.8,0.7,6.7,1.7c2.9,1.5,5.3,4,8.3,6.3
		c1.5,1.1,3.2,2.2,5.1,3c1.9,0.8,4.1,1.3,6.6,1.3c0.1,0,0.2,0,0.3,0v-0.5V88v-1v0.5V88c3.1-0.1,5.8-0.9,8.1-2
		c3.5-1.7,6.3-4.1,9.1-5.9c1.4-0.9,2.9-1.7,4.4-2.2s3.2-0.9,5.1-0.9c0.3,0,0.5,0,0.8,0v-0.5V77v-0.5V77c2.7,0.1,5.1,0.8,7.1,1.8
		c2.1,1,3.8,2.2,5.2,3.3l0.4,0.3l2.5-3.1l-0.4-0.3L182.1,79.3l-0.4-0.3l-1.9,2.4l0.4,0.3l0.3-0.4c-1.4-1.1-3.2-2.4-5.4-3.4
		s-4.7-1.8-7.5-1.9v0.5V76c-0.3,0-0.6,0-0.9,0c-2,0-3.8,0.4-5.4,0.9c-1.6,0.6-3.1,1.4-4.6,2.3c-2.9,1.9-5.7,4.2-9,5.8
		c-2.2,1.1-4.8,1.9-7.7,1.9v1v-1c-0.1,0-0.2,0-0.3,0c-2.4,0-4.4-0.5-6.2-1.2c-1.8-0.7-3.4-1.8-4.9-2.9c-2.9-2.2-5.4-4.8-8.5-6.4
		c-2-1.1-4.3-1.8-7.2-1.8h-0.1c-2.1,0-3.8,0.4-5.4,1c-1.6,0.6-3.1,1.4-4.6,2.4c-2.9,1.9-5.7,4.3-9.2,6c-2.3,1.1-5,1.9-8.3,1.9v0.5
		V86c-0.1,0-0.2,0-0.3,0c-3.8,0-7.2-1-10.2-2.4s-5.5-3.2-7.6-4.8L67,79.3l0.4,0.3l1.9-2.3L68.9,77l-0.3,0.4c1.9,1.5,4.4,3.2,7.1,4.5
		c2.8,1.3,5.9,2.2,9.3,2.2h0.3v-1v0.5v0.5c2.2,0,4.1-0.4,5.8-1s3.2-1.5,4.7-2.4c3-1.9,5.7-4.3,9.1-5.9c2.3-1.1,4.8-1.9,7.9-1.9h0.2
		c2.4,0,4.5,0.5,6.3,1.2s3.4,1.8,4.9,2.9c3,2.2,5.4,4.8,8.5,6.4c2,1.1,4.2,1.8,7.1,1.8h0.3v-1v0.5v0.5c2,0,3.7-0.4,5.3-1
		c1.6-0.6,3.1-1.4,4.5-2.4c2.9-1.9,5.7-4.2,9.1-5.8c2.3-1.1,4.8-1.8,7.8-1.8c0.3,0,0.6,0,1,0v-0.5h-0.5l-0.1,1.5h0.5h0.5v-1.5h-0.5
		v0.5c3.2,0.1,5.9,0.9,8.3,2.1c2.4,1.1,4.3,2.5,5.8,3.7L182.1,79.3l-0.4-0.3L182.1,79.3z"/>
	<path d="M182.1,79.3l0.4,0.3l0.3-0.4l0.3-0.4l-0.4-0.3c-1.5-1.2-3.6-2.6-6.1-3.9c-2.6-1.2-5.5-2-8.9-2.2h-0.5h-0.5l-0.2,3h2l0.2-3
		h-1c-0.3,0-0.7,0-1,0c-3.3,0-6.1,0.8-8.5,1.9c-3.7,1.7-6.5,4.2-9.3,5.9c-1.4,0.9-2.8,1.7-4.3,2.3c-1.4,0.6-3,0.9-4.8,1h-0.5V85h1
		v-1v-0.5h-0.8c-2.6,0-4.5-0.7-6.4-1.6c-2.7-1.4-5.2-3.9-8.2-6.3c-1.5-1.1-3.2-2.2-5.2-3.1c-2-0.8-4.3-1.3-6.9-1.3h-0.2
		c-3.3,0-6.2,0.8-8.5,2.1l0.2,0.4l-0.2-0.5c-3.6,1.7-6.4,4.2-9.3,6c-1.4,0.9-2.8,1.7-4.4,2.3c-1.6,0.6-3.3,1-5.3,1h-0.5V84h1v-1
		v-0.5H85c-3.1,0-6-0.8-8.7-2c-2.6-1.2-4.9-2.8-6.8-4.3l-0.4-0.3l-0.4-0.3l-3.1,3.9l0.8,0.6c2.1,1.6,4.7,3.5,7.9,5l0.2-0.5L74.3,85
		c3.1,1.5,6.7,2.6,10.7,2.6c0.1,0,0.2,0,0.3,0c3.5-0.1,6.3-0.9,8.9-2c3.8-1.7,6.6-4.3,9.4-6c1.4-0.9,2.8-1.7,4.3-2.3
		c1.4-0.6,3.1-0.9,4.9-0.9h0.1c2.6,0,4.6,0.7,6.5,1.6c2.8,1.4,5.2,3.9,8.2,6.3c1.5,1.1,3.2,2.2,5.2,3.1c2,0.8,4.2,1.3,6.8,1.3
		c0.1,0,0.2,0,0.3,0h0.5v-1h-1V88h1v-1h-1v0.5V88v0.5h0.5c3.2-0.1,5.9-0.9,8.3-2c3.6-1.7,6.4-4.2,9.2-5.9c1.4-0.9,2.8-1.7,4.3-2.1
		c1.5-0.5,3.1-0.9,4.9-0.9c0.3,0,0.5,0,0.8,0h0.5v-1h-1V77h1v-0.5h-1V77v0.5h0.5c2.6,0.1,5,0.8,6.9,1.7c2.1,1,3.7,2.2,5.1,3.2
		l0.4,0.3l0.4,0.3l3.1-3.9l-1.4-1l-0.3,1L182.1,79.3l0.3-0.4l-0.4-0.3l-0.4-0.3l-2.5,3.2l1.2,0.9l0.9-1.2l-0.4-0.3
		c-1.4-1.1-3.2-2.4-5.5-3.5c-2.2-1-4.8-1.8-7.7-1.9h-0.5v1h1V76v-0.5h-0.5c-0.3,0-0.6,0-0.9,0c-2.1,0-3.9,0.4-5.5,0.9
		c-1.6,0.6-3.2,1.4-4.7,2.3c-2.9,1.9-5.7,4.2-8.9,5.8c-2.1,1.1-4.7,1.8-7.5,1.8h-0.5v1.5h1v-1v-0.5H140c-0.1,0-0.2,0-0.3,0
		c-2.3,0-4.3-0.5-6-1.2c-1.7-0.7-3.3-1.7-4.8-2.8l-0.3,0.4l0.3-0.4c-2.9-2.2-5.4-4.8-8.6-6.4l-0.2,0.4l0.2-0.4
		c-2.1-1.1-4.5-1.9-7.4-1.9h-0.1c-2.2,0-3.9,0.4-5.6,1c-1.6,0.6-3.2,1.4-4.7,2.5c-2.9,1.9-5.7,4.3-9.1,6c-2.2,1.1-4.9,1.9-8.1,1.9
		h-0.5v1h1V86v-0.5h-0.5c-0.1,0-0.2,0-0.3,0c-3.7,0-7-1-10-2.4c-2.9-1.4-5.4-3.2-7.5-4.7L67,78l-0.6,1.5l0.7,0.5l0.4,0.3l2.5-3.1
		l-1.2-0.9l-0.9,1.2l0.4,0.3c1.9,1.5,4.4,3.2,7.2,4.6c2.8,1.3,6,2.2,9.5,2.2h0.3h0.5v-1.5h-1v0.5v0.5v0.5h0.5c2.3,0,4.2-0.4,6-1
		s3.3-1.5,4.8-2.4c3-1.9,5.7-4.3,9-5.9c2.3-1.1,4.7-1.9,7.7-1.9h0.2c2.3,0,4.4,0.5,6.1,1.2s3.3,1.7,4.8,2.8c3,2.2,5.4,4.8,8.6,6.4
		l0.2-0.4l-0.2,0.4c2.1,1.1,4.4,1.9,7.3,1.9h0.3h0.5v-1.5h-1v0.5v0.5v0.5h0.5c2.1,0,3.8-0.4,5.5-1c1.6-0.6,3.2-1.4,4.6-2.5l-0.3-0.4
		l0.3,0.4c2.9-1.9,5.7-4.2,9-5.8c2.2-1.1,4.7-1.7,7.6-1.8c0.3,0,0.6,0,1,0h0.5v-1v-0.5h-1h-0.5l-0.2,2.5h1h0.5h0.5v-2.5h-1h-0.5v1
		v0.5h0.5c3.1,0.1,5.7,0.9,8.1,2c2.3,1.1,4.2,2.4,5.7,3.6l0.5,0.4l0.7-1.7l-0.7-0.5l-0.6,0.8l0.4,0.3l0.4,0.3l0.3-0.4L182.1,79.3
		l0.3-0.4l-0.4-0.3l-0.6,0.8l0.1,0.1l-0.1,0.3l0.5,0.2l0.3-0.4c-1.5-1.2-3.4-2.6-5.9-3.8l-0.2,0.5l0.2-0.4c-2.5-1.2-5.2-2.1-8.5-2.2
		v0.5h0.5v-0.5h-0.5v1h-0.5v0.5h0.5l0.1-1v-0.5h-0.5v0.5h0.5v-0.5c-0.4,0-0.7,0-1,0c-3.1,0-5.7,0.7-8,1.8c-3.5,1.6-6.3,4-9.2,5.8
		c-1.4,1-2.8,1.8-4.4,2.3c-1.6,0.6-3.2,1-5.1,1v0.5h0.5v-0.5v-0.5h-1v1h0.5v-0.5h-0.3c-2.8,0-4.9-0.7-6.9-1.7
		c-3-1.5-5.4-4.1-8.4-6.4c-1.5-1.1-3.1-2.2-5-3c-1.8-0.7-4-1.2-6.5-1.2h-0.2c-3.2,0-5.8,0.8-8.1,1.9c-3.5,1.6-6.2,4.1-9.2,5.9
		l0.3,0.4l-0.3-0.4c-1.5,0.9-3,1.8-4.6,2.4c-1.7,0.6-3.5,1-5.6,1V84h0.5v-0.5V83h-1v1h0.5v-0.5H85c-3.3,0-6.3-0.9-9.1-2.2l-0.2,0.5
		l0.2-0.5c-2.7-1.3-5.1-3-7-4.4l-0.3,0.4l0.4,0.3l0.3-0.4L68.9,77l-0.3,0.4l0.4,0.3l0.3-0.4L68.9,77l-1.6,1.9L67,79.3l0.5,0.2
		l0.2-0.5l-0.5-0.2l-0.3,0.4c2.1,1.6,4.6,3.4,7.7,4.9c3,1.4,6.5,2.4,10.4,2.4c0.1,0,0.2,0,0.3,0V86h-0.5v0.4h1v-0.5h-0.5v0.5
		c3.4,0,6.2-0.8,8.5-1.9c3.6-1.7,6.4-4.2,9.3-6c1.5-1,2.9-1.8,4.5-2.3c1.6-0.6,3.2-1,5.2-1h0.1c2.8,0,5,0.7,7,1.7
		c3,1.5,5.5,4.1,8.4,6.4c1.5,1.1,3.1,2.2,5,3c1.8,0.7,3.9,1.2,6.4,1.2c0.1,0,0.2,0,0.3,0V87h-0.5v1h1v-1H140v0.5c3,0,5.7-0.8,7.9-2
		l-0.2-0.4l0.2,0.5c3.4-1.6,6.2-4,9.1-5.8l-0.3-0.4l0.3,0.4c1.5-0.9,3-1.7,4.5-2.3l-0.2-0.5l0.1,0.5c1.6-0.5,3.3-0.9,5.3-0.9
		c0.3,0,0.6,0,0.9,0V76h-0.5v0.5h1V76h-0.5v0.5c2.7,0.1,5.1,0.9,7.3,1.9c2.1,1,3.9,2.2,5.3,3.3l0.3-0.4l-0.4-0.3l-0.3,0.4l0.4,0.3
		l0.3-0.4l-0.4-0.3l-0.3,0.4l0.4,0.3l1.6-2l0.6,0.4l0.3-1l-0.5-0.2l-0.3,0.4l0.4,0.3l0.3-0.4l-0.4-0.3l-2.2,2.7l-0.3,0.4l0.3-0.4
		c-1.4-1.1-3.1-2.3-5.3-3.4l-0.2,0.5l0.2-0.4c-2.1-1-4.5-1.8-7.3-1.9v0.5h0.5v-0.5h-1V77h1v-0.5h-1V77h0.5v-0.5c-0.3,0-0.5,0-0.8,0
		c-2,0-3.7,0.4-5.3,0.9s-3.1,1.3-4.5,2.3c-2.8,1.8-5.6,4.2-9,5.9c-2.2,1.1-4.9,1.9-7.9,2v0.5h0.5v-0.5V87h-1v1h1v-0.4h-1v0.5h0.5
		v-0.5c-0.1,0-0.2,0-0.3,0c-2.4,0-4.6-0.5-6.4-1.3c-1.8-0.8-3.5-1.9-5-2.9l-0.3,0.4l0.3-0.4c-3-2.3-5.4-4.8-8.4-6.3
		c-1.9-1-4.1-1.8-6.9-1.8h-0.1c-2,0-3.7,0.3-5.3,0.9l0.2,0.5l-0.2-0.5c-1.6,0.6-3.1,1.4-4.5,2.3c-2.8,1.8-5.6,4.3-9.2,6L94,85
		l-0.2-0.5c-2.5,1.1-5.2,1.9-8.5,2V87v-0.5c-0.1,0-0.2,0-0.3,0c-3.8,0-7.3-1-10.3-2.4s-5.6-3.2-7.7-4.8L66.6,79l-0.3,0.4l0.4,0.3
		l2.2-2.7l0.3-0.4L68.9,77c1.9,1.5,4.2,3.2,7,4.5l0.2-0.5l-0.2,0.5c2.8,1.3,5.8,2.1,9.1,2.1h0.1V83h-0.5v1h1v-1h-0.5v0.5
		c2.2,0,4-0.4,5.7-1c1.6-0.6,3.2-1.4,4.6-2.3c2.9-1.9,5.7-4.3,9.1-6c2.2-1.2,5-1.9,8.1-1.9h0.2c2.4,0,4.6,0.5,6.5,1.3l0.2-0.5
		l-0.2,0.5c1.8,0.8,3.5,1.9,5,2.9l0.3-0.4l-0.3,0.4c3,2.3,5.5,4.8,8.4,6.3c1.9,1,4,1.8,6.8,1.8h0.3V84h-0.5v1h1v-1h-0.5v0.5
		c1.9-0.1,3.6-0.4,5.2-1l-0.2-0.5l0.2,0.5c1.6-0.6,3.1-1.4,4.5-2.3c2.8-1.8,5.6-4.2,9.1-5.9l-0.2-0.5l0.2,0.5c2.4-1.1,5-1.9,8.1-1.9
		c0.3,0,0.7,0,1,0h0.5v-0.5h-0.5l-0.1,1.5h-0.5v0.5h0.5l0.1-1.5v-0.5v0.5c3.2,0.2,6.1,1,8.5,2.2C178.6,76.7,180.6,78.1,182.1,79.3
		l0.3-0.4l-0.4-0.3l-0.3,0.4L182.1,79.3l0.3-0.4L182.1,79.3z"/>
</g>
</svg>
