<?xml version="1.0" encoding="utf-8"?>
<!-- Generator: Adobe Illustrator 16.0.0, SVG Export Plug-In . SVG Version: 6.00 Build 0)  -->
<!DOCTYPE svg PUBLIC "-//W3C//DTD SVG 1.1//EN" "http://www.w3.org/Graphics/SVG/1.1/DTD/svg11.dtd">
<svg version="1.1" id="Layer_1" xmlns="http://www.w3.org/2000/svg" xmlns:xlink="http://www.w3.org/1999/xlink" x="0px" y="0px"
	 width="111.3px" height="111px" viewBox="113.9 -63 111.3 111" style="enable-background:new 113.9 -63 111.3 111;"
	 xml:space="preserve">
<g>
	<circle cx="149.9" cy="-54.6" r="7.9"/>
	<path d="M149.9-62.5v0.5c2,0,3.9,0.8,5.2,2.2c1.3,1.3,2.2,3.2,2.2,5.2s-0.8,3.9-2.2,5.2c-1.3,1.3-3.2,2.2-5.2,2.2s-3.9-0.8-5.2-2.2
		c-1.3-1.3-2.2-3.2-2.2-5.2s0.8-3.9,2.2-5.2c1.3-1.3,3.2-2.2,5.2-2.2V-62.5V-63c-4.6,0-8.4,3.8-8.4,8.4s3.8,8.4,8.4,8.4
		s8.4-3.8,8.4-8.4s-3.8-8.4-8.4-8.4V-62.5z"/>
	<path d="M224.2,17.8c-2.4,2.4-4.8,4.8-7.7,7c-3.4,2.6-7.9,5-12.5,6.5c18.7-45.8-4.1-88.5-4.1-88.5c-27.3,33.1-25.2,65.9-19.2,87.3
		l0.2,1.2c-1.2-0.5-2.6-1-3.8-1.2c-3.6-1-7.4-1.4-11.3-1.9c-0.7,0-1.4-0.2-1.9-0.2c2.4-0.5,4.1-2.9,3.6-5.5l-6.2-31.7v-22.1
		c5.8-2.2,18.9-8.6,24.2-22.8c1-2.4-0.2-5-2.6-6s-5,0.2-6,2.6c-4.6,12.2-17.5,17-20.1,17.7h-11c-0.5,0-1,0-1.4,0.2
		c-19.9,7-19.2,31.9-19.2,32.9c0,2.6,2.2,4.6,4.6,4.6c0,0,0,0,0.2,0c2.6,0,4.6-2.2,4.6-4.8c0-0.2-0.2-13.9,7.9-20.9l1,10.3L135,8.9
		c-0.2,1-0.2,1.9,0,2.9l4.8,15.8c0.5,1.4,1.4,2.4,2.6,2.9c-5.3,1.2-11.8,1.7-16.3-0.7c-2.9-1.4-4.3-4.3-7.7-5.3
		c-1.2-0.2-2.6-0.5-4.1-0.5v23.7h110.3V17.1C224.4,17.3,224.2,17.6,224.2,17.8z M147.5,29.3c1-1.2,1.4-2.9,1-4.6l-4.3-14.4l6-18.9
		h1.9l6.5,33.1c0.2,1.9,1.7,3.1,3.4,3.6C157.3,27.9,152,28.4,147.5,29.3z"/>
	<path d="M224.2,17.8l-0.4-0.4c-2.4,2.4-4.8,4.8-7.6,7c-3.3,2.6-7.8,4.9-12.4,6.4l0.2,0.5l0.5,0.2c5.5-13.4,7.4-26.5,7.4-38.4
		c0-29-11.5-50.5-11.5-50.5l-0.4-0.7l-0.5,0.6c-17.7,21.4-23.1,42.7-23.1,61c0,10.1,1.6,19.2,3.8,26.8l0.5-0.1l-0.5,0.1l0.2,1.2
		l0.5-0.1l0.2-0.5c-1.2-0.5-2.6-1-3.9-1.2l-0.1,0.5l0.1-0.5c-3.7-1-7.5-1.4-11.4-1.9c-0.3,0-0.6,0-0.9-0.1c-0.3,0-0.6-0.1-1-0.1V28
		l0.1,0.5c2.4-0.5,4.1-2.6,4.1-5.1c0-0.3,0-0.7-0.1-1l-6.2-31.7v-22.1h-0.5l0.2,0.5c2.9-1.1,7.7-3.3,12.4-7
		c4.7-3.7,9.4-8.9,12.1-16.1l-0.5-0.2L186-54c0.3-0.6,0.4-1.3,0.4-1.9c0-2-1.3-3.9-3.3-4.7c-0.6-0.3-1.3-0.4-1.9-0.4
		c-2,0-3.9,1.3-4.7,3.3c-2.3,6-6.5,10.2-10.6,12.9c-4.1,2.8-7.9,4.1-9.1,4.5l0.1,0.5v-0.5h-11c-0.5,0-1.1,0-1.6,0.3l0.2,0.4
		l-0.2-0.5c-9.5,3.3-14.4,10.7-16.9,17.6s-2.7,13.4-2.7,15.3c0,0.3,0,0.4,0,0.5c0,2.9,2.4,5.1,5.1,5.1c0,0,0,0,0.2,0
		c1.4,0,2.7-0.6,3.6-1.6s1.5-2.3,1.5-3.7V-7c0-0.7,0-4.1,1-8.3c1-4.1,2.9-8.9,6.7-12.1l-0.3-0.4H142l1,10.2l-8.5,26.3
		c-0.1,0.5-0.2,1-0.2,1.5s0.1,1,0.2,1.5l4.8,15.8c0.5,1.5,1.5,2.6,2.9,3.2l0.2-0.5l-0.1-0.5c-2.5,0.6-5.4,1-8.1,1
		c-2.9,0-5.6-0.5-7.9-1.6c-1.4-0.7-2.4-1.7-3.5-2.7s-2.4-2.1-4.2-2.6c-1.2-0.2-2.6-0.5-4.2-0.5h-0.5V48h111.3V15.9l-0.9,0.9
		c-0.1,0.1-0.2,0.3-0.4,0.4c-0.1,0.2-0.2,0.3-0.2,0.6H224.2l-0.4-0.4L224.2,17.8h0.5h-0.1h0.1h-0.1h0.1l0.1-0.1l0.2-0.2l-0.4-0.4
		h-0.5v30.1H114.8V24h-0.5v0.5c1.4,0,2.8,0.3,4,0.5l0.1-0.5l-0.1,0.5c1.6,0.5,2.7,1.4,3.8,2.4s2.2,2.1,3.8,2.9l0.2-0.5l-0.2,0.4
		c2.4,1.3,5.3,1.8,8.3,1.8c2.8,0,5.7-0.4,8.3-1l1.5-0.3l-1.4-0.6c-1.1-0.4-1.9-1.3-2.3-2.6l-0.5,0.2l0.5-0.1l-4.8-15.8l-0.5,0.1
		l0.5-0.1c-0.1-0.5-0.1-0.9-0.1-1.4c0-0.4,0-0.9,0.1-1.4L135,8.9l0.5,0.2l8.5-26.5l-1.1-11.4l-0.7,0.6c-4,3.4-6,8.4-7,12.6
		c-1,4.3-1.1,7.8-1.1,8.5V-7c0,1.2-0.5,2.2-1.2,3c-0.7,0.8-1.8,1.3-2.9,1.3c-0.2,0-0.2,0-0.2,0c-1.1,0-2.1-0.4-2.9-1.2
		c-0.8-0.7-1.2-1.8-1.2-2.9c0-0.1,0-0.2,0-0.5c0-1.8,0.2-8.2,2.6-15c2.5-6.7,7.2-13.8,16.3-17c0.2-0.1,0.7-0.2,1.2-0.1h11.1h0.1
		c1.4-0.4,5.3-1.8,9.5-4.6c4.2-2.9,8.6-7.2,11-13.4l-0.5-0.2l0.5,0.2c0.7-1.6,2.2-2.6,3.8-2.6c0.5,0,1,0.1,1.5,0.3
		c1.6,0.7,2.6,2.2,2.6,3.8c0,0.5-0.1,1-0.3,1.5c-2.6,7-7.1,12.1-11.8,15.7c-4.6,3.6-9.3,5.7-12.2,6.8l-0.3,0.1v22.5l6.2,31.7
		c0.1,0.3,0.1,0.6,0.1,0.8c0,2-1.4,3.7-3.3,4.1l-4.8,1h4.9c0.2,0,0.5,0,0.8,0.1c0.3,0.1,0.7,0.1,1.1,0.1V28l-0.1,0.5
		c3.9,0.5,7.7,0.9,11.2,1.9c1.1,0.2,2.5,0.7,3.7,1.2l0.8,0.3l-0.4-2.1c-2.1-7.6-3.8-16.6-3.8-26.5c0-18,5.3-39.1,22.9-60.3l-0.4-0.3
		l-0.4,0.2c0,0,0,0.1,0.1,0.2c1.2,2.4,11.3,22.9,11.3,49.8c0,11.8-1.9,24.8-7.3,38l-0.4,1l1-0.3c4.7-1.5,9.2-3.9,12.6-6.6
		c2.9-2.2,5.4-4.6,7.8-7l0.1-0.1v-0.2L224.2,17.8L224.2,17.8z M147.5,29.3l0.4,0.3c0.8-1,1.3-2.3,1.3-3.6c0-0.5-0.1-0.9-0.2-1.4
		l-4.3-14.3l5.8-18.4h1.1l6.4,32.7l0.5-0.1l-0.5,0.1c0.1,1.1,0.6,2,1.3,2.6c0.7,0.7,1.6,1.1,2.5,1.4l0.1-0.5v-0.5
		c-0.7,0-1.4,0-2.1,0c-4.2,0-8.6,0.5-12.5,1.3L147.5,29.3l0.4,0.3L147.5,29.3l0.1,0.5c3.8-0.8,8.2-1.2,12.3-1.2c0.7,0,1.4,0,2.1,0
		l4.1,0.2l-3.9-1.2c-0.8-0.2-1.5-0.6-2.1-1.2c-0.5-0.5-0.9-1.2-1-2l-6.6-33.5h-2.7l-6.2,19.4l4.3,14.5l0.5-0.1l-0.5,0.1
		c0.1,0.4,0.1,0.8,0.1,1.2c0,1.1-0.4,2.2-1,3l-0.9,1.1l1.4-0.3V29.3z"/>
</g>
</svg>
