<?xml version="1.0" encoding="utf-8"?>
<!-- Generator: Adobe Illustrator 16.0.0, SVG Export Plug-In . SVG Version: 6.00 Build 0)  -->
<!DOCTYPE svg PUBLIC "-//W3C//DTD SVG 1.1//EN" "http://www.w3.org/Graphics/SVG/1.1/DTD/svg11.dtd">
<svg version="1.1" id="Magnifying_glass" xmlns="http://www.w3.org/2000/svg" xmlns:xlink="http://www.w3.org/1999/xlink" x="0px"
	 y="0px" width="30px" height="30.1px" viewBox="-69.1 77.4 30 30.1" style="enable-background:new -69.1 77.4 30 30.1;"
	 xml:space="preserve">
<g>
	<path d="M-39.9,102.7l-7.2-7.2c1.1-1.6,1.8-3.8,1.8-6c0-6.4-5.7-12.1-12.1-12.1s-11.7,5.3-11.7,11.7c0,6.4,5.7,12.1,12.1,12.1
		c2,0,4.2-0.6,5.8-1.5l7.2,7.2c0.8,0.8,1.9,0.8,2.4,0l1.8-1.6C-38.7,104.3-39,103.3-39.9,102.7z M-65.3,89.2c0-4.5,3.7-8.2,8.2-8.2
		s8.6,4,8.6,8.6c0,4.5-3.7,8.2-8.2,8.2C-61.3,97.8-65.3,93.6-65.3,89.2z"/>
</g>
</svg>
