<?xml version="1.0" encoding="utf-8"?>
<!-- Generator: Adobe Illustrator 16.0.0, SVG Export Plug-In . SVG Version: 6.00 Build 0)  -->
<!DOCTYPE svg PUBLIC "-//W3C//DTD SVG 1.1//EN" "http://www.w3.org/Graphics/SVG/1.1/DTD/svg11.dtd">
<svg version="1.1" id="Layer_1" xmlns="http://www.w3.org/2000/svg" xmlns:xlink="http://www.w3.org/1999/xlink" x="0px" y="0px"
	 width="154px" height="154px" viewBox="2.8 3.4 154 154" enable-background="new 2.8 3.4 154 154" xml:space="preserve">
<g>
	<path fill="none" stroke="#333333" stroke-width="4" stroke-miterlimit="10" d="M66.3,62.7H16c-1,0-2,0.7-2.3,1.7L5,84.3
		C4.3,86,5.7,88,7.3,88h67.3c2,0,3-2,2.3-3.7l-8.7-20C68.3,63.3,67.3,62.7,66.3,62.7z"/>
	<path fill="none" stroke="#333333" stroke-width="4" stroke-miterlimit="10" d="M19.7,49.7c-2.3,0-4.3-2-4.3-4.3V30.7v-21
		c0-2.3,2-4.3,4.3-4.3H63c2.3,0,4.3,2,4.3,4.3v21v14.7c0,2.3-2,4.3-4.3,4.3H19.7z"/>
	<path fill="none" stroke="#333333" stroke-width="4" stroke-miterlimit="10" d="M144,130H93.7c-1,0-2,0.7-2.3,1.7l-8.7,20
		c-0.7,1.7,0.7,3.7,2.3,3.7h67.3c2,0,3-2,2.3-3.7l-8.7-20C146,130.7,145,130,144,130z"/>
	<path fill="none" stroke="#333333" stroke-width="4" stroke-miterlimit="10" d="M97.3,117c-2.3,0-4.3-2-4.3-4.3V98V77
		c0-2.3,2-4.3,4.3-4.3h43.3c2.3,0,4.3,2,4.3,4.3v21v14.7c0,2.3-2,4.3-4.3,4.3H97.3z"/>
	<polyline fill="none" stroke="#333333" stroke-width="4" stroke-miterlimit="10" points="27.7,100 27.7,139 67,139 	"/>
	<line fill="none" stroke="#333333" stroke-width="4" stroke-miterlimit="10" x1="93" y1="18.3" x2="132.3" y2="57.7"/>
	<line fill="none" stroke="#333333" stroke-width="4" stroke-miterlimit="10" x1="132.3" y1="18.3" x2="93" y2="57.7"/>
</g>
</svg>
