<?xml version="1.0" encoding="utf-8"?>
<!-- Generator: Adobe Illustrator 16.0.0, SVG Export Plug-In . SVG Version: 6.00 Build 0)  -->
<!DOCTYPE svg PUBLIC "-//W3C//DTD SVG 1.1//EN" "http://www.w3.org/Graphics/SVG/1.1/DTD/svg11.dtd">
<svg version="1.1" id="CW" xmlns="http://www.w3.org/2000/svg" xmlns:xlink="http://www.w3.org/1999/xlink" x="0px" y="0px"
	 width="64px" height="56px" viewBox="266.7 362.7 64 56" enable-background="new 266.7 362.7 64 56" xml:space="preserve">
<g>
	<path fill="#35ABBB" d="M330.7,390.7h-8.1V390c-0.4-15.2-12.7-27.3-27.9-27.3c-15.4,0-28,12.6-28,28c0,15.4,12.5,28,28,28
		c6.5,0,12.5-2.2,17.2-5.9l-4.8-5.1c-3.5,2.6-7.8,4.1-12.4,4.1c-11.6,0-21-9.4-21-21s9.4-21,21-21c11.3,0,20.6,9,20.9,20.3v0.7h-9.1
		l11.9,13.3L330.7,390.7z"/>
</g>
</svg>
