<?xml version="1.0" encoding="utf-8"?>
<!-- Generator: Adobe Illustrator 16.0.0, SVG Export Plug-In . SVG Version: 6.00 Build 0)  -->
<!DOCTYPE svg PUBLIC "-//W3C//DTD SVG 1.1//EN" "http://www.w3.org/Graphics/SVG/1.1/DTD/svg11.dtd">
<svg version="1.1" id="Layer_1" xmlns="http://www.w3.org/2000/svg" xmlns:xlink="http://www.w3.org/1999/xlink" x="0px" y="0px"
	 width="118.1px" height="121px" viewBox="61.5 -29.3 118.1 121" style="enable-background:new 61.5 -29.3 118.1 121;"
	 xml:space="preserve">
<style type="text/css">
<![CDATA[
	.st0{fill:#FF00FF;}
	.st1{fill:#333333;}
]]>
</style>
<g>
	<path class="st1" d="M127.1-2.1L127.1-2.1c-3.9,0-10.1,2.4-13.2,3.6l-0.6-2.9c-0.1-0.6-0.6-1.1-1.2-1.2c-0.1,0-0.3-0.1-0.5-0.1
		c-0.4,0-0.9,0.2-1.2,0.5L103.5,5l4.6-21.1c0.2-0.7-0.2-1.4-0.8-1.8c-0.3-0.2-0.5-0.2-0.8-0.2c-0.4,0-0.8,0.1-1.1,0.4l-3.5,3.2
		L96.7-28c-0.2-0.6-0.9-1.3-1.5-1.3c-0.7,0-1.3,0.6-1.5,1.3l-5.3,13.3l-3.6-3.1c-0.3-0.3-0.7-0.4-1.1-0.4c-0.3,0-0.6,0.1-0.8,0.2
		c-0.6,0.4-0.9,1.1-0.8,1.8L86.7,5l-6.9-7.2c-0.3-0.3-0.8-0.5-1.2-0.5c-0.2,0-0.3,0-0.5,0.1c-0.6,0.2-1,0.6-1.2,1.2l-0.6,2.9
		C73.2,0.2,67-2.1,63.1-2.1c-0.7,0-1.3,0.4-1.5,1c-0.3,0.6-0.1,1.4,0.4,1.8c1.8,1.6,6.1,6.1,8.1,9.7c-1.5,0.5-3.3,1.2-4.1,1.7
		c-0.5,0.3-0.8,1-0.8,1.6c0.1,0.6,0.5,1.2,1.1,1.4c2,0.7,10.9,3.8,15.2,4.7c-1.4,2-4.7,5.8-7.6,8.9c-0.4,0.4-0.6,1-0.4,1.6
		c0.2,0.6,0.6,1,1.2,1.1c0.1,0,0.9,0.2,2.3,0.2c2.1,0,5.5-0.4,9.7-2.6l7.2-3.6V35c0,2.7-0.5,7.4,5.6,10.2c0.2,0.1,0.4,0.1,0.6,0.1
		c0.6,0,1.2-0.3,1.4-0.9c0.4-0.8,0-1.7-0.8-2.1c-4.2-2-4.7-4.7-4.7-7.3v-9.8l7.3,3.8c3.7,2.4,6.9,2.9,8.9,2.9s3.3-0.5,3.4-0.5
		c0.5-0.2,0.9-0.7,1-1.2c0.1-0.5,0-1.1-0.4-1.5c-2.9-3.1-6.2-6.9-7.6-8.9c4.4-1,13.2-4,15.2-4.7c0.6-0.2,1-0.7,1.1-1.4
		c0.1-0.6-0.2-1.2-0.8-1.6c-0.8-0.5-2.6-1.2-4.1-1.7c1.9-3.5,6.3-8,8-9.7c0.3-0.3,0.6-0.8,0.6-1.3C128.8-1.4,128-2.1,127.1-2.1z"/>
	<path class="st0" d="M127.1-2.1v-0.5c-2,0-4.6,0.6-7,1.4c-2.4,0.8-4.8,1.7-6.3,2.3l0.2,0.5l0.5-0.1l-0.6-2.9l-0.5,0.1l0.5-0.1
		c-0.1-0.8-0.8-1.5-1.6-1.6l0,0h0v0.3l0-0.3l0,0v0.3l0-0.3l0,0c-0.1,0-0.3-0.1-0.5-0.1c-0.6,0-1.1,0.2-1.6,0.6l0,0l-5.7,5.9
		l4.2-19.4l-0.5-0.1l0.5,0.1c0-0.2,0.1-0.3,0.1-0.5c0-0.8-0.5-1.4-1.1-1.8c-0.2-0.1-0.4-0.2-0.6-0.2c-0.2,0-0.3,0-0.5,0
		c-0.5,0-1,0.1-1.5,0.5l0.4,0.4l-0.3-0.4l-3,2.7l-4.9-12.8L96.7-28l0.5-0.2c-0.1-0.4-0.4-0.8-0.7-1.1c-0.3-0.3-0.7-0.5-1.2-0.6
		c-0.5,0-0.9,0.2-1.3,0.5c-0.3,0.3-0.6,0.7-0.7,1.1l0.5,0.1l-0.5-0.2l-5,12.6l-3.1-2.6l-0.3,0.4l0.4-0.4c-0.4-0.4-1-0.5-1.5-0.5
		c-0.4,0-0.8,0.1-1,0.3l0,0l0,0c-0.7,0.4-1,1.2-1,2c0,0.1,0,0.2,0,0.3l0,0l4.2,19.5l-5.7-5.9l0,0c-0.4-0.4-1-0.6-1.6-0.6
		c-0.1,0-0.2,0-0.3,0c-0.1,0-0.3,0.1-0.4,0.1l0.2,0.4l-0.2-0.5c-0.7,0.2-1.3,0.8-1.5,1.5l0,0l-0.6,2.9l0.5,0.1L76.5,1
		c-1.6-0.7-3.9-1.6-6.3-2.3c-2.5-0.7-5-1.3-7-1.3c-0.9,0-1.7,0.5-2,1.3l0.5,0.2l-0.4-0.2C61-1.1,61-0.8,61-0.5
		c0,0.6,0.3,1.2,0.7,1.6L62,0.7l-0.3,0.4c1.8,1.6,6.1,6.1,8,9.6l0.4-0.2l-0.2-0.5c-0.8,0.3-1.6,0.6-2.3,0.9
		c-0.8,0.3-1.4,0.6-1.9,0.9l0.3,0.4l-0.3-0.4c-0.4,0.2-0.6,0.5-0.8,0.9c-0.2,0.4-0.3,0.7-0.3,1.1v0l0,0c0.1,0.7,0.6,1.5,1.4,1.8
		l0.2-0.5l-0.2,0.5c2,0.7,10.9,3.8,15.3,4.7l0.1-0.5l-0.4-0.3c-1.4,2-4.7,5.8-7.6,8.8l0.4,0.3l-0.4-0.4c-0.4,0.4-0.6,0.9-0.6,1.5
		c0,0.2,0,0.4,0.1,0.6c0.1,0.4,0.3,0.7,0.6,0.9c0.3,0.3,0.6,0.4,1,0.5l0,0h0v-0.3l0,0.3l0,0v-0.3l0,0.3c0,0,0.3,0.1,0.7,0.1
		c0.4,0,0.9,0.1,1.6,0.1c2.2,0,5.7-0.4,9.9-2.7L86.7,29l0.2,0.4l6.5-3.2V35c0,0.4,0,0.8,0,1.2c0,1.4,0.1,3.1,0.9,4.8
		c0.8,1.7,2.3,3.4,5,4.6l0.2-0.5l-0.2,0.4c0.3,0.2,0.6,0.2,0.8,0.2c0.4,0,0.8-0.1,1.1-0.3c0.3-0.2,0.6-0.5,0.8-0.9l-0.5-0.2l0.4,0.2
		c0.1-0.3,0.2-0.6,0.2-0.9c0-0.8-0.5-1.5-1.2-1.9l0,0l0,0c-2-1-3.1-2.1-3.7-3.2c-0.6-1.1-0.7-2.4-0.7-3.6v-9l6.6,3.4l0.2-0.4
		l-0.3,0.4c3.8,2.5,7.1,3,9.2,3c1,0,1.9-0.1,2.5-0.3c0.3-0.1,0.6-0.1,0.7-0.2l0.2-0.1l0,0l-0.1-0.3v0.4l0.1,0l-0.1-0.3v0.4h0.1
		l0.1,0c0.7-0.3,1.2-0.9,1.3-1.6v0c0-0.2,0-0.3,0-0.5c0-0.5-0.2-1.1-0.6-1.5l-0.4,0.4l0.4-0.3c-2.9-3.1-6.2-6.9-7.6-8.8l-0.4,0.3
		l0.1,0.5c4.5-1,13.2-4,15.3-4.7l-0.2-0.5l0.2,0.5c0.8-0.3,1.3-1,1.4-1.8l-0.5-0.1l0.5,0.1c0-0.1,0-0.2,0-0.3c0-0.7-0.4-1.4-1-1.8
		l0,0l0,0c-0.5-0.3-1.1-0.6-1.9-0.9c-0.8-0.3-1.6-0.6-2.3-0.9l-0.2,0.5l0.4,0.2c1.8-3.4,6.2-7.9,7.9-9.6c0.4-0.4,0.7-1,0.7-1.7h-0.5
		l0.5,0.1c0-0.1,0-0.2,0-0.4c0-0.5-0.3-1-0.7-1.3c-0.4-0.3-0.9-0.5-1.4-0.5V-2.1v0.5c0.3,0,0.6,0.1,0.8,0.3c0.2,0.2,0.3,0.3,0.3,0.5
		l0,0.1l0,0.1v0.1c0,0.3-0.2,0.7-0.5,0.9c-1.7,1.7-6.1,6.2-8.1,9.8l-0.3,0.5l0.6,0.2c0.7,0.2,1.6,0.5,2.3,0.8
		c0.7,0.3,1.4,0.6,1.7,0.8l0.3-0.4l-0.3,0.4c0.4,0.3,0.6,0.6,0.6,1l0,0.1l0,0l0,0c-0.1,0.5-0.3,0.8-0.8,1l0,0l0,0
		c-2,0.7-10.8,3.7-15.1,4.7l-0.7,0.2l0.4,0.6c1.4,2,4.7,5.8,7.6,9l0,0l0,0c0.2,0.2,0.3,0.5,0.3,0.8c0,0.1,0,0.2,0,0.3v0
		c-0.1,0.3-0.4,0.7-0.7,0.8l0.2,0.5v-0.5c-0.1,0-0.1,0-0.1,0c-0.1,0-0.2,0.1-0.4,0.1c-0.5,0.1-1.5,0.4-2.9,0.4c-1.9,0-5-0.5-8.6-2.8
		l0,0l-8.1-4.2V35c0,1.3,0.1,2.7,0.8,4.1c0.7,1.4,2,2.6,4.2,3.6l0.2-0.5l-0.2,0.4c0.4,0.2,0.7,0.6,0.7,1c0,0.1,0,0.3-0.1,0.4l0,0
		l0,0c-0.1,0.2-0.2,0.3-0.3,0.4c-0.2,0.1-0.4,0.2-0.6,0.2c-0.2,0-0.3,0-0.4,0l0,0l0,0c-2.5-1.2-3.8-2.6-4.5-4.1
		c-0.7-1.5-0.8-3-0.8-4.4c0-0.4,0-0.9,0-1.2V24.6l-7.9,4l0,0c-4.1,2.2-7.4,2.5-9.5,2.5c-0.7,0-1.2,0-1.6-0.1c-0.2,0-0.3,0-0.4-0.1
		l-0.1,0l-0.1,0v0.5l0.1-0.5c-0.2,0-0.4-0.1-0.5-0.2c-0.1-0.1-0.2-0.3-0.3-0.5c0-0.1-0.1-0.2-0.1-0.3c0-0.3,0.1-0.6,0.3-0.8l0,0l0,0
		c2.9-3.1,6.2-6.9,7.6-9l0.4-0.6l-0.7-0.2c-4.2-0.9-13.1-4-15.1-4.7l0,0l0,0c-0.4-0.1-0.7-0.6-0.8-1l-0.5,0.1h0.5
		c0-0.2,0.1-0.5,0.2-0.7c0.1-0.2,0.3-0.4,0.4-0.5l0,0l0,0c0.3-0.2,1-0.5,1.7-0.8c0.7-0.3,1.5-0.6,2.3-0.8l0.6-0.2l-0.3-0.5
		c-2.1-3.7-6.4-8.2-8.2-9.8l0,0l0,0C62.1,0.2,62-0.2,62-0.5c0-0.1,0-0.3,0.1-0.4l0,0l0,0c0.1-0.4,0.5-0.7,1-0.7
		c1.9,0,4.4,0.6,6.8,1.3c2.4,0.7,4.7,1.6,6.3,2.3l0.6,0.2l0.7-3.5l-0.5-0.1l0.5,0.2c0.2-0.5,0.4-0.7,0.9-0.9l0,0l0,0l0.1,0
		c0,0,0.1,0,0.2,0c0.2,0,0.7,0.2,0.8,0.4l0.4-0.4l-0.4,0.3l8.1,8.5l-5-22.9l-0.5,0.1l0.5-0.1l0-0.2c0-0.4,0.2-0.9,0.6-1.1L82.9-18
		l0.2,0.4c0.1-0.1,0.4-0.2,0.6-0.1c0.3,0,0.6,0.1,0.7,0.3l0,0l4.1,3.6l5.6-14l0,0c0.1-0.3,0.2-0.5,0.4-0.7c0.2-0.2,0.4-0.3,0.6-0.3
		c0.1,0,0.3,0.1,0.6,0.3c0.2,0.2,0.4,0.5,0.5,0.7l0,0l5.5,14.2l4-3.7l0,0c0.2-0.2,0.4-0.3,0.7-0.3c0.2,0,0.2,0,0.3,0
		c0.1,0,0.1,0,0.2,0.1c0.4,0.3,0.6,0.7,0.6,1l0,0.2l0,0l-5,22.8l8.1-8.5l-0.4-0.3l0.4,0.4c0.2-0.2,0.6-0.4,0.8-0.4l0.2,0l0.1,0
		c0.1,0,0.1,0,0.2,0v-0.5L112-2.1c0.4,0.1,0.7,0.4,0.8,0.8l0,0l0.7,3.5l0.6-0.2c1.5-0.6,3.9-1.5,6.3-2.2c2.4-0.7,4.9-1.3,6.8-1.3
		V-2.1z"/>
	<path class="st1" d="M144.8,51.1V43l-9.2-9.2c-1.1-1.1-1.1-3,0-4.1c1.2-1.2,3-1.2,4.1,0l5,5V30c0-1.6,1.3-2.9,2.9-2.9
		c1.6,0,2.9,1.3,2.9,2.9v4.7l5-5c1.1-1.1,3-1.1,4.1,0c1.1,1.1,1.1,3,0,4.1l-9.2,9.2v8.1c1,0.4,2,0.9,2.8,1.6l7-4l3.4-12.5
		c0.4-1.5,2-2.5,3.6-2c1.6,0.4,2.5,2,2.1,3.6l-1.8,6.9l4-2.3c1.4-0.8,3.2-0.3,4,1.1s0.3,3.2-1.1,4l-4,2.3l6.9,1.8
		c1.5,0.4,2.5,2,2,3.6c-0.4,1.6-2,2.5-3.6,2.1l-12.3-3.5l-7,4.1c0.1,0.5,0.1,1,0.1,1.6s-0.1,1.1-0.2,1.7l7.1,4.1l12.5-3.4
		c1.5-0.4,3.1,0.5,3.6,2.1c0.4,1.6-0.5,3.2-2,3.6l-6.9,1.8l4,2.3c1.4,0.8,1.9,2.6,1.1,4c-0.8,1.4-2.6,1.9-4,1.1l-4-2.3l1.8,6.9
		c0.4,1.5-0.5,3.1-2.1,3.6c-1.6,0.4-3.2-0.5-3.6-2l-3.4-12.5l-7.1-4.1c-0.8,0.7-1.7,1.2-2.7,1.6v8.2l9.2,9.2c1.1,1.1,1.1,3,0,4.1
		c-1.2,1.2-3,1.2-4.1,0l-5-5v4.3c0,1.6-1.3,2.9-2.9,2.9s-2.9-1.3-2.9-2.9v-4.7l-5,5c-1.1,1.1-3,1.1-4.1,0c-1.1-1.1-1.1-3,0-4.1
		l9.2-9.2v-8.2c-1-0.4-1.9-0.9-2.7-1.6l-7.1,4.1l-3.4,12.5c-0.4,1.5-2,2.5-3.6,2c-1.6-0.4-2.5-2-2.1-3.6l1.8-6.9l-4,2.3
		c-1.4,0.8-3.2,0.3-4-1.1c-0.8-1.4-0.3-3.2,1.1-4l4-2.3l-6.9-1.8c-1.5-0.4-2.5-2-2-3.6c0.4-1.6,2-2.5,3.6-2.1l12.5,3.4l7.1-4.1
		c-0.1-0.5-0.2-1.1-0.2-1.7c0-0.5,0-1,0.1-1.6l-7-4.1l-12.5,3.4c-1.5,0.4-3.1-0.5-3.6-2.1c-0.4-1.6,0.5-3.2,2-3.6l6.9-1.8l-4-2.3
		c-1.4-0.8-1.9-2.6-1.1-4c0.8-1.4,2.6-1.9,4-1.1l4,2.3l-1.8-6.9c-0.4-1.5,0.5-3.1,2.1-3.6c1.6-0.4,3.2,0.5,3.6,2l3.4,12.5l7,4
		C142.8,52,143.8,51.5,144.8,51.1z"/>
	<path class="st0" d="M144.8,51.1h0.5v-8.3l-9.3-9.3c-0.4-0.4-0.7-1.1-0.7-1.7s0.2-1.3,0.7-1.7c0.5-0.5,1.1-0.8,1.7-0.8
		c0.6,0,1.2,0.2,1.6,0.7l0,0l5.9,5.9V30c0-1.3,1.1-2.4,2.4-2.4c1.3,0,2.4,1.1,2.4,2.4v5.9l5.9-5.9c0.4-0.4,1.1-0.7,1.7-0.7
		s1.2,0.2,1.7,0.7c0.4,0.4,0.7,1.1,0.7,1.7s-0.2,1.2-0.7,1.7l-9.3,9.3v8.6l0.3,0.1c1,0.4,1.9,0.9,2.7,1.5l0.3,0.2l7.5-4.3l3.5-12.7
		v0c0.3-1,1.2-1.8,2.3-1.8c0.2,0,0.5,0,0.7,0.1l0,0l0,0c1.1,0.3,1.8,1.2,1.8,2.4c0,0.2,0,0.4-0.1,0.6l0.5,0.1l-0.5-0.1l-2.1,8.1
		l5-2.9l0,0c0.4-0.2,0.8-0.3,1.2-0.3c0.9,0,1.7,0.4,2.1,1.2c0.2,0.4,0.3,0.8,0.3,1.2c0,0.9-0.4,1.7-1.2,2.1l-5.1,2.9l8.1,2.1l0,0
		c1,0.3,1.8,1.2,1.8,2.3c0,0.2,0,0.5-0.1,0.7l0,0l0,0c-0.3,1.1-1.2,1.8-2.4,1.8c-0.2,0-0.4,0-0.6-0.1l-0.1,0.5l0.1-0.5l-12.5-3.6
		l-7.5,4.4l0.1,0.3c0.1,0.4,0.1,0.9,0.1,1.5c0,0.5-0.1,1-0.2,1.6l-0.1,0.3l7.6,4.4l12.7-3.5l0,0c0.2-0.1,0.4-0.1,0.6-0.1
		c1,0,2,0.7,2.4,1.8l0.5-0.1l-0.5,0.1c0.1,0.2,0.1,0.4,0.1,0.6c0,1.1-0.7,2.1-1.7,2.3h0l-8.1,2.1l5.1,2.9h0c0.8,0.4,1.2,1.3,1.2,2.1
		c0,0.4-0.1,0.8-0.3,1.2h0c-0.4,0.8-1.3,1.2-2.1,1.2c-0.4,0-0.8-0.1-1.2-0.3l-5-2.9l2.1,8.1v0c0.1,0.2,0.1,0.4,0.1,0.6
		c0,1-0.7,2-1.8,2.4l0.1,0.5l-0.1-0.5c-0.2,0.1-0.4,0.1-0.6,0.1c-1.1,0-2.1-0.7-2.3-1.7l-3.5-12.7l-7.6-4.4L153,66
		c-0.7,0.7-1.6,1.1-2.6,1.5l-0.3,0.1v8.7l9.3,9.3c0.4,0.4,0.7,1.1,0.7,1.7s-0.2,1.2-0.7,1.7c-0.5,0.5-1.1,0.8-1.7,0.8
		c-0.6,0-1.2-0.2-1.6-0.7l0,0l-5.9-5.9v5.5c0,1.3-1.1,2.4-2.4,2.4c-1.3,0-2.4-1.1-2.4-2.4v-5.9l-5.9,5.9l0,0
		c-0.4,0.4-1.1,0.7-1.7,0.7c-0.6,0-1.2-0.2-1.7-0.7l0,0c-0.4-0.4-0.7-1.1-0.7-1.7s0.2-1.2,0.7-1.7l9.3-9.3v-8.7l-0.3-0.1
		c-1-0.4-1.8-0.9-2.6-1.5l-0.3-0.2l-7.6,4.4l-3.5,12.7l0,0c-0.3,1-1.2,1.8-2.3,1.8c-0.2,0-0.5,0-0.7-0.1l0,0l0,0
		c-1.1-0.3-1.8-1.2-1.8-2.4c0-0.2,0-0.4,0.1-0.6l-0.5-0.1l0.5,0.1l2.1-8.1l-5,2.9l0,0c-0.4,0.2-0.8,0.3-1.2,0.3
		c-0.8,0-1.7-0.4-2.1-1.2c-0.2-0.4-0.3-0.8-0.3-1.2c0-0.9,0.4-1.7,1.2-2.1l5.1-2.9l-8.1-2.1h0c-1-0.3-1.8-1.2-1.8-2.3
		c0-0.2,0-0.5,0.1-0.7l0,0l0,0c0.3-1.1,1.2-1.8,2.4-1.8c0.2,0,0.4,0,0.6,0.1l0.1-0.5l-0.1,0.5l12.7,3.5l7.6-4.4l-0.1-0.4
		c-0.1-0.5-0.2-1.1-0.2-1.6c0-0.5,0-1,0.1-1.5l0.1-0.3l-7.5-4.4l-12.7,3.5l0,0c-0.2,0.1-0.4,0.1-0.6,0.1c-1,0-2-0.7-2.4-1.8
		l-0.5,0.1l0.5-0.1c-0.1-0.2-0.1-0.4-0.1-0.6c0-1.1,0.7-2.1,1.7-2.4l0,0l8.1-2.1l-5.1-2.9l0,0c-0.8-0.4-1.2-1.3-1.2-2.1
		c0-0.4,0.1-0.8,0.3-1.2c0.4-0.8,1.3-1.2,2.1-1.2c0.4,0,0.8,0.1,1.2,0.3l5,2.9l-2.1-8.1v0c-0.1-0.2-0.1-0.4-0.1-0.6
		c0-1,0.7-2,1.8-2.4l-0.1-0.5l0.1,0.5c0.2-0.1,0.4-0.1,0.6-0.1c1.1,0,2.1,0.7,2.3,1.7l0,0l3.5,12.7l7.4,4.2l0.2-0.1
		c0.7-0.2,1.6-0.7,2.6-1.1l0.3-0.1v-0.3H144.8l-0.2-0.5c-1,0.4-2,0.9-2.6,1.1l0.2,0.5l0.2-0.4l-6.8-3.9l-3.3-12.3l0,0
		c-0.4-1.5-1.8-2.5-3.3-2.5c-0.3,0-0.6,0-0.9,0.1l0,0l0,0c-1.5,0.5-2.5,1.9-2.5,3.4c0,0.3,0,0.6,0.1,0.8l1.5,5.7l-3-1.7l0,0
		c-0.5-0.3-1.1-0.4-1.7-0.4c-1.2,0-2.4,0.6-3,1.7c-0.3,0.5-0.4,1.1-0.4,1.7c0,1.2,0.6,2.4,1.7,3l2.9,1.7l-5.7,1.5l0,0
		c-1.5,0.4-2.5,1.8-2.5,3.3c0,0.3,0,0.6,0.1,0.9l0,0l0,0c0.5,1.5,1.9,2.5,3.4,2.5c0.3,0,0.6,0,0.9-0.1l0,0l12.3-3.3l6.8,4l0.3-0.4
		l-0.5-0.1c-0.1,0.6-0.1,1.2-0.1,1.7c0,0.7,0.1,1.3,0.2,1.8l0.5-0.1l-0.2-0.4l-6.9,4L119.8,61l0,0c-0.3-0.1-0.6-0.1-0.9-0.1
		c-1.5,0-2.9,1-3.3,2.6l0.5,0.1l-0.5-0.1c-0.1,0.3-0.2,0.7-0.2,1c0,1.5,1,2.8,2.5,3.2h0l5.7,1.5l-2.9,1.7l0,0
		c-1.1,0.6-1.7,1.8-1.7,3c0,0.6,0.1,1.2,0.4,1.7c0.6,1.1,1.8,1.7,3,1.7c0.6,0,1.2-0.1,1.7-0.4l0,0l3-1.7l-1.5,5.7l0,0
		c-0.1,0.3-0.1,0.6-0.1,0.9c0,1.5,1,2.9,2.6,3.3l0.1-0.5l-0.1,0.5c0.3,0.1,0.7,0.2,1,0.2c1.5,0,2.8-1,3.2-2.5l0,0l3.3-12.3l6.9-4
		l-0.2-0.4l-0.3,0.4c0.9,0.7,1.8,1.3,2.8,1.7l0.2-0.5h-0.5v8l-9.1,9.1c-0.7,0.7-1,1.5-1,2.4s0.3,1.8,1,2.4l0,0c0.7,0.7,1.5,1,2.4,1
		s1.8-0.3,2.4-1l4.1-4.1v3.5c0,1.9,1.5,3.4,3.4,3.4c1.9,0,3.4-1.5,3.4-3.4v-3.1l4.1,4.1l0.4-0.4l-0.4,0.3c0.6,0.7,1.5,1.1,2.4,1.1
		c0.9,0,1.8-0.4,2.4-1c0.7-0.7,1-1.5,1-2.4s-0.3-1.8-1-2.4l-9.1-9.1v-8h-0.5l0.2,0.5c1-0.4,2-0.9,2.8-1.7l-0.3-0.4l-0.2,0.4l6.9,4
		l3.3,12.3l0,0c0.4,1.5,1.8,2.5,3.3,2.5c0.3,0,0.6,0,0.9-0.1l0,0l0,0c1.5-0.5,2.5-1.9,2.5-3.4c0-0.3,0-0.6-0.1-0.8v0l-1.5-5.7l3,1.7
		h0c0.5,0.3,1.1,0.4,1.7,0.4c1.2,0,2.4-0.6,3-1.7h0c0.3-0.5,0.4-1.1,0.4-1.7c0-1.2-0.6-2.4-1.7-3l0,0l-2.9-1.7l5.7-1.5h0
		c1.5-0.4,2.5-1.8,2.5-3.3c0-0.3,0-0.6-0.1-0.9l0,0l0,0c-0.5-1.5-1.9-2.5-3.4-2.5c-0.3,0-0.6,0-0.9,0.1l0,0l-12.3,3.3l-6.9-4
		l-0.2,0.4l0.5,0.1c0.1-0.6,0.2-1.1,0.2-1.8c0-0.6,0-1.1-0.1-1.7l-0.5,0.1l0.3,0.4l6.8-4l12.1,3.4l0,0c0.3,0.1,0.6,0.1,0.9,0.1
		c1.5,0,2.9-1,3.3-2.6l-0.5-0.1l0.5,0.1c0.1-0.3,0.2-0.7,0.2-1c0-1.5-1-2.8-2.5-3.2l0,0l-5.7-1.5l2.9-1.7l0,0c1.1-0.6,1.7-1.8,1.7-3
		c0-0.6-0.1-1.2-0.4-1.7c-0.6-1.1-1.8-1.7-3-1.7c-0.6,0-1.2,0.1-1.7,0.4l0,0l-3,1.7l1.5-5.7l0,0c0.1-0.3,0.1-0.6,0.1-0.9
		c0-1.5-1-2.9-2.6-3.3l-0.1,0.5l0.1-0.5c-0.3-0.1-0.7-0.2-1-0.2c-1.5,0-2.8,1-3.2,2.5l-3.3,12.3l-6.8,3.9l0.2,0.4l0.3-0.4
		c-0.9-0.8-1.9-1.3-2.9-1.7l-0.2,0.5h0.5v-7.9l9.1-9.1c0.7-0.7,1-1.5,1-2.4s-0.3-1.8-1-2.4c-0.7-0.7-1.5-1-2.4-1s-1.8,0.3-2.4,1
		l-4.1,4.1V30c0-1.9-1.5-3.4-3.4-3.4c-1.9,0-3.4,1.5-3.4,3.4v3.5l-4.1-4.1l-0.4,0.4l0.4-0.3c-0.6-0.7-1.5-1.1-2.4-1.1
		c-0.9,0-1.8,0.4-2.4,1c-0.7,0.7-1,1.5-1,2.4s0.3,1.7,1,2.4l9.1,9.1v7.9H144.8l-0.2-0.5L144.8,51.1z"/>
</g>
</svg>
