<?xml version="1.0" encoding="utf-8"?>
<!-- Generator: Adobe Illustrator 16.0.0, SVG Export Plug-In . SVG Version: 6.00 Build 0)  -->
<!DOCTYPE svg PUBLIC "-//W3C//DTD SVG 1.1//EN" "http://www.w3.org/Graphics/SVG/1.1/DTD/svg11.dtd">
<svg version="1.1" id="Layer_1" xmlns="http://www.w3.org/2000/svg" xmlns:xlink="http://www.w3.org/1999/xlink" x="0px" y="0px"
	 width="122px" height="123.1px" viewBox="62 -29 122 123.1" style="enable-background:new 62 -29 122 123.1;" xml:space="preserve"
	>
<g>
	<path d="M117.3,17V1.6L99.9-15.8c-2.1-2.1-2.1-5.7,0-7.8c2.2-2.2,5.7-2.2,7.8,0l9.5,9.5v-8.8c0-3.1,2.5-5.5,5.6-5.5
		c3.1,0,5.6,2.5,5.6,5.5v8.8l9.5-9.5c2.2-2.2,5.6-2.2,7.8,0c2.2,2.2,2.2,5.7,0,7.8L128.5,1.6V17c2,0.7,3.8,1.8,5.4,3.1l13.3-7.7
		l6.4-23.8c0.8-2.9,3.8-4.7,6.8-3.9c3,0.8,4.7,3.8,3.9,6.8l-3.5,13l7.7-4.4c2.7-1.5,6-0.6,7.6,2c1.5,2.7,0.6,6.1-2,7.6l-7.7,4.4
		l13,3.5c2.9,0.8,4.7,3.8,3.9,6.8s-3.9,4.7-6.8,3.9l-23.8-6.4l-13.4,7.7c0.2,1,0.3,1.9,0.3,2.9c0,1.1-0.1,2.1-0.3,3.2l13.4,7.7
		l23.8-6.4c2.9-0.8,6,1,6.8,3.9c0.8,3-0.9,6-3.9,6.8l-13,3.5l7.7,4.4c2.7,1.5,3.5,4.9,2,7.6s-4.9,3.6-7.6,2l-7.7-4.4l3.5,13
		c0.8,2.9-1,6-3.9,6.8c-3,0.8-6-1-6.8-3.9l-6.4-23.8L133.7,45c-1.5,1.3-3.3,2.3-5.2,3v15.6L145.9,81c2.1,2.1,2.1,5.7,0,7.8
		c-2.2,2.2-5.7,2.2-7.8,0l-9.5-9.5v8.8c0,3.1-2.5,5.5-5.6,5.5s-5.6-2.5-5.6-5.5v-8.8l-9.5,9.5c-2.2,2.2-5.6,2.2-7.8,0
		c-2.2-2.2-2.2-5.7,0-7.8l17.4-17.4V48.5c-1.9-0.7-3.7-1.7-5.2-3l-13.5,7.8l-6.4,23.8c-0.8,2.9-3.8,4.7-6.8,3.9s-4.7-3.8-3.9-6.8
		l3.5-13l-7.7,4.4c-2.7,1.5-6,0.6-7.6-2c-1.5-2.7-0.6-6.1,2-7.6l7.7-4.4l-13-3.5c-2.9-0.8-4.7-3.8-3.9-6.8s3.9-4.7,6.8-3.9l23.8,6.4
		l13.4-7.7c-0.2-1-0.3-2.1-0.3-3.2c0-1,0.1-2,0.3-2.9l-13.4-7.7l-23.8,6.4c-2.9,0.8-6-1-6.8-3.9c-0.8-3,0.9-6,3.9-6.8l13-3.5
		l-7.7-4.7c-2.7-1.5-3.5-4.9-2-7.6c1.5-2.7,4.9-3.6,7.6-2l7.7,4.4l-3.5-13c-0.8-2.9,1-6,3.9-6.8c3-0.8,6,1,6.8,3.9l6.4,23.8
		l13.3,7.7C113.5,18.8,115.4,17.8,117.3,17z"/>
	<path d="M117.3,17h0.5V1.4l-17.5-17.5c-0.9-0.9-1.4-2.2-1.4-3.5c0-1.3,0.5-2.6,1.4-3.5c1-1,2.3-1.5,3.6-1.5c1.3,0,2.5,0.5,3.5,1.5
		l10.4,10.4v-10c0-2.8,2.3-5,5.1-5c1.4,0,2.7,0.6,3.6,1.5c0.9,0.9,1.5,2.2,1.5,3.5v10l10.4-10.4c1-1,2.3-1.5,3.5-1.5
		c1.3,0,2.5,0.5,3.5,1.5s1.5,2.3,1.5,3.6s-0.5,2.5-1.5,3.5L128,1.4v16l0.3,0.1c1.9,0.7,3.7,1.7,5.2,3l0.3,0.2l13.8-8l6.5-24
		c0.6-2.2,2.6-3.7,4.9-3.7c0.4,0,0.9,0.1,1.3,0.2c2.3,0.6,3.7,2.6,3.7,4.8c0,0.4-0.1,0.9-0.2,1.4L160,5.5l8.7-5l-0.2-0.4l0.2,0.4
		c0.8-0.5,1.7-0.7,2.5-0.7c1.7,0,3.4,0.9,4.4,2.5L176,2l-0.4,0.2c0.5,0.8,0.7,1.7,0.7,2.6c0,1.8-0.9,3.5-2.5,4.4l-8.8,5l14.2,3.8
		c2.2,0.6,3.7,2.6,3.7,4.9c0,0.4-0.1,0.9-0.2,1.3c-0.6,2.3-2.7,3.7-4.9,3.7c-0.4,0-0.9-0.1-1.3-0.2l-24-6.5l-13.9,8l0.1,0.4
		c0.2,1,0.3,1.8,0.3,2.8c0,1.1-0.1,2-0.3,3.1l-0.1,0.3l13.9,8l24-6.5c0.4-0.1,0.9-0.2,1.3-0.2c2.2,0,4.3,1.5,4.9,3.7
		c0.1,0.5,0.2,0.9,0.2,1.4c0,2.2-1.4,4.2-3.7,4.8l-14.1,4l8.8,5c1.6,0.9,2.5,2.6,2.5,4.3c0,0.9-0.2,1.8-0.7,2.6
		c-0.9,1.6-2.6,2.5-4.3,2.5c-0.9,0-1.8-0.2-2.6-0.7l-8.7-5l3.8,14.2c0.1,0.4,0.2,0.9,0.2,1.3c0,2.2-1.5,4.3-3.7,4.9
		c-0.4,0.1-0.9,0.2-1.3,0.2c-2.2,0-4.3-1.5-4.9-3.7l-6.5-24l-14-8.2l-0.3,0.2c-1.4,1.3-3.2,2.2-5,2.9l-0.3,0.1v16.2l17.5,17.5
		c0.9,0.9,1.4,2.2,1.4,3.5s-0.5,2.6-1.4,3.5c-1,1-2.3,1.5-3.6,1.5s-2.5-0.5-3.5-1.5l-10.4-10.4v10c0,2.8-2.3,5-5.1,5
		c-1.4,0-2.7-0.6-3.6-1.5c-0.9-0.9-1.5-2.2-1.5-3.5v-10l-10.4,10.4c-1,1-2.3,1.5-3.5,1.5c-1.3,0-2.5-0.5-3.5-1.5S99,86,99,84.7
		s0.5-2.5,1.5-3.5L118,63.8V48.2l-0.3-0.1c-1.9-0.7-3.6-1.7-5-2.9l-0.3-0.2l-14,8.1l-6.5,24c-0.6,2.2-2.6,3.7-4.9,3.7
		c-0.4,0-0.9-0.1-1.3-0.2C83.4,80,82,78,82,75.8c0-0.4,0.1-0.9,0.2-1.4L86,60.2l-8.7,5l0.2,0.4l-0.2-0.4c-0.8,0.5-1.7,0.7-2.5,0.7
		c-1.7,0-3.4-0.9-4.4-2.5L70,63.7l0.4-0.2c-0.5-0.8-0.7-1.7-0.7-2.5c0-1.8,0.9-3.5,2.5-4.4l8.8-5l-14.2-3.8C64.5,47,63,45,63,42.7
		c0-0.4,0.1-0.9,0.2-1.3c0.6-2.3,2.7-3.7,4.9-3.7c0.4,0,0.9,0.1,1.3,0.2l24,6.5l13.9-8l-0.1-0.4c-0.2-1-0.3-2-0.3-3.1
		c0-1,0.1-1.9,0.3-2.8l0.1-0.4l-13.9-8l-24,6.5c-0.4,0.1-0.9,0.2-1.3,0.2c-2.2,0-4.3-1.5-4.9-3.7c-0.1-0.5-0.2-0.9-0.2-1.4
		c0-2.2,1.4-4.2,3.7-4.8l14.1-3.8l-8.7-5.3c-1.6-0.9-2.5-2.6-2.5-4.3c0-0.9,0.2-1.8,0.7-2.6C71.2,0.9,72.9,0,74.6,0
		c0.9,0,1.8,0.2,2.6,0.7l8.7,5L82.2-8.5C82.1-9,82-9.4,82-9.8c0-2.2,1.5-4.3,3.7-4.9c0.4-0.1,0.9-0.2,1.3-0.2c2.2,0,4.3,1.5,4.9,3.7
		l6.5,24l13.8,8l0.3-0.3c1.3-1.3,3.2-2.3,5-3.1l0.3-0.1V17H117.3l-0.2-0.5c-1.9,0.8-3.9,1.8-5.4,3.3l0.4,0.4l0.3-0.4l-13.1-7.6
		L93-11.4c-0.7-2.7-3.1-4.5-5.8-4.5c-0.5,0-1,0.1-1.6,0.2c-2.7,0.7-4.5,3.2-4.5,5.9c0,0.5,0.1,1,0.2,1.5l3.2,11.8l-6.7-3.8l-0.2,0.4
		l0.3-0.4c-1-0.6-2.1-0.9-3.1-0.9c-2.1,0-4.1,1.1-5.2,3.1c-0.5,1-0.8,2.1-0.8,3.1c0,2.1,1,4.1,3,5.2L72,9.8l-0.3,0.4l6.7,4.1
		l-11.9,3.2c-2.7,0.7-4.5,3.1-4.5,5.8c0,0.5,0.1,1.1,0.2,1.6c0.7,2.7,3.2,4.5,5.9,4.5c0.5,0,1-0.1,1.5-0.2l23.6-6.3l13.2,7.6
		l0.2-0.4l-0.5-0.1c-0.2,0.9-0.3,2-0.3,3c0,1.1,0.1,2.3,0.3,3.3l0.5-0.1l-0.2-0.4l-13.2,7.6l-23.6-6.3c-0.5-0.1-1.1-0.2-1.6-0.2
		c-2.6,0-5.1,1.7-5.8,4.5C62.1,41.9,62,42.5,62,43c0,2.7,1.8,5.1,4.5,5.8L78.3,52l-6.6,3.8c-1.9,1.1-3,3.1-3,5.2c0,1,0.3,2.1,0.8,3
		c1.2,1.9,3.2,3,5.3,3c1,0,2.1-0.3,3-0.8l6.7-3.8l-3.2,11.8c-0.1,0.5-0.2,1.1-0.2,1.6c0,2.7,1.7,5.1,4.5,5.8
		c0.5,0.1,1.1,0.2,1.6,0.2c2.7,0,5.1-1.8,5.8-4.5l6.3-23.6l13.3-7.7l-0.2-0.4l-0.3,0.4c1.6,1.3,3.4,2.4,5.4,3.1l0.2-0.5H117v14.9
		L99.7,80.6l0.4,0.4l-0.3-0.4c-1.2,1.1-1.8,2.7-1.8,4.2s0.6,3.1,1.8,4.3c1.2,1.2,2.7,1.8,4.3,1.8c1.5,0,3.1-0.6,4.3-1.8l8.6-8.6v7.6
		c0,3.3,2.7,6,6.1,6c1.7,0,3.2-0.7,4.3-1.7c1.1-1.1,1.8-2.6,1.8-4.3v-7.6l8.6,8.6l0.4-0.4l-0.4,0.3c1.1,1.2,2.7,1.8,4.2,1.8
		s3.1-0.6,4.3-1.8s1.7-2.7,1.7-4.3c0-1.5-0.6-3.1-1.7-4.3l-17.3-17V48h-0.5l0.2,0.5c1.9-0.7,3.8-1.7,5.4-3.1l-0.3-0.4l-0.3,0.4
		l13.3,7.8l6.3,23.6c0.7,2.7,3.1,4.5,5.8,4.5c0.5,0,1-0.1,1.6-0.2c2.7-0.7,4.5-3.2,4.5-5.9c0-0.5-0.1-1-0.2-1.5l-3.2-11.8l6.7,3.8
		l0.2-0.4l-0.3,0.4c1,0.6,2.1,0.9,3.1,0.9c2.1,0,4.1-1.1,5.2-3c0.5-1,0.8-2.1,0.8-3.1c0-2.1-1-4.1-3-5.2l-0.2,0.4l0.2-0.4l-6.6-3.8
		l11.8-3.2c2.7-0.7,4.5-3.1,4.5-5.8c0-0.5-0.1-1.1-0.2-1.6c-0.7-2.7-3.2-4.5-5.9-4.5c-0.5,0-1,0.1-1.5,0.2l-23.6,6.3l-13.2-7.6
		l-0.2,0.4l0.5,0.1c0.2-1.1,0.3-2.2,0.3-3.3c0-1-0.1-2-0.3-3l-0.5,0.1l0.2,0.4l13.2-7.6l23.6,6.3c0.5,0.1,1.1,0.2,1.6,0.2
		c2.6,0,5.1-1.7,5.8-4.5c0.1-0.5,0.2-1.1,0.2-1.6c0-2.7-1.8-5.1-4.5-5.8l-11.8-3.2l6.6-3.8c1.9-1.1,3-3.1,3-5.2c0-1-0.3-2.1-0.8-3
		c-1.2-1.9-3.2-3-5.3-3c-1,0-2.1,0.3-3,0.8l-6.7,3.8l3.2-11.8c0.1-0.5,0.2-1.1,0.2-1.6c0-2.7-1.7-5.1-4.5-5.8
		c-0.5-0.1-1.1-0.2-1.6-0.2c-2.7,0-5.1,1.8-5.8,4.5l-6.3,23.6l-13.1,7.6l0.3,0.4l0.3-0.4c-1.6-1.3-3.5-2.5-5.6-3.2l-0.2,0.5h0.5V1.8
		L146-15.5l-0.4-0.4l0.3,0.4c1.2-1.1,1.8-2.7,1.8-4.2s-0.6-3.1-1.8-4.3c-1.2-1.2-2.7-1.8-4.3-1.8c-1.5,0-3.1,0.6-4.3,1.8l-8.6,8.6
		V-23c0-3.3-2.7-6-6.1-6c-1.7,0-3.2,0.7-4.3,1.7c-1.1,1.1-1.8,2.6-1.8,4.3v7.6l-8.6-8.6l-0.4,0.4l0.4-0.3c-1.1-1.2-2.7-1.8-4.2-1.8
		s-3.1,0.6-4.3,1.8c-1.2,1.2-1.7,2.7-1.7,4.3c0,1.5,0.6,3.1,1.7,4.3L116.7,2v15H117.3l-0.2-0.5L117.3,17z"/>
</g>
</svg>
