<?xml version="1.0" encoding="utf-8"?>
<!-- Generator: Adobe Illustrator 16.0.0, SVG Export Plug-In . SVG Version: 6.00 Build 0)  -->
<!DOCTYPE svg PUBLIC "-//W3C//DTD SVG 1.1//EN" "http://www.w3.org/Graphics/SVG/1.1/DTD/svg11.dtd">
<svg version="1.1" id="Layer_1" xmlns="http://www.w3.org/2000/svg" xmlns:xlink="http://www.w3.org/1999/xlink" x="0px" y="0px"
	 width="123.9px" height="123.9px" viewBox="60.4 -30.5 123.9 123.9" style="enable-background:new 60.4 -30.5 123.9 123.9;"
	 xml:space="preserve">
<g>
	<path d="M129.2-1.7L129.2-1.7c-4.1,0-10.5,2.5-13.8,3.8l-0.6-3c-0.1-0.6-0.6-1.1-1.3-1.3c-0.1,0-0.3-0.1-0.5-0.1
		c-0.4,0-0.9,0.2-1.3,0.5l-7.1,7.5l4.8-22c0.2-0.7-0.2-1.5-0.8-1.9c-0.3-0.2-0.5-0.2-0.8-0.2c-0.4,0-0.8,0.1-1.1,0.4l-3.6,3.3
		l-5.4-14c-0.2-0.6-0.9-1.4-1.6-1.4c-0.7,0-1.4,0.6-1.6,1.4L89-14.8L85.2-18c-0.3-0.3-0.7-0.4-1.1-0.4c-0.3,0-0.6,0.1-0.8,0.2
		c-0.6,0.4-0.9,1.1-0.8,1.9l4.8,22l-7.2-7.5c-0.3-0.3-0.8-0.5-1.3-0.5c-0.2,0-0.3,0-0.5,0.1c-0.6,0.2-1,0.6-1.3,1.3l-0.6,3
		C73,0.8,66.6-1.7,62.5-1.7c-0.7,0-1.4,0.4-1.6,1c-0.3,0.6-0.1,1.5,0.4,1.9c1.9,1.7,6.4,6.4,8.4,10.1c-1.6,0.5-3.4,1.3-4.3,1.8
		c-0.5,0.3-0.8,1-0.8,1.7c0.1,0.6,0.5,1.3,1.1,1.5c2.1,0.7,11.4,4,15.8,4.9c-1.5,2.1-4.9,6-7.9,9.3c-0.4,0.4-0.6,1-0.4,1.7
		c0.2,0.6,0.6,1,1.3,1.1c0.1,0,0.9,0.2,2.4,0.2c2.2,0,5.7-0.4,10.1-2.7l7.5-3.8v10.1c0,2.8-0.5,7.7,5.8,10.6
		c0.2,0.1,0.4,0.1,0.6,0.1c0.6,0,1.3-0.3,1.5-0.9c0.4-0.8,0-1.8-0.8-2.2c-4.4-2.1-4.9-4.9-4.9-7.6V26.9l7.6,4c3.9,2.5,7.2,3,9.3,3
		c2.1,0,3.4-0.5,3.5-0.5c0.5-0.2,0.9-0.7,1-1.3c0.1-0.5,0-1.1-0.4-1.6c-3-3.2-6.5-7.2-7.9-9.3c4.6-1,13.8-4.2,15.8-4.9
		c0.6-0.2,1-0.7,1.1-1.5c0.1-0.6-0.2-1.3-0.8-1.7c-0.8-0.5-2.7-1.3-4.3-1.8c2-3.6,6.6-8.3,8.3-10.1c0.3-0.3,0.6-0.8,0.6-1.4
		C131-0.8,130.2-1.7,129.2-1.7z"/>
	<path d="M129.2-1.7v-0.5c-2.1,0-4.8,0.6-7.3,1.4c-2.5,0.8-5,1.7-6.6,2.4l0.2,0.5L116,2l-0.6-3l-0.5,0.1l0.5-0.1
		c-0.1-0.8-0.8-1.5-1.7-1.7h-0.1h-0.1v0.3v-0.3v0.3v-0.3c-0.1,0-0.3-0.1-0.5-0.1c-0.6,0-1.1,0.2-1.6,0.6L105.5,4l4.4-20.2l-0.5-0.1
		l0.5,0.1c0-0.2,0.1-0.3,0.1-0.5c0-0.8-0.4-1.5-1.1-1.9c-0.2-0.1-0.4-0.2-0.6-0.2s-0.3,0-0.5,0c-0.5,0-1,0.1-1.5,0.5l0.4,0.4
		l-0.3-0.4l-3.1,2.8l-5.1-13.3l-0.5,0.2l0.5-0.2c-0.1-0.4-0.4-0.8-0.7-1.1c-0.3-0.3-0.8-0.6-1.3-0.6s-1,0.2-1.3,0.5
		c-0.4,0.3-0.6,0.8-0.8,1.3l0.5,0.1L94-28.9l-5.2,13.3l-3.3-2.8L85.2-18l0.4-0.4c-0.4-0.4-1-0.5-1.5-0.5c-0.4,0-0.8,0.1-1,0.3
		c-0.7,0.4-1,1.2-1,2c0,0.1,0,0.2,0,0.4l4.4,20.3l-6-6.2c-0.4-0.4-1-0.6-1.7-0.6c-0.1,0-0.2,0-0.3,0s-0.3,0.1-0.4,0.1l0.2,0.4
		l-0.2-0.5c-0.4,0.1-0.7,0.3-1,0.6c-0.3,0.3-0.5,0.6-0.6,1L75.9,2l0.5,0.1l0.2-0.5C74.9,1,72.4,0,69.9-0.8c-2.6-0.8-5.2-1.4-7.4-1.4
		c-0.4,0-0.9,0.1-1.2,0.3c-0.4,0.2-0.7,0.6-0.8,1L61-0.7l-0.4-0.2c-0.1,0.3-0.2,0.6-0.2,0.9c0,0.6,0.2,1.2,0.7,1.6l0.3-0.4L61,1.6
		c1.9,1.7,6.4,6.4,8.3,10l0.4-0.2l-0.1-0.5c-1.6,0.5-3.5,1.3-4.4,1.8c-0.4,0.2-0.6,0.6-0.8,0.9c-0.2,0.4-0.3,0.8-0.3,1.2
		c0.1,0.4,0.2,0.8,0.4,1.1c0.2,0.3,0.6,0.6,1,0.8c1,0.3,3.9,1.3,7,2.4c3.1,1,6.6,2.1,8.8,2.5l0.1-0.5L81,20.8
		c-1.5,2.1-4.9,6-7.9,9.3l0.4,0.3L73.1,30c-0.4,0.4-0.6,0.9-0.6,1.5c0,0.2,0,0.4,0.1,0.7c0.1,0.4,0.3,0.7,0.6,1
		c0.3,0.3,0.7,0.4,1.1,0.5v-0.3v0.3v-0.3v0.3c0,0,0.3,0.1,0.7,0.1s1,0.1,1.7,0.1c2.3,0,5.9-0.4,10.3-2.8v-0.3l0.2,0.4l6.8-3.4v9.3
		c0,0.4,0,0.8,0,1.3c0,1.4,0.1,3.2,0.9,5c0.8,1.8,2.4,3.5,5.2,4.8l0.2-0.5l-0.2,0.4c0.3,0.2,0.6,0.2,0.8,0.2c0.4,0,0.8-0.1,1.1-0.3
		c0.4-0.2,0.7-0.5,0.8-1l-0.5-0.2l0.4,0.2c0.1-0.3,0.2-0.6,0.2-0.9c0-0.8-0.5-1.6-1.2-2c-2.1-1-3.3-2.2-3.9-3.4
		c-0.6-1.2-0.7-2.5-0.7-3.8v-9.4l6.9,3.6l0.2-0.4l-0.3,0.4c4,2.6,7.4,3.1,9.6,3.1c1.1,0,2-0.1,2.6-0.3c0.3-0.1,0.6-0.1,0.7-0.2
		l0.2-0.1l-0.1-0.3v0.4h0.1l-0.1-0.3v0.4h0.1h0.1c0.7-0.3,1.2-0.9,1.3-1.7l-0.5-0.1l0.5,0.1c0-0.2,0-0.3,0-0.5
		c0-0.5-0.2-1.1-0.5-1.5c-3-3.2-6.5-7.2-7.8-9.2l-0.4,0.3l0.1,0.5c4.7-1,13.8-4.2,15.9-4.9l-0.2-0.5l0.2,0.5c0.4-0.1,0.7-0.4,1-0.7
		c0.2-0.3,0.4-0.7,0.5-1.2l-0.5-0.1l0.5,0.1c0-0.1,0-0.2,0-0.3c0-0.7-0.4-1.4-1-1.9c-0.4-0.3-1.1-0.6-1.9-0.9
		c-0.8-0.3-1.7-0.7-2.5-0.9l-0.1,0.5l0.4,0.2c1-1.7,2.6-3.8,4.2-5.6c1.6-1.8,3.2-3.5,4-4.4l-0.4-0.3l0.4,0.4c0.4-0.4,0.7-1,0.7-1.8
		h-0.5l0.4,0.3c0.2-0.2,0.3-0.5,0.3-0.7c0-0.5-0.3-0.9-0.6-1.1c-0.4-0.3-0.8-0.5-1.3-0.5L129.2-1.7l0.1,0.5c0.3,0,0.5,0.1,0.7,0.2
		s0.2,0.3,0.2,0.4v0.1L130-0.4v0.2c0,0.4-0.2,0.8-0.5,1c-0.8,0.9-2.4,2.5-4.1,4.4c-1.6,1.9-3.3,4-4.3,5.8l-0.3,0.5l0.6,0.2
		c0.8,0.2,1.6,0.6,2.4,0.9c0.8,0.3,1.4,0.6,1.8,0.9l0.3-0.4l-0.3,0.4c0.4,0.3,0.6,0.7,0.6,1.1v0.1c0,0.3-0.1,0.6-0.3,0.7
		c-0.1,0.2-0.3,0.3-0.5,0.4c-2,0.7-11.2,3.9-15.7,4.9l-0.7,0.2l0.4,0.6c1.4,2.2,4.9,6.1,8,9.4l0.4-0.3l-0.4,0.3
		c0.2,0.3,0.3,0.6,0.3,0.9c0,0.1,0,0.2,0,0.3c-0.1,0.4-0.4,0.8-0.7,0.9l0.2,0.5V33c-0.1,0-0.1,0-0.1,0c-0.1,0-0.2,0.1-0.4,0.1
		c-0.5,0.1-1.6,0.4-3,0.4c-2,0-5.2-0.5-9-2.9l-8.4-4.4v11c0,1.4,0.1,2.8,0.9,4.3c0.7,1.4,2.1,2.7,4.3,3.8l0.2-0.5l-0.2,0.4
		c0.4,0.2,0.7,0.7,0.7,1.1c0,0.2,0,0.3-0.1,0.4c-0.1,0.2-0.2,0.3-0.4,0.4s-0.4,0.2-0.7,0.2c-0.2,0-0.3,0-0.4,0
		c-2.6-1.2-4-2.7-4.7-4.3c-0.7-1.6-0.8-3.2-0.8-4.6c0-0.4,0-0.9,0-1.3V26.2l-8.2,4.2c-4.5,2.2-7.9,2.6-10,2.6c-0.7,0-1.3,0-1.7-0.1
		c-0.2,0-0.3,0-0.4-0.1h-0.1h-0.1v0.5l0.1-0.5c-0.3,0-0.4-0.1-0.6-0.2c-0.1-0.1-0.2-0.3-0.3-0.5l-0.5,0.2l0.5-0.1
		c0-0.1-0.1-0.3-0.1-0.4c0-0.3,0.1-0.6,0.3-0.8c3-3.3,6.4-7.2,7.9-9.3l0.4-0.6l-0.8-0.2c-2.2-0.4-5.6-1.5-8.7-2.5c-3.1-1-6-2-7-2.4
		c-0.2-0.1-0.3-0.2-0.5-0.4c-0.1-0.2-0.2-0.5-0.3-0.7L64.5,15H65c0-0.3,0.1-0.6,0.2-0.8c0.1-0.2,0.3-0.4,0.4-0.5l-0.3-0.4l0.2,0.4
		c0.9-0.5,2.6-1.3,4.2-1.8l0.6-0.2L70,11.2C67.9,7.4,63.4,2.7,61.5,1c-0.2-0.1-0.4-0.5-0.4-0.9c0-0.2,0-0.3,0.1-0.4
		c0.1-0.2,0.2-0.3,0.4-0.5C61.8-0.9,62.1-1,62.3-1c2,0,4.6,0.6,7.1,1.4c2.5,0.8,5,1.7,6.7,2.4L76.7,3l0.7-3.6L77-0.9l0.5,0.2
		c0.1-0.3,0.3-0.5,0.4-0.7c0.2-0.2,0.3-0.3,0.6-0.3h0.1c0,0,0.1,0,0.2,0c0.4,0,0.8,0.2,0.9,0.4l0.4-0.4l-0.4,0.3l8.4,8.8L83-16.4
		l-0.5,0.1l0.5-0.1v-0.2c0-0.5,0.2-0.9,0.6-1.2l-0.3-0.4l0.2,0.4c0.1-0.1,0.4-0.2,0.6-0.1c0.3,0,0.6,0.1,0.7,0.3l4.3,3.7L95-28.5
		c0.1-0.3,0.2-0.6,0.5-0.7c0.2-0.2,0.5-0.3,0.7-0.3s0.4,0.1,0.6,0.3c0.2,0.2,0.4,0.5,0.5,0.7l5.7,14.7l4.1-3.8
		c0.2-0.2,0.4-0.3,0.7-0.3c0.2,0,0.2,0,0.3,0c0.1,0,0.1,0,0.2,0.1c0.4,0.2,0.6,0.7,0.6,1.1v0.2l-5.2,23.8l8.3-8.8l-0.4-0.3l0.3,0.4
		c0.3-0.2,0.8-0.4,1-0.4h0.2h0.1c0.1,0,0.1,0,0.2,0v-0.5l-0.1,0.5c0.6,0.2,0.9,0.5,0.9,0.9l0.7,3.6l0.6-0.2c1.6-0.6,4.1-1.6,6.6-2.4
		c2.5-0.8,5.1-1.4,7.1-1.4V-1.7z"/>
	<path d="M150.7,31.7v-9.6H146v9.6c0.8-0.1,1.6-0.1,2.4-0.1C149.2,31.5,150,31.6,150.7,31.7z M137.5,33.9l-4.8-8.3l-4.1,2.4l4.8,8.3
		C134.7,35.4,136.1,34.6,137.5,33.9z M168.1,28l-4.1-2.4l-4.8,8.3c1.4,0.7,2.8,1.4,4.1,2.4L168.1,28z M127.2,42.5l-8.3-4.8l-2.4,4.1
		l8.3,4.8C125.5,45.2,126.3,43.8,127.2,42.5z M148.4,36.2c-11.7,0-21.2,9.5-21.2,21.2s9.5,21.2,21.2,21.2c11.7,0,21.2-9.5,21.2-21.2
		S160.1,36.2,148.4,36.2z M180.2,41.8l-2.4-4.1l-8.3,4.8c0.9,1.3,1.7,2.6,2.4,4.1L180.2,41.8z M159.2,81l4.8,8.3l4.1-2.4l-4.8-8.3
		C162,79.5,160.7,80.3,159.2,81z M169.5,72.4l8.3,4.8l2.4-4.1l-8.3-4.8C171.2,69.8,170.5,71.1,169.5,72.4z M174.2,55.1
		c0.1,0.8,0.1,1.6,0.1,2.4s0,1.6-0.1,2.4h9.6v-4.7h-9.6V55.1z M146,83.3v9.6h4.7v-9.6c-0.8,0.1-1.6,0.1-2.4,0.1
		C147.6,83.4,146.8,83.3,146,83.3z M128.7,86.9l4.1,2.4l4.8-8.3c-1.4-0.7-2.8-1.4-4.1-2.4L128.7,86.9z M122.4,57.5
		c0-0.8,0-1.6,0.1-2.4H113v4.7h9.5C122.5,59,122.4,58.3,122.4,57.5z M116.6,73.1l2.4,4.1l8.3-4.8c-0.9-1.3-1.7-2.6-2.4-4.1
		L116.6,73.1z"/>
	<path d="M150.7,31.7h0.5V21.6h-5.7v10.7l0.6-0.1c0.8-0.1,1.5-0.1,2.3-0.1c0.2,0,0.4,0,0.6,0c0.5,0,1,0.1,1.5,0.1l0.6,0.1v-0.6
		H150.7l0.1-0.5c-0.5-0.1-1.1-0.1-1.7-0.1c-0.2,0-0.5,0-0.8,0l0.1,0.5v-0.5c-0.8,0-1.6,0-2.5,0.1l0.1,0.5h0.5v-9.1h3.7v9.1H150.7
		l0.1-0.5L150.7,31.7z M137.5,33.9l0.4-0.3l-5.1-8.7l-5,2.9l5.3,9.2l0.4-0.3c1.3-0.9,2.7-1.7,4-2.4l0.5-0.2l-0.3-0.5L137.5,33.9
		l-0.2-0.4c-1.4,0.7-2.8,1.5-4.2,2.4l0.3,0.4l0.4-0.3l-4.6-7.9l3.2-1.9l4.5,7.9L137.5,33.9l-0.2-0.4L137.5,33.9z M168.1,28l0.3-0.4
		l-4.5-2.7l-5.3,9.2l0.5,0.2c1.4,0.7,2.8,1.4,4,2.3l0.5,0.3l5.3-9.2l-0.4-0.3L168.1,28l-0.4-0.3l-4.8,8.3l0.4,0.3l0.3-0.4
		c-1.3-1-2.8-1.8-4.2-2.5l-0.2,0.4l0.4,0.3l4.5-7.9l3.7,2.1L168.1,28l-0.4-0.3L168.1,28z M127.2,42.5l0.2-0.4l-8.7-5l-2.9,5l9.2,5.3
		l0.2-0.5c0.7-1.4,1.5-2.8,2.4-4l0.3-0.4l-0.5-0.3L127.2,42.5l-0.4-0.3c-0.9,1.3-1.7,2.7-2.4,4.2l0.4,0.2l0.2-0.4l-7.9-4.5l1.9-3.2
		l7.9,4.6L127.2,42.5l-0.4-0.3L127.2,42.5z M148.4,36.2v-0.5c-12,0-21.7,9.7-21.7,21.7c0,12,9.7,21.7,21.7,21.7s21.7-9.7,21.7-21.7
		c0-12-9.7-21.7-21.7-21.7V36.2v0.5c5.7,0,10.9,2.3,14.6,6.1c3.7,3.7,6.1,8.9,6.1,14.6S166.8,68.3,163,72s-8.9,6.1-14.6,6.1
		c-5.7,0-10.9-2.3-14.6-6.1s-6.1-8.9-6.1-14.6s2.3-10.9,6.1-14.6c3.7-3.7,8.9-6.1,14.6-6.1V36.2z M180.2,41.8l0.4-0.3L178,37
		l-9.2,5.3l0.3,0.4c0.9,1.3,1.7,2.6,2.4,4l0.2,0.5l9.2-5.3l-0.3-0.4L180.2,41.8l-0.2-0.4l-8.3,4.8l0.2,0.4l0.5-0.2
		c-0.7-1.5-1.5-2.9-2.4-4.2l-0.4,0.3l0.2,0.4l7.9-4.6l2.1,3.7L180.2,41.8l-0.2-0.4L180.2,41.8z M159.2,81l-0.4,0.2l5.1,8.7l5-2.9
		l-5.3-9.2l-0.4,0.3c-1.3,0.9-2.6,1.7-4,2.4l-0.5,0.2l0.3,0.5L159.2,81l0.2,0.5c1.5-0.7,2.9-1.5,4.2-2.4l-0.3-0.4l-0.4,0.2l4.6,7.9
		l-3.2,1.9l-4.5-7.9L159.2,81l0.2,0.5L159.2,81z M169.5,72.4l-0.2,0.4l8.7,5l2.9-5l-9.2-5.3l-0.2,0.5c-0.7,1.5-1.4,2.7-2.3,4
		l-0.3,0.5l0.5,0.3L169.5,72.4l0.4,0.3c1-1.3,1.8-2.7,2.5-4.2l-0.5-0.2l-0.2,0.4l7.9,4.5l-1.9,3.2l-7.9-4.6L169.5,72.4l0.4,0.3
		L169.5,72.4z M174.2,55.1l-0.5,0.1c0.1,0.8,0.1,1.5,0.1,2.3s0,1.6-0.1,2.3l-0.1,0.6h10.7v-5.7h-10.1v0.5h0.5v-0.1H174.2l-0.5,0.1
		L174.2,55.1h-0.5v0.1v0.5h9.6v3.7h-9.1v0.5l0.5,0.1c0.1-0.8,0.1-1.7,0.1-2.5s0-1.6-0.1-2.5l-1,0.1H174.2z M146,83.3h-0.5v10.1h5.7
		V82.7l-0.6,0.1c-0.8,0.1-1.5,0.1-2.3,0.1c-0.7,0-1.5-0.1-2.3-0.1h-0.5v0.5H146v0.5c0.8,0,1.6,0.1,2.3,0.1c0.8,0,1.6,0,2.5-0.1
		l-0.1-0.5h-0.5v9.1h-3.7v-9.1H146v0.5V83.3z M128.7,86.9l-0.3,0.4L133,90l5.3-9.2l-0.5-0.2c-1.4-0.7-2.8-1.4-4-2.3l-0.5-0.3
		l-5.3,9.2l0.4,0.3L128.7,86.9l0.4,0.2l4.8-8.3l-0.4-0.2l-0.3,0.4c1.3,1,2.8,1.8,4.2,2.5l0.2-0.4l-0.4-0.2l-4.5,7.9l-3.7-2.1
		L128.7,86.9l0.4,0.2L128.7,86.9z M122.4,57.5h0.5c0-0.8,0-1.6,0.1-2.3l0.1-0.6h-10.6v5.7H123v-0.5c0-0.8-0.1-1.5-0.1-2.3H122.4
		h-0.5c0,0.8,0.1,1.5,0.1,2.3h0.5v-0.5h-9v-3.7h9v-0.5L122,55c-0.1,0.8-0.1,1.7-0.1,2.5H122.4z M116.6,73.1l-0.4,0.3l2.7,4.5
		l9.2-5.3l-0.3-0.4c-0.9-1.3-1.7-2.6-2.4-4l-0.2-0.5L116,73l0.3,0.4L116.6,73.1l0.2,0.4l8.3-4.8l-0.2-0.4l-0.5,0.2
		c0.7,1.5,1.5,2.9,2.4,4.2l0.4-0.3L127,72l-7.9,4.6l-2.1-3.7L116.6,73.1l0.2,0.4L116.6,73.1z"/>
</g>
</svg>
