<?xml version="1.0" encoding="utf-8"?>
<!-- Generator: Adobe Illustrator 16.0.0, SVG Export Plug-In . SVG Version: 6.00 Build 0)  -->
<!DOCTYPE svg PUBLIC "-//W3C//DTD SVG 1.1//EN" "http://www.w3.org/Graphics/SVG/1.1/DTD/svg11.dtd">
<svg version="1.1" id="Layer_1" xmlns="http://www.w3.org/2000/svg" xmlns:xlink="http://www.w3.org/1999/xlink" x="0px" y="0px"
	 width="124.2px" height="124.2px" viewBox="61.5 -28.5 124.2 124.2" style="enable-background:new 61.5 -28.5 124.2 124.2;"
	 xml:space="preserve">
<g>
	<path d="M127.6-11.4V-28h-8.2v16.6c1.4-0.1,2.7-0.2,4.1-0.2C124.9-11.6,126.3-11.5,127.6-11.4z M104.6-7.4l-8.3-14.4l-7.1,4.1
		l8.3,14.4C99.8-4.9,102.1-6.2,104.6-7.4z M158-17.7l-7.1-4.1l-8.4,14.4c2.5,1.2,4.9,2.5,7.1,4.1L158-17.7z M86.6,7.6L72.3-0.9
		l-4.1,7.1l14.4,8.4C83.8,12.1,85.1,9.8,86.6,7.6z M123.6-3.4c-20.4,0-37,16.5-37,37s16.5,37,37,37s37-16.5,37-37S144-3.4,123.6-3.4
		z M179,6.3l-4.1-7.1l-14.4,8.3c1.6,2.2,2.9,4.6,4.1,7.1L179,6.3z M142.5,74.6l8.3,14.4l7.1-4.1l-8.3-14.4
		C147.3,72.1,145,73.3,142.5,74.6z M160.5,59.6l14.4,8.3l4.1-7.1l-14.4-8.3C163.3,55,162.1,57.3,160.5,59.6z M168.6,29.5
		c0.1,1.4,0.2,2.7,0.2,4.1s-0.1,2.8-0.2,4.1h16.6v-8.2H168.6z M119.5,78.6v16.6h8.2V78.6c-1.4,0.1-2.7,0.2-4.1,0.2
		S120.8,78.6,119.5,78.6z M89.1,84.8l7.1,4.1l8.3-14.4c-2.5-1.2-4.9-2.5-7.1-4.1L89.1,84.8z M78.3,33.6c0-1.4,0.1-2.8,0.2-4.1H62
		v8.2h16.6C78.5,36.3,78.3,35,78.3,33.6z M68.1,60.8l4.1,7.1l14.4-8.3c-1.6-2.2-2.9-4.6-4.1-7.1L68.1,60.8z"/>
	<path d="M127.6-11.4h0.5v-17.1h-9.2v17.6h0.5c1.4-0.1,2.7-0.2,4.1-0.2c1.4,0,2.8,0.1,4.1,0.2h0.5v-0.5H127.6v-0.5
		c-1.3-0.1-2.7-0.2-4.1-0.2c-1.4,0-2.7,0.1-4.1,0.2v0.5h0.5v-16.1h7.2v16.1H127.6v-0.5V-11.4z M104.6-7.4l0.4-0.2l-8.6-14.8l-8,4.6
		l8.8,15.3l0.4-0.3c2.3-1.6,4.5-2.9,7-4.1l0.5-0.2L105-7.6L104.6-7.4l-0.2-0.5c-2.5,1.2-4.8,2.5-7.2,4.1l0.3,0.4l0.4-0.2l-8.1-14
		l6.2-3.6l8.1,14L104.6-7.4l-0.2-0.5L104.6-7.4z M158-17.7l0.2-0.4l-7.5-4.3l-8.9,15.3l0.5,0.2c2.5,1.2,4.9,2.5,7,4.1l0.4,0.3
		l8.9-15.3l-0.4-0.3L158-17.7l-0.4-0.3l-8.4,14.4l0.4,0.3l0.3-0.4c-2.2-1.6-4.7-2.9-7.2-4.1l-0.2,0.5l0.4,0.3l8.1-14l6.7,3.9
		L158-17.7l-0.4-0.3L158-17.7z M86.6,7.6l0.3-0.4L72.1-1.6l-4.6,8l15.3,8.9l0.2-0.5c1.2-2.5,2.5-4.8,4-6.9l0.3-0.4l-0.5-0.3
		L86.6,7.6l-0.4-0.3c-1.5,2.2-2.8,4.5-4,7.1l0.5,0.2l0.3-0.4L68.9,6l3.6-6.2L86.3,8L86.6,7.6l-0.4-0.3L86.6,7.6z M123.6-3.4v-0.5
		c-10.3,0-19.7,4.2-26.5,11c-6.8,6.8-11,16.2-11,26.5c0,10.4,4.2,19.8,11,26.5c6.8,6.8,16.2,11,26.5,11c10.3,0,19.8-4.2,26.5-11
		c6.8-6.8,11-16.2,11-26.5c0-10.4-4.2-19.8-11-26.5c-6.8-6.8-16.2-11-26.5-11V-3.4v0.5c10.1,0,19.2,4.1,25.8,10.7
		c6.6,6.6,10.7,15.7,10.7,25.8c0,20.2-16.3,36.5-36.5,36.5c-20.2,0-36.5-16.3-36.5-36.5c0-10.1,4.1-19.2,10.7-25.8
		c6.6-6.6,15.7-10.7,25.8-10.7V-3.4z M179,6.3l0.4-0.2L175-1.4l-15.3,8.8l0.3,0.4c1.6,2.2,2.9,4.5,4.1,7l0.2,0.5l15.3-8.8L179.4,6
		L179,6.3l-0.2-0.4l-14.4,8.3l0.2,0.4l0.5-0.2c-1.2-2.5-2.5-4.9-4.1-7.2l-0.4,0.3l0.2,0.4l14-8.1l3.9,6.7L179,6.3l-0.2-0.4L179,6.3z
		 M142.5,74.6l-0.4,0.2l8.5,14.8l8-4.6l-8.8-15.3l-0.4,0.3c-2.3,1.6-4.5,2.8-7,4.1l-0.5,0.2l0.3,0.5L142.5,74.6l0.2,0.4
		c2.5-1.3,4.8-2.5,7.2-4.1l-0.3-0.4l-0.4,0.2l8.1,14l-6.2,3.6l-8-14L142.5,74.6l0.2,0.4L142.5,74.6z M160.5,59.6l-0.2,0.4l14.8,8.5
		l4.6-8l-15.3-8.8l-0.2,0.5c-1.3,2.5-2.5,4.8-4.1,7l-0.3,0.4l0.5,0.3L160.5,59.6l0.4,0.3c1.6-2.3,2.8-4.7,4.1-7.2l-0.4-0.2l-0.2,0.4
		l14,8l-3.6,6.2l-14-8.1L160.5,59.6l0.4,0.3L160.5,59.6z M168.6,29.5h-0.5c0.1,1.4,0.2,2.7,0.2,4.1s-0.1,2.8-0.2,4.1v0.5h17.6V29
		h-17.6v0.5H168.6V30h16.1v7.2h-16.1v0.5h0.5c0.1-1.3,0.2-2.7,0.2-4.1s-0.1-2.7-0.2-4.1H168.6V30V29.5z M119.5,78.6H119v17.1h9.2
		V78.1h-0.5c-1.4,0.1-2.7,0.2-4.1,0.2s-2.8-0.2-4.1-0.2H119v0.5H119.5v0.5c1.2,0,2.7,0.2,4.1,0.2s2.7-0.1,4.1-0.2v-0.5h-0.5v16.1
		H120V78.6H119.5v0.5V78.6z M89.1,84.8l-0.2,0.4l7.5,4.4l8.8-15.3l-0.5-0.2c-2.5-1.2-4.9-2.5-7-4.1l-0.4-0.3L88.4,85l0.4,0.2
		L89.1,84.8l0.4,0.2l8.3-14.4l-0.4-0.2l-0.3,0.4c2.2,1.6,4.7,2.9,7.2,4.1l0.2-0.5l-0.4-0.2l-8.1,14l-6.7-3.8L89.1,84.8l0.4,0.2
		L89.1,84.8z M78.3,33.6h0.5c0-1.4,0.1-2.8,0.2-4.1V29H61.5v9.2h17.6v-0.5c-0.1-1.4-0.3-2.7-0.3-4.1H78.3h-0.5
		c0,1.4,0.2,2.8,0.3,4.1h0.5v-0.5H62.5V30h16v-0.5H78c-0.1,1.3-0.2,2.7-0.2,4.1H78.3z M68.1,60.8L67.7,61l4.3,7.5l15.3-8.8L87,59.3
		c-1.6-2.2-2.9-4.5-4.1-7l-0.2-0.5l-15.3,8.8l0.3,0.4L68.1,60.8l0.2,0.4l14.4-8.3l-0.2-0.4L82,52.7c1.2,2.5,2.5,4.9,4.1,7.2l0.4-0.3
		l-0.2-0.4l-14,8.1l-3.9-6.7L68.1,60.8l0.2,0.4L68.1,60.8z"/>
</g>
</svg>
