<?xml version="1.0" encoding="utf-8"?>
<!-- Generator: Adobe Illustrator 16.0.0, SVG Export Plug-In . SVG Version: 6.00 Build 0)  -->
<!DOCTYPE svg PUBLIC "-//W3C//DTD SVG 1.1//EN" "http://www.w3.org/Graphics/SVG/1.1/DTD/svg11.dtd">
<svg version="1.1" id="Layer_1" xmlns="http://www.w3.org/2000/svg" xmlns:xlink="http://www.w3.org/1999/xlink" x="0px" y="0px"
	 width="123px" height="124.5px" viewBox="62.3 -28.7 123 124.5" style="enable-background:new 62.3 -28.7 123 124.5;"
	 xml:space="preserve">
<style type="text/css">
<![CDATA[
	.st0{fill:#FF00FF;}
	.st1{fill:#333333;}
]]>
</style>
<g>
	<path class="st1" d="M100.6-19v-9.7h-4.8v9.7c0.8-0.1,1.6-0.1,2.4-0.1C99.1-19.1,99.9-19.1,100.6-19z M87.2-16.7l-4.9-8.4l-4.1,2.4
		l4.9,8.4C84.4-15.2,85.8-16,87.2-16.7z M118.3-22.7l-4.1-2.4l-4.8,8.4c1.5,0.7,2.8,1.5,4.1,2.4L118.3-22.7z M76.8-8l-8.4-4.8
		L66-8.7l8.4,4.9C75-5.3,75.8-6.7,76.8-8z M98.2-14.4c-11.9,0-21.5,9.7-21.5,21.6c0,11.9,9.6,21.5,21.5,21.5
		c11.9,0,21.5-9.6,21.5-21.5C119.7-4.7,110.1-14.4,98.2-14.4z M130.5-8.7l-2.4-4.1L119.7-8c0.9,1.3,1.7,2.7,2.4,4.1L130.5-8.7z
		 M109.3,31.1l4.9,8.4l4.1-2.4l-4.8-8.4C112.1,29.6,110.7,30.4,109.3,31.1z M119.7,22.4l8.4,4.8l2.4-4.1l-8.4-4.9
		C121.5,19.7,120.7,21.1,119.7,22.4z M124.5,4.8c0.1,0.8,0.1,1.6,0.1,2.4c0,0.8-0.1,1.6-0.1,2.4h9.7V4.8H124.5z M95.9,33.4v9.7h4.8
		v-9.7c-0.8,0.1-1.6,0.1-2.4,0.1C97.4,33.5,96.6,33.5,95.9,33.4z M78.2,37.1l4.1,2.4l4.9-8.4c-1.5-0.7-2.8-1.5-4.1-2.4L78.2,37.1z
		 M71.9,7.2c0-0.8,0.1-1.6,0.1-2.4h-9.7v4.8H72C72,8.8,71.9,8,71.9,7.2z M66,23.1l2.4,4.1l8.4-4.8c-0.9-1.3-1.7-2.7-2.4-4.1L66,23.1
		z"/>
	<path class="st0" d="M100.6-19h0.5v-10.2h-5.8v10.8l0.6-0.1c0.8-0.1,1.5-0.1,2.3-0.1c0.9,0,1.7,0,2.3,0.1l0.6,0.1V-19H100.6
		l0.1-0.5c-0.8-0.1-1.6-0.1-2.5-0.1c-0.8,0-1.6,0-2.5,0.1l0.1,0.5h0.5v-9.2h3.8v9.2H100.6l0.1-0.5L100.6-19z M87.2-16.7l0.4-0.3
		l-5.2-8.8l-5,2.9l5.4,9.3l0.4-0.3c1.3-0.9,2.7-1.7,4-2.4l0.5-0.2L87.6-17L87.2-16.7L87-17.1c-1.4,0.7-2.8,1.5-4.2,2.4l0.3,0.4
		l0.4-0.3l-4.6-8l3.2-1.9l4.6,8L87.2-16.7L87-17.1L87.2-16.7z M118.3-22.7l0.3-0.4l-4.5-2.7l-5.3,9.3l0.5,0.2c1.5,0.7,2.7,1.5,4,2.4
		l0.4,0.3l5.3-9.3l-0.4-0.2L118.3-22.7l-0.4-0.2l-4.8,8.4l0.4,0.2l0.3-0.4c-1.3-0.9-2.6-1.7-4.2-2.4l-0.2,0.5l0.4,0.2l4.5-8l3.7,2.1
		L118.3-22.7l-0.4-0.2L118.3-22.7z M76.8-8L77-8.4l-8.8-5l-2.9,5l9.3,5.4l0.2-0.5c0.6-1.5,1.4-2.8,2.3-4.1l0.3-0.5L77-8.4L76.8-8
		l-0.4-0.3c-1,1.3-1.9,2.8-2.5,4.3l0.5,0.2l0.3-0.4l-8-4.6l1.9-3.2l8,4.6L76.8-8l-0.4-0.3L76.8-8z M98.2-14.4v-0.5
		c-6.1,0-11.6,2.5-15.6,6.5c-4,4-6.4,9.5-6.4,15.6s2.5,11.6,6.4,15.6c4,4,9.5,6.4,15.6,6.4c6.1,0,11.6-2.5,15.6-6.4
		c4-4,6.4-9.5,6.4-15.6c0-12.2-9.8-22.1-22-22.1V-14.4v0.5c5.8,0,11.1,2.4,14.9,6.2c3.8,3.8,6.1,9.1,6.1,14.9c0,11.6-9.4,21-21,21
		c-11.6,0-21-9.4-21-21c0-5.8,2.3-11.1,6.1-14.9c3.8-3.8,9-6.2,14.9-6.2V-14.4z M130.5-8.7l0.4-0.3l-2.7-4.5L119-8.2l0.3,0.4
		c0.9,1.3,1.7,2.7,2.4,4l0.2,0.5l9.3-5.3L130.9-9L130.5-8.7l-0.2-0.4l-8.4,4.8l0.2,0.4l0.4-0.2c-0.7-1.4-1.5-2.8-2.4-4.2L119.7-8
		l0.2,0.4l8-4.6l2.2,3.7L130.5-8.7l-0.2-0.4L130.5-8.7z M109.3,31.1l-0.4,0.3l5.2,8.8l5-2.9l-5.3-9.3l-0.4,0.3
		c-1.4,0.9-2.8,1.7-4.2,2.4l-0.5,0.2l0.3,0.5L109.3,31.1l0.2,0.4c1.4-0.7,2.8-1.5,4.2-2.4l-0.3-0.4l-0.4,0.2l4.6,8l-3.2,1.9l-4.6-8
		L109.3,31.1l0.2,0.4L109.3,31.1z M119.7,22.4l-0.2,0.4l8.8,5l2.9-5l-9.3-5.4l-0.2,0.5c-0.6,1.5-1.4,2.8-2.3,4.1l-0.3,0.5l0.5,0.3
		L119.7,22.4l0.4,0.3c1-1.3,1.9-2.8,2.5-4.3l-0.5-0.2l-0.3,0.4l8,4.6l-1.9,3.2l-8-4.6L119.7,22.4l0.4,0.3L119.7,22.4z M124.5,4.8
		L124,4.9c0.1,0.8,0.1,1.5,0.1,2.3c0,0.8-0.1,1.6-0.1,2.4v0.5h10.7V4.3h-10.8l0.1,0.6L124.5,4.8v0.5h9.2v3.8h-9.2v0.5h0.5
		c0-0.8,0.1-1.6,0.1-2.4c0-0.8,0-1.6-0.1-2.5L124.5,4.8v0.5V4.8z M95.9,33.4h-0.5v10.2h5.8V32.8l-0.6,0.1C99.9,33,99.1,33,98.3,33
		c-0.9,0-1.7,0-2.3-0.1l-0.6-0.1v0.6H95.9l-0.1,0.5c0.8,0.1,1.6,0.1,2.5,0.1c0.8,0,1.6,0,2.5-0.1l-0.1-0.5h-0.5v9.2h-3.8v-9.2H95.9
		l-0.1,0.5L95.9,33.4z M78.2,37.1l-0.3,0.4l4.5,2.7l5.4-9.3l-0.5-0.2c-1.5-0.7-2.7-1.5-4-2.4L82.9,28l-5.4,9.3l0.4,0.3L78.2,37.1
		l0.4,0.3l4.9-8.4l-0.4-0.3l-0.3,0.4c1.3,0.9,2.6,1.7,4.2,2.4l0.2-0.5l-0.4-0.3l-4.6,8l-3.7-2.1L78.2,37.1l0.4,0.3L78.2,37.1z
		 M71.9,7.2h0.5c0-0.8,0.1-1.6,0.1-2.4V4.3H61.8v5.8h10.7V9.6c0-0.8-0.1-1.6-0.1-2.4H71.9h-0.5c0,0.8,0.1,1.6,0.1,2.4H72V9.1h-9.2
		V5.3H72V4.8h-0.5c0,0.8-0.1,1.6-0.1,2.4H71.9z M66,23.1l-0.4,0.3l2.7,4.5l9.3-5.3l-0.3-0.4c-0.9-1.3-1.7-2.7-2.4-4l-0.2-0.5
		l-9.3,5.3l0.3,0.4L66,23.1l0.2,0.4l8.4-4.8l-0.2-0.4L74,18.5c0.7,1.4,1.5,2.8,2.4,4.2l0.4-0.3L76.6,22l-8,4.6l-2.2-3.7L66,23.1
		l0.2,0.4L66,23.1z"/>
	<path class="st1" d="M175.3,53.9c-2.5,0-4.8,0.3-7,0.7c1.9-1.3,3.8-2.8,5.4-4.5c9.4-9.3-1.6-20.3-10.9-10.9
		c-1.7,1.7-3.2,3.6-4.5,5.4c0.4-2.2,0.7-4.5,0.7-7c0-13.3-15.5-13.3-15.5,0c0,2.5,0.3,4.8,0.7,7c-1.3-1.9-2.8-3.8-4.5-5.4
		c-9.4-9.4-20.4,1.6-11,10.9c1.7,1.7,3.6,3.2,5.4,4.5c-2.2-0.4-4.5-0.7-7-0.7c-13.3,0-13.3,15.5,0,15.5c2.5,0,4.8-0.3,7-0.7
		c-1.9,1.3-3.8,2.8-5.4,4.5c-9.4,9.4,1.6,20.4,10.9,11c1.7-1.7,3.2-3.6,4.5-5.4c-0.4,2.2-0.7,4.5-0.7,7c0,13.3,15.5,13.3,15.5,0
		c0-2.5-0.3-4.8-0.7-7c1.3,1.9,2.8,3.8,4.5,5.4c9.4,9.4,20.4-1.6,11-10.9c-1.7-1.7-3.6-3.2-5.4-4.5c2.2,0.4,4.5,0.7,7,0.7
		C188.6,69.6,188.6,53.9,175.3,53.9z M145.2,56.1c3.5-3.5,9.3-3.5,12.7,0c3.3,3.3,3.5,8.4,0.7,12c-1.6,1.9-4.1,3-6.7,3
		c-5.1,0-9.1-4.1-9.1-9.1c0-2.2,0.7-4.1,2-5.6C145,56.3,145,56.1,145.2,56.1z"/>
	<path class="st0" d="M175.3,53.9v-0.5c-2.5,0-4.9,0.3-7.1,0.7l0.1,0.5l0.3,0.4c1.9-1.3,3.8-2.8,5.5-4.6l-0.4-0.3l0.4,0.4
		c2.6-2.6,3.7-5.3,3.7-7.8c0-2.1-0.8-4-2.2-5.4c-1.4-1.4-3.2-2.2-5.4-2.2c-2.5,0-5.2,1.1-7.8,3.7l0,0c-1.7,1.7-3.2,3.6-4.6,5.5
		l0.4,0.3l0.5,0.1c0.4-2.2,0.7-4.5,0.7-7.1c0-3.4-1-6-2.5-7.8c-1.5-1.8-3.6-2.7-5.7-2.7c-2.1,0-4.2,0.9-5.7,2.7
		c-1.5,1.8-2.5,4.4-2.5,7.8c0,2.5,0.3,4.9,0.7,7.1l0.5-0.1l0.4-0.3c-1.3-1.9-2.8-3.8-4.6-5.5l-0.3,0.4l0.4-0.4
		c-2.6-2.6-5.4-3.7-7.9-3.7c-2.1,0-4,0.8-5.4,2.2c-1.4,1.4-2.2,3.2-2.2,5.4c0,2.5,1.1,5.2,3.7,7.8l0,0c1.7,1.7,3.6,3.2,5.5,4.6
		l0.3-0.4l0.1-0.5c-2.2-0.4-4.5-0.7-7.1-0.7c-3.4,0-6,1-7.8,2.5c-1.8,1.5-2.7,3.6-2.7,5.7c0,2.1,0.9,4.2,2.7,5.7
		c1.8,1.5,4.4,2.5,7.8,2.5c2.5,0,4.9-0.3,7.1-0.7l-0.1-0.5l-0.3-0.4c-1.9,1.3-3.8,2.8-5.5,4.6l0.4,0.3l-0.4-0.4
		c-2.6,2.6-3.7,5.4-3.7,7.9c0,2.1,0.8,4,2.2,5.4c1.4,1.4,3.2,2.2,5.4,2.2c2.5,0,5.2-1.1,7.8-3.7l0,0c1.7-1.7,3.2-3.6,4.6-5.5
		l-0.4-0.3l-0.5-0.1c-0.4,2.2-0.7,4.5-0.7,7.1c0,3.4,1,6,2.5,7.8c1.5,1.8,3.6,2.7,5.7,2.7c2.1,0,4.2-0.9,5.7-2.7
		c1.5-1.8,2.5-4.4,2.5-7.8c0-2.5-0.3-4.9-0.7-7.1l-0.5,0.1l-0.4,0.3c1.3,1.9,2.8,3.8,4.6,5.5l0.3-0.4l-0.4,0.4
		c2.6,2.6,5.4,3.7,7.9,3.7c2.1,0,4-0.8,5.4-2.2c1.4-1.4,2.2-3.2,2.2-5.4c0-2.5-1.1-5.2-3.7-7.8l0,0c-1.7-1.7-3.6-3.2-5.5-4.6
		l-0.3,0.4l-0.1,0.5c2.2,0.4,4.5,0.7,7.1,0.7h0h0.1c3.4,0,6-1,7.7-2.5c1.7-1.5,2.6-3.6,2.6-5.7c0-2.1-0.9-4.2-2.7-5.8
		c-1.8-1.6-4.4-2.6-7.8-2.6V53.9v0.5c3.2,0,5.6,0.9,7.1,2.3c1.6,1.4,2.3,3.2,2.3,5c0,1.8-0.8,3.6-2.3,5c-1.5,1.4-3.9,2.3-7.1,2.3
		h-0.1h0h0c-2.5,0-4.7-0.3-6.9-0.7l-2.2-0.4l1.8,1.3c1.8,1.3,3.7,2.8,5.3,4.4l0,0l0,0c2.5,2.4,3.4,4.9,3.4,7.1
		c0,3.7-2.8,6.5-6.6,6.5c-2.2,0-4.7-1-7.2-3.4l0,0l0,0c-1.7-1.6-3.1-3.4-4.4-5.3l-1.3-1.9l0.4,2.3c0.4,2.2,0.7,4.5,0.7,6.9
		c0,3.2-0.9,5.6-2.3,7.2c-1.4,1.6-3.2,2.3-5,2.3c-1.8,0-3.6-0.8-5-2.3c-1.4-1.6-2.3-3.9-2.3-7.2c0-2.5,0.3-4.7,0.7-6.9l0.4-2.2
		l-1.3,1.8c-1.3,1.8-2.8,3.7-4.4,5.3l0,0c-2.4,2.5-4.9,3.4-7.1,3.4c-3.7,0-6.5-2.8-6.5-6.6c0-2.2,1-4.7,3.4-7.2l0,0l0,0
		c1.6-1.7,3.4-3.1,5.3-4.4l1.9-1.3l-2.3,0.4c-2.2,0.4-4.5,0.7-6.9,0.7c-3.2,0-5.6-0.9-7.2-2.3c-1.6-1.4-2.3-3.2-2.3-5
		c0-1.8,0.8-3.6,2.3-5c1.6-1.4,3.9-2.3,7.2-2.3c2.5,0,4.7,0.3,6.9,0.7l2.2,0.4l-1.8-1.3c-1.8-1.3-3.7-2.8-5.3-4.4l0,0
		c-2.5-2.4-3.4-4.9-3.4-7.1c0-3.7,2.8-6.5,6.6-6.5c2.2,0,4.7,1,7.2,3.4l0,0l0,0c1.7,1.6,3.1,3.4,4.4,5.3l1.3,1.9l-0.4-2.3
		c-0.4-2.2-0.7-4.5-0.7-6.9c0-3.2,0.9-5.6,2.3-7.2c1.4-1.6,3.2-2.3,5-2.3c1.8,0,3.6,0.8,5,2.3c1.4,1.6,2.3,3.9,2.3,7.2
		c0,2.5-0.3,4.7-0.7,6.9l-0.4,2.2l1.3-1.8c1.3-1.8,2.8-3.7,4.4-5.3l0,0l0,0c2.4-2.5,4.9-3.4,7.1-3.4c3.7,0,6.5,2.8,6.5,6.5
		c0,2.2-1,4.7-3.4,7.1l0,0l0,0c-1.6,1.7-3.4,3.1-5.3,4.4l-1.9,1.3l2.3-0.4c2.2-0.4,4.5-0.7,6.9-0.7V53.9z M145.2,56.1l0.4,0.4
		c1.7-1.7,3.8-2.5,6-2.5c2.2,0,4.4,0.8,6,2.5l0,0l0,0c1.7,1.7,2.5,3.8,2.5,6c0,1.9-0.6,3.8-1.8,5.3l0.4,0.3l-0.4-0.3
		c-1.5,1.8-3.9,2.8-6.3,2.8c-4.8,0-8.6-3.9-8.6-8.6c0-2.1,0.7-3.9,1.9-5.3l-0.4-0.3l0.2,0.4c0.2-0.1,0.3-0.3,0.4-0.3l0,0l-0.1-0.1
		l0.1,0.1l0,0l-0.1-0.1l0.1,0.1l-0.2-0.2v0.3l0.2-0.1l-0.2-0.2v0.3h0.2l0.1-0.1L145.2,56.1v-0.5c-0.1,0-0.3,0-0.4,0.1
		c-0.2,0.1-0.2,0.2-0.2,0.2l0,0l0.1,0.1l0-0.1l0,0l0.1,0.1l0-0.1l-0.1,0l-0.1,0.1c-1.4,1.6-2.1,3.6-2.1,5.9c0,2.6,1.1,5,2.8,6.8
		s4.1,2.8,6.8,2.8c2.7,0,5.4-1.2,7.1-3.2l0,0l0,0c1.4-1.8,2.1-3.9,2.1-5.9c0-2.4-0.9-4.8-2.8-6.7l-0.4,0.4l0.4-0.3
		c-1.8-1.9-4.2-2.8-6.7-2.8c-2.4,0-4.9,0.9-6.7,2.8L145.2,56.1v-0.5V56.1z"/>
</g>
</svg>
