<?xml version="1.0" encoding="utf-8"?>
<!-- Generator: Adobe Illustrator 16.0.0, SVG Export Plug-In . SVG Version: 6.00 Build 0)  -->
<!DOCTYPE svg PUBLIC "-//W3C//DTD SVG 1.1//EN" "http://www.w3.org/Graphics/SVG/1.1/DTD/svg11.dtd">
<svg version="1.1" id="Layer_1" xmlns="http://www.w3.org/2000/svg" xmlns:xlink="http://www.w3.org/1999/xlink" x="0px" y="0px"
	 width="118.9px" height="122.3px" viewBox="61 -29.9 118.9 122.3" style="enable-background:new 61 -29.9 118.9 122.3;"
	 xml:space="preserve">
<g>
	<path d="M127.1-2.1L127.1-2.1c-3.9,0-10.1,2.4-13.2,3.6l-0.6-2.9c-0.1-0.6-0.6-1.1-1.2-1.2c-0.1,0-0.3-0.1-0.5-0.1
		c-0.4,0-0.9,0.2-1.2,0.5L103.5,5l4.6-21.1c0.2-0.7-0.2-1.4-0.8-1.8c-0.3-0.2-0.5-0.2-0.8-0.2c-0.4,0-0.8,0.1-1.1,0.4l-3.5,3.2
		L96.7-28c-0.2-0.6-0.9-1.3-1.5-1.3c-0.7,0-1.3,0.6-1.5,1.3l-5.3,13.3l-3.6-3.1c-0.3-0.3-0.7-0.4-1.1-0.4c-0.3,0-0.6,0.1-0.8,0.2
		c-0.6,0.4-0.9,1.1-0.8,1.8L86.7,5l-6.9-7.2c-0.3-0.3-0.8-0.5-1.2-0.5c-0.2,0-0.3,0-0.5,0.1c-0.6,0.2-1,0.6-1.2,1.2l-0.6,2.9
		C73.2,0.2,67-2.1,63.1-2.1c-0.7,0-1.3,0.4-1.5,1c-0.3,0.6-0.1,1.4,0.4,1.8c1.8,1.6,6.1,6.1,8.1,9.7c-1.5,0.5-3.3,1.2-4.1,1.7
		c-0.5,0.3-0.8,1-0.8,1.6c0.1,0.6,0.5,1.2,1.1,1.4c2,0.7,10.9,3.8,15.2,4.7c-1.4,2-4.7,5.8-7.6,8.9c-0.4,0.4-0.6,1-0.4,1.6
		c0.2,0.6,0.6,1,1.2,1.1c0.1,0,0.9,0.2,2.3,0.2c2.1,0,5.5-0.4,9.7-2.6l7.2-3.6V35c0,2.7-0.5,7.4,5.6,10.2c0.2,0.1,0.4,0.1,0.6,0.1
		c0.6,0,1.2-0.3,1.4-0.9c0.4-0.8,0-1.7-0.8-2.1c-4.2-2-4.7-4.7-4.7-7.3v-9.8l7.3,3.8c3.7,2.4,6.9,2.9,8.9,2.9s3.3-0.5,3.4-0.5
		c0.5-0.2,0.9-0.7,1-1.2c0.1-0.5,0-1.1-0.4-1.5c-2.9-3.1-6.2-6.9-7.6-8.9c4.4-1,13.2-4,15.2-4.7c0.6-0.2,1-0.7,1.1-1.4
		c0.1-0.6-0.2-1.2-0.8-1.6c-0.8-0.5-2.6-1.2-4.1-1.7c1.9-3.5,6.3-8,8-9.7c0.3-0.3,0.6-0.8,0.6-1.3C128.8-1.4,128-2.1,127.1-2.1z"/>
	<path d="M127.1-2.1v-0.5c-2,0-4.6,0.6-7,1.4c-2.4,0.8-4.8,1.7-6.3,2.3l0.2,0.5l0.5-0.1l-0.6-2.9l-0.5,0.1l0.5-0.1
		c-0.1-0.8-0.8-1.5-1.6-1.6v0.3V-3v0.3V-3c-0.1,0-0.3-0.1-0.5-0.1c-0.6,0-1.1,0.2-1.6,0.6l-5.7,5.9l4.2-19.4l-0.5-0.1l0.5,0.1
		c0-0.2,0.1-0.3,0.1-0.5c0-0.8-0.5-1.4-1.1-1.8c-0.2-0.1-0.4-0.2-0.6-0.2s-0.3,0-0.5,0c-0.5,0-1,0.1-1.5,0.5l0.4,0.4l-0.3-0.4
		l-3,2.7l-4.9-12.8L96.7-28l0.5-0.2c-0.1-0.4-0.4-0.8-0.7-1.1c-0.3-0.3-0.7-0.5-1.2-0.6c-0.5,0-0.9,0.2-1.3,0.5
		c-0.3,0.3-0.6,0.7-0.7,1.1l0.5,0.1l-0.5-0.2l-5,12.6l-3.1-2.6L84.9-18l0.4-0.4c-0.4-0.4-1-0.5-1.5-0.5c-0.4,0-0.8,0.1-1,0.3
		c-0.7,0.4-1,1.2-1,2c0,0.1,0,0.2,0,0.3L86,3.2l-5.7-5.9c-0.4-0.4-1-0.6-1.6-0.6c-0.1,0-0.2,0-0.3,0c-0.1,0-0.3,0.1-0.4,0.1l0.2,0.4
		L78-3.3c-0.7,0.2-1.3,0.8-1.5,1.5l-0.6,2.9l0.5,0.1L76.5,1c-1.6-0.7-3.9-1.6-6.3-2.3c-2.5-0.7-5-1.3-7-1.3c-0.9,0-1.7,0.5-2,1.3
		l0.5,0.2l-0.4-0.2C61-1.1,61-0.8,61-0.5c0,0.6,0.3,1.2,0.7,1.6L62,0.7l-0.3,0.4c1.8,1.6,6.1,6.1,8,9.6l0.4-0.2L69.9,10
		c-0.8,0.3-1.6,0.6-2.3,0.9c-0.8,0.3-1.4,0.6-1.9,0.9l0.3,0.4l-0.3-0.4c-0.4,0.2-0.6,0.5-0.8,0.9c-0.2,0.4-0.3,0.7-0.3,1.1
		c0.1,0.7,0.6,1.5,1.4,1.8l0.2-0.5L66,15.6c2,0.7,10.9,3.8,15.3,4.7l0.1-0.5L81,19.5c-1.4,2-4.7,5.8-7.6,8.8l0.4,0.3l-0.4-0.4
		c-0.4,0.4-0.6,0.9-0.6,1.5c0,0.2,0,0.4,0.1,0.6c0.1,0.4,0.3,0.7,0.6,0.9c0.3,0.3,0.6,0.4,1,0.5v-0.3v0.3v-0.3v0.3
		c0,0,0.3,0.1,0.7,0.1c0.4,0,0.9,0.1,1.6,0.1c2.2,0,5.7-0.4,9.9-2.7V29l0.2,0.4l6.5-3.2V35c0,0.4,0,0.8,0,1.2c0,1.4,0.1,3.1,0.9,4.8
		s2.3,3.4,5,4.6l0.2-0.5l-0.2,0.4c0.3,0.2,0.6,0.2,0.8,0.2c0.4,0,0.8-0.1,1.1-0.3c0.3-0.2,0.6-0.5,0.8-0.9l-0.5-0.2l0.4,0.2
		c0.1-0.3,0.2-0.6,0.2-0.9c0-0.8-0.5-1.5-1.2-1.9c-2-1-3.1-2.1-3.7-3.2c-0.6-1.1-0.7-2.4-0.7-3.6v-9l6.6,3.4l0.2-0.4l-0.3,0.4
		c3.8,2.5,7.1,3,9.2,3c1,0,1.9-0.1,2.5-0.3c0.3-0.1,0.6-0.1,0.7-0.2l0.2-0.1l-0.1-0.3v0.4h0.1l-0.1-0.3v0.4h0.1h0.1
		c0.7-0.3,1.2-0.9,1.3-1.6c0-0.2,0-0.3,0-0.5c0-0.5-0.2-1.1-0.6-1.5l-0.4,0.4l0.4-0.3c-2.9-3.1-6.2-6.9-7.6-8.8l-0.4,0.3l0.1,0.5
		c4.5-1,13.2-4,15.3-4.7l-0.2-0.5l0.2,0.5c0.8-0.3,1.3-1,1.4-1.8l-0.5-0.1l0.5,0.1c0-0.1,0-0.2,0-0.3c0-0.7-0.4-1.4-1-1.8
		c-0.5-0.3-1.1-0.6-1.9-0.9c-0.8-0.3-1.6-0.6-2.3-0.9l-0.2,0.5l0.4,0.2c1.8-3.4,6.2-7.9,7.9-9.6c0.4-0.4,0.7-1,0.7-1.7h-0.5l0.5,0.1
		c0-0.1,0-0.2,0-0.4c0-0.5-0.3-1-0.7-1.3c-0.4-0.3-0.9-0.5-1.4-0.5v0.6v0.5c0.3,0,0.6,0.1,0.8,0.3c0.2,0.2,0.3,0.3,0.3,0.5v0.1v0.1
		v0.1c0,0.3-0.2,0.7-0.5,0.9c-1.7,1.7-6.1,6.2-8.1,9.8l-0.3,0.5l0.6,0.2c0.7,0.2,1.6,0.5,2.3,0.8c0.7,0.3,1.4,0.6,1.7,0.8l0.3-0.4
		l-0.3,0.4c0.4,0.3,0.6,0.6,0.6,1v0.1c-0.1,0.5-0.3,0.8-0.8,1c-2,0.7-10.8,3.7-15.1,4.7l-0.7,0.2l0.4,0.6c1.4,2,4.7,5.8,7.6,9
		c0.2,0.2,0.3,0.5,0.3,0.8c0,0.1,0,0.2,0,0.3c-0.1,0.3-0.4,0.7-0.7,0.8l0.2,0.5V31c-0.1,0-0.1,0-0.1,0c-0.1,0-0.2,0.1-0.4,0.1
		c-0.5,0.1-1.5,0.4-2.9,0.4c-1.9,0-5-0.5-8.6-2.8l-8.1-4.2V35c0,1.3,0.1,2.7,0.8,4.1s2,2.6,4.2,3.6l0.2-0.5l-0.2,0.4
		c0.4,0.2,0.7,0.6,0.7,1c0,0.1,0,0.3-0.1,0.4c-0.1,0.2-0.2,0.3-0.3,0.4c-0.2,0.1-0.4,0.2-0.6,0.2c-0.2,0-0.3,0-0.4,0
		C97,43.4,95.7,42,95,40.5s-0.8-3-0.8-4.4c0-0.4,0-0.9,0-1.2V24.6l-7.9,4c-4.1,2.2-7.4,2.5-9.5,2.5c-0.7,0-1.2,0-1.6-0.1
		c-0.2,0-0.3,0-0.4-0.1h-0.1h-0.1v0.5l0.1-0.5c-0.2,0-0.4-0.1-0.5-0.2c-0.1-0.1-0.2-0.3-0.3-0.5c0-0.1-0.1-0.2-0.1-0.3
		c0-0.3,0.1-0.6,0.3-0.8c2.9-3.1,6.2-6.9,7.6-9l0.4-0.6l-0.7-0.2c-4.2-0.9-13.1-4-15.1-4.7c-0.4-0.1-0.7-0.6-0.8-1L65,13.7h0.5
		c0-0.2,0.1-0.5,0.2-0.7c0.1-0.2,0.3-0.4,0.4-0.5c0.3-0.2,1-0.5,1.7-0.8c0.7-0.3,1.5-0.6,2.3-0.8l0.6-0.2l-0.3-0.5
		C68.3,6.5,64,2,62.2,0.4C62.1,0.2,62-0.2,62-0.5c0-0.1,0-0.3,0.1-0.4c0.1-0.4,0.5-0.7,1-0.7c1.9,0,4.4,0.6,6.8,1.3
		c2.4,0.7,4.7,1.6,6.3,2.3l0.6,0.2l0.7-3.5L77-1.4l0.5,0.2c0.2-0.5,0.4-0.7,0.9-0.9h0.1c0,0,0.1,0,0.2,0c0.2,0,0.7,0.2,0.8,0.4
		l0.4-0.4l-0.4,0.3l8.1,8.5l-5-22.9l-0.5,0.1l0.5-0.1v-0.2c0-0.4,0.2-0.9,0.6-1.1L82.9-18l0.2,0.4c0.1-0.1,0.4-0.2,0.6-0.1
		c0.3,0,0.6,0.1,0.7,0.3l4.1,3.6l5.6-14c0.1-0.3,0.2-0.5,0.4-0.7s0.4-0.3,0.6-0.3c0.1,0,0.3,0.1,0.6,0.3c0.2,0.2,0.4,0.5,0.5,0.7
		l5.5,14.2l4-3.7c0.2-0.2,0.4-0.3,0.7-0.3c0.2,0,0.2,0,0.3,0c0.1,0,0.1,0,0.2,0.1c0.4,0.3,0.6,0.7,0.6,1v0.2l-5,22.8l8.1-8.5
		l-0.4-0.3l0.4,0.4c0.2-0.2,0.6-0.4,0.8-0.4h0.2h0.1c0.1,0,0.1,0,0.2,0v-0.5l0.1,0.7c0.4,0.1,0.7,0.4,0.8,0.8l0.7,3.5l0.6-0.2
		c1.5-0.6,3.9-1.5,6.3-2.2c2.4-0.7,4.9-1.3,6.8-1.3v-0.6H127.1z"/>
	<path d="M144.8,51.1V43l-9.2-9.2c-1.1-1.1-1.1-3,0-4.1c1.2-1.2,3-1.2,4.1,0l5,5V30c0-1.6,1.3-2.9,2.9-2.9c1.6,0,2.9,1.3,2.9,2.9
		v4.7l5-5c1.1-1.1,3-1.1,4.1,0c1.1,1.1,1.1,3,0,4.1l-9.2,9.2v8.1c1,0.4,2,0.9,2.8,1.6l7-4l3.4-12.5c0.4-1.5,2-2.5,3.6-2
		c1.6,0.4,2.5,2,2.1,3.6l-1.8,6.9l4-2.3c1.4-0.8,3.2-0.3,4,1.1s0.3,3.2-1.1,4l-4,2.3l6.9,1.8c1.5,0.4,2.5,2,2,3.6
		c-0.4,1.6-2,2.5-3.6,2.1l-12.3-3.5l-7,4.1c0.1,0.5,0.1,1,0.1,1.6s-0.1,1.1-0.2,1.7l7.1,4.1l12.5-3.4c1.5-0.4,3.1,0.5,3.6,2.1
		c0.4,1.6-0.5,3.2-2,3.6l-6.9,1.8l4,2.3c1.4,0.8,1.9,2.6,1.1,4c-0.8,1.4-2.6,1.9-4,1.1l-4-2.3l1.8,6.9c0.4,1.5-0.5,3.1-2.1,3.6
		c-1.6,0.4-3.2-0.5-3.6-2l-3.4-12.5l-7.1-4.1c-0.8,0.7-1.7,1.2-2.7,1.6v8.2l9.2,9.2c1.1,1.1,1.1,3,0,4.1c-1.2,1.2-3,1.2-4.1,0l-5-5
		v4.3c0,1.6-1.3,2.9-2.9,2.9s-2.9-1.3-2.9-2.9v-4.7l-5,5c-1.1,1.1-3,1.1-4.1,0c-1.1-1.1-1.1-3,0-4.1l9.2-9.2v-8.2
		c-1-0.4-1.9-0.9-2.7-1.6l-7.1,4.1l-3.4,12.5c-0.4,1.5-2,2.5-3.6,2c-1.6-0.4-2.5-2-2.1-3.6l1.8-6.9l-4,2.3c-1.4,0.8-3.2,0.3-4-1.1
		c-0.8-1.4-0.3-3.2,1.1-4l4-2.3l-6.9-1.8c-1.5-0.4-2.5-2-2-3.6c0.4-1.6,2-2.5,3.6-2.1l12.5,3.4l7.1-4.1c-0.1-0.5-0.2-1.1-0.2-1.7
		c0-0.5,0-1,0.1-1.6l-7-4.1l-12.5,3.4c-1.5,0.4-3.1-0.5-3.6-2.1c-0.4-1.6,0.5-3.2,2-3.6l6.9-1.8l-4-2.3c-1.4-0.8-1.9-2.6-1.1-4
		c0.8-1.4,2.6-1.9,4-1.1l4,2.3l-1.8-6.9c-0.4-1.5,0.5-3.1,2.1-3.6c1.6-0.4,3.2,0.5,3.6,2l3.4,12.5l7,4
		C142.8,52,143.8,51.5,144.8,51.1z"/>
	<path d="M144.8,51.1h0.5v-8.3l-9.3-9.3c-0.4-0.4-0.7-1.1-0.7-1.7c0-0.6,0.2-1.3,0.7-1.7c0.5-0.5,1.1-0.8,1.7-0.8
		c0.6,0,1.2,0.2,1.6,0.7l5.9,5.9V30c0-1.3,1.1-2.4,2.4-2.4s2.4,1.1,2.4,2.4v5.9l5.9-5.9c0.4-0.4,1.1-0.7,1.7-0.7
		c0.6,0,1.2,0.2,1.7,0.7c0.4,0.4,0.7,1.1,0.7,1.7c0,0.6-0.2,1.2-0.7,1.7l-9.3,9.3v8.6l0.3,0.1c1,0.4,1.9,0.9,2.7,1.5l0.3,0.2
		l7.5-4.3l3.5-12.7c0.3-1,1.2-1.8,2.3-1.8c0.2,0,0.5,0,0.7,0.1c1.1,0.3,1.8,1.2,1.8,2.4c0,0.2,0,0.4-0.1,0.6l0.5,0.1l-0.5-0.1
		l-2.1,8.1l5-2.9c0.4-0.2,0.8-0.3,1.2-0.3c0.9,0,1.7,0.4,2.1,1.2c0.2,0.4,0.3,0.8,0.3,1.2c0,0.9-0.4,1.7-1.2,2.1l-5.1,2.9l8.1,2.1
		c1,0.3,1.8,1.2,1.8,2.3c0,0.2,0,0.5-0.1,0.7c-0.3,1.1-1.2,1.8-2.4,1.8c-0.2,0-0.4,0-0.6-0.1l-0.1,0.5l0.1-0.5l-12.5-3.6l-7.5,4.4
		l0.1,0.3c0.1,0.4,0.1,0.9,0.1,1.5c0,0.5-0.1,1-0.2,1.6l-0.1,0.3l7.6,4.4l12.7-3.5c0.2-0.1,0.4-0.1,0.6-0.1c1,0,2,0.7,2.4,1.8
		l0.5-0.1l-0.5,0.1c0.1,0.2,0.1,0.4,0.1,0.6c0,1.1-0.7,2.1-1.7,2.3l-8.1,2.1l5.1,2.9c0.8,0.4,1.2,1.3,1.2,2.1c0,0.4-0.1,0.8-0.3,1.2
		c-0.4,0.8-1.3,1.2-2.1,1.2c-0.4,0-0.8-0.1-1.2-0.3l-5-2.9l2.1,8.1c0.1,0.2,0.1,0.4,0.1,0.6c0,1-0.7,2-1.8,2.4l0.1,0.5l-0.1-0.5
		c-0.2,0.1-0.4,0.1-0.6,0.1c-1.1,0-2.1-0.7-2.3-1.7l-3.5-12.7l-7.6-4.4L153,66c-0.7,0.7-1.6,1.1-2.6,1.5l-0.3,0.1v8.7l9.3,9.3
		c0.4,0.4,0.7,1.1,0.7,1.7c0,0.6-0.2,1.2-0.7,1.7s-1.1,0.8-1.7,0.8c-0.6,0-1.2-0.2-1.6-0.7l-5.9-5.9v5.5c0,1.3-1.1,2.4-2.4,2.4
		s-2.4-1.1-2.4-2.4v-5.9l-5.9,5.9c-0.4,0.4-1.1,0.7-1.7,0.7s-1.2-0.2-1.7-0.7c-0.4-0.4-0.7-1.1-0.7-1.7s0.2-1.2,0.7-1.7l9.3-9.3
		v-8.7l-0.3-0.1c-1-0.4-1.8-0.9-2.6-1.5l-0.3-0.2l-7.6,4.4l-3.5,12.7c-0.3,1-1.2,1.8-2.3,1.8c-0.2,0-0.5,0-0.7-0.1
		c-1.1-0.3-1.8-1.2-1.8-2.4c0-0.2,0-0.4,0.1-0.6l-0.5-0.1l0.5,0.1l2.1-8.1l-5,2.9c-0.4,0.2-0.8,0.3-1.2,0.3c-0.8,0-1.7-0.4-2.1-1.2
		c-0.2-0.4-0.3-0.8-0.3-1.2c0-0.9,0.4-1.7,1.2-2.1l5.1-2.9l-8.1-2.1c-1-0.3-1.8-1.2-1.8-2.3c0-0.2,0-0.5,0.1-0.7
		c0.3-1.1,1.2-1.8,2.4-1.8c0.2,0,0.4,0,0.6,0.1l0.1-0.5l-0.1,0.5l12.7,3.5l7.6-4.4l-0.1-0.4c-0.1-0.5-0.2-1.1-0.2-1.6s0-1,0.1-1.5
		l0.1-0.3l-7.5-4.4l-12.7,3.5c-0.2,0.1-0.4,0.1-0.6,0.1c-1,0-2-0.7-2.4-1.8l-0.5,0.1l0.5-0.1c-0.1-0.2-0.1-0.4-0.1-0.6
		c0-1.1,0.7-2.1,1.7-2.4l8.1-2.1l-5.1-2.9c-0.8-0.4-1.2-1.3-1.2-2.1c0-0.4,0.1-0.8,0.3-1.2c0.4-0.8,1.3-1.2,2.1-1.2
		c0.4,0,0.8,0.1,1.2,0.3l5,2.9l-2.1-8.1c-0.1-0.2-0.1-0.4-0.1-0.6c0-1,0.7-2,1.8-2.4l-0.1-0.5l0.1,0.5c0.2-0.1,0.4-0.1,0.6-0.1
		c1.1,0,2.1,0.7,2.3,1.7l3.5,12.7l7.4,4.2l0.2-0.1c0.7-0.2,1.6-0.7,2.6-1.1l0.3-0.1v-0.3h-0.1l-0.2-0.5c-1,0.4-2,0.9-2.6,1.1
		l0.2,0.5l0.2-0.4l-6.8-3.9l-3.3-12.3c-0.4-1.5-1.8-2.5-3.3-2.5c-0.3,0-0.6,0-0.9,0.1c-1.5,0.5-2.5,1.9-2.5,3.4c0,0.3,0,0.6,0.1,0.8
		l1.5,5.7l-3-1.7c-0.5-0.3-1.1-0.4-1.7-0.4c-1.2,0-2.4,0.6-3,1.7c-0.3,0.5-0.4,1.1-0.4,1.7c0,1.2,0.6,2.4,1.7,3l2.9,1.7l-5.7,1.5
		c-1.5,0.4-2.5,1.8-2.5,3.3c0,0.3,0,0.6,0.1,0.9c0.5,1.5,1.9,2.5,3.4,2.5c0.3,0,0.6,0,0.9-0.1l12.3-3.3l6.8,4l0.3-0.4l-0.5-0.1
		c-0.1,0.6-0.1,1.2-0.1,1.7c0,0.7,0.1,1.3,0.2,1.8l0.5-0.1l-0.2-0.4l-6.9,4L119.8,61c-0.3-0.1-0.6-0.1-0.9-0.1c-1.5,0-2.9,1-3.3,2.6
		l0.5,0.1l-0.5-0.1c-0.1,0.3-0.2,0.7-0.2,1c0,1.5,1,2.8,2.5,3.2l5.7,1.5l-2.9,1.7c-1.1,0.6-1.7,1.8-1.7,3c0,0.6,0.1,1.2,0.4,1.7
		c0.6,1.1,1.8,1.7,3,1.7c0.6,0,1.2-0.1,1.7-0.4l3-1.7l-1.5,5.7c-0.1,0.3-0.1,0.6-0.1,0.9c0,1.5,1,2.9,2.6,3.3l0.1-0.5l-0.1,0.5
		c0.3,0.1,0.7,0.2,1,0.2c1.5,0,2.8-1,3.2-2.5l3.3-12.3l6.9-4l-0.2-0.4l-0.3,0.4c0.9,0.7,1.8,1.3,2.8,1.7l0.2-0.5h-0.5v8l-9.1,9.1
		c-0.7,0.7-1,1.5-1,2.4c0,0.9,0.3,1.8,1,2.4c0.7,0.7,1.5,1,2.4,1s1.8-0.3,2.4-1l4.1-4.1V89c0,1.9,1.5,3.4,3.4,3.4
		c1.9,0,3.4-1.5,3.4-3.4v-3.1l4.1,4.1l0.4-0.4l-0.4,0.3c0.6,0.7,1.5,1.1,2.4,1.1c0.9,0,1.8-0.4,2.4-1c0.7-0.7,1-1.5,1-2.4
		c0-0.9-0.3-1.8-1-2.4l-9.1-9.1v-8h-0.5l0.2,0.5c1-0.4,2-0.9,2.8-1.7l-0.3-0.4l-0.2,0.4l6.9,4l3.3,12.3c0.4,1.5,1.8,2.5,3.3,2.5
		c0.3,0,0.6,0,0.9-0.1c1.5-0.5,2.5-1.9,2.5-3.4c0-0.3,0-0.6-0.1-0.8l-1.5-5.7l3,1.7c0.5,0.3,1.1,0.4,1.7,0.4c1.2,0,2.4-0.6,3-1.7
		c0.3-0.5,0.4-1.1,0.4-1.7c0-1.2-0.6-2.4-1.7-3l-2.9-1.7l5.7-1.5c1.5-0.4,2.5-1.8,2.5-3.3c0-0.3,0-0.6-0.1-0.9
		c-0.5-1.5-1.9-2.5-3.4-2.5c-0.3,0-0.6,0-0.9,0.1l-12.3,3.3l-6.9-4l-0.2,0.4l0.5,0.1c0.1-0.6,0.2-1.1,0.2-1.8c0-0.6,0-1.1-0.1-1.7
		l-0.5,0.1l0.3,0.4l6.8-4l12.1,3.4c0.3,0.1,0.6,0.1,0.9,0.1c1.5,0,2.9-1,3.3-2.6l-0.5-0.1l0.5,0.1c0.1-0.3,0.2-0.7,0.2-1
		c0-1.5-1-2.8-2.5-3.2l-5.7-1.5l2.9-1.7c1.1-0.6,1.7-1.8,1.7-3c0-0.6-0.1-1.2-0.4-1.7c-0.6-1.1-1.8-1.7-3-1.7
		c-0.6,0-1.2,0.1-1.7,0.4l-3,1.7l1.5-5.7c0.1-0.3,0.1-0.6,0.1-0.9c0-1.5-1-2.9-2.6-3.3l-0.1,0.5l0.1-0.5c-0.3-0.1-0.7-0.2-1-0.2
		c-1.5,0-2.8,1-3.2,2.5l-3.3,12.3l-6.8,3.9l0.2,0.4l0.3-0.4c-0.9-0.8-1.9-1.3-2.9-1.7l-0.2,0.5h0.5v-7.9l9.1-9.1
		c0.7-0.7,1-1.5,1-2.4s-0.3-1.8-1-2.4c-0.7-0.7-1.5-1-2.4-1c-0.9,0-1.8,0.3-2.4,1l-4.1,4.1V30c0-1.9-1.5-3.4-3.4-3.4
		c-1.9,0-3.4,1.5-3.4,3.4v3.5l-4.1-4.1l-0.4,0.4l0.4-0.3c-0.6-0.7-1.5-1.1-2.4-1.1c-0.9,0-1.8,0.4-2.4,1c-0.7,0.7-1,1.5-1,2.4
		c0,0.9,0.3,1.7,1,2.4l9.1,9.1v7.9h0.5l-0.2-0.5L144.8,51.1z"/>
</g>
</svg>
