<?xml version="1.0" encoding="utf-8"?>
<!-- Generator: Adobe Illustrator 16.0.0, SVG Export Plug-In . SVG Version: 6.00 Build 0)  -->
<!DOCTYPE svg PUBLIC "-//W3C//DTD SVG 1.1//EN" "http://www.w3.org/Graphics/SVG/1.1/DTD/svg11.dtd">
<svg version="1.1" id="Layer_1" xmlns="http://www.w3.org/2000/svg" xmlns:xlink="http://www.w3.org/1999/xlink" x="0px" y="0px"
	 width="106.5px" height="118.2px" viewBox="71.6 -24.3 106.5 118.2" style="enable-background:new 71.6 -24.3 106.5 118.2;"
	 xml:space="preserve">
<style type="text/css">
<![CDATA[
	.st0{fill:#FF00FF;}
	.st1{fill:#333333;}
]]>
</style>
<g>
	<path class="st1" d="M175.8,18.7L175.8,18.7C175.7,18.7,175.7,18.7,175.8,18.7C175.7,18.7,175.7,18.7,175.8,18.7
		c-6.2,0-16,3.8-20.9,5.8l-1-4.6c-0.2-1-0.9-1.7-1.9-2c-0.2-0.1-0.5-0.1-0.7-0.1c-0.7,0-1.4,0.3-1.9,0.8l-11,11.4l7.3-33.5
		c0.2-1.1-0.3-2.3-1.3-2.8c-0.4-0.2-0.9-0.4-1.3-0.4c-0.6,0-1.3,0.2-1.8,0.7l-5.6,5l-8.3-21.3c-0.4-1-1.4-2-2.4-2c-1.1,0-2,1-2.4,2
		l-8.4,21.1l-5.6-5c-0.5-0.4-1.1-0.6-1.8-0.6c-0.5,0-0.9,0.1-1.3,0.4c-1,0.6-1.5,1.7-1.2,2.8l7.3,33.5l-10.9-11.4
		c-0.5-0.5-1.2-0.8-1.9-0.8c-0.2,0-0.5,0-0.7,0.1c-0.9,0.3-1.7,1-1.9,2l-1,4.6c-4.9-2-14.7-5.8-20.9-5.8c0,0,0,0-0.1,0
		c-1.1,0-2,0.7-2.4,1.7c-0.4,1-0.2,2.2,0.6,2.9c2.8,2.6,9.7,9.7,12.8,15.4c-2.3,0.8-5.3,1.9-6.5,2.7c-0.9,0.5-1.3,1.5-1.2,2.5
		s0.8,1.8,1.7,2.2c3.2,1.1,17.2,6,24.1,7.5c-2.2,3.2-7.4,9.2-12.1,14.1c-0.6,0.7-0.9,1.6-0.6,2.5c0.3,0.9,1,1.6,1.9,1.8
		c0.1,0,1.4,0.3,3.6,0.3c3.3,0,8.7-0.7,15.4-4.1l11.5-5.8v15.3c0,4.2-0.8,11.7,8.8,16.1c0.3,0.2,0.7,0.2,1,0.2
		c0.9,0,1.8-0.5,2.3-1.4c0.6-1.2,0-2.7-1.2-3.3c-6.7-3.1-7.5-7.5-7.5-11.6V62.3l11.6,5.9c5.9,3.7,10.9,4.5,14.1,4.5
		c3.2,0,5.2-0.8,5.4-0.9c0.8-0.3,1.4-1,1.6-1.9c0.2-0.9-0.1-1.7-0.7-2.4c-4.7-4.9-9.8-10.9-12.1-14.1c6.9-1.5,20.9-6.4,24.1-7.5
		c1-0.3,1.6-1.2,1.7-2.2c0.1-1-0.4-2-1.2-2.5c-1.2-0.8-4.2-1.9-6.5-2.7c3-5.6,9.9-12.7,12.7-15.3c0.5-0.5,0.9-1.2,0.9-2
		C178.4,19.9,177.2,18.7,175.8,18.7z"/>
	<path class="st0" d="M175.8,18.7v-0.5h-0.1c-0.1,0-0.3,0.1-0.4,0.1c-0.1,0.1-0.1,0.2-0.1,0.4s0.1,0.3,0.1,0.4
		c0.1,0.1,0.2,0.1,0.4,0.1h0.1v-1h-0.1c-0.1,0-0.3,0.1-0.4,0.1c-0.1,0.1-0.1,0.2-0.1,0.4s0.1,0.3,0.1,0.4c0.1,0.1,0.2,0.1,0.4,0.1
		h0.1v-1c-3.2,0-7.2,1-11.1,2.2c-3.9,1.2-7.5,2.7-10,3.7l0.2,0.5l0.5-0.1l-1-4.6l-0.5,0.1l0.5-0.1c-0.2-1.2-1.1-2-2.2-2.4l-0.1,0.5
		l0.2-0.4c-0.4-0.2-0.7-0.1-0.9-0.2c-0.8,0-1.7,0.4-2.3,0.9l0,0l-9.8,10.1l6.9-31.8l0,0c0-0.2,0.1-0.4,0.1-0.6
		c0-1.1-0.6-2.2-1.6-2.8c-0.4-0.2-1-0.4-1.5-0.5c-0.7,0-1.5,0.2-2.2,0.8l0.4,0.4L141-6.4l-5.1,4.5l-8-20.6l0,0
		c-0.2-0.6-0.6-1.1-1.1-1.6c-0.5-0.4-1.1-0.7-1.8-0.8c-0.7,0-1.3,0.3-1.8,0.8c-0.5,0.4-0.8,1-1.1,1.6l0,0L114-2l-5.1-4.5l0,0
		c-0.6-0.5-1.3-0.7-2.1-0.7c-0.6,0-1.1,0.1-1.6,0.5l0.3,0.4l-0.3-0.4c-0.9,0.6-1.5,1.5-1.5,2.6c0,0.3,0,0.5,0.1,0.8l0.5-0.1
		l-0.5,0.1l6.9,31.8l-9.7-10.1l0,0c-0.6-0.6-1.4-0.9-2.3-0.9c-0.2,0-0.5,0-0.9,0.2l0.2,0.4l-0.2-0.5c-1,0.3-2,1.2-2.2,2.4l0.5,0.1
		l-0.5-0.1l-1,4.6l0.5,0.1l0.2-0.5c-2.5-1-6.1-2.5-10-3.7c-3.9-1.2-7.9-2.2-11.1-2.2c0,0,0,0-0.1,0c-1.3,0-2.4,0.9-2.9,2v0
		c-0.2,0.4-0.2,0.8-0.2,1.2c0,0.8,0.3,1.7,1,2.2l0.3-0.4l-0.3,0.4c2.8,2.6,9.7,9.7,12.7,15.3l0.4-0.2L85,38.1
		c-1.2,0.4-2.5,0.9-3.7,1.4c-1.2,0.5-2.3,1-2.9,1.4l0.3,0.4l-0.2-0.4c-1,0.6-1.5,1.6-1.5,2.6c0,0.1,0,0.2,0,0.3c0.1,1.2,1,2.1,2,2.6
		l0,0l0,0c3.2,1.1,17.2,6,24.2,7.5l0.1-0.5l-0.4-0.3c-2.2,3.1-7.4,9.2-12,14l0,0l0,0c-0.5,0.6-0.8,1.3-0.8,2.1c0,0.3,0,0.6,0.1,0.9
		l0,0c0.3,1,1.2,1.9,2.3,2.1l0.1,0h0.1V72l0,0.4l0,0V72l0,0.4h0c0.1,0,0.5,0.1,1.1,0.2c0.6,0.1,1.5,0.1,2.5,0.1
		c3.4,0,8.9-0.7,15.6-4.2h0l10.8-5.4v14.5c0,0.6,0,1.3,0,2c0,2.2,0.1,4.8,1.4,7.5c1.2,2.6,3.5,5.2,7.7,7.1l0.2-0.5l-0.3,0.4
		c0.5,0.3,1,0.3,1.3,0.3c1.1,0,2.2-0.6,2.7-1.7l0,0l0,0c0.2-0.4,0.3-0.8,0.3-1.2c0-1.1-0.7-2.2-1.7-2.7l0,0l0,0
		c-3.3-1.5-5-3.3-6-5.2c-1-1.9-1.2-3.9-1.2-5.9V63.1l10.9,5.5l0.2-0.4l-0.3,0.4c6,3.8,11.1,4.6,14.4,4.6c1.6,0,3-0.2,3.9-0.4
		c0.5-0.1,0.9-0.2,1.1-0.3c0.3-0.1,0.4-0.2,0.5-0.2l-0.2-0.4l0.2,0.5c1-0.4,1.7-1.2,1.9-2.3l0,0c0-0.2,0.1-0.4,0.1-0.7
		c0-0.8-0.4-1.6-0.9-2.2l0,0l0,0c-4.7-4.9-9.8-10.9-12.1-14l-0.4,0.3l0.1,0.5c7-1.5,21-6.4,24.2-7.5l-0.2-0.5l0.1,0.5
		c1.2-0.4,1.9-1.5,2.1-2.6v0c0-0.1,0-0.2,0-0.3c0-1.1-0.6-2.1-1.4-2.7l-0.3,0.4l0.3-0.4c-0.7-0.4-1.7-0.9-2.9-1.4
		c-1.2-0.5-2.5-1-3.7-1.4l-0.2,0.5l0.4,0.2c2.9-5.5,9.8-12.6,12.6-15.2l0,0l0,0c0.6-0.6,1-1.4,1-2.4H178l0.5,0.1
		c0.1-0.2,0.1-0.4,0.1-0.7c0-0.7-0.3-1.3-0.9-1.8c-0.5-0.4-1.2-0.7-1.9-0.7V18.7v0.5c0.5,0,0.9,0.2,1.3,0.5c0.3,0.3,0.5,0.6,0.5,1
		c0,0.1,0,0.2-0.1,0.4l0,0.1v0.1c0,0.6-0.3,1.2-0.8,1.6l0.4,0.4l-0.3-0.4c-2.8,2.6-9.7,9.7-12.8,15.4l-0.3,0.5l0.6,0.2
		c1.1,0.4,2.5,0.9,3.6,1.3c1.2,0.5,2.2,0.9,2.7,1.3l0,0l0,0c0.6,0.4,1,1.1,1,1.8l0,0.2v0c-0.1,0.8-0.6,1.5-1.3,1.8l0,0l0,0
		c-3.2,1.1-17.2,6-24,7.5l-0.7,0.2l0.4,0.6c2.3,3.2,7.4,9.2,12.1,14.2l0.4-0.3l-0.4,0.3c0.4,0.5,0.6,1,0.6,1.5c0,0.1,0,0.3,0,0.4
		l0,0c-0.2,0.7-0.7,1.3-1.3,1.5l0,0l0,0c0,0-0.2,0.1-0.4,0.2c-0.8,0.3-2.4,0.7-4.8,0.7c-3.1,0-8-0.8-13.8-4.4l0,0l-12.3-6.3v16.1
		c0,2.1,0.2,4.3,1.3,6.4c1.1,2.1,3.1,4.1,6.5,5.6l0.2-0.5l-0.2,0.4c0.7,0.3,1.2,1.1,1.2,1.8c0,0.3-0.1,0.5-0.2,0.8l0.4,0.2l-0.4-0.2
		c-0.4,0.7-1.1,1.1-1.9,1.1c-0.3,0-0.6,0-0.7-0.1l0,0l0,0c-4-1.9-6.1-4.2-7.2-6.6c-1.1-2.4-1.3-4.9-1.3-7c0-0.7,0-1.4,0-2V61.5
		l-12.2,6.2h0c-6.6,3.4-11.9,4-15.2,4c-1.1,0-1.9-0.1-2.5-0.1c-0.3,0-0.5-0.1-0.7-0.1l-0.2,0l-0.1,0l-0.1,0v0.5l0.1-0.5
		c-0.7-0.2-1.3-0.7-1.5-1.5l0,0C91,69.8,91,69.6,91,69.4c0-0.5,0.2-1,0.6-1.5l-0.4-0.3l0.4,0.3c4.7-4.9,9.9-10.9,12.2-14.2l0.4-0.6
		l-0.7-0.2c-6.8-1.5-20.8-6.4-24-7.5L79.2,46l0.2-0.5c-0.8-0.3-1.3-1-1.4-1.8l0-0.2c0-0.8,0.3-1.4,1-1.8l0,0l0,0
		c0.5-0.4,1.6-0.8,2.7-1.3c1.2-0.5,2.5-0.9,3.6-1.3l0.6-0.2l-0.3-0.5c-3.2-5.8-10.1-12.9-12.9-15.5l0,0l0,0
		c-0.4-0.4-0.6-0.9-0.6-1.5c0-0.3,0.1-0.6,0.2-0.9v0c0.3-0.8,1.1-1.4,1.9-1.4c0.1,0,0.1,0,0.1,0c3,0,7,0.9,10.8,2.1
		c3.8,1.2,7.5,2.6,9.9,3.6l0.6,0.2l1.1-5.2l0,0c0.2-0.8,0.8-1.4,1.6-1.6l0,0l0,0c0,0,0.3-0.1,0.5,0c0.6,0,1.1,0.2,1.5,0.7l0.4-0.4
		l-0.4,0.3l12.1,12.7l-7.7-35.2l0,0c0-0.2-0.1-0.3-0.1-0.5c0-0.7,0.4-1.3,1-1.7l0,0l0,0c0.3-0.2,0.6-0.3,1-0.3
		c0.6,0,1.1,0.2,1.5,0.5l0.3-0.4l-0.3,0.4l6.1,5.5l8.7-21.8l0,0c0.2-0.4,0.5-0.9,0.8-1.2c0.3-0.3,0.7-0.5,1.1-0.5
		c0.3,0,0.7,0.2,1.1,0.5c0.4,0.3,0.7,0.8,0.8,1.2l0,0l8.6,22l6.1-5.5l0,0c0.4-0.4,1-0.6,1.4-0.6c0.2,0,0.7,0.2,1.1,0.3
		c0.7,0.3,1.1,1.1,1.1,1.9c0,0.1,0,0.3,0,0.4l0.5,0.1l-0.5-0.1l-7.7,35.2l12.2-12.7l-0.4-0.3l0.4,0.4c0.4-0.4,1-0.7,1.5-0.7
		c0.2,0,0.5,0,0.5,0l0,0l0,0c0.9,0.3,1.4,0.8,1.6,1.6l0,0l1.1,5.2l0.6-0.2c2.4-1,6.1-2.4,9.9-3.6c3.8-1.2,7.8-2.1,10.8-2.1v-1h-0.1
		c-0.1,0-0.3,0.1-0.4,0.1c-0.1,0.1-0.1,0.2-0.1,0.4s0.1,0.3,0.1,0.4c0.1,0.1,0.2,0.1,0.4,0.1h0.1v-1h-0.1c-0.1,0-0.3,0.1-0.4,0.1
		c-0.1,0.1-0.1,0.2-0.1,0.4s0.1,0.3,0.1,0.4c0.1,0.1,0.2,0.1,0.4,0.1h0.1V18.7z"/>
</g>
</svg>
