<?xml version="1.0" encoding="utf-8"?>
<!-- Generator: Adobe Illustrator 16.0.0, SVG Export Plug-In . SVG Version: 6.00 Build 0)  -->
<!DOCTYPE svg PUBLIC "-//W3C//DTD SVG 1.1//EN" "http://www.w3.org/Graphics/SVG/1.1/DTD/svg11.dtd">
<svg version="1.1" id="Layer_1" xmlns="http://www.w3.org/2000/svg" xmlns:xlink="http://www.w3.org/1999/xlink" x="0px" y="0px"
	 width="92.6px" height="94.6px" viewBox="76.1 -13.6 92.6 94.6" style="enable-background:new 76.1 -13.6 92.6 94.6;"
	 xml:space="preserve">
<style type="text/css">
<![CDATA[
	.st0{stroke:#000333;stroke-miterlimit:10;}
]]>
</style>
<g>
	<path class="st0" d="M116.6,29.5h10.2c3.5,0,6.3,2.2,6.3,5v41c0,2.8-2.9,5-6.3,5h-10.2c-3.5,0-6.3-2.2-6.3-5v-41
		C110.3,31.7,113.1,29.5,116.6,29.5z"/>
	<path class="st0" d="M152-13.1h9.9c3.5,0,6.3,3,6.3,6.7v80.2c0,3.7-2.9,6.7-6.3,6.7H152c-3.5,0-6.3-3-6.3-6.7v-80
		C145.7-9.9,148.5-13.1,152-13.1z"/>
	<path class="st0" d="M82.9,55h10.2c3.5,0,6.3,1.7,6.3,3.6v18.3c0,2-2.9,3.6-6.3,3.6H82.9c-3.5,0-6.3-1.7-6.3-3.6V58.6
		C76.5,56.6,79.4,55,82.9,55z"/>
</g>
</svg>
