<?xml version="1.0" encoding="utf-8"?>
<!-- Generator: Adobe Illustrator 16.0.0, SVG Export Plug-In . SVG Version: 6.00 Build 0)  -->
<!DOCTYPE svg PUBLIC "-//W3C//DTD SVG 1.1//EN" "http://www.w3.org/Graphics/SVG/1.1/DTD/svg11.dtd">
<svg version="1.1" id="Layer_1" xmlns="http://www.w3.org/2000/svg" xmlns:xlink="http://www.w3.org/1999/xlink" x="0px" y="0px"
	 width="104.6px" height="120.5px" viewBox="206.2 -161.6 104.6 120.5" enable-background="new 206.2 -161.6 104.6 120.5"
	 xml:space="preserve">
<g>
	<path fill="#333333" d="M246.4-122.9c9,0,16.7-6.1,18.8-14.8c0.1-0.3-0.1-0.6-0.3-0.8c-0.3-0.2-0.6-0.1-0.9,0.1
		c-2.4,2.3-5.6,3.6-9,3.6c-7.2,0-13-5.8-13-13c0-5.4,3.4-10.2,8.4-12.1c0.3-0.1,0.5-0.4,0.5-0.7c0-0.3-0.3-0.6-0.6-0.6
		c-1.3-0.3-2.6-0.4-3.9-0.4c-10.7,0-19.4,8.7-19.4,19.4C227-131.5,235.8-122.9,246.4-122.9z"/>
	<polygon fill="#333333" points="292.8,-109.4 304.4,-109.4 304.4,-106.8 292.8,-106.8 292.8,-104.2 297.9,-104.2 297.9,-101.6 
		292.8,-101.6 292.8,-99.1 297.9,-99.1 297.9,-96.5 292.8,-96.5 292.8,-93.9 297.9,-93.9 297.9,-91.3 292.8,-91.3 292.8,-88.7 
		304.4,-88.7 304.4,-86.2 292.8,-86.2 292.8,-83.6 297.9,-83.6 297.9,-81 292.8,-81 292.8,-78.4 297.9,-78.4 297.9,-75.9 
		292.8,-75.9 292.8,-73.3 297.9,-73.3 297.9,-70.7 292.8,-70.7 292.8,-68.1 304.4,-68.1 304.4,-65.6 292.8,-65.6 292.8,-63 
		297.9,-63 297.9,-60.4 292.8,-60.4 292.8,-57.8 297.9,-57.8 297.9,-55.2 292.8,-55.2 292.8,-52.7 297.9,-52.7 297.9,-50.1 
		292.8,-50.1 292.8,-47.5 304.4,-47.5 304.4,-44.9 292.8,-44.9 292.8,-41.1 310.8,-41.1 310.8,-113.2 292.8,-113.2 	"/>
	<path fill="#333333" d="M284.9-104.8c-4.3,0-6.3-6.3-6.3-6.4c-0.3-1-1.2-1.7-2.2-1.8s-2,0.5-2.5,1.4c-0.9,1.8-4,6.8-7.3,6.8
		c-3.2,0-6.1-4.9-6.9-6.7c-0.4-0.9-1.2-1.4-2.1-1.5c-0.9-0.1-1.8,0.4-2.3,1.2c-1.7,2.8-5.2,7-7.4,7c-2.1,0-5.2-4.1-6.6-6.8
		c-0.4-0.8-1.3-1.4-2.2-1.4c-1,0-1.8,0.5-2.2,1.3c-1.3,2.2-4.8,6.9-7.5,6.9c-2.6,0-5.4-4.5-6.4-6.7c-0.4-0.9-1.3-1.5-2.4-1.5
		c-1,0-1.9,0.7-2.3,1.6c-0.1,0.3-2.6,6.5-8.4,6.5c-1.4,0-2.5,1.1-2.5,2.5s1.1,2.5,2.5,2.5c5.2,0,8.7-3,10.7-5.7
		c1.9,2.7,4.9,5.7,8.7,5.7c4,0,7.4-3.3,9.6-6c2,2.8,5.1,6,8.9,6s7.2-3.3,9.4-6c1.9,2.8,5.1,6,9.4,6c4,0,7.2-2.9,9.2-5.5
		c1.7,2.7,4.6,5.5,9,5.5c1.4,0,2.5-1.1,2.5-2.5C287.4-103.7,286.3-104.8,284.9-104.8z"/>
	<path fill="#333333" d="M283.7-46.1c-4.3,0-6.3-6.3-6.3-6.4c-0.3-1-1.2-1.7-2.2-1.8c-1-0.1-2,0.5-2.5,1.4c-0.9,1.8-4,6.8-7.3,6.8
		c-3.2,0-6.1-4.9-6.9-6.7c-0.4-0.9-1.2-1.4-2.1-1.5c-0.9-0.1-1.8,0.4-2.3,1.2c-1.7,2.8-5.2,7-7.4,7c-2.1,0-5.2-4.1-6.6-6.8
		c-0.4-0.8-1.3-1.4-2.2-1.4c-1,0-1.8,0.5-2.2,1.3c-1.3,2.2-4.8,6.9-7.5,6.9c-2.6,0-5.4-4.5-6.4-6.7c-0.4-0.9-1.3-1.5-2.4-1.5
		c-1,0-1.9,0.7-2.3,1.6c-0.1,0.3-2.6,6.5-8.4,6.5c-1.4,0-2.5,1.1-2.5,2.5c0,1.4,1.1,2.5,2.5,2.5c5.2,0,8.7-3,10.7-5.7
		c1.9,2.7,4.9,5.7,8.7,5.7c4,0,7.4-3.3,9.6-6c2,2.8,5.1,6,8.9,6s7.2-3.3,9.4-6c1.9,2.8,5.1,6,9.4,6c4,0,7.2-2.9,9.2-5.5
		c1.7,2.7,4.6,5.5,9,5.5c1.4,0,2.5-1.1,2.5-2.5C286.1-45.1,285-46.1,283.7-46.1z"/>
</g>
</svg>
