<?xml version="1.0" encoding="utf-8"?>
<!-- Generator: Adobe Illustrator 16.0.0, SVG Export Plug-In . SVG Version: 6.00 Build 0)  -->
<!DOCTYPE svg PUBLIC "-//W3C//DTD SVG 1.1//EN" "http://www.w3.org/Graphics/SVG/1.1/DTD/svg11.dtd">
<svg version="1.1" id="Layer_1" xmlns="http://www.w3.org/2000/svg" xmlns:xlink="http://www.w3.org/1999/xlink" x="0px" y="0px"
	 width="100px" height="100px" viewBox="-12.7 -14.3 100 100" style="enable-background:new -12.7 -14.3 100 100;"
	 xml:space="preserve">
<style type="text/css">
<![CDATA[
	.st0{fill:#333333;}
]]>
</style>
<g>
	<path class="st0" d="M34.4,6.5c-1.9,0-3.8,0.2-5.7,0.6c1.6-1.1,3-2.1,4.4-3.5c7.7-7.3-1.3-15.9-8.8-8.5c-1.4,1.4-2.5,2.9-3.6,4.3
		c0.3-1.7,0.6-3.5,0.6-5.5c0-10.5-12.6-10.5-12.6,0c0,1.8,0.2,3.7,0.6,5.5C8.2-2.2,7.1-3.6,5.7-5c-7.7-7.5-16.7,1.2-9,8.5
		C-1.8,5-0.2,6,1.2,7.1c-1.7-0.3-3.6-0.6-5.7-0.6c-10.9,0-10.9,12.2,0,12.2c1.9,0,3.8-0.2,5.7-0.6c-1.6,1.1-3,2.1-4.4,3.5
		c-7.9,7.6,1.1,16.2,8.7,8.8C6.8,29,7.9,27.5,9,26.2c-0.3,1.7-0.6,3.5-0.6,5.5c0,10.5,12.6,10.5,12.6,0c0-1.8-0.2-3.7-0.6-5.5
		c1.1,1.5,2.2,2.9,3.6,4.3c7.7,7.5,16.7-1.2,9-8.5c-1.4-1.4-3-2.4-4.4-3.5c1.7,0.3,3.6,0.6,5.7,0.6C45.2,19,45.2,6.5,34.4,6.5z
		 M9.8,8.3c2.8-2.7,7.6-2.7,10.4,0c2.8,2.7,2.8,6.6,0.6,9.5c-1.3,1.5-3.3,2.4-5.3,2.4c-4.1,0-7.4-3.2-7.4-7.2c0-1.7,0.6-3.2,1.7-4.4
		C9.8,8.5,9.8,8.3,9.8,8.3z"/>
</g>
</svg>
