<?xml version="1.0" encoding="utf-8"?>
<!-- Generator: Adobe Illustrator 16.0.0, SVG Export Plug-In . SVG Version: 6.00 Build 0)  -->
<!DOCTYPE svg PUBLIC "-//W3C//DTD SVG 1.1//EN" "http://www.w3.org/Graphics/SVG/1.1/DTD/svg11.dtd">
<svg version="1.1" id="Layer_1" xmlns="http://www.w3.org/2000/svg" xmlns:xlink="http://www.w3.org/1999/xlink" x="0px" y="0px"
	 width="100px" height="100px" viewBox="-12.7 -14.3 100 100" style="enable-background:new -12.7 -14.3 100 100;"
	 xml:space="preserve">
<style type="text/css">
<![CDATA[
	.st0{fill:#333333;}
]]>
</style>
<g>
	<path class="st0" d="M55.5,45c-0.2,0-0.4,0.1-0.5,0.2c-0.1,0.2-0.1,0.4-0.1,0.4c0.1,0.2,1.1,0.8,3.3,0.8l0,0c0.2,0,0.5,0,0.7,0
		C57.6,45.6,56.3,45,55.5,45z"/>
	<path class="st0" d="M66.5,45.6c0,0,0-0.1-0.1-0.4C66.3,45.1,66.3,45,66,45c-0.8,0-2,0.5-3.1,1.2c0.3,0,0.4,0,0.6,0
		C65.4,46.2,66.4,45.8,66.5,45.6z"/>
	<path class="st0" d="M60.1,47.8c-0.1,0.3-0.4,0.6-0.6,1.1h1.6c-0.1-0.5-0.2-1-0.4-1.2C60.6,47.7,60.4,47.7,60.1,47.8z"/>
	<path class="st0" d="M79.8,50.4H63.6c0.6,2.6,1,6,0.1,8.5L62,58.2c0.9-2.2,0.4-5.3-0.2-7.8H59c-0.5,1.8-0.9,4.2-0.2,7.4l-1.9,0.4
		c-0.6-3.2-0.3-5.8,0.2-7.8H42.3l-6.1,35.2h21.8l3.2-12.2l3.3,12.2h21.7L79.8,50.4z"/>
	<path class="st0" d="M57.9,48.1C57.9,48.1,57.8,48.1,57.9,48.1L57.9,48.1c-1.4,0-3.1-0.3-3.9-1.4c-0.2-0.4-0.5-1.1-0.1-2.1
		c0.4-0.9,1.1-1.4,2.1-1.4c1.6,0,3.9,1.4,4.9,2.2c1.1-0.8,3.3-2.2,4.9-2.2c1,0,1.8,0.5,2.1,1.4c0.4,1,0.1,1.6-0.1,2.1
		c-0.8,1.1-2.5,1.4-3.9,1.4c-0.2,0-0.6,0-0.9,0c0.1,0.2,0.1,0.6,0.3,1h16.1v-7.9H42.6v7.1l-0.1,0.6h14.9
		C57.6,48.6,57.6,48.2,57.9,48.1z"/>
</g>
</svg>
