<?xml version="1.0" encoding="utf-8"?>
<!-- Generator: Adobe Illustrator 16.0.0, SVG Export Plug-In . SVG Version: 6.00 Build 0)  -->
<!DOCTYPE svg PUBLIC "-//W3C//DTD SVG 1.1//EN" "http://www.w3.org/Graphics/SVG/1.1/DTD/svg11.dtd">
<svg version="1.1" id="Layer_1" xmlns="http://www.w3.org/2000/svg" xmlns:xlink="http://www.w3.org/1999/xlink" x="0px" y="0px"
	 width="100.8px" height="80.8px" viewBox="-4.7 0.8 100.8 80.8" style="enable-background:new -4.7 0.8 100.8 80.8;"
	 xml:space="preserve">
<g>
	<path d="M45.7,73.8v0.3c-0.8,1.4-2,2.7-3.4,3.7c-1.3,1-3,1.8-5.3,2.4c-2.1,0.5-4.4,1.1-6.6,0.8c-0.8-0.1-1.7-0.2-2.6-0.5
		c-1.9-0.4-3-1-2.9-1.4c0.3-1.1,2.7-3.4,3.6-4c3.4-2.4,7.4-3.7,11.8-3.3c3,0.3,5.1,1.6,5.7,1.7L45.7,73.8z M86.6,27
		c1.4-1.4,3.7-3.9,4-7.3c0.1-1.1,0.1-2.3,0-3.4c0-2.1-0.7-4.9-1.3-7.1c-0.4-1.5-0.8-2.5-0.8-2.5c-1.3,0.8-3.4,3.3-4.2,5
		c-2.6,5.4-2.7,11.4,0.8,16.5C85.6,28,86.2,27.5,86.6,27z M84.7,41.6c0,0,0.5,0,1.3-0.4c1.4-0.5,3-1.6,3.7-2.3c1-1,1.8-2.1,2.7-3.3
		c1.6-2,2.4-4.1,2.7-6.2l0.1-0.3c0.5-2.1,0.3-3.4,0.1-4.8c-0.1-1.3-0.4-2.1-0.4-2.1c-1.4,0.2-4.4,2.1-5,2.7c-1.3,1.2-2.4,2.3-3.5,4
		c-1,1.6-1.7,3.5-2.1,5.7C83.9,36.6,83.8,40,84.7,41.6z M79.7,54.2c0,0,5.4,0.9,10.4-3.3c2.5-2.1,3.9-5,4.6-7.4l0.1-0.1
		c0.3-0.8,0.4-2.5,0.7-3v-1.1c-6.3,0-11.6,3.7-14.3,8.8C80.5,49.5,79.6,52.3,79.7,54.2z M90.8,55.5c0,0-1.4,5.9-8.6,8.4
		c-1.6,0.8-3.4,1.2-4.9,1.4c-1.6,0.2-5.3-0.1-6.3-1c0.7-2,2-3.5,3-4.7C77.4,55.6,84.8,53.4,90.8,55.5z M80.6,69.5
		c0,0-2.2,4.9-10.3,4.7c-2.1,0.2-4.4,0.2-6.2-0.4H64c-0.5-0.1-1.1-0.3-1.4-0.5c-1.3-0.5-2.1-1.3-3.4-2.1c0.5-1.1,2.7-2.7,4.2-3.5
		c1.7-0.9,3.4-1.4,5.8-1.7c4.7-0.5,8.9,1,11.6,3.3L80.6,69.5z M49.5,77.8c1.3,1,3,1.8,5.3,2.4c2.1,0.5,4.4,1.1,6.6,0.8
		c0.8-0.1,1.7-0.2,2.6-0.5c1.8-0.4,3-1,2.9-1.4c-0.3-1.1-2.7-3.4-3.6-4c-3.4-2.4-7.4-3.7-11.8-3.3c-3,0.3-5.1,1.6-5.7,1.7v0.4
		c0.8,1.4,2,2.7,3.4,3.7L49.5,77.8z M5.2,27c-1.4-1.4-3.7-3.9-4-7.3c-0.1-1.1-0.1-2.3,0-3.4c0-2.1,0.7-4.9,1.3-7.1
		C3,7.7,3.3,6.7,3.3,6.7c1.3,0.8,3.4,3.3,4.2,5c2.6,5.4,2.7,11.4-0.8,16.5C6.2,28,5.8,27.5,5.2,27z M7.3,41.6c0,0-0.4,0-1.3-0.4
		c-1.4-0.5-3-1.6-3.7-2.3c-1-1-1.8-2.1-2.7-3.3c-1.6-2-2.9-8.4-3.4-10.3V25c-0.5-2.1-0.3-3.4-0.1-4.8c0.1-1.3,0.4-2.1,0.4-2.1
		c1.4,0.1,4.8,6.3,5.7,7c1.3,1.2,2.4,2.3,3.5,4c1,1.6,1.7,3.5,2.1,5.7C8.1,36.6,8.2,40,7.3,41.6z M12.3,54.2c0,0-5.4,0.9-10.6-3.3
		c-2.5-2.1-4.5-9.2-5.1-11.6l-0.1-0.1c-0.3-0.8-0.4-2.5-0.7-3V35c6.4,0,12.3,8,14.9,13.1C11.4,49.5,12.4,52.3,12.3,54.2z M1.2,55.5
		c0,0,1.4,5.9,8.6,8.4c1.6,0.8,3.4,1.2,4.9,1.4c1.6,0.2,5.3-0.1,6.3-1c-0.7-2-2-3.5-3-4.7C14.6,55.6,7.2,53.4,1.2,55.5z M32.7,71.4
		l-21.4-1.8c-0.1-0.1-0.2-0.3-0.2-0.3c2.7-2.3,7-3.8,11.6-3.3c2.4,0.3,4,0.9,5.8,1.7C29.8,68.5,32,70.3,32.7,71.4z M11.2,69.5
		c0,0,2.2,4.9,10.3,4.7c2.1,0.2,4.4,0.2,6.2-0.4h0.1c0.5-0.1,1.1-0.3,1.4-0.5c1.3-0.5,2.1-1.3,3.4-2.1 M11.2,69.5L11.2,69.5z"/>
	<path d="M45.7,73.8h-0.5v0.3h0.5l-0.4-0.2c-0.8,1.3-1.9,2.6-3.3,3.5c-1.2,0.9-2.9,1.7-5.1,2.3l0.1,0.5l-0.1-0.5
		c-1.7,0.4-3.5,0.9-5.2,0.9c-0.4,0-0.8,0-1.2-0.1c-0.8-0.1-1.7-0.2-2.5-0.5c-0.9-0.2-1.6-0.4-2-0.6c-0.2-0.1-0.4-0.2-0.5-0.3
		L25.4,79l-0.2,0.1h0.2V79l-0.2,0.1h0.2h-0.3l0.3,0.1v-0.1h-0.3l0.3,0.1l-0.5-0.1l0.5,0.1c0-0.2,0.2-0.5,0.5-0.8
		c0.4-0.5,1-1.2,1.5-1.7c0.6-0.5,1.1-1,1.4-1.2c2.9-2.1,6.3-3.3,9.9-3.3c0.5,0,1,0,1.5,0.1c1.4,0.1,2.7,0.5,3.6,0.9
		c0.5,0.2,0.9,0.4,1.2,0.5c0.3,0.1,0.6,0.2,0.8,0.3l0.1-0.5l-0.4-0.4l-0.3,0.3l-0.1,0.1v0.2L45.7,73.8l0.4,0.3l0.3-0.3l0.7-0.7
		l-1-0.2c0,0-0.3-0.1-0.6-0.2c-1-0.4-2.8-1.2-5.1-1.5c-0.5,0-1.1-0.1-1.6-0.1c-3.9,0-7.5,1.3-10.5,3.5l0.3,0.4l-0.3-0.4
		c-0.5,0.3-1.3,1.1-2.1,1.9c-0.4,0.4-0.8,0.8-1.1,1.2c-0.3,0.4-0.5,0.8-0.6,1.2v0.2c0,0.2,0.1,0.3,0.1,0.4c0.1,0.2,0.3,0.3,0.5,0.5
		c0.6,0.4,1.5,0.7,2.7,1l0.1-0.5L27.6,81c1,0.3,1.9,0.4,2.7,0.5l0.1-0.5l-0.1,0.5c0.4,0.1,0.9,0.1,1.3,0.1c1.9,0,3.8-0.5,5.5-0.9
		c2.3-0.6,4.1-1.4,5.5-2.5l-0.3-0.4l0.3,0.4c1.5-1,2.7-2.4,3.5-3.9l0.1-0.1v-0.4H45.7l0.4,0.4L45.7,73.8z M86.6,27l0.4,0.4
		c1.4-1.4,3.8-4,4.1-7.6c0.1-0.6,0.1-1.2,0.1-1.7s0-1.2-0.1-1.7h-0.5h0.5c0-2.2-0.7-5-1.3-7.2C89.4,7.5,89,6.5,89,6.5L88.7,6
		l-0.5,0.3c-0.7,0.5-1.6,1.3-2.4,2.3c-0.8,1-1.6,2-2,2.9c-1.3,2.6-1.9,5.4-1.9,8.1c0,3.1,0.9,6.1,2.8,8.9l0.2,0.3l0.4-0.1
		c0.6-0.3,1.2-0.8,1.7-1.4L86.6,27l0.4,0.4L86.6,27l-0.4-0.3c-0.3,0.4-0.9,0.9-1.3,1l0.2,0.5l0.4-0.3c-1.8-2.6-2.6-5.5-2.6-8.3
		c0-2.6,0.6-5.2,1.8-7.7c0.4-0.8,1.1-1.8,1.8-2.7c0.8-0.9,1.6-1.7,2.2-2.1l-0.3-0.4L88,6.9c0,0,0,0.1,0.1,0.2
		c0.1,0.3,0.4,1.2,0.7,2.3c0.6,2.2,1.3,5,1.3,7c0,0.5,0.1,1.1,0.1,1.7s0,1.1-0.1,1.7c-0.3,3.2-2.5,5.6-3.9,7L86.6,27z M84.7,41.6
		v0.5c0.1,0,0.6,0,1.5-0.5L86,41.2l0.2,0.5c1.5-0.5,3.1-1.6,3.9-2.4c1-1,1.8-2.2,2.7-3.4l-0.4-0.3l0.4,0.3c1.7-2.1,2.5-4.3,2.8-6.4
		l-0.5-0.1l0.5,0.2l0.1-0.3c0.2-1,0.3-1.9,0.3-2.6c0-0.9-0.1-1.6-0.2-2.4l-0.5,0.1h0.5c-0.1-1.4-0.4-2.2-0.4-2.2l-0.1-0.4l-0.4,0.1
		c-0.4,0.1-0.9,0.2-1.4,0.5c-0.8,0.3-1.6,0.8-2.3,1.2c-0.4,0.2-0.7,0.4-0.9,0.6c-0.3,0.2-0.5,0.4-0.6,0.5l0.4,0.4l-0.3-0.4
		c-1.3,1.2-2.5,2.4-3.6,4.1c-1,1.7-1.8,3.6-2.2,5.9l0.5,0.1L84,34.7c-0.2,0.9-0.3,2.1-0.3,3.3c0,1.5,0.2,3,0.8,4.1l0.1,0.3h0.3v-0.8
		l0.4-0.2c-0.4-0.7-0.6-2.2-0.6-3.6c0-1.1,0.1-2.2,0.3-3.1c0.4-2.1,1.1-4,2-5.5l-0.4-0.3l0.4,0.3c1.1-1.7,2.1-2.7,3.4-3.9
		c0.1-0.1,0.4-0.3,0.8-0.6c0.6-0.4,1.3-0.9,2.1-1.2c0.7-0.4,1.5-0.7,1.9-0.7l-0.1-0.5l-0.5,0.2c0,0.1,0.3,0.9,0.4,1.9
		c0.1,0.8,0.2,1.4,0.2,2.2c0,0.7-0.1,1.4-0.3,2.4l0.5,0.1l-0.5-0.2l-0.1,0.3c-0.3,2-1.1,4-2.6,6c-0.9,1.2-1.7,2.3-2.7,3.2
		c-0.6,0.6-2.2,1.7-3.5,2.2c-0.4,0.2-0.6,0.3-0.8,0.3c-0.1,0-0.2,0-0.2,0v0.7l0.4-0.2L84.7,41.6z M79.7,54.2l-0.1,0.5
		c0,0,0.5,0.1,1.4,0.1c2,0,5.8-0.5,9.4-3.5c2.6-2.2,4-5.2,4.8-7.6l-0.5-0.1l0.4,0.4l0.1-0.1l0.1-0.1v-0.1c0.2-0.5,0.3-1.1,0.4-1.7
		c0-0.3,0.1-0.6,0.2-0.8c0-0.2,0.1-0.4,0.1-0.4l0.1-0.1v-1.2V39h-0.5c-6.5,0-12,3.8-14.7,9.1c-0.7,1.4-1.6,4-1.6,6
		c0,0.1,0,0.2,0,0.3v0.4l0.4,0.1V54.2h0.5c0-0.1,0-0.2,0-0.3c0-1.7,0.8-4.3,1.5-5.6l-0.4-0.2l0.4,0.2c2.6-5,7.8-8.5,13.9-8.5v-0.5
		H95v1.1h0.5l-0.4-0.3c-0.1,0.2-0.2,0.4-0.3,0.7c-0.1,0.4-0.2,0.9-0.2,1.3c-0.1,0.4-0.2,0.8-0.2,1.1l0.5,0.2L94.4,43l-0.1,0.1
		l-0.1,0.1v0.1c-0.7,2.3-2,5.1-4.4,7.2c-3.4,2.8-6.9,3.3-8.8,3.3c-0.4,0-0.7,0-0.9,0c-0.1,0-0.2,0-0.2,0h-0.1L79.7,54.2h0.5H79.7z
		 M90.8,55.5l-0.5-0.1c0,0.1-0.4,1.6-1.6,3.2c-1.2,1.7-3.3,3.6-6.6,4.8c-1.5,0.8-3.3,1.2-4.7,1.4c-0.3,0-0.7,0.1-1.1,0.1
		c-0.9,0-1.9-0.1-2.9-0.3c-0.5-0.1-0.9-0.2-1.2-0.3c-0.3-0.1-0.6-0.3-0.7-0.4L71,64.3l0.5,0.2c0.7-1.9,1.9-3.3,2.9-4.5
		c2.4-2.8,6.9-4.7,11.5-4.7c1.6,0,3.3,0.2,4.8,0.8L90.8,55.5l-0.5-0.1L90.8,55.5L91,55c-1.6-0.6-3.4-0.8-5.1-0.8
		c-4.8,0-9.6,2-12.2,5.1c-1,1.2-2.3,2.7-3.1,4.9l-0.1,0.3l0.2,0.2c0.3,0.3,0.6,0.4,1.1,0.6c1.2,0.4,3,0.6,4.4,0.6
		c0.5,0,0.9,0,1.2-0.1c1.5-0.2,3.4-0.6,5.1-1.4L82.3,64l0.2,0.5c3.7-1.3,5.9-3.5,7.2-5.3c1.3-1.9,1.7-3.4,1.7-3.4l0.1-0.4L91,55
		L90.8,55.5z M80.6,69.5l-0.5-0.2l0.1,0.1l-0.1-0.1l0.1,0.1l-0.1-0.1c0,0-0.5,1.1-1.9,2.2c-1.4,1.1-3.7,2.2-7.4,2.2
		c-0.2,0-0.3,0-0.5,0c-0.8,0.1-1.5,0.1-2.3,0.1c-1.3,0-2.6-0.1-3.7-0.5h-0.1H64v0.5l0.1-0.5c-0.2,0-0.5-0.1-0.7-0.2
		s-0.4-0.2-0.5-0.2h-0.1c-0.6-0.2-1.1-0.5-1.6-0.9c-0.5-0.4-1-0.8-1.7-1.2l-0.3,0.4l0.5,0.2c0.2-0.4,0.8-1.1,1.6-1.7
		c0.8-0.6,1.7-1.2,2.4-1.6c1.6-0.9,3.3-1.3,5.6-1.6L69.2,66l0.1,0.5c0.6-0.1,1.2-0.1,1.8-0.1c3.8,0,7.2,1.4,9.5,3.3l0.3-0.4
		l-0.4-0.4l-0.2,0.2l-0.1,0.1v0.1L80.6,69.5l0.4,0.4l0.2-0.2l0.4-0.4l-0.4-0.4c-2.4-2.1-6-3.5-10.1-3.5c-0.6,0-1.2,0-1.9,0.1
		c-2.4,0.3-4.2,0.8-6,1.8c-0.8,0.4-1.7,1-2.6,1.7c-0.8,0.7-1.5,1.3-1.9,2l-0.2,0.4l0.4,0.2c0.6,0.4,1.1,0.8,1.7,1.1
		c0.5,0.4,1.1,0.7,1.8,1l0.2-0.5l-0.3,0.4c0.2,0.1,0.5,0.2,0.7,0.3c0.3,0.1,0.6,0.2,0.8,0.2h0.1v-0.5l-0.2,0.5
		c1.2,0.4,2.6,0.5,4,0.5c0.8,0,1.6,0,2.4-0.1V74v0.5c0.2,0,0.3,0,0.5,0c4,0,6.5-1.2,8.1-2.5c1.6-1.2,2.1-2.5,2.2-2.5H80.6l0.4,0.4
		L80.6,69.5z M49.5,77.8l-0.3,0.4c1.4,1.1,3.1,1.9,5.5,2.5c1.7,0.4,3.6,0.9,5.5,0.9c0.4,0,0.9,0,1.3-0.1L61.4,81l0.1,0.5
		c0.8-0.1,1.7-0.2,2.7-0.5L64,80.5l0.1,0.5c0.9-0.2,1.6-0.4,2.2-0.7c0.3-0.1,0.5-0.3,0.7-0.4c0.1-0.1,0.2-0.2,0.3-0.3
		c0.1-0.1,0.1-0.3,0.1-0.4V79c-0.1-0.4-0.3-0.8-0.6-1.2c-0.4-0.6-1.1-1.3-1.6-1.8c-0.6-0.6-1.1-1-1.5-1.3l-0.3,0.4l0.3-0.4
		c-3.1-2.2-6.6-3.5-10.5-3.5c-0.5,0-1.1,0-1.6,0.1c-1.6,0.2-2.9,0.6-3.9,1c-0.5,0.2-0.9,0.4-1.2,0.5C46,72.9,45.8,73,45.7,73
		l-0.4,0.1v0.8V74l0.1,0.1c0.8,1.5,2.1,2.8,3.5,3.9l0.3,0.2L49.5,77.8l-0.3,0.4L49.5,77.8l0.3-0.4l-0.3-0.2l-0.3,0.4l0.3-0.4
		c-1.3-1-2.5-2.2-3.3-3.5l-0.4,0.2h0.5v-0.4h-0.5l0.1,0.5c0.3,0,0.5-0.2,0.8-0.3c1-0.4,2.7-1.2,4.8-1.4c0.5,0,1-0.1,1.5-0.1
		c3.7,0,7,1.2,9.9,3.3c0.4,0.3,1.2,1,1.9,1.7c0.4,0.4,0.7,0.8,1,1.1c0.3,0.4,0.4,0.7,0.5,0.8l0.5-0.1l-0.5,0.1l0.3-0.1h-0.3v0.1
		l0.3-0.1h-0.3h0.2h-0.1v0.1h0.2L66.4,79c-0.1,0.1-0.4,0.3-0.9,0.5c-0.4,0.2-1,0.3-1.6,0.5c-0.8,0.3-1.7,0.4-2.5,0.5
		c-0.4,0.1-0.8,0.1-1.2,0.1c-1.7,0-3.5-0.5-5.2-0.9l-0.1,0.5l0.1-0.5c-2.3-0.6-3.9-1.4-5.1-2.3L49.5,77.8z M5.2,27l0.4-0.4
		c-1.4-1.4-3.6-3.8-3.9-7c0-0.5-0.1-1.1-0.1-1.7s0-1.1,0.1-1.7c0-2,0.7-4.8,1.3-7H2.5L3,9.4c0.5-1.5,0.8-2.5,0.8-2.5L3.3,6.7L3,7.1
		c0.6,0.3,1.4,1.1,2.2,2.1C6,10.1,6.7,11.1,7,11.9c1.2,2.5,1.8,5.1,1.8,7.7c0,2.9-0.8,5.7-2.6,8.3l0.4,0.3l0.2-0.5
		c-0.2-0.1-0.3-0.2-0.6-0.4c-0.2-0.2-0.5-0.5-0.8-0.7L5.2,27l0.4-0.4L5.2,27l-0.3,0.4c0.3,0.2,0.5,0.5,0.8,0.7
		c0.3,0.2,0.5,0.4,0.9,0.6L7,28.8l0.2-0.3c1.9-2.8,2.8-5.8,2.8-8.9c0-2.7-0.7-5.5-1.9-8.1c-0.4-0.9-1.2-2-2-2.9
		c-0.8-1-1.7-1.8-2.4-2.3L3,5.9L2.8,6.6c0,0-0.1,0.2-0.2,0.7S2.3,8.3,2,9c-0.6,2.2-1.3,5-1.3,7.2h0.5H0.7c-0.1,0.6-0.1,1.2-0.1,1.7
		c0,0.6,0,1.2,0.1,1.7c0.3,3.6,2.7,6.2,4.1,7.6L5.2,27z M7.3,41.6v-0.5v0.2v-0.2v0.2v-0.2c0,0-0.4,0-1.1-0.4
		c-1.3-0.5-2.9-1.6-3.5-2.2c-1-1-1.8-2-2.7-3.2c-0.3-0.4-0.7-1.2-1.1-2.1c-0.5-1.3-1-3-1.4-4.5s-0.7-2.8-0.9-3.6l-0.5,0.1h0.5V25
		v-0.1v-0.1c-0.2-0.9-0.3-1.7-0.3-2.4c0-0.8,0.1-1.5,0.2-2.2c0-0.6,0.1-1.1,0.2-1.5c0-0.2,0.1-0.3,0.1-0.4v-0.1L-3.7,18v0.5h0.1
		c0.2,0.1,0.7,0.6,1.2,1.2c0.7,0.9,1.6,2.2,2.3,3.3c0.4,0.6,0.7,1.1,1,1.5C1,24.7,1.2,24.9,1.3,25c0.1,0.2,0.2,0.3,0.4,0.4L2,25
		l-0.3,0.4C3,26.6,4,27.7,5.1,29.3L5.5,29l-0.4,0.3c1,1.5,1.6,3.4,2,5.5l0.5-0.1l-0.5,0.1c0.1,0.7,0.2,1.7,0.2,2.7
		c0,1.5-0.2,3-0.6,3.8L7.3,41.6v-0.5V41.6l0.4,0.2c0.6-1.1,0.8-2.7,0.8-4.2c0-1.1-0.1-2.1-0.2-2.9c-0.4-2.3-1.1-4.2-2.2-5.9
		c-1.1-1.7-2.3-2.9-3.6-4.1c0,0-0.2-0.2-0.4-0.4c-0.6-0.8-1.6-2.4-2.6-3.8c-0.5-0.7-1-1.4-1.5-1.9c-0.2-0.3-0.5-0.5-0.7-0.6
		c-0.2-0.2-0.5-0.3-0.8-0.3h-0.4L-4,17.9c0,0-0.3,0.9-0.4,2.2h0.5L-4.4,20c-0.1,0.7-0.2,1.5-0.2,2.4c0,0.8,0.1,1.6,0.3,2.6l0.5-0.1
		h-0.5v0.3v0.1v0.1c0.2,0.9,0.7,3,1.3,5.1c0.3,1.1,0.6,2.1,1,3s0.8,1.7,1.2,2.3l0.4-0.3l-0.4,0.3c0.9,1.2,1.7,2.3,2.7,3.4
		c0.8,0.8,2.4,1.9,3.9,2.4L6,41.2l-0.2,0.5c0.9,0.4,1.4,0.4,1.5,0.4h0.3l0.1-0.3L7.3,41.6z M12.3,54.2l-0.1-0.5
		c-0.1,0-0.5,0.1-1.2,0.1c-1.8,0-5.5-0.4-9-3.3l-0.3,0.4L2,50.5c-1.1-0.9-2.3-3.2-3.1-5.5c-0.9-2.3-1.5-4.7-1.8-5.9V39l-0.2-0.2
		l-0.4,0.4L-3,39c-0.1-0.3-0.2-0.9-0.3-1.5c-0.1-0.3-0.1-0.6-0.2-0.8c-0.1-0.3-0.1-0.5-0.3-0.7l-0.4,0.3h0.5V35h-0.5v0.5
		c3,0,6,1.9,8.5,4.5c2.6,2.6,4.7,5.8,5.9,8.3c0.6,1.3,1.6,3.9,1.6,5.6v0.2L12.3,54.2l-0.1-0.5L12.3,54.2h0.5c0-0.1,0-0.2,0-0.3
		c0-2-1-4.7-1.7-6.1C9.8,45.3,7.7,42,5,39.3c-2.6-2.7-5.8-4.8-9.2-4.8h-0.5v1.8l0.1,0.1c0,0,0.1,0.2,0.1,0.4
		c0.1,0.3,0.1,0.8,0.2,1.2c0.1,0.5,0.2,0.9,0.3,1.3v0.1l0.2,0.2l0.4-0.4l-0.5,0.1c0.3,1.2,1,3.6,1.9,6s2,4.7,3.4,5.9
		c3.8,3,7.6,3.5,9.6,3.5c0.9,0,1.4-0.1,1.4-0.1l0.4-0.1v-0.4L12.3,54.2z M1.2,55.5l-0.5,0.1c0,0,0.4,1.6,1.7,3.4
		c1.3,1.9,3.5,4,7.2,5.3l0.2-0.5l-0.2,0.4c1.7,0.8,3.5,1.2,5.1,1.4c0.3,0,0.8,0.1,1.2,0.1c0.9,0,2-0.1,3-0.3c0.5-0.1,1-0.2,1.4-0.4
		c0.4-0.1,0.8-0.3,1.1-0.6l0.2-0.2l-0.1-0.3c-0.7-2.1-2.1-3.7-3.1-4.9c-2.6-3.1-7.4-5.1-12.2-5.1c-1.7,0-3.5,0.3-5.1,0.8l-0.4,0.1
		l0.1,0.4L1.2,55.5L1.4,56c1.5-0.5,3.2-0.8,4.8-0.8c4.5,0,9.1,1.9,11.5,4.7c1,1.2,2.3,2.7,2.9,4.5l0.5-0.2l-0.3-0.4
		c-0.1,0.1-0.4,0.3-0.7,0.4c-1,0.4-2.8,0.6-4.1,0.6c-0.4,0-0.8,0-1.1-0.1c-1.5-0.2-3.2-0.6-4.7-1.4c-3.5-1.2-5.6-3.2-6.8-5
		c-0.6-0.9-1-1.6-1.2-2.2C2.1,55.8,2,55.6,2,55.4l-0.1-0.2L1.2,55.5L1.4,56L1.2,55.5z M32.7,71.4v-0.5l-21.4-1.8v0.5l0.4-0.4
		l-0.1-0.1l-0.4,0.2l0.3,0.4c2.2-1.9,5.7-3.3,9.5-3.3c0.6,0,1.1,0,1.7,0.1l0.1-0.5l-0.1,0.5c2.3,0.3,3.9,0.9,5.7,1.7l0.2-0.5
		l-0.3,0.4c0.6,0.4,1.5,1,2.3,1.7c0.8,0.7,1.5,1.4,1.8,1.9L32.7,71.4v-0.5V71.4l0.4-0.3c-0.4-0.6-1.2-1.4-2-2.1
		c-0.8-0.7-1.7-1.4-2.4-1.8c-1.8-0.8-3.5-1.4-5.9-1.7c-0.6-0.1-1.2-0.1-1.8-0.1c-4,0-7.7,1.4-10.1,3.5l-0.3,0.3l0.2,0.4l0.1,0.1
		c0,0.1,0.1,0.2,0.2,0.3l0.1,0.1L33.7,72l-0.5-0.9L32.7,71.4z M10.7,69.7c0,0.1,0.6,1.3,2.2,2.5c1.6,1.2,4.2,2.5,8.1,2.5
		c0.2,0,0.3,0,0.5,0v-0.5v0.5c0.8,0.1,1.6,0.1,2.4,0.1c1.4,0,2.8-0.1,4-0.5l-0.2-0.5v0.5h0.1c0.3-0.1,0.6-0.1,0.8-0.2
		c0.3-0.1,0.5-0.2,0.7-0.3L29,73.4l0.2,0.5c0.7-0.3,1.3-0.6,1.8-1s1.1-0.8,1.7-1.1l-0.5-0.9c-0.7,0.4-1.2,0.8-1.7,1.2
		s-1,0.7-1.6,0.9h-0.1c-0.1,0.1-0.3,0.2-0.5,0.2c-0.2,0.1-0.5,0.1-0.7,0.2l0.1,0.5v-0.5h-0.1h-0.1h-0.1c-1.1,0.4-2.4,0.5-3.7,0.5
		c-0.8,0-1.5,0-2.3-0.1c-0.2,0-0.3,0-0.5,0c-3.8,0-6.1-1.1-7.5-2.2c-0.7-0.6-1.2-1.1-1.5-1.5c-0.1-0.2-0.3-0.4-0.3-0.5l-0.1-0.1
		l-0.1,0.1l0.1-0.1l-0.1,0.1l0.1-0.1L10.7,69.7z"/>
	<path d="M46.2,1.3c18.1,0,32.9,14.8,32.9,32.9S64.3,67.1,46.2,67.1c-18.1,0-32.9-14.8-32.9-32.9C13.3,16.2,28.1,1.3,46.2,1.3z
		 M74.5,34.3c0-12.4-8-23.1-19.2-26.9c-0.5,0.5-1.1,1.6-1.1,2.2c0.5,7.7,5.8,1.6,6.9,3c3.3,4.1-6.6,5.2-3,12.4
		c1.6,3.3,3.8,4.4,6.6,4.4c2.7,0,3.8,4.9,4.1,6.9c0.3,1.9,0,7.1-1.1,9.6s0,4.4,1.1,5.2C72,46.6,74.5,40.9,74.5,34.3z M61.6,57.6
		c-1.4-2.5-5.8-2.5-8.2-2.5c-2.7,0.3-5.8,2.2-7.7,2.5c-2.2,0.3-3.3,1.1-5.2,1.1c-1.4,0-1.6,1.1-3.3,2.2c2.7,1.1,5.8,1.4,8.8,1.4
		C52,62.6,57.2,60.6,61.6,57.6z M47,34c3.8-9.9-8-10.7-9.6-11.3c-1.6-0.5-4.4-0.5-5.5-0.3c-1.1,0.3-3-1.4-3-2.7
		c0-1.3,4.1-4.4,5.5-6.6c1.4-2.2,2.5-1.6,4.4-3.8c1.1-1.1,2.7-1.4,3.3-2.7C31.7,8,23.2,14.8,19.9,24.4c2.2,0.3,7.1,0.3,7.7,2.2
		c0.5,1.6-2.2,3.3-2.2,7.1c0,4.1,5.2,4.1,5.2,7.1c0,3,1.1,6.6,1.1,7.7c0,1.1,4.4,6.6,5.8,6.6c1.6,0,0.3-6,0.3-8
		c0-1.1,0.5-4.4,1.1-5.2C40.5,36.8,45.9,37,47,34z"/>
	<path d="M46.2,1.3v0.5c8.9,0,17,3.6,22.9,9.5c5.9,5.9,9.5,14,9.5,22.9c0,8.9-3.6,17-9.5,22.9s-14,9.5-22.9,9.5
		c-8.9,0-17-3.6-22.9-9.5c-5.9-5.9-9.5-14-9.5-22.9c0-8.9,3.6-17,9.5-22.8c5.9-5.9,14-9.6,22.9-9.6V1.3V0.8
		c-18.4,0-33.4,15.1-33.4,33.4c0,18.4,15,33.4,33.4,33.4c18.4,0,33.4-15,33.4-33.4c0-18.4-15-33.4-33.4-33.4V1.3z M74.5,34.3H75
		c0-12.6-8.1-23.5-19.5-27.4l-0.3-0.1L54.9,7c-0.3,0.3-0.6,0.7-0.8,1.2c-0.2,0.5-0.4,0.9-0.4,1.4c0.1,1.6,0.4,2.7,0.9,3.4s1.3,1,2,1
		c0.8,0,1.7-0.3,2.4-0.6c0.4-0.2,0.7-0.3,1-0.4c0.3-0.1,0.5-0.2,0.6-0.2s0.1,0,0.1,0c0.4,0.5,0.6,1,0.6,1.3c0,0.4-0.2,0.9-0.6,1.4
		c-0.6,0.8-1.5,1.6-2.4,2.6c-0.8,1-1.5,2.2-1.5,3.8c0,1,0.3,2,0.9,3.2l0.4-0.2l-0.5,0.2c0.8,1.7,1.8,2.9,3,3.6c1.2,0.7,2.6,1,4,1
		c0.5,0,1,0.2,1.4,0.6c0.6,0.6,1.2,1.7,1.5,2.8c0.4,1.1,0.6,2.3,0.7,3c0.1,0.4,0.1,1,0.1,1.8c0,1.2-0.1,2.6-0.3,4
		c-0.2,1.4-0.5,2.7-0.9,3.6c-0.3,0.8-0.5,1.5-0.5,2.2c0,1.7,0.9,2.9,1.8,3.6l0.4,0.3l0.3-0.4C72.5,46.8,75,41,75,34.3H74.5H74
		c0,6.5-2.5,12.1-5.6,16.5l0.4,0.3l0.3-0.4c-0.7-0.5-1.4-1.5-1.3-2.8c0-0.5,0.1-1.2,0.4-1.8c0.4-1,0.8-2.4,1-3.8
		c0.2-1.4,0.3-2.9,0.3-4.1c0-0.8,0-1.4-0.1-1.9c-0.2-1-0.5-2.8-1.2-4.3c-0.3-0.8-0.8-1.5-1.3-2.1S65.6,29,64.8,29
		c-1.3,0-2.5-0.3-3.5-0.9s-1.9-1.6-2.7-3.2c-0.5-1.1-0.7-2-0.7-2.8c0-0.9,0.2-1.6,0.6-2.2c0.6-1,1.5-1.8,2.3-2.7
		c0.4-0.4,0.8-0.8,1.1-1.3s0.5-1,0.5-1.5c0-0.6-0.3-1.3-0.8-2l-0.4,0.3l0.4-0.3C61.4,12.1,61,12,60.7,12c-0.3,0-0.7,0.1-1,0.2
		c-0.5,0.2-1,0.4-1.6,0.6c-0.5,0.2-1,0.3-1.5,0.3s-0.8-0.1-1.2-0.6c-0.3-0.5-0.6-1.4-0.7-2.9h-0.5h0.5c0-0.1,0.1-0.5,0.3-0.9
		c0.2-0.4,0.5-0.7,0.6-0.9l-0.4-0.4L55,7.9c11.1,3.7,19,14.2,19,26.4H74.5z M61.6,57.6l0.4-0.2c-0.4-0.7-1-1.3-1.7-1.6
		c-1.1-0.6-2.3-0.8-3.6-1c-1.2-0.1-2.4-0.1-3.3-0.1c-1.4,0.2-2.9,0.7-4.3,1.3c-1.4,0.6-2.6,1.1-3.4,1.2l0.1,0.5l-0.1-0.5
		c-1.1,0.2-2,0.4-2.8,0.7c-0.8,0.2-1.5,0.4-2.3,0.4c-0.4,0-0.8,0.1-1.1,0.2c-0.5,0.2-0.8,0.6-1.1,0.9c-0.4,0.4-0.7,0.7-1.3,1.1
		l-1,0.5l0.9,0.4c2.8,1.1,6,1.4,9,1.4v-0.5v0.5c0.4,0,0.8,0,1.2,0c5.6,0,10.5-2,14.7-4.8l0.4-0.3L62,57.4L61.6,57.6l-0.3-0.4
		c-4,2.8-8.8,4.6-14.1,4.6c-0.4,0-0.8,0-1.2,0c-3,0-6-0.3-8.6-1.4l-0.2,0.5l0.3,0.4c0.9-0.6,1.4-1.2,1.8-1.6
		c0.2-0.2,0.4-0.3,0.5-0.4c0.2-0.1,0.4-0.1,0.6-0.1c1,0,1.8-0.2,2.6-0.5c0.8-0.2,1.6-0.5,2.6-0.6c1.1-0.2,2.3-0.7,3.7-1.3
		c1.3-0.5,2.8-1.1,4-1.2l-0.1-0.5v0.5c1.2,0,2.9,0,4.4,0.3c0.8,0.1,1.5,0.4,2,0.7c0.6,0.3,1,0.7,1.3,1.2L61.6,57.6l-0.3-0.4
		L61.6,57.6z M47,34l0.5,0.2c0.5-1.4,0.8-2.7,0.8-3.8c0-1.7-0.6-3.2-1.5-4.2c-1.4-1.6-3.5-2.5-5.3-3c-0.9-0.3-1.8-0.5-2.5-0.6
		s-1.2-0.3-1.4-0.3c-1.1-0.3-2.5-0.4-3.8-0.4c-0.8,0-1.5,0-2,0.1h-0.1c-0.3,0-1-0.3-1.4-0.8c-0.5-0.5-0.8-1.1-0.8-1.5
		c0,0,0-0.2,0.1-0.3c0.3-0.6,1.3-1.7,2.4-2.7c1.1-1.1,2.2-2.2,2.9-3.3c0.7-1,1.2-1.3,1.8-1.7c0.7-0.4,1.5-0.9,2.5-2l-0.4-0.3
		l0.4,0.4c0.5-0.5,1.1-0.8,1.7-1.2s1.3-0.8,1.7-1.6l0.3-1L42,6.1c-10.6,1.4-19.2,8.3-22.6,18.1l-0.2,0.6l0.6,0.1
		c1.1,0.2,2.9,0.2,4.4,0.5c0.8,0.1,1.5,0.3,2,0.6c0.3,0.1,0.5,0.3,0.6,0.4c0.1,0.1,0.2,0.3,0.3,0.4c0,0.1,0,0.2,0,0.3
		c0,0.2-0.1,0.6-0.3,1c-0.6,1.2-2,3-2,5.7c0,1.1,0.4,2,0.9,2.7c0.8,1,2,1.7,2.8,2.3c0.4,0.3,0.8,0.6,1.1,1c0.2,0.3,0.4,0.7,0.4,1.1
		c0,1.6,0.3,3.2,0.6,4.7c0.1,0.7,0.3,1.4,0.4,1.9s0.2,1,0.2,1.2c0,0.3,0.1,0.5,0.2,0.8c0.5,1,1.6,2.5,2.7,3.8
		c0.6,0.7,1.2,1.2,1.7,1.7c0.3,0.2,0.5,0.4,0.8,0.6c0.3,0.1,0.5,0.2,0.8,0.2c0.3,0,0.5-0.1,0.7-0.3c0.3-0.3,0.4-0.6,0.5-1
		c0.1-0.4,0.1-0.8,0.1-1.3c0-1-0.1-2.2-0.3-3.3c-0.1-1.1-0.2-2.1-0.2-2.7c0-0.5,0.1-1.6,0.3-2.6c0.1-0.5,0.2-1,0.3-1.4
		c0.1-0.4,0.3-0.7,0.3-0.8l0.1-0.1v-0.1c0.8-2.4,2.3-3.5,4-4.5c0.8-0.5,1.7-0.9,2.4-1.4c0.7-0.5,1.4-1.1,1.7-2L47,34l0.5,0.2L47,34
		l-0.5-0.2c-0.2,0.6-0.7,1.1-1.3,1.5c-1,0.7-2.3,1.3-3.6,2.2c-1.3,0.9-2.5,2.2-3.2,4.2l0.5,0.1l-0.4-0.3c-0.2,0.3-0.4,0.7-0.5,1.2
		c-0.4,1.4-0.7,3.4-0.7,4.3c0,0.7,0.1,1.7,0.3,2.8c0.1,1.1,0.2,2.2,0.2,3.2c0,0.6-0.1,1-0.1,1.3c0,0.1-0.1,0.2-0.1,0.2
		s-0.2,0-0.4-0.2c-0.4-0.2-0.9-0.7-1.5-1.2c-0.8-0.8-1.7-1.9-2.4-2.8c-0.3-0.5-0.6-0.9-0.8-1.2c-0.1-0.2-0.2-0.3-0.2-0.4v-0.1
		c0-0.4-0.1-0.8-0.2-1.3c-0.3-1.6-0.9-4.2-0.9-6.4c0-0.9-0.4-1.6-1-2.2c-0.8-0.8-1.9-1.4-2.8-2.1c-0.4-0.4-0.8-0.7-1-1.2
		c-0.3-0.5-0.4-1-0.4-1.7c0-1.6,0.5-2.8,1.1-3.9c0.3-0.5,0.6-1,0.8-1.4c0.2-0.5,0.4-0.9,0.4-1.4c0-0.2,0-0.4-0.1-0.6
		c-0.1-0.3-0.3-0.6-0.5-0.8c-0.4-0.4-1-0.7-1.6-0.9c-1-0.3-2.1-0.5-3.1-0.6c-1.1-0.1-2.1-0.2-2.8-0.3l-0.1,0.5l0.5,0.2
		C23.8,15.1,32.2,8.4,42.4,7l-0.1-0.5l-0.5-0.2c-0.2,0.5-0.7,0.8-1.3,1.2s-1.3,0.7-1.9,1.3c-0.9,1-1.6,1.4-2.3,1.8
		c-0.7,0.4-1.4,0.9-2.2,2.1c-0.6,1-2,2.3-3.2,3.6c-0.6,0.6-1.2,1.2-1.6,1.7c-0.2,0.3-0.4,0.5-0.5,0.8c-0.1,0.3-0.2,0.5-0.2,0.8
		c0,0.8,0.5,1.6,1.1,2.2c0.6,0.6,1.3,1,2.1,1.1c0.1,0,0.3,0,0.4-0.1l-0.1-0.5l0.1,0.5c0.4-0.1,1-0.1,1.8-0.1c1.2,0,2.6,0.1,3.5,0.4
		l0.1-0.5l-0.2,0.5c0.2,0.1,0.5,0.1,0.9,0.2c1.3,0.3,3.7,0.7,5.6,1.8c1,0.5,1.9,1.2,2.5,2c0.6,0.8,1,1.9,1,3.2c0,1-0.2,2.1-0.7,3.4
		L47,34z"/>
</g>
</svg>
