<?xml version="1.0" encoding="utf-8"?>
<!-- Generator: Adobe Illustrator 16.0.0, SVG Export Plug-In . SVG Version: 6.00 Build 0)  -->
<!DOCTYPE svg PUBLIC "-//W3C//DTD SVG 1.1//EN" "http://www.w3.org/Graphics/SVG/1.1/DTD/svg11.dtd">
<svg version="1.1" id="Layer_1" xmlns="http://www.w3.org/2000/svg" xmlns:xlink="http://www.w3.org/1999/xlink" x="0px" y="0px"
	 width="66.836px" height="56.9px" viewBox="176.908 -168 66.836 56.9" enable-background="new 176.908 -168 66.836 56.9"
	 xml:space="preserve">
<path fill="#35ABBB" d="M215.111-128.626c1.066-1.23,1.695-2.857,1.695-4.348s-0.615-3.117-1.654-4.334
	c-1.23-1.449-2.98-2.256-4.922-2.256c-4.266,0-6.535,3.828-6.535,6.59c0,0.561,0.465,1.025,1.025,1.025s1.025-0.465,1.025-1.025
	c0-0.984,0.438-2.119,1.148-2.98c0.588-0.711,1.654-1.572,3.322-1.572c2.939,0,4.512,2.639,4.512,4.539
	c0,1.859-1.613,4.553-4.512,4.553h-28.533c-0.561,0-1.025,0.465-1.025,1.025s0.465,1.025,1.025,1.025h28.561
	C212.131-126.37,213.854-127.177,215.111-128.626z"/>
<path fill="#35ABBB" d="M184.145-130.608h12.223c2.734,0,4.566-2.352,4.566-4.553c0-2.188-1.75-4.553-4.566-4.553
	c-1.34,0-2.557,0.574-3.404,1.6c-0.697,0.834-1.107,1.941-1.107,2.953c0,0.561,0.465,1.025,1.025,1.025s1.025-0.465,1.025-1.025
	c0-0.875,0.725-2.502,2.461-2.502c0.875,0,2.516,0.738,2.516,2.502c0,1.025-0.889,2.502-2.516,2.502h-12.223
	c-0.561,0-1.025,0.465-1.025,1.025S183.584-130.608,184.145-130.608z"/>
<path fill="#35ABBB" d="M222.658-123.034c-0.875-1.012-2.078-1.559-3.391-1.559h-14.725h-18.348c-0.561,0-1.025,0.465-1.025,1.025
	s0.465,1.025,1.025,1.025h18.348c1.641,0,2.707,0.834,3.309,1.531c0.738,0.861,1.203,1.996,1.203,2.994
	c0,1.9-1.572,4.525-4.512,4.525c-1.682,0-2.734-0.848-3.322-1.559c-0.711-0.848-1.148-1.982-1.148-2.967
	c0-0.561-0.465-1.025-1.025-1.025s-1.025,0.465-1.025,1.025c0,2.762,2.27,6.576,6.521,6.576c1.928,0,3.678-0.793,4.922-2.242
	c1.039-1.217,1.654-2.83,1.654-4.32c0-1.477-0.629-3.104-1.695-4.334c-0.055-0.068-0.123-0.137-0.178-0.191h10.035
	c1.025,0,2.516,0.902,2.516,2.516c0,0.875-0.738,2.516-2.516,2.516s-2.543-1.668-2.543-2.516c0-0.561-0.465-1.025-1.025-1.025
	s-1.025,0.465-1.025,1.025c0,1.914,1.6,4.566,4.594,4.566c1.34,0,2.557-0.561,3.418-1.572c0.711-0.834,1.135-1.955,1.135-2.994
	C223.82-121.052,223.383-122.173,222.658-123.034z"/>
<path fill="#333333" d="M226.938-155.354h-1.572c-3.049-7.232-10.199-12.305-18.525-12.305c-11.102,0-20.098,8.996-20.098,20.098
	c0,0.246,0,0.492,0.014,0.738c-5.414,1.285-9.447,6.152-9.447,11.977c0,2.215,0.588,4.293,1.613,6.098
	c0.328-0.656,0.875-1.176,1.545-1.477c-0.711-1.395-1.107-2.967-1.107-4.621c0-4.771,3.24-8.873,7.875-9.98l1.641-0.383
	l-0.055-1.682c-0.014-0.26-0.014-0.465-0.014-0.67c0-9.953,8.094-18.047,18.047-18.047c7.287,0,13.809,4.334,16.639,11.047
	l0.533,1.258h2.926c7.916,0,14.355,6.439,14.355,14.355s-6.439,14.355-14.355,14.355h-2.953c0.068,0.068,0.137,0.15,0.205,0.219
	c0.479,0.547,0.861,1.176,1.135,1.832h1.6c9.064,0,16.406-7.342,16.406-16.406S236.002-155.354,226.938-155.354z"/>
</svg>
